<svg width="45" height="45" viewBox="0 0 45 45" fill="none" xmlns="http://www.w3.org/2000/svg">
<rect x="0.46582" y="0.679199" width="43.9848" height="43.9848" rx="21.9924" fill="#21BDC6"/>
<path d="M30.126 24.2086C30.0492 24.2874 29.7593 24.6245 29.4892 24.9017C27.9057 26.6454 23.7749 29.4995 21.6128 30.3706C21.2845 30.5106 20.4543 30.8069 20.0108 30.8259C19.5858 30.8259 19.1806 30.7281 18.794 30.5297C18.3121 30.2524 17.9255 29.8161 17.7137 29.3011C17.5773 28.9436 17.3655 27.874 17.3655 27.855C17.1536 26.6848 17.0371 24.7835 17.0371 22.6824C17.0371 20.6805 17.1536 18.8566 17.3271 17.6688C17.3469 17.6497 17.5588 16.3206 17.7905 15.8653C18.2155 15.0335 19.0456 14.5171 19.934 14.5171H20.0108C20.5894 14.5375 21.8061 15.0539 21.8061 15.0729C23.8517 15.9455 27.8872 18.6595 29.509 20.463C29.509 20.463 29.9658 20.9265 30.1644 21.2159C30.4742 21.6318 30.6278 22.1469 30.6278 22.662C30.6278 23.2369 30.4544 23.7724 30.126 24.2086" fill="white"/>
</svg>
