<svg width="60" height="60" viewBox="0 0 60 60" fill="none" xmlns="http://www.w3.org/2000/svg">
<circle cx="30" cy="30" r="30" fill="#3CA90A"/>
<g clip-path="url(#clip0_9628_8934)">
<path d="M44.374 48.922C44.374 50.1306 37.94 51.1106 30.0016 51.1106C22.0633 51.1106 15.6289 50.1306 15.6289 48.922C15.6289 47.7134 22.0629 46.7329 30.0016 46.7329C37.9404 46.7329 44.374 47.713 44.374 48.922Z" fill="white" fill-opacity="0.5"/>
<path d="M15.2383 31.9695L18.1943 28.9169C18.1943 28.9169 21.8637 25.8643 23.6986 27.4915C25.5335 29.1186 28.1834 25.6587 30.4261 25.6587C32.6687 25.6587 35.7265 29.3242 37.7652 28.9169C39.804 28.5097 40.8214 27.0842 40.8214 27.0842L43.7774 29.7315L43.1678 31.9695L45.5121 33.295C45.5121 33.295 42.6571 42.1532 40.2118 43.3766C37.7664 44.6001 29.4067 47.449 24.5141 45.0054C19.6214 42.5617 15.2383 31.9695 15.2383 31.9695Z" fill="#F5E4D0"/>
<path d="M25.238 38.0811C25.238 38.0811 25.1709 42.2001 25.6804 42.8363C26.1899 43.4725 28.9605 43.0797 29.443 43.8075C29.7307 44.2448 29.8543 44.7697 29.7921 45.2892L28.9412 44.3204C28.9412 44.3204 26.9901 43.828 26.1577 44.0738C26.1577 44.0738 27.4401 45.3045 27.1155 46.0982C26.791 46.8918 26.3748 46.9698 26.3748 46.9698L26.2695 45.956C26.2695 45.956 25.382 44.8655 25.1467 44.3068C24.9115 43.7481 23.5077 43.8918 22.9753 44.0356C22.4429 44.1794 21.8823 44.4136 21.5176 44.31C21.1529 44.2063 20.581 44.8321 20.581 44.8321C20.581 44.8321 20.5151 44.0264 20.684 43.779C20.8529 43.5316 21.5429 43.5312 21.5429 43.5312C21.5429 43.5312 22.8957 42.9315 23.7027 42.8656C24.5098 42.7997 24.1249 38.1791 24.1249 38.1791L25.238 38.0811Z" fill="#D9663B"/>
<path d="M34.9035 38.2754C34.9035 38.2754 34.4427 41.9056 34.9509 42.5422C35.4592 43.1788 38.5367 43.0178 39.0189 43.7472C39.501 44.4766 39.577 45.5016 39.577 45.5016L38.5025 44.3786C38.5025 44.3786 36.2945 43.9741 35.4781 44.0998C35.4781 44.0998 37.0175 45.2426 36.693 46.0358C36.3684 46.8291 35.9518 46.9078 35.9518 46.9078L35.8465 45.8937C35.8465 45.8937 34.7523 44.8939 34.5175 44.3352C34.2826 43.7765 33.0851 43.8299 32.5515 43.9737C32.0178 44.1175 31.4585 44.3521 31.0938 44.2485C30.729 44.1448 30.1572 44.7706 30.1572 44.7706C30.1572 44.7706 30.0913 43.9645 30.2602 43.7175C30.4291 43.4704 31.1191 43.4696 31.1191 43.4696C31.1191 43.4696 32.4723 42.87 33.2789 42.8041C34.0856 42.7382 33.4176 38.5136 33.4176 38.5136L34.9035 38.2754Z" fill="#D9663B"/>
<path d="M37.32 21.9904C37.32 21.9904 41.3259 23.0817 41.6898 28.2964C42.0538 33.5112 37.8053 38.7239 33.1926 40.0578C28.5798 41.3917 22.2676 40.6639 19.5967 33.8723C16.9258 27.0806 19.7174 22.2322 24.4524 21.5048C29.1874 20.7774 37.32 21.9904 37.32 21.9904Z" fill="#FCC55B"/>
<path d="M26.9457 27.6121C26.9457 27.6121 29.7336 30.8121 27.3438 34.6527C24.954 38.4933 21.4559 37.2635 21.7213 34.576C21.9867 31.8885 24.6801 30.1481 24.1493 29.2524C23.6185 28.3567 24.4236 25.8199 26.9457 27.6121Z" fill="#F5B947"/>
<path d="M27.0616 27.2646C27.0616 27.2646 29.6107 30.296 27.4255 33.9322C25.2404 37.5684 21.7202 36.5996 21.9631 34.0527C22.206 31.5057 23.2986 29.6874 23.6625 28.3539C23.9202 27.4129 24.755 25.5672 27.0616 27.2646Z" fill="#FFCC7B"/>
<path d="M38.3513 15.8427C38.3513 15.8427 35.9233 8.06543 27.9118 11.4357C19.9003 14.8061 21.5985 22.5834 24.2702 24.3981C26.9419 26.2128 33.4957 27.2498 37.1381 23.6205C40.7806 19.9911 38.3513 15.8427 38.3513 15.8427Z" fill="#F5B947"/>
<path d="M38.3513 15.5033C38.3513 15.5033 35.9233 8.22844 27.9118 11.3811C19.9003 14.5337 21.5985 21.8089 24.2702 23.5063C26.9419 25.2037 33.4957 26.1737 37.1381 22.7785C40.7806 19.3833 38.3513 15.5033 38.3513 15.5033Z" fill="#FCC55B"/>
<path d="M41.7484 17.4433C41.7484 17.4433 40.1705 16.2307 39.0779 15.8672C37.9853 15.5037 37.3785 14.7759 37.3785 14.7759C37.3785 14.7759 36.5288 16.2307 37.3785 16.7159C38.2282 17.2011 36.286 17.8072 35.5577 18.7772C34.8295 19.7472 35.0719 19.7472 35.0719 19.7472C35.0719 19.7472 37.3785 18.1691 38.4711 18.1691C39.5637 18.1691 41.5059 17.9281 41.7484 17.4433Z" fill="#DD8454"/>
<path d="M36.8955 19.7463C36.8955 19.7463 37.7456 19.2611 39.202 19.1398C40.6585 19.0185 41.7511 17.4424 41.7511 17.4424C41.7511 17.4424 39.687 18.0477 38.473 18.1682C37.259 18.2887 36.7129 18.7747 36.7129 18.7747L36.8955 19.7463Z" fill="#D66D3A"/>
<path d="M34.2257 17.8075C35.0621 17.0914 33.9096 14.9557 32.018 15.3C30.1264 15.6442 30.1779 17.2854 30.9484 17.928C31.6766 18.5345 33.0217 18.8378 34.2257 17.8075Z" fill="white"/>
<path d="M38.4936 16.7834C38.385 16.6472 38.2277 16.5424 38.0488 16.546C38.0158 16.546 38.0194 16.6388 38.0488 16.6468C38.2096 16.6914 38.3548 16.7557 38.469 16.8782C38.5012 16.9123 38.5121 16.8063 38.4936 16.7834Z" fill="#D66D3A"/>
<path d="M32.3431 16.2531C32.7131 16.2531 33.1031 16.4137 33.27 16.7692C33.3335 16.9046 33.3372 17.0222 33.1968 17.0974C33.105 17.1419 33.0072 17.173 32.9065 17.1897C32.6754 17.2364 32.4378 17.2406 32.2052 17.2022C32.0122 17.1705 31.7837 17.1082 31.6647 16.9391C31.499 16.7033 31.7813 16.5575 31.9752 16.5005C32.1558 16.4484 32.3471 16.4457 32.5291 16.4927C32.7111 16.5396 32.8771 16.6346 33.0098 16.7676C33.0142 16.6941 33.0183 16.6206 33.0227 16.5471C32.8128 16.6676 32.5804 16.682 32.3455 16.6853C32.2973 16.6853 32.3017 16.821 32.3363 16.8383C32.5747 16.9552 32.8273 16.9082 33.0508 16.78C33.1055 16.7483 33.1043 16.6013 33.0637 16.5591C32.9271 16.4182 32.7553 16.3163 32.5661 16.2637C32.3769 16.2112 32.1771 16.21 31.9872 16.2603C31.8211 16.3061 31.6354 16.3908 31.5541 16.5523C31.5171 16.6343 31.4994 16.7237 31.5023 16.8137C31.5051 16.9036 31.5285 16.9917 31.5706 17.0712C31.7717 17.4605 32.3773 17.4846 32.7517 17.436C32.9471 17.4107 33.2089 17.3693 33.3388 17.203C33.4425 17.0704 33.424 16.8817 33.3629 16.7371C33.2049 16.3559 32.7549 16.0791 32.3431 16.1976C32.327 16.2021 32.325 16.2531 32.3431 16.2531Z" fill="#5E4940"/>
<path d="M32.9122 16.105C32.921 16.1275 32.9235 16.1215 32.9194 16.0869C32.9182 16.0973 32.9182 16.1079 32.9194 16.1183C32.92 16.1252 32.92 16.1322 32.9194 16.1392C32.913 16.1626 32.9007 16.184 32.8837 16.2014C32.8651 16.2233 32.8408 16.2397 32.8134 16.2486C32.7861 16.2576 32.7568 16.2587 32.7288 16.252L32.749 16.2645C32.7305 16.2404 32.7244 16.2319 32.7341 16.2127C32.7422 16.1965 32.7542 16.1825 32.769 16.172C32.7838 16.1615 32.8009 16.1548 32.8189 16.1524C32.8522 16.1472 32.8862 16.1492 32.9186 16.1584C32.9464 16.1669 32.9765 16.1866 33.0063 16.1809C33.0429 16.1741 33.0389 16.1034 33.032 16.0781C33.0262 16.0462 33.0109 16.0169 32.9881 15.9939C32.9652 15.9709 32.936 15.9553 32.9042 15.9492C32.8748 15.9442 32.8447 15.9457 32.816 15.9536C32.7873 15.9615 32.7607 15.9756 32.7381 15.995C32.6332 16.0809 32.6211 16.2629 32.679 16.3781C32.6927 16.4051 32.7059 16.4283 32.7353 16.4368C32.7621 16.4424 32.79 16.4403 32.8157 16.4308C32.8662 16.4133 32.9094 16.3793 32.9383 16.3344C32.9712 16.2859 32.9894 16.229 32.9905 16.1704C32.9917 16.1119 32.9758 16.0543 32.9448 16.0046C32.9295 15.9837 32.9142 16.0046 32.9082 16.0211C32.8983 16.0483 32.8992 16.0783 32.9106 16.105H32.9122Z" fill="white"/>
<path d="M45.5567 33.2567C44.5916 33.0643 43.5786 33.0699 43.4741 33.9041C43.2702 35.5333 41.7413 37.977 41.7413 37.977C41.7413 37.977 41.0738 36.2635 40.1103 36.3478C36.2258 36.6888 38.7366 34.3701 37.8676 33.1916C36.8764 31.8469 33.6888 33.5989 33.6888 33.5989C33.6888 33.5989 32.0578 35.6353 30.2229 35.4317C28.388 35.228 26.6552 36.2462 26.2475 37.7733C25.8397 39.3004 22.2721 40.9295 21.9664 40.0134C21.6608 39.0972 22.2721 36.5515 22.2721 36.5515L20.5393 36.8567C20.5393 36.8567 19.9277 34.5151 19.0112 33.4969C18.4249 32.8466 16.549 32.279 15.2715 31.9541C15.3616 43.7998 23.6654 49.1254 30.0717 49.1254C36.6906 49.1254 45.0259 45.3353 45.5567 33.2567Z" fill="#F7EEED"/>
<path d="M20.8544 23.8048C21.0446 22.9192 19.7509 21.8841 18.783 21.2471C16.7949 24.095 15.3264 27.2716 14.4453 30.6302C15.6814 31.1403 17.7234 31.7516 19.2933 31.072C21.7061 30.0277 23.0331 26.7707 23.0331 26.7707C23.0331 26.7707 20.5548 25.1978 20.8544 23.8048Z" fill="#F7EEED"/>
<path d="M42.6997 26.8473C43.1372 27.0164 43.7267 25.5134 44.2181 23.9208C42.1239 14.0268 35.6497 7.88662 30.8049 7.77938C26.9679 7.69262 21.9759 11.2646 18.543 17.1123C20.0582 17.5449 22.3302 18.349 22.7496 19.3716C23.3894 20.9313 25.7016 23.7935 25.7016 23.7935C25.7687 24.0879 31.2034 23.33 31.0647 20.4818C31.0092 19.3451 35.0988 19.3496 35.0988 19.3496C35.0988 19.3496 34.7248 22.899 36.0237 23.471C37.3225 24.0429 40.5616 24.6049 40.5616 24.6049C40.5616 24.6049 41.7982 26.4987 42.6997 26.8473Z" fill="#F7EEED"/>
<path d="M30.1215 10.2836C26.4517 8.65447 21.8647 15.7815 24.6168 17.6143C27.369 19.447 34.3868 12.177 30.1215 10.2836Z" fill="white"/>
</g>
<defs>
<clipPath id="clip0_9628_8934">
<rect width="31.1111" height="43.3333" fill="white" transform="translate(14.4453 7.77783)"/>
</clipPath>
</defs>
</svg>
