<svg width="173" height="158" viewBox="0 0 173 158" fill="none" xmlns="http://www.w3.org/2000/svg">
<path d="M42.7499 156.015C41.7431 157.626 39.6164 158.122 38.0467 157.051C24.7864 148.009 14.3006 135.42 7.80766 120.692C0.851456 104.913 -1.20055 87.407 1.91806 70.447C5.03665 53.4871 13.1818 37.8564 25.2961 25.5841C37.4104 13.3118 52.9342 4.9648 69.8523 1.62669C86.7704 -1.71141 104.301 0.113578 120.169 6.86473C136.037 13.6159 149.509 24.9814 158.835 39.4857C168.162 53.99 172.913 70.9633 172.472 88.2019C172.06 104.292 167.141 119.921 158.31 133.322C157.264 134.909 155.108 135.258 153.565 134.15C152.022 133.042 151.676 130.896 152.716 129.306C160.746 117.028 165.217 102.737 165.594 88.0257C166 72.1662 161.629 56.5508 153.049 43.2069C144.468 29.8629 132.074 19.4066 117.476 13.1956C102.877 6.98449 86.7488 5.3055 71.1841 8.37655C55.6195 11.4476 41.3375 19.1269 30.1924 30.4174C19.0473 41.7079 11.5537 56.0881 8.6846 71.6913C5.81549 87.2944 7.70334 103.4 14.103 117.916C20.0394 131.382 29.6037 142.904 41.6958 151.212C43.2617 152.288 43.7566 154.404 42.7499 156.015Z" fill="#21BDC6"/>
</svg>
