<svg width="452" height="254" viewBox="0 0 452 254" fill="none" xmlns="http://www.w3.org/2000/svg">
<rect width="452" height="254" fill="#1B1B1B"/>
<path d="M208.327 35V25.2H209.657V35H208.327ZM211.506 35V28.14H212.486L212.738 29.456L212.262 29.232C212.692 28.77 213.109 28.4503 213.515 28.273C213.921 28.091 214.348 28 214.796 28C215.132 28 215.454 28.056 215.762 28.168C216.075 28.2753 216.355 28.4667 216.602 28.742C216.854 29.0127 217.055 29.3907 217.204 29.876L216.854 29.722C217.06 29.19 217.375 28.77 217.799 28.462C218.224 28.154 218.796 28 219.514 28C220.088 28 220.571 28.1073 220.963 28.322C221.355 28.532 221.649 28.8563 221.845 29.295C222.046 29.729 222.146 30.282 222.146 30.954V35H220.886V30.968C220.886 30.324 220.76 29.855 220.508 29.561C220.256 29.267 219.846 29.12 219.276 29.12C218.875 29.12 218.553 29.183 218.31 29.309C218.068 29.4303 217.883 29.589 217.757 29.785C217.636 29.981 217.554 30.1887 217.512 30.408C217.475 30.6273 217.456 30.8327 217.456 31.024V35H216.196V31.22C216.196 30.66 216.129 30.2283 215.993 29.925C215.858 29.6217 215.669 29.4117 215.426 29.295C215.184 29.1783 214.904 29.12 214.586 29.12C214.124 29.12 213.711 29.2227 213.347 29.428C212.983 29.6287 212.738 29.9507 212.612 30.394L212.766 29.708V35H211.506ZM225.38 35.14C224.955 35.14 224.584 35.0537 224.267 34.881C223.949 34.7083 223.702 34.4727 223.525 34.174C223.352 33.8753 223.266 33.5347 223.266 33.152C223.266 32.7647 223.35 32.4333 223.518 32.158C223.69 31.878 223.919 31.647 224.204 31.465C224.493 31.2783 224.815 31.1313 225.17 31.024C225.524 30.912 225.891 30.8327 226.269 30.786C226.651 30.7347 227.018 30.7067 227.368 30.702C227.368 30.0487 227.239 29.6217 226.983 29.421C226.726 29.2203 226.355 29.12 225.87 29.12C225.613 29.12 225.338 29.1597 225.044 29.239C224.754 29.3183 224.428 29.484 224.064 29.736L223.882 28.714C224.157 28.504 224.5 28.3337 224.911 28.203C225.321 28.0677 225.753 28 226.206 28C226.784 28 227.251 28.1027 227.606 28.308C227.96 28.5087 228.219 28.8493 228.383 29.33C228.546 29.8107 228.628 30.464 228.628 31.29V32.69C228.628 33.0167 228.642 33.2873 228.67 33.502C228.702 33.712 228.772 33.8707 228.88 33.978C228.992 34.0807 229.169 34.132 229.412 34.132H229.538L229.342 35.14H229.244C228.838 35.14 228.523 35.1003 228.299 35.021C228.079 34.9417 227.911 34.8273 227.795 34.678C227.678 34.5287 227.573 34.3467 227.48 34.132C227.223 34.4307 226.92 34.6733 226.57 34.86C226.22 35.0467 225.823 35.14 225.38 35.14ZM225.618 34.132C225.954 34.132 226.278 34.048 226.591 33.88C226.908 33.712 227.167 33.488 227.368 33.208V31.57C226.7 31.5933 226.159 31.6587 225.744 31.766C225.333 31.8733 225.032 32.0343 224.841 32.249C224.649 32.4637 224.554 32.7413 224.554 33.082C224.554 33.4507 224.652 33.719 224.848 33.887C225.048 34.0503 225.305 34.132 225.618 34.132ZM233.282 38.5C232.657 38.5 232.097 38.423 231.602 38.269C231.112 38.115 230.725 37.8863 230.44 37.583C230.16 37.2797 230.02 36.904 230.02 36.456C230.02 36.0827 230.125 35.7607 230.335 35.49C230.55 35.224 230.842 35.0093 231.21 34.846C230.991 34.7387 230.823 34.6127 230.706 34.468C230.594 34.3187 230.538 34.1553 230.538 33.978C230.538 33.768 230.601 33.579 230.727 33.411C230.858 33.2383 231.066 33.096 231.35 32.984C230.968 32.746 230.674 32.4263 230.468 32.025C230.263 31.619 230.16 31.1687 230.16 30.674C230.16 30.1747 230.272 29.7243 230.496 29.323C230.72 28.917 231.042 28.595 231.462 28.357C231.887 28.119 232.396 28 232.988 28C233.306 28 233.604 28.0467 233.884 28.14C234.169 28.2333 234.43 28.364 234.668 28.532C234.878 28.4107 235.126 28.3103 235.41 28.231C235.7 28.1517 236.022 28.112 236.376 28.112C236.4 28.112 236.418 28.112 236.432 28.112C236.451 28.112 236.47 28.112 236.488 28.112L236.334 28.952C236.278 28.952 236.225 28.952 236.173 28.952C236.122 28.952 236.068 28.952 236.012 28.952C235.966 28.952 235.858 28.959 235.69 28.973C235.522 28.987 235.368 29.0127 235.228 29.05C235.42 29.274 235.567 29.526 235.669 29.806C235.777 30.0813 235.83 30.3707 235.83 30.674C235.83 31.1967 235.716 31.6657 235.487 32.081C235.263 32.4917 234.939 32.8183 234.514 33.061C234.09 33.299 233.581 33.418 232.988 33.418C232.82 33.418 232.659 33.4087 232.505 33.39C232.351 33.3667 232.204 33.334 232.064 33.292C231.85 33.362 231.742 33.4833 231.742 33.656C231.742 33.7587 231.803 33.8497 231.924 33.929C232.046 34.0037 232.242 34.062 232.512 34.104L234.346 34.398C235.088 34.5147 235.66 34.7293 236.061 35.042C236.467 35.3547 236.67 35.798 236.67 36.372C236.67 36.848 236.53 37.2423 236.25 37.555C235.975 37.8723 235.583 38.108 235.074 38.262C234.566 38.4207 233.968 38.5 233.282 38.5ZM233.394 37.38C234.038 37.38 234.533 37.296 234.878 37.128C235.224 36.9647 235.396 36.722 235.396 36.4C235.396 36.148 235.287 35.9497 235.067 35.805C234.853 35.6603 234.542 35.5507 234.136 35.476L232.183 35.147C231.927 35.259 231.703 35.4083 231.511 35.595C231.32 35.7863 231.224 36.008 231.224 36.26C231.224 36.652 231.42 36.9367 231.812 37.114C232.209 37.2913 232.736 37.38 233.394 37.38ZM232.988 32.41C233.52 32.41 233.926 32.2513 234.206 31.934C234.486 31.612 234.626 31.1967 234.626 30.688C234.626 30.198 234.486 29.7967 234.206 29.484C233.926 29.1667 233.52 29.008 232.988 29.008C232.456 29.008 232.053 29.1667 231.777 29.484C231.502 29.7967 231.364 30.198 231.364 30.688C231.364 31.1967 231.502 31.612 231.777 31.934C232.053 32.2513 232.456 32.41 232.988 32.41ZM240.773 35.14C239.966 35.14 239.287 34.9743 238.736 34.643C238.185 34.3117 237.768 33.873 237.483 33.327C237.203 32.7763 237.063 32.172 237.063 31.514C237.063 30.8747 237.194 30.289 237.455 29.757C237.721 29.225 238.104 28.8003 238.603 28.483C239.107 28.161 239.714 28 240.423 28C240.992 28 241.499 28.1143 241.942 28.343C242.39 28.567 242.74 28.896 242.992 29.33C243.249 29.7593 243.377 30.282 243.377 30.898C243.377 30.996 243.372 31.1033 243.363 31.22C243.358 31.332 243.344 31.4487 243.321 31.57H238.351C238.412 32.2047 238.563 32.6993 238.806 33.054C239.049 33.4087 239.354 33.6583 239.723 33.803C240.092 33.9477 240.493 34.02 240.927 34.02C241.244 34.02 241.576 33.9873 241.921 33.922C242.266 33.8567 242.593 33.754 242.901 33.614L243.069 34.608C242.803 34.7247 242.479 34.8437 242.096 34.965C241.713 35.0817 241.272 35.14 240.773 35.14ZM238.463 30.702H242.075C242.075 30.38 242.014 30.1 241.893 29.862C241.772 29.624 241.587 29.442 241.34 29.316C241.093 29.1853 240.778 29.12 240.395 29.12C239.835 29.12 239.403 29.26 239.1 29.54C238.801 29.8153 238.589 30.2027 238.463 30.702Z" fill="white"/>
</svg>
