<svg width="130" height="130" viewBox="0 0 130 130" fill="none" xmlns="http://www.w3.org/2000/svg">
<g clip-path="url(#clip0_10217_11277)">
<rect width="120" height="120" transform="translate(5 5)" fill="#36BFC7"/>
</g>
<path fill-rule="evenodd" clip-rule="evenodd" d="M58.1827 101.335C48.6957 99.5588 40.2803 94.1433 34.7357 86.2464C29.1911 78.3495 26.9574 68.5978 28.512 59.0762C31.3618 61.0774 45.9537 63.8537 51.5452 66.9366C62.692 73.1024 62.3673 86.2091 58.1647 101.389L58.1827 101.335ZM61.3031 28.2295C53.4647 29.0378 46.0889 32.3256 40.2495 37.6143C34.41 42.903 30.4117 49.9165 28.8366 57.634C29.1168 57.6471 29.3949 57.6894 29.6663 57.7601C53.1144 60.4464 77.7528 60.4644 79.6467 33.8724C79.6166 32.9792 79.876 32.1003 80.3862 31.3664C74.4341 28.6516 67.8664 27.569 61.3573 28.2295H61.3031ZM68.1752 39.8398C68.6832 40.6337 69.025 41.5222 69.18 42.4518C69.335 43.3814 69.3 44.3327 69.0771 45.2483C68.6871 46.9432 67.6872 48.4354 66.2676 49.441C64.8481 50.4465 63.1081 50.8952 61.3791 50.7014C59.6501 50.5076 58.0527 49.6851 56.8912 48.3903C55.7297 47.0955 55.0852 45.4189 55.0804 43.6799L62.8363 44.8337L68.2474 39.8939L68.1752 39.8398ZM59.1567 34.8459L71.6563 35.3147L62.6379 43.752L49.2004 41.7509L59.1567 34.8459Z" fill="white"/>
<path fill-rule="evenodd" clip-rule="evenodd" d="M82.8957 32.6646C89.7979 36.4701 95.302 42.3817 98.604 49.5361C101.906 56.6904 102.833 64.7126 101.25 72.4309C99.666 80.1493 95.6551 87.1594 89.8025 92.4373C83.9499 97.7153 76.5623 100.985 68.7187 101.768C67.2151 101.926 65.7028 101.987 64.1914 101.948C75.0136 81.3595 82.1381 58.0126 82.9498 35.2426C83.0586 34.3853 83.0403 33.5166 82.8957 32.6646V32.6646Z" fill="white"/>
<circle cx="105" cy="109" r="16" fill="#005487"/>
<path d="M111.7 103.301C109.988 101.588 108.312 101.544 106.556 103.301L105.488 104.369C105.4 104.457 105.365 104.598 105.4 104.722C106.071 107.061 107.941 108.932 110.28 109.603C110.315 109.612 110.35 109.621 110.386 109.621C110.483 109.621 110.571 109.586 110.641 109.515L111.7 108.447C112.574 107.582 112.997 106.743 112.997 105.896C113.006 105.022 112.583 104.175 111.7 103.301Z" fill="white"/>
<path d="M108.691 110.406C108.435 110.282 108.188 110.159 107.95 110.018C107.755 109.903 107.57 109.779 107.385 109.647C107.235 109.55 107.058 109.409 106.891 109.267C106.873 109.259 106.811 109.206 106.741 109.135C106.45 108.888 106.123 108.57 105.832 108.217C105.805 108.199 105.761 108.137 105.7 108.058C105.611 107.952 105.461 107.776 105.329 107.573C105.223 107.44 105.1 107.246 104.985 107.052C104.844 106.813 104.72 106.575 104.597 106.328C104.591 106.316 104.586 106.304 104.58 106.292C104.428 105.961 103.994 105.863 103.736 106.121L98.7466 111.112C98.6319 111.227 98.526 111.448 98.4996 111.598L98.0231 114.978C97.9349 115.579 98.1025 116.144 98.4731 116.523C98.7907 116.832 99.2319 117 99.7084 117C99.8143 117 99.9202 116.991 100.026 116.973L103.414 116.497C103.573 116.47 103.794 116.364 103.9 116.249L108.882 111.265C109.142 111.005 109.044 110.559 108.707 110.413C108.702 110.411 108.696 110.408 108.691 110.406Z" fill="white"/>
<defs>
<clipPath id="clip0_10217_11277">
<rect width="120" height="120" fill="white" transform="translate(5 5)"/>
</clipPath>
</defs>
</svg>
