<svg width="48" height="48" viewBox="0 0 48 48" fill="none" xmlns="http://www.w3.org/2000/svg">
<circle cx="24" cy="24" r="24" fill="#3CA90A"/>
<g clip-path="url(#clip0_9628_8368)">
<path d="M35.498 39.1375C35.498 40.1044 30.3508 40.8884 24.0001 40.8884C17.6495 40.8884 12.502 40.1044 12.502 39.1375C12.502 38.1706 17.6491 37.3862 24.0001 37.3862C30.3511 37.3862 35.498 38.1703 35.498 39.1375Z" fill="white" fill-opacity="0.5"/>
<path d="M12.1895 25.5755L14.5543 23.1335C14.5543 23.1335 17.4898 20.6914 18.9577 21.9931C20.4256 23.2948 22.5456 20.5269 24.3397 20.5269C26.1338 20.5269 28.58 23.4593 30.211 23.1335C31.842 22.8076 32.6559 21.6672 32.6559 21.6672L35.0207 23.7851L34.533 25.5755L36.4085 26.6359C36.4085 26.6359 34.1245 33.7224 32.1682 34.7012C30.212 35.68 23.5242 37.9591 19.6101 36.0042C15.696 34.0492 12.1895 25.5755 12.1895 25.5755Z" fill="#F5E4D0"/>
<path d="M20.1898 30.4648C20.1898 30.4648 20.1361 33.7601 20.5437 34.269C20.9513 34.778 23.1678 34.4638 23.5538 35.046C23.784 35.3959 23.8829 35.8157 23.8331 36.2314L23.1524 35.4563C23.1524 35.4563 21.5915 35.0624 20.9256 35.259C20.9256 35.259 21.9515 36.2436 21.6918 36.8785C21.4322 37.5135 21.0993 37.5758 21.0993 37.5758L21.015 36.7648C21.015 36.7648 20.305 35.8924 20.1168 35.4454C19.9286 34.9984 18.8056 35.1135 18.3796 35.2285C17.9537 35.3435 17.5053 35.5309 17.2135 35.448C16.9217 35.3651 16.4642 35.8657 16.4642 35.8657C16.4642 35.8657 16.4115 35.2211 16.5466 35.0232C16.6817 34.8252 17.2337 34.8249 17.2337 34.8249C17.2337 34.8249 18.3159 34.3452 18.9616 34.2925C19.6072 34.2398 19.2994 30.5432 19.2994 30.5432L20.1898 30.4648Z" fill="#D9663B"/>
<path d="M27.9224 30.6201C27.9224 30.6201 27.5537 33.5243 27.9604 34.0336C28.367 34.5429 30.829 34.414 31.2147 34.9976C31.6004 35.5811 31.6612 36.4011 31.6612 36.4011L30.8016 35.5027C30.8016 35.5027 29.0352 35.1791 28.3821 35.2797C28.3821 35.2797 29.6136 36.1939 29.354 36.8285C29.0944 37.4631 28.7611 37.5261 28.7611 37.5261L28.6768 36.7147C28.6768 36.7147 27.8014 35.9149 27.6136 35.468C27.4257 35.021 26.4677 35.0637 26.0408 35.1788C25.6139 35.2938 25.1664 35.4815 24.8746 35.3986C24.5828 35.3157 24.1254 35.8163 24.1254 35.8163C24.1254 35.8163 24.0726 35.1714 24.2077 34.9738C24.3428 34.7762 24.8949 34.7755 24.8949 34.7755C24.8949 34.7755 25.9774 34.2958 26.6227 34.2431C27.2681 34.1904 26.7337 30.8107 26.7337 30.8107L27.9224 30.6201Z" fill="#D9663B"/>
<path d="M29.8548 17.5924C29.8548 17.5924 33.0596 18.4655 33.3507 22.6372C33.6418 26.809 30.2431 30.9792 26.5529 32.0463C22.8627 33.1135 17.8129 32.5312 15.6762 27.0979C13.5395 21.6646 15.7727 17.7859 19.5607 17.2039C23.3487 16.622 29.8548 17.5924 29.8548 17.5924Z" fill="#FCC55B"/>
<path d="M21.5562 22.0895C21.5562 22.0895 23.7865 24.6495 21.8746 27.722C19.9628 30.7945 17.1643 29.8106 17.3766 27.6606C17.589 25.5106 19.7437 24.1183 19.3191 23.4017C18.8944 22.6852 19.5385 20.6557 21.5562 22.0895Z" fill="#F5B947"/>
<path d="M21.6489 21.8119C21.6489 21.8119 23.6882 24.237 21.94 27.1459C20.1919 30.0549 17.3758 29.2799 17.5701 27.2423C17.7644 25.2048 18.6385 23.7502 18.9296 22.6833C19.1358 21.9305 19.8036 20.454 21.6489 21.8119Z" fill="#FFCC7B"/>
<path d="M30.6801 12.6743C30.6801 12.6743 28.7377 6.45244 22.3285 9.14869C15.9193 11.8449 17.2778 18.0668 19.4152 19.5186C21.5525 20.9703 26.7956 21.8 29.7095 18.8965C32.6235 15.993 30.6801 12.6743 30.6801 12.6743Z" fill="#F5B947"/>
<path d="M30.6801 12.4027C30.6801 12.4027 28.7377 6.58285 22.3285 9.10494C15.9193 11.627 17.2778 17.4472 19.4152 18.8051C21.5525 20.1631 26.7956 20.9391 29.7095 18.2229C32.6235 15.5067 30.6801 12.4027 30.6801 12.4027Z" fill="#FCC55B"/>
<path d="M33.3985 13.9547C33.3985 13.9547 32.1362 12.9846 31.2621 12.6938C30.3881 12.403 29.9026 11.8208 29.9026 11.8208C29.9026 11.8208 29.2229 12.9846 29.9026 13.3728C30.5824 13.761 29.0286 14.2458 28.446 15.0218C27.8634 15.7979 28.0574 15.7979 28.0574 15.7979C28.0574 15.7979 29.9026 14.5354 30.7767 14.5354C31.6507 14.5354 33.2045 14.3426 33.3985 13.9547Z" fill="#DD8454"/>
<path d="M29.5152 15.7972C29.5152 15.7972 30.1953 15.4091 31.3605 15.312C32.5257 15.215 33.3997 13.9541 33.3997 13.9541C33.3997 13.9541 31.7484 14.4383 30.7772 14.5347C29.806 14.6311 29.3691 15.0199 29.3691 15.0199L29.5152 15.7972Z" fill="#D66D3A"/>
<path d="M27.3792 14.2458C28.0483 13.6729 27.1263 11.9644 25.613 12.2398C24.0998 12.5151 24.141 13.8281 24.7573 14.3422C25.3399 14.8274 26.416 15.07 27.3792 14.2458Z" fill="white"/>
<path d="M30.7935 13.4268C30.7066 13.3179 30.5808 13.234 30.4377 13.2369C30.4113 13.2369 30.4142 13.3111 30.4377 13.3175C30.5663 13.3532 30.6825 13.4046 30.7739 13.5026C30.7996 13.5299 30.8083 13.4451 30.7935 13.4268Z" fill="#D66D3A"/>
<path d="M25.8741 13.0025C26.1701 13.0025 26.4821 13.1311 26.6156 13.4155C26.6664 13.5237 26.6693 13.6179 26.5571 13.678C26.4836 13.7136 26.4054 13.7385 26.3248 13.7519C26.1399 13.7892 25.9498 13.7926 25.7637 13.7618C25.6093 13.7365 25.4266 13.6867 25.3314 13.5514C25.1988 13.3628 25.4247 13.2461 25.5797 13.2005C25.7242 13.1588 25.8773 13.1566 26.0229 13.1942C26.1685 13.2318 26.3013 13.3078 26.4075 13.4142C26.411 13.3554 26.4142 13.2966 26.4178 13.2378C26.2498 13.3342 26.0639 13.3457 25.876 13.3483C25.8374 13.3483 25.841 13.4569 25.8686 13.4707C26.0594 13.5642 26.2614 13.5266 26.4403 13.4241C26.484 13.3987 26.4831 13.2811 26.4506 13.2474C26.3413 13.1347 26.2038 13.0531 26.0525 13.0111C25.9011 12.9691 25.7413 12.9681 25.5894 13.0083C25.4565 13.045 25.3079 13.1128 25.2429 13.2419C25.2133 13.3076 25.1991 13.3791 25.2014 13.451C25.2037 13.523 25.2224 13.5935 25.2561 13.6571C25.417 13.9685 25.9014 13.9877 26.2009 13.9489C26.3573 13.9286 26.5667 13.8955 26.6706 13.7625C26.7536 13.6565 26.7388 13.5054 26.6899 13.3898C26.5635 13.0848 26.2035 12.8634 25.8741 12.9582C25.8612 12.9617 25.8596 13.0025 25.8741 13.0025Z" fill="#5E4940"/>
<path d="M26.3294 12.8838C26.3364 12.9018 26.3384 12.897 26.3352 12.8694C26.3342 12.8777 26.3342 12.8861 26.3352 12.8944C26.3356 12.9 26.3356 12.9056 26.3352 12.9111C26.33 12.9299 26.3202 12.947 26.3065 12.9609C26.2917 12.9785 26.2722 12.9916 26.2504 12.9987C26.2285 13.0059 26.2051 13.0068 26.1827 13.0014L26.1988 13.0114C26.184 12.9921 26.1792 12.9854 26.1869 12.9699C26.1934 12.957 26.203 12.9458 26.2148 12.9374C26.2267 12.929 26.2404 12.9236 26.2547 12.9217C26.2814 12.9175 26.3086 12.9192 26.3345 12.9266C26.3567 12.9333 26.3808 12.949 26.4046 12.9445C26.4339 12.9391 26.4307 12.8825 26.4252 12.8623C26.4206 12.8368 26.4083 12.8133 26.3901 12.7949C26.3718 12.7765 26.3484 12.764 26.3229 12.7591C26.2995 12.7551 26.2754 12.7564 26.2524 12.7627C26.2295 12.769 26.2082 12.7803 26.1901 12.7958C26.1061 12.8645 26.0965 13.0101 26.1428 13.1023C26.1537 13.1238 26.1644 13.1425 26.1878 13.1492C26.2093 13.1537 26.2316 13.1521 26.2522 13.1444C26.2926 13.1304 26.3272 13.1033 26.3503 13.0673C26.3766 13.0285 26.3911 12.983 26.392 12.9362C26.3929 12.8893 26.3802 12.8432 26.3554 12.8035C26.3432 12.7868 26.331 12.8035 26.3262 12.8167C26.3183 12.8385 26.3189 12.8625 26.3281 12.8838H26.3294Z" fill="white"/>
<path d="M36.4449 26.6055C35.6729 26.4516 34.8625 26.4561 34.7789 27.1235C34.6158 28.4268 33.3927 30.3818 33.3927 30.3818C33.3927 30.3818 32.8586 29.011 32.0878 29.0785C28.9802 29.3513 30.9889 27.4963 30.2937 26.5535C29.5007 25.4777 26.9506 26.8793 26.9506 26.8793C26.9506 26.8793 25.6458 28.5084 24.1779 28.3455C22.71 28.1826 21.3238 28.9972 20.9976 30.2188C20.6714 31.4405 17.8173 32.7438 17.5728 32.0109C17.3283 31.2779 17.8173 29.2414 17.8173 29.2414L16.4311 29.4856C16.4311 29.4856 15.9418 27.6123 15.2086 26.7977C14.7396 26.2775 13.2388 25.8234 12.2168 25.5635C12.2889 35.04 18.932 39.3005 24.0569 39.3005C29.3521 39.3005 36.0203 36.2684 36.4449 26.6055Z" fill="#F7EEED"/>
<path d="M16.6829 19.0438C16.8351 18.3352 15.8002 17.5072 15.0258 16.9976C13.4353 19.2759 12.2605 21.8172 11.5557 24.5041C12.5446 24.9122 14.1782 25.4012 15.4341 24.8575C17.3643 24.0221 18.4259 21.4164 18.4259 21.4164C18.4259 21.4164 16.4432 20.1581 16.6829 19.0438Z" fill="#F7EEED"/>
<path d="M34.1584 21.4778C34.5084 21.613 34.98 20.4106 35.3731 19.1366C33.6977 11.2213 28.5184 6.3092 24.6426 6.2234C21.5729 6.154 17.5793 9.01156 14.833 13.6898C16.0452 14.0358 17.8628 14.6791 18.1983 15.4972C18.7101 16.7449 20.5599 19.0347 20.5599 19.0347C20.6136 19.2702 24.9614 18.6639 24.8504 16.3854C24.806 15.476 28.0777 15.4795 28.0777 15.4795C28.0777 15.4795 27.7785 18.3191 28.8176 18.7767C29.8567 19.2343 32.4479 19.6838 32.4479 19.6838C32.4479 19.6838 33.4372 21.1988 34.1584 21.4778Z" fill="#F7EEED"/>
<path d="M24.0968 8.22678C21.161 6.92348 17.4914 12.6251 19.6931 14.0913C21.8948 15.5575 27.5091 9.74151 24.0968 8.22678Z" fill="white"/>
</g>
<defs>
<clipPath id="clip0_9628_8368">
<rect width="24.8889" height="34.6667" fill="white" transform="translate(11.5557 6.22217)"/>
</clipPath>
</defs>
</svg>
