<svg width="199" height="72" viewBox="0 0 199 72" fill="none" xmlns="http://www.w3.org/2000/svg">
<path fill-rule="evenodd" clip-rule="evenodd" d="M29.371 71.3921C20.1301 69.662 11.9331 64.387 6.53236 56.695C1.13165 49.003 -1.04413 39.5044 0.470162 30.2299C3.24605 32.1791 17.4593 34.8834 22.9057 37.8863C33.7632 43.8921 33.447 56.6587 29.3534 71.4448L29.371 71.3921ZM32.4104 0.183588C24.7753 0.970936 17.591 4.1734 11.9031 9.32486C6.21518 14.4763 2.32063 21.3079 0.786389 28.825C1.05932 28.8379 1.33018 28.879 1.59457 28.9479C24.4341 31.5645 48.4333 31.582 50.278 5.68003C50.2487 4.81006 50.5013 3.95393 50.9983 3.23913C45.2006 0.59478 38.8033 -0.459807 32.4631 0.183588H32.4104ZM39.1042 11.4926C39.599 12.2659 39.9319 13.1314 40.0829 14.0368C40.2338 14.9423 40.1997 15.8689 39.9826 16.7608C39.6028 18.4116 38.6288 19.8652 37.2461 20.8447C35.8634 21.8241 34.1686 22.2611 32.4844 22.0724C30.8002 21.8836 29.2443 21.0824 28.113 19.8212C26.9816 18.56 26.3538 16.927 26.3491 15.233L33.9038 16.357L39.1744 11.5453L39.1042 11.4926ZM30.3197 6.62833L42.495 7.08492L33.7105 15.3033L20.6217 13.3541L30.3197 6.62833Z" fill="white"/>
<path fill-rule="evenodd" clip-rule="evenodd" d="M53.4406 4.50317C60.1637 8.20995 65.525 13.9682 68.7413 20.9369C71.9576 27.9056 72.8605 35.7196 71.3182 43.2377C69.7758 50.7557 65.8689 57.5839 60.1682 62.7249C54.4674 67.8659 47.2715 71.0504 39.6315 71.8132C38.1669 71.9677 36.6939 72.0264 35.2217 71.9888C45.763 51.9345 52.7027 29.1935 53.4933 7.01434C53.5992 6.17923 53.5815 5.3331 53.4406 4.50317V4.50317Z" fill="white"/>
<path d="M93.7623 41.4559C93.5443 41.4704 93.3255 41.4704 93.1074 41.4559C91.547 41.37 89.5608 41.3271 87.1486 41.3271H80.0518C80.3065 41.2952 80.5508 41.2063 80.7665 41.0669C80.9821 40.9276 81.1635 40.7414 81.2972 40.5223C81.6245 39.9371 81.7772 39.2705 81.7374 38.6013V24.6503C81.7785 23.981 81.6256 23.3141 81.2972 22.7294C81.1624 22.5103 80.9809 22.3236 80.7656 22.1826C80.5503 22.0416 80.3066 21.9498 80.0518 21.9138H85.6777C87.1916 21.9138 88.5981 21.9138 89.8864 21.9138H90.1012C91.003 21.9138 91.8405 21.8494 92.6242 21.785C93.408 21.7206 93.6013 21.785 93.6013 21.9138V22.3967V25.0689C93.5625 24.8145 93.459 24.5743 93.3007 24.3713C93.0777 24.1297 92.8022 23.9424 92.4954 23.824C92.0203 23.648 91.5269 23.5256 91.0245 23.4591C90.2375 23.3533 89.4455 23.2888 88.6517 23.266C87.7928 23.266 86.6118 23.266 85.0872 23.266C84.8614 23.2368 84.6326 23.2902 84.443 23.4162C84.4145 23.5687 84.4145 23.7252 84.443 23.8777V30.1449C84.443 30.3917 84.5826 30.5098 84.8725 30.5098H90.6809C91.0009 30.5376 91.3232 30.5016 91.6291 30.4039C91.9351 30.3063 92.2186 30.1489 92.4632 29.941C92.8248 29.5679 93.0612 29.0916 93.1396 28.5781C93.1396 29.3722 93.1396 31.0249 93.1396 33.5146C93.1077 33.2613 93.0186 33.0187 92.8791 32.8049C92.7396 32.5911 92.5533 32.4118 92.3344 32.2805C91.77 31.9084 91.1101 31.7072 90.434 31.7009C89.1456 31.6151 87.213 31.5936 84.7114 31.6044C84.5289 31.6044 84.443 31.6795 84.443 31.8297V38.3652C84.443 39.2881 84.9798 39.8569 86.0642 40.0823C86.3362 40.1252 87.2703 40.1466 88.8665 40.1466C89.5276 40.1532 90.1871 40.0811 90.8312 39.932C91.7941 39.7024 92.712 39.3143 93.5476 38.7838C94.069 38.4435 94.4649 37.9423 94.6749 37.3564L94.0522 41.3164V41.4988L93.7623 41.4559Z" fill="white"/>
<path d="M98.8945 41.3595C99.1479 41.3276 99.3907 41.2385 99.6046 41.0991C99.8185 40.9597 99.9979 40.7735 100.129 40.5546C100.46 39.9706 100.617 39.3039 100.58 38.6337L100.645 24.5646C100.681 23.8944 100.525 23.2277 100.194 22.6437C100.06 22.4236 99.8788 22.2361 99.6633 22.095C99.4478 21.9539 99.2035 21.8627 98.9482 21.8281C102.413 21.7279 105.311 21.6779 107.645 21.6779C110.626 21.5265 113.568 22.4057 115.976 24.1676C117.03 25.0091 117.871 26.0869 118.431 27.3137C118.99 28.5405 119.253 29.8818 119.197 31.2289C119.197 34.7202 118.052 37.3638 115.762 39.1595C113.367 40.8868 110.439 41.7117 107.495 41.4883H98.9053L98.8945 41.3595ZM103.372 37.7108C103.322 38.0779 103.367 38.4517 103.505 38.7958C103.642 39.14 103.866 39.4427 104.155 39.6746C105.141 40.0914 106.214 40.2609 107.28 40.1683C113.142 40.1683 116.069 37.3066 116.062 31.5831C116.055 25.8596 113.078 22.9656 107.129 22.9012H104.982C103.908 22.9978 103.318 23.309 103.318 23.8134L103.372 37.7108Z" fill="white"/>
<path d="M139.897 22.5256C139.764 22.3049 139.583 22.1171 139.368 21.9759C139.152 21.8347 138.908 21.7438 138.652 21.71H143.752C143.496 21.7438 143.252 21.8347 143.036 21.9759C142.821 22.1171 142.64 22.3049 142.506 22.5256C142.184 23.1088 142.032 23.7705 142.066 24.4358V33.1605C142.216 34.296 142.124 35.4505 141.794 36.5475C141.465 37.6445 140.906 38.6592 140.155 39.5243C139.301 40.3347 138.286 40.9576 137.177 41.3531C136.068 41.7486 134.888 41.9079 133.713 41.8208C127.808 41.8208 124.859 39.0485 124.866 33.5039V24.4358C124.904 23.7654 124.748 23.0984 124.415 22.5148C124.281 22.2957 124.099 22.109 123.884 21.968C123.668 21.8271 123.425 21.7353 123.17 21.6992H129.29C129.026 21.7408 128.775 21.8442 128.559 22.0008C128.343 22.1575 128.166 22.363 128.044 22.6007C127.681 23.4056 127.509 24.2832 127.54 25.1655V32.9995C127.54 35.5643 128.066 37.4316 129.118 38.6228C130.17 39.814 131.877 40.4042 134.229 40.4042C138.265 40.4042 140.284 38.0791 140.284 33.4288V24.4572C140.344 23.7896 140.21 23.1188 139.897 22.5256Z" fill="white"/>
<path d="M154.854 41.4239H152.181H151.504H148.831C149.776 41.3059 150.323 40.5869 150.495 39.2776V39.1596C150.51 39.0061 150.51 38.8516 150.495 38.6981V24.6613C150.533 23.991 150.376 23.3239 150.044 22.7404C149.909 22.5212 149.728 22.3345 149.513 22.1936C149.297 22.0526 149.054 21.9608 148.799 21.9248L156.486 21.8604C157.889 21.8578 159.268 22.2282 160.48 22.9335C161.068 23.2828 161.553 23.7817 161.885 24.3793C162.217 24.977 162.384 25.652 162.37 26.3354C162.37 28.3637 161.092 30.1022 158.558 31.5617C158.461 31.6466 158.352 31.7187 158.236 31.7763L157.818 31.948L157.42 32.0768L157.141 32.1734C156.963 32.2303 156.779 32.2698 156.594 32.2914C156.35 32.3343 155.899 32.3773 155.241 32.4202C154.523 32.384 153.803 32.4235 153.093 32.5382L153.19 38.7196C153.149 39.3855 153.302 40.0491 153.63 40.6298C153.763 40.8504 153.944 41.0383 154.16 41.1795C154.376 41.3207 154.62 41.4115 154.876 41.4454L154.854 41.4239ZM159.245 26.3998C159.258 25.8302 159.167 25.263 158.977 24.7257C158.855 24.3311 158.606 23.9879 158.268 23.7491V23.6955C157.358 23.0199 156.231 22.7028 155.101 22.8047C153.931 22.8047 153.308 22.9765 153.222 23.3199C153.216 23.4235 153.216 23.5275 153.222 23.6311L153.126 31.1432H154.35C154.972 31.1536 155.593 31.0814 156.196 30.9285H156.25C156.948 30.76 157.58 30.3862 158.064 29.8554C158.861 28.9494 159.286 27.7769 159.256 26.5715L159.245 26.3998Z" fill="white"/>
<path d="M172.278 21.5276C171.774 21.5415 171.288 21.7185 170.893 22.032C170.506 22.3317 170.172 22.6945 169.905 23.1052V38.5586C169.887 39.0771 170.05 39.5859 170.367 39.9966C170.578 40.314 170.85 40.5864 171.167 40.7982C171.484 41.01 171.84 41.157 172.214 41.2307C172.214 41.2307 172.268 41.3058 172.214 41.3166C171.965 41.4011 171.7 41.4232 171.441 41.3809C168.8 41.2844 166.76 41.2844 165.332 41.3809C165.117 41.4224 164.894 41.3802 164.709 41.2629C165.367 41.2173 165.991 40.9528 166.481 40.5117C166.937 40.1168 167.219 39.5574 167.264 38.9556V24.1032C167.272 23.7306 167.187 23.362 167.017 23.0301C166.865 22.6336 166.639 22.2695 166.352 21.9569C166.242 21.8224 166.105 21.7134 165.949 21.6374C165.794 21.5614 165.623 21.5203 165.45 21.5169C165.611 21.5169 166.77 21.4418 168.918 21.431C170.039 21.3787 171.162 21.411 172.278 21.5276Z" fill="white"/>
<path d="M178.475 41.3591H174.76C174.976 41.3231 175.182 41.2437 175.367 41.1256C175.552 41.0076 175.71 40.8534 175.833 40.6723C176.102 40.2967 176.381 39.9104 176.692 39.524C177.515 38.205 178.233 36.8236 178.84 35.3924C179.913 33.01 180.772 31.0998 181.341 29.812C182.844 26.149 184.136 22.8723 185.217 19.9819C187.966 26.521 190.678 32.7489 193.355 38.6655C193.6 39.3774 194 40.0262 194.526 40.565C194.94 40.9866 195.478 41.2649 196.061 41.3591H191.305C190.424 39.0554 189.727 37.2668 189.211 35.9934H180.45L178.475 41.3591ZM188.556 34.5768L184.777 25.3906L180.869 34.8236H188.674L188.556 34.5768Z" fill="white"/>
<path fill-rule="evenodd" clip-rule="evenodd" d="M194.417 19.2739C193.961 19.2739 193.515 19.4092 193.135 19.6628C192.755 19.9163 192.46 20.2766 192.285 20.6982C192.11 21.1198 192.064 21.5837 192.153 22.0313C192.243 22.4789 192.462 22.89 192.785 23.2127C193.108 23.5353 193.519 23.7551 193.967 23.8441C194.415 23.9331 194.879 23.8874 195.301 23.7128C195.723 23.5382 196.083 23.2424 196.337 22.863C196.59 22.4836 196.726 22.0375 196.726 21.5812C196.726 20.9693 196.483 20.3824 196.05 19.9497C195.617 19.517 195.03 19.2739 194.417 19.2739ZM193.902 21.4846V20.5832H194.385C194.528 20.5722 194.669 20.6143 194.783 20.7012C194.826 20.7467 194.858 20.8009 194.879 20.8602C194.899 20.9194 194.907 20.9823 194.901 21.0446C194.905 21.1029 194.895 21.1614 194.873 21.2155C194.851 21.2695 194.816 21.3175 194.772 21.3558C194.664 21.4459 194.526 21.4919 194.385 21.4846H193.902ZM194.439 21.9139H193.902V22.987H193.408V20.1324H194.375C194.644 20.118 194.909 20.1976 195.126 20.3578C195.22 20.4404 195.294 20.5431 195.342 20.6584C195.391 20.7736 195.412 20.8983 195.405 21.0231C195.403 21.1953 195.351 21.3633 195.255 21.5061C195.16 21.618 195.043 21.7093 194.911 21.7743L195.523 22.8475V22.9548H195.029L194.439 21.8817V21.9139ZM194.439 18.7588C194.997 18.7588 195.543 18.9243 196.008 19.2344C196.472 19.5446 196.834 19.9854 197.048 20.5011C197.261 21.0168 197.317 21.5843 197.208 22.1318C197.099 22.6793 196.831 23.1822 196.436 23.5769C196.041 23.9716 195.538 24.2404 194.99 24.3493C194.442 24.4582 193.874 24.4024 193.358 24.1887C192.842 23.9751 192.401 23.6134 192.091 23.1492C191.781 22.6851 191.615 22.1394 191.615 21.5812C191.618 20.8372 191.913 20.1242 192.438 19.5961C192.962 19.068 193.673 18.7672 194.417 18.7588H194.439Z" fill="white"/>
<path d="M82.9163 45.6139V51.5115H82.1464V45.6139H82.9163ZM84.8129 45.6139V46.2539H80.2539V45.6139H84.8129Z" fill="white"/>
<path d="M86.3893 47.1288V51.5115H85.6355V47.1288H86.3893ZM85.5788 45.9663C85.5788 45.8448 85.6153 45.7422 85.6882 45.6585C85.7638 45.5748 85.8746 45.5329 86.0205 45.5329C86.1637 45.5329 86.2731 45.5748 86.3487 45.6585C86.4271 45.7422 86.4663 45.8448 86.4663 45.9663C86.4663 46.0824 86.4271 46.1823 86.3487 46.266C86.2731 46.3471 86.1637 46.3876 86.0205 46.3876C85.8746 46.3876 85.7638 46.3471 85.6882 46.266C85.6153 46.1823 85.5788 46.0824 85.5788 45.9663Z" fill="white"/>
<path d="M89.4124 51.5925C89.1071 51.5925 88.8302 51.5412 88.5816 51.4386C88.3358 51.3332 88.1237 51.1861 87.9454 50.9971C87.7698 50.808 87.6347 50.5839 87.5402 50.3247C87.4456 50.0654 87.3983 49.7819 87.3983 49.4741V49.3039C87.3983 48.9475 87.451 48.6302 87.5564 48.3521C87.6617 48.0712 87.8049 47.8336 87.9859 47.6392C88.1669 47.4448 88.3723 47.2976 88.6019 47.1977C88.8315 47.0978 89.0693 47.0478 89.3151 47.0478C89.6285 47.0478 89.8987 47.1018 90.1256 47.2098C90.3552 47.3178 90.543 47.4691 90.6889 47.6635C90.8348 47.8552 90.9428 48.082 91.0131 48.344C91.0833 48.6032 91.1184 48.8867 91.1184 49.1946V49.5308H87.8441V48.9191H90.3687V48.8624C90.3579 48.668 90.3174 48.479 90.2472 48.2954C90.1796 48.1117 90.0716 47.9605 89.923 47.8417C89.7744 47.7229 89.5718 47.6635 89.3151 47.6635C89.1449 47.6635 88.9882 47.6999 88.845 47.7728C88.7018 47.8431 88.5789 47.9484 88.4763 48.0888C88.3736 48.2292 88.2939 48.4007 88.2372 48.6032C88.1804 48.8057 88.1521 49.0393 88.1521 49.3039V49.4741C88.1521 49.682 88.1804 49.8778 88.2372 50.0614C88.2966 50.2423 88.3817 50.4016 88.4925 50.5393C88.6059 50.6771 88.7424 50.7851 88.9018 50.8634C89.0639 50.9417 89.2476 50.9809 89.4529 50.9809C89.7177 50.9809 89.9419 50.9268 90.1256 50.8188C90.3093 50.7108 90.4701 50.5664 90.6078 50.3854L91.0617 50.7459C90.9671 50.889 90.8469 51.0254 90.701 51.155C90.5552 51.2846 90.3755 51.39 90.1621 51.471C89.9513 51.552 89.7014 51.5925 89.4124 51.5925ZM87.8238 46.4807L89.0031 45.4195H89.619L90.7983 46.4807H90L89.3111 45.8407L88.6222 46.4807H87.8238ZM90.4984 45.7638L91.0698 44.7188H91.8803L91.0658 45.7638H90.4984Z" fill="white"/>
<path d="M92.7435 48.0645V51.5115H91.9938V47.1288H92.7029L92.7435 48.0645ZM92.5652 49.1541L92.2531 49.1419C92.2558 48.8422 92.3004 48.5654 92.3868 48.3116C92.4733 48.055 92.5949 47.8322 92.7516 47.6432C92.9083 47.4542 93.0947 47.3084 93.3108 47.2058C93.5296 47.1005 93.7714 47.0478 94.0362 47.0478C94.2523 47.0478 94.4468 47.0775 94.6197 47.1369C94.7926 47.1936 94.9399 47.2854 95.0614 47.4123C95.1857 47.5393 95.2803 47.704 95.3451 47.9065C95.41 48.1063 95.4424 48.3507 95.4424 48.6397V51.5115H94.6886V48.6316C94.6886 48.402 94.6549 48.2184 94.5873 48.0807C94.5198 47.9403 94.4212 47.839 94.2915 47.7769C94.1618 47.7121 94.0024 47.6797 93.8133 47.6797C93.6269 47.6797 93.4567 47.7188 93.3027 47.7971C93.1514 47.8755 93.0204 47.9835 92.9096 48.1212C92.8015 48.2589 92.7164 48.4169 92.6543 48.5951C92.5949 48.7706 92.5652 48.9569 92.5652 49.1541Z" fill="white"/>
<path d="M99.4218 47.1288H100.103V51.4183C100.103 51.8045 100.024 52.1339 99.8676 52.4066C99.7109 52.6794 99.4921 52.8859 99.2111 53.0264C98.9329 53.1695 98.6114 53.241 98.2466 53.241C98.0954 53.241 97.917 53.2167 97.7117 53.1681C97.5091 53.1222 97.3092 53.0426 97.112 52.9292C96.9175 52.8184 96.754 52.6686 96.6216 52.4795L97.0147 52.034C97.1984 52.2554 97.3902 52.4093 97.5902 52.4957C97.7928 52.5822 97.9927 52.6254 98.1899 52.6254C98.4277 52.6254 98.633 52.5808 98.8059 52.4917C98.9788 52.4026 99.1125 52.2703 99.2071 52.0947C99.3043 51.9219 99.353 51.7086 99.353 51.4548V48.0928L99.4218 47.1288ZM96.4028 49.3687V49.2837C96.4028 48.9488 96.442 48.6451 96.5203 48.3723C96.6014 48.0969 96.7162 47.8606 96.8648 47.6635C97.0161 47.4664 97.1984 47.3151 97.4118 47.2098C97.6253 47.1018 97.8657 47.0478 98.1332 47.0478C98.4087 47.0478 98.6492 47.0964 98.8545 47.1936C99.0625 47.2881 99.2381 47.4272 99.3813 47.6108C99.5272 47.7917 99.642 48.0105 99.7258 48.267C99.8095 48.5235 99.8676 48.8138 99.9 49.1379V49.5105C99.8703 49.8319 99.8122 50.1208 99.7258 50.3773C99.642 50.6339 99.5272 50.8526 99.3813 51.0335C99.2381 51.2144 99.0625 51.3535 98.8545 51.4507C98.6465 51.5452 98.4033 51.5925 98.1251 51.5925C97.863 51.5925 97.6253 51.5371 97.4118 51.4264C97.2011 51.3157 97.0201 51.1604 96.8688 50.9606C96.7175 50.7608 96.6014 50.5258 96.5203 50.2558C96.442 49.9831 96.4028 49.6874 96.4028 49.3687ZM97.1525 49.2837V49.3687C97.1525 49.5875 97.1741 49.7927 97.2173 49.9844C97.2633 50.1762 97.3321 50.3449 97.424 50.4907C97.5186 50.6366 97.6388 50.7513 97.7847 50.835C97.9306 50.916 98.1048 50.9566 98.3074 50.9566C98.556 50.9566 98.7613 50.9039 98.9234 50.7986C99.0855 50.6933 99.2138 50.5542 99.3084 50.3814C99.4056 50.2086 99.4813 50.0209 99.5353 49.8184V48.8422C99.5056 48.6937 99.4597 48.5505 99.3975 48.4128C99.3381 48.2724 99.2597 48.1482 99.1625 48.0402C99.0679 47.9295 98.9504 47.8417 98.8099 47.7769C98.6694 47.7121 98.5046 47.6797 98.3155 47.6797C98.1102 47.6797 97.9333 47.7229 97.7847 47.8093C97.6388 47.893 97.5186 48.0091 97.424 48.1576C97.3321 48.3035 97.2633 48.4736 97.2173 48.668C97.1741 48.8597 97.1525 49.065 97.1525 49.2837Z" fill="white"/>
<path d="M105.598 46.1364L103.644 51.5115H102.846L105.095 45.6139H105.61L105.598 46.1364ZM107.235 51.5115L105.278 46.1364L105.265 45.6139H105.78L108.037 51.5115H107.235ZM107.134 49.3282V49.9682H103.819V49.3282H107.134Z" fill="white"/>
<path d="M109.464 48.0645V51.5115H108.714V47.1288H109.423L109.464 48.0645ZM109.285 49.1541L108.973 49.1419C108.976 48.8422 109.021 48.5654 109.107 48.3116C109.194 48.055 109.315 47.8322 109.472 47.6432C109.629 47.4542 109.815 47.3084 110.031 47.2058C110.25 47.1005 110.492 47.0478 110.756 47.0478C110.973 47.0478 111.167 47.0775 111.34 47.1369C111.513 47.1936 111.66 47.2854 111.782 47.4123C111.906 47.5393 112.001 47.704 112.065 47.9065C112.13 48.1063 112.163 48.3507 112.163 48.6397V51.5115H111.409V48.6316C111.409 48.402 111.375 48.2184 111.308 48.0807C111.24 47.9403 111.141 47.839 111.012 47.7769C110.882 47.7121 110.723 47.6797 110.534 47.6797C110.347 47.6797 110.177 47.7188 110.023 47.7971C109.872 47.8755 109.741 47.9835 109.63 48.1212C109.522 48.2589 109.437 48.4169 109.375 48.5951C109.315 48.7706 109.285 48.9569 109.285 49.1541Z" fill="white"/>
<path d="M114.051 45.2899V51.5115H113.301V45.2899H114.051ZM113.873 49.1541L113.561 49.1419C113.563 48.8422 113.608 48.5654 113.694 48.3116C113.781 48.055 113.902 47.8322 114.059 47.6432C114.216 47.4542 114.402 47.3084 114.618 47.2058C114.837 47.1005 115.079 47.0478 115.344 47.0478C115.56 47.0478 115.754 47.0775 115.927 47.1369C116.1 47.1936 116.247 47.2854 116.369 47.4123C116.493 47.5393 116.588 47.704 116.653 47.9065C116.718 48.1063 116.75 48.3507 116.75 48.6397V51.5115H115.996V48.6316C115.996 48.402 115.962 48.2184 115.895 48.0807C115.827 47.9403 115.729 47.839 115.599 47.7769C115.469 47.7121 115.31 47.6797 115.121 47.6797C114.935 47.6797 114.764 47.7188 114.61 47.7971C114.459 47.8755 114.328 47.9835 114.217 48.1212C114.109 48.2589 114.024 48.4169 113.962 48.5951C113.902 48.7706 113.873 48.9569 113.873 49.1541Z" fill="white"/>
<path d="M119.733 49.3687V49.2756C119.733 48.9596 119.778 48.6667 119.87 48.3966C119.962 48.1239 120.095 47.8876 120.267 47.6878C120.44 47.4853 120.65 47.3286 120.896 47.2179C121.141 47.1045 121.417 47.0478 121.722 47.0478C122.03 47.0478 122.307 47.1045 122.553 47.2179C122.802 47.3286 123.012 47.4853 123.185 47.6878C123.361 47.8876 123.495 48.1239 123.586 48.3966C123.678 48.6667 123.724 48.9596 123.724 49.2756V49.3687C123.724 49.6847 123.678 49.9777 123.586 50.2477C123.495 50.5177 123.361 50.754 123.185 50.9566C123.012 51.1564 122.803 51.313 122.557 51.4264C122.314 51.5371 122.038 51.5925 121.73 51.5925C121.422 51.5925 121.146 51.5371 120.9 51.4264C120.654 51.313 120.443 51.1564 120.267 50.9566C120.095 50.754 119.962 50.5177 119.87 50.2477C119.778 49.9777 119.733 49.6847 119.733 49.3687ZM120.482 49.2756V49.3687C120.482 49.5875 120.508 49.7941 120.559 49.9885C120.611 50.1802 120.688 50.3503 120.79 50.4988C120.896 50.6474 121.027 50.7648 121.183 50.8512C121.34 50.9349 121.522 50.9768 121.73 50.9768C121.936 50.9768 122.115 50.9349 122.269 50.8512C122.426 50.7648 122.556 50.6474 122.658 50.4988C122.761 50.3503 122.838 50.1802 122.889 49.9885C122.943 49.7941 122.97 49.5875 122.97 49.3687V49.2756C122.97 49.0596 122.943 48.8557 122.889 48.664C122.838 48.4695 122.76 48.2981 122.654 48.1495C122.552 47.9983 122.422 47.8795 122.265 47.7931C122.111 47.7067 121.93 47.6635 121.722 47.6635C121.517 47.6635 121.336 47.7067 121.179 47.7931C121.025 47.8795 120.896 47.9983 120.79 48.1495C120.688 48.2981 120.611 48.4695 120.559 48.664C120.508 48.8557 120.482 49.0596 120.482 49.2756Z" fill="white"/>
<path d="M125.414 48.0645V51.5115H124.664V47.1288H125.374L125.414 48.0645ZM125.236 49.1541L124.924 49.1419C124.926 48.8422 124.971 48.5654 125.057 48.3116C125.144 48.055 125.265 47.8322 125.422 47.6432C125.579 47.4542 125.765 47.3084 125.981 47.2058C126.2 47.1005 126.442 47.0478 126.707 47.0478C126.923 47.0478 127.117 47.0775 127.29 47.1369C127.463 47.1936 127.61 47.2854 127.732 47.4123C127.856 47.5393 127.951 47.704 128.016 47.9065C128.081 48.1063 128.113 48.3507 128.113 48.6397V51.5115H127.359V48.6316C127.359 48.402 127.325 48.2184 127.258 48.0807C127.19 47.9403 127.092 47.839 126.962 47.7769C126.832 47.7121 126.673 47.6797 126.484 47.6797C126.297 47.6797 126.127 47.7188 125.973 47.7971C125.822 47.8755 125.691 47.9835 125.58 48.1212C125.472 48.2589 125.387 48.4169 125.325 48.5951C125.265 48.7706 125.236 48.9569 125.236 49.1541Z" fill="white"/>
<path d="M130.066 45.2899V51.5115H129.312V45.2899H130.066Z" fill="white"/>
<path d="M132.084 47.1288V51.5115H131.331V47.1288H132.084ZM131.274 45.9663C131.274 45.8448 131.31 45.7422 131.383 45.6585C131.459 45.5748 131.57 45.5329 131.716 45.5329C131.859 45.5329 131.968 45.5748 132.044 45.6585C132.122 45.7422 132.161 45.8448 132.161 45.9663C132.161 46.0824 132.122 46.1823 132.044 46.266C131.968 46.3471 131.859 46.3876 131.716 46.3876C131.57 46.3876 131.459 46.3471 131.383 46.266C131.31 46.1823 131.274 46.0824 131.274 45.9663Z" fill="white"/>
<path d="M134.038 48.0645V51.5115H133.288V47.1288H133.997L134.038 48.0645ZM133.859 49.1541L133.547 49.1419C133.55 48.8422 133.595 48.5654 133.681 48.3116C133.767 48.055 133.889 47.8322 134.046 47.6432C134.202 47.4542 134.389 47.3084 134.605 47.2058C134.824 47.1005 135.066 47.0478 135.33 47.0478C135.546 47.0478 135.741 47.0775 135.914 47.1369C136.087 47.1936 136.234 47.2854 136.356 47.4123C136.48 47.5393 136.574 47.704 136.639 47.9065C136.704 48.1063 136.737 48.3507 136.737 48.6397V51.5115H135.983V48.6316C135.983 48.402 135.949 48.2184 135.881 48.0807C135.814 47.9403 135.715 47.839 135.586 47.7769C135.456 47.7121 135.297 47.6797 135.107 47.6797C134.921 47.6797 134.751 47.7188 134.597 47.7971C134.446 47.8755 134.315 47.9835 134.204 48.1212C134.096 48.2589 134.011 48.4169 133.948 48.5951C133.889 48.7706 133.859 48.9569 133.859 49.1541Z" fill="white"/>
<path d="M139.695 51.5925C139.39 51.5925 139.113 51.5412 138.864 51.4386C138.618 51.3332 138.406 51.1861 138.228 50.9971C138.052 50.808 137.917 50.5839 137.823 50.3247C137.728 50.0654 137.681 49.7819 137.681 49.4741V49.3039C137.681 48.9475 137.733 48.6302 137.839 48.3521C137.944 48.0712 138.087 47.8336 138.268 47.6392C138.449 47.4448 138.655 47.2976 138.884 47.1977C139.114 47.0978 139.352 47.0478 139.598 47.0478C139.911 47.0478 140.181 47.1018 140.408 47.2098C140.638 47.3178 140.825 47.4691 140.971 47.6635C141.117 47.8552 141.225 48.082 141.295 48.344C141.366 48.6032 141.401 48.8867 141.401 49.1946V49.5308H138.126V48.9191H140.651V48.8624C140.64 48.668 140.6 48.479 140.53 48.2954C140.462 48.1117 140.354 47.9605 140.205 47.8417C140.057 47.7229 139.854 47.6635 139.598 47.6635C139.427 47.6635 139.271 47.6999 139.127 47.7728C138.984 47.8431 138.861 47.9484 138.759 48.0888C138.656 48.2292 138.576 48.4007 138.52 48.6032C138.463 48.8057 138.434 49.0393 138.434 49.3039V49.4741C138.434 49.682 138.463 49.8778 138.52 50.0614C138.579 50.2423 138.664 50.4016 138.775 50.5393C138.888 50.6771 139.025 50.7851 139.184 50.8634C139.346 50.9417 139.53 50.9809 139.735 50.9809C140 50.9809 140.224 50.9268 140.408 50.8188C140.592 50.7108 140.752 50.5664 140.89 50.3854L141.344 50.7459C141.25 50.889 141.129 51.0254 140.983 51.155C140.838 51.2846 140.658 51.39 140.444 51.471C140.234 51.552 139.984 51.5925 139.695 51.5925Z" fill="white"/>
<path d="M146.09 50.9768C146.268 50.9768 146.433 50.9403 146.584 50.8674C146.735 50.7945 146.859 50.6946 146.957 50.5677C147.054 50.4381 147.109 50.2909 147.123 50.1262H147.836C147.823 50.3854 147.735 50.6271 147.573 50.8512C147.413 51.0727 147.204 51.2522 146.945 51.39C146.685 51.525 146.4 51.5925 146.09 51.5925C145.76 51.5925 145.472 51.5344 145.226 51.4183C144.983 51.3022 144.781 51.1429 144.618 50.9403C144.459 50.7378 144.339 50.5056 144.258 50.2437C144.179 49.979 144.14 49.6995 144.14 49.4052V49.2351C144.14 48.9407 144.179 48.6626 144.258 48.4007C144.339 48.136 144.459 47.9025 144.618 47.6999C144.781 47.4974 144.983 47.3381 145.226 47.222C145.472 47.1059 145.76 47.0478 146.09 47.0478C146.433 47.0478 146.732 47.118 146.989 47.2584C147.246 47.3961 147.447 47.5852 147.593 47.8255C147.742 48.0631 147.823 48.3332 147.836 48.6356H147.123C147.109 48.4547 147.058 48.2913 146.969 48.1455C146.882 47.9997 146.764 47.8836 146.612 47.7971C146.464 47.708 146.289 47.6635 146.09 47.6635C145.86 47.6635 145.667 47.7094 145.51 47.8012C145.356 47.8903 145.233 48.0118 145.141 48.1657C145.052 48.317 144.987 48.4857 144.947 48.6721C144.909 48.8557 144.89 49.0434 144.89 49.2351V49.4052C144.89 49.5969 144.909 49.786 144.947 49.9723C144.985 50.1586 145.048 50.3274 145.137 50.4786C145.229 50.6298 145.352 50.7513 145.506 50.8431C145.663 50.9322 145.857 50.9768 146.09 50.9768Z" fill="white"/>
<path d="M149.429 45.2899V51.5115H148.679V45.2899H149.429ZM149.25 49.1541L148.938 49.1419C148.941 48.8422 148.986 48.5654 149.072 48.3116C149.159 48.055 149.28 47.8322 149.437 47.6432C149.593 47.4542 149.78 47.3084 149.996 47.2058C150.215 47.1005 150.457 47.0478 150.721 47.0478C150.938 47.0478 151.132 47.0775 151.305 47.1369C151.478 47.1936 151.625 47.2854 151.747 47.4123C151.871 47.5393 151.966 47.704 152.03 47.9065C152.095 48.1063 152.128 48.3507 152.128 48.6397V51.5115H151.374V48.6316C151.374 48.402 151.34 48.2184 151.273 48.0807C151.205 47.9403 151.106 47.839 150.977 47.7769C150.847 47.7121 150.688 47.6797 150.499 47.6797C150.312 47.6797 150.142 47.7188 149.988 47.7971C149.837 47.8755 149.706 47.9835 149.595 48.1212C149.487 48.2589 149.402 48.4169 149.34 48.5951C149.28 48.7706 149.25 48.9569 149.25 49.1541Z" fill="white"/>
<path d="M155.836 50.7621V48.506C155.836 48.3332 155.8 48.1833 155.73 48.0564C155.663 47.9268 155.56 47.8268 155.422 47.7566C155.284 47.6864 155.114 47.6513 154.912 47.6513C154.723 47.6513 154.556 47.6837 154.413 47.7485C154.273 47.8133 154.162 47.8984 154.081 48.0037C154.003 48.109 153.963 48.2225 153.963 48.344H153.214C153.214 48.1873 153.254 48.0321 153.335 47.8782C153.416 47.7242 153.532 47.5852 153.684 47.461C153.838 47.334 154.021 47.2341 154.235 47.1612C154.451 47.0856 154.691 47.0478 154.956 47.0478C155.275 47.0478 155.556 47.1018 155.799 47.2098C156.045 47.3178 156.237 47.4812 156.375 47.6999C156.515 47.916 156.585 48.1873 156.585 48.5141V50.5555C156.585 50.7014 156.597 50.8566 156.622 51.0214C156.649 51.1861 156.688 51.3278 156.739 51.4467V51.5115H155.957C155.919 51.4251 155.89 51.3103 155.868 51.1672C155.846 51.0214 155.836 50.8863 155.836 50.7621ZM155.965 48.8543L155.973 49.3809H155.216C155.002 49.3809 154.812 49.3985 154.644 49.4336C154.477 49.466 154.336 49.5159 154.223 49.5834C154.109 49.6509 154.023 49.736 153.963 49.8386C153.904 49.9385 153.874 50.056 153.874 50.191C153.874 50.3287 153.905 50.4543 153.967 50.5677C154.03 50.6811 154.123 50.7716 154.247 50.8391C154.374 50.9039 154.529 50.9363 154.713 50.9363C154.943 50.9363 155.145 50.8877 155.321 50.7905C155.497 50.6933 155.636 50.5745 155.738 50.434C155.844 50.2936 155.9 50.1572 155.909 50.0249L156.229 50.3854C156.21 50.4988 156.158 50.6244 156.075 50.7621C155.991 50.8998 155.879 51.0322 155.738 51.1591C155.601 51.2833 155.436 51.3873 155.244 51.471C155.055 51.552 154.841 51.5925 154.604 51.5925C154.306 51.5925 154.046 51.5344 153.822 51.4183C153.6 51.3022 153.427 51.1469 153.303 50.9525C153.181 50.7554 153.12 50.5353 153.12 50.2923C153.12 50.0573 153.166 49.8508 153.258 49.6725C153.35 49.4916 153.482 49.3417 153.655 49.2229C153.828 49.1014 154.036 49.0096 154.279 48.9475C154.523 48.8854 154.794 48.8543 155.094 48.8543H155.965ZM153.55 46.4807L154.729 45.4195H155.345L156.524 46.4807H155.726L155.037 45.8407L154.348 46.4807H153.55ZM156.225 45.7638L156.796 44.7188H157.606L156.792 45.7638H156.225Z" fill="white"/>
<path d="M159.6 47.1288V47.704H157.23V47.1288H159.6ZM158.032 46.0635H158.782V50.4259C158.782 50.5745 158.805 50.6865 158.851 50.7621C158.896 50.8377 158.956 50.8877 159.029 50.912C159.102 50.9363 159.18 50.9485 159.264 50.9485C159.326 50.9485 159.391 50.943 159.458 50.9322C159.529 50.9187 159.581 50.9079 159.616 50.8998L159.621 51.5115C159.561 51.5304 159.483 51.5479 159.385 51.5641C159.291 51.583 159.176 51.5925 159.041 51.5925C158.857 51.5925 158.688 51.556 158.534 51.4831C158.38 51.4102 158.258 51.2887 158.166 51.1186C158.077 50.9458 158.032 50.7135 158.032 50.4219V46.0635Z" fill="white"/>
<path d="M163.353 45.2899V51.5115H162.599V45.2899H163.353Z" fill="white"/>
<path d="M168.661 46.7764H169.237C169.237 47.0708 169.198 47.3178 169.119 47.5177C169.044 47.7175 168.91 47.8674 168.718 47.9673C168.526 48.0672 168.256 48.1171 167.908 48.1171V47.6554C168.151 47.6554 168.325 47.6257 168.43 47.5663C168.536 47.5042 168.601 47.4083 168.625 47.2787C168.649 47.1491 168.661 46.9816 168.661 46.7764ZM167.239 50.4988V47.1288H167.993V51.5115H167.276L167.239 50.4988ZM167.381 49.5753L167.693 49.5672C167.693 49.8589 167.662 50.1289 167.6 50.3773C167.54 50.6231 167.443 50.8364 167.308 51.0173C167.173 51.1982 166.996 51.34 166.777 51.4426C166.558 51.5425 166.292 51.5925 165.979 51.5925C165.765 51.5925 165.569 51.5614 165.391 51.4993C165.216 51.4372 165.064 51.3414 164.937 51.2117C164.81 51.0821 164.712 50.9133 164.641 50.7054C164.574 50.4975 164.54 50.2477 164.54 49.9561V47.1288H165.29V49.9642C165.29 50.1613 165.311 50.3247 165.355 50.4543C165.401 50.5812 165.461 50.6825 165.537 50.7581C165.615 50.831 165.702 50.8823 165.796 50.912C165.894 50.9417 165.994 50.9566 166.096 50.9566C166.415 50.9566 166.668 50.8958 166.854 50.7743C167.041 50.6501 167.174 50.484 167.255 50.2761C167.339 50.0654 167.381 49.8319 167.381 49.5753Z" fill="white"/>
<path d="M173.423 46.6468H174.027C174.027 46.9438 173.986 47.2004 173.905 47.4164C173.824 47.6297 173.689 47.7944 173.5 47.9106C173.311 48.0267 173.054 48.0847 172.73 48.0847V47.6149C172.933 47.6149 173.083 47.5744 173.18 47.4934C173.28 47.4123 173.345 47.2989 173.374 47.1531C173.407 47.0073 173.423 46.8385 173.423 46.6468ZM169.496 49.3687V49.2756C169.496 48.9596 169.542 48.6667 169.634 48.3966C169.726 48.1239 169.858 47.8876 170.031 47.6878C170.204 47.4853 170.413 47.3286 170.659 47.2179C170.905 47.1045 171.181 47.0478 171.486 47.0478C171.794 47.0478 172.071 47.1045 172.317 47.2179C172.565 47.3286 172.776 47.4853 172.949 47.6878C173.122 47.8876 173.254 48.1239 173.346 48.3966C173.438 48.6667 173.484 48.9596 173.484 49.2756V49.3687C173.484 49.6847 173.438 49.9777 173.346 50.2477C173.254 50.5177 173.122 50.754 172.949 50.9566C172.776 51.1564 172.567 51.313 172.321 51.4264C172.078 51.5371 171.802 51.5925 171.494 51.5925C171.186 51.5925 170.909 51.5371 170.663 51.4264C170.418 51.313 170.207 51.1564 170.031 50.9566C169.858 50.754 169.726 50.5177 169.634 50.2477C169.542 49.9777 169.496 49.6847 169.496 49.3687ZM170.246 49.2756V49.3687C170.246 49.5875 170.272 49.7941 170.323 49.9885C170.374 50.1802 170.451 50.3503 170.554 50.4988C170.659 50.6474 170.79 50.7648 170.947 50.8512C171.104 50.9349 171.286 50.9768 171.494 50.9768C171.699 50.9768 171.879 50.9349 172.033 50.8512C172.19 50.7648 172.319 50.6474 172.422 50.4988C172.525 50.3503 172.602 50.1802 172.653 49.9885C172.707 49.7941 172.734 49.5875 172.734 49.3687V49.2756C172.734 49.0596 172.707 48.8557 172.653 48.664C172.602 48.4695 172.523 48.2981 172.418 48.1495C172.315 47.9983 172.186 47.8795 172.029 47.7931C171.875 47.7067 171.694 47.6635 171.486 47.6635C171.281 47.6635 171.1 47.7067 170.943 47.7931C170.789 47.8795 170.659 47.9983 170.554 48.1495C170.451 48.2981 170.374 48.4695 170.323 48.664C170.272 48.8557 170.246 49.0596 170.246 49.2756ZM171.016 52.5484C171.016 52.4269 171.052 52.3243 171.125 52.2406C171.201 52.1569 171.312 52.115 171.458 52.115C171.601 52.115 171.71 52.1569 171.786 52.2406C171.864 52.3243 171.903 52.4269 171.903 52.5484C171.903 52.6645 171.864 52.7631 171.786 52.8441C171.71 52.9278 171.601 52.9697 171.458 52.9697C171.312 52.9697 171.201 52.9278 171.125 52.8441C171.052 52.7631 171.016 52.6645 171.016 52.5484Z" fill="white"/>
<path d="M175.194 48.0645V51.5115H174.444V47.1288H175.153L175.194 48.0645ZM175.016 49.1541L174.704 49.1419C174.706 48.8422 174.751 48.5654 174.837 48.3116C174.924 48.055 175.045 47.8322 175.202 47.6432C175.359 47.4542 175.545 47.3084 175.761 47.2058C175.98 47.1005 176.222 47.0478 176.487 47.0478C176.703 47.0478 176.897 47.0775 177.07 47.1369C177.243 47.1936 177.39 47.2854 177.512 47.4123C177.636 47.5393 177.731 47.704 177.796 47.9065C177.86 48.1063 177.893 48.3507 177.893 48.6397V51.5115H177.139V48.6316C177.139 48.402 177.105 48.2184 177.038 48.0807C176.97 47.9403 176.872 47.839 176.742 47.7769C176.612 47.7121 176.453 47.6797 176.264 47.6797C176.077 47.6797 175.907 47.7188 175.753 47.7971C175.602 47.8755 175.471 47.9835 175.36 48.1212C175.252 48.2589 175.167 48.4169 175.105 48.5951C175.045 48.7706 175.016 48.9569 175.016 49.1541Z" fill="white"/>
<path d="M181.872 47.1288H182.553V51.4183C182.553 51.8045 182.475 52.1339 182.318 52.4066C182.161 52.6794 181.943 52.8859 181.662 53.0264C181.383 53.1695 181.062 53.241 180.697 53.241C180.546 53.241 180.368 53.2167 180.162 53.1681C179.96 53.1222 179.76 53.0426 179.562 52.9292C179.368 52.8184 179.205 52.6686 179.072 52.4795L179.465 52.034C179.649 52.2554 179.841 52.4093 180.041 52.4957C180.243 52.5822 180.443 52.6254 180.64 52.6254C180.878 52.6254 181.083 52.5808 181.256 52.4917C181.429 52.4026 181.563 52.2703 181.658 52.0947C181.755 51.9219 181.803 51.7086 181.803 51.4548V48.0928L181.872 47.1288ZM178.853 49.3687V49.2837C178.853 48.9488 178.892 48.6451 178.971 48.3723C179.052 48.0969 179.167 47.8606 179.315 47.6635C179.467 47.4664 179.649 47.3151 179.862 47.2098C180.076 47.1018 180.316 47.0478 180.584 47.0478C180.859 47.0478 181.1 47.0964 181.305 47.1936C181.513 47.2881 181.689 47.4272 181.832 47.6108C181.978 47.7917 182.093 48.0105 182.176 48.267C182.26 48.5235 182.318 48.8138 182.351 49.1379V49.5105C182.321 49.8319 182.263 50.1208 182.176 50.3773C182.093 50.6339 181.978 50.8526 181.832 51.0335C181.689 51.2144 181.513 51.3535 181.305 51.4507C181.097 51.5452 180.854 51.5925 180.576 51.5925C180.314 51.5925 180.076 51.5371 179.862 51.4264C179.652 51.3157 179.471 51.1604 179.319 50.9606C179.168 50.7608 179.052 50.5258 178.971 50.2558C178.892 49.9831 178.853 49.6874 178.853 49.3687ZM179.603 49.2837V49.3687C179.603 49.5875 179.625 49.7927 179.668 49.9844C179.714 50.1762 179.783 50.3449 179.875 50.4907C179.969 50.6366 180.089 50.7513 180.235 50.835C180.381 50.916 180.555 50.9566 180.758 50.9566C181.006 50.9566 181.212 50.9039 181.374 50.7986C181.536 50.6933 181.664 50.5542 181.759 50.3814C181.856 50.2086 181.932 50.0209 181.986 49.8184V48.8422C181.956 48.6937 181.91 48.5505 181.848 48.4128C181.789 48.2724 181.71 48.1482 181.613 48.0402C181.518 47.9295 181.401 47.8417 181.26 47.7769C181.12 47.7121 180.955 47.6797 180.766 47.6797C180.561 47.6797 180.384 47.7229 180.235 47.8093C180.089 47.893 179.969 48.0091 179.875 48.1576C179.783 48.3035 179.714 48.4736 179.668 48.668C179.625 48.8597 179.603 49.065 179.603 49.2837Z" fill="white"/>
<path d="M187.505 50.9768C187.684 50.9768 187.848 50.9403 188 50.8674C188.151 50.7945 188.275 50.6946 188.372 50.5677C188.47 50.4381 188.525 50.2909 188.539 50.1262H189.252C189.238 50.3854 189.15 50.6271 188.988 50.8512C188.829 51.0727 188.62 51.2522 188.36 51.39C188.101 51.525 187.816 51.5925 187.505 51.5925C187.176 51.5925 186.888 51.5344 186.642 51.4183C186.399 51.3022 186.196 51.1429 186.034 50.9403C185.875 50.7378 185.755 50.5056 185.674 50.2437C185.595 49.979 185.556 49.6995 185.556 49.4052V49.2351C185.556 48.9407 185.595 48.6626 185.674 48.4007C185.755 48.136 185.875 47.9025 186.034 47.6999C186.196 47.4974 186.399 47.3381 186.642 47.222C186.888 47.1059 187.176 47.0478 187.505 47.0478C187.848 47.0478 188.148 47.118 188.405 47.2584C188.662 47.3961 188.863 47.5852 189.009 47.8255C189.157 48.0631 189.238 48.3332 189.252 48.6356H188.539C188.525 48.4547 188.474 48.2913 188.385 48.1455C188.298 47.9997 188.179 47.8836 188.028 47.7971C187.879 47.708 187.705 47.6635 187.505 47.6635C187.276 47.6635 187.082 47.7094 186.926 47.8012C186.772 47.8903 186.649 48.0118 186.557 48.1657C186.468 48.317 186.403 48.4857 186.362 48.6721C186.325 48.8557 186.306 49.0434 186.306 49.2351V49.4052C186.306 49.5969 186.325 49.786 186.362 49.9723C186.4 50.1586 186.464 50.3274 186.553 50.4786C186.645 50.6298 186.768 50.7513 186.922 50.8431C187.078 50.9322 187.273 50.9768 187.505 50.9768Z" fill="white"/>
<path d="M192.68 50.7621V48.506C192.68 48.3332 192.645 48.1833 192.575 48.0564C192.507 47.9268 192.405 47.8268 192.267 47.7566C192.129 47.6864 191.959 47.6513 191.756 47.6513C191.567 47.6513 191.401 47.6837 191.258 47.7485C191.117 47.8133 191.007 47.8984 190.925 48.0037C190.847 48.109 190.808 48.2225 190.808 48.344H190.058C190.058 48.1873 190.099 48.0321 190.18 47.8782C190.261 47.7242 190.377 47.5852 190.528 47.461C190.682 47.334 190.866 47.2341 191.079 47.1612C191.296 47.0856 191.536 47.0478 191.801 47.0478C192.12 47.0478 192.401 47.1018 192.644 47.2098C192.89 47.3178 193.081 47.4812 193.219 47.6999C193.36 47.916 193.43 48.1873 193.43 48.5141V50.5555C193.43 50.7014 193.442 50.8566 193.466 51.0214C193.493 51.1861 193.533 51.3278 193.584 51.4467V51.5115H192.802C192.764 51.4251 192.734 51.3103 192.713 51.1672C192.691 51.0214 192.68 50.8863 192.68 50.7621ZM192.81 48.8543L192.818 49.3809H192.06C191.847 49.3809 191.656 49.3985 191.489 49.4336C191.321 49.466 191.181 49.5159 191.067 49.5834C190.954 49.6509 190.867 49.736 190.808 49.8386C190.748 49.9385 190.719 50.056 190.719 50.191C190.719 50.3287 190.75 50.4543 190.812 50.5677C190.874 50.6811 190.967 50.7716 191.092 50.8391C191.219 50.9039 191.374 50.9363 191.558 50.9363C191.787 50.9363 191.99 50.8877 192.165 50.7905C192.341 50.6933 192.48 50.5745 192.583 50.434C192.688 50.2936 192.745 50.1572 192.753 50.0249L193.073 50.3854C193.054 50.4988 193.003 50.6244 192.919 50.7621C192.835 50.8998 192.723 51.0322 192.583 51.1591C192.445 51.2833 192.28 51.3873 192.089 51.471C191.899 51.552 191.686 51.5925 191.448 51.5925C191.151 51.5925 190.89 51.5344 190.666 51.4183C190.445 51.3022 190.272 51.1469 190.147 50.9525C190.026 50.7554 189.965 50.5353 189.965 50.2923C189.965 50.0573 190.011 49.8508 190.103 49.6725C190.195 49.4916 190.327 49.3417 190.5 49.2229C190.673 49.1014 190.881 49.0096 191.124 48.9475C191.367 48.8854 191.639 48.8543 191.939 48.8543H192.81Z" fill="white"/>
<path d="M194.411 49.3687V49.2756C194.411 48.9596 194.456 48.6667 194.548 48.3966C194.64 48.1239 194.773 47.8876 194.945 47.6878C195.118 47.4853 195.328 47.3286 195.574 47.2179C195.819 47.1045 196.095 47.0478 196.4 47.0478C196.708 47.0478 196.985 47.1045 197.231 47.2179C197.48 47.3286 197.69 47.4853 197.863 47.6878C198.039 47.8876 198.173 48.1239 198.264 48.3966C198.356 48.6667 198.402 48.9596 198.402 49.2756V49.3687C198.402 49.6847 198.356 49.9777 198.264 50.2477C198.173 50.5177 198.039 50.754 197.863 50.9566C197.69 51.1564 197.481 51.313 197.235 51.4264C196.992 51.5371 196.716 51.5925 196.408 51.5925C196.1 51.5925 195.823 51.5371 195.578 51.4264C195.332 51.313 195.121 51.1564 194.945 50.9566C194.773 50.754 194.64 50.5177 194.548 50.2477C194.456 49.9777 194.411 49.6847 194.411 49.3687ZM195.16 49.2756V49.3687C195.16 49.5875 195.186 49.7941 195.237 49.9885C195.289 50.1802 195.366 50.3503 195.468 50.4988C195.574 50.6474 195.705 50.7648 195.861 50.8512C196.018 50.9349 196.2 50.9768 196.408 50.9768C196.614 50.9768 196.793 50.9349 196.947 50.8512C197.104 50.7648 197.234 50.6474 197.336 50.4988C197.439 50.3503 197.516 50.1802 197.567 49.9885C197.621 49.7941 197.648 49.5875 197.648 49.3687V49.2756C197.648 49.0596 197.621 48.8557 197.567 48.664C197.516 48.4695 197.438 48.2981 197.332 48.1495C197.23 47.9983 197.1 47.8795 196.943 47.7931C196.789 47.7067 196.608 47.6635 196.4 47.6635C196.195 47.6635 196.014 47.7067 195.857 47.7931C195.703 47.8795 195.574 47.9983 195.468 48.1495C195.366 48.2981 195.289 48.4695 195.237 48.664C195.186 48.8557 195.16 49.0596 195.16 49.2756Z" fill="white"/>
</svg>
