<svg width="165" height="95" viewBox="0 0 165 95" fill="none" xmlns="http://www.w3.org/2000/svg">
<path d="M84.6681 42.1019H13.2471C13.2471 42.1019 18.6608 25.8146 31.6451 33.9582C31.6451 33.9582 34.3484 19.8421 46.2543 18.76C58.1601 17.678 60.8634 29.0606 60.8634 29.0606C60.8634 29.0606 80.8792 25.2735 84.6681 42.1019Z" fill="#D5F9FD"/>
<path opacity="0.2" d="M17.639 39.8035C19.9984 39.782 22.3022 39.0827 24.2777 37.7883C26.2532 36.4939 27.8176 34.6586 28.7857 32.4998C29.7733 32.8861 30.7233 33.3627 31.6238 33.9236C31.9688 32.3638 32.4679 30.8423 33.1138 29.3819C33.6979 31.2855 34.7354 33.0178 36.1364 34.429C38.4413 36.714 41.5524 37.9932 44.7927 37.9883C48.0329 37.9932 51.144 36.714 53.4489 34.429C55.7387 32.1219 57.0267 29.0002 57.032 25.7443C57.0765 24.4804 56.9135 23.2178 56.5495 22.007L56.5069 21.8789C58.5845 23.83 60.091 26.3137 60.8634 29.0616C60.8634 29.0616 61.6368 28.9121 62.8927 28.8053C63.3736 31.1618 64.5331 33.325 66.2275 35.027L66.5184 35.3188C68.8153 37.6158 71.9245 38.9081 75.1675 38.9137C77.7836 38.9057 80.329 38.0603 82.433 36.5005C83.4869 38.2234 84.2426 40.1127 84.6681 42.0886H13.2471C13.5836 41.1428 13.9916 40.2243 14.4675 39.3408C15.4986 39.6399 16.5657 39.7956 17.639 39.8035Z" fill="#66ECFB"/>
<path d="M30.9571 33.0542C31.0493 32.4491 31.248 31.8156 31.4112 31.1322C31.5105 30.7976 31.6311 30.4559 31.7446 30.1071C31.8523 29.7466 31.9802 29.3924 32.1278 29.0464C32.7051 27.5432 33.4501 26.1104 34.3486 24.7753C34.8045 24.0875 35.2996 23.4267 35.8315 22.7963C36.3668 22.1975 36.9353 21.6294 37.5344 21.0949C38.1018 20.5853 38.6988 20.1099 39.3224 19.6712L40.2306 19.1373C40.5094 18.9611 40.8011 18.8064 41.1033 18.6746C42.0275 18.233 42.9922 17.8825 43.984 17.6282L45.1263 17.4004C45.5049 17.3257 45.89 17.2899 46.2758 17.2936C46.7201 17.2706 47.1653 17.2706 47.6097 17.2936C48.1205 17.3363 48.7023 17.3577 49.3267 17.4502C50.743 17.6755 52.1195 18.1046 53.4136 18.7245C54.1388 19.0698 54.8384 19.4671 55.5067 19.9133C56.1825 20.39 56.8206 20.9184 57.4153 21.4936C57.7215 21.7699 58.0106 22.0647 58.2809 22.3763L59.0685 23.3302C59.324 23.6434 59.5226 23.9993 59.7426 24.3268C59.9677 24.6473 60.167 24.9853 60.3386 25.3376C60.5089 25.6864 60.6792 26.0495 60.8494 26.3556C61.0197 26.6617 61.1049 27.0675 61.2326 27.3736C61.4627 27.9929 61.6384 28.6313 61.7576 29.2813C61.8784 29.8247 61.9543 30.377 61.9847 30.9328C62.0149 31.169 62.0315 31.4067 62.0343 31.6447C62.0343 31.8654 62.0343 32.0576 62.0343 32.2356C62.0343 32.9474 61.9563 33.346 61.8925 33.3389C61.7576 32.9917 61.6878 32.6224 61.6867 32.2498C61.6867 32.0789 61.6512 31.8939 61.6299 31.6803C61.6086 31.4667 61.5448 31.2603 61.5022 31.0254C61.4143 30.498 61.2911 29.9772 61.1333 29.4664C60.3327 26.7305 58.7636 24.2838 56.6136 22.419C56.043 21.9185 55.4359 21.4616 54.7972 21.0522C54.172 20.6725 53.5199 20.3394 52.846 20.0556C51.6605 19.5454 50.4086 19.2074 49.128 19.0519C48.5746 18.9878 48.0567 18.995 47.6026 18.9665C47.1485 18.938 46.7511 19.0163 46.4248 19.0306C46.0808 19.0393 45.7385 19.0822 45.403 19.1587L44.3884 19.3295C43.4966 19.5234 42.6265 19.8072 41.7915 20.1767C41.5137 20.2813 41.2455 20.41 40.9898 20.5611L40.1525 21.0095C39.5709 21.3766 39.0117 21.7783 38.4781 22.2126C37.9011 22.676 37.3537 23.1753 36.839 23.7075C36.3167 24.2746 35.8241 24.8687 35.3632 25.4871C34.451 26.7207 33.6709 28.0474 33.036 29.4451C32.8727 29.7686 32.7281 30.1014 32.6032 30.4417C32.4684 30.7691 32.3336 31.0895 32.2129 31.4098C32.0072 32.0576 31.7659 32.6555 31.6311 33.2322C30.9713 35.5172 30.8081 37.126 30.6662 37.1118C30.5243 37.0975 30.4888 35.4674 30.9571 33.0542Z" fill="white"/>
<path d="M13.8784 40.8631C14.1126 40.9628 15.262 38.4784 16.9649 36.4781C17.7046 35.5625 18.5749 34.7613 19.5476 34.1005C19.8519 33.8807 20.1776 33.6923 20.5196 33.5381L20.9028 33.353L20.995 33.2961C21.0815 33.2424 21.1716 33.1948 21.2646 33.1537C21.5201 33.0611 21.8606 32.8974 22.2934 32.7479C23.3931 32.4234 24.5415 32.2981 25.685 32.3778C26.0039 32.4006 26.3213 32.441 26.6358 32.4988C26.9458 32.5376 27.2536 32.5923 27.5581 32.6625C28.147 32.8333 28.7147 32.9401 29.183 33.1038C30.1195 33.4313 30.7794 33.6164 30.8361 33.5096C30.8929 33.4028 30.3395 33.0184 29.4171 32.4845C28.9701 32.2211 28.4025 32.0076 27.8065 31.7371C27.4915 31.6149 27.1692 31.5126 26.8415 31.431C26.5071 31.3207 26.1658 31.2327 25.8198 31.1676C24.5126 30.909 23.1678 30.909 21.8606 31.1676C21.3214 31.3029 20.8886 31.4666 20.5764 31.5591C20.4581 31.5972 20.344 31.6473 20.2358 31.7086L20.1152 31.7656L19.6682 32.0218C19.2834 32.2412 18.92 32.4962 18.5826 32.7835C17.5564 33.6108 16.6699 34.5987 15.9574 35.7093C14.4177 38.1082 13.6798 40.7919 13.8784 40.8631Z" fill="white"/>
<path d="M61.4386 28.9678C61.4811 29.0959 62.4035 28.861 63.7942 28.7257C65.4875 28.5584 67.1953 28.6135 68.8744 28.8895C70.5355 29.1705 72.1575 29.6485 73.7063 30.3132C74.3378 30.5766 74.8486 30.84 75.2034 31.025L75.7497 31.324C75.7497 31.324 75.9555 31.4237 76.3031 31.6159C76.7898 31.8694 77.2634 32.1474 77.7222 32.4488C79.1326 33.3445 80.4104 34.4349 81.5182 35.6877C82.6306 36.9528 83.5229 38.3967 84.1576 39.9589C84.6755 41.2402 84.8671 42.1799 85.0019 42.1585C85.1367 42.1372 85.1368 41.1762 84.7962 39.7453C84.3412 37.9984 83.548 36.3585 82.4618 34.9189C81.3764 33.4728 80.0827 32.1965 78.6233 31.1318C78.0273 30.6976 77.5093 30.363 77.1404 30.1423L76.5586 29.7935L75.9413 29.5017C75.551 29.3237 74.9834 29.0745 74.2881 28.8325C72.5919 28.2144 70.8216 27.8242 69.0234 27.6722C67.2334 27.5132 65.4297 27.643 63.6807 28.0566C62.2687 28.4125 61.4031 28.8681 61.4386 28.9678Z" fill="white"/>
<path d="M139.167 32.321H179.433C179.433 32.321 176.382 23.138 169.059 27.7295C169.059 27.7295 167.534 19.7709 160.822 19.1872C154.11 18.6035 152.591 24.9746 152.591 24.9746C152.591 24.9746 141.296 22.8319 139.167 32.321Z" fill="#D5F9FD"/>
<path opacity="0.2" d="M176.956 31.0183C175.627 31.0051 174.328 30.6108 173.215 29.8818C172.101 29.1528 171.218 28.1195 170.67 26.9037C170.108 27.1262 169.569 27.4028 169.059 27.7295C168.866 26.8485 168.583 25.9897 168.215 25.1668C167.89 26.2421 167.305 27.2202 166.512 28.0142C165.22 29.3127 163.467 30.0448 161.638 30.0502C160.731 30.0492 159.833 29.8689 158.995 29.5196C158.157 29.1702 157.397 28.6587 156.756 28.0142C155.464 26.7166 154.737 24.9581 154.734 23.1238C154.705 22.4018 154.797 21.6801 155.004 20.9882V20.917C153.837 22.0136 152.99 23.4092 152.556 24.9532C152.178 24.8861 151.796 24.8386 151.414 24.8109C151.139 26.1389 150.486 27.3583 149.533 28.3203C149.476 28.3702 149.427 28.4271 149.37 28.4841C148.072 29.7765 146.318 30.5029 144.489 30.5057C143.014 30.5022 141.58 30.0258 140.395 29.1461C139.803 30.1193 139.378 31.1853 139.139 32.2996H179.404C179.208 31.7647 178.971 31.2459 178.695 30.7478C178.129 30.9131 177.545 31.004 176.956 31.0183Z" fill="#66ECFB"/>
<path d="M169.449 27.2174C169.392 26.8757 169.279 26.5056 169.187 26.1354C169.137 25.9432 169.066 25.751 169.002 25.5588C168.938 25.3666 168.867 25.153 168.782 24.9537C168.461 24.1054 168.042 23.2979 167.533 22.5476C167.277 22.1588 166.997 21.7855 166.696 21.43C166.398 21.0909 166.078 20.7723 165.738 20.4761C165.418 20.1953 165.082 19.9338 164.731 19.6931L164.22 19.387C164.062 19.2876 163.896 19.2019 163.723 19.1307C163.206 18.878 162.664 18.6799 162.105 18.5399L161.46 18.4117C161.245 18.3687 161.026 18.3472 160.807 18.3477C160.601 18.3477 160.346 18.3477 160.055 18.3477C159.764 18.3477 159.445 18.3477 159.09 18.4331C158.292 18.5594 157.515 18.7991 156.784 19.145C156.376 19.3404 155.983 19.564 155.606 19.8141C155.226 20.085 154.866 20.3823 154.528 20.7039C154.356 20.8635 154.192 21.0322 154.038 21.2093L153.598 21.7432C153.456 21.9212 153.343 22.1205 153.215 22.3056C153.088 22.4855 152.976 22.676 152.882 22.8751L152.591 23.4517C152.513 23.6439 152.449 23.8361 152.378 24.0212C152.25 24.371 152.151 24.7304 152.08 25.0961C152.014 25.4032 151.971 25.715 151.952 26.0286C151.952 26.171 151.952 26.2991 151.952 26.4201C151.952 26.5412 151.952 26.6551 151.952 26.7547C151.952 27.1534 151.995 27.374 152.03 27.374C152.066 27.374 152.101 27.1463 152.144 26.7618C152.144 26.6622 152.144 26.5554 152.144 26.4415C152.144 26.3276 152.193 26.1995 152.215 26.0713C152.264 25.7723 152.336 25.4773 152.428 25.1886C152.874 23.6464 153.757 22.2668 154.968 21.2165C155.29 20.9332 155.634 20.6761 155.996 20.4476C156.348 20.2322 156.716 20.0442 157.096 19.8853C157.776 19.597 158.492 19.4053 159.225 19.3158C159.537 19.2802 159.835 19.3158 160.09 19.266C160.346 19.2161 160.566 19.3016 160.75 19.3087C160.944 19.3123 161.136 19.3362 161.325 19.3799L161.9 19.4724C162.401 19.5855 162.89 19.7452 163.361 19.9493C163.519 20.0098 163.671 20.0837 163.815 20.17L164.284 20.4192C164.613 20.6394 164.93 20.877 165.235 21.131C165.554 21.3802 165.845 21.6863 166.157 21.9782C166.451 22.2979 166.728 22.633 166.987 22.9819C167.498 23.6782 167.938 24.4247 168.3 25.21C168.392 25.4022 168.477 25.5873 168.548 25.7724C168.619 25.9574 168.697 26.1425 168.761 26.3205C168.881 26.6835 169.016 27.0324 169.094 27.3527C169.463 28.6412 169.556 29.5452 169.634 29.5381C169.714 28.7597 169.651 27.9732 169.449 27.2174Z" fill="white"/>
<path d="M152.258 24.9112C151.812 24.9099 151.368 24.8646 150.931 24.776C149.985 24.6839 149.031 24.715 148.093 24.8685C147.156 25.0253 146.241 25.2954 145.368 25.6729C145.007 25.8224 144.723 25.979 144.524 26.0787L144.212 26.2495L143.9 26.4061C143.701 26.5129 143.424 26.6695 143.098 26.876C142.308 27.385 141.592 28.0006 140.969 28.7054C140.343 29.4192 139.84 30.2323 139.479 31.1115C139.357 31.5397 139.198 31.9565 139.004 32.3573C138.929 31.9011 138.971 31.4334 139.125 30.9976C139.378 30.0129 139.824 29.0885 140.437 28.2783C141.033 27.4609 141.751 26.7405 142.566 26.1427C142.834 25.9389 143.113 25.7511 143.403 25.5804L143.729 25.3882L144.077 25.2173C144.383 25.0759 144.695 24.95 145.014 24.84C145.97 24.4934 146.967 24.2732 147.979 24.1851C148.988 24.094 150.004 24.1685 150.988 24.4058C151.444 24.4738 151.879 24.6468 152.258 24.9112Z" fill="white"/>
<g style="mix-blend-mode:multiply">
<path d="M78.2818 67.6441C70.7537 58.7886 61.2886 58.333 55.3782 59.1872L54.7965 59.2798L54.4346 59.3367L54.0089 59.415L53.6683 59.4862L53.2142 59.5787L52.7814 59.6784L52.4621 59.7567L52.1641 59.835L51.8377 59.9204L51.4617 60.0272L51.2204 60.0984L51.0005 60.1696L50.745 60.2479L50.5109 60.3262L50.3264 60.3903L50.1987 60.433L50.0355 60.4899L49.9362 60.5326H49.8368H49.8014H49.7659C49.7091 60.4543 49.6453 60.3831 49.5885 60.312C40.6272 48.6446 30.0765 47.3419 23.6269 47.9327H23.5134C22.4819 48.0322 21.4563 48.1867 20.4411 48.3954C18.7472 48.6083 17.0817 49.0069 15.4745 49.5842L2.19922 89.6904C19.5684 82.5576 34.8091 101.806 34.8091 101.806C49.3047 95.1931 67.0713 114 67.0713 114L82.6808 73.3675C81.4266 71.3046 79.9515 69.3855 78.2818 67.6441Z" fill="#D2D2D2"/>
</g>
<path d="M13.3036 47.4909C13.3036 47.4909 32.4112 39.8385 47.2332 59.4715C47.2332 59.4715 68.0153 50.8153 80.4604 71.203L64.8508 111.836C64.8508 111.836 47.1126 93.0357 32.5815 99.6418C32.5815 99.6418 17.355 80.4216 0 87.6042L13.3036 47.4909Z" fill="#9FE08B"/>
<g style="mix-blend-mode:multiply" opacity="0.5">
<path d="M14.5164 47.619C14.5164 47.619 32.8932 40.3224 47.2043 59.1582C47.2043 59.1582 67.1988 50.9007 79.2111 70.4626L64.311 109.366C64.311 109.366 47.1689 91.3129 33.2196 97.62C33.2196 97.62 18.5252 79.1544 1.83008 86.0238L14.5164 47.619Z" fill="#D2D2D2"/>
</g>
<path d="M15.4538 47.0925C15.4538 47.0925 33.5255 39.8885 47.5812 58.4395C47.5812 58.4395 67.2351 50.2887 79.0345 69.5445L64.3331 107.871C64.3331 107.871 47.5031 90.0746 33.7809 96.3318C33.7809 96.3318 19.3491 78.1509 2.93066 84.9421L15.4538 47.0925Z" fill="white"/>
<path opacity="0.2" d="M37.1369 87.483C35.483 87.2614 33.8565 86.8678 32.2838 86.3084C26.0567 84.0478 20.9638 79.4235 18.1025 73.4317C15.2412 67.4399 14.8404 60.5602 16.9864 54.2747C18.0953 51.1049 19.8413 48.1974 22.1163 45.7324C19.8448 45.8504 17.6016 46.2914 15.4538 47.0422L2.93066 84.8847C19.3491 78.1007 33.7809 96.2744 33.7809 96.2744L34.0718 96.1605L37.1369 87.483Z" fill="#D2D2D2"/>
<path opacity="0.2" d="M63.2825 97.6342C57.0555 95.3737 51.9631 90.749 49.1029 84.7569C46.2428 78.7647 45.8438 71.885 47.9921 65.6005C49.1163 62.4029 50.8869 59.4728 53.193 56.9941C51.2745 57.2538 49.3916 57.7314 47.5806 58.4179L47.4032 58.1972L34.0996 96.2105C47.7651 90.3661 64.3609 107.871 64.3609 107.871L67.8589 98.7589C66.3007 98.5335 64.7681 98.1568 63.2825 97.6342Z" fill="#D2D2D2"/>
<g style="mix-blend-mode:multiply" opacity="0.5">
<g style="mix-blend-mode:multiply">
<path d="M34.5537 94.8439C34.7427 93.8434 35.0132 92.8601 35.3626 91.9039C35.9089 90.167 36.661 87.8535 37.4202 85.547C38.9528 80.9342 40.4924 76.2929 40.4924 76.2929L43.8414 67.2167C44.6858 64.9529 45.5372 62.6892 46.197 61.0021C46.5187 60.0435 46.9173 59.1127 47.389 58.2188C47.2042 59.2125 46.936 60.1889 46.5873 61.1374C46.048 62.8672 45.2959 65.1665 44.5438 67.4658C43.0184 72.0573 41.4858 76.6417 41.4858 76.6417L38.1226 85.7677C37.2783 88.0385 36.4197 90.3165 35.7528 92.0178C35.4323 92.9917 35.0312 93.9371 34.5537 94.8439Z" fill="#D2D2D2"/>
</g>
</g>
<path opacity="0.2" d="M33.6809 81.1403C33.6258 82.4746 33.0827 83.7417 32.1554 84.6996C31.6644 85.2145 31.077 85.6272 30.4269 85.9143C29.7768 86.2013 29.0767 86.357 28.3666 86.3725C27.6771 86.4016 26.9891 86.2863 26.3465 86.0338C25.7039 85.7813 25.1208 85.3972 24.6344 84.9061L20.3063 80.7132C19.54 79.9658 19.2917 79.2895 19.5613 78.777C19.748 78.4246 19.9873 78.1029 20.2708 77.8231L29.1328 68.633C29.3159 68.4368 29.5102 68.2514 29.7146 68.0777C29.889 67.9574 30.0803 67.8638 30.2823 67.8001C30.7222 67.6577 31.2969 67.9211 31.9993 68.6045L36.143 72.6194C36.6255 73.0673 37.0092 73.6116 37.2695 74.2172C37.5297 74.8229 37.6608 75.4765 37.6543 76.136C37.6782 76.8032 37.5645 77.4681 37.3203 78.0892C37.0761 78.7102 36.7067 79.274 36.2352 79.7451C35.5505 80.4672 34.657 80.9553 33.6809 81.1403ZM29.4237 81.6813C29.637 81.4766 29.8123 81.2356 29.9417 80.9695C30.023 80.7686 30.023 80.5439 29.9417 80.343C29.7375 79.9542 29.4632 79.6066 29.1328 79.318C28.7999 79.0343 28.5682 78.6494 28.473 78.2217C28.479 77.9835 28.5374 77.7495 28.6442 77.5366C28.7509 77.3237 28.9032 77.1371 29.0903 76.9902C29.5515 76.5061 29.9559 76.2783 30.3106 76.3353C30.7885 76.4523 31.2193 76.7131 31.5452 77.0827C31.978 77.5099 32.3541 77.6522 32.6663 77.5027C32.8958 77.3461 33.1055 77.1621 33.2906 76.9546C33.4088 76.8531 33.4976 76.7215 33.5475 76.5737C33.5974 76.4259 33.6068 76.2673 33.5745 76.1146C33.4406 75.7446 33.2132 75.4159 32.9146 75.1607L30.6157 72.9255L24.5848 79.1827L27.2881 81.8024C27.9763 82.4502 28.6787 82.4502 29.4025 81.6813H29.4237Z" fill="#D2D2D2"/>
<path d="M33.2061 79.7163C33.151 81.0506 32.6079 82.3177 31.6806 83.2756C31.1903 83.7914 30.6031 84.2048 29.9528 84.4919C29.3025 84.779 28.6021 84.9342 27.8918 84.9485C27.2023 84.9776 26.5143 84.8623 25.8717 84.6098C25.2291 84.3573 24.646 83.9732 24.1596 83.4821L19.8315 79.2892C19.0653 78.5418 18.8169 77.8655 19.122 77.353C19.3077 77 19.5471 76.6782 19.8315 76.3991L28.658 67.2375C28.8411 67.0413 29.0354 66.8559 29.2399 66.6822C29.4168 66.5618 29.6104 66.4682 29.8146 66.4046C30.2545 66.2622 30.8221 66.5256 31.5245 67.209L35.6682 71.2239C36.1502 71.6725 36.5341 72.2168 36.7955 72.8222C37.0569 73.4275 37.1901 74.0807 37.1866 74.7404C37.2088 75.4074 37.0943 76.0719 36.8502 76.6927C36.6061 77.3135 36.2376 77.8774 35.7675 78.3496C35.0754 79.0603 34.1804 79.5378 33.2061 79.7163ZM28.9489 80.2574C29.1622 80.0526 29.3375 79.8116 29.4669 79.5455C29.5482 79.3446 29.5482 79.1199 29.4669 78.9191C29.2669 78.5314 28.9975 78.1839 28.6722 77.894C28.3355 77.6124 28.101 77.227 28.0053 76.7977C28.0113 76.5595 28.0698 76.3255 28.1765 76.1126C28.2832 75.8997 28.4355 75.7131 28.6226 75.5662C29.0838 75.0821 29.4882 74.8543 29.843 74.9113C30.3208 75.0283 30.7516 75.2891 31.0775 75.6588C31.5174 76.0859 31.8864 76.2282 32.1986 76.0787C32.4295 75.924 32.6394 75.7397 32.823 75.5306C32.9424 75.4301 33.032 75.2986 33.0821 75.1505C33.1321 75.0023 33.1407 74.8433 33.1068 74.6906C32.9761 74.3208 32.751 73.9919 32.454 73.7367L30.148 71.5015L24.1242 77.7587L26.8204 80.3784C27.5015 81.0262 28.211 81.0262 28.9277 80.2574H28.9489Z" fill="#F7DB00"/>
<path opacity="0.2" d="M26.9475 50.509L31.9142 62.8811C32.0841 63.2306 32.1829 63.6106 32.2051 63.9988C32.1696 64.5184 31.7226 64.9526 30.8712 65.3157C30.5069 65.4968 30.107 65.5941 29.7005 65.6004C29.4562 65.5984 29.2194 65.5159 29.0264 65.3655C28.8761 65.2505 28.7546 65.1018 28.6717 64.9313C28.6007 64.7818 28.5014 64.5611 28.3808 64.2621L27.4229 61.8703L21.4913 61.4717L20.2283 63.714C20.0651 63.9916 19.9374 64.191 19.8523 64.3191C19.7386 64.4665 19.5991 64.5919 19.4407 64.6893C19.2289 64.8211 18.9786 64.8764 18.7312 64.8459C18.33 64.7822 17.9474 64.6316 17.6101 64.4045C16.8084 63.9489 16.4252 63.4649 16.4536 62.9452C16.526 62.5629 16.6757 62.1994 16.8935 61.8774L23.4708 50.2599C23.652 49.9416 23.9204 49.6822 24.2442 49.5124C24.5608 49.3385 24.9197 49.2571 25.2801 49.2775C25.6497 49.2889 26.0071 49.4129 26.3049 49.6328C26.6027 49.8528 26.8268 50.1583 26.9475 50.509ZM24.8757 55.549L23.2651 58.3964L26.1032 58.5886L24.8757 55.549Z" fill="#D2D2D2"/>
<path d="M26.118 49.6194L31.0847 61.9915C31.2579 62.3397 31.3569 62.7204 31.3756 63.1091C31.3401 63.6288 30.9002 64.063 30.0416 64.426C29.6774 64.6072 29.2774 64.7045 28.8709 64.7108C28.6286 64.7099 28.3937 64.6271 28.204 64.4759C28.0536 64.359 27.9301 64.2109 27.8421 64.0416C27.7712 63.8922 27.6789 63.6715 27.5512 63.3725L26.5934 60.9806L20.6688 60.582L19.3987 62.8244C19.2356 63.102 19.1149 63.3013 19.0227 63.4294C18.911 63.5787 18.7712 63.7045 18.6112 63.7996C18.3994 63.9315 18.149 63.9867 17.9017 63.9562C17.5008 63.8913 17.1185 63.7407 16.7806 63.5149C15.9788 63.0593 15.5957 62.5752 15.6312 62.0556C15.7014 61.6737 15.8486 61.3104 16.064 60.9878L22.6484 49.3702C22.8247 49.0507 23.0913 48.7906 23.4147 48.6228C23.7313 48.4488 24.0902 48.3674 24.4506 48.3879C24.8202 48.3993 25.1776 48.5232 25.4754 48.7432C25.7732 48.9631 25.9973 49.2687 26.118 49.6194ZM24.0391 54.6878L22.4355 57.5352L25.2736 57.7275L24.0391 54.6878Z" fill="#DC3258"/>
<path opacity="0.2" d="M64.6094 80.9695L65.2125 80.7559C65.6953 80.5886 66.2084 80.5279 66.7167 80.5779C67.2914 80.7488 67.7668 81.4464 68.1357 82.7135C68.3416 83.2705 68.3979 83.8719 68.2989 84.4576C68.2522 84.6401 68.1698 84.8114 68.0565 84.9617C67.9432 85.112 67.8013 85.2383 67.6391 85.3332C67.2991 85.5245 66.9369 85.6727 66.5606 85.7745L65.4253 86.0877C64.7359 86.2217 64.0344 86.2838 63.3323 86.2728C62.3603 86.3057 61.389 86.1905 60.4516 85.9311C59.5473 85.6656 58.6797 85.2878 57.8689 84.8064C56.9633 84.2579 56.1352 83.5899 55.4068 82.8203C54.6113 81.999 53.9353 81.0692 53.3989 80.0583C52.8335 78.9345 52.4913 77.7111 52.3913 76.4563C52.2579 75.0188 52.4 73.569 52.81 72.1851C53.1779 70.8207 53.8122 69.5431 54.676 68.4265C55.4116 67.4574 56.3272 66.6404 57.3722 66.0204C58.352 65.4594 59.4122 65.0536 60.5154 64.8174C62.4707 64.3295 64.5181 64.3541 66.4612 64.8886C67.3638 65.1509 68.2223 65.5467 69.0085 66.0631C69.6699 66.4611 70.2799 66.9393 70.8249 67.4868L71.3854 68.0706C71.6644 68.3695 71.8773 68.6068 72.024 68.7824C72.1963 68.9958 72.3174 69.2461 72.3777 69.514C72.438 69.7819 72.4359 70.0602 72.3716 70.3272C72.1786 70.8867 71.8165 71.3719 71.3357 71.7153C70.3211 72.5126 69.5264 72.8329 68.9446 72.6621C68.4433 72.4405 68.0116 72.0861 67.6958 71.637C66.9929 70.7065 65.9897 70.0498 64.8577 69.779C63.5511 69.4369 62.1699 69.5191 60.9128 70.0139C60.1844 70.2995 59.5348 70.756 59.0183 71.3451C58.4113 72.0263 57.9715 72.8406 57.7341 73.7227C57.4687 74.5965 57.4104 75.5203 57.5638 76.4207C57.6977 77.209 58.0135 77.955 58.4862 78.599C59.2826 79.6774 60.405 80.4689 61.6861 80.8556C62.2372 81.0169 62.8079 81.1007 63.3819 81.1047C63.7952 81.1148 64.2081 81.0693 64.6094 80.9695Z" fill="#D2D2D2"/>
<path d="M63.7578 80.0798L64.368 79.8663C64.8486 79.7 65.3591 79.6393 65.8651 79.6883C66.4469 79.8592 66.9223 80.5568 67.2842 81.8239C67.49 82.3808 67.5463 82.9823 67.4474 83.568C67.4006 83.7504 67.3182 83.9218 67.2049 84.0721C67.0917 84.2224 66.9498 84.3487 66.7875 84.4435C66.4476 84.6348 66.0853 84.7831 65.709 84.8849L64.5738 85.1981C63.8843 85.3321 63.1829 85.3941 62.4807 85.3832C61.5088 85.4157 60.5376 85.3005 59.6 85.0415C58.6958 84.776 57.8282 84.3981 57.0173 83.9168C56.1141 83.368 55.2884 82.7 54.5624 81.9307C53.7646 81.1113 53.0884 80.1811 52.5544 79.1687C51.9835 78.0466 51.6387 76.8226 51.5398 75.5666C51.4064 74.1292 51.5485 72.6794 51.9584 71.2955C52.33 69.9325 52.9639 68.6556 53.8244 67.5369C54.5608 66.5659 55.4791 65.7485 56.5277 65.1308C57.5064 64.5675 58.567 64.1616 59.671 63.9277C61.6238 63.4399 63.669 63.4644 65.6097 63.9989C66.514 64.2625 67.3746 64.6583 68.164 65.1735C68.8228 65.5752 69.4325 66.053 69.9804 66.5972L70.5338 67.1809C70.8082 67.4799 71.021 67.7172 71.1724 67.8928C71.3467 68.1051 71.469 68.3554 71.5294 68.6237C71.5898 68.892 71.5866 69.1707 71.5201 69.4375C71.327 69.997 70.9649 70.4823 70.4841 70.8257C69.4695 71.6229 68.6749 71.9433 68.1001 71.7724C67.5977 71.5528 67.1655 71.198 66.8514 70.7474C66.1476 69.8178 65.1448 69.1613 64.0133 68.8894C62.7092 68.5453 61.3296 68.6276 60.0754 69.1243C59.3451 69.4064 58.6947 69.8634 58.181 70.4555C57.5718 71.1363 57.1296 71.9505 56.8896 72.8331C56.6229 73.7068 56.567 74.6315 56.7264 75.5311C56.8548 76.3198 57.1686 77.0664 57.6417 77.7093C58.4396 78.7863 59.5614 79.5775 60.8417 79.9659C61.3927 80.1272 61.9634 80.2111 62.5374 80.2151C62.9484 80.2249 63.3589 80.1795 63.7578 80.0798Z" fill="#D2D2D2"/>
<g style="mix-blend-mode:multiply">
<path d="M177.204 41.162C177.374 40.927 177.524 40.685 177.665 40.4501C177.663 40.4288 177.663 40.4073 177.665 40.386C177.807 40.1225 177.935 39.8516 178.049 39.5745L178.112 39.4037C178.203 39.1707 178.281 38.9331 178.347 38.6918C178.818 37.5608 179.091 36.3567 179.155 35.1325C179.234 33.6892 179.146 32.2417 178.893 30.8186C178.687 29.6583 178.481 28.8966 178.481 28.8966C178.481 28.8966 178.276 28.142 177.864 27.0529C177.367 25.7174 176.771 24.4207 176.083 23.1733C175.411 21.9152 174.622 20.7235 173.728 19.614C173.345 19.0781 172.863 18.6213 172.308 18.2686C172.238 18.2686 172.067 18.6245 171.819 19.1726C171.509 19.8339 171.156 20.4736 170.762 21.0875C170.393 21.6428 170.003 22.1695 169.662 22.5967C168.881 23.3085 167.895 24.0702 166.632 25.138C167.164 24.6183 167.661 24.1272 168.051 23.7143C168.51 23.3024 168.902 22.8222 169.215 22.2906C168.702 22.6005 168.226 22.9683 167.796 23.3868C166.966 24.0987 165.845 24.9885 164.745 25.9353C163.729 26.8085 162.763 27.7377 161.85 28.7187C161.431 29.1723 161.035 29.6475 160.665 30.1424L160.388 30.5695C160.143 30.9495 159.92 31.3441 159.721 31.7512C159.077 32.9886 158.757 34.3703 158.792 35.7661C158.863 37.141 159.291 38.4734 160.034 39.6315C160.284 40.0187 160.561 40.3875 160.864 40.7348C160.949 40.8634 161.041 40.987 161.141 41.105C161.141 41.162 161.077 41.2189 161.048 41.2759C160.762 41.6958 160.524 42.1472 160.339 42.6213C159.903 43.7654 159.619 44.9621 159.494 46.1806C159.445 46.6148 159.409 46.9779 159.388 47.2626C159.388 47.3124 159.388 47.3623 159.388 47.405C159.388 47.4477 159.388 47.5117 159.388 47.5687C159.388 47.6256 159.388 47.6684 159.388 47.7182C159.384 47.7798 159.384 47.8416 159.388 47.9033C159.384 47.9388 159.384 47.9745 159.388 48.01V48.2094C159.388 48.2094 159.388 48.2592 159.388 48.2806C159.388 48.3019 159.388 48.4229 159.438 48.4941C159.487 48.5653 159.438 48.4941 159.438 48.5297C159.58 48.9714 159.823 49.3736 160.147 49.7043C157.309 58.5954 148.27 87.682 147.276 95.3558L147.319 95.427L147.397 95.5409V95.5765L147.496 95.726V95.7616L147.631 95.9538L147.809 96.1887C148.27 96.7707 148.785 97.307 149.348 97.7904L149.738 98.1036H149.781L150.157 98.3741C150.384 98.5592 150.618 98.73 150.867 98.8938C151.157 99.098 151.461 99.2834 151.775 99.449C152.088 99.6223 152.413 99.7745 152.747 99.9046C153.084 100.03 153.43 100.128 153.783 100.196L154.052 100.246H154.116H154.194H154.329H154.854C155.217 100.247 155.579 100.225 155.94 100.182C156.298 100.142 156.653 100.08 157.004 99.9971C157.352 99.9111 157.696 99.8065 158.033 99.6839C158.372 99.5721 158.704 99.4389 159.026 99.2853C159.353 99.1429 159.672 98.9792 159.991 98.8155C160.31 98.6517 160.615 98.4595 160.913 98.2673C161.211 98.0751 161.502 97.8758 161.8 97.648L161.886 97.5839V97.4629C162.325 95.4911 162.723 93.505 163.141 91.526L164.383 85.5891L165 82.6207C165.213 81.6312 165.398 80.6346 165.603 79.6451L166.788 73.6939L167.973 67.7428L169.109 61.7845L169.676 58.8018C169.868 57.8052 170.038 56.8086 170.222 55.8191L170.265 55.5771L170.591 53.9897L171.003 52.0321C171.232 52.0016 171.452 51.9222 171.647 51.7995C171.843 51.6767 172.011 51.5133 172.138 51.3202C172.628 50.3948 173.749 44.7426 173.898 44.0023C173.898 43.9524 173.898 43.924 173.898 43.924C173.898 43.924 173.756 43.7674 173.692 43.6891L173.756 43.6464C173.877 43.7531 173.947 43.803 173.962 43.7958C173.976 43.7887 173.962 43.7175 173.834 43.6108C174.054 43.4969 174.253 43.3758 174.451 43.2548L174.65 43.1338C174.941 42.9416 175.21 42.7494 175.466 42.543L175.572 42.4433C175.799 42.2569 176.015 42.0572 176.218 41.8453L176.332 41.7243C176.54 41.4972 176.736 41.2596 176.92 41.0125L177.204 41.162ZM173.43 19.8916C174.191 21.0519 174.869 22.2652 175.459 23.5221C175.87 24.3834 176.225 25.2661 176.523 26.0705L176.31 25.5865L176.147 25.2234L175.934 24.7678C174.911 22.5817 173.725 20.4758 172.387 18.4679C172.387 18.4679 172.387 18.418 172.387 18.4038C172.514 18.5889 172.926 19.0943 173.43 19.8774V19.8916ZM159.771 46.145C159.904 45.4556 160.072 44.7737 160.275 44.1019C160.112 44.828 159.956 45.5399 159.771 46.145Z" fill="#D2D2D2"/>
</g>
<path d="M159.502 39.362C159.502 39.362 154.195 33.4037 161.347 26.4631C167.484 20.512 169.393 20.6472 170.57 16.4971C170.57 16.4971 184.172 36.1586 171.876 42.1667L159.502 39.362Z" fill="#DC3258"/>
<g style="mix-blend-mode:multiply" opacity="0.5">
<path d="M174.132 22.8389C174.778 28.0853 171.706 33.8869 164.908 33.8869C163.718 33.9242 162.533 33.7238 161.421 33.2973C160.309 32.8708 159.292 32.2267 158.43 31.4025C157.792 34.0985 158.179 36.9364 159.516 39.3611L171.89 42.1659C179.638 38.3716 177.077 29.1317 174.132 22.8389Z" fill="#DC3258"/>
</g>
<path d="M163.943 27.5307C163.879 27.5307 163.943 27.0965 164.177 26.5056C164.453 25.7892 164.795 25.1004 165.199 24.4484C165.639 23.7365 166.114 23.0246 166.476 22.5619L167.072 21.729L167.711 20.9602C168.177 20.3958 168.613 19.8064 169.016 19.1948C169.413 18.581 169.769 17.9413 170.081 17.2799C170.322 16.7318 170.492 16.3545 170.563 16.3759C170.634 16.3972 170.563 16.8101 170.464 17.4223C170.276 18.1617 170.007 18.878 169.662 19.5579C169.32 20.239 168.931 20.8955 168.498 21.5226C168.151 22.0423 167.902 22.3697 167.902 22.3697L167.243 23.1528C166.838 23.6155 166.313 24.2277 165.824 24.8612C165.334 25.4948 164.88 26.1568 164.561 26.6694C164.241 27.1819 164.021 27.5592 163.943 27.5307Z" fill="#A3143A"/>
<path d="M167.491 20.4121C167.18 20.9452 166.787 21.4258 166.327 21.8358C165.575 22.626 164.525 23.6226 163.489 24.6334C162.552 25.5362 161.661 26.4866 160.821 27.4809C160.112 28.2995 159.757 28.9046 159.757 28.9046C159.411 29.3562 159.098 29.832 158.82 30.3283C158.186 31.4105 157.827 32.6331 157.777 33.8876C157.767 35.1623 158.059 36.4212 158.629 37.5608C158.939 38.0732 159.209 38.6087 159.438 39.1625C158.959 38.7706 158.563 38.2865 158.274 37.7388C157.529 36.5814 157.099 35.249 157.025 33.8734C156.997 32.4783 157.317 31.0983 157.955 29.8585C158.153 29.4514 158.376 29.0568 158.622 28.6768L158.898 28.2497C159.267 27.754 159.663 27.2788 160.083 26.826C160.993 25.8397 161.962 24.9102 162.985 24.0426C164.078 23.0887 165.199 22.1775 166.036 21.4941C166.474 21.0736 166.962 20.71 167.491 20.4121Z" fill="#A3143A"/>
<path d="M163.234 31.0898C163.39 31.1468 163.035 32.2786 162.879 33.4176C162.83 33.688 162.802 33.9617 162.794 34.2363C162.77 34.4729 162.77 34.7114 162.794 34.9481C162.794 35.3539 162.836 35.6244 162.836 35.6244C162.871 36.3535 163.015 37.0733 163.262 37.76C163.652 38.8064 164.333 39.7674 164.198 39.8955C164.064 40.0237 163.915 39.7532 163.603 39.4328C163.211 39.0306 162.868 38.5838 162.581 38.1017C162.434 37.8349 162.303 37.5591 162.191 37.2759C162.141 37.1406 162.07 37.0125 162.034 36.8844L161.942 36.5142C161.87 36.2578 161.817 35.9959 161.786 35.7312V34.941C161.801 34.6738 161.844 34.409 161.914 34.1508C161.966 33.8541 162.04 33.5615 162.134 33.2752C162.324 32.47 162.701 31.7213 163.234 31.0898Z" fill="#A3143A"/>
<path d="M158.543 48.0392C158.095 47.6628 157.777 47.1529 157.637 46.5834C157.497 46.0138 157.541 45.4142 157.763 44.8715C158.522 42.8996 158.82 38.9417 160.097 38.4647C161.374 37.9878 168.761 37.7529 172.28 42.2589C172.28 42.2589 171.031 48.6657 170.506 49.6552C169.108 52.3104 158.543 48.0392 158.543 48.0392Z" fill="#F7DB00"/>
<g style="mix-blend-mode:multiply">
<path d="M164.433 43.0989L164.241 43.163C161.845 43.9844 159.663 45.3345 157.856 47.1138C157.683 46.7675 157.587 46.3876 157.575 46.0005C157.562 45.6133 157.634 45.2281 157.785 44.8715C158.544 42.8996 158.842 38.9417 160.119 38.4647C161.396 37.9878 168.782 37.7529 172.302 42.2589C172.305 42.2873 172.305 42.316 172.302 42.3444C169.656 41.9683 166.959 42.2269 164.433 43.0989Z" fill="#F7DB00"/>
</g>
<path d="M172.344 42.1656C172.344 42.1656 172.259 42.0232 172.067 41.7954C171.968 41.6886 171.854 41.5534 171.719 41.3968L171.499 41.1548L171.223 40.9198L170.598 40.3931C170.359 40.2035 170.108 40.03 169.846 39.8734C169.291 39.5132 168.71 39.1944 168.108 38.9195C167.803 38.7843 167.476 38.6775 167.164 38.5636L166.703 38.3856L166.235 38.2646L165.341 38.0439C165.057 37.987 164.78 37.9585 164.532 37.9158L163.822 37.8232H163.283H162.815H162.354L161.8 37.8731C161.684 37.8784 161.57 37.8999 161.46 37.9371L161.091 38.0439C160.513 38.25 159.996 38.5975 159.586 39.0548C159.147 39.5688 158.792 40.1505 158.536 40.7775C158.104 41.9349 157.82 43.1429 157.692 44.3723C157.603 44.9205 157.568 45.476 157.586 46.031C157.737 45.4988 157.851 44.9564 157.926 44.4079C158.125 43.2198 158.461 42.0588 158.927 40.9483C159.187 40.3806 159.534 39.857 159.955 39.3965C160.317 39.0149 160.768 38.7309 161.268 38.5707L161.587 38.4924C161.681 38.462 161.779 38.4452 161.878 38.4426H162.361H162.815H163.78L164.44 38.5137C164.681 38.5137 164.95 38.5636 165.227 38.6063L166.086 38.7985C166.235 38.7985 166.391 38.8554 166.54 38.8982L166.994 39.0476C167.299 39.1544 167.618 39.2398 167.923 39.3609C168.519 39.603 169.098 39.886 169.655 40.208C169.913 40.349 170.164 40.5034 170.407 40.6707L171.052 41.1405L171.336 41.3541L171.57 41.5747L171.961 41.9236C172.195 42.0731 172.33 42.1798 172.344 42.1656Z" fill="#F79000"/>
<path d="M159.175 45.256C159.175 45.256 146.652 84.4083 145.481 93.5059C145.481 93.5059 150.633 102.475 159.942 95.7909L169.818 48.2814C169.818 48.2814 165.568 43.633 159.175 45.256Z" fill="#9FE08B"/>
<g style="mix-blend-mode:multiply" opacity="0.5">
<path d="M166.164 54.0902C162.099 57.6495 158.806 60.9383 156.415 65.9356C154.747 69.4651 153.52 73.1878 152.761 77.0192C151.768 82.0022 151.534 87.1774 150.377 92.1604C149.964 93.9425 149.872 95.7846 150.108 97.5991C148.203 96.7132 146.596 95.2911 145.481 93.5059C146.652 84.4154 159.175 45.256 159.175 45.256C165.561 43.633 169.818 48.2814 169.818 48.2814L168.967 52.3817C167.948 52.7977 167.002 53.3744 166.164 54.0902Z" fill="#D2D2D2"/>
</g>
<g style="mix-blend-mode:multiply" opacity="0.5">
<g style="mix-blend-mode:multiply">
<path d="M154.485 95.8837C154.601 95.7675 154.666 95.6101 154.666 95.4459C154.666 95.2817 154.601 95.1242 154.485 95.0081C154.427 94.9496 154.359 94.9031 154.283 94.8713C154.208 94.8396 154.127 94.8232 154.045 94.8232C153.963 94.8232 153.882 94.8396 153.807 94.8713C153.731 94.9031 153.663 94.9496 153.605 95.0081C153.489 95.1254 153.424 95.2841 153.424 95.4494C153.424 95.6148 153.489 95.7735 153.605 95.8908C153.723 96.0064 153.882 96.0705 154.046 96.0691C154.211 96.0678 154.369 96.0011 154.485 95.8837Z" fill="#242424"/>
</g>
<g style="mix-blend-mode:multiply">
<path d="M157.557 95.9759C157.737 95.7932 157.839 95.5463 157.839 95.2889C157.839 95.0316 157.737 94.7847 157.557 94.602C157.373 94.4203 157.126 94.3184 156.868 94.3184C156.611 94.3184 156.363 94.4203 156.18 94.602C156.09 94.6926 156.018 94.8002 155.969 94.9187C155.92 95.0372 155.895 95.1642 155.895 95.2925C155.895 95.4208 155.92 95.5478 155.969 95.6663C156.018 95.7848 156.09 95.8924 156.18 95.983C156.27 96.0742 156.378 96.1465 156.496 96.1956C156.615 96.2447 156.742 96.2696 156.87 96.269C156.998 96.2683 157.125 96.2421 157.243 96.1917C157.361 96.1414 157.467 96.068 157.557 95.9759Z" fill="#242424"/>
</g>
</g>
<path d="M170.464 48.9216C170.292 48.6038 170.075 48.3134 169.818 48.0602C169.275 47.4889 168.659 46.9911 167.987 46.5795C167.627 46.3555 167.253 46.1557 166.866 45.9816C166.49 45.825 166.157 45.6897 165.83 45.5829L165.078 45.3694C164.983 45.3384 164.886 45.3146 164.787 45.2982L164.489 45.2484C164.305 45.2484 164.035 45.1701 163.723 45.1487C163.092 45.0918 162.254 44.9992 161.403 44.985C160.615 44.9443 159.826 45.0358 159.069 45.2555C158.71 45.3366 158.388 45.5343 158.153 45.8178C158.473 45.687 158.8 45.5753 159.132 45.4833C159.875 45.3486 160.633 45.3246 161.382 45.4121C162.205 45.4833 163.028 45.6185 163.659 45.6968C163.971 45.7395 164.213 45.8036 164.369 45.8321L164.645 45.889L164.922 45.946L165.632 46.1168C165.93 46.2023 166.277 46.3162 166.639 46.4443C167.016 46.5904 167.383 46.7592 167.739 46.9497C168.412 47.3042 169.043 47.7341 169.619 48.2311C169.871 48.4956 170.155 48.7276 170.464 48.9216Z" fill="#61A54A"/>
<path d="M145.496 93.5053C146.303 94.6512 147.257 95.6852 148.334 96.5806C148.604 96.8083 148.895 97.0148 149.186 97.2212C149.476 97.4231 149.78 97.6062 150.094 97.7694C150.407 97.9427 150.732 98.0949 151.066 98.225C151.404 98.3545 151.753 98.4522 152.109 98.5168L152.371 98.5738H152.442H152.648H153.173C153.538 98.5763 153.903 98.5573 154.266 98.5168C154.621 98.5168 154.975 98.3958 155.323 98.3246C155.671 98.2534 156.033 98.1395 156.352 98.0185C156.671 97.8975 157.026 97.7622 157.352 97.6199C157.679 97.4775 157.998 97.3138 158.31 97.1429C158.622 96.9721 158.935 96.787 159.233 96.5948C159.539 96.4038 159.835 96.1971 160.119 95.9755L160.205 95.9114V95.7904C160.644 93.8185 161.042 91.8325 161.46 89.8535L162.702 83.9166L163.319 80.9481C163.532 79.9586 163.724 78.962 163.922 77.9726L165.107 72.0214L166.292 66.0703L167.428 60.112L167.995 57.1293C168.187 56.1398 168.357 55.1432 168.542 54.1466C168.903 52.1534 169.251 50.1673 169.606 48.167C169.138 50.1388 168.698 52.1107 168.244 54.0825C168.024 55.072 167.789 56.0544 167.577 57.0439L166.931 60.0052L165.632 65.935L164.391 71.8719L163.234 77.88C163.029 78.8695 162.816 79.859 162.624 80.8485L162.028 83.824L160.836 89.7752C160.446 91.7613 160.034 93.7402 159.665 95.7263L159.779 95.5484C159.523 95.7548 159.24 95.9612 158.956 96.1534C158.672 96.3456 158.381 96.5307 158.083 96.7016C157.785 96.8724 157.487 97.0361 157.175 97.1856C156.863 97.3351 156.551 97.4775 156.231 97.5914C155.912 97.7053 155.586 97.8121 155.259 97.9117C154.93 98.0017 154.596 98.0706 154.259 98.1182C153.927 98.1675 153.593 98.196 153.258 98.2036H152.733H152.549H152.485L152.237 98.1609C151.9 98.1103 151.568 98.0341 151.243 97.9331C150.919 97.818 150.602 97.6849 150.293 97.5345C149.981 97.3852 149.678 97.2188 149.384 97.0361C149.093 96.8511 148.803 96.666 148.526 96.4524C148.249 96.2389 147.979 96.0253 147.71 95.7975C147.44 95.5697 147.192 95.3348 146.936 95.0857C146.422 94.5914 145.941 94.0634 145.496 93.5053Z" fill="#61A54A"/>
<g style="mix-blend-mode:multiply">
<path d="M143.871 88.3876L143.353 85.6469L142.998 83.7961L141.657 76.6775L133.086 31.2537L130.858 28.3493L127.311 23.708L122.486 17.4365V17.4935V17.4365V17.5575L122.188 18.547L121.237 21.7646L120.251 25.1033L118.754 30.1361L117.547 34.0442C117.469 33.9161 117.42 33.8449 117.398 33.852C117.403 34.0026 117.439 34.1506 117.505 34.2862L117.661 35.1262L117.696 35.3184L126.842 83.7249C126.842 83.7249 126.842 83.8886 126.942 84.152V84.2516L127.005 84.5862L127.14 85.2981L127.502 87.2059C127.502 87.3269 127.502 87.4479 127.552 87.5689C127.601 87.6899 127.601 87.754 127.623 87.8465L127.679 88.1242C127.679 88.2452 127.679 88.3733 127.729 88.4943C127.779 88.6153 127.779 88.6723 127.8 88.7648L128.197 90.8648C128.197 90.993 128.197 91.114 128.247 91.2421C128.247 91.2421 128.247 91.4486 128.382 91.776L128.453 91.9326C128.453 91.9967 128.51 92.0536 128.538 92.1177C128.566 92.1818 128.623 92.3028 128.673 92.3953C128.71 92.4696 128.753 92.5409 128.801 92.6089C128.852 92.6975 128.909 92.7831 128.971 92.8652C129.019 92.9346 129.071 93.0012 129.127 93.0645L129.333 93.3065C129.391 93.3694 129.452 93.4288 129.517 93.4845L129.751 93.7051L129.964 93.876L130.234 94.0682C130.31 94.1261 130.391 94.1784 130.475 94.2248L130.759 94.3956L130.965 94.4953C131.344 94.7164 131.74 94.9069 132.15 95.0648C132.722 95.2775 133.317 95.4209 133.923 95.4919C134.434 95.5505 134.949 95.5767 135.463 95.5702C135.91 95.5702 136.279 95.5346 136.541 95.5061L136.946 95.4563L137.343 95.3709C137.696 95.2915 138.044 95.1941 138.386 95.079C139.452 94.7189 140.442 94.1664 141.309 93.4489L141.579 93.1855C143.261 91.9255 144.176 90.1458 143.871 88.3876Z" fill="#D2D2D2"/>
</g>
<path d="M130.255 28.4136L119.612 14.6035L114.646 31.382L125.352 88.0817C125.352 88.2098 125.352 88.3308 125.402 88.4589C125.97 91.4701 129.929 93.2569 134.243 92.4311C138.557 91.6054 141.544 88.5444 141.026 85.5403L130.255 28.4136Z" fill="#F7DB00"/>
<g style="mix-blend-mode:multiply">
<path d="M124.444 20.8608L119.626 14.6035L118.342 18.9387C119.436 18.824 120.542 18.9354 121.591 19.2659C122.641 19.5965 123.611 20.1393 124.444 20.8608Z" fill="#F7DB00"/>
</g>
<g style="mix-blend-mode:multiply">
<path d="M128.02 25.502C128.584 26.6979 128.994 27.9609 129.24 29.2606L135.406 61.9492C136.641 68.484 133.597 74.7128 128.715 75.6382C127.664 75.8084 126.589 75.7591 125.557 75.4933C124.525 75.2275 123.559 74.7509 122.72 74.0935L125.359 88.0673C125.359 88.1954 125.359 88.3164 125.409 88.4446C125.976 91.4557 129.936 93.2425 134.25 92.4167C138.563 91.591 141.551 88.53 141.033 85.5259L130.248 28.3992L128.02 25.502Z" fill="#F7DB00"/>
</g>
<g style="mix-blend-mode:multiply">
<path d="M126.778 33.3323L119.591 14.6104L119.676 34.6919L129.609 87.277C129.609 87.398 129.609 87.519 129.673 87.6471C130.241 90.6654 132.291 92.8081 134.257 92.4308C136.222 92.0536 137.336 89.3485 136.79 86.3515L126.778 33.3323Z" fill="#F7DB00"/>
</g>
<g style="mix-blend-mode:multiply">
<path d="M132.015 80.7348C127.886 81.5179 124.075 79.9091 123.267 77.1186L124.643 84.3938C124.649 84.5184 124.666 84.6422 124.693 84.764C125.26 87.7822 129.22 89.5619 133.526 88.7433C137.833 87.9246 140.834 84.8494 140.317 81.8525L138.826 73.8369C139.344 76.841 136.322 79.9162 132.015 80.7348Z" fill="#F7DB00"/>
</g>
<path d="M132.22 81.6811C128.084 82.4642 124.281 80.8625 123.472 78.0649L124.841 85.3401C124.841 85.4611 124.841 85.5892 124.891 85.7102C125.458 88.7285 129.418 90.5153 133.731 89.6895C138.045 88.8638 141.04 85.7957 140.515 82.7987L138.996 74.7832C139.521 77.7872 136.506 80.8625 132.22 81.6811Z" fill="white"/>
<g style="mix-blend-mode:multiply">
<path d="M122.081 28.0717C119.975 28.5186 117.781 28.2506 115.844 27.31L114.638 31.3819L114.702 31.7307L114.843 32.4426C115.652 35.233 119.455 36.8419 123.592 36.0517C127.849 35.2402 130.9 32.1578 130.375 29.1609L130.233 28.385L127.629 25.0107C126.176 26.6286 124.221 27.7071 122.081 28.0717Z" fill="#F7DB00"/>
</g>
<path d="M114.688 31.2753C115.695 33.8593 119.356 35.3044 123.315 34.5498C127.275 33.7952 130.191 31.0831 130.155 28.2926L119.626 14.6035L114.688 31.2753Z" fill="white"/>
<path opacity="0.2" d="M119.626 14.6035L119.293 15.7211L127.14 25.9221C127.176 28.7054 124.302 31.4248 120.3 32.1793C118.515 32.5438 116.664 32.4184 114.943 31.8163C116.221 34.0586 119.64 35.2546 123.316 34.5498C127.303 33.7952 130.191 31.0831 130.156 28.2926L119.626 14.6035Z" fill="#D2D2D2"/>
<path d="M117.355 22.2772C118.502 22.9239 119.828 23.174 121.13 22.9891C122.438 22.6844 123.606 21.9503 124.451 20.9033L119.626 14.6318L117.355 22.2772Z" fill="#242424"/>
<path opacity="0.2" d="M119.676 34.6349C120.886 34.8116 122.116 34.7827 123.316 34.5495C124.525 34.3282 125.687 33.8996 126.75 33.2824L119.612 14.6602V14.7313L119.676 34.6349Z" fill="#D2D2D2"/>
<path opacity="0.2" d="M132.22 81.6816C131.013 81.9161 129.775 81.9426 128.559 81.7599L129.602 87.2768C129.602 87.3978 129.602 87.5189 129.665 87.647C129.802 88.3884 130.041 89.1072 130.375 89.7826C131.487 89.9122 132.611 89.869 133.71 89.6544C134.811 89.4522 135.874 89.0774 136.86 88.5439C136.928 87.8002 136.895 87.0505 136.761 86.3158L135.64 80.3789C134.582 81.005 133.425 81.4455 132.22 81.6816Z" fill="#D2D2D2"/>
<path d="M132.724 84.4223C128.588 85.2054 124.784 83.6037 123.976 80.8061L125.345 88.0813C125.345 88.2094 125.345 88.3304 125.395 88.4586C125.962 91.4697 129.921 93.2565 134.235 92.4308C138.549 91.605 141.536 88.544 141.018 85.5399L139.5 77.5244C140.039 80.5285 137.024 83.6037 132.724 84.4223Z" fill="#DC3258"/>
<g style="mix-blend-mode:multiply" opacity="0.5">
<path d="M132.724 84.4222C128.588 85.2053 124.784 83.6036 123.976 80.806L124.153 81.7527L124.288 82.4646C125.097 85.2622 128.907 86.8639 133.036 86.0808C137.293 85.2622 140.344 82.187 139.819 79.19L139.5 77.5029C140.039 80.5283 137.024 83.6036 132.724 84.4222Z" fill="#DC3258"/>
</g>
<g style="mix-blend-mode:multiply" opacity="0.5">
<path d="M139.514 77.5315C139.685 78.6349 139.431 79.762 138.805 80.6851L139.252 83.0413C139.777 86.0383 136.754 89.1206 132.469 89.9321C131.278 90.2044 130.045 90.2351 128.843 90.0224C127.64 89.8097 126.492 89.3579 125.466 88.6935C126.175 91.5409 130.049 93.2352 134.25 92.4308C138.45 91.6264 141.551 88.544 141.033 85.5399L139.514 77.5244V77.5315Z" fill="#DC3258"/>
</g>
<path d="M130.191 28.4202C130.17 29.0438 130.023 29.6566 129.758 30.2212C129.544 30.7777 129.263 31.3059 128.921 31.7944C128.55 32.32 128.116 32.7982 127.63 33.2182C126.762 33.9349 125.771 34.4873 124.707 34.8483C124.364 34.9634 124.016 35.0608 123.664 35.1402L123.266 35.2256L122.855 35.2754C122.599 35.2754 122.23 35.3324 121.776 35.3395C121.264 35.3461 120.752 35.3199 120.244 35.2612C119.636 35.1876 119.038 35.0443 118.463 34.8341C117.86 34.6113 117.286 34.3174 116.753 33.9585C116.249 33.6208 115.797 33.2107 115.412 32.7412C115.12 32.3782 114.881 31.9756 114.702 31.5453C114.625 31.3773 114.579 31.1962 114.567 31.0114C114.567 31.0114 114.695 31.1609 114.844 31.4385C115.065 31.7939 115.324 32.1234 115.617 32.4209C116.441 33.1955 117.443 33.7531 118.534 34.0439C119.077 34.2004 119.636 34.2912 120.201 34.3144C120.685 34.344 121.171 34.344 121.656 34.3144C122.081 34.3144 122.429 34.229 122.67 34.1934L123.053 34.1222L123.436 34.0653C123.678 34.0226 124.025 33.9585 124.437 33.8446C125.455 33.5864 126.417 33.1424 127.275 32.5348C127.753 32.1914 128.187 31.7896 128.566 31.3388C128.913 30.9194 129.217 30.4663 129.475 29.9863C129.943 29.0965 130.12 28.3846 130.191 28.4202Z" fill="#F79000"/>
<path d="M141.04 85.8958C141.024 86.5193 140.879 87.1326 140.614 87.6968C140.394 88.2521 140.111 88.78 139.77 89.27C139.401 89.7973 138.967 90.2757 138.478 90.6937C137.611 91.4113 136.62 91.9638 135.555 92.3239C135.213 92.439 134.865 92.5364 134.512 92.6158L134.115 92.7012L133.71 92.751C133.448 92.751 133.079 92.808 132.632 92.8151C132.118 92.8216 131.603 92.7954 131.092 92.7368C130.486 92.6658 129.891 92.5224 129.318 92.3097C128.714 92.0855 128.138 91.7916 127.601 91.4341C127.099 91.0942 126.648 90.6843 126.26 90.2168C125.966 89.856 125.726 89.4529 125.551 89.0209C125.437 88.6934 125.388 88.5012 125.416 88.487C125.444 88.4727 125.537 88.6365 125.693 88.9141C125.909 89.2708 126.166 89.6005 126.459 89.8965C127.286 90.6859 128.299 91.2517 129.404 91.5409C129.945 91.6933 130.502 91.7841 131.064 91.8114C131.536 91.8396 132.01 91.8396 132.483 91.8114C132.909 91.8114 133.263 91.7259 133.505 91.6903L133.888 91.6192L134.271 91.5622C134.606 91.5056 134.937 91.432 135.264 91.3415C136.282 91.0812 137.243 90.6374 138.102 90.0317C138.578 89.6878 139.009 89.2861 139.387 88.8358C139.738 88.4199 140.043 87.9663 140.295 87.4833C140.791 86.5721 140.969 85.8602 141.04 85.8958Z" fill="#A3143A"/>
<path d="M139.606 78.3075C139.59 78.9309 139.445 79.5441 139.18 80.1085C138.959 80.6631 138.676 81.1908 138.336 81.6817C137.968 82.2093 137.534 82.6877 137.045 83.1054C136.182 83.8289 135.19 84.382 134.122 84.7356C133.696 84.8851 133.334 84.9705 133.079 85.0346L132.681 85.12L132.277 85.1698C132.014 85.1698 131.645 85.2268 131.198 85.2339C130.684 85.2404 130.17 85.2142 129.659 85.1556C129.052 85.082 128.457 84.9362 127.885 84.7214C127.281 84.4996 126.705 84.2082 126.168 83.8529C125.665 83.513 125.214 83.1031 124.827 82.6356C124.533 82.2738 124.294 81.8709 124.117 81.4397C124.004 81.1051 123.954 80.9129 123.982 80.9058C124.011 80.8987 124.103 81.0553 124.259 81.3329C124.474 81.69 124.732 82.0198 125.025 82.3153C125.854 83.1022 126.867 83.6676 127.97 83.9597C128.512 84.1121 129.068 84.2029 129.63 84.2302C130.115 84.2598 130.6 84.2598 131.085 84.2302C131.511 84.1946 131.865 84.1447 132.107 84.1092L132.49 84.038L132.873 83.981C133.207 83.9244 133.539 83.8508 133.866 83.7603C134.882 83.4969 135.844 83.0534 136.704 82.4505C137.179 82.1049 137.61 81.7034 137.989 81.2546C138.339 80.8357 138.644 80.3798 138.897 79.8949C139.358 78.9766 139.535 78.2648 139.606 78.3075Z" fill="#D2D2D2"/>
<g style="mix-blend-mode:multiply">
<path d="M133 104.831L132.099 102.382L130.971 99.2857L129.155 94.3027L114.212 53.264L111.126 50.5803L107.308 47.263L101.788 42.4651L101.71 42.3298V42.3868L101.597 42.2871V42.3441V42.3013V42.4152L101.441 43.3976L100.391 49.904L98.9715 58.7667C98.8792 58.6599 98.8154 58.6029 98.8012 58.61C98.787 58.6172 98.8367 58.7667 98.9573 59.0016L99.0566 59.2649L99.2979 59.9341L114.524 101.706L115.198 103.564L115.234 103.649C115.234 103.649 115.269 103.799 115.397 104.027L115.837 105.244L116.405 106.803C116.405 106.917 116.468 107.031 116.511 107.145C116.554 107.259 116.582 107.294 116.617 107.372L116.724 107.664C116.749 107.778 116.783 107.89 116.823 107.999C116.854 108.081 116.89 108.162 116.93 108.241L117.639 110.134C117.666 110.25 117.699 110.364 117.738 110.476C117.738 110.476 117.788 110.661 117.951 110.953L118.044 111.081L118.157 111.252C118.214 111.323 118.263 111.402 118.327 111.473C118.391 111.544 118.434 111.594 118.491 111.658C118.556 111.73 118.624 111.799 118.696 111.864L118.881 112.021C118.959 112.085 119.037 112.149 119.122 112.206L119.335 112.341L119.605 112.505L119.839 112.619L120.137 112.754L120.392 112.854C120.499 112.889 120.598 112.932 120.711 112.961L120.931 113.025C121.346 113.159 121.771 113.261 122.201 113.331C122.814 113.425 123.435 113.448 124.053 113.402C124.577 113.363 125.099 113.292 125.614 113.188C126.061 113.096 126.43 113.003 126.693 112.932L127.097 112.804L127.487 112.654C127.729 112.548 128.083 112.398 128.488 112.177C129.512 111.655 130.434 110.954 131.212 110.106C131.298 110.013 131.368 109.914 131.447 109.814C132.873 108.269 133.554 106.426 133 104.831Z" fill="#D2D2D2"/>
</g>
<path d="M111.261 51.8399L98.6667 40.8701L95.9492 57.5348L114.603 108.71C114.603 108.824 114.667 108.938 114.702 109.052C115.695 111.771 119.931 112.704 124.16 111.131C128.389 109.557 130.986 106.148 130.042 103.407L111.261 51.8399Z" fill="#DC3258"/>
<g style="mix-blend-mode:multiply">
<path d="M104.343 45.8463L98.6168 40.8633L97.9072 45.1344C100.062 44.5123 102.375 44.7681 104.343 45.8463Z" fill="#F7DB00"/>
</g>
<g style="mix-blend-mode:multiply" opacity="0.5">
<path d="M108.601 49.541C109.333 50.5549 109.921 51.6667 110.346 52.844L121.102 82.3435C123.231 88.2377 121.046 94.6516 116.249 96.4312C114.203 97.1469 111.958 97.0268 109.998 96.0966L114.596 108.711C114.596 108.825 114.66 108.939 114.695 109.052C115.689 111.772 119.925 112.704 124.153 111.131C128.382 109.558 130.979 106.148 130.035 103.407L111.261 51.8403L108.601 49.541Z" fill="#DC3258"/>
</g>
<g style="mix-blend-mode:multiply" opacity="0.5">
<path d="M108.437 57.1152L98.5957 40.8848L101.505 59.6707L118.803 107.13C118.839 107.244 118.874 107.358 118.917 107.472C119.91 110.191 122.273 111.822 124.203 111.103C126.132 110.384 126.87 107.636 125.905 104.924L108.437 57.1152Z" fill="#DC3258"/>
</g>
<g style="mix-blend-mode:multiply" opacity="0.5">
<path d="M120.314 100.575C116.256 102.077 112.197 101.286 110.998 98.8162L113.389 105.38C113.416 105.495 113.449 105.609 113.488 105.721C114.482 108.441 118.718 109.373 122.946 107.807C127.175 106.241 129.772 102.788 128.828 100.076L126.196 92.8438C127.133 95.5559 124.522 99.0084 120.314 100.575Z" fill="#DC3258"/>
</g>
<path d="M120.662 101.429C116.603 102.938 112.545 102.141 111.346 99.6707L113.737 106.234C113.763 106.35 113.797 106.464 113.836 106.576C114.829 109.302 119.065 110.235 123.294 108.662C127.523 107.088 130.12 103.679 129.176 100.931L126.537 93.6982C127.445 96.4175 124.834 99.8629 120.662 101.429Z" fill="white"/>
<g style="mix-blend-mode:multiply" opacity="0.5">
<path d="M102.988 53.0433C100.958 53.8578 98.725 54.0146 96.602 53.4918L95.9492 57.5351L96.0627 57.8483L96.3111 58.5175C97.5102 60.9805 101.569 61.7778 105.627 60.2687C109.828 58.7097 112.446 55.2856 111.502 52.545L111.254 51.8331L108.167 49.1494C106.886 50.9554 105.075 52.3163 102.988 53.0433Z" fill="#DC3258"/>
</g>
<path d="M95.9639 57.428C97.3403 59.6632 101.229 60.3395 105.124 58.8944C109.019 57.4493 111.566 54.3599 111.148 51.7758L98.6672 40.8701L95.9639 57.428Z" fill="white"/>
<path opacity="0.2" d="M101.462 59.6708C102.714 59.6107 103.949 59.3561 105.123 58.9163C106.306 58.478 107.415 57.8585 108.408 57.0797L98.624 40.9561V41.0201L101.462 59.6708Z" fill="#D2D2D2"/>
<path opacity="0.2" d="M98.6671 40.8701L98.4897 41.9806L107.813 50.0887C108.232 52.6941 105.684 55.7836 101.789 57.2073C100.055 57.8779 98.1828 58.1054 96.3398 57.8693C97.9363 59.7273 101.548 60.2113 105.159 58.873C109.062 57.4493 111.602 54.3385 111.183 51.7545L98.6671 40.8701Z" fill="#D2D2D2"/>
<path d="M97.4033 48.487C98.6789 48.8748 100.043 48.8524 101.306 48.4229C102.57 47.9112 103.64 47.0118 104.364 45.8531L98.6308 40.8701L97.4033 48.487Z" fill="#F7DB00"/>
<path d="M111.197 51.8408C111.262 52.4381 111.199 53.0425 111.012 53.6134C110.869 54.1804 110.656 54.7278 110.381 55.2435C110.089 55.8119 109.729 56.3426 109.31 56.8238C108.526 57.6655 107.605 58.3662 106.585 58.8953C106.259 59.072 105.922 59.2289 105.578 59.3652L105.187 59.5218L104.783 59.6428C104.527 59.714 104.158 59.8136 103.704 59.9062C103.191 60.007 102.672 60.0783 102.151 60.1197C101.533 60.1664 100.911 60.1425 100.299 60.0486C99.6638 59.9532 99.0423 59.7836 98.4468 59.5431C97.9003 59.3221 97.3888 59.0223 96.9284 58.6533C96.5849 58.37 96.2859 58.0365 96.0415 57.6638C95.8854 57.3791 95.8144 57.2082 95.8357 57.1869C95.857 57.1655 95.9776 57.3079 96.1763 57.5428C96.4465 57.8375 96.7514 58.0981 97.0845 58.3187C98.0507 58.9086 99.1478 59.2486 100.277 59.3082C100.847 59.3566 101.421 59.3398 101.987 59.2584C102.482 59.1878 102.973 59.088 103.456 58.9594C103.875 58.8455 104.222 58.7387 104.464 58.6533L104.84 58.5181L105.216 58.3899C105.45 58.3045 105.797 58.1835 106.188 57.9984C107.17 57.5693 108.073 56.9746 108.856 56.2401C109.287 55.837 109.668 55.3828 109.991 54.8876C110.276 54.4391 110.514 53.962 110.7 53.4639C111.041 52.5527 111.119 51.8408 111.197 51.8408Z" fill="#A3143A"/>
<g style="mix-blend-mode:multiply">
<path d="M98.752 40.9131V40.9772L99.9298 48.7293C100.446 48.6941 100.955 48.5863 101.441 48.409C101.951 48.2242 102.429 47.9626 102.86 47.633L98.752 40.9131Z" fill="#F7DB00"/>
</g>
<g style="mix-blend-mode:multiply" opacity="0.5">
<path d="M88.4423 19.8633L96.8928 9.84027C96.9713 9.76201 97.0448 9.67878 97.1127 9.59111L97.1908 9.49858L97.3469 9.29213C97.3469 9.25654 97.3966 9.22096 97.4178 9.17824C97.4739 9.10026 97.526 9.01947 97.5739 8.9362L97.6378 8.82943C97.6955 8.72795 97.7476 8.62339 97.7939 8.51621C97.8099 8.49483 97.8219 8.47071 97.8294 8.44502C98.1183 7.82746 98.2731 7.15532 98.2835 6.47318C98.2765 5.8251 98.1411 5.18486 97.8853 4.58972C97.6296 3.99457 97.2584 3.45638 96.7935 3.00641C93.3026 -0.702375 90.5851 1.66811 89.6982 2.44404C87.607 4.35336 85.6731 6.42928 83.9155 8.65146C83.4544 9.20671 83.0003 9.7762 82.5391 10.3386C81.6522 11.4419 80.7369 12.5881 79.7719 13.6274C79.3332 14.0247 78.9883 14.5153 78.7624 15.0633C78.5366 15.6113 78.4354 16.2029 78.4664 16.7951C78.4664 16.9233 78.4664 17.0443 78.5161 17.1795C78.6279 17.7931 78.8777 18.373 79.2465 18.875C79.6154 19.3771 80.0936 19.7881 80.6446 20.0768L80.822 20.1765L81.3187 20.3971H81.4109C81.5576 20.4541 81.7066 20.5039 81.8579 20.5466H81.9573C82.1063 20.5822 82.2482 20.6178 82.3901 20.6392H82.4468C82.5697 20.6462 82.6929 20.6462 82.8158 20.6392H83.2912H83.3976C83.5166 20.6324 83.6351 20.6182 83.7524 20.5965H83.8304L84.1284 20.5182H84.2207C84.3293 20.4866 84.4359 20.4486 84.5399 20.4043L84.6322 20.3616C84.7395 20.319 84.8438 20.269 84.9444 20.2121H84.994C85.0949 20.162 85.1921 20.1049 85.2849 20.0412H85.3346L85.6397 19.8205H85.6823C86.4903 19.1334 87.2058 18.3437 87.8109 17.4714C88.0379 17.1724 88.2579 16.8806 88.4778 16.6243C89.2583 15.6989 90.0388 14.745 90.8192 13.7769C91.5997 12.8087 92.3518 11.9118 93.1252 10.9935L93.5935 10.4525C94.1894 9.7998 94.7439 9.11032 95.2538 8.38808C95.3136 8.29149 95.3681 8.19167 95.417 8.08909C95.4201 8.07502 95.4201 8.06045 95.417 8.04638C95.5363 7.76873 95.5978 7.46957 95.5978 7.16723C95.5978 6.86489 95.5363 6.56573 95.417 6.28809C95.1768 5.77824 94.8194 5.33293 94.374 4.98887C93.9287 4.6448 93.4083 4.41183 92.8556 4.30913C91.2733 3.98879 90.1239 5.36267 89.3647 6.26673C89.2749 6.38063 89.1826 6.48741 89.088 6.58707L81.9927 14.6738C81.8763 14.8163 81.8126 14.9949 81.8126 15.1792C81.8126 15.3635 81.8763 15.5421 81.9927 15.6846L82.0921 15.7985C82.2511 15.9373 82.4585 16.007 82.6688 15.9923C82.879 15.9776 83.0748 15.8797 83.2131 15.7202L90.3084 7.6335L90.6064 7.29181C91.1527 6.62978 91.9119 5.73284 92.5718 5.86809C92.6494 5.88186 92.7254 5.90332 92.7988 5.93216C92.8424 5.94318 92.8851 5.95746 92.9265 5.97488H93.0117C93.4091 6.1413 93.7391 6.43721 93.9483 6.81487C93.9627 6.83464 93.9746 6.85616 93.9837 6.87893C94.038 6.97176 94.0666 7.07743 94.0666 7.18504C94.0666 7.29265 94.038 7.3983 93.9837 7.49113C93.5134 8.1523 93.004 8.78462 92.4583 9.38468C92.2809 9.584 92.1106 9.7762 91.9758 9.93993C91.1953 10.8582 90.429 11.7979 89.6556 12.7375C88.8822 13.6772 88.1088 14.624 87.3284 15.585C87.0942 15.8626 86.8601 16.1687 86.6188 16.489C85.0153 18.6246 83.7807 19.8846 81.567 18.767C81.1919 18.6024 80.8612 18.3506 80.6021 18.0325C80.343 17.7144 80.163 17.3391 80.077 16.9375C80.0049 16.5901 80.022 16.23 80.1267 15.8911C80.1955 15.6823 80.296 15.4854 80.4247 15.3073C80.4862 15.2172 80.5571 15.1246 80.6375 15.0297L80.9143 14.7165C81.9076 13.6416 82.8442 12.4741 83.7524 11.3494C84.1994 10.787 84.6535 10.2318 85.1076 9.68366C86.8159 7.52987 88.6901 5.51387 90.7128 3.65421C91.9545 2.57218 93.3593 1.71084 95.6227 4.10981C95.7416 4.22894 95.8508 4.35748 95.9491 4.4942L96.0272 4.60099C96.1076 4.7054 96.1785 4.81217 96.24 4.92132C96.24 4.92132 96.24 4.96403 96.2755 4.98538C96.3385 5.09495 96.393 5.20918 96.4387 5.32708L96.5026 5.49081C96.5224 5.54433 96.5389 5.59901 96.5522 5.65453C96.6192 5.88647 96.6596 6.12529 96.6728 6.36639C96.6695 7.27246 96.3219 8.14314 95.7008 8.80095L87.1865 18.8738C87.0842 18.9929 87.0201 19.14 87.0024 19.2962C86.9847 19.4524 87.0142 19.6103 87.0871 19.7494C87.0858 19.7659 87.0858 19.7826 87.0871 19.7992L87.1439 19.8775C87.1736 19.9205 87.2095 19.9589 87.2503 19.9914C87.3336 20.0689 87.4325 20.1276 87.5403 20.1635C87.6482 20.1994 87.7624 20.2117 87.8754 20.1996C87.9884 20.1875 88.0974 20.1511 88.1952 20.0931C88.293 20.0351 88.3773 19.9567 88.4423 19.8633Z" fill="#242424"/>
</g>
<path d="M80.5879 19.1518L80.7724 19.2444C84.32 21.0382 86.406 18.3118 87.7825 16.5179C88.0096 16.2118 88.2366 15.9271 88.4495 15.6708C89.237 14.7383 90.0104 13.7915 90.7909 12.8234C91.5714 11.8553 92.3235 10.9583 93.0969 10.04L93.5651 9.499C94.1633 8.84397 94.7202 8.15211 95.2325 7.42749C95.4321 7.12006 95.5511 6.76703 95.5784 6.40116C95.6057 6.03529 95.5404 5.66843 95.3886 5.33462C95.1494 4.82344 94.7923 4.37672 94.3469 4.03137C93.9015 3.68603 93.3806 3.45197 92.8272 3.34854C91.245 3.03532 90.0956 4.40208 89.3364 5.31326L89.0667 5.6336L81.9715 13.7203C81.9019 13.7978 81.8484 13.8885 81.8143 13.9871C81.7801 14.0856 81.7659 14.19 81.7725 14.2941C81.7791 14.3982 81.8064 14.5 81.8528 14.5934C81.8991 14.6868 81.9636 14.7699 82.0424 14.8379C82.1201 14.9069 82.2106 14.9597 82.3087 14.9934C82.4069 15.0272 82.5106 15.0411 82.6141 15.0345C82.7176 15.0279 82.8188 15.0009 82.9119 14.9549C83.0049 14.9089 83.088 14.845 83.1564 14.7668L90.2517 6.68003L90.5497 6.33123C91.1031 5.67632 91.8552 4.77226 92.515 4.90751C92.8158 4.96075 93.1004 5.08285 93.3465 5.26434C93.5926 5.44583 93.7937 5.6818 93.9341 5.95393C93.9922 6.04539 94.0231 6.15159 94.0231 6.26004C94.0231 6.36849 93.9922 6.47468 93.9341 6.56613C93.4675 7.22793 92.9579 7.85811 92.4086 8.45257L91.9261 9.01493C91.1457 9.93323 90.3794 10.8729 89.606 11.8125C88.8326 12.7522 88.0592 13.699 87.2788 14.6173C87.0446 14.8949 86.8105 15.2081 86.5692 15.5285C84.9657 17.6284 83.7311 18.924 81.5245 17.8064C81.1472 17.642 80.8145 17.3896 80.5541 17.0701C80.2937 16.7507 80.1131 16.3734 80.0274 15.9698C79.8713 15.0159 80.1622 14.5034 80.8859 13.7274C81.8792 12.6454 82.8158 11.4851 83.724 10.3603C84.171 9.79798 84.6251 9.23561 85.0792 8.68748C86.7858 6.53435 88.6601 4.52058 90.6845 2.66516C91.9332 1.57601 93.331 0.714651 95.6015 3.12074C95.9214 3.41769 96.178 3.7767 96.3556 4.17603C96.5333 4.57537 96.6283 5.00671 96.6349 5.44396C96.6415 5.8812 96.5597 6.31525 96.3942 6.71982C96.2288 7.12439 95.9832 7.49107 95.6724 7.79766L87.1581 17.8633C87.0907 17.9426 87.0396 18.0345 87.0077 18.1338C86.9758 18.233 86.9638 18.3375 86.9724 18.4414C86.9809 18.5453 87.0099 18.6465 87.0576 18.7391C87.1053 18.8317 87.1708 18.9139 87.2504 18.981C87.3294 19.0486 87.421 19.0999 87.5199 19.1319C87.6188 19.1639 87.723 19.1759 87.8265 19.1673C87.9301 19.1587 88.0309 19.1297 88.1232 19.0818C88.2155 19.0339 88.2975 18.9682 88.3643 18.8884L96.8148 8.86545C97.263 8.4138 97.6167 7.87683 97.8552 7.2861C98.0937 6.69536 98.2122 6.06277 98.2036 5.42548C98.195 4.78819 98.0595 4.15905 97.8052 3.57501C97.5509 2.99097 97.1828 2.46379 96.7225 2.02447C93.2246 -1.68432 90.5142 0.686172 89.6273 1.46922C87.5379 3.37785 85.6042 5.45124 83.8446 7.66952C83.3834 8.22477 82.9294 8.79426 82.4682 9.36375C81.5813 10.4671 80.6659 11.6061 79.701 12.6454C79.2106 13.0852 78.8385 13.6418 78.619 14.2638C78.3996 14.8859 78.3397 15.5534 78.4451 16.2047C78.5524 16.8282 78.8016 17.4184 79.1732 17.9295C79.5448 18.4407 80.0289 18.8589 80.5879 19.1518Z" fill="#F7DB00"/>
<g style="mix-blend-mode:multiply" opacity="0.5">
<path d="M80.9287 12.944C81.922 11.8691 82.8657 10.7017 83.7668 9.57695C84.2114 9.01221 84.6655 8.45695 85.1291 7.91119C86.8352 5.75769 88.707 3.7417 90.7273 1.88175C91.976 0.799723 93.3738 -0.0616379 95.6443 2.33733C96.0593 2.71416 96.3674 3.19471 96.5369 3.72996C96.7064 4.26521 96.7314 4.83601 96.6092 5.3841C96.5537 4.53198 96.1815 3.73178 95.5662 3.14173C93.2957 0.735648 91.898 1.59701 90.6492 2.68615C88.6249 4.54158 86.7505 6.55535 85.0439 8.70848C84.5898 9.25661 84.1358 9.81897 83.6888 10.3813C82.7806 11.5061 81.844 12.6664 80.8506 13.7484C80.4984 14.0841 80.2225 14.492 80.0418 14.9444C80.0231 14.5645 80.0936 14.1856 80.2477 13.8382C80.4018 13.4907 80.635 13.1845 80.9287 12.944ZM93.8988 5.91087L93.9911 5.78274C94.0453 5.68991 94.0739 5.58424 94.0739 5.47663C94.0739 5.36902 94.0453 5.26336 93.9911 5.17054C93.8489 4.89972 93.6473 4.66482 93.4015 4.48355C93.1557 4.30228 92.8721 4.17937 92.572 4.1241C91.9122 3.98885 91.153 4.89291 90.6066 5.54782C90.5002 5.67596 90.408 5.78986 90.3086 5.89664L83.2134 13.9834C83.1455 14.0621 83.0628 14.1266 82.97 14.1732C82.8772 14.2198 82.7761 14.2476 82.6726 14.2548C82.5691 14.2621 82.4652 14.2488 82.3668 14.2156C82.2684 14.1825 82.1776 14.1302 82.0994 14.0617C82.0192 13.9899 81.9541 13.9027 81.9078 13.8054C81.7917 13.9633 81.739 14.1592 81.76 14.3544C81.781 14.5495 81.8743 14.7296 82.0214 14.8589C82.0991 14.9279 82.1896 14.9807 82.2877 15.0144C82.3858 15.0482 82.4896 15.0621 82.5931 15.0555C82.6966 15.0489 82.7978 15.0218 82.8908 14.9759C82.9839 14.9299 83.0669 14.866 83.1353 14.7878L90.2306 6.70103L90.5286 6.35223C91.082 5.69732 91.8341 4.79325 92.494 4.92851C92.7846 4.9792 93.0605 5.0935 93.3021 5.26329C93.5436 5.43308 93.745 5.65417 93.8917 5.91087H93.8988ZM87.1229 17.9342C87.0034 18.094 86.9494 18.2936 86.9718 18.4921C86.9942 18.6906 87.0914 18.873 87.2435 19.002C87.3225 19.0696 87.4141 19.1209 87.513 19.1529C87.6119 19.1849 87.7161 19.1969 87.8197 19.1883C87.9232 19.1797 88.024 19.1507 88.1163 19.1028C88.2086 19.0549 88.2906 18.9892 88.3574 18.9094L96.8079 8.88644C97.6819 7.98027 98.1879 6.77973 98.227 5.51934C98.0427 6.48193 97.5871 7.37131 96.9143 8.08204L88.4639 18.1121C88.397 18.1919 88.315 18.2576 88.2228 18.3055C88.1305 18.3534 88.0296 18.3824 87.9261 18.391C87.8225 18.3996 87.7183 18.3876 87.6194 18.3556C87.5205 18.3236 87.4289 18.2723 87.3499 18.2047C87.2501 18.136 87.1695 18.0429 87.1158 17.9342H87.1229ZM78.4453 14.8233C78.3555 15.2936 78.3555 15.7768 78.4453 16.2471C78.5571 16.8615 78.8069 17.4424 79.1757 17.9456C79.5445 18.4488 80.0227 18.8612 80.5739 19.1515L80.7584 19.244C83.7455 20.746 85.7251 19.0732 87.0519 17.4288C87.0725 17.3029 87.1264 17.1849 87.208 17.0871L90.4222 13.2715L90.7769 12.8444C91.5432 11.9118 92.3095 10.9793 93.0829 10.061L93.5512 9.52C94.1494 8.86496 94.7063 8.17311 95.2186 7.44849C95.4717 7.05081 95.5865 6.58021 95.5449 6.11019C95.4857 6.30048 95.4022 6.48232 95.2966 6.65121C94.7825 7.37447 94.2257 8.0662 93.6292 8.72271L93.1609 9.2566C92.3875 10.1749 91.6213 11.1074 90.855 12.04C90.0887 12.9725 89.3011 13.9406 88.5135 14.8874C88.3007 15.1437 88.0807 15.4355 87.8466 15.7345C86.4701 17.5355 84.3983 20.2548 80.8364 18.4681L80.652 18.3684C80.0959 18.0817 79.6121 17.6719 79.2372 17.17C78.8623 16.668 78.606 16.0871 78.4879 15.4711C78.456 15.2568 78.4417 15.0401 78.4453 14.8233Z" fill="#F7DB00"/>
</g>
<g style="mix-blend-mode:screen">
<g style="mix-blend-mode:screen">
<path d="M97.7517 6.08936C97.6523 6.53784 97.3543 6.84393 97.0847 6.80122C96.8151 6.75851 96.659 6.33852 96.7512 5.89717C96.8435 5.45582 97.1415 5.1426 97.4182 5.18531C97.6949 5.22802 97.8439 5.64801 97.7517 6.08936ZM97.3402 4.01786C97.1699 4.05345 97.0918 4.29547 97.1557 4.55886C97.2195 4.82225 97.404 5.00022 97.5672 4.95751C97.7304 4.9148 97.8085 4.67277 97.7446 4.4165C97.6807 4.16023 97.4963 3.97515 97.3402 4.01786Z" fill="#F7DB00"/>
</g>
</g>
<g style="mix-blend-mode:screen">
<g style="mix-blend-mode:screen">
<path d="M78.9209 14.0475C78.9989 13.599 79.2827 13.2787 79.5595 13.3357C79.8362 13.3926 79.9993 13.7841 79.9213 14.2326C79.8433 14.6811 79.5594 15.0014 79.2827 14.9445C79.006 14.8875 78.8428 14.4889 78.9209 14.0475ZM79.4104 16.1048C79.5736 16.0621 79.6446 15.8129 79.5665 15.5567C79.4885 15.3004 79.3111 15.1224 79.1479 15.1723C78.9847 15.2221 78.9138 15.457 78.9918 15.7204C79.0699 15.9838 79.2472 16.1475 79.4104 16.1048Z" fill="#F7DB00"/>
</g>
</g>
<path d="M131.305 19.5791C131.696 20.5722 132.154 21.5377 132.674 22.4693C133.492 22.9836 134.343 23.4425 135.222 23.8431C134.344 24.2437 133.494 24.7003 132.674 25.2099C132.154 26.1414 131.696 27.107 131.305 28.1001C130.916 27.107 130.461 26.1414 129.943 25.2099C129.124 24.7003 128.273 24.2437 127.396 23.8431C128.274 23.4425 129.125 22.9836 129.943 22.4693C130.461 21.5378 130.916 20.5722 131.305 19.5791Z" fill="white"/>
<path d="M131.362 19.5723C131.483 19.7929 131.596 20.0207 131.717 20.2841L132.064 20.9604L132.419 21.6295C132.476 21.7434 132.533 21.8573 132.597 21.9641C132.66 22.0709 132.724 22.1919 132.781 22.2631L132.824 22.32L132.98 22.4339L133.285 22.6048C133.505 22.7187 133.725 22.8397 133.952 22.9465L134.626 23.2882L135.3 23.637C135.325 23.6491 135.348 23.6661 135.366 23.6872C135.384 23.7083 135.398 23.7328 135.407 23.7595C135.416 23.7861 135.419 23.8142 135.416 23.8421C135.414 23.87 135.405 23.8971 135.392 23.9217C135.383 23.9455 135.369 23.9668 135.351 23.9841C135.332 24.0014 135.31 24.0142 135.286 24.0214C134.824 24.2207 134.356 24.42 133.867 24.6336L133.157 24.9539L132.831 25.139L132.682 25.2387L132.625 25.317C132.552 25.4179 132.488 25.5251 132.433 25.6373C132.373 25.746 132.319 25.8577 132.27 25.9719C132.157 26.1997 132.057 26.4275 131.958 26.6837C131.759 27.1536 131.582 27.6305 131.405 28.1075C131.392 28.1419 131.366 28.1701 131.333 28.186C131.3 28.202 131.262 28.2044 131.227 28.1929C131.194 28.179 131.166 28.1538 131.149 28.1217L130.489 26.7478C130.376 26.52 130.269 26.2922 130.149 26.036L129.978 25.7085C129.95 25.6386 129.919 25.5698 129.886 25.5021L129.844 25.4451L129.687 25.3383L129.389 25.1675L128.73 24.8258L127.367 24.1566C127.302 24.1217 127.253 24.0633 127.229 23.9933C127.206 23.9232 127.209 23.8468 127.24 23.7794C127.269 23.723 127.317 23.678 127.374 23.6512C127.836 23.4448 128.29 23.217 128.744 23.0034L129.411 22.6617L129.73 22.4838L129.858 22.3983V22.3628L129.915 22.2844C129.982 22.1887 130.044 22.0888 130.099 21.9855C130.163 21.8858 130.22 21.7719 130.283 21.6651L130.638 20.996L131.348 19.6363H131.383L131.362 19.5723ZM131.362 19.6648C131.298 19.8855 131.22 20.099 131.149 20.3197C131.078 20.5404 130.979 20.8038 130.887 21.0316C130.794 21.2594 130.702 21.5085 130.596 21.7434C130.546 21.8645 130.503 21.9783 130.44 22.1065C130.383 22.2312 130.319 22.3524 130.248 22.4695L130.198 22.5478C130.163 22.5906 130.198 22.5478 130.198 22.5478L130.021 22.6902L129.687 22.9109L129.021 23.2882C128.566 23.5444 128.112 23.7651 127.658 24V23.4946C128.119 23.7153 128.574 23.936 129.028 24.2065L129.702 24.5838L130.056 24.8116L130.205 24.9255V24.9753L130.276 25.0749C130.353 25.1914 130.421 25.3127 130.482 25.438C130.539 25.559 130.596 25.6729 130.645 25.7939C130.752 26.0288 130.851 26.2637 130.95 26.5058C131.142 26.9756 131.319 27.4597 131.49 27.9295H131.227L131.88 26.5485C131.993 26.3207 132.093 26.0858 132.206 25.8366C132.263 25.7227 132.313 25.6088 132.384 25.4878C132.436 25.3679 132.5 25.2535 132.575 25.1461L132.625 25.0678V25.0251C132.625 25.0251 132.625 25.0251 132.668 24.9895L132.831 24.8614L133.157 24.6478L133.81 24.2492C134.257 23.9929 134.697 23.7438 135.151 23.5373V23.9288C134.683 23.7295 134.221 23.5089 133.774 23.2668L133.1 22.8895L132.746 22.6689L132.604 22.5478L132.568 22.498L132.504 22.4055C132.43 22.2905 132.366 22.169 132.313 22.0424C132.249 21.9214 132.199 21.8075 132.15 21.6865C132.043 21.4516 131.951 21.2167 131.859 20.9746C131.766 20.7326 131.681 20.4977 131.603 20.2628C131.525 20.0279 131.405 19.8855 131.305 19.6648H131.362Z" fill="#D2D2D2"/>
<path d="M91.011 52.958C91.3994 53.9524 91.857 54.9182 92.3804 55.8482C93.1997 56.3597 94.0505 56.8186 94.9276 57.222C94.0504 57.6226 93.1996 58.0792 92.3804 58.5888C91.857 59.5188 91.3994 60.4846 91.011 61.479C90.6227 60.4846 90.1651 59.5188 89.6417 58.5888C88.8257 58.078 87.9771 57.6214 87.1016 57.222C87.9785 56.8227 88.8272 56.3637 89.6417 55.8482C90.1651 54.9182 90.6227 53.9524 91.011 52.958Z" fill="white"/>
<path d="M91.0324 52.9508C91.1601 53.1715 91.2736 53.3993 91.3872 53.6271L91.7419 54.3389L92.0896 55.0081C92.1535 55.122 92.2102 55.2359 92.2741 55.3427C92.3291 55.4462 92.3908 55.546 92.4586 55.6416L92.5011 55.6986L92.6572 55.8125L92.9623 55.9833C93.1752 56.0972 93.4022 56.2182 93.6293 56.325L94.3388 56.6667L95.0129 57.0155C95.0387 57.0269 95.0619 57.0435 95.081 57.0643C95.1002 57.0851 95.1148 57.1096 95.1241 57.1363C95.1335 57.163 95.1372 57.1913 95.1351 57.2195C95.1331 57.2477 95.1253 57.2752 95.1122 57.3003C95.1021 57.3233 95.0875 57.3439 95.0692 57.3611C95.0509 57.3782 95.0293 57.3914 95.0058 57.3999C94.5446 57.5993 94.0763 57.7986 93.5867 58.0121C93.3526 58.1118 93.1255 58.2257 92.8772 58.3325L92.5508 58.5176L92.4089 58.6172V58.6599L92.3521 58.7382C92.2838 58.8409 92.2222 58.9479 92.1677 59.0586C92.1052 59.1671 92.0484 59.2788 91.9974 59.3931C91.8909 59.6209 91.7845 59.8487 91.6852 60.105C91.4865 60.5748 91.3162 61.0518 91.1389 61.5287C91.1246 61.5637 91.0976 61.592 91.0634 61.6079C91.0291 61.6237 90.9902 61.626 90.9544 61.6141C90.9209 61.6002 90.8933 61.5751 90.8763 61.543L90.2236 60.1691L89.883 59.4928C89.8262 59.386 89.7695 59.265 89.7056 59.1653C89.6544 59.0612 89.5951 58.9612 89.5282 58.8664L89.4927 58.8094L89.3367 58.7026L89.0386 58.5318C88.8187 58.4179 88.5987 58.2969 88.3717 58.1901L87.0165 57.5209C86.983 57.505 86.9531 57.4825 86.9285 57.4548C86.9038 57.427 86.885 57.3946 86.8731 57.3594C86.8612 57.3242 86.8564 57.287 86.8591 57.2499C86.8618 57.2129 86.8719 57.1767 86.8888 57.1437C86.9167 57.0859 86.9646 57.0403 87.0236 57.0155C87.4777 56.8091 87.9318 56.5813 88.3859 56.3677L89.0599 56.026L89.3792 55.8481L89.5069 55.7627V55.7271L89.5637 55.6488C89.6334 55.553 89.6974 55.4532 89.7553 55.3498L89.9327 55.0294C90.0604 54.8088 90.1739 54.581 90.2874 54.3532L90.9969 53.0006H91.0324C91.0324 53.0006 91.0324 52.9437 91.0324 52.9508ZM91.0324 53.0434C90.9615 53.264 90.8905 53.4776 90.8125 53.6983C90.7344 53.9189 90.6493 54.1823 90.5499 54.4101C90.4506 54.6379 90.3655 54.8871 90.2661 55.122C90.2165 55.243 90.1668 55.3569 90.1029 55.485C90.0491 55.6111 89.9851 55.7326 89.9114 55.8481L89.8617 55.9264V55.962C89.8617 56.0047 89.8617 55.962 89.8617 55.962L89.6914 56.1044L89.3579 56.325L88.6484 56.7023C88.2014 56.9515 87.7473 57.1793 87.2861 57.4142V56.9087C87.7473 57.1294 88.2085 57.3501 88.6555 57.6206C88.8897 57.7416 89.1096 57.8698 89.365 57.9979L89.7198 58.2257L89.8688 58.3396V58.3894L89.9327 58.4891C90.0141 58.6023 90.0831 58.724 90.1384 58.8521C90.2023 58.9731 90.2519 59.087 90.3087 59.2081C90.4151 59.443 90.5074 59.6779 90.6067 59.9199C90.8054 60.3897 90.9757 60.8738 91.153 61.3436H90.8621L91.5149 59.9626C91.6284 59.7348 91.7349 59.4999 91.8484 59.2508C91.9051 59.1369 91.9548 59.023 92.0187 58.902C92.0767 58.7849 92.1407 58.6709 92.2102 58.5603L92.267 58.482V58.4393C92.267 58.4393 92.3025 58.4393 92.3167 58.4393L92.4727 58.3111L92.7991 58.0976L93.459 57.6989C93.8989 57.4426 94.3459 57.1935 94.7929 56.9871V57.3786C94.3317 57.1721 93.8705 56.9586 93.4164 56.7166L92.7424 56.3393L92.3947 56.1186L92.2457 55.9976L92.2102 55.9477L92.1464 55.8552C92.0696 55.7403 92.0031 55.6188 91.9477 55.4922C91.8909 55.3711 91.8413 55.2572 91.7916 55.1362C91.6852 54.9013 91.5929 54.6664 91.5007 54.4244C91.4085 54.1823 91.3233 53.9474 91.2382 53.7125C91.153 53.4776 91.075 53.264 91.0111 53.0434H91.0324Z" fill="#D2D2D2"/>
</svg>
