<svg width="60" height="60" viewBox="0 0 60 60" fill="none" xmlns="http://www.w3.org/2000/svg">
<circle cx="30" cy="30" r="30" fill="#00CCCC"/>
<path fill-rule="evenodd" clip-rule="evenodd" d="M42.5722 20.123C42.0412 21.268 42.3159 23.1239 42.3619 24.2107C42.4678 26.719 46.6711 26.0548 46.5664 22.1523C46.5445 21.4093 46.3959 20.7418 46.1668 20.123H42.5722Z" fill="#FF8086"/>
<path fill-rule="evenodd" clip-rule="evenodd" d="M43.3701 21.2192L46.1666 20.1229L50.0495 18.6029C50.4759 18.4762 50.5513 18.1376 50.164 17.9135L44.2056 15.0146C44.8512 15.7941 43.6746 20.5639 43.3701 21.2192Z" fill="#FFE07D"/>
<path fill-rule="evenodd" clip-rule="evenodd" d="M38.7957 8.70772C37.4413 9.01469 36.5936 10.3593 36.9005 11.7113L36.9078 11.7454C36.769 11.7527 36.6302 11.7722 36.4913 11.8039C35.1393 12.1108 34.2916 13.4555 34.5961 14.8075C34.8056 15.7283 35.4925 16.4153 36.3378 16.6637C36.998 15.1583 44.128 14.9219 44.206 15.0145C45.0123 14.4469 45.441 13.4286 45.2096 12.4055C44.9026 11.0536 43.558 10.2034 42.206 10.5103C42.0672 10.542 41.9332 10.5833 41.8065 10.6369L41.7992 10.6028C41.4923 9.25093 40.1476 8.40075 38.7957 8.70772Z" fill="#FF8086"/>
<path fill-rule="evenodd" clip-rule="evenodd" d="M16.5938 23.2409C16.4988 25.4601 17.7947 28.0618 19.2904 29.4649C19.2441 30.7998 19.2441 33.2358 21.4048 33.5379C21.3099 37.6937 33.3581 39.1042 34.2936 30.6902C34.9731 26.337 33.3119 24.5879 30.7882 23.8644C26.6397 22.6781 20.1576 24.2737 17.9262 21.6574C17.31 20.9363 16.6912 21.5989 16.5987 23.1555C16.5987 23.1824 16.5962 23.2116 16.5938 23.2409Z" fill="#DDDAEC"/>
<path fill-rule="evenodd" clip-rule="evenodd" d="M10.6187 27.3334C8.52859 29.884 10.0145 33.4235 11.4835 34.6123C11.939 36.1568 12.6357 37.8084 13.7294 39.3066C15.727 46.1007 36.1452 47.1749 40.0573 39.175C42.3422 37.0167 43.419 34.3176 42.866 30.2543C42.5884 28.2007 41.9063 26.6221 42.3618 24.2105C42.5274 23.3408 42.8392 22.3639 43.3702 21.219C43.6747 20.5637 44.0498 19.8524 44.5103 19.0777C44.7539 18.6806 44.9098 18.2908 44.9926 17.9084C45.2289 16.8098 44.8513 15.7939 44.2057 15.0144C44.1278 14.9218 44.0474 14.8317 43.9621 14.7464C43.4992 14.2738 42.9341 13.9108 42.3714 13.7038C39.4628 12.6393 37.424 14.1886 36.3374 16.6636C36.2011 16.9779 36.0768 17.3043 35.972 17.6453C34.4958 20.6685 32.7225 22.6514 30.7883 23.8646C33.3119 24.5881 34.9733 26.3372 34.2937 30.6903C33.3582 39.1044 21.31 37.6939 21.4049 33.538C19.2442 33.236 19.2442 30.7999 19.2905 29.465C17.7949 28.0618 16.4989 25.4602 16.5939 23.241C15.0568 22.5029 13.6244 21.6697 12.3699 20.8732C10.9327 19.9621 10.4723 20.6612 10.3261 21.8135C10.1631 23.1093 9.4323 25.8669 10.6187 27.3334Z" fill="#F9F6F6"/>
<path fill-rule="evenodd" clip-rule="evenodd" d="M13.7292 39.3066C12.4698 40.6879 11.6221 43.0557 11.6221 44.6098C11.6221 46.9119 13.4904 48.7803 15.7949 48.7803C16.3527 48.7803 16.8838 48.6706 17.3685 48.4733C16.9908 47.8473 16.7741 47.1116 16.7741 46.3247C16.7741 45.3236 17.1273 43.9788 17.7168 42.7827C15.9947 41.8621 14.7036 40.644 13.7292 39.3066Z" fill="#FFDFCF"/>
<path fill-rule="evenodd" clip-rule="evenodd" d="M16.7744 46.3247C16.7744 47.1115 16.9912 47.8473 17.3688 48.4733C18.0996 49.6865 19.4271 50.4976 20.9448 50.4976C21.9289 50.4976 22.8327 50.1566 23.5464 49.589C23.0641 48.9094 22.7839 48.0787 22.7839 47.1847C22.7839 46.7364 22.8546 46.2224 22.9837 45.6841C23.2151 44.7219 23.6365 43.6842 24.1894 42.812C23.4245 41.2432 22.2553 39.918 20.9447 39.918C20.2261 39.918 19.5513 40.3175 18.9594 40.9386C18.4819 41.4404 18.0605 42.086 17.7171 42.7827C17.1276 43.9789 16.7744 45.3235 16.7744 46.3247Z" fill="#FFEEE6"/>
<path fill-rule="evenodd" clip-rule="evenodd" d="M22.7842 47.185C22.7842 48.0791 23.0643 48.9097 23.5466 49.5894C24.3017 50.6588 25.5466 51.3555 26.9546 51.3555C28.365 51.3555 29.6098 50.6588 30.3649 49.5894C30.8448 48.9097 31.1273 48.0791 31.1273 47.185C31.1273 46.3641 30.891 45.3166 30.4818 44.3056C30.2699 43.7843 30.0141 43.2751 29.7217 42.8124C28.9861 41.6479 28.0166 40.7783 26.9545 40.7783C25.8949 40.7783 24.9253 41.648 24.1897 42.8124C23.6368 43.6845 23.2153 44.7222 22.9839 45.6845C22.8548 46.2228 22.7842 46.7368 22.7842 47.185Z" fill="#FFDFCF"/>
<path fill-rule="evenodd" clip-rule="evenodd" d="M30.4817 44.3053C30.8909 45.3162 31.1273 46.3637 31.1273 47.1847C31.1273 48.0787 30.8447 48.9094 30.3648 49.589C31.0785 50.1566 31.9824 50.4976 32.964 50.4976C34.4841 50.4976 35.8116 49.6865 36.5425 48.4733C36.9201 47.8473 37.1368 47.1115 37.1368 46.3247C37.1368 45.1286 36.6301 43.4429 35.8214 42.1006C35.5607 41.6695 35.2683 41.2699 34.9493 40.9386C34.3597 40.3175 33.6825 39.918 32.9639 39.918C31.6558 39.918 30.4865 41.2432 29.7217 42.812C30.014 43.2748 30.2698 43.784 30.4817 44.3053Z" fill="#FFEEE6"/>
<path fill-rule="evenodd" clip-rule="evenodd" d="M35.8213 42.1009C36.63 43.4431 37.1367 45.1289 37.1367 46.3249C37.1367 47.1118 36.9199 47.8475 36.5424 48.4736C37.0272 48.6709 37.5582 48.7805 38.116 48.7805C40.4204 48.7805 42.2864 46.9121 42.2864 44.6101C42.2864 43.0048 41.3826 40.5322 40.0575 39.1753C38.9759 40.196 37.624 41.0949 36.0503 41.9621C35.9699 42.0059 35.8944 42.0522 35.8213 42.1009Z" fill="#FFDFCF"/>
<path fill-rule="evenodd" clip-rule="evenodd" d="M41.9645 19.0781C41.5626 19.7577 41.224 20.3886 40.9415 20.9757C40.9024 21.0561 40.8635 21.1389 40.8245 21.2194C40.2935 22.3643 39.9816 23.3412 39.8184 24.2108C39.3605 26.6225 40.0426 28.2011 40.3227 30.2547C40.7953 33.743 40.0694 36.2253 38.408 38.2229C38.1328 38.5542 37.8331 38.8685 37.5116 39.1755C36.8027 39.843 35.9794 40.4593 35.0537 41.0487C35.3314 41.3581 35.5896 41.7162 35.821 42.1011C35.8941 42.0524 35.9696 42.0061 36.05 41.9623C37.6236 41.0951 38.9756 40.1962 40.0572 39.1755C42.3421 37.0172 43.4188 34.318 42.8659 30.2547C42.5882 28.2012 41.9061 26.6226 42.3616 24.2109C42.5273 23.3412 42.839 22.3644 43.3701 21.2194C43.6745 20.5642 44.0496 19.8529 44.5101 19.0781C44.7537 18.6811 44.9096 18.2913 44.9924 17.9089C45.2287 16.8102 44.8511 15.7944 44.2055 15.0148C44.1276 14.9223 44.0472 14.8321 43.9619 14.7469C43.499 14.2743 42.9339 13.9113 42.3712 13.7043C41.2312 13.2878 40.2276 13.2707 39.3604 13.5533C39.5114 13.5971 39.6674 13.6459 39.8256 13.7043C42.0133 14.5057 43.2849 16.9392 41.9645 19.0781Z" fill="#DDDAEC"/>
<path fill-rule="evenodd" clip-rule="evenodd" d="M31.1027 29.448C30.5424 34.4955 25.9848 36.0059 22.4453 35.5114C25.3758 37.8792 33.5314 37.5527 34.2939 30.6904C34.9735 26.3373 33.3122 24.5882 30.7885 23.8647C30.4158 23.7599 30.0235 23.6747 29.6168 23.6064C29.836 23.7843 30.0357 23.9792 30.2184 24.2009C31.1051 25.2801 31.4974 26.9292 31.1027 29.448Z" fill="#D0CEE7"/>
<path fill-rule="evenodd" clip-rule="evenodd" d="M49.1897 17.4385L45.5699 18.8563L45.543 18.866L44.3616 19.3288C43.9694 20.0085 43.6406 20.6346 43.3701 21.2192L46.1666 20.123L50.0495 18.6029C50.4759 18.4763 50.5513 18.1377 50.164 17.9135L49.1897 17.4385Z" fill="#FFD064"/>
<path fill-rule="evenodd" clip-rule="evenodd" d="M43.8213 25.4311C45.1586 25.8721 46.6397 24.9172 46.5666 22.1523C46.5447 21.4093 46.3961 20.7418 46.1671 20.123L44.8663 20.6321C45.0173 21.1339 45.1123 21.6674 45.1269 22.2497C45.1757 24.0036 44.5935 25.0292 43.8213 25.4311Z" fill="#E5646E"/>
<path fill-rule="evenodd" clip-rule="evenodd" d="M43.7577 11.6795C43.9599 12.5638 43.6651 13.4456 43.0586 14.0351C43.3826 14.2275 43.6895 14.4687 43.9623 14.7464C44.0476 14.8317 44.128 14.9218 44.2059 15.0144C45.0122 14.4467 45.441 13.4285 45.2095 12.4054C44.9708 11.353 44.106 10.6076 43.1 10.4712C43.4167 10.7928 43.6505 11.2044 43.7577 11.6795Z" fill="#E5646E"/>
<path fill-rule="evenodd" clip-rule="evenodd" d="M27.7046 42.8002C27.9969 43.263 28.2551 43.7746 28.4647 44.2934C28.6254 44.6905 28.7594 45.09 28.8617 45.4822C29.0225 46.0912 29.1101 46.6734 29.1101 47.1728C29.1101 47.3873 29.0931 47.5992 29.0638 47.8062C28.964 48.4591 28.713 49.0607 28.3476 49.5772C27.7752 50.3884 26.9177 50.9877 25.9238 51.2288C26.2527 51.3117 26.5986 51.3555 26.9542 51.3555C28.3646 51.3555 29.6094 50.6588 30.3646 49.5894C30.8444 48.9097 31.127 48.0791 31.127 47.185C31.127 46.3641 30.8907 45.3166 30.4814 44.3056C30.2695 43.7843 30.0138 43.2751 29.7214 42.8124C28.9858 41.6479 28.0162 40.7783 26.9541 40.7783C26.6106 40.7783 26.2769 40.8685 25.9579 41.0317C26.5985 41.3654 27.1808 41.9866 27.6654 42.7393C27.6778 42.7587 27.6924 42.7783 27.7046 42.8002Z" fill="#FBC7B8"/>
<path fill-rule="evenodd" clip-rule="evenodd" d="M34.4688 48.8413C33.9817 49.5331 32.7076 50.0691 31.8989 50.3614C32.2399 50.4515 32.5956 50.4977 32.9634 50.4977C34.4835 50.4977 35.811 49.6866 36.5418 48.4734C36.9194 47.8473 37.1362 47.1116 37.1362 46.3248C37.1362 45.1287 36.6295 43.443 35.8207 42.1007C35.5893 41.7158 35.3311 41.3577 35.0534 41.0483C35.0193 41.0118 34.9852 40.9753 34.9486 40.9386C34.3591 40.3175 33.6819 39.918 32.9633 39.918C32.498 39.918 32.0523 40.0861 31.6357 40.371C34.8611 41.8694 36.1497 46.4637 34.4688 48.8413Z" fill="#FFDFCF"/>
<path fill-rule="evenodd" clip-rule="evenodd" d="M20.9452 39.918C20.3289 39.918 19.7443 40.2127 19.2181 40.6878C19.3375 40.6635 18.8698 40.6537 19.5859 40.6537C20.2315 40.6537 21.5736 41.1945 22.1242 42.6293C22.2338 42.9168 22.1168 43.1384 21.9171 43.5477C20.8429 45.7182 20.7698 48.3077 22.1778 50.3125C22.6821 50.1567 23.1448 49.9106 23.5468 49.589C23.0645 48.9094 22.7843 48.0787 22.7843 47.1847C22.7843 46.7364 22.855 46.2224 22.984 45.6841C23.2155 44.7219 23.6369 43.6842 24.1898 42.812C23.425 41.2431 22.2557 39.918 20.9452 39.918Z" fill="#FFDFCF"/>
<path fill-rule="evenodd" clip-rule="evenodd" d="M16.7743 46.3249C16.7743 45.3944 17.0788 44.169 17.5953 43.0411C17.6343 42.9535 17.6756 42.8681 17.717 42.7829C17.2372 42.5247 16.7889 42.247 16.3748 41.9473C15.2981 41.1751 14.4309 40.2714 13.7293 39.3066C13.3444 39.7281 12.9985 40.2421 12.7037 40.7951C12.638 40.9218 14.6695 43.046 14.8084 43.1531C15.6634 43.7987 15.4247 43.3163 15.2688 44.359C15.0788 45.6233 14.9034 47.3383 15.795 48.7804C16.175 48.7804 16.8839 48.6707 17.3686 48.4734C16.991 47.8475 16.7743 47.1117 16.7743 46.3249Z" fill="#FBC7B8"/>
<path fill-rule="evenodd" clip-rule="evenodd" d="M41.2194 40.822C40.8905 40.1984 40.4959 39.6259 40.0574 39.1753C38.9758 40.196 37.6239 41.0949 36.0502 41.9621C35.9699 42.0059 35.8943 42.0522 35.8213 42.101C35.9602 42.33 36.0892 42.5687 36.2086 42.8123C36.3402 43.0826 36.4595 43.3628 36.5667 43.6429C37.2926 43.6039 38.8029 42.6369 39.485 42.1691C39.5897 42.0985 39.6385 41.9474 39.7553 42.2421C40.1427 43.2287 40.3692 44.2422 40.3692 45.0411C40.3692 46.6806 39.424 48.0984 38.0502 48.7804H38.1159C40.4203 48.7804 42.2863 46.912 42.2863 44.61C42.2863 43.5382 41.8844 42.0789 41.2194 40.822Z" fill="#FBC7B8"/>
<path d="M41.9072 16.9854C41.9072 16.6294 41.6187 16.3408 41.2627 16.3408C40.9067 16.3408 40.6182 16.6294 40.6182 16.9854V17.4166C40.6182 17.7725 40.9067 18.0611 41.2627 18.0611C41.6187 18.0611 41.9072 17.7725 41.9072 17.4166V16.9854Z" fill="black"/>
</svg>
