<svg width="49" height="48" viewBox="0 0 49 48" fill="none" xmlns="http://www.w3.org/2000/svg">
<circle cx="24.5" cy="24" r="24" fill="#225383"/>
<g clip-path="url(#clip0_9628_8352)">
<path d="M36.3002 39.1579C36.3002 40.1136 31.0181 40.8886 24.5005 40.8886C17.983 40.8886 12.7012 40.1136 12.7012 39.1579C12.7012 38.2021 17.9833 37.4268 24.5005 37.4268C31.0177 37.4268 36.3002 38.2018 36.3002 39.1579Z" fill="white" fill-opacity="0.5"/>
<path d="M24.4583 7.11183C19.4792 7.23285 12.4916 14.6804 12.0733 24.7449C11.655 34.8095 18.7655 39.318 24.2074 39.318C29.9815 39.318 37.3468 35.9364 36.9275 24.906C36.5082 13.8755 29.3106 6.99431 24.4583 7.11183Z" fill="#F7EEED"/>
<path d="M36.9268 24.9071C36.5712 15.5389 31.327 9.16523 26.7814 7.52783C27.8071 8.27999 32.7113 12.2688 34.2068 20.7598C35.7819 29.6996 32.366 37.7487 21.0674 38.7147C20.9535 38.7245 20.8446 38.7344 20.7373 38.7442C21.9106 39.1301 23.0925 39.3185 24.2037 39.3185C29.9807 39.3185 37.3451 35.937 36.9268 24.9071Z" fill="#F0E4D6"/>
<path d="M22.3252 9.32637C20.3134 9.11134 15.7139 16.4922 16.5508 20.6792C17.3877 24.8663 21.1536 23.0142 22.2414 19.2299C23.3292 15.4456 24.5847 9.56809 22.3252 9.32637Z" fill="white"/>
<path d="M16.4815 14.5702C16.5204 14.2649 16.7522 13.9244 17.1064 13.9127C17.2467 13.9082 17.3738 13.9978 17.5168 13.9565C17.7039 13.9025 17.8971 13.6354 18.0186 13.4953C18.1282 13.3682 18.2097 13.2282 18.2959 13.0868C18.4223 12.8803 18.5877 12.7177 18.7501 12.5389C18.9519 12.3165 19.0829 12.0755 19.0803 11.7766C19.077 11.4907 19.0727 11.2274 19.3705 11.0708C19.5269 10.9885 19.7006 10.9415 19.8657 10.8723C20.1737 10.7405 20.2156 10.7093 20.6022 10.75C20.7366 10.7643 20.8597 10.7754 20.9944 10.7474C21.265 10.6895 21.505 10.5399 21.6705 10.3259C21.7521 10.2221 21.7913 10.0804 21.8924 10.0035C22.066 9.87141 22.5365 9.84727 22.7474 9.80343C22.824 9.78723 22.8405 9.70306 22.8283 9.63795L22.753 9.23932L22.6695 9.4102C22.9666 9.38892 23.3915 9.35303 23.6391 9.17515C23.7381 9.10305 23.7613 9.04429 23.8121 8.93725C23.8907 8.77176 23.891 8.65392 24.0594 8.58213C24.1653 8.53703 24.2664 8.54052 24.3799 8.52115C24.479 8.50431 24.4866 8.32104 24.3958 8.2861C24.1624 8.19653 23.9174 8.25434 23.7655 8.45413C23.6724 8.57705 23.651 8.71332 23.5513 8.83751C23.3532 9.08209 22.9699 9.1148 22.6626 9.14339C22.5827 9.15101 22.5672 9.2552 22.579 9.3146L22.6603 9.71069C22.687 9.65542 22.7141 9.60047 22.7408 9.54552L21.7834 9.75134C21.7663 9.75423 21.7504 9.76173 21.7375 9.77298C21.7247 9.78422 21.7154 9.79875 21.7108 9.81487C21.6525 10.0245 21.5158 10.206 21.3269 10.3245C21.138 10.443 20.9102 10.4901 20.6874 10.4568C20.5411 10.4358 20.4021 10.3679 20.2523 10.3838C20.077 10.4025 19.9106 10.526 19.7508 10.5908C19.4906 10.6963 19.181 10.7697 18.9981 10.9939C18.7901 11.248 18.901 11.4913 18.8637 11.781C18.8073 12.2184 18.3563 12.4944 18.1321 12.8581C17.9928 13.0839 17.7521 13.527 17.4768 13.6347C17.3563 13.6821 17.1978 13.6125 17.0704 13.6458C16.9694 13.6784 16.8769 13.7318 16.7994 13.8021C16.564 14.001 16.4521 14.2547 16.426 14.5495C16.422 14.5933 16.4752 14.6276 16.4824 14.5708L16.4815 14.5702Z" fill="#8C8B7E"/>
<path d="M20.8377 9.63703C20.9367 9.4887 21.0311 9.32511 21.1638 9.20155C21.3619 9.0186 21.5098 9.07768 21.7409 9.03003C21.9565 8.98556 22.0248 8.88011 22.1262 8.70382C22.349 8.31567 22.6682 8.27438 23.0961 8.2531C23.5391 8.23118 23.9776 8.22134 24.4011 8.36554C24.546 8.41541 24.5738 8.11493 24.449 8.06855C24.0083 7.90561 23.5556 7.88782 23.0875 7.91545C22.7904 7.93292 22.453 7.96373 22.213 8.15177C22.106 8.23563 22.0582 8.34235 21.9852 8.45194C21.9083 8.56597 21.8406 8.71335 21.7125 8.7899C21.6438 8.83119 21.5224 8.82961 21.4444 8.86296C21.1318 8.997 20.9347 9.28604 20.7898 9.57033C20.7733 9.60209 20.8037 9.68849 20.8377 9.63703Z" fill="#8C8B7E"/>
<path d="M24.4283 7.46354C24.5692 7.90822 24.1533 8.2735 24.3877 8.72009C24.5933 9.11205 25.004 9.50369 25.386 9.73652C25.7548 9.96236 26.1611 10.0481 26.588 9.95886C26.864 9.90105 26.8993 9.83657 27.1238 10.0132C27.3176 10.1656 27.2671 10.1837 27.3513 10.3651C27.4048 10.4804 27.4754 10.5767 27.5913 10.6402C27.7471 10.7259 27.9386 10.7244 28.1122 10.7285C28.4236 10.7364 28.6797 10.7603 28.9528 10.9264C29.2258 11.0925 29.4856 11.2961 29.7477 11.4806C29.9379 11.6144 30.4007 11.8246 30.5176 12.0241C30.7857 12.4806 30.1611 12.8087 30.1928 13.2702C30.2211 13.6831 30.5734 13.9982 30.9078 14.2113C30.9739 14.2523 30.9867 14.1319 30.9498 14.0976C30.6242 13.794 30.1677 13.4363 30.438 12.9341C30.5212 12.7801 30.6731 12.667 30.7484 12.5063C30.8603 12.2684 30.8144 12.0387 30.6365 11.845C30.2697 11.4457 29.6956 11.1389 29.2459 10.8285C28.8673 10.5681 28.5698 10.4687 28.1053 10.4575C27.9822 10.4547 27.8326 10.4664 27.7191 10.4156C27.5147 10.3241 27.5055 10.1405 27.4355 9.96807C27.3902 9.85722 27.3539 9.76574 27.2506 9.69237C26.9254 9.46208 26.412 9.73557 26.037 9.65457C25.5088 9.54022 24.9885 9.08029 24.6914 8.66038C24.4035 8.25381 24.6887 7.82151 24.4933 7.40446C24.4603 7.33585 24.4157 7.41684 24.4299 7.46163L24.4283 7.46354Z" fill="#8C8B7E"/>
<path d="M25.8649 9.89067C25.7158 10.333 25.515 10.7577 25.2663 11.1564C25.1719 11.3073 25.028 11.6329 24.8672 11.7221C24.6483 11.8438 24.4572 11.6135 24.2604 11.5754C24.0293 11.5303 23.9098 11.6602 23.8038 11.8413C23.5529 12.2704 23.3677 12.7383 23.1416 13.1795C23.1221 13.2133 23.114 13.2521 23.1183 13.2905C23.1227 13.329 23.1394 13.3652 23.166 13.3942C23.5681 13.8154 23.9633 14.2435 24.3618 14.6676C24.8141 15.1491 24.2155 15.253 24.092 15.6665C24.0746 15.725 24.0749 15.8412 24.1531 15.866C24.9897 16.1319 23.856 16.6937 23.6487 16.8967C23.4671 17.0755 23.404 17.3046 23.4965 17.5437C23.5625 17.7168 23.7051 17.8661 23.8309 18.0005C24.0194 18.2016 24.2931 18.3346 24.4714 18.5303C24.7101 18.7908 24.542 18.9594 24.4601 19.2269C24.3836 19.4765 24.4037 19.7306 24.4601 19.9809C24.4885 19.9223 24.5172 19.8636 24.546 19.805C24.1498 19.7643 23.86 20.0426 23.7107 20.3735C23.4631 20.923 23.6962 21.5373 23.6579 22.1107C23.6533 22.1825 23.7345 22.2415 23.752 22.1459C23.8652 21.5313 23.4612 20.0019 24.5529 20.0797C24.6351 20.0858 24.652 19.9527 24.6391 19.9038C24.5655 19.6023 24.5919 19.332 24.6969 19.0439C24.7252 18.9661 24.7764 18.8991 24.7896 18.8152C24.7998 18.7621 24.7981 18.7075 24.7847 18.655C24.7712 18.6026 24.7464 18.5534 24.7117 18.5109C24.404 18.1037 23.1181 17.5237 23.9607 16.9707C24.2158 16.8033 24.5272 16.6556 24.6183 16.3466C24.7137 16.0216 24.5212 15.7043 24.1967 15.6011L24.2574 15.8006C24.3776 15.3981 24.9837 15.2949 24.7526 14.7841C24.6404 14.5342 24.3687 14.3242 24.1832 14.1276C23.8755 13.802 23.5609 13.4828 23.2545 13.1559C23.2627 13.2277 23.2707 13.2992 23.2789 13.3707C23.3918 13.155 23.5133 12.945 23.6318 12.7322C23.7372 12.5435 23.826 12.2374 23.9775 12.0833C24.3152 11.7393 24.5176 12.2389 24.8811 12.0947C25.1581 11.9848 25.373 11.4998 25.5004 11.2654C25.7155 10.863 25.8825 10.4385 25.9983 9.99994C26.0237 9.90687 25.9131 9.74933 25.8662 9.89131L25.8649 9.89067Z" fill="#8C8B7E"/>
<path d="M20.4595 16.544C20.4787 16.3124 20.5071 16.0828 20.5497 15.8541C20.5728 15.727 20.5903 15.4621 20.7477 15.4094C20.8065 15.39 20.9227 15.4412 20.9871 15.4412C21.2694 15.4383 21.4542 15.2426 21.512 14.9857C21.5367 14.8515 21.5335 14.7139 21.5024 14.581C21.4384 14.2491 21.5232 14.1103 21.7593 13.8797C21.9465 13.6967 22.1158 13.4861 22.3615 13.3816C22.6417 13.2622 22.9402 13.3416 23.2198 13.4369C23.3354 13.4763 23.334 13.2676 23.2766 13.2187C23.0812 13.0519 22.6949 13.0119 22.4456 13.0624C22.1115 13.1304 21.89 13.4331 21.6622 13.6557C21.5064 13.8079 21.2839 13.9616 21.2472 14.1849C21.2235 14.3317 21.2945 14.4498 21.3182 14.5905C21.4285 15.2464 21.0422 15.1467 20.6213 15.1829C20.6024 15.1872 20.5854 15.1974 20.5731 15.2118C20.5607 15.2263 20.5537 15.2443 20.553 15.263C20.5077 15.6899 20.4094 16.1009 20.3965 16.5335C20.3965 16.578 20.4536 16.597 20.4579 16.5443L20.4595 16.544Z" fill="#8C8B7E"/>
<path d="M18.0534 15.1621C18.0425 14.7438 18.4561 14.7139 18.5611 14.3966C18.575 14.3546 18.5775 14.31 18.5684 14.2669C18.5593 14.2237 18.539 14.1836 18.5093 14.1501C18.398 14.0053 18.298 14.1069 18.3152 13.8395C18.3208 13.7518 18.399 13.632 18.4225 13.5472C18.4934 13.2906 18.5248 13.0352 18.4413 12.7817C18.4159 12.7049 18.3373 12.7458 18.3271 12.8065C18.2964 12.985 18.3072 13.1658 18.2693 13.343C18.2326 13.5142 18.1372 13.6606 18.0986 13.8283C18.0676 13.9671 18.0709 14.0863 18.1709 14.1958C18.2151 14.2444 18.3449 14.2689 18.369 14.313C18.435 14.4366 18.1838 14.6027 18.123 14.6859C18.0118 14.839 17.9636 14.9778 17.9781 15.1624C17.9834 15.2291 18.055 15.2291 18.0534 15.1605V15.1621Z" fill="#8C8B7E"/>
<path d="M31.7065 11.7927C31.5111 11.5779 31.3103 11.3565 31.0367 11.2327C30.8432 11.145 30.6501 11.1374 30.4956 10.984C30.3635 10.8531 30.2929 10.6765 30.1611 10.5425C29.6956 10.066 29.1928 10.241 28.6534 10.5361C28.5847 10.5739 28.5953 10.7442 28.6927 10.7187C29.0027 10.6381 29.4041 10.3274 29.731 10.4392C30.0453 10.5466 30.1965 10.8312 30.3912 11.0653C30.5233 11.2241 30.6329 11.2438 30.832 11.3016C31.1786 11.4026 31.4206 11.6316 31.6642 11.88C31.7029 11.9197 31.7339 11.8216 31.7075 11.7927H31.7065Z" fill="#8C8B7E"/>
<path d="M25.5954 21.041C25.5687 20.7834 25.4812 20.455 25.259 20.2828C25.0939 20.1557 24.8757 20.2139 24.8496 20.4267L24.9688 20.4006C24.8916 20.2186 24.7707 19.9442 24.5753 19.8607C24.5165 19.8359 24.504 19.9413 24.5202 19.9731C24.6162 20.1605 24.7704 20.3025 24.8579 20.4997C24.8909 20.5715 24.9698 20.5452 24.9774 20.474L25.0764 20.393C25.1079 20.3898 25.1396 20.3945 25.1686 20.4067C25.1975 20.4189 25.2227 20.4381 25.2415 20.4626C25.2869 20.5055 25.3248 20.5552 25.3537 20.6096C25.4337 20.7493 25.4906 20.9001 25.5224 21.0565C25.5353 21.1153 25.6007 21.0959 25.5947 21.0403L25.5954 21.041Z" fill="#8C8B7E"/>
<path d="M20.4521 16.5693C20.4097 16.1896 20.4904 15.8066 20.6832 15.4728C20.7308 15.3874 20.6341 15.1869 20.566 15.3099C20.3509 15.7011 20.2846 16.1525 20.3785 16.5858C20.3907 16.6455 20.4584 16.6252 20.4518 16.5693H20.4521Z" fill="#8C8B7E"/>
</g>
<defs>
<clipPath id="clip0_9628_8352">
<rect width="24.8889" height="33.7778" fill="white" transform="translate(12.0557 7.11084)"/>
</clipPath>
</defs>
</svg>
