<svg width="16" height="16" viewBox="0 0 16 16" fill="none" xmlns="http://www.w3.org/2000/svg">
<g clip-path="url(#clip0_9777_8835)">
<path d="M8 -0.00012207C4.62266 -0.00012207 1.875 2.74753 1.875 6.12488C1.875 7.20594 2.16062 8.26878 2.70097 9.19847C2.82694 9.41522 2.96775 9.62644 3.11956 9.82628L7.73387 15.9999H8.26609L12.8804 9.82632C13.0322 9.62644 13.173 9.41525 13.299 9.1985C13.8394 8.26878 14.125 7.20594 14.125 6.12488C14.125 2.74753 11.3773 -0.00012207 8 -0.00012207ZM8 8.15613C6.87997 8.15613 5.96875 7.24491 5.96875 6.12488C5.96875 5.00485 6.87997 4.09363 8 4.09363C9.12003 4.09363 10.0312 5.00485 10.0312 6.12488C10.0312 7.24491 9.12003 8.15613 8 8.15613Z" fill="#36BFC7"/>
</g>
<defs>
<clipPath id="clip0_9777_8835">
<rect width="16" height="16" fill="white"/>
</clipPath>
</defs>
</svg>
