<svg width="60" height="60" viewBox="0 0 60 60" fill="none" xmlns="http://www.w3.org/2000/svg">
<circle cx="30" cy="30" r="30" fill="#3CA90A"/>
<g clip-path="url(#clip0_9785_12756)">
<path d="M44.373 48.922C44.373 50.1306 37.939 51.1106 30.0007 51.1106C22.0623 51.1106 15.6279 50.1306 15.6279 48.922C15.6279 47.7134 22.0619 46.7329 30.0007 46.7329C37.9394 46.7329 44.373 47.713 44.373 48.922Z" fill="white" fill-opacity="0.5"/>
<path d="M15.2373 31.9695L18.1933 28.9169C18.1933 28.9169 21.8627 25.8643 23.6976 27.4915C25.5325 29.1186 28.1825 25.6587 30.4251 25.6587C32.6677 25.6587 35.7255 29.3242 37.7643 28.9169C39.803 28.5097 40.8204 27.0842 40.8204 27.0842L43.7764 29.7315L43.1668 31.9695L45.5112 33.295C45.5112 33.295 42.6561 42.1532 40.2108 43.3766C37.7655 44.6001 29.4057 47.449 24.5131 45.0054C19.6205 42.5617 15.2373 31.9695 15.2373 31.9695Z" fill="#F5E4D0"/>
<path d="M25.2371 38.0811C25.2371 38.0811 25.1699 42.2001 25.6794 42.8363C26.1889 43.4725 28.9595 43.0797 29.442 43.8075C29.7297 44.2448 29.8534 44.7697 29.7911 45.2892L28.9402 44.3204C28.9402 44.3204 26.9891 43.828 26.1567 44.0738C26.1567 44.0738 27.4391 45.3045 27.1146 46.0982C26.7901 46.8918 26.3738 46.9698 26.3738 46.9698L26.2685 45.956C26.2685 45.956 25.381 44.8655 25.1458 44.3068C24.9105 43.7481 23.5067 43.8918 22.9743 44.0356C22.4419 44.1794 21.8813 44.4136 21.5166 44.31C21.1519 44.2063 20.5801 44.8321 20.5801 44.8321C20.5801 44.8321 20.5141 44.0264 20.683 43.779C20.8519 43.5316 21.5419 43.5312 21.5419 43.5312C21.5419 43.5312 22.8947 42.9315 23.7017 42.8656C24.5088 42.7997 24.124 38.1791 24.124 38.1791L25.2371 38.0811Z" fill="#D9663B"/>
<path d="M34.9035 38.2754C34.9035 38.2754 34.4427 41.9056 34.9509 42.5422C35.4592 43.1788 38.5367 43.0178 39.0189 43.7472C39.501 44.4766 39.577 45.5016 39.577 45.5016L38.5025 44.3786C38.5025 44.3786 36.2945 43.9741 35.4781 44.0998C35.4781 44.0998 37.0175 45.2426 36.693 46.0358C36.3684 46.8291 35.9518 46.9078 35.9518 46.9078L35.8465 45.8937C35.8465 45.8937 34.7523 44.8939 34.5175 44.3352C34.2826 43.7765 33.0851 43.8299 32.5515 43.9737C32.0178 44.1175 31.4585 44.3521 31.0938 44.2485C30.729 44.1448 30.1572 44.7706 30.1572 44.7706C30.1572 44.7706 30.0913 43.9645 30.2602 43.7175C30.4291 43.4704 31.1191 43.4696 31.1191 43.4696C31.1191 43.4696 32.4723 42.87 33.2789 42.8041C34.0856 42.7382 33.4176 38.5136 33.4176 38.5136L34.9035 38.2754Z" fill="#D9663B"/>
<path d="M37.318 21.9904C37.318 21.9904 41.324 23.0817 41.6879 28.2964C42.0518 33.5112 37.8034 38.7239 33.1906 40.0578C28.5778 41.3917 22.2657 40.6639 19.5948 33.8723C16.9239 27.0806 19.7154 22.2322 24.4504 21.5048C29.1854 20.7774 37.318 21.9904 37.318 21.9904Z" fill="#FCC55B"/>
<path d="M26.9447 27.6116C26.9447 27.6116 29.7326 30.8116 27.3428 34.6522C24.953 38.4929 21.4549 37.263 21.7203 34.5755C21.9857 31.888 24.6791 30.1476 24.1483 29.2519C23.6175 28.3562 24.4226 25.8194 26.9447 27.6116Z" fill="#F5B947"/>
<path d="M27.0616 27.2646C27.0616 27.2646 29.6107 30.296 27.4255 33.9322C25.2404 37.5684 21.7202 36.5996 21.9631 34.0527C22.206 31.5057 23.2986 29.6874 23.6625 28.3539C23.9202 27.4129 24.755 25.5672 27.0616 27.2646Z" fill="#FFCC7B"/>
<path d="M38.3504 15.8427C38.3504 15.8427 35.9223 8.06543 27.9108 11.4357C19.8993 14.8061 21.5975 22.5834 24.2692 24.3981C26.9409 26.2128 33.4947 27.2498 37.1372 23.6205C40.7796 19.9911 38.3504 15.8427 38.3504 15.8427Z" fill="#F5B947"/>
<path d="M38.3504 15.5033C38.3504 15.5033 35.9223 8.22844 27.9108 11.3811C19.8993 14.5337 21.5975 21.8089 24.2692 23.5063C26.9409 25.2037 33.4947 26.1737 37.1372 22.7785C40.7796 19.3833 38.3504 15.5033 38.3504 15.5033Z" fill="#FCC55B"/>
<path d="M41.7484 17.4433C41.7484 17.4433 40.1705 16.2307 39.0779 15.8672C37.9853 15.5037 37.3785 14.7759 37.3785 14.7759C37.3785 14.7759 36.5288 16.2307 37.3785 16.7159C38.2282 17.2011 36.286 17.8072 35.5577 18.7772C34.8295 19.7472 35.0719 19.7472 35.0719 19.7472C35.0719 19.7472 37.3785 18.1691 38.4711 18.1691C39.5637 18.1691 41.5059 17.9281 41.7484 17.4433Z" fill="#DD8454"/>
<path d="M36.8935 19.7468C36.8935 19.7468 37.7436 19.2616 39.2001 19.1403C40.6566 19.019 41.7491 17.4429 41.7491 17.4429C41.7491 17.4429 39.685 18.0482 38.471 18.1687C37.257 18.2892 36.7109 18.7752 36.7109 18.7752L36.8935 19.7468Z" fill="#D66D3A"/>
<path d="M34.2237 17.8075C35.0602 17.0914 33.9077 14.9557 32.0161 15.3C30.1245 15.6442 30.1759 17.2854 30.9464 17.928C31.6747 18.5345 33.0198 18.8378 34.2237 17.8075Z" fill="white"/>
<path d="M38.4916 16.7834C38.383 16.6472 38.2258 16.5424 38.0468 16.546C38.0139 16.546 38.0175 16.6388 38.0468 16.6468C38.2077 16.6914 38.3529 16.7557 38.4671 16.8782C38.4992 16.9123 38.5101 16.8063 38.4916 16.7834Z" fill="#D66D3A"/>
<path d="M32.3431 16.2531C32.7131 16.2531 33.1031 16.4137 33.27 16.7692C33.3335 16.9046 33.3372 17.0222 33.1968 17.0974C33.105 17.1419 33.0072 17.173 32.9065 17.1897C32.6754 17.2364 32.4378 17.2406 32.2052 17.2022C32.0122 17.1705 31.7837 17.1082 31.6647 16.9391C31.499 16.7033 31.7813 16.5575 31.9752 16.5005C32.1558 16.4484 32.3471 16.4457 32.5291 16.4927C32.7111 16.5396 32.8771 16.6346 33.0098 16.7676C33.0142 16.6941 33.0183 16.6206 33.0227 16.5471C32.8128 16.6676 32.5804 16.682 32.3455 16.6853C32.2973 16.6853 32.3017 16.821 32.3363 16.8383C32.5747 16.9552 32.8273 16.9082 33.0508 16.78C33.1055 16.7483 33.1043 16.6013 33.0637 16.5591C32.9271 16.4182 32.7553 16.3163 32.5661 16.2637C32.3769 16.2112 32.1771 16.21 31.9872 16.2603C31.8211 16.3061 31.6354 16.3908 31.5541 16.5523C31.5171 16.6343 31.4994 16.7237 31.5023 16.8137C31.5051 16.9036 31.5285 16.9917 31.5706 17.0712C31.7717 17.4605 32.3773 17.4846 32.7517 17.436C32.9471 17.4107 33.2089 17.3693 33.3388 17.203C33.4425 17.0704 33.424 16.8817 33.3629 16.7371C33.2049 16.3559 32.7549 16.0791 32.3431 16.1976C32.327 16.2021 32.325 16.2531 32.3431 16.2531Z" fill="#5E4940"/>
<path d="M32.9112 16.1045C32.9201 16.127 32.9225 16.121 32.9185 16.0865C32.9173 16.0969 32.9173 16.1074 32.9185 16.1178C32.9191 16.1247 32.9191 16.1317 32.9185 16.1387C32.912 16.1621 32.8997 16.1835 32.8827 16.2009C32.8641 16.2229 32.8398 16.2392 32.8125 16.2481C32.7851 16.2571 32.7558 16.2583 32.7279 16.2515L32.748 16.264C32.7295 16.2399 32.7235 16.2315 32.7331 16.2122C32.7413 16.196 32.7533 16.182 32.768 16.1715C32.7828 16.161 32.8 16.1543 32.8179 16.1519C32.8512 16.1467 32.8853 16.1487 32.9177 16.1579C32.9454 16.1664 32.9756 16.1861 33.0053 16.1804C33.0419 16.1736 33.0379 16.1029 33.031 16.0776C33.0252 16.0458 33.0099 16.0164 32.9871 15.9934C32.9643 15.9704 32.935 15.9548 32.9032 15.9487C32.8738 15.9437 32.8437 15.9452 32.815 15.9531C32.7864 15.961 32.7598 15.9751 32.7371 15.9945C32.6322 16.0804 32.6201 16.2624 32.678 16.3777C32.6917 16.4046 32.705 16.4279 32.7343 16.4363C32.7611 16.4419 32.789 16.4398 32.8147 16.4303C32.8653 16.4128 32.9085 16.3788 32.9374 16.3339C32.9703 16.2854 32.9884 16.2285 32.9895 16.1699C32.9907 16.1114 32.9748 16.0538 32.9438 16.0041C32.9285 15.9832 32.9132 16.0041 32.9072 16.0206C32.8973 16.0479 32.8982 16.0779 32.9096 16.1045H32.9112Z" fill="white"/>
<path d="M45.5557 33.2567C44.5906 33.0643 43.5776 33.0699 43.4731 33.9041C43.2692 35.5333 41.7403 37.977 41.7403 37.977C41.7403 37.977 41.0728 36.2635 40.1093 36.3478C36.2248 36.6888 38.7357 34.3701 37.8667 33.1916C36.8754 31.8469 33.6878 33.5989 33.6878 33.5989C33.6878 33.5989 32.0568 35.6353 30.2219 35.4317C28.387 35.228 26.6542 36.2462 26.2465 37.7733C25.8387 39.3004 22.2711 40.9295 21.9655 40.0134C21.6599 39.0972 22.2711 36.5515 22.2711 36.5515L20.5383 36.8567C20.5383 36.8567 19.9267 34.5151 19.0103 33.4969C18.424 32.8466 16.5481 32.279 15.2705 31.9541C15.3606 43.7998 23.6645 49.1254 30.0707 49.1254C36.6897 49.1254 45.0249 45.3353 45.5557 33.2567Z" fill="#F7EEED"/>
<path d="M20.8534 23.8048C21.0436 22.9192 19.75 21.8841 18.782 21.2471C16.7939 24.095 15.3254 27.2716 14.4443 30.6302C15.6805 31.1403 17.7225 31.7516 19.2923 31.072C21.7051 30.0277 23.0321 26.7707 23.0321 26.7707C23.0321 26.7707 20.5538 25.1978 20.8534 23.8048Z" fill="#F7EEED"/>
<path d="M42.6978 26.8473C43.1353 27.0164 43.7248 25.5134 44.2162 23.9208C42.1219 14.0268 35.6477 7.88662 30.803 7.77938C26.9659 7.69262 21.9739 11.2646 18.541 17.1123C20.0562 17.5449 22.3282 18.349 22.7476 19.3716C23.3874 20.9313 25.6996 23.7935 25.6996 23.7935C25.7668 24.0879 31.2015 23.33 31.0627 20.4818C31.0072 19.3451 35.0968 19.3496 35.0968 19.3496C35.0968 19.3496 34.7229 22.899 36.0217 23.471C37.3206 24.0429 40.5597 24.6049 40.5597 24.6049C40.5597 24.6049 41.7962 26.4987 42.6978 26.8473Z" fill="#F7EEED"/>
<path d="M30.1205 10.2836C26.4507 8.65447 21.8637 15.7815 24.6159 17.6143C27.368 19.447 34.3858 12.177 30.1205 10.2836Z" fill="white"/>
</g>
<defs>
<clipPath id="clip0_9785_12756">
<rect width="31.1111" height="43.3333" fill="white" transform="translate(14.4443 7.77783)"/>
</clipPath>
</defs>
</svg>
