<svg width="60" height="60" viewBox="0 0 60 60" fill="none" xmlns="http://www.w3.org/2000/svg">
<circle cx="30" cy="30" r="30" fill="#0AB5DB"/>
<g clip-path="url(#clip0_9785_12650)">
<path d="M44.7488 48.8898C44.7488 50.1159 38.1461 51.1102 29.9996 51.1102C21.8531 51.1102 15.25 50.1159 15.25 48.8898C15.25 47.6636 21.8527 46.6689 29.9996 46.6689C38.1465 46.6689 44.7488 47.6632 44.7488 48.8898Z" fill="white" fill-opacity="0.5"/>
<path d="M29.949 7.77924C23.7248 7.9345 14.9902 17.4889 14.4674 30.4007C13.9445 43.3124 22.8326 49.0963 29.635 49.0963C36.853 49.0963 46.0592 44.7582 45.5351 30.6073C45.0111 16.4563 36.014 7.62847 29.949 7.77924Z" fill="#F7EEED"/>
<path d="M45.535 30.6083C45.091 18.5898 38.5349 10.4131 32.8533 8.3125C34.1354 9.27744 40.2656 14.3947 42.1338 25.2877C44.1022 36.7565 39.8323 47.0827 25.7095 48.3219C25.5668 48.3345 25.4306 48.3472 25.2969 48.3598C26.7631 48.8549 28.2409 49.0966 29.6299 49.0966C36.8516 49.0966 46.0583 44.7584 45.535 30.6083Z" fill="#F0E4D6"/>
<path d="M27.2812 10.6202C24.7664 10.3443 19.0175 19.8131 20.0632 25.1847C21.1089 30.5562 25.8166 28.1801 27.1764 23.3253C28.5361 18.4705 30.1055 10.9303 27.2812 10.6202Z" fill="white"/>
</g>
<defs>
<clipPath id="clip0_9785_12650">
<rect width="31.1111" height="43.3333" fill="white" transform="translate(14.4453 7.77734)"/>
</clipPath>
</defs>
</svg>
