<svg width="25" height="24" viewBox="0 0 25 24" fill="none" xmlns="http://www.w3.org/2000/svg">
<path fill-rule="evenodd" clip-rule="evenodd" d="M11.281 5.69532C11.4172 5.83247 11.6 5.90485 11.7858 5.90485C11.8781 5.90485 11.9705 5.88675 12.0591 5.85056C12.3258 5.74009 12.5 5.47913 12.5 5.19056V1.85723C12.5 1.46294 12.18 1.14294 11.7858 1.14294H8.45243C8.16386 1.14294 7.90291 1.31723 7.79243 1.5839C7.68195 1.85056 7.74291 2.15818 7.94767 2.36199L8.94074 3.35506L3.25487 9.04093C2.88249 9.41331 2.88249 10.0152 3.25487 10.3876C3.44059 10.5733 3.6844 10.6666 3.92821 10.6666C4.17201 10.6666 4.41582 10.5733 4.60154 10.3876L10.2874 4.70173L11.281 5.69532Z" fill="#FFD600"/>
<path d="M7.73772 14.7142V20.1904H2.02344V14.7142C2.02344 14.057 2.55677 13.5237 3.21391 13.5237H6.54725C7.20439 13.5237 7.73772 14.057 7.73772 14.7142Z" fill="url(#paint0_linear_12516_15516)"/>
<path d="M15.3569 10.9047V20.1904H9.64258V10.9047C9.64258 10.2476 10.1759 9.71423 10.8331 9.71423H14.1664C14.8235 9.71423 15.3569 10.2476 15.3569 10.9047Z" fill="url(#paint1_linear_12516_15516)"/>
<path d="M22.976 7.09526V20.1905H17.2617V7.09526C17.2617 6.43812 17.7951 5.90479 18.4522 5.90479H21.7855C22.4427 5.90479 22.976 6.43812 22.976 7.09526Z" fill="url(#paint2_linear_12516_15516)"/>
<path d="M23.2141 23.0477H1.78557C1.39129 23.0477 1.07129 22.7277 1.07129 22.3334C1.07129 21.9391 1.39129 21.6191 1.78557 21.6191H23.2141C23.6084 21.6191 23.9284 21.9391 23.9284 22.3334C23.9284 22.7277 23.6084 23.0477 23.2141 23.0477Z" fill="white"/>
<defs>
<linearGradient id="paint0_linear_12516_15516" x1="7.57182" y1="13.5237" x2="2.24506" y2="19.5192" gradientUnits="userSpaceOnUse">
<stop stop-color="#19CBD9"/>
<stop offset="1" stop-color="#168FD8"/>
</linearGradient>
<linearGradient id="paint1_linear_12516_15516" x1="15.3569" y1="10.369" x2="8.03208" y2="18.2704" gradientUnits="userSpaceOnUse">
<stop stop-color="#D261DB"/>
<stop offset="1" stop-color="#8942D3"/>
</linearGradient>
<linearGradient id="paint2_linear_12516_15516" x1="22.8101" y1="5.90479" x2="13.3461" y2="10.8758" gradientUnits="userSpaceOnUse">
<stop stop-color="#19CBD9"/>
<stop offset="1" stop-color="#168FD8"/>
</linearGradient>
</defs>
</svg>
