<svg width="48" height="48" viewBox="0 0 48 48" fill="none" xmlns="http://www.w3.org/2000/svg">
<circle cx="24" cy="24" r="24" fill="#0AB5DB"/>
<g clip-path="url(#clip0_9628_8345)">
<path d="M35.7993 39.1116C35.7993 40.0925 30.5171 40.888 23.9999 40.888C17.4827 40.888 12.2002 40.0925 12.2002 39.1116C12.2002 38.1307 17.4824 37.335 23.9999 37.335C30.5174 37.335 35.7993 38.1304 35.7993 39.1116Z" fill="white" fill-opacity="0.5"/>
<path d="M23.9596 6.2232C18.9802 6.3474 11.9926 13.9909 11.5743 24.3203C11.156 34.6497 18.2664 39.2768 23.7084 39.2768C29.4828 39.2768 36.8478 35.8063 36.4285 24.4856C36.0092 13.1649 28.8116 6.10258 23.9596 6.2232Z" fill="#F7EEED"/>
<path d="M36.4278 24.4866C36.0726 14.8717 30.8277 8.33039 26.2824 6.6499C27.3081 7.42185 32.2123 11.5157 33.7068 20.2301C35.2816 29.4051 31.8657 37.6661 20.5674 38.6574C20.4532 38.6675 20.3443 38.6777 20.2373 38.6878C21.4103 39.0838 22.5925 39.2771 23.7037 39.2771C29.4811 39.2771 36.8464 35.8066 36.4278 24.4866Z" fill="#F0E4D6"/>
<path d="M21.8252 8.49593C19.8133 8.27523 15.2142 15.8503 16.0508 20.1475C16.8873 24.4448 20.6535 22.5439 21.7413 18.66C22.8291 14.7762 24.0846 8.74401 21.8252 8.49593Z" fill="white"/>
</g>
<defs>
<clipPath id="clip0_9628_8345">
<rect width="24.8889" height="34.6667" fill="white" transform="translate(11.5566 6.22168)"/>
</clipPath>
</defs>
</svg>
