<svg width="19" height="21" viewBox="0 0 19 21" fill="none" xmlns="http://www.w3.org/2000/svg">
<path d="M9.44933 9.96794L9.39644 9.96778C6.86844 9.9391 4.83486 7.85901 4.86358 5.33113C4.89179 2.8313 6.94815 0.797852 9.44773 0.797852L9.50029 0.798012C12.0281 0.826697 14.0619 2.90678 14.0332 5.43467C14.0048 7.93449 11.9485 9.96794 9.44933 9.96794ZM9.44773 2.17604C7.69985 2.17604 6.26172 3.5983 6.24199 5.34651C6.22195 7.11461 7.64439 8.5694 9.41245 8.58925L9.44963 8.58941C11.1972 8.58941 12.6355 7.16732 12.6552 5.41895C12.6752 3.65085 11.2528 2.19606 9.48507 2.17621L9.44773 2.17604Z" fill="#026E74"/>
<path d="M15.9096 20.6928H2.98667C1.33988 20.6928 0 19.3529 0 17.7061V15.5475C0 13.9541 1.21426 12.4161 2.76407 12.0464L7.05365 11.0229C7.69898 10.8689 8.54947 10.7839 9.44816 10.7839C10.3472 10.7839 11.1973 10.8687 11.8427 11.0229L16.1323 12.0464C17.6821 12.4161 18.896 13.9542 18.896 15.5475V17.7061C18.8962 19.3529 17.5563 20.6928 15.9095 20.6928H15.9096ZM9.44812 12.1624C8.66544 12.1624 7.90902 12.2357 7.37332 12.3637L3.08373 13.3872C2.15923 13.6078 1.37832 14.5973 1.37832 15.5475V17.7061C1.37832 18.5926 2.09979 19.3142 2.98646 19.3142H15.9094C16.7959 19.3142 17.5175 18.5926 17.5175 17.7061V15.5475C17.5175 14.597 16.7366 13.6078 15.8121 13.3872L11.5225 12.3637C10.9868 12.2357 10.2307 12.1624 9.44804 12.1624H9.44812Z" fill="#51545F"/>
</svg>
