<svg width="24" height="24" viewBox="0 0 24 24" fill="none" xmlns="http://www.w3.org/2000/svg">
<path fill-rule="evenodd" clip-rule="evenodd" d="M1.32008 11.3506C1.32008 11.3576 1.31438 11.3633 1.30736 11.3633C1.29992 11.3633 1.29407 11.3569 1.29469 11.3494C1.7609 5.79915 6.41502 1.43982 12.0877 1.43982C14.0428 1.43982 15.8769 1.95766 17.4603 2.86362C18.4442 3.42661 18.4875 4.75746 17.6858 5.55893C16.9833 6.26117 15.8737 6.29308 14.9685 5.88418C14.0898 5.48727 13.1145 5.26634 12.0877 5.26634C9.16178 5.26634 6.65496 7.05993 5.6074 9.60727C5.22839 10.5289 4.4124 11.2798 3.41591 11.2798H1.36181C1.33876 11.2798 1.32008 11.2985 1.32008 11.3215V11.3506ZM1.30115 13.0032C1.3116 13.0032 1.32008 13.0117 1.32008 13.0221L1.32008 13.4495C1.30474 13.3083 1.29212 13.1662 1.28227 13.0234C1.28152 13.0125 1.29019 13.0032 1.30115 13.0032ZM13.0801 20.9025C13.0801 22.056 14.081 22.9752 15.1865 22.6458C19.6585 21.3133 22.919 17.1711 22.919 12.2676C22.919 10.3426 22.4165 8.53496 21.5355 6.96856C20.9767 5.97503 19.6376 5.92704 18.8314 6.73294C18.1324 7.43172 18.0957 8.53408 18.4956 9.43791C18.8786 10.3032 19.0912 11.2606 19.0912 12.2676C19.0912 15.2032 17.2839 17.7168 14.721 18.7571C13.8156 19.1246 13.0801 19.9253 13.0801 20.9025Z" fill="#18A2D9"/>
<path fill-rule="evenodd" clip-rule="evenodd" d="M11.4617 21.0208C11.4617 20.0138 10.6764 19.2012 9.72828 18.8622C7.77688 18.1644 6.22561 16.6257 5.51145 14.6827C5.16603 13.7429 4.35545 12.9675 3.35421 12.9675C2.22969 12.9675 1.32293 13.9264 1.60744 15.0144C2.60204 18.8176 5.61348 21.8056 9.43084 22.7677C10.5137 23.0407 11.4617 22.1375 11.4617 21.0208Z" fill="url(#paint0_linear_12516_15492)"/>
<rect x="7.90967" y="9.45837" width="2.04656" height="5.29107" rx="1.02328" fill="#FFB501"/>
<rect x="11.0854" y="8.39978" width="2.04656" height="6.34929" rx="1.02328" fill="#FFB501"/>
<rect x="14.2612" y="11.5742" width="2.04655" height="3.17465" rx="1.02328" fill="#FFB501"/>
<defs>
<linearGradient id="paint0_linear_12516_15492" x1="11.1741" y1="12.9675" x2="3.54645" y2="23.0424" gradientUnits="userSpaceOnUse">
<stop stop-color="#19CBD9"/>
<stop offset="1" stop-color="#168FD8"/>
</linearGradient>
</defs>
</svg>
