<svg width="24" height="24" viewBox="0 0 24 24" fill="none" xmlns="http://www.w3.org/2000/svg">
<rect width="24" height="24" rx="12" fill="#00CCCC" fill-opacity="0.2"/>
<path d="M12 4C10.4178 4 8.87103 4.46919 7.55544 5.34824C6.23985 6.22729 5.21447 7.47672 4.60897 8.93853C4.00347 10.4003 3.84504 12.0089 4.15372 13.5607C4.4624 15.1126 5.22433 16.538 6.34315 17.6569C7.46197 18.7757 8.88743 19.5376 10.4393 19.8463C11.9911 20.155 13.5997 19.9965 15.0615 19.391C16.5233 18.7855 17.7727 17.7602 18.6518 16.4446C19.5308 15.129 20 13.5822 20 12C20 9.87827 19.1571 7.84344 17.6569 6.34315C16.1566 4.84285 14.1217 4 12 4V4ZM12.3429 8.91413C13.0701 8.91498 13.7673 9.20424 14.2815 9.71845C14.7958 10.2327 15.085 10.9299 15.0859 11.6571H14.4C14.3994 11.1117 14.1825 10.5888 13.7969 10.2031C13.4112 9.81747 12.8883 9.60056 12.3429 9.6V8.91413ZM14.5643 16.8C14.5435 16.8 12.4843 16.7648 9.83627 14.1637C7.2352 11.5168 7.2 9.45653 7.2 9.43573C7.2 9.1792 8.8 7.2 9.1536 7.2C9.27627 7.2 9.37174 7.2832 9.47627 7.408C9.728 7.70773 10.8411 9.46453 10.7899 9.75733C10.7653 9.89493 10.6485 9.99947 10.3136 10.2805C10.1486 10.4103 9.99412 10.5529 9.85174 10.7072C9.91993 10.9894 10.0213 11.2626 10.1536 11.5211C10.6467 12.5349 11.4659 13.3538 12.48 13.8464C12.7384 13.9787 13.0116 14.0801 13.2939 14.1483C13.4481 14.0059 13.5908 13.8514 13.7205 13.6864C14.0016 13.3515 14.1061 13.2347 14.2437 13.2101C14.5365 13.1568 16.2933 14.272 16.5931 14.5237C16.7179 14.6304 16.8011 14.7237 16.8011 14.8464C16.8 15.2 14.8208 16.8 14.5643 16.8ZM16.1141 11.6571C16.113 10.6572 15.7153 9.69866 15.0083 8.99167C14.3013 8.28468 13.3428 7.887 12.3429 7.88587V7.2C13.5246 7.20141 14.6574 7.67145 15.493 8.507C16.3286 9.34256 16.7986 10.4754 16.8 11.6571H16.1141Z" fill="white"/>
</svg>
