<svg width="20" height="21" viewBox="0 0 20 21" fill="none" xmlns="http://www.w3.org/2000/svg">
<path d="M12.7001 18.5659H12.5918C8.89176 18.5659 7.10843 17.1076 6.80009 13.8409C6.76676 13.4992 7.01676 13.1909 7.36676 13.1576C7.70009 13.1242 8.01676 13.3826 8.05009 13.7242C8.29176 16.3409 9.52509 17.3159 12.6001 17.3159H12.7084C16.1001 17.3159 17.3001 16.1159 17.3001 12.7242V7.29088C17.3001 3.89922 16.1001 2.69922 12.7084 2.69922H12.6001C9.50843 2.69922 8.27509 3.69089 8.05009 6.35755C8.00843 6.69922 7.71676 6.95755 7.36676 6.92422C7.01676 6.89922 6.76676 6.59089 6.79176 6.24922C7.07509 2.93255 8.86676 1.44922 12.5918 1.44922H12.7001C16.7918 1.44922 18.5418 3.19922 18.5418 7.29088V12.7242C18.5418 16.8159 16.7918 18.5659 12.7001 18.5659Z" fill="#51545F"/>
<path d="M12.4999 10.6323H3.0166C2.67493 10.6323 2.3916 10.349 2.3916 10.0073C2.3916 9.66566 2.67493 9.38232 3.0166 9.38232H12.4999C12.8416 9.38232 13.1249 9.66566 13.1249 10.0073C13.1249 10.349 12.8416 10.6323 12.4999 10.6323Z" fill="#026E74"/>
<path d="M4.87454 13.424C4.71621 13.424 4.55788 13.3657 4.43288 13.2407L1.64121 10.449C1.39954 10.2074 1.39954 9.80736 1.64121 9.56569L4.43288 6.77402C4.67454 6.53236 5.07454 6.53236 5.31621 6.77402C5.55788 7.01569 5.55788 7.41569 5.31621 7.65736L2.96621 10.0074L5.31621 12.3574C5.55788 12.599 5.55788 12.999 5.31621 13.2407C5.19954 13.3657 5.03288 13.424 4.87454 13.424Z" fill="#026E74"/>
</svg>
