<svg width="180" height="46" viewBox="0 0 180 46" fill="none" xmlns="http://www.w3.org/2000/svg">
<mask id="mask0_12470_15145" style="mask-type:alpha" maskUnits="userSpaceOnUse" x="0" y="0" width="33" height="46">
<path d="M0 0.0595703H32.2515V45.3445H0V0.0595703Z" fill="white"/>
</mask>
<g mask="url(#mask0_12470_15145)">
<path fill-rule="evenodd" clip-rule="evenodd" d="M19.1723 4.26193L26.8812 4.55058L21.2751 9.76061L12.9898 8.53159L19.1723 4.26193ZM24.7526 7.34118C25.348 8.29348 25.5796 9.47345 25.3068 10.6547C24.7618 13.0117 22.4122 14.4802 20.0593 13.934C18.0449 13.4666 16.6812 11.6748 16.6719 9.69019L21.4609 10.4009L24.7526 7.34118ZM20.5158 0.17619C10.3306 1.20338 2.38945 8.79655 0.453202 18.3432C0.607222 18.3253 0.764385 18.3959 0.97399 18.4202C15.4328 20.0774 30.6252 20.0958 31.7918 3.66142C31.8017 2.96083 31.9907 2.43439 32.2515 2.11309C28.6987 0.488043 24.6818 -0.244198 20.5158 0.17619ZM18.5857 45.3445C8.89897 43.5241 1.15382 35.5057 0.116047 25.1856C-0.0895883 23.1411 -0.0177897 21.133 0.298521 19.1971C2.05676 20.4412 11.0523 22.1474 14.5034 24.0573C21.3823 27.863 21.1851 35.9665 18.5857 45.3445Z" fill="#005487"/>
</g>
<path fill-rule="evenodd" clip-rule="evenodd" d="M33.6326 2.9873C39.9514 6.5077 44.5077 12.9851 45.2863 20.7655C46.5475 33.3687 37.4196 44.6147 24.8982 45.8842C23.9581 45.9796 23.0256 46.0149 22.104 45.9949C28.8173 33.2115 33.1646 18.7213 33.6692 4.57067C33.7355 3.92212 33.7135 3.39771 33.6326 2.9873Z" fill="#36BFC7"/>
<path fill-rule="evenodd" clip-rule="evenodd" d="M72.5684 27.4485C72.4217 27.47 72.2014 27.4809 71.9081 27.4809C70.315 27.3944 68.2819 27.3515 65.8087 27.3515C64.0056 27.3515 61.5844 27.3631 58.5454 27.384V27.3515C59.0905 27.2661 59.5148 26.9806 59.8192 26.4961C60.1225 26.0115 60.2748 25.3389 60.2748 24.478L60.3063 9.75257H60.2748V9.72001C60.2748 8.85928 60.1225 8.18617 59.8192 7.70185C59.5148 7.21753 59.0905 6.93241 58.5454 6.84649V6.8141L64.2992 6.78154C65.8505 6.78154 67.2861 6.76057 68.6072 6.7171H68.827C69.7492 6.69562 70.6081 6.65232 71.405 6.58788C72.0759 6.54492 72.4114 6.58788 72.4114 6.7171V7.23398L72.4429 10.0431H72.4114C72.3691 9.76347 72.2646 9.51578 72.0968 9.30064C71.929 9.0855 71.6568 8.8967 71.2795 8.73543C70.9024 8.57365 70.3991 8.44477 69.7701 8.34794C69.1415 8.25094 68.3343 8.18113 67.3495 8.13767C66.469 8.11669 65.253 8.10578 63.7022 8.10578C63.3667 8.10578 63.1465 8.15965 63.0419 8.26705C62.9996 8.33133 62.9788 8.49327 62.9788 8.75137V15.3388C62.9788 15.5976 63.1251 15.7263 63.4192 15.7263C63.9638 15.7263 65.9448 15.7379 69.3617 15.7589C70.1998 15.7589 70.8081 15.5602 71.1852 15.1616C71.5625 14.7632 71.7929 14.2843 71.8766 13.7246H71.9081C71.8874 14.564 71.8975 16.2971 71.9398 18.9236H71.9081C71.8241 18.3637 71.5465 17.9279 71.075 17.6158C70.6034 17.3036 69.948 17.1474 69.1098 17.1474C67.7894 17.0615 65.8399 17.0291 63.2617 17.0506C63.0731 17.0506 62.9788 17.1259 62.9788 17.2768V24.1549C62.9788 25.1236 63.5339 25.7262 64.6453 25.9628C64.9175 26.0063 65.8714 26.0277 67.5065 26.0277C68.2609 26.0277 68.9319 25.9524 69.5186 25.8017C70.7764 25.4357 71.704 25.0323 72.3016 24.5909C72.8986 24.1499 73.2806 23.6489 73.4489 23.0893L73.4805 23.1213L72.8514 27.287L72.8204 27.4809L72.5684 27.4485Z" fill="#0A4875"/>
<path fill-rule="evenodd" clip-rule="evenodd" d="M82.2805 23.5504C82.2805 24.5875 82.5496 25.2791 83.087 25.6241C83.625 25.9703 84.6952 26.1427 86.2982 26.1427C92.329 26.1427 95.345 23.1186 95.345 17.0703C95.345 10.9573 92.2767 7.90053 86.1397 7.90053H83.989C82.8498 8.0088 82.2805 8.33295 82.2805 8.87247V23.5504ZM77.6621 27.4062C78.2105 27.3206 78.6374 27.034 78.9432 26.548C79.249 26.0616 79.402 25.3867 79.402 24.5228L79.4651 9.68276H79.4337V9.65009C79.4337 8.78625 79.2807 8.11102 78.9751 7.62488C78.6693 7.13908 78.2417 6.85282 77.694 6.76627V6.7336C81.2576 6.626 84.2418 6.57178 86.646 6.57178C90.2097 6.57178 93.0673 7.44656 95.2183 9.19662C97.4535 11.0108 98.5712 13.4954 98.5712 16.6488C98.5712 20.3214 97.3901 23.108 95.0284 25.009C92.8143 26.7585 89.9779 27.5793 86.5193 27.4715C85.7175 27.4715 82.7658 27.4599 77.6621 27.439V27.4062Z" fill="#0A4875"/>
<path fill-rule="evenodd" clip-rule="evenodd" d="M119.729 7.47862C119.425 7.0013 119.002 6.7203 118.458 6.63512V6.6032H123.663V6.63512C123.119 6.7203 122.696 7.0013 122.393 7.47862C122.09 7.95595 121.939 8.61934 121.939 9.4678L121.97 18.5063C122.137 21.3498 121.489 23.5455 120.026 25.0941C118.521 26.6855 116.347 27.4809 113.506 27.4809C107.487 27.4809 104.478 24.6065 104.478 18.8561L104.508 9.4678H104.478V9.43571C104.478 8.58742 104.325 7.92403 104.023 7.4467C103.719 6.96922 103.296 6.68838 102.753 6.6032V6.57178H108.991V6.6032C108.448 6.68838 108.025 7.0013 107.722 7.54214C107.419 8.08347 107.246 8.96931 107.205 10.1995V18.3153C107.205 20.9679 107.743 22.9091 108.819 24.1394C109.895 25.3701 111.635 25.9854 114.039 25.9854C118.156 25.9854 120.214 23.5774 120.214 18.7607L120.183 9.4678C120.183 8.61934 120.031 7.95595 119.729 7.47862Z" fill="#0A4875"/>
<path fill-rule="evenodd" clip-rule="evenodd" d="M139.649 11.3961V11.3643C139.649 10.7087 139.555 10.1319 139.368 9.63432C139.18 9.13772 138.94 8.80457 138.647 8.63469V8.57153C137.979 7.958 136.905 7.6509 135.424 7.6509C134.235 7.6509 133.598 7.831 133.515 8.19071C133.494 8.27565 133.484 8.38104 133.484 8.5077L133.39 16.2517H134.641C135.33 16.2517 135.957 16.1777 136.52 16.0296C136.54 16.0296 136.556 16.0246 136.566 16.0134C136.577 16.003 136.592 15.9976 136.614 15.9976C137.385 15.7866 138.001 15.4162 138.46 14.8871C139.274 13.9561 139.681 12.824 139.681 11.4912L139.649 11.3961ZM135.173 26.8835L132.451 26.8515H131.762L129.039 26.8835V26.8515C129.999 26.7243 130.562 25.9844 130.729 24.6301V24.5029C130.75 24.3973 130.761 24.2388 130.761 24.0268L130.792 9.52349H130.761V9.49166C130.761 8.64558 130.609 7.98405 130.307 7.50807C130.004 7.03209 129.582 6.75188 129.039 6.66744V6.6356L136.864 6.57178C138.575 6.6356 139.931 6.99531 140.933 7.6509C142.164 8.45509 142.779 9.65065 142.779 11.2371C142.779 13.332 141.485 15.1305 138.898 16.6325C138.815 16.717 138.705 16.791 138.57 16.8544C138.433 16.9182 138.293 16.9766 138.147 17.029C138.001 17.0821 137.865 17.1298 137.74 17.172C137.615 17.2146 137.521 17.2466 137.459 17.2672C137.333 17.3097 137.145 17.352 136.895 17.3942C136.645 17.4369 136.185 17.4786 135.518 17.5208C134.6 17.5002 133.89 17.5424 133.39 17.648L133.484 24.0268C133.484 24.8733 133.634 25.5344 133.938 26.0103C134.239 26.4865 134.663 26.767 135.205 26.8515V26.8835H135.173Z" fill="#0A4875"/>
<path fill-rule="evenodd" clip-rule="evenodd" d="M153.532 6.65442C152.962 6.69766 152.486 6.87447 152.106 7.18451C151.726 7.49556 151.387 7.88641 151.091 8.3574V24.5172C151.091 25.1169 151.25 25.6207 151.567 26.0269C151.778 26.3484 152.042 26.6216 152.359 26.8466C152.677 27.0712 153.046 27.2271 153.469 27.3121C153.511 27.3552 153.522 27.3878 153.501 27.4085C153.416 27.4731 153.152 27.4939 152.708 27.4731C149.982 27.3657 147.879 27.3657 146.4 27.4731C146.083 27.4939 145.871 27.4512 145.766 27.3443C146.484 27.2802 147.092 27.0181 147.589 26.5575C148.085 26.097 148.354 25.5565 148.396 24.935V9.35348C148.396 8.92523 148.312 8.55007 148.143 8.22868C147.974 7.80043 147.747 7.43095 147.462 7.1204C147.176 6.81003 146.864 6.65442 146.527 6.65442C146.696 6.61168 147.89 6.5853 150.109 6.57394C152.328 6.56359 153.469 6.59031 153.532 6.65442Z" fill="#0A4875"/>
<path fill-rule="evenodd" clip-rule="evenodd" d="M170.275 19.8525C170.211 19.7051 168.903 16.5488 166.351 10.3839L162.301 20.1063H170.403L170.275 19.8525ZM159.813 26.8514H155.953L155.922 26.8193C156.411 26.7357 156.794 26.4983 157.07 26.1069C157.346 25.7167 157.644 25.3211 157.963 24.9197C158.281 24.5397 159.01 23.1201 160.148 20.6606C161.285 18.2009 162.152 16.2853 162.747 14.9128C164.299 11.1337 165.639 7.7559 166.767 4.7793C169.616 11.5136 172.433 17.9322 175.219 24.0328C175.538 24.8776 175.941 25.5321 176.432 25.9965C176.92 26.4611 177.452 26.7357 178.026 26.8193V26.8514L173.082 26.8832C172.167 24.4976 171.444 22.6504 170.913 21.3411H161.823L159.813 26.8514Z" fill="#0A4875"/>
<path fill-rule="evenodd" clip-rule="evenodd" d="M176.202 3.60986C177.781 3.60986 179.061 4.92581 179.061 6.54908C179.061 8.17219 177.781 9.48814 176.202 9.48814C174.623 9.48814 173.342 8.17219 173.342 6.54908C173.342 4.92548 174.623 3.60986 176.202 3.60986ZM176.22 6.89077H175.681V8.03197H175.182V5.06603H176.16C176.427 5.06603 176.709 5.11814 176.918 5.30051C177.12 5.47542 177.193 5.72251 177.193 5.98703C177.193 6.1699 177.146 6.34049 177.042 6.48901C176.951 6.61646 176.833 6.71022 176.696 6.7756L177.314 7.92145V8.03197H176.817L176.22 6.89077ZM175.681 6.44587V5.51093H176.17C176.308 5.51093 176.458 5.53732 176.564 5.63506C176.662 5.72583 176.694 5.85361 176.694 5.9862C176.694 6.11812 176.654 6.23113 176.556 6.31925C176.45 6.4155 176.31 6.44587 176.172 6.44587H175.681ZM176.202 4.15101C174.913 4.15101 173.869 5.22451 173.869 6.54908C173.869 7.87366 174.913 8.94699 176.202 8.94699C177.491 8.94699 178.535 7.87333 178.535 6.54908C178.535 5.22451 177.491 4.15101 176.202 4.15101Z" fill="#005487"/>
<path d="M61.7148 41H61.1406V36.1914H59.4844V35.6719H63.3711V36.1914H61.7148V41ZM64.3617 41V36.9102H64.9242V41H64.3617ZM64.2094 35.6484C64.2094 35.3945 64.4008 35.2109 64.6391 35.2109C64.8891 35.2109 65.0766 35.3945 65.0766 35.6484C65.0766 35.8906 64.8891 36.0781 64.6391 36.0781C64.4008 36.0781 64.2094 35.8906 64.2094 35.6484ZM68.075 41.0664C66.9969 41.0664 66.3719 40.3672 66.3719 39.2773V38.6445C66.3719 37.5352 67.0594 36.8438 68.0242 36.8438C68.9891 36.8438 69.6766 37.5352 69.6766 38.6445V39.1016H66.9383V39.3164C66.9383 40.0312 67.3328 40.5664 68.0711 40.5664C68.6102 40.5664 68.9461 40.2969 69.0203 40.0273H69.618C69.5555 40.4492 69.0711 41.0664 68.075 41.0664ZM66.9383 38.6602H69.1102V38.5938C69.1102 37.832 68.6766 37.3477 68.0242 37.3477C67.3719 37.3477 66.9383 37.832 66.9383 38.5938V38.6602ZM66.8602 36.2305L67.8289 35.1094H68.1961L69.1609 36.2305H68.6609L68.0203 35.4727H68.0047L67.3602 36.2305H66.8602ZM68.9578 35.5156L69.8953 34.1602H70.4773L69.4031 35.5156H68.9578ZM70.9992 41V36.9102H71.5617V37.6719H71.593C71.6984 37.332 71.9914 36.8438 72.8508 36.8438C73.675 36.8438 74.2492 37.2969 74.2492 38.207V41H73.6828V38.3867C73.6828 37.7266 73.3391 37.3477 72.7258 37.3477C71.9367 37.3477 71.5617 37.957 71.5617 38.6953V41H70.9992ZM77.1969 41.9844C77.9625 41.9844 78.3492 41.5742 78.3492 40.8984V40.2422H78.318C78.1695 40.5781 77.7555 40.918 77.1422 40.918C76.2359 40.918 75.5172 40.2773 75.5172 39.2227V38.5469C75.5172 37.4805 76.2438 36.8438 77.1383 36.8438C77.7867 36.8438 78.2203 37.2305 78.3531 37.5508H78.3766V36.9102H78.9156V40.8789C78.9156 41.9648 78.2242 42.4844 77.1734 42.4844C76.1695 42.4844 75.6695 41.9609 75.6109 41.3906H76.2008C76.2516 41.6953 76.5992 41.9844 77.1969 41.9844ZM77.2438 37.3477C76.5445 37.3477 76.0836 37.8711 76.0836 38.6797V39.0898C76.0836 39.8867 76.5719 40.4141 77.2516 40.4141C77.9664 40.4141 78.3492 39.8242 78.3492 39.2109V38.5703C78.3492 37.9336 77.9391 37.3477 77.2438 37.3477ZM82.4047 41H81.8031L83.7172 35.6719H84.2758L86.1898 41H85.5883L85.0219 39.3359H82.9711L82.4047 41ZM84.0062 36.3789H83.9828L83.1312 38.8633H84.8578L84.0062 36.3789ZM87.2703 41V36.9102H87.8328V37.6719H87.8641C87.9695 37.332 88.2625 36.8438 89.1219 36.8438C89.9461 36.8438 90.5203 37.2969 90.5203 38.207V41H89.9539V38.3867C89.9539 37.7266 89.6102 37.3477 88.9969 37.3477C88.2078 37.3477 87.8328 37.957 87.8328 38.6953V41H87.2703ZM92.0539 41V35.3867H92.6164V37.6719H92.6477C92.7336 37.3711 93.0773 36.8438 93.9367 36.8438C94.7297 36.8438 95.3195 37.3008 95.3195 38.2148V41H94.7531V38.3945C94.7531 37.7344 94.3859 37.3477 93.7727 37.3477C93.007 37.3477 92.6164 37.9531 92.6164 38.6953V41H92.0539ZM100.289 36.8438C101.262 36.8438 102.012 37.4883 102.012 38.6328V39.2773C102.012 40.4219 101.266 41.0664 100.289 41.0664C99.293 41.0664 98.5625 40.4336 98.5625 39.2773V38.6328C98.5625 37.5234 99.3047 36.8438 100.289 36.8438ZM100.293 37.3477C99.5938 37.3477 99.125 37.8789 99.125 38.6992V39.2188C99.125 40.0547 99.5703 40.5664 100.293 40.5664C101.008 40.5664 101.445 40.0586 101.445 39.2188V38.6992C101.445 37.8789 100.988 37.3477 100.293 37.3477ZM103.358 41V36.9102H103.92V37.6719H103.952C104.057 37.332 104.35 36.8438 105.209 36.8438C106.034 36.8438 106.608 37.2969 106.608 38.207V41H106.041V38.3867C106.041 37.7266 105.698 37.3477 105.084 37.3477C104.295 37.3477 103.92 37.957 103.92 38.6953V41H103.358ZM108.157 41V35.3867H108.723V41H108.157ZM110.398 41V36.9102H110.96V41H110.398ZM110.245 35.6484C110.245 35.3945 110.437 35.2109 110.675 35.2109C110.925 35.2109 111.113 35.3945 111.113 35.6484C111.113 35.8906 110.925 36.0781 110.675 36.0781C110.437 36.0781 110.245 35.8906 110.245 35.6484ZM112.607 41V36.9102H113.17V37.6719H113.201C113.306 37.332 113.599 36.8438 114.459 36.8438C115.283 36.8438 115.857 37.2969 115.857 38.207V41H115.291V38.3867C115.291 37.7266 114.947 37.3477 114.334 37.3477C113.545 37.3477 113.17 37.957 113.17 38.6953V41H112.607ZM118.883 41.0664C117.805 41.0664 117.18 40.3672 117.18 39.2773V38.6445C117.18 37.5352 117.867 36.8438 118.832 36.8438C119.797 36.8438 120.484 37.5352 120.484 38.6445V39.1016H117.746V39.3164C117.746 40.0312 118.141 40.5664 118.879 40.5664C119.418 40.5664 119.754 40.2969 119.828 40.0273H120.426C120.363 40.4492 119.879 41.0664 118.883 41.0664ZM117.746 38.6602H119.918V38.5938C119.918 37.832 119.484 37.3477 118.832 37.3477C118.18 37.3477 117.746 37.832 117.746 38.5938V38.6602ZM123.524 39.3047V38.5938C123.524 37.5234 124.169 36.8438 125.188 36.8438C126.196 36.8438 126.7 37.4766 126.72 38.0469H126.157C126.106 37.7812 125.887 37.3594 125.196 37.3594C124.473 37.3594 124.087 37.8477 124.087 38.625V39.3047C124.087 40.0742 124.509 40.5508 125.2 40.5508C125.86 40.5508 126.106 40.2383 126.184 39.918H126.747C126.72 40.4648 126.255 41.0664 125.188 41.0664C124.165 41.0664 123.524 40.3945 123.524 39.3047ZM128.03 41V35.3867H128.593V37.6719H128.624C128.71 37.3711 129.054 36.8438 129.913 36.8438C130.706 36.8438 131.296 37.3008 131.296 38.2148V41H130.73V38.3945C130.73 37.7344 130.363 37.3477 129.749 37.3477C128.984 37.3477 128.593 37.9531 128.593 38.6953V41H128.03ZM133.916 41.0664C133.123 41.0664 132.58 40.5703 132.58 39.8164C132.58 39.1133 133.072 38.6289 134.005 38.6289H135.123V38.1875C135.123 37.6094 134.755 37.3477 134.185 37.3477C133.611 37.3477 133.377 37.582 133.291 37.8711H132.74C132.802 37.207 133.353 36.8438 134.212 36.8438C135.029 36.8438 135.693 37.2109 135.693 38.1758V41H135.146V40.4297H135.119C134.927 40.7539 134.548 41.0664 133.916 41.0664ZM134.052 40.5664C134.658 40.5664 135.123 40.1523 135.123 39.5977V39.1016H134.017C133.412 39.1016 133.166 39.4062 133.166 39.8047C133.166 40.3203 133.58 40.5664 134.052 40.5664ZM133.095 36.2305L134.064 35.1094H134.431L135.396 36.2305H134.896L134.255 35.4727H134.24L133.595 36.2305H133.095ZM135.193 35.5156L136.13 34.1602H136.712L135.638 35.5156H135.193ZM137.43 36.9102V35.8867H137.992V36.9102H138.953V37.3828H137.992V39.918C137.992 40.4219 138.156 40.5547 138.684 40.5547C138.781 40.5547 138.949 40.543 139.02 40.5352V41.0078C138.957 41.0195 138.676 41.0391 138.547 41.0391C137.613 41.0391 137.43 40.6758 137.43 39.8906V37.3828H136.777V36.9102H137.43ZM142.188 41V35.3867H142.755V41H142.188ZM146.937 40.3008C146.82 40.6445 146.429 41.0664 145.698 41.0664C144.886 41.0664 144.292 40.7031 144.292 39.7578V36.9102H144.859V39.6172C144.859 40.3164 145.28 40.5742 145.823 40.5742C146.491 40.5742 146.968 40.0703 146.968 39.5117V36.9102H147.491C147.913 36.9102 148.038 36.6562 148.038 36.2891V35.8047H148.554V36.2812C148.554 36.8867 148.265 37.3203 147.605 37.3203H147.534V41H146.968V40.3008H146.937ZM150.873 41.0664C149.877 41.0664 149.146 40.4336 149.146 39.2773V38.6328C149.146 37.5234 149.888 36.8438 150.873 36.8438C151.31 36.8438 151.49 37.0156 151.931 37.0156C152.326 37.0156 152.478 36.7773 152.478 36.3906V35.8047H152.994V36.3438C152.994 36.9805 152.767 37.3828 152.166 37.3906V37.4219C152.377 37.6562 152.595 38.1211 152.595 38.6328V39.2773C152.595 40.4219 151.849 41.0664 150.873 41.0664ZM150.877 37.3438C150.177 37.3438 149.709 37.875 149.709 38.6953V39.2148C149.709 40.0508 150.154 40.5625 150.877 40.5625C151.591 40.5625 152.029 40.0547 152.029 39.2148V38.6953C152.029 37.875 151.572 37.3438 150.877 37.3438ZM150.482 41.9961C150.482 41.7734 150.642 41.6211 150.869 41.6211C151.095 41.6211 151.255 41.7734 151.255 41.9961C151.255 42.2188 151.095 42.3633 150.869 42.3633C150.642 42.3633 150.482 42.2188 150.482 41.9961ZM153.926 41V36.9102H154.488V37.6719H154.52C154.625 37.332 154.918 36.8438 155.777 36.8438C156.602 36.8438 157.176 37.2969 157.176 38.207V41H156.609V38.3867C156.609 37.7266 156.266 37.3477 155.652 37.3477C154.863 37.3477 154.488 37.957 154.488 38.6953V41H153.926ZM160.123 41.9844C160.889 41.9844 161.276 41.5742 161.276 40.8984V40.2422H161.245C161.096 40.5781 160.682 40.918 160.069 40.918C159.163 40.918 158.444 40.2773 158.444 39.2227V38.5469C158.444 37.4805 159.17 36.8438 160.065 36.8438C160.713 36.8438 161.147 37.2305 161.28 37.5508H161.303V36.9102H161.842V40.8789C161.842 41.9648 161.151 42.4844 160.1 42.4844C159.096 42.4844 158.596 41.9609 158.538 41.3906H159.127C159.178 41.6953 159.526 41.9844 160.123 41.9844ZM160.17 37.3477C159.471 37.3477 159.01 37.8711 159.01 38.6797V39.0898C159.01 39.8867 159.498 40.4141 160.178 40.4141C160.893 40.4141 161.276 39.8242 161.276 39.2109V38.5703C161.276 37.9336 160.866 37.3477 160.17 37.3477ZM165.034 39.3047V38.5938C165.034 37.5234 165.679 36.8438 166.698 36.8438C167.706 36.8438 168.21 37.4766 168.23 38.0469H167.667C167.616 37.7812 167.398 37.3594 166.706 37.3594C165.984 37.3594 165.597 37.8477 165.597 38.625V39.3047C165.597 40.0742 166.019 40.5508 166.71 40.5508C167.37 40.5508 167.616 40.2383 167.695 39.918H168.257C168.23 40.4648 167.765 41.0664 166.698 41.0664C165.675 41.0664 165.034 40.3945 165.034 39.3047ZM170.623 41.0664C169.83 41.0664 169.287 40.5703 169.287 39.8164C169.287 39.1133 169.779 38.6289 170.712 38.6289H171.83V38.1875C171.83 37.6094 171.462 37.3477 170.892 37.3477C170.318 37.3477 170.084 37.582 169.998 37.8711H169.447C169.509 37.207 170.06 36.8438 170.92 36.8438C171.736 36.8438 172.4 37.2109 172.4 38.1758V41H171.853V40.4297H171.826C171.634 40.7539 171.255 41.0664 170.623 41.0664ZM170.759 40.5664C171.365 40.5664 171.83 40.1523 171.83 39.5977V39.1016H170.724C170.119 39.1016 169.873 39.4062 169.873 39.8047C169.873 40.3203 170.287 40.5664 170.759 40.5664ZM175.453 36.8438C176.426 36.8438 177.176 37.4883 177.176 38.6328V39.2773C177.176 40.4219 176.43 41.0664 175.453 41.0664C174.457 41.0664 173.727 40.4336 173.727 39.2773V38.6328C173.727 37.5234 174.469 36.8438 175.453 36.8438ZM175.457 37.3477C174.758 37.3477 174.289 37.8789 174.289 38.6992V39.2188C174.289 40.0547 174.734 40.5664 175.457 40.5664C176.172 40.5664 176.609 40.0586 176.609 39.2188V38.6992C176.609 37.8789 176.152 37.3477 175.457 37.3477Z" fill="#0A5C8F"/>
</svg>
