<svg width="37" height="36" viewBox="0 0 37 36" fill="none" xmlns="http://www.w3.org/2000/svg">
<path fill-rule="evenodd" clip-rule="evenodd" d="M14.6855 35.696C10.0651 34.831 5.96654 32.1935 3.26618 28.3475C0.565826 24.5015 -0.522065 19.7522 0.235081 15.1149C1.62302 16.0896 8.72965 17.4417 11.4528 18.9432C16.8816 21.946 16.7235 28.3293 14.6767 35.7224L14.6855 35.696ZM16.2052 0.0917939C12.3877 0.485468 8.79549 2.0867 5.95154 4.66243C3.10759 7.23816 1.16031 10.6539 0.393194 14.4125C0.529659 14.4189 0.66509 14.4395 0.797285 14.474C12.2171 15.7822 24.2166 15.791 25.139 2.84002C25.1243 2.40503 25.2507 1.97696 25.4991 1.61956C22.6003 0.29739 19.4017 -0.229903 16.2316 0.0917939H16.2052ZM19.5521 5.74631C19.7995 6.13296 19.9659 6.5657 20.0414 7.01842C20.1169 7.47114 20.0999 7.93445 19.9913 8.38041C19.8014 9.20582 19.3144 9.9326 18.623 10.4223C17.9317 10.9121 17.0843 11.1306 16.2422 11.0362C15.4001 10.9418 14.6222 10.5412 14.0565 9.91062C13.4908 9.28002 13.1769 8.46348 13.1746 7.61652L16.9519 8.17848L19.5872 5.77265L19.5521 5.74631ZM15.1599 3.31416L21.2475 3.54246L16.8553 7.65165L10.3108 6.67705L15.1599 3.31416Z" fill="white"/>
<path fill-rule="evenodd" clip-rule="evenodd" d="M26.7198 2.25146C30.0814 4.10485 32.762 6.98397 34.3702 10.4683C35.9783 13.9527 36.4298 17.8597 35.6586 21.6187C34.8874 25.3777 32.934 28.7918 30.0836 31.3623C27.2332 33.9328 23.6353 35.5251 19.8152 35.9065C19.083 35.9837 18.3464 36.0131 17.6104 35.9943C22.881 25.9671 26.3509 14.5966 26.7462 3.50705C26.7991 3.08949 26.7903 2.66643 26.7198 2.25146Z" fill="white"/>
</svg>
