<svg width="17" height="21" viewBox="0 0 17 21" fill="none" xmlns="http://www.w3.org/2000/svg">
<path d="M7.42508 0.797983L7.55097 0.797983C11.8506 0.797983 13.923 2.49267 14.2813 6.28876C14.32 6.6858 14.0295 7.0441 13.6228 7.08284C13.2354 7.12157 12.8674 6.82137 12.8287 6.42433C12.5479 3.38359 11.1146 2.25057 7.54129 2.25057L7.4154 2.25057C3.47405 2.25057 2.07957 3.64505 2.07957 7.5864L2.07957 13.9003C2.07957 17.8417 3.47405 19.2361 7.4154 19.2361L7.54129 19.2361C11.134 19.2361 12.5672 18.0838 12.8287 14.9849C12.8771 14.5879 13.2161 14.2877 13.6228 14.3264C14.0295 14.3554 14.32 14.7138 14.291 15.1108C13.9617 18.965 11.8797 20.6887 7.55097 20.6887L7.42508 20.6887C2.67028 20.6887 0.636665 18.6551 0.636666 13.9003L0.636666 7.5864C0.636667 2.8316 2.67029 0.797982 7.42508 0.797983Z" fill="#51545F"/>
<path d="M16.2215 11.4699H8.79052C8.5228 11.4699 8.30078 11.1407 8.30078 10.7436C8.30078 10.3466 8.5228 10.0173 8.79052 10.0173H16.2215C16.4893 10.0173 16.7113 10.3466 16.7113 10.7436C16.7113 11.1407 16.4893 11.4699 16.2215 11.4699Z" fill="#026E74"/>
<path d="M11.1867 14.714C11.0027 14.714 10.8187 14.6462 10.6735 14.501L7.42937 11.2569C7.14854 10.976 7.14854 10.5112 7.42937 10.2304L10.6735 6.98626C10.9543 6.70543 11.4191 6.70543 11.7 6.98626C11.9808 7.26709 11.9808 7.73192 11.7 8.01275L8.96912 10.7436L11.7 13.4745C11.9808 13.7553 11.9808 14.2201 11.7 14.501C11.5644 14.6462 11.3707 14.714 11.1867 14.714Z" fill="#026E74"/>
</svg>
