<svg width="32" height="32" viewBox="0 0 32 32" fill="none" xmlns="http://www.w3.org/2000/svg">
<rect opacity="0.1" width="32" height="32" rx="8" fill="white"/>
<path d="M3 19.88V18.656L7.596 12.524L8.136 13.148H3.312V11.48H9.564V12.692L4.992 18.836L4.44 18.272H9.696V19.88H3Z" fill="white"/>
<path d="M13.5471 20C13.0191 20 12.5431 19.856 12.1191 19.568C11.6951 19.28 11.3591 18.888 11.1111 18.392C10.8631 17.896 10.7391 17.328 10.7391 16.688C10.7391 16.048 10.8631 15.484 11.1111 14.996C11.3671 14.5 11.7111 14.112 12.1431 13.832C12.5751 13.544 13.0671 13.4 13.6191 13.4C13.9311 13.4 14.2151 13.448 14.4711 13.544C14.7351 13.632 14.9631 13.756 15.1551 13.916C15.3551 14.076 15.5231 14.26 15.6591 14.468C15.7951 14.676 15.8911 14.9 15.9471 15.14L15.5871 15.08V13.532H17.2791V19.88H15.5631V18.356L15.9471 18.32C15.8831 18.544 15.7791 18.756 15.6351 18.956C15.4911 19.156 15.3111 19.336 15.0951 19.496C14.8871 19.648 14.6511 19.772 14.3871 19.868C14.1231 19.956 13.8431 20 13.5471 20ZM14.0151 18.524C14.3351 18.524 14.6151 18.448 14.8551 18.296C15.0951 18.144 15.2791 17.932 15.4071 17.66C15.5431 17.38 15.6111 17.056 15.6111 16.688C15.6111 16.328 15.5431 16.012 15.4071 15.74C15.2791 15.468 15.0951 15.256 14.8551 15.104C14.6151 14.944 14.3351 14.864 14.0151 14.864C13.7031 14.864 13.4271 14.944 13.1871 15.104C12.9551 15.256 12.7711 15.468 12.6351 15.74C12.4991 16.012 12.4311 16.328 12.4311 16.688C12.4311 17.056 12.4991 17.38 12.6351 17.66C12.7711 17.932 12.9551 18.144 13.1871 18.296C13.4271 18.448 13.7031 18.524 14.0151 18.524Z" fill="white"/>
<path d="M18.9995 19.88V11H20.7035V19.88H18.9995Z" fill="white"/>
<path d="M25.2676 20C24.6196 20 24.0396 19.86 23.5276 19.58C23.0236 19.292 22.6236 18.9 22.3276 18.404C22.0396 17.908 21.8956 17.34 21.8956 16.7C21.8956 16.06 22.0396 15.496 22.3276 15.008C22.6236 14.512 23.0236 14.12 23.5276 13.832C24.0396 13.544 24.6196 13.4 25.2676 13.4C25.9076 13.4 26.4796 13.544 26.9836 13.832C27.4956 14.12 27.8956 14.512 28.1836 15.008C28.4716 15.496 28.6156 16.06 28.6156 16.7C28.6156 17.34 28.4716 17.908 28.1836 18.404C27.8956 18.9 27.4956 19.292 26.9836 19.58C26.4796 19.86 25.9076 20 25.2676 20ZM25.2676 18.512C25.5796 18.512 25.8596 18.436 26.1076 18.284C26.3556 18.124 26.5476 17.908 26.6836 17.636C26.8276 17.356 26.8996 17.044 26.8996 16.7C26.8996 16.348 26.8276 16.036 26.6836 15.764C26.5476 15.484 26.3556 15.268 26.1076 15.116C25.8596 14.956 25.5796 14.876 25.2676 14.876C24.9476 14.876 24.6636 14.956 24.4156 15.116C24.1676 15.276 23.9716 15.492 23.8276 15.764C23.6836 16.036 23.6156 16.348 23.6236 16.7C23.6156 17.044 23.6836 17.356 23.8276 17.636C23.9716 17.908 24.1676 18.124 24.4156 18.284C24.6636 18.436 24.9476 18.512 25.2676 18.512Z" fill="white"/>
</svg>
