<svg width="20" height="20" viewBox="0 0 20 20" fill="none" xmlns="http://www.w3.org/2000/svg">
<g clip-path="url(#clip0_12698_14966)">
<path d="M0 2.5C0 1.83696 0.263392 1.20107 0.732232 0.732232C1.20107 0.263392 1.83696 0 2.5 0H17.5C18.163 0 18.7989 0.263392 19.2677 0.732232C19.7366 1.20107 20 1.83696 20 2.5V12.5C20 13.163 19.7366 13.7989 19.2677 14.2677C18.7989 14.7366 18.163 15 17.5 15H14.375C14.181 15 13.9895 15.0451 13.816 15.132C13.6424 15.2188 13.4914 15.3447 13.375 15.5L11 18.6663C10.8836 18.8215 10.7326 18.9475 10.559 19.0343C10.3855 19.1211 10.194 19.1663 10 19.1663C9.80594 19.1663 9.61455 19.1211 9.44099 19.0343C9.26741 18.9475 9.11644 18.8215 9 18.6663L6.625 15.5C6.50856 15.3447 6.35759 15.2188 6.18401 15.132C6.01045 15.0451 5.81906 15 5.625 15H2.5C1.83696 15 1.20107 14.7366 0.732232 14.2677C0.263392 13.7989 0 13.163 0 12.5V2.5ZM8.9925 5.9575C8.9101 5.83452 8.815 5.72056 8.70875 5.6175C8.54169 5.44546 8.34251 5.30788 8.1225 5.2125L8.1125 5.2075C7.81646 5.07005 7.49389 4.99921 7.1675 5C5.97 5 5 5.9325 5 7.08375C5 8.23375 5.97 9.16625 7.1675 9.16625C7.59625 9.16625 7.995 9.0475 8.33125 8.84125C8.16 9.3275 7.84375 9.84625 7.31875 10.3663C7.2693 10.4145 7.23025 10.4724 7.20401 10.5363C7.17777 10.6003 7.16491 10.6689 7.1662 10.738C7.16749 10.8071 7.1829 10.8752 7.2115 10.9381C7.2401 11.001 7.28129 11.0574 7.3325 11.1038C7.54875 11.3038 7.89125 11.2975 8.1 11.0913C9.7675 9.43 9.8125 7.64375 9.27625 6.45875C9.19749 6.28359 9.10249 6.1162 8.9925 5.95875V5.9575ZM13.75 8.84125C13.58 9.3275 13.2625 9.84625 12.7375 10.3663C12.6881 10.4146 12.6491 10.4726 12.623 10.5365C12.5969 10.6005 12.5841 10.6691 12.5855 10.7382C12.587 10.8073 12.6025 10.8754 12.6312 10.9383C12.6599 11.0011 12.7012 11.0575 12.7525 11.1038C12.9675 11.3038 13.31 11.2975 13.5187 11.0913C15.1862 9.43 15.2312 7.64375 14.6962 6.45875C14.617 6.28356 14.5216 6.11616 14.4113 5.95875C14.329 5.83533 14.2339 5.72095 14.1275 5.6175C13.9605 5.44544 13.7613 5.30784 13.5413 5.2125L13.5312 5.2075C13.2356 5.07022 12.9135 4.9994 12.5875 5C11.3912 5 10.42 5.9325 10.42 7.08375C10.42 8.23375 11.3912 9.16625 12.5875 9.16625C13.0162 9.16625 13.415 9.0475 13.7513 8.84125H13.75Z" fill="white"/>
</g>
<defs>
<clipPath id="clip0_12698_14966">
<rect width="20" height="20" fill="white"/>
</clipPath>
</defs>
</svg>
