<svg width="24" height="24" viewBox="0 0 24 24" fill="none" xmlns="http://www.w3.org/2000/svg">
<path d="M2 4.5C2 3.83696 2.26339 3.20107 2.73223 2.73223C3.20107 2.26339 3.83696 2 4.5 2H19.5C20.163 2 20.7989 2.26339 21.2677 2.73223C21.7366 3.20107 22 3.83696 22 4.5V14.5C22 15.163 21.7366 15.7989 21.2677 16.2677C20.7989 16.7366 20.163 17 19.5 17H16.375C16.181 17 15.9895 17.0451 15.816 17.132C15.6424 17.2188 15.4914 17.3447 15.375 17.5L13 20.6663C12.8836 20.8215 12.7326 20.9475 12.559 21.0343C12.3855 21.1211 12.194 21.1663 12 21.1663C11.8059 21.1663 11.6146 21.1211 11.441 21.0343C11.2674 20.9475 11.1164 20.8215 11 20.6663L8.625 17.5C8.50856 17.3447 8.35759 17.2188 8.18401 17.132C8.01045 17.0451 7.81906 17 7.625 17H4.5C3.83696 17 3.20107 16.7366 2.73223 16.2677C2.26339 15.7989 2 15.163 2 14.5V4.5ZM10.9925 7.9575C10.9101 7.83452 10.815 7.72056 10.7087 7.6175C10.5417 7.44546 10.3425 7.30788 10.1225 7.2125L10.1125 7.2075C9.81646 7.07005 9.49389 6.99921 9.1675 7C7.97 7 7 7.9325 7 9.08375C7 10.2337 7.97 11.1663 9.1675 11.1663C9.59625 11.1663 9.995 11.0475 10.3313 10.8412C10.16 11.3275 9.84375 11.8463 9.31875 12.3663C9.2693 12.4145 9.23025 12.4724 9.20401 12.5363C9.17777 12.6003 9.16491 12.6689 9.1662 12.738C9.16749 12.8071 9.1829 12.8752 9.2115 12.9381C9.2401 13.001 9.28129 13.0574 9.3325 13.1038C9.54875 13.3038 9.89125 13.2975 10.1 13.0913C11.7675 11.43 11.8125 9.64375 11.2762 8.45875C11.1975 8.28359 11.1025 8.1162 10.9925 7.95875V7.9575ZM15.75 10.8412C15.58 11.3275 15.2625 11.8463 14.7375 12.3663C14.6881 12.4146 14.6491 12.4726 14.623 12.5365C14.5969 12.6005 14.5841 12.6691 14.5855 12.7382C14.587 12.8073 14.6025 12.8754 14.6312 12.9383C14.6599 13.0011 14.7012 13.0575 14.7525 13.1038C14.9675 13.3038 15.31 13.2975 15.5187 13.0913C17.1862 11.43 17.2312 9.64375 16.6962 8.45875C16.617 8.28356 16.5216 8.11616 16.4113 7.95875C16.329 7.83533 16.2339 7.72095 16.1275 7.6175C15.9605 7.44544 15.7613 7.30784 15.5413 7.2125L15.5312 7.2075C15.2356 7.07022 14.9135 6.9994 14.5875 7C13.3912 7 12.42 7.9325 12.42 9.08375C12.42 10.2337 13.3912 11.1663 14.5875 11.1663C15.0162 11.1663 15.415 11.0475 15.7513 10.8412H15.75Z" fill="white"/>
</svg>
