<svg width="144" height="84" viewBox="0 0 144 84" fill="none" xmlns="http://www.w3.org/2000/svg">
<path d="M62.0799 31.0851H9.71289C9.71289 31.0851 13.6823 19.1521 23.2026 25.1186C23.2026 25.1186 25.1847 14.7763 33.9143 13.9836C42.6439 13.1908 44.626 21.5303 44.626 21.5303C44.626 21.5303 59.3018 18.7557 62.0799 31.0851Z" fill="#D5F9FD"/>
<path opacity="0.2" d="M12.9332 29.4003C14.6631 29.3846 16.3523 28.8722 17.8007 27.9239C19.2492 26.9755 20.3963 25.6309 21.1061 24.0493C21.8302 24.3323 22.5267 24.6814 23.187 25.0924C23.4399 23.9496 23.8059 22.8349 24.2795 21.7649C24.7078 23.1596 25.4684 24.4288 26.4957 25.4627C28.1857 27.1368 30.4668 28.074 32.8426 28.0704C35.2184 28.074 37.4995 27.1368 39.1895 25.4627C40.8684 23.7724 41.8128 21.4852 41.8167 19.0998C41.8493 18.1738 41.7298 17.2488 41.4629 16.3617L41.4317 16.2678C42.955 17.6973 44.0596 19.517 44.626 21.5302C44.626 21.5302 45.193 21.4207 46.1138 21.3425C46.4665 23.069 47.3166 24.6539 48.5589 25.9008L48.7722 26.1146C50.4564 27.7975 52.7361 28.7443 55.1139 28.7484C57.0321 28.7426 58.8984 28.1232 60.4411 26.9804C61.2138 28.2426 61.7679 29.6269 62.0799 31.0745H9.71289C9.95963 30.3816 10.2588 29.7086 10.6077 29.0613C11.3637 29.2805 12.1462 29.3945 12.9332 29.4003Z" fill="#66ECFB"/>
<path d="M22.6982 24.4561C22.7658 24.0128 22.9115 23.5487 23.0311 23.048C23.1039 22.8028 23.1924 22.5525 23.2756 22.2969C23.3546 22.0328 23.4483 21.7734 23.5566 21.5198C23.9799 20.4185 24.5261 19.3688 25.1849 18.3906C25.5192 17.8867 25.8822 17.4026 26.2722 16.9407C26.6646 16.5019 27.0815 16.0858 27.5207 15.6942C27.9368 15.3208 28.3746 14.9725 28.8317 14.6511L29.4977 14.2599C29.702 14.1308 29.916 14.0174 30.1375 13.9209C30.8151 13.5974 31.5225 13.3406 32.2497 13.1543L33.0873 12.9874C33.3648 12.9326 33.6472 12.9064 33.9301 12.9091C34.2559 12.8923 34.5823 12.8923 34.9081 12.9091C35.2827 12.9404 35.7093 12.9561 36.1671 13.0239C37.2055 13.1889 38.2148 13.5033 39.1636 13.9574C39.6954 14.2105 40.2083 14.5015 40.6983 14.8284C41.1938 15.1777 41.6617 15.5648 42.0978 15.9862C42.3223 16.1887 42.5342 16.4046 42.7325 16.633L43.3099 17.3318C43.4972 17.5613 43.6429 17.8221 43.8042 18.062C43.9692 18.2968 44.1153 18.5445 44.2411 18.8026C44.366 19.0582 44.4909 19.3241 44.6157 19.5484C44.7406 19.7727 44.803 20.07 44.8966 20.2942C45.0653 20.748 45.1942 21.2157 45.2816 21.692C45.3701 22.09 45.4258 22.4947 45.4481 22.9019C45.4702 23.0749 45.4824 23.2491 45.4845 23.4235C45.4845 23.5852 45.4845 23.726 45.4845 23.8564C45.4845 24.3779 45.4273 24.67 45.3805 24.6648C45.2816 24.4104 45.2304 24.1398 45.2296 23.8668C45.2296 23.7416 45.2036 23.606 45.188 23.4496C45.1724 23.2931 45.1255 23.1418 45.0943 22.9697C45.0299 22.5833 44.9395 22.2018 44.8238 21.8276C44.2368 19.8231 43.0863 18.0305 41.5099 16.6643C41.0916 16.2975 40.6464 15.9628 40.1781 15.6629C39.7197 15.3847 39.2416 15.1406 38.7475 14.9327C37.8783 14.5589 36.9603 14.3113 36.0214 14.1973C35.6156 14.1504 35.2359 14.1556 34.9029 14.1348C34.57 14.1139 34.2786 14.1713 34.0393 14.1817C33.7871 14.1881 33.5362 14.2195 33.2902 14.2756L32.5462 14.4007C31.8923 14.5428 31.2544 14.7507 30.6422 15.0214C30.4385 15.0981 30.2418 15.1923 30.0543 15.303L29.4404 15.6316C29.0139 15.9005 28.604 16.1948 28.2127 16.513C27.7896 16.8525 27.3883 17.2183 27.0109 17.6083C26.6279 18.0238 26.2668 18.459 25.9288 18.9121C25.26 19.8159 24.688 20.7879 24.2225 21.8119C24.1027 22.0489 23.9967 22.2927 23.9051 22.5421C23.8063 22.782 23.7074 23.0167 23.619 23.2514C23.4681 23.726 23.2912 24.1641 23.1924 24.5865C22.7086 26.2607 22.5889 27.4394 22.4849 27.429C22.3808 27.4185 22.3548 26.2242 22.6982 24.4561Z" fill="white"/>
<path d="M10.1756 30.1774C10.3473 30.2505 11.1901 28.4303 12.4387 26.9647C12.981 26.2939 13.6191 25.7069 14.3323 25.2228C14.5555 25.0618 14.7943 24.9237 15.045 24.8107L15.326 24.6751L15.3936 24.6334C15.457 24.5941 15.5231 24.5592 15.5913 24.5291C15.7786 24.4613 16.0283 24.3413 16.3456 24.2318C17.1519 23.9941 17.994 23.9022 18.8324 23.9606C19.0662 23.9773 19.2989 24.0069 19.5295 24.0493C19.7568 24.0778 19.9825 24.1178 20.2058 24.1692C20.6376 24.2944 21.0538 24.3726 21.3971 24.4926C22.0839 24.7325 22.5677 24.8681 22.6093 24.7899C22.6509 24.7116 22.2451 24.43 21.5688 24.0389C21.2411 23.8459 20.8249 23.6894 20.3879 23.4912C20.157 23.4017 19.9206 23.3268 19.6803 23.267C19.4352 23.1862 19.1849 23.1217 18.9312 23.074C17.9728 22.8845 16.9867 22.8845 16.0283 23.074C15.6329 23.1731 15.3156 23.293 15.0867 23.3608C14.9999 23.3887 14.9162 23.4254 14.837 23.4704L14.7485 23.5121L14.4208 23.6998C14.1387 23.8606 13.8722 24.0474 13.6248 24.2579C12.8724 24.864 12.2224 25.5878 11.6999 26.4015C10.571 28.1591 10.03 30.1253 10.1756 30.1774Z" fill="white"/>
<path d="M45.0476 21.4627C45.0789 21.5566 45.7552 21.3845 46.7748 21.2854C48.0164 21.1628 49.2686 21.2031 50.4997 21.4053C51.7177 21.6113 52.9069 21.9614 54.0425 22.4484C54.5055 22.6414 54.8801 22.8344 55.1402 22.97L55.5408 23.189C55.5408 23.189 55.6917 23.262 55.9466 23.4029C56.3034 23.5886 56.6507 23.7923 56.9871 24.0131C58.0212 24.6693 58.9581 25.4682 59.7703 26.3861C60.586 27.313 61.2402 28.3708 61.7056 29.5154C62.0854 30.4542 62.2258 31.1426 62.3247 31.127C62.4235 31.1113 62.4235 30.4072 62.1738 29.3589C61.8402 28.0791 61.2587 26.8775 60.4622 25.8228C59.6664 24.7633 58.7178 23.8282 57.6478 23.0482C57.2108 22.7301 56.831 22.4849 56.5605 22.3233L56.1339 22.0677L55.6813 21.8539C55.3951 21.7235 54.979 21.5409 54.4691 21.3636C53.2255 20.9107 51.9275 20.6249 50.609 20.5135C49.2966 20.397 47.974 20.4921 46.6916 20.7951C45.6563 21.0559 45.0216 21.3897 45.0476 21.4627Z" fill="white"/>
<path d="M102.039 23.919H131.562C131.562 23.919 129.325 17.1911 123.957 20.555C123.957 20.555 122.838 14.7242 117.917 14.2965C112.995 13.8688 111.882 18.5367 111.882 18.5367C111.882 18.5367 103.6 16.9668 102.039 23.919Z" fill="#D5F9FD"/>
<path opacity="0.2" d="M129.747 22.9647C128.772 22.955 127.82 22.6661 127.004 22.132C126.187 21.5979 125.54 20.8409 125.138 19.9502C124.726 20.1132 124.33 20.3158 123.957 20.5552C123.815 19.9097 123.608 19.2805 123.338 18.6776C123.099 19.4654 122.67 20.182 122.089 20.7638C121.142 21.7151 119.856 22.2515 118.515 22.2554C117.85 22.2547 117.192 22.1226 116.578 21.8667C115.963 21.6107 115.406 21.2359 114.936 20.7638C113.988 19.8131 113.455 18.5247 113.453 17.1808C113.432 16.6518 113.499 16.1231 113.651 15.6161V15.564C112.795 16.3674 112.175 17.3899 111.856 18.5211C111.579 18.4719 111.299 18.4371 111.019 18.4168C110.818 19.3898 110.339 20.2832 109.64 20.988C109.598 21.0246 109.562 21.0663 109.52 21.108C108.568 22.0549 107.282 22.5871 105.941 22.5892C104.86 22.5866 103.808 22.2376 102.939 21.593C102.506 22.3061 102.194 23.0871 102.019 23.9035H131.542C131.398 23.5116 131.224 23.1315 131.022 22.7665C130.607 22.8876 130.179 22.9543 129.747 22.9647Z" fill="#66ECFB"/>
<path d="M124.243 20.1796C124.201 19.9293 124.118 19.6581 124.051 19.3869C124.014 19.2461 123.962 19.1052 123.915 18.9644C123.869 18.8236 123.817 18.6671 123.754 18.5211C123.519 17.8996 123.211 17.308 122.838 16.7583C122.65 16.4734 122.445 16.1999 122.225 15.9395C122.006 15.691 121.772 15.4576 121.522 15.2406C121.288 15.0348 121.041 14.8433 120.784 14.6669L120.409 14.4426C120.293 14.3698 120.171 14.307 120.045 14.2549C119.665 14.0697 119.268 13.9246 118.859 13.822L118.385 13.7281C118.228 13.6966 118.067 13.6808 117.907 13.6812C117.756 13.6812 117.568 13.6812 117.355 13.6812C117.142 13.6812 116.908 13.6812 116.648 13.7437C116.062 13.8363 115.493 14.0119 114.957 14.2653C114.658 14.4085 114.37 14.5723 114.093 14.7555C113.815 14.954 113.551 15.1718 113.303 15.4075C113.176 15.5244 113.057 15.648 112.944 15.7778L112.621 16.1689C112.517 16.2993 112.434 16.4453 112.34 16.581C112.247 16.7127 112.165 16.8523 112.096 16.9982L111.882 17.4206C111.825 17.5615 111.778 17.7023 111.726 17.8379C111.633 18.0942 111.56 18.3575 111.508 18.6254C111.459 18.8504 111.428 19.0788 111.414 19.3086C111.414 19.413 111.414 19.5068 111.414 19.5955C111.414 19.6841 111.414 19.7676 111.414 19.8406C111.414 20.1327 111.445 20.2944 111.471 20.2944C111.497 20.2944 111.523 20.1275 111.555 19.8458C111.555 19.7728 111.555 19.6946 111.555 19.6111C111.555 19.5277 111.591 19.4338 111.607 19.3399C111.643 19.1209 111.695 18.9047 111.763 18.6932C112.09 17.5633 112.737 16.5526 113.625 15.783C113.861 15.5754 114.113 15.3871 114.379 15.2197C114.637 15.0618 114.907 14.9241 115.186 14.8077C115.684 14.5965 116.209 14.456 116.746 14.3905C116.975 14.3644 117.194 14.3905 117.381 14.354C117.568 14.3174 117.73 14.38 117.865 14.3852C118.007 14.3879 118.148 14.4054 118.286 14.4374L118.708 14.5052C119.075 14.5881 119.434 14.705 119.779 14.8546C119.895 14.8989 120.006 14.953 120.112 15.0163L120.456 15.1989C120.697 15.3602 120.93 15.5343 121.153 15.7204C121.387 15.9029 121.6 16.1272 121.829 16.341C122.045 16.5753 122.248 16.8208 122.438 17.0764C122.813 17.5866 123.135 18.1335 123.4 18.7089C123.468 18.8497 123.53 18.9853 123.582 19.1209C123.634 19.2565 123.692 19.3921 123.738 19.5225C123.827 19.7885 123.926 20.044 123.983 20.2787C124.254 21.2227 124.321 21.8851 124.378 21.8799C124.437 21.3096 124.391 20.7333 124.243 20.1796Z" fill="white"/>
<path d="M131.303 23.4027C131.204 23.4496 130.73 22.417 130.023 21.5929C129.726 21.2168 129.375 20.8864 128.982 20.6124C128.855 20.5233 128.721 20.4448 128.582 20.3777L128.426 20.3047L128.384 20.2786C128.347 20.2563 128.309 20.2371 128.27 20.2213C128.171 20.1847 128.025 20.1117 127.848 20.0544C127.393 19.9176 126.917 19.8664 126.444 19.9031C126.313 19.911 126.182 19.9267 126.053 19.9501C125.923 19.9761 125.793 19.9813 125.674 20.0179C125.429 20.0857 125.195 20.1326 124.997 20.2004C124.612 20.336 124.337 20.4142 124.316 20.3673C124.295 20.3203 124.524 20.1639 124.888 19.9448C125.106 19.8305 125.33 19.7277 125.559 19.6371C125.688 19.5867 125.82 19.5431 125.954 19.5067C126.094 19.4634 126.237 19.4286 126.381 19.4024C126.92 19.2942 127.475 19.2942 128.015 19.4024C128.238 19.4546 128.415 19.5224 128.535 19.5641C128.583 19.5789 128.63 19.5981 128.675 19.6215H128.727L128.909 19.7258C129.068 19.8178 129.22 19.9225 129.362 20.0387C129.785 20.3812 130.151 20.7898 130.444 21.2487C130.901 21.8856 131.196 22.6252 131.303 23.4027Z" fill="#242424"/>
<path d="M111.637 18.4898C111.31 18.4888 110.985 18.4556 110.664 18.3907C109.971 18.3232 109.271 18.346 108.583 18.4585C107.896 18.5733 107.225 18.7712 106.586 19.0478C106.32 19.1573 106.112 19.2721 105.967 19.3451L105.738 19.4703L105.509 19.585C105.363 19.6632 105.16 19.778 104.921 19.9292C104.342 20.3022 103.817 20.7532 103.36 21.2696C102.901 21.7925 102.532 22.3882 102.268 23.0324C102.178 23.3461 102.061 23.6515 101.919 23.9451C101.864 23.6109 101.895 23.2682 102.008 22.949C102.193 22.2275 102.521 21.5503 102.97 20.9567C103.407 20.3577 103.933 19.83 104.531 19.392C104.727 19.2427 104.932 19.1051 105.145 18.98L105.384 18.8392L105.639 18.714C105.863 18.6104 106.092 18.5182 106.326 18.4376C107.027 18.1836 107.758 18.0223 108.5 17.9578C109.239 17.891 109.984 17.9456 110.706 18.1195C111.041 18.1693 111.359 18.296 111.637 18.4898Z" fill="white"/>
<g style="mix-blend-mode:multiply">
<path d="M57.3972 49.7983C51.8775 43.3103 44.9376 42.9765 40.604 43.6024L40.1774 43.6701L39.9121 43.7119L39.5999 43.7692L39.3502 43.8214L39.0173 43.8892L38.6999 43.9622L38.4658 44.0196L38.2473 44.077L38.008 44.1395L37.7323 44.2178L37.5554 44.2699L37.3942 44.3221L37.2069 44.3794L37.0352 44.4368L36.8999 44.4838L36.8063 44.5151L36.6866 44.5568L36.6138 44.5881H36.541H36.515H36.4889C36.4473 44.5307 36.4005 44.4785 36.3589 44.4264C29.7883 35.8783 22.0524 34.9238 17.3234 35.3567H17.2402C16.4839 35.4296 15.7319 35.5428 14.9876 35.6957C13.7456 35.8516 12.5244 36.1437 11.3459 36.5667L1.6123 65.9506C14.3477 60.7247 25.5224 74.8273 25.5224 74.8273C36.1508 69.9821 49.1775 83.7614 49.1775 83.7614L60.6227 53.9915C59.7031 52.4802 58.6215 51.0741 57.3972 49.7983Z" fill="#D2D2D2"/>
</g>
<path d="M9.75443 35.0329C9.75443 35.0329 23.7644 29.4263 34.6321 43.8105C34.6321 43.8105 49.8698 37.4685 58.9948 52.4056L47.5496 82.1755C47.5496 82.1755 34.5437 68.4014 23.8892 73.2414C23.8892 73.2414 12.725 59.1596 0 64.422L9.75443 35.0329Z" fill="#9FE08B"/>
<g style="mix-blend-mode:multiply" opacity="0.5">
<path d="M10.6436 35.1272C10.6436 35.1272 24.1177 29.7813 34.6109 43.5814C34.6109 43.5814 49.2712 37.5315 58.0788 51.8636L47.1538 80.366C47.1538 80.366 34.5849 67.1396 24.3571 71.7605C24.3571 71.7605 13.583 58.2316 1.3418 63.2645L10.6436 35.1272Z" fill="#D2D2D2"/>
</g>
<path d="M11.3306 34.7411C11.3306 34.7411 24.581 29.463 34.8869 43.0545C34.8869 43.0545 49.2974 37.0828 57.949 51.1906L47.1697 79.2706C47.1697 79.2706 34.8297 66.232 24.7683 70.8164C24.7683 70.8164 14.1867 57.4961 2.14844 62.4716L11.3306 34.7411Z" fill="white"/>
<path opacity="0.2" d="M27.229 64.3338C26.0163 64.1714 24.8238 63.883 23.6706 63.4732C19.1048 61.817 15.3707 58.429 13.2727 54.0391C11.1747 49.6492 10.8808 44.6087 12.4543 40.0037C13.2674 37.6813 14.5476 35.5511 16.2156 33.7451C14.5502 33.8316 12.9054 34.1547 11.3306 34.7048L2.14844 62.4301C14.1867 57.4598 24.7683 70.7749 24.7683 70.7749L24.9816 70.6914L27.229 64.3338Z" fill="#D2D2D2"/>
<path opacity="0.2" d="M46.4002 71.7707C41.8345 70.1145 38.1007 66.7262 36.0036 62.336C33.9065 57.9459 33.614 52.9054 35.1891 48.3011C36.0134 45.9583 37.3116 43.8116 39.0025 41.9956C37.5958 42.1858 36.2152 42.5358 34.8874 43.0387L34.7574 42.877L25.0029 70.7276C35.0227 66.4457 47.191 79.2705 47.191 79.2705L49.7558 72.5947C48.6133 72.4295 47.4895 72.1535 46.4002 71.7707Z" fill="#D2D2D2"/>
<g style="mix-blend-mode:multiply" opacity="0.5">
<g style="mix-blend-mode:multiply">
<path d="M25.3359 69.7266C25.4745 68.9935 25.6728 68.2731 25.929 67.5726C26.3296 66.3 26.881 64.605 27.4377 62.9152C28.5614 59.5356 29.6903 56.1351 29.6903 56.1351L32.1458 49.4854C32.7649 47.8269 33.3892 46.1684 33.873 44.9323C34.1088 44.23 34.4011 43.548 34.747 42.8931C34.6115 43.6212 34.4148 44.3365 34.1591 45.0314C33.7638 46.2988 33.2123 47.9833 32.6609 49.6679C31.5423 53.0319 30.4186 56.3907 30.4186 56.3907L27.9527 63.0769C27.3336 64.7406 26.7041 66.4096 26.2151 67.6561C25.9801 68.3696 25.6861 69.0622 25.3359 69.7266Z" fill="#D2D2D2"/>
</g>
</g>
<path opacity="0.2" d="M24.6955 59.6864C24.6551 60.664 24.2569 61.5923 23.577 62.2941C23.2169 62.6714 22.7863 62.9738 22.3096 63.1841C21.8329 63.3944 21.3196 63.5084 20.7989 63.5198C20.2934 63.5411 19.789 63.4566 19.3178 63.2716C18.8467 63.0866 18.4191 62.8052 18.0625 62.4454L14.889 59.3735C14.3272 58.8259 14.1451 58.3304 14.3428 57.9549C14.4797 57.6967 14.6551 57.461 14.863 57.256L21.3608 50.5229C21.495 50.3791 21.6375 50.2433 21.7874 50.116C21.9153 50.0279 22.0555 49.9593 22.2036 49.9126C22.5261 49.8083 22.9475 50.0013 23.4625 50.502L26.5007 53.4435C26.8545 53.7717 27.1359 54.1705 27.3267 54.6142C27.5175 55.0579 27.6136 55.5368 27.6088 56.02C27.6264 56.5088 27.543 56.996 27.364 57.451C27.1849 57.906 26.9141 58.319 26.5684 58.6642C26.0664 59.1933 25.4112 59.5509 24.6955 59.6864ZM21.5741 60.0828C21.7304 59.9328 21.859 59.7562 21.9539 59.5612C22.0134 59.4141 22.0134 59.2494 21.9539 59.1023C21.8041 58.8174 21.603 58.5627 21.3608 58.3513C21.1167 58.1434 20.9468 57.8614 20.877 57.5481C20.8814 57.3735 20.9242 57.2021 21.0025 57.0461C21.0807 56.8901 21.1924 56.7534 21.3296 56.6458C21.6677 56.2912 21.9643 56.1243 22.2244 56.166C22.5748 56.2517 22.8906 56.4428 23.1296 56.7136C23.4469 57.0265 23.7227 57.1308 23.9516 57.0213C24.1199 56.9066 24.2736 56.7717 24.4094 56.6197C24.496 56.5454 24.5611 56.449 24.5977 56.3407C24.6343 56.2324 24.6411 56.1162 24.6175 56.0043C24.5193 55.7333 24.3526 55.4924 24.1336 55.3054L22.4481 53.6678L18.0261 58.2522L20.0082 60.1715C20.5128 60.6461 21.0278 60.6461 21.5585 60.0828H21.5741Z" fill="#D2D2D2"/>
<path d="M24.3475 58.6436C24.3071 59.6211 23.9089 60.5495 23.229 61.2513C22.8694 61.6292 22.4389 61.9321 21.9621 62.1424C21.4853 62.3528 20.9717 62.4665 20.4509 62.4769C19.9453 62.4983 19.4409 62.4138 18.9698 62.2288C18.4986 62.0438 18.0711 61.7624 17.7144 61.4026L14.541 58.3307C13.9792 57.783 13.7971 57.2876 14.0208 56.912C14.1569 56.6534 14.3325 56.4176 14.541 56.2132L21.0127 49.5009C21.147 49.3571 21.2894 49.2213 21.4393 49.0941C21.569 49.0058 21.711 48.9373 21.8607 48.8907C22.1833 48.7864 22.5995 48.9793 23.1145 49.48L26.1527 52.4215C26.5061 52.7503 26.7876 53.149 26.9792 53.5925C27.1709 54.036 27.2685 54.5146 27.266 54.998C27.2823 55.4866 27.1983 55.9735 27.0194 56.4283C26.8404 56.8831 26.5702 57.2963 26.2255 57.6422C25.718 58.1629 25.0618 58.5128 24.3475 58.6436ZM21.226 59.04C21.3824 58.89 21.511 58.7134 21.6058 58.5184C21.6654 58.3712 21.6654 58.2066 21.6058 58.0594C21.4592 57.7754 21.2617 57.5208 21.0232 57.3084C20.7762 57.1021 20.6043 56.8197 20.5341 56.5052C20.5385 56.3307 20.5814 56.1593 20.6596 56.0033C20.7379 55.8473 20.8496 55.7106 20.9867 55.603C21.3249 55.2483 21.6214 55.0814 21.8815 55.1231C22.2319 55.2089 22.5478 55.4 22.7867 55.6708C23.1093 55.9837 23.3798 56.088 23.6087 55.9785C23.7781 55.8651 23.932 55.7301 24.0665 55.5769C24.1541 55.5032 24.2198 55.4069 24.2565 55.2984C24.2932 55.1899 24.2995 55.0733 24.2746 54.9615C24.1788 54.6905 24.0138 54.4496 23.796 54.2626L22.1052 52.6249L17.6884 57.2093L19.6653 59.1286C20.1648 59.6032 20.685 59.6032 21.2104 59.04H21.226Z" fill="#F7DB00"/>
<path opacity="0.2" d="M19.7589 37.2444L23.4005 46.3088C23.525 46.5649 23.5975 46.8433 23.6138 47.1277C23.5878 47.5084 23.26 47.8265 22.6358 48.0925C22.3687 48.2252 22.0754 48.2965 21.7774 48.3012C21.5982 48.2997 21.4246 48.2392 21.2831 48.129C21.1729 48.0448 21.0838 47.9358 21.023 47.8109C20.971 47.7014 20.8982 47.5397 20.8097 47.3206L20.1074 45.5683L15.7582 45.2762L14.8322 46.9191C14.7126 47.1225 14.6189 47.2685 14.5565 47.3624C14.4731 47.4704 14.3709 47.5623 14.2547 47.6336C14.0995 47.7302 13.9159 47.7707 13.7345 47.7483C13.4403 47.7017 13.1598 47.5913 12.9125 47.425C12.3247 47.0912 12.0437 46.7365 12.0646 46.3558C12.1176 46.0757 12.2274 45.8094 12.3871 45.5735L17.2097 37.0618C17.3425 36.8287 17.5393 36.6386 17.7767 36.5142C18.0089 36.3868 18.272 36.3271 18.5363 36.3421C18.8073 36.3505 19.0693 36.4413 19.2877 36.6024C19.506 36.7636 19.6704 36.9875 19.7589 37.2444ZM18.2398 40.9369L17.0588 43.0231L19.1398 43.1639L18.2398 40.9369Z" fill="#D2D2D2"/>
<path d="M19.1497 36.5925L22.7914 45.657C22.9184 45.9121 22.991 46.191 23.0047 46.4758C22.9787 46.8565 22.6561 47.1747 22.0266 47.4407C21.7596 47.5734 21.4663 47.6447 21.1682 47.6493C20.9906 47.6486 20.8183 47.588 20.6792 47.4772C20.5689 47.3916 20.4784 47.283 20.4139 47.159C20.3619 47.0495 20.2942 46.8878 20.2006 46.6688L19.4983 44.9164L15.1543 44.6243L14.2231 46.2672C14.1034 46.4706 14.015 46.6166 13.9474 46.7105C13.8655 46.8199 13.763 46.912 13.6456 46.9817C13.4904 47.0783 13.3068 47.1188 13.1254 47.0965C12.8315 47.0489 12.5512 46.9386 12.3034 46.7731C11.7156 46.4393 11.4346 46.0847 11.4606 45.7039C11.5121 45.4242 11.6201 45.158 11.778 44.9216L16.6058 36.41C16.735 36.1759 16.9305 35.9853 17.1676 35.8624C17.3998 35.7349 17.6629 35.6753 17.9272 35.6902C18.1982 35.6986 18.4602 35.7894 18.6786 35.9506C18.8969 36.1117 19.0612 36.3356 19.1497 36.5925ZM17.6254 40.3059L16.4497 42.3921L18.5306 42.5329L17.6254 40.3059Z" fill="#DC3258"/>
<path opacity="0.2" d="M47.373 59.5615L47.8152 59.405C48.1692 59.2824 48.5454 59.238 48.9181 59.2746C49.3395 59.3998 49.688 59.9109 49.9586 60.8392C50.1095 61.2473 50.1507 61.688 50.0782 62.117C50.0439 62.2507 49.9835 62.3763 49.9005 62.4864C49.8174 62.5965 49.7134 62.689 49.5944 62.7585C49.3452 62.8987 49.0795 63.0073 48.8036 63.0819L47.9713 63.3114C47.4657 63.4096 46.9514 63.455 46.4366 63.447C45.7239 63.4711 45.0118 63.3867 44.3244 63.1966C43.6614 63.0021 43.0253 62.7253 42.4307 62.3726C41.7668 61.9707 41.1596 61.4813 40.6255 60.9175C40.0422 60.3158 39.5466 59.6345 39.1533 58.8939C38.7387 58.0705 38.4878 57.1742 38.4145 56.2549C38.3167 55.2017 38.4209 54.1395 38.7215 53.1256C38.9912 52.1259 39.4563 51.1899 40.0897 50.3718C40.629 49.6618 41.3003 49.0632 42.0666 48.609C42.7849 48.198 43.5623 47.9007 44.3712 47.7276C45.8049 47.3702 47.3061 47.3881 48.7308 47.7797C49.3926 47.9719 50.022 48.262 50.5985 48.6403C51.0834 48.9319 51.5307 49.2822 51.9303 49.6834L52.3412 50.111C52.5459 50.3301 52.7019 50.5039 52.8095 50.6326C52.9359 50.7889 53.0246 50.9723 53.0688 51.1686C53.113 51.3649 53.1115 51.5688 53.0644 51.7643C52.9228 52.1743 52.6573 52.5298 52.3048 52.7814C51.5609 53.3655 50.9782 53.6002 50.5516 53.475C50.184 53.3127 49.8675 53.0531 49.636 52.724C49.1206 52.0423 48.3851 51.5612 47.5551 51.3628C46.597 51.1121 45.5843 51.1723 44.6626 51.5349C44.1285 51.7441 43.6522 52.0785 43.2735 52.5102C42.8284 53.0092 42.506 53.6058 42.3319 54.2521C42.1373 54.8923 42.0946 55.5691 42.207 56.2288C42.3052 56.8064 42.5368 57.3529 42.8833 57.8247C43.4673 58.6148 44.2903 59.1947 45.2296 59.478C45.6337 59.5962 46.0521 59.6576 46.473 59.6606C46.776 59.6679 47.0787 59.6346 47.373 59.5615Z" fill="#D2D2D2"/>
<path d="M46.748 58.9096L47.1954 58.7532C47.5477 58.6314 47.9221 58.5869 48.2931 58.6228C48.7197 58.7479 49.0682 59.2591 49.3336 60.1874C49.4845 60.5955 49.5257 61.0361 49.4532 61.4652C49.4189 61.5989 49.3585 61.7244 49.2754 61.8346C49.1924 61.9447 49.0884 62.0372 48.9694 62.1067C48.7202 62.2469 48.4545 62.3555 48.1786 62.4301L47.3463 62.6595C46.8407 62.7577 46.3264 62.8032 45.8116 62.7951C45.0989 62.8189 44.3868 62.7345 43.6994 62.5448C43.0364 62.3503 42.4003 62.0734 41.8057 61.7208C41.1434 61.3187 40.538 60.8293 40.0057 60.2656C39.4208 59.6653 38.925 58.9838 38.5335 58.242C38.1148 57.42 37.862 56.5232 37.7895 55.603C37.6917 54.5499 37.7959 53.4876 38.0965 52.4737C38.3689 51.4751 38.8337 50.5396 39.4647 49.72C40.0046 49.0086 40.6779 48.4098 41.4468 47.9572C42.1643 47.5445 42.942 47.247 43.7514 47.0757C45.1833 46.7183 46.6828 46.7363 48.1058 47.1279C48.7688 47.321 49.3999 47.611 49.9787 47.9885C50.4617 48.2828 50.9087 48.6329 51.3105 49.0315L51.7162 49.4592C51.9174 49.6783 52.0735 49.8521 52.1845 49.9808C52.3123 50.1363 52.4019 50.3197 52.4462 50.5162C52.4905 50.7128 52.4881 50.917 52.4394 51.1125C52.2978 51.5224 52.0323 51.8779 51.6798 52.1295C50.9359 52.7137 50.3532 52.9484 49.9318 52.8232C49.5634 52.6622 49.2465 52.4023 49.0162 52.0722C48.5002 51.3911 47.7649 50.9101 46.9353 50.7109C45.9791 50.4588 44.9676 50.5191 44.048 50.883C43.5125 51.0897 43.0357 51.4245 42.6589 51.8583C42.2123 52.3571 41.8881 52.9536 41.7121 53.6003C41.5166 54.2404 41.4756 54.9179 41.5925 55.5769C41.6866 56.1548 41.9166 56.7019 42.2635 57.1729C42.8486 57.9619 43.6711 58.5415 44.6098 58.8262C45.0139 58.9444 45.4323 59.0058 45.8532 59.0087C46.1545 59.0159 46.4555 58.9826 46.748 58.9096Z" fill="#D2D2D2"/>
<g style="mix-blend-mode:multiply">
<path d="M129.929 30.3967C130.054 30.2246 130.163 30.0473 130.267 29.8751C130.265 29.8596 130.265 29.8438 130.267 29.8282C130.371 29.6352 130.465 29.4367 130.548 29.2337L130.595 29.1085C130.661 28.9378 130.719 28.7637 130.766 28.5869C131.112 27.7583 131.313 26.8761 131.36 25.9792C131.417 24.9218 131.352 23.8612 131.167 22.8186C131.016 21.9685 130.865 21.4105 130.865 21.4105C130.865 21.4105 130.714 20.8576 130.413 20.0597C130.048 19.0812 129.611 18.1311 129.107 17.2172C128.614 16.2955 128.036 15.4224 127.38 14.6095C127.099 14.2169 126.746 13.8822 126.339 13.6238C126.287 13.6238 126.162 13.8846 125.98 14.2861C125.753 14.7706 125.494 15.2393 125.205 15.6891C124.935 16.0959 124.649 16.4819 124.399 16.7948C123.827 17.3163 123.103 17.8744 122.177 18.6567C122.568 18.276 122.932 17.9161 123.218 17.6136C123.554 17.3118 123.842 16.96 124.071 16.5705C123.695 16.7976 123.346 17.0671 123.031 17.3737C122.422 17.8952 121.6 18.5472 120.794 19.2408C120.049 19.8806 119.34 20.5614 118.671 21.2801C118.364 21.6125 118.074 21.9606 117.802 22.3232L117.599 22.6361C117.419 22.9145 117.256 23.2036 117.11 23.5019C116.638 24.4084 116.403 25.4208 116.429 26.4434C116.481 27.4507 116.795 28.4269 117.339 29.2754C117.523 29.5591 117.726 29.8293 117.948 30.0838C118.01 30.1779 118.078 30.2685 118.151 30.355C118.151 30.3967 118.104 30.4384 118.083 30.4801C117.873 30.7878 117.698 31.1185 117.563 31.4659C117.243 32.3041 117.035 33.1809 116.944 34.0736C116.907 34.3917 116.881 34.6577 116.866 34.8663C116.866 34.9029 116.866 34.9394 116.866 34.9707C116.866 35.0019 116.866 35.0489 116.866 35.0906C116.866 35.1323 116.866 35.1636 116.866 35.2001C116.863 35.2453 116.863 35.2906 116.866 35.3357C116.863 35.3617 116.863 35.3879 116.866 35.414V35.56C116.866 35.56 116.866 35.5965 116.866 35.6122C116.866 35.6278 116.866 35.7165 116.902 35.7686C116.939 35.8208 116.902 35.7686 116.902 35.7947C117.006 36.1183 117.184 36.413 117.422 36.6552C115.342 43.1694 108.714 64.4797 107.985 70.102L108.017 70.1541L108.074 70.2376V70.2637L108.147 70.3732V70.3993L108.245 70.5401L108.376 70.7122C108.714 71.1386 109.092 71.5316 109.504 71.8857L109.791 72.1151H109.822L110.098 72.3133C110.264 72.4489 110.436 72.5741 110.618 72.6941C110.831 72.8437 111.053 72.9795 111.284 73.1009C111.514 73.2278 111.752 73.3394 111.996 73.4347C112.243 73.5265 112.497 73.598 112.756 73.6485L112.954 73.685H113H113.058H113.157H113.541C113.807 73.6853 114.073 73.6696 114.337 73.6381C114.6 73.6085 114.861 73.5633 115.118 73.5025C115.373 73.4394 115.625 73.3628 115.872 73.273C116.121 73.191 116.364 73.0935 116.6 72.9809C116.84 72.8766 117.074 72.7566 117.308 72.6367C117.542 72.5167 117.766 72.3759 117.984 72.2351C118.203 72.0943 118.416 71.9482 118.635 71.7814L118.697 71.7344V71.6458C119.02 70.2011 119.311 68.746 119.618 67.2961L120.528 62.9464L120.981 60.7715C121.137 60.0466 121.272 59.3164 121.423 58.5915L122.292 54.2313L123.161 49.8712L123.993 45.5059L124.409 43.3206C124.55 42.5904 124.675 41.8603 124.81 41.1353L124.841 40.958L125.08 39.795L125.382 38.3607C125.55 38.3384 125.711 38.2803 125.855 38.1903C125.998 38.1003 126.121 37.9806 126.214 37.8392C126.573 37.1611 127.395 33.0201 127.505 32.4777C127.505 32.4412 127.505 32.4203 127.505 32.4203C127.505 32.4203 127.401 32.3056 127.354 32.2482L127.401 32.2169C127.489 32.2951 127.541 32.3316 127.551 32.3264C127.562 32.3212 127.551 32.269 127.458 32.1908C127.619 32.1074 127.765 32.0187 127.91 31.93L128.056 31.8414C128.269 31.7006 128.467 31.5597 128.654 31.4085L128.732 31.3355C128.899 31.1989 129.057 31.0526 129.206 30.8974L129.289 30.8087C129.442 30.6423 129.586 30.4682 129.721 30.2872L129.929 30.3967ZM127.161 14.8129C127.719 15.663 128.217 16.5519 128.649 17.4728C128.951 18.1039 129.211 18.7506 129.429 19.3399L129.273 18.9853L129.154 18.7193L128.998 18.3855C128.247 16.7838 127.378 15.2409 126.397 13.7698C126.397 13.7698 126.397 13.7333 126.397 13.7229C126.49 13.8585 126.792 14.2288 127.161 14.8025V14.8129ZM117.147 34.0475C117.244 33.5425 117.367 33.0429 117.516 32.5507C117.396 33.0827 117.282 33.6042 117.147 34.0475Z" fill="#D2D2D2"/>
</g>
<path d="M116.95 29.0772C116.95 29.0772 113.058 24.7119 118.302 19.6268C122.802 15.2667 124.202 15.3658 125.065 12.3252C125.065 12.3252 135.038 26.7303 126.022 31.1321L116.95 29.0772Z" fill="#DC3258"/>
<g style="mix-blend-mode:multiply" opacity="0.5">
<path d="M127.677 16.9719C128.15 20.8157 125.897 25.0663 120.913 25.0663C120.041 25.0936 119.172 24.9468 118.356 24.6343C117.541 24.3218 116.796 23.8499 116.164 23.2461C115.695 25.2213 115.979 27.3006 116.96 29.077L126.033 31.1319C131.714 28.3521 129.835 21.5824 127.677 16.9719Z" fill="#DC3258"/>
</g>
<path d="M128.363 28.7537C128.311 28.712 128.676 28.2687 128.988 27.5072C129.349 26.5658 129.525 25.5636 129.508 24.5552C129.501 23.5445 129.385 22.5374 129.165 21.5511C128.982 20.7427 128.816 20.216 128.816 20.216C128.816 20.216 128.686 19.6944 128.431 18.8913C128.121 17.926 127.749 16.9818 127.318 16.0645C126.885 15.1436 126.388 14.2547 125.83 13.4046C125.545 13.0338 125.285 12.6434 125.055 12.2363C125.46 12.4968 125.813 12.8312 126.095 13.2221C126.749 14.0378 127.329 14.9105 127.828 15.8298C128.33 16.7442 128.764 17.6942 129.128 18.6722C129.43 19.4754 129.581 20.023 129.581 20.023C129.581 20.023 129.737 20.5811 129.882 21.4312C130.07 22.4735 130.136 23.5341 130.08 24.5918C130.03 25.6578 129.755 26.7011 129.274 27.6532C129.066 28.0899 128.753 28.468 128.363 28.7537Z" fill="#A3143A"/>
<path d="M120.206 20.4091C120.159 20.4091 120.206 20.091 120.377 19.6581C120.579 19.1332 120.83 18.6286 121.126 18.1508C121.449 17.6293 121.798 17.1077 122.063 16.7687L122.5 16.1585L122.968 15.5952C123.31 15.1817 123.63 14.7499 123.925 14.3018C124.216 13.8521 124.477 13.3834 124.706 12.8988C124.883 12.4972 125.007 12.2208 125.059 12.2365C125.111 12.2521 125.059 12.5546 124.987 13.0031C124.849 13.5449 124.652 14.0697 124.399 14.5678C124.148 15.0668 123.863 15.5478 123.545 16.0073C123.291 16.388 123.109 16.6279 123.109 16.6279L122.625 17.2016C122.328 17.5406 121.943 17.9891 121.584 18.4533C121.225 18.9175 120.892 19.4025 120.658 19.778C120.424 20.1535 120.263 20.43 120.206 20.4091Z" fill="#A3143A"/>
<path d="M122.807 15.1934C122.579 15.584 122.291 15.936 121.953 16.2365C121.402 16.8154 120.632 17.5455 119.872 18.2861C119.185 18.9475 118.532 19.6438 117.916 20.3723C117.396 20.9721 117.136 21.4154 117.136 21.4154C116.883 21.7463 116.653 22.0948 116.449 22.4585C115.984 23.2513 115.721 24.1471 115.685 25.0662C115.677 26.0002 115.891 26.9225 116.309 27.7574C116.536 28.1328 116.734 28.5251 116.902 28.9309C116.551 28.6438 116.261 28.2891 116.049 27.8878C115.503 27.0398 115.187 26.0636 115.133 25.0558C115.113 24.0337 115.347 23.0227 115.815 22.1143C115.96 21.8161 116.123 21.5269 116.304 21.2485L116.507 20.9356C116.777 20.5724 117.067 20.2242 117.375 19.8925C118.042 19.1699 118.753 18.4889 119.503 17.8532C120.304 17.1544 121.126 16.4868 121.74 15.9861C122.061 15.678 122.419 15.4116 122.807 15.1934Z" fill="#A3143A"/>
<path d="M126.626 19.5381C126.626 19.5381 126.72 19.5902 126.824 19.7154L127.006 19.9605C127.068 20.0544 127.12 20.1744 127.188 20.3048C127.481 20.9394 127.669 21.6176 127.744 22.3127C127.838 23.0039 127.868 23.7023 127.833 24.3989C127.796 24.9674 127.755 25.3481 127.755 25.3481C127.755 25.3481 127.677 25.7184 127.547 26.2712C127.368 26.9428 127.122 27.5946 126.813 28.2166C126.646 28.5506 126.451 28.8699 126.231 29.171C126.035 29.4341 125.808 29.6723 125.554 29.8803C125.458 29.9674 125.355 30.0476 125.247 30.1203L124.972 30.2506C124.821 30.3184 124.732 30.3445 124.722 30.3237C124.711 30.3028 124.774 30.2246 124.894 30.1203L125.107 29.9377C125.185 29.8647 125.258 29.7604 125.346 29.6665C125.541 29.4371 125.715 29.191 125.866 28.9311C126.034 28.6284 126.182 28.3147 126.309 27.9923C126.536 27.3811 126.71 26.7511 126.829 26.1096C126.912 25.588 126.964 25.2282 126.964 25.2282C126.964 25.2282 127.026 24.8735 127.099 24.3415C127.178 23.6858 127.206 23.0249 127.183 22.3649C127.168 21.7063 127.069 21.0523 126.886 20.4195C126.844 20.2943 126.818 20.1692 126.777 20.0649L126.668 19.8041C126.631 19.6476 126.605 19.5537 126.626 19.5381Z" fill="#A3143A"/>
<path d="M119.685 23.0166C119.8 23.0583 119.54 23.8876 119.425 24.7221C119.39 24.9202 119.369 25.1206 119.363 25.3218C119.345 25.4952 119.345 25.67 119.363 25.8434C119.363 26.1407 119.394 26.3388 119.394 26.3388C119.42 26.8731 119.525 27.4004 119.706 27.9035C119.992 28.6702 120.492 29.3742 120.393 29.4681C120.294 29.562 120.185 29.3638 119.956 29.1291C119.669 28.8344 119.418 28.5071 119.207 28.1538C119.099 27.9584 119.003 27.7563 118.921 27.5488C118.884 27.4497 118.832 27.3559 118.806 27.262L118.738 26.9908C118.685 26.8029 118.647 26.611 118.624 26.4171V25.8382C118.635 25.6424 118.666 25.4484 118.718 25.2592C118.756 25.0418 118.81 24.8274 118.879 24.6177C119.018 24.0278 119.294 23.4792 119.685 23.0166Z" fill="#A3143A"/>
<path d="M116.247 35.4345C115.918 35.1588 115.685 34.7852 115.582 34.3679C115.48 33.9506 115.512 33.5113 115.675 33.1137C116.231 31.669 116.45 28.7692 117.386 28.4197C118.323 28.0703 123.738 27.8982 126.319 31.1996C126.319 31.1996 125.403 35.8935 125.018 36.6184C123.993 38.5638 116.247 35.4345 116.247 35.4345Z" fill="#F7DB00"/>
<g style="mix-blend-mode:multiply">
<path d="M120.565 31.815L120.424 31.8619C118.667 32.4638 117.067 33.4529 115.742 34.7565C115.615 34.5028 115.545 34.2245 115.536 33.9408C115.527 33.6572 115.58 33.375 115.69 33.1137C116.247 31.669 116.465 28.7692 117.402 28.4197C118.338 28.0703 123.754 27.8982 126.334 31.1996C126.336 31.2204 126.336 31.2414 126.334 31.2622C124.394 30.9867 122.417 31.1761 120.565 31.815Z" fill="#F7DB00"/>
</g>
<path d="M126.365 31.1321C126.365 31.1321 126.303 31.0278 126.162 30.8609C126.09 30.7827 126.006 30.6836 125.907 30.5688L125.746 30.3915L125.543 30.2194L125.085 29.8335C124.91 29.6946 124.726 29.5674 124.534 29.4527C124.127 29.1889 123.701 28.9553 123.259 28.7539C123.036 28.6548 122.796 28.5765 122.568 28.4931L122.229 28.3627L121.886 28.274L121.231 28.1124C121.022 28.0706 120.82 28.0498 120.637 28.0185L120.117 27.9507H119.722H119.378H119.04L118.635 27.9872C118.55 27.9911 118.465 28.0069 118.385 28.0341L118.114 28.1124C117.691 28.2634 117.312 28.5179 117.011 28.853C116.689 29.2296 116.429 29.6557 116.241 30.1151C115.924 30.9631 115.716 31.8482 115.622 32.7489C115.557 33.1505 115.531 33.5575 115.544 33.9641C115.656 33.5742 115.739 33.1768 115.794 32.775C115.94 31.9045 116.186 31.0539 116.528 30.2403C116.719 29.8243 116.973 29.4408 117.282 29.1033C117.547 28.8238 117.878 28.6157 118.244 28.4983L118.478 28.4409C118.547 28.4187 118.619 28.4064 118.692 28.4044H119.046H119.378H120.086L120.57 28.4566C120.747 28.4566 120.944 28.4931 121.147 28.5244L121.777 28.6652C121.886 28.6652 122 28.7069 122.11 28.7382L122.443 28.8477C122.666 28.926 122.9 28.9886 123.124 29.0772C123.561 29.2546 123.985 29.462 124.394 29.6979C124.583 29.8012 124.767 29.9143 124.945 30.0369L125.418 30.3811L125.627 30.5376L125.798 30.6992L126.084 30.9548C126.256 31.0643 126.355 31.1425 126.365 31.1321Z" fill="#F79000"/>
<path d="M116.71 33.3955C116.71 33.3955 107.527 62.0805 106.669 68.7459C106.669 68.7459 110.446 75.3174 117.271 70.4201L124.513 35.6121C124.513 35.6121 121.397 32.2064 116.71 33.3955Z" fill="#9FE08B"/>
<g style="mix-blend-mode:multiply" opacity="0.5">
<path d="M121.834 39.8679C118.853 42.4756 116.439 44.8852 114.686 48.5464C113.463 51.1324 112.563 53.8598 112.007 56.6669C111.278 60.3177 111.107 64.1094 110.259 67.7602C109.955 69.0658 109.888 70.4154 110.061 71.7448C108.664 71.0957 107.486 70.0539 106.669 68.7459C107.527 62.0858 116.71 33.3955 116.71 33.3955C121.392 32.2064 124.513 35.6121 124.513 35.6121L123.889 38.6162C123.142 38.9209 122.448 39.3435 121.834 39.8679Z" fill="#D2D2D2"/>
</g>
<g style="mix-blend-mode:multiply" opacity="0.5">
<g style="mix-blend-mode:multiply">
<path d="M113.271 70.4879C113.356 70.4028 113.404 70.2874 113.404 70.1671C113.404 70.0468 113.356 69.9315 113.271 69.8464C113.229 69.8035 113.179 69.7694 113.123 69.7462C113.068 69.7229 113.009 69.7109 112.949 69.7109C112.889 69.7109 112.829 69.7229 112.774 69.7462C112.718 69.7694 112.668 69.8035 112.626 69.8464C112.541 69.9323 112.493 70.0486 112.493 70.1697C112.493 70.2909 112.541 70.4071 112.626 70.4931C112.713 70.5778 112.829 70.6247 112.95 70.6237C113.071 70.6228 113.186 70.5739 113.271 70.4879Z" fill="#242424"/>
</g>
<g style="mix-blend-mode:multiply">
<path d="M115.523 70.5557C115.656 70.4218 115.73 70.2409 115.73 70.0524C115.73 69.8638 115.656 69.6829 115.523 69.5491C115.389 69.416 115.208 69.3413 115.019 69.3413C114.83 69.3413 114.648 69.416 114.514 69.5491C114.448 69.6155 114.395 69.6943 114.359 69.7811C114.323 69.8679 114.305 69.961 114.305 70.055C114.305 70.149 114.323 70.2421 114.359 70.3289C114.395 70.4157 114.448 70.4945 114.514 70.5609C114.58 70.6277 114.659 70.6807 114.746 70.7167C114.833 70.7526 114.926 70.7709 115.02 70.7704C115.114 70.7699 115.207 70.7507 115.293 70.7138C115.38 70.677 115.458 70.6232 115.523 70.5557Z" fill="#242424"/>
</g>
</g>
<path d="M124.987 36.0815C124.861 35.8486 124.702 35.6359 124.514 35.4504C124.115 35.0318 123.664 34.6671 123.171 34.3656C122.907 34.2014 122.633 34.055 122.349 33.9275C122.074 33.8127 121.829 33.7136 121.59 33.6354L121.038 33.4789C120.969 33.4563 120.897 33.4388 120.825 33.4268L120.607 33.3903C120.471 33.3903 120.274 33.3329 120.045 33.3173C119.582 33.2755 118.968 33.2077 118.344 33.1973C117.766 33.1675 117.188 33.2345 116.632 33.3955C116.369 33.4549 116.133 33.5998 115.961 33.8075C116.195 33.7116 116.435 33.6298 116.679 33.5624C117.223 33.4637 117.779 33.4462 118.328 33.5102C118.931 33.5624 119.535 33.6615 119.998 33.7189C120.227 33.7501 120.404 33.7971 120.518 33.8179L120.721 33.8597L120.924 33.9014L121.444 34.0266C121.663 34.0892 121.918 34.1726 122.183 34.2665C122.459 34.3735 122.728 34.4972 122.989 34.6368C123.483 34.8965 123.945 35.2114 124.368 35.5756C124.552 35.7694 124.76 35.9394 124.987 36.0815Z" fill="#61A54A"/>
<path d="M106.68 68.7461C107.271 69.5856 107.971 70.3431 108.761 70.9991C108.958 71.166 109.172 71.3173 109.385 71.4685C109.598 71.6164 109.821 71.7506 110.051 71.8701C110.281 71.9971 110.519 72.1086 110.764 72.2039C111.011 72.2988 111.267 72.3704 111.528 72.4177L111.721 72.4595H111.773H111.924H112.309C112.576 72.4613 112.844 72.4474 113.11 72.4177C113.37 72.4177 113.63 72.3291 113.885 72.2769C114.14 72.2248 114.405 72.1413 114.639 72.0527C114.873 71.964 115.134 71.8649 115.373 71.7606C115.612 71.6563 115.846 71.5363 116.075 71.4112C116.304 71.286 116.533 71.1504 116.751 71.0096C116.976 70.8697 117.193 70.7182 117.402 70.5558L117.464 70.5089V70.4202C117.787 68.9755 118.078 67.5204 118.385 66.0705L119.295 61.7208L119.748 59.546C119.904 58.821 120.045 58.0909 120.19 57.3659L121.059 53.0058L121.928 48.6457L122.76 44.2803L123.176 42.0951C123.317 41.3701 123.442 40.64 123.577 39.9098C123.842 38.4495 124.097 36.9944 124.357 35.5288C124.014 36.9735 123.691 38.4182 123.358 39.8629C123.197 40.5878 123.026 41.3075 122.869 42.0325L122.396 44.2021L121.444 48.5466L120.534 52.8963L119.686 57.2981C119.535 58.0231 119.379 58.748 119.238 59.473L118.801 61.653L117.927 66.0132C117.641 67.4683 117.339 68.9182 117.069 70.3733L117.152 70.2429C116.965 70.3941 116.757 70.5454 116.549 70.6862C116.34 70.827 116.127 70.9626 115.909 71.0878C115.69 71.213 115.472 71.3329 115.243 71.4425C115.014 71.552 114.785 71.6563 114.551 71.7397C114.317 71.8232 114.077 71.9014 113.838 71.9744C113.597 72.0403 113.352 72.0908 113.105 72.1257C112.862 72.1618 112.617 72.1827 112.371 72.1883H111.986H111.851H111.804L111.622 72.157C111.375 72.1199 111.132 72.0641 110.894 71.9901C110.656 71.9058 110.423 71.8082 110.196 71.698C109.968 71.5886 109.746 71.4668 109.531 71.3329C109.317 71.1973 109.104 71.0617 108.901 70.9053C108.698 70.7488 108.501 70.5923 108.303 70.4254C108.105 70.2585 107.923 70.0864 107.736 69.9039C107.359 69.5417 107.006 69.155 106.68 68.7461Z" fill="#61A54A"/>
<g style="mix-blend-mode:multiply">
<path d="M105.488 64.9959L105.108 62.9879L104.848 61.6319L103.865 56.4165L97.5806 23.1366L95.947 21.0087L93.3458 17.6082L89.8082 13.0134V13.0552V13.0134V13.1021L89.5897 13.827L88.8926 16.1844L88.1695 18.6305L87.0718 22.3178L86.1874 25.1811C86.1301 25.0872 86.0937 25.0351 86.0781 25.0403C86.0816 25.1506 86.1082 25.259 86.1562 25.3584L86.2706 25.9738L86.2966 26.1147L93.0025 61.5798C93.0025 61.5798 93.0025 61.6997 93.0753 61.8927V61.9657L93.1221 62.2108L93.221 62.7324L93.4863 64.1301C93.4863 64.2188 93.4863 64.3075 93.5227 64.3961C93.5591 64.4848 93.5591 64.5317 93.5747 64.5995L93.6164 64.8029C93.6164 64.8916 93.6163 64.9855 93.6528 65.0741C93.6892 65.1628 93.6892 65.2045 93.7048 65.2723L93.9961 66.8109C93.9961 66.9048 93.9961 66.9934 94.0325 67.0873C94.0325 67.0873 94.0325 67.2385 94.1314 67.4785L94.1834 67.5932C94.1834 67.6401 94.225 67.6819 94.2458 67.7288C94.2667 67.7757 94.3083 67.8644 94.3447 67.9322C94.372 67.9866 94.4033 68.0389 94.4383 68.0887C94.4763 68.1536 94.518 68.2163 94.5632 68.2764C94.5984 68.3273 94.6366 68.3761 94.6776 68.4225L94.8285 68.5998C94.871 68.6459 94.9162 68.6894 94.9638 68.7302L95.1354 68.8918L95.2915 69.017L95.4892 69.1578C95.5454 69.2003 95.6045 69.2386 95.6661 69.2726L95.8742 69.3977L96.025 69.4708C96.3031 69.6328 96.5936 69.7723 96.8938 69.888C97.3134 70.0438 97.75 70.1489 98.1944 70.2009C98.5692 70.2439 98.9462 70.263 99.3233 70.2583C99.6511 70.2583 99.9216 70.2322 100.114 70.2113L100.411 70.1748L100.702 70.1123C100.96 70.0541 101.216 69.9827 101.467 69.8984C102.248 69.6346 102.974 69.2298 103.61 68.7041L103.808 68.5111C105.041 67.588 105.712 66.2841 105.488 64.9959Z" fill="#D2D2D2"/>
</g>
<path d="M95.5048 21.0557L87.7012 10.9377L84.0596 23.2306L91.9099 64.7717C91.9099 64.8656 91.9099 64.9542 91.9464 65.0481C92.3625 67.2543 95.2655 68.5633 98.4285 67.9584C101.592 67.3534 103.782 65.1107 103.402 62.9098L95.5048 21.0557Z" fill="#F7DB00"/>
<g style="mix-blend-mode:multiply">
<path d="M91.2445 15.5219L87.7121 10.9375L86.7705 14.1137C87.5727 14.0297 88.3835 14.1113 89.1529 14.3534C89.9224 14.5956 90.6342 14.9933 91.2445 15.5219Z" fill="#F7DB00"/>
</g>
<g style="mix-blend-mode:multiply">
<path d="M93.8666 18.9224C94.28 19.7986 94.5807 20.7239 94.7614 21.6761L99.2823 45.6255C100.188 50.4133 97.9557 54.9768 94.3765 55.6548C93.6055 55.7795 92.8171 55.7434 92.0607 55.5486C91.3043 55.3539 90.5961 55.0048 89.9805 54.5231L91.9157 64.761C91.9157 64.8549 91.9158 64.9436 91.9522 65.0374C92.3684 67.2436 95.2713 68.5527 98.4343 67.9477C101.597 67.3427 103.788 65.1 103.408 62.8991L95.5002 21.0451L93.8666 18.9224Z" fill="#F7DB00"/>
</g>
<g style="mix-blend-mode:multiply">
<path d="M92.9555 24.6595L87.6855 10.9429L87.748 25.6557L95.0313 64.1823C95.0313 64.2709 95.0313 64.3596 95.0781 64.4535C95.4943 66.6648 96.9978 68.2347 98.4388 67.9583C99.8799 67.6818 100.697 65.7 100.296 63.5043L92.9555 24.6595Z" fill="#F7DB00"/>
</g>
<g style="mix-blend-mode:multiply">
<path d="M96.7954 59.3892C93.7676 59.9629 90.9739 58.7842 90.3809 56.7398L91.3901 62.07C91.3946 62.1612 91.4067 62.252 91.4265 62.3412C91.8427 64.5525 94.7456 65.8564 97.9035 65.2566C101.061 64.6568 103.262 62.4038 102.882 60.2081L101.79 54.3354C102.169 56.5364 99.9532 58.7895 96.7954 59.3892Z" fill="#F7DB00"/>
</g>
<path d="M96.9458 60.0831C93.9128 60.6568 91.1243 59.4833 90.5312 57.4336L91.5353 62.7638C91.5353 62.8525 91.5353 62.9464 91.5717 63.035C91.9879 65.2464 94.8908 66.5555 98.0539 65.9505C101.217 65.3455 103.412 63.0976 103.027 60.9019L101.914 55.0293C102.299 57.2302 100.088 59.4833 96.9458 60.0831Z" fill="white"/>
<g style="mix-blend-mode:multiply">
<path d="M89.512 20.8054C87.9681 21.1328 86.3595 20.9365 84.9391 20.2473L84.0547 23.2306L84.1015 23.4861L84.2055 24.0077C84.7986 26.0521 87.5871 27.2308 90.6201 26.6519C93.7415 26.0574 95.9785 23.7991 95.5935 21.6034L95.4895 21.0349L93.5802 18.5627C92.5146 19.7481 91.0812 20.5383 89.512 20.8054Z" fill="#F7DB00"/>
</g>
<path d="M84.0908 23.1523C84.8296 25.0456 87.514 26.1043 90.4169 25.5515C93.3198 24.9986 95.458 23.0115 95.432 20.9671L87.7117 10.9377L84.0908 23.1523Z" fill="white"/>
<path opacity="0.2" d="M87.7119 10.9377L87.4674 11.7566L93.2212 19.2303C93.2472 21.2696 91.1402 23.2619 88.2061 23.8147C86.8968 24.0818 85.5399 23.9899 84.2783 23.5487C85.2147 25.1916 87.7223 26.0678 90.4171 25.5515C93.3408 24.9986 95.4582 23.0115 95.4322 20.9671L87.7119 10.9377Z" fill="#D2D2D2"/>
<path d="M86.0469 16.5599C86.8873 17.0337 87.8599 17.217 88.8145 17.0814C89.7733 16.8583 90.6302 16.3204 91.2492 15.5533L87.7116 10.9585L86.0469 16.5599Z" fill="#242424"/>
<path opacity="0.2" d="M87.748 25.6141C88.6348 25.7435 89.537 25.7223 90.4168 25.5515C91.3031 25.3894 92.1549 25.0753 92.9347 24.6231L87.7012 10.9795V11.0316L87.748 25.6141Z" fill="#D2D2D2"/>
<path opacity="0.2" d="M96.9461 60.0828C96.0611 60.2546 95.1533 60.274 94.2617 60.1402L95.0265 64.1822C95.0265 64.2709 95.0265 64.3595 95.0733 64.4534C95.1734 64.9966 95.3485 65.5232 95.5935 66.018C96.4085 66.113 97.2333 66.0814 98.0386 65.9242C98.8464 65.776 99.6258 65.5014 100.348 65.1105C100.398 64.5656 100.374 64.0164 100.276 63.4781L99.4537 59.1284C98.678 59.5871 97.83 59.9099 96.9461 60.0828Z" fill="#D2D2D2"/>
<path d="M97.3149 62.0909C94.2819 62.6646 91.4935 61.4911 90.9004 59.4414L91.9044 64.7716C91.9044 64.8655 91.9044 64.9542 91.9409 65.0481C92.3571 67.2542 95.26 68.5633 98.423 67.9583C101.586 67.3533 103.776 65.1106 103.396 62.9097L102.283 57.0371C102.679 59.238 100.468 61.4911 97.3149 62.0909Z" fill="#DC3258"/>
<g style="mix-blend-mode:multiply" opacity="0.5">
<path d="M97.3149 62.0909C94.2819 62.6646 91.4935 61.4911 90.9004 59.4415L91.0304 60.1351L91.1293 60.6567C91.7223 62.7063 94.516 63.8798 97.5438 63.3061C100.665 62.7063 102.902 60.4533 102.517 58.2575L102.283 57.0215C102.679 59.2381 100.468 61.4911 97.3149 62.0909Z" fill="#DC3258"/>
</g>
<g style="mix-blend-mode:multiply" opacity="0.5">
<path d="M102.294 57.0423C102.419 57.8507 102.233 58.6765 101.774 59.3528L102.101 61.0791C102.486 63.2748 100.27 65.5331 97.1279 66.1276C96.2549 66.3272 95.3509 66.3497 94.4691 66.1938C93.5873 66.038 92.7455 65.7069 91.9932 65.2202C92.5134 67.3063 95.3539 68.5476 98.4337 67.9583C101.513 67.3689 103.787 65.1106 103.407 62.9097L102.294 57.0371V57.0423Z" fill="#DC3258"/>
</g>
<path d="M95.4585 21.061C95.4433 21.5179 95.3353 21.9669 95.1412 22.3805C94.9838 22.7882 94.7777 23.1752 94.5273 23.5331C94.2553 23.9182 93.9373 24.2685 93.5805 24.5762C92.9442 25.1014 92.2179 25.5061 91.4371 25.7706C91.186 25.8548 90.9307 25.9262 90.6724 25.9844L90.381 26.047L90.0793 26.0835C89.892 26.0835 89.6215 26.1252 89.2885 26.1304C88.9131 26.1352 88.5378 26.1161 88.1648 26.0731C87.719 26.0192 87.2809 25.9142 86.859 25.7601C86.4172 25.5969 85.9963 25.3816 85.6053 25.1186C85.2357 24.8712 84.9044 24.5707 84.622 24.2268C84.4082 23.9608 84.233 23.6658 84.1018 23.3506C84.0448 23.2275 84.0113 23.0948 84.0029 22.9594C84.0029 22.9594 84.0966 23.0689 84.2058 23.2723C84.3675 23.5327 84.5577 23.7741 84.7729 23.9921C85.3766 24.5596 86.1112 24.9682 86.911 25.1812C87.3092 25.2958 87.7197 25.3624 88.1336 25.3794C88.4888 25.4011 88.8449 25.4011 89.2001 25.3794C89.5122 25.3794 89.7671 25.3168 89.944 25.2907L90.225 25.2386L90.5059 25.1969C90.6828 25.1656 90.9377 25.1186 91.2394 25.0352C91.9859 24.846 92.6913 24.5207 93.3204 24.0755C93.671 23.8239 93.989 23.5296 94.2672 23.1993C94.5215 22.892 94.7445 22.5601 94.9331 22.2084C95.2765 21.5565 95.4065 21.0349 95.4585 21.061Z" fill="#F79000"/>
<path d="M103.412 63.1704C103.401 63.6271 103.295 64.0765 103.1 64.4899C102.939 64.8967 102.731 65.2835 102.481 65.6425C102.211 66.0288 101.893 66.3793 101.534 66.6856C100.899 67.2113 100.172 67.6161 99.3911 67.8799C99.14 67.9642 98.8847 68.0356 98.6263 68.0938L98.335 68.1563L98.0385 68.1929C97.846 68.1929 97.5755 68.2346 97.2477 68.2398C96.8706 68.2445 96.4935 68.2254 96.1188 68.1824C95.6744 68.1304 95.2378 68.0254 94.8182 67.8695C94.3752 67.7052 93.9527 67.49 93.5592 67.228C93.1909 66.979 92.8599 66.6787 92.576 66.3362C92.3598 66.0718 92.1845 65.7765 92.0558 65.46C91.9725 65.22 91.9361 65.0792 91.9569 65.0688C91.9777 65.0584 92.0453 65.1783 92.1598 65.3817C92.3181 65.643 92.5067 65.8846 92.7217 66.1015C93.328 66.6798 94.0708 67.0944 94.8806 67.3062C95.2777 67.4179 95.6861 67.4844 96.098 67.5044C96.4445 67.5251 96.7919 67.5251 97.1385 67.5044C97.4506 67.5044 97.7107 67.4418 97.8876 67.4158L98.1685 67.3636L98.4494 67.3219C98.6948 67.2804 98.9379 67.2265 99.1778 67.1602C99.9237 66.9695 100.629 66.6443 101.259 66.2006C101.608 65.9486 101.924 65.6543 102.2 65.3244C102.458 65.0197 102.681 64.6873 102.866 64.3334C103.23 63.6658 103.36 63.1443 103.412 63.1704Z" fill="#A3143A"/>
<path d="M102.362 57.6107C102.35 58.0674 102.243 58.5167 102.05 58.9302C101.887 59.3365 101.679 59.7232 101.431 60.0828C101.16 60.4694 100.842 60.8199 100.484 61.1259C99.8507 61.656 99.1235 62.0612 98.3403 62.3203C98.0282 62.4298 97.7628 62.4924 97.5756 62.5393L97.2842 62.6019L96.9877 62.6384C96.7952 62.6384 96.5247 62.6801 96.1969 62.6854C95.8198 62.6901 95.4427 62.6709 95.068 62.628C94.6234 62.5741 94.1868 62.4673 93.7674 62.3098C93.3246 62.1474 92.9021 61.9339 92.5085 61.6736C92.1402 61.4245 91.8091 61.1242 91.5252 60.7817C91.3101 60.5166 91.1349 60.2214 91.005 59.9055C90.9217 59.6604 90.8853 59.5196 90.9061 59.5144C90.9269 59.5091 90.9946 59.6239 91.109 59.8273C91.2669 60.0889 91.4555 60.3305 91.6709 60.547C92.2785 61.1236 93.0209 61.5378 93.8299 61.7518C94.2269 61.8635 94.6353 61.93 95.0472 61.95C95.4024 61.9717 95.7585 61.9717 96.1137 61.95C96.4258 61.9239 96.686 61.8874 96.8628 61.8613L97.1438 61.8092L97.4247 61.7674C97.67 61.726 97.9131 61.672 98.153 61.6058C98.8982 61.4128 99.6029 61.0878 100.234 60.6461C100.582 60.3929 100.898 60.0988 101.176 59.7699C101.433 59.463 101.656 59.129 101.842 58.7738C102.18 58.101 102.31 57.5794 102.362 57.6107Z" fill="#D2D2D2"/>
<g style="mix-blend-mode:multiply">
<path d="M97.5185 77.0437L96.8578 75.2496L96.0306 72.9809L94.6988 69.3301L83.7427 39.2629L81.4796 37.2967L78.6808 34.8663L74.6333 31.3511L74.5761 31.252V31.2937L74.4929 31.2207V31.2624V31.2311V31.3146L74.3784 32.0343L73.6085 36.8012L72.568 43.2945C72.5004 43.2163 72.4535 43.1745 72.4431 43.1797C72.4327 43.185 72.4691 43.2945 72.5576 43.4666L72.6304 43.6596L72.8073 44.1498L83.9716 74.7541L84.4658 76.1154L84.4918 76.178C84.4918 76.178 84.5178 76.2875 84.6115 76.4544L84.934 77.3462L85.3502 78.4884C85.3502 78.5718 85.397 78.6553 85.4282 78.7387C85.4594 78.8222 85.4802 78.8483 85.5063 78.9056L85.5843 79.1195C85.6031 79.2027 85.6274 79.2846 85.6571 79.3646C85.68 79.4251 85.706 79.4842 85.7352 79.5419L86.2554 80.9292C86.2749 81.014 86.2992 81.0976 86.3282 81.1796C86.3282 81.1796 86.3646 81.3152 86.4843 81.529L86.5519 81.6229L86.6352 81.7481C86.6768 81.8002 86.7132 81.8576 86.76 81.9097C86.8069 81.9619 86.8381 81.9984 86.8797 82.0453C86.9274 82.0983 86.9777 82.1488 87.0306 82.1966L87.1658 82.3113C87.223 82.3583 87.2803 82.4052 87.3427 82.4469L87.4988 82.546L87.6965 82.666L87.8681 82.7494L88.0866 82.8485L88.2739 82.9215C88.352 82.9476 88.4248 82.9789 88.508 82.9998L88.6693 83.0467C88.9735 83.1453 89.2849 83.2202 89.6005 83.271C90.0497 83.3397 90.5052 83.3572 90.9583 83.3231C91.3427 83.2949 91.725 83.2427 92.1029 83.1667C92.4306 83.0989 92.7011 83.0311 92.8936 82.9789L93.1902 82.885L93.4763 82.7755C93.6532 82.6973 93.9133 82.5878 94.2098 82.4261C94.9605 82.0433 95.6369 81.5294 96.2075 80.9084C96.2699 80.8406 96.322 80.7676 96.3792 80.6945C97.4249 79.5628 97.9243 78.212 97.5185 77.0437Z" fill="#D2D2D2"/>
</g>
<path d="M81.5783 38.2196L72.3441 30.1826L70.3516 42.392L84.0286 79.8859C84.0286 79.9694 84.0754 80.0528 84.1014 80.1363C84.8297 82.1286 87.9355 82.8118 91.0361 81.6592C94.1368 80.5066 96.0408 78.0084 95.3489 76.0004L81.5783 38.2196Z" fill="#DC3258"/>
<g style="mix-blend-mode:multiply">
<path d="M76.5057 33.8286L72.3073 30.1777L71.7871 33.307C73.3671 32.8512 75.0627 33.0386 76.5057 33.8286Z" fill="#F7DB00"/>
</g>
<g style="mix-blend-mode:multiply" opacity="0.5">
<path d="M79.627 36.5352C80.1642 37.278 80.5949 38.0925 80.9067 38.9551L88.7935 60.568C90.3542 64.8864 88.7519 69.5855 85.2351 70.8894C83.7344 71.4138 82.0883 71.3257 80.6518 70.6442L84.023 79.886C84.023 79.9695 84.0698 80.0529 84.0958 80.1364C84.8241 82.1287 87.9299 82.8119 91.0305 81.6593C94.1311 80.5067 96.0352 78.0085 95.3433 76.0005L81.5778 38.2197L79.627 36.5352Z" fill="#DC3258"/>
</g>
<g style="mix-blend-mode:multiply" opacity="0.5">
<path d="M79.5077 42.0846L72.292 30.1934L74.425 43.957L87.1083 78.7284C87.1343 78.8119 87.1604 78.8953 87.1916 78.9788C87.9199 80.9711 89.6523 82.1654 91.0673 81.6386C92.4824 81.1119 93.0234 79.0987 92.3159 77.1116L79.5077 42.0846Z" fill="#DC3258"/>
</g>
<g style="mix-blend-mode:multiply" opacity="0.5">
<path d="M88.2164 73.9247C85.2407 75.0252 82.2649 74.4463 81.3857 72.6365L83.1389 77.4452C83.1584 77.5299 83.1827 77.6135 83.2118 77.6955C83.9401 79.6878 87.0459 80.371 90.1465 79.2236C93.2471 78.0762 95.1512 75.5467 94.4593 73.5596L92.5292 68.2607C93.2159 70.2478 91.3014 72.7773 88.2164 73.9247Z" fill="#DC3258"/>
</g>
<path d="M88.4713 74.5507C85.4956 75.6564 82.5198 75.0723 81.6406 73.2625L83.3938 78.0711C83.4133 78.1559 83.4376 78.2395 83.4667 78.3215C84.195 80.319 87.3008 81.0022 90.4014 79.8496C93.502 78.697 95.4061 76.1988 94.7142 74.1856L92.7789 68.8867C93.4448 70.879 91.5303 73.4033 88.4713 74.5507Z" fill="white"/>
<g style="mix-blend-mode:multiply" opacity="0.5">
<path d="M75.5123 39.1014C74.024 39.6981 72.3868 39.813 70.8302 39.43L70.3516 42.3923L70.4348 42.6218L70.6169 43.1121C71.4961 44.9166 74.4718 45.5008 77.4476 44.3951C80.5274 43.2529 82.447 40.7443 81.7551 38.7363L81.573 38.2148L79.31 36.2485C78.3702 37.5717 77.0429 38.5687 75.5123 39.1014Z" fill="#DC3258"/>
</g>
<path d="M70.3623 42.3138C71.3716 43.9514 74.2225 44.4469 77.0786 43.3882C79.9347 42.3294 81.8023 40.0659 81.4954 38.1727L72.3444 30.1826L70.3623 42.3138Z" fill="white"/>
<path opacity="0.2" d="M74.3934 43.9566C75.3114 43.9125 76.2169 43.726 77.0779 43.4037C77.9453 43.0826 78.7578 42.6287 79.4866 42.0581L72.3125 30.2451V30.2921L74.3934 43.9566Z" fill="#D2D2D2"/>
<path opacity="0.2" d="M72.3441 30.1826L72.214 30.9962L79.0499 36.9366C79.3569 38.8455 77.4892 41.109 74.6331 42.1521C73.362 42.6434 71.989 42.8101 70.6377 42.6371C71.8082 43.9984 74.4562 44.353 77.1042 43.3725C79.9655 42.3294 81.828 40.0503 81.521 38.1571L72.3441 30.1826Z" fill="#D2D2D2"/>
<path d="M71.418 35.7632C72.3532 36.0473 73.3538 36.0308 74.2793 35.7162C75.206 35.3413 75.9908 34.6823 76.5215 33.8334L72.318 30.1826L71.418 35.7632Z" fill="#F7DB00"/>
<path opacity="0.2" d="M88.4712 74.5508C87.6074 74.8756 86.698 75.0622 85.7764 75.1036L87.1082 78.7545C87.1342 78.8379 87.1602 78.9214 87.1914 79.0048C87.3695 79.5047 87.6259 79.973 87.951 80.3921C88.7883 80.3361 89.6134 80.1605 90.4013 79.8706C91.1936 79.5818 91.9401 79.1795 92.6175 78.6762C92.5926 78.1564 92.4909 77.6432 92.3157 77.1533L90.8799 73.2261C90.1502 73.79 89.3376 74.2369 88.4712 74.5508Z" fill="#D2D2D2"/>
<path d="M89.1061 76.3658C86.1303 77.4663 83.1546 76.8873 82.2754 75.0776L84.0286 79.8862C84.0286 79.9697 84.0754 80.0531 84.1014 80.1366C84.8298 82.1289 87.9356 82.8121 91.0362 81.6595C94.1368 80.5069 96.0408 78.0087 95.3489 76.0007L93.4137 70.707C94.1108 72.6889 92.1911 75.2184 89.1061 76.3658Z" fill="#D2D2D2"/>
<path d="M89.1061 76.3658C86.1303 77.4663 83.1546 76.8873 82.2754 75.0776L82.5043 75.7034L82.6812 76.1937C83.5656 77.9982 86.5361 78.5824 89.5119 77.4767C92.5969 76.3345 94.5166 73.8259 93.8246 71.8179L93.4137 70.707C94.1108 72.6889 92.1911 75.2184 89.1061 76.3658Z" fill="#242424"/>
<g style="mix-blend-mode:multiply" opacity="0.5">
<path d="M93.4132 70.7017C93.5305 71.0734 93.5734 71.4647 93.5395 71.8532C93.5055 72.2416 93.3955 72.6195 93.2155 72.9652L93.7878 74.5298C94.4797 76.5169 92.56 79.0464 89.475 80.1886C87.5033 80.924 85.5368 80.9135 84.1738 80.2981C85.0062 82.1705 88.0236 82.7859 91.041 81.6646C94.0583 80.5432 96.0456 78.0137 95.3537 76.0058L93.4184 70.7121L93.4132 70.7017Z" fill="#D2D2D2"/>
</g>
<path d="M81.5314 38.2197C81.5794 38.6573 81.5333 39.1001 81.3962 39.5184C81.2906 39.9338 81.1351 40.3348 80.9332 40.7127C80.7191 41.1292 80.4553 41.518 80.1476 41.8705C79.5732 42.4872 78.8975 43.0006 78.1499 43.3882C77.9107 43.5177 77.664 43.6326 77.4112 43.7325L77.125 43.8472L76.8285 43.9359C76.6412 43.988 76.3707 44.061 76.0378 44.1288C75.6613 44.2027 75.2809 44.2549 74.8984 44.2853C74.4453 44.3195 73.9898 44.302 73.5406 44.2331C73.0751 44.1633 72.6194 44.039 72.1828 43.8629C71.7821 43.7009 71.407 43.4813 71.0695 43.2109C70.8176 43.0034 70.5984 42.759 70.4192 42.486C70.3047 42.2773 70.2527 42.1522 70.2683 42.1365C70.2839 42.1209 70.3724 42.2252 70.518 42.3973C70.7161 42.6132 70.9398 42.8041 71.1839 42.9658C71.8924 43.398 72.6968 43.6471 73.525 43.6907C73.943 43.7261 74.3636 43.7139 74.7788 43.6542C75.1417 43.6025 75.5013 43.5294 75.8557 43.4352C76.1626 43.3517 76.4175 43.2735 76.5944 43.2109L76.8701 43.1118L77.1459 43.0179C77.3175 42.9554 77.5725 42.8667 77.8586 42.7311C78.5791 42.4167 79.2407 41.981 79.8147 41.4429C80.1311 41.1475 80.4106 40.8148 80.647 40.4519C80.8563 40.1234 81.0306 39.7738 81.1673 39.4089C81.417 38.7413 81.4742 38.2197 81.5314 38.2197Z" fill="#A3143A"/>
<path d="M95.3906 76.2406C95.4422 76.6778 95.3978 77.121 95.2606 77.5392C95.1526 77.9539 94.9973 78.3547 94.7976 78.7336C94.5744 79.1476 94.3019 79.5329 93.986 79.881C93.4172 80.5017 92.7424 81.0157 91.9935 81.3987C91.6917 81.5603 91.4368 81.6699 91.2547 81.7481L90.9686 81.8576L90.6721 81.9515C90.4848 82.0037 90.2143 82.0715 89.8813 82.1393C89.5052 82.2157 89.1247 82.2679 88.742 82.2957C88.2871 82.3299 87.8299 82.3124 87.379 82.2436C86.9159 82.1731 86.4621 82.0507 86.0264 81.8785C85.625 81.7178 85.2498 81.498 84.9131 81.2266C84.6611 81.0192 84.4418 80.7748 84.2628 80.5016C84.1431 80.2878 84.0911 80.1626 84.1119 80.1522C84.1327 80.1417 84.2159 80.2356 84.3564 80.4077C84.555 80.6252 84.7805 80.8162 85.0275 80.9762C85.7345 81.4125 86.5395 81.6635 87.3686 81.7064C87.7868 81.7375 88.2071 81.7235 88.6224 81.6647C88.9836 81.613 89.3414 81.5398 89.694 81.4456C90.0062 81.3674 90.2611 81.2839 90.438 81.2213L90.7137 81.1222L90.9894 81.0336C91.1611 80.9658 91.4108 80.8771 91.7021 80.7467C92.4206 80.4285 93.0816 79.9932 93.6582 79.4585C93.9706 79.1589 94.2481 78.8247 94.4854 78.4624C94.6964 78.1348 94.8708 77.785 95.0056 77.4193C95.2814 76.7413 95.3386 76.2249 95.3906 76.2406Z" fill="#242424"/>
<path d="M93.5596 71.223C93.6144 71.6585 93.5699 72.1007 93.4295 72.5164C93.3257 72.9324 93.1702 73.3337 92.9665 73.7108C92.7434 74.1264 92.4709 74.5135 92.1549 74.8634C91.5831 75.4807 90.909 75.9942 90.1624 76.3811C89.8659 76.5376 89.6058 76.6471 89.4237 76.7253L89.1376 76.8401L88.841 76.9287C88.6537 76.9809 88.3832 77.0539 88.0503 77.1217C87.6721 77.1959 87.2899 77.2481 86.9057 77.2782C86.4524 77.3103 85.9969 77.2911 85.5479 77.2208C85.0838 77.1551 84.6296 77.0325 84.1953 76.8557C83.794 76.695 83.4188 76.4753 83.082 76.2038C82.8288 75.9977 82.6094 75.753 82.4317 75.4788C82.3121 75.2702 82.26 75.145 82.2808 75.1346C82.3017 75.1242 82.3849 75.218 82.5254 75.3849C82.725 75.6027 82.9504 75.7954 83.1964 75.9586C83.9049 76.3908 84.7093 76.6399 85.5375 76.6836C85.9555 76.7164 86.3759 76.7041 86.7913 76.6471C87.1521 76.5929 87.5098 76.5198 87.863 76.428C88.1751 76.3446 88.43 76.2611 88.6069 76.2038L88.8826 76.1047L89.1584 76.0108C89.33 75.9482 89.585 75.8596 89.8711 75.7239C90.5906 75.4076 91.2519 74.9721 91.8272 74.4357C92.1419 74.1382 92.4196 73.8038 92.6544 73.4396C92.8655 73.1121 93.04 72.7623 93.1746 72.3965C93.4451 71.7185 93.5075 71.2074 93.5596 71.223Z" fill="#D2D2D2"/>
<g style="mix-blend-mode:multiply">
<path d="M72.4062 30.2139V30.2608L73.2698 35.9404C73.6484 35.9147 74.0214 35.8357 74.3779 35.7057C74.7516 35.5704 75.1024 35.3787 75.4184 35.1373L72.4062 30.2139Z" fill="#F7DB00"/>
</g>
<g style="mix-blend-mode:multiply" opacity="0.5">
<path d="M64.8478 14.7918L71.0438 7.44845C71.1014 7.39111 71.1553 7.33014 71.2051 7.26591L71.2623 7.19811L71.3768 7.04686C71.3768 7.02078 71.4132 6.99471 71.4288 6.96342C71.4699 6.90628 71.5081 6.84709 71.5432 6.78608L71.5901 6.70786C71.6324 6.63351 71.6706 6.5569 71.7045 6.47837C71.7163 6.46271 71.7251 6.44504 71.7305 6.42622C71.9424 5.97376 72.0559 5.48132 72.0635 4.98154C72.0583 4.50672 71.9591 4.03765 71.7716 3.60162C71.584 3.16558 71.3119 2.77128 70.971 2.44161C68.4114 -0.275648 66.4189 1.4611 65.7686 2.02958C64.2353 3.42845 62.8174 4.94938 61.5287 6.57747C61.1905 6.98427 60.8576 7.40151 60.5194 7.81353C59.8691 8.62193 59.198 9.46162 58.4905 10.2231C58.1688 10.5142 57.916 10.8736 57.7504 11.2751C57.5848 11.6766 57.5106 12.1101 57.5333 12.544C57.5333 12.6378 57.5333 12.7265 57.5697 12.8256C57.6517 13.2751 57.8349 13.7 58.1053 14.0678C58.3758 14.4356 58.7264 14.7368 59.1304 14.9483L59.2605 15.0213L59.6246 15.183H59.6923C59.7998 15.2247 59.909 15.2612 60.02 15.2925H60.0929C60.2021 15.3186 60.3061 15.3447 60.4102 15.3603H60.4518C60.5419 15.3654 60.6322 15.3654 60.7223 15.3603H61.0709H61.1489C61.2362 15.3554 61.3231 15.3449 61.4091 15.329H61.4663L61.6848 15.2716H61.7524C61.832 15.2485 61.9102 15.2207 61.9865 15.1882L62.0541 15.1569C62.1329 15.1257 62.2093 15.0891 62.283 15.0474H62.3195C62.3934 15.0107 62.4647 14.9689 62.5328 14.9222H62.5692L62.7929 14.7605H62.8241C63.4166 14.2571 63.9412 13.6785 64.3848 13.0394C64.5513 12.8204 64.7126 12.6065 64.8738 12.4188C65.4461 11.7408 66.0183 11.0419 66.5906 10.3326C67.1629 9.62329 67.7143 8.96615 68.2814 8.29335L68.6247 7.89698C69.0616 7.4188 69.4682 6.91365 69.8421 6.3845C69.8859 6.31374 69.9259 6.2406 69.9617 6.16544C69.964 6.15514 69.964 6.14446 69.9617 6.13415C70.0492 5.93073 70.0943 5.71155 70.0943 5.49004C70.0943 5.26853 70.0492 5.04935 69.9617 4.84593C69.7857 4.47239 69.5235 4.14614 69.197 3.89406C68.8705 3.64198 68.4889 3.47129 68.0837 3.39604C66.9236 3.16135 66.0808 4.16792 65.5241 4.83029C65.4582 4.91373 65.3906 4.99196 65.3212 5.06498L60.1189 10.9897C60.0335 11.0942 59.9868 11.225 59.9868 11.36C59.9868 11.4951 60.0335 11.6259 60.1189 11.7303L60.1917 11.8138C60.3083 11.9154 60.4604 11.9665 60.6145 11.9558C60.7687 11.945 60.9123 11.8733 61.0137 11.7564L66.216 5.83165L66.4345 5.58131C66.8351 5.09628 67.3918 4.43913 67.8756 4.53822C67.9325 4.54831 67.9883 4.56403 68.0421 4.58516C68.074 4.59324 68.1053 4.6037 68.1357 4.61646H68.1981C68.4895 4.73839 68.7315 4.95519 68.8848 5.23188C68.8955 5.24637 68.9042 5.26214 68.9109 5.27882C68.9506 5.34683 68.9716 5.42424 68.9716 5.50309C68.9716 5.58193 68.9506 5.65934 68.9109 5.72735C68.566 6.21175 68.1925 6.67502 67.7923 7.11466C67.6623 7.26069 67.5374 7.40151 67.4386 7.52147C66.8663 8.19426 66.3045 8.8827 65.7374 9.57115C65.1704 10.2596 64.6033 10.9532 64.031 11.6573C63.8594 11.8607 63.6877 12.085 63.5108 12.3197C62.3351 13.8843 61.4299 14.8075 59.8067 13.9886C59.5317 13.868 59.2892 13.6836 59.0992 13.4505C58.9093 13.2175 58.7773 12.9425 58.7142 12.6483C58.6613 12.3937 58.6739 12.1299 58.7506 11.8816C58.8011 11.7286 58.8748 11.5843 58.9691 11.4539C59.0142 11.3879 59.0663 11.3201 59.1252 11.2505L59.3281 11.021C60.0564 10.2335 60.7432 9.37817 61.4091 8.55412C61.7368 8.1421 62.0698 7.7353 62.4027 7.33371C63.6553 5.75573 65.0295 4.2787 66.5126 2.91621C67.423 2.12347 68.453 1.4924 70.1126 3.25001C70.1998 3.3373 70.2798 3.43147 70.3519 3.53164L70.4091 3.60988C70.4681 3.68637 70.5201 3.7646 70.5652 3.84457C70.5652 3.84457 70.5652 3.87586 70.5912 3.8915C70.6374 3.97178 70.6774 4.05547 70.7109 4.14185L70.7577 4.2618C70.7722 4.30102 70.7844 4.34108 70.7941 4.38176C70.8432 4.55169 70.8729 4.72666 70.8826 4.9033C70.8801 5.56714 70.6252 6.20505 70.1698 6.68699L63.927 14.0669C63.852 14.1541 63.805 14.262 63.792 14.3764C63.779 14.4908 63.8007 14.6065 63.8542 14.7084C63.8532 14.7205 63.8532 14.7327 63.8542 14.7449L63.8958 14.8022C63.9176 14.8337 63.9439 14.8619 63.9738 14.8857C64.0349 14.9425 64.1074 14.9855 64.1865 15.0118C64.2655 15.0381 64.3493 15.0471 64.4321 15.0382C64.515 15.0293 64.5949 15.0027 64.6666 14.9602C64.7383 14.9177 64.8001 14.8603 64.8478 14.7918Z" fill="#242424"/>
</g>
<path d="M59.0887 14.2704L59.2239 14.3382C61.8251 15.6525 63.3546 13.655 64.3639 12.3407C64.5304 12.1164 64.6968 11.9078 64.8529 11.72C65.4304 11.0368 65.9974 10.3432 66.5697 9.63386C67.1419 8.92456 67.6934 8.26741 68.2604 7.59461L68.6038 7.19824C69.0424 6.71833 69.4507 6.21144 69.8264 5.68054C69.9727 5.4553 70.0599 5.19665 70.0799 4.9286C70.0999 4.66054 70.0521 4.39176 69.9408 4.14719C69.7654 3.77268 69.5035 3.44538 69.177 3.19237C68.8504 2.93935 68.4685 2.76787 68.0628 2.69208C66.9026 2.4626 66.0599 3.46397 65.5032 4.13155L65.3055 4.36624L60.1031 10.291C60.0521 10.3478 60.0129 10.4142 59.9879 10.4864C59.9628 10.5586 59.9524 10.6351 59.9573 10.7114C59.9621 10.7877 59.9821 10.8622 60.0161 10.9306C60.0501 10.9991 60.0974 11.06 60.1552 11.1098C60.2121 11.1603 60.2785 11.199 60.3504 11.2238C60.4224 11.2485 60.4985 11.2587 60.5744 11.2539C60.6502 11.249 60.7244 11.2292 60.7927 11.1955C60.8609 11.1619 60.9218 11.115 60.9719 11.0577L66.1743 5.13291L66.3928 4.87736C66.7986 4.39754 67.35 3.73518 67.8338 3.83427C68.0544 3.87328 68.263 3.96274 68.4435 4.0957C68.6239 4.22867 68.7713 4.40156 68.8743 4.60094C68.9169 4.66794 68.9396 4.74575 68.9396 4.8252C68.9396 4.90466 68.9169 4.98246 68.8743 5.04947C68.5322 5.53433 68.1586 5.99604 67.7558 6.43157L67.4021 6.84358C66.8298 7.51638 66.2679 8.20482 65.7009 8.89326C65.1338 9.58171 64.5668 10.2754 63.9945 10.9482C63.8228 11.1516 63.6512 11.381 63.4743 11.6157C62.2985 13.1543 61.3933 14.1035 59.7754 13.2847C59.4988 13.1642 59.2548 12.9793 59.0639 12.7452C58.873 12.5112 58.7406 12.2348 58.6777 11.9391C58.5633 11.2402 58.7765 10.8647 59.3072 10.2962C60.0355 9.50347 60.7222 8.65335 61.3881 7.82931C61.7159 7.41728 62.0488 7.00527 62.3818 6.60368C63.6331 5.02618 65.0074 3.55079 66.4916 2.1914C67.4073 1.39344 68.4321 0.762361 70.0969 2.52519C70.3315 2.74275 70.5196 3.00578 70.6498 3.29835C70.7801 3.59092 70.8497 3.90695 70.8546 4.2273C70.8595 4.54765 70.7994 4.86566 70.6781 5.16207C70.5568 5.45848 70.3768 5.72712 70.1489 5.95175L63.9061 13.3264C63.8566 13.3845 63.8191 13.4518 63.7958 13.5245C63.7724 13.5972 63.7636 13.6738 63.7699 13.7499C63.7762 13.826 63.7974 13.9002 63.8324 13.968C63.8674 14.0358 63.9154 14.0961 63.9737 14.1452C64.0317 14.1948 64.0988 14.2324 64.1713 14.2558C64.2438 14.2793 64.3202 14.2881 64.3962 14.2818C64.4721 14.2755 64.546 14.2542 64.6137 14.2191C64.6814 14.184 64.7414 14.1359 64.7905 14.0774L70.9865 6.73406C71.3151 6.40316 71.5745 6.00975 71.7494 5.57695C71.9242 5.14415 72.0111 4.68068 72.0048 4.21376C71.9985 3.74685 71.8992 3.28591 71.7127 2.85801C71.5262 2.43011 71.2563 2.04387 70.9189 1.722C68.3541 -0.995253 66.3668 0.741495 65.7165 1.3152C64.1845 2.71356 62.7667 4.23264 61.4766 5.85786C61.1384 6.26467 60.8055 6.68191 60.4673 7.09914C59.817 7.90754 59.1459 8.74201 58.4384 9.50347C58.0788 9.82567 57.806 10.2334 57.6451 10.6892C57.4842 11.1449 57.4403 11.634 57.5176 12.1112C57.5962 12.568 57.7789 13.0004 58.0514 13.3749C58.3239 13.7494 58.6788 14.0558 59.0887 14.2704Z" fill="#F7DB00"/>
<g style="mix-blend-mode:multiply" opacity="0.5">
<path d="M59.338 9.72246C60.0664 8.93493 60.7583 8.07959 61.419 7.25555C61.745 6.84179 62.0779 6.43498 62.4178 6.03513C63.6688 4.45736 65.0412 2.98034 66.5225 1.61764C67.4381 0.824892 68.463 0.193813 70.1277 1.95142C70.4321 2.22751 70.6579 2.57959 70.7822 2.97174C70.9065 3.36389 70.9248 3.78209 70.8353 4.18365C70.7945 3.55934 70.5216 2.97307 70.0705 2.54077C68.4058 0.777947 67.3809 1.40903 66.4653 2.20699C64.981 3.56637 63.6067 5.04177 62.3554 6.61926C62.0224 7.02085 61.6895 7.43287 61.3618 7.84489C60.6959 8.66893 60.0091 9.51906 59.2808 10.3118C59.0226 10.5577 58.8203 10.8566 58.6877 11.188C58.674 10.9097 58.7258 10.6321 58.8387 10.3776C58.9517 10.123 59.1227 9.8986 59.338 9.72246ZM68.8479 4.56958L68.9156 4.47571C68.9554 4.4077 68.9763 4.33028 68.9763 4.25144C68.9763 4.1726 68.9554 4.09519 68.9156 4.02718C68.8114 3.82876 68.6636 3.65667 68.4833 3.52386C68.3031 3.39105 68.0951 3.301 67.8751 3.26051C67.3913 3.16141 66.8346 3.82378 66.4341 4.3036C66.356 4.39748 66.2884 4.48093 66.2156 4.55916L61.0132 10.4839C60.9634 10.5416 60.9028 10.5889 60.8347 10.623C60.7667 10.6572 60.6926 10.6775 60.6167 10.6828C60.5408 10.6881 60.4646 10.6784 60.3925 10.6541C60.3203 10.6298 60.2537 10.5915 60.1964 10.5413C60.1376 10.4887 60.0899 10.4249 60.056 10.3535C59.9708 10.4692 59.9321 10.6128 59.9476 10.7557C59.963 10.8987 60.0314 11.0306 60.1392 11.1254C60.1962 11.1759 60.2625 11.2146 60.3345 11.2393C60.4064 11.2641 60.4825 11.2743 60.5584 11.2694C60.6343 11.2646 60.7085 11.2448 60.7767 11.2111C60.8449 11.1774 60.9058 11.1306 60.956 11.0733L66.1583 5.1485L66.3768 4.89295C66.7826 4.41313 67.3341 3.75076 67.8179 3.84986C68.0309 3.887 68.2332 3.97074 68.4104 4.09513C68.5875 4.21953 68.7351 4.38152 68.8427 4.56958H68.8479ZM63.8797 13.3785C63.7921 13.4956 63.7525 13.6418 63.7689 13.7873C63.7854 13.9327 63.8566 14.0663 63.9681 14.1608C64.0261 14.2104 64.0933 14.248 64.1658 14.2714C64.2383 14.2948 64.3147 14.3037 64.3906 14.2974C64.4665 14.2911 64.5404 14.2698 64.6081 14.2347C64.6758 14.1996 64.7359 14.1515 64.7849 14.093L70.9809 6.74965C71.6218 6.08574 71.9928 5.20616 72.0214 4.28273C71.8863 4.98797 71.5522 5.63958 71.059 6.1603L64.8629 13.5089C64.8139 13.5673 64.7538 13.6155 64.6862 13.6506C64.6185 13.6856 64.5446 13.7069 64.4686 13.7132C64.3927 13.7195 64.3163 13.7107 64.2438 13.6873C64.1713 13.6638 64.1041 13.6263 64.0462 13.5767C63.973 13.5264 63.9139 13.4581 63.8745 13.3785H63.8797ZM57.5172 11.0993C57.4513 11.4439 57.4513 11.7979 57.5172 12.1424C57.5992 12.5926 57.7823 13.0182 58.0527 13.3869C58.3231 13.7555 58.6737 14.0577 59.0779 14.2703L59.2132 14.3381C61.4034 15.4386 62.8548 14.213 63.8277 13.0082C63.8428 12.916 63.8823 12.8295 63.9421 12.7579L66.2988 9.96237L66.5589 9.64944C67.1208 8.96622 67.6826 8.28299 68.2497 7.6102L68.593 7.21383C69.0316 6.73391 69.44 6.22703 69.8156 5.69613C70.0012 5.40477 70.0854 5.05998 70.0549 4.71562C70.0114 4.85503 69.9502 4.98826 69.8728 5.112C69.4959 5.6419 69.0876 6.1487 68.6503 6.62969L68.3069 7.02085C67.7398 7.69364 67.178 8.37687 66.6161 9.06009C66.0543 9.74332 65.4768 10.4526 64.8994 11.1463C64.7433 11.334 64.582 11.5479 64.4103 11.7669C63.4011 13.0864 61.882 15.0787 59.2704 13.7697L59.1351 13.6966C58.7274 13.4866 58.3727 13.1864 58.0978 12.8186C57.8229 12.4508 57.635 12.0252 57.5484 11.5739C57.525 11.4169 57.5146 11.2581 57.5172 11.0993Z" fill="#F7DB00"/>
</g>
<g style="mix-blend-mode:screen">
<g style="mix-blend-mode:screen">
<path d="M71.673 4.69993C71.6002 5.0285 71.3816 5.25277 71.184 5.22147C70.9863 5.19018 70.8718 4.88247 70.9394 4.55912C71.0071 4.23576 71.2256 4.00628 71.4285 4.03757C71.6314 4.06886 71.7406 4.37657 71.673 4.69993ZM71.3713 3.18223C71.2464 3.20831 71.1892 3.38563 71.236 3.5786C71.2828 3.77157 71.4181 3.90196 71.5377 3.87067C71.6574 3.83938 71.7146 3.66206 71.6678 3.4743C71.621 3.28654 71.4857 3.15094 71.3713 3.18223Z" fill="#F7DB00"/>
</g>
</g>
<g style="mix-blend-mode:screen">
<g style="mix-blend-mode:screen">
<path d="M57.8659 10.531C57.9231 10.2024 58.1312 9.96772 58.3341 10.0094C58.537 10.0512 58.6566 10.338 58.5994 10.6666C58.5422 10.9952 58.3341 11.2299 58.1312 11.1881C57.9283 11.1464 57.8086 10.8543 57.8659 10.531ZM58.2248 12.0383C58.3445 12.007 58.3965 11.8244 58.3393 11.6367C58.282 11.4489 58.152 11.3185 58.0323 11.355C57.9127 11.3915 57.8607 11.5636 57.9179 11.7566C57.9751 11.9496 58.1052 12.0695 58.2248 12.0383Z" fill="#F7DB00"/>
</g>
</g>
<path d="M96.2747 14.5833C96.5617 15.3108 96.8971 16.0183 97.2788 16.7007C97.8783 17.0775 98.5022 17.4138 99.1464 17.7073C98.5032 18.0008 97.8794 18.3353 97.2788 18.7087C96.8971 19.3912 96.5617 20.0986 96.2747 20.8262C95.9898 20.0986 95.656 19.3911 95.2758 18.7087C94.6753 18.3353 94.0514 18.0008 93.4082 17.7073C94.0524 17.4138 94.6763 17.0775 95.2758 16.7007C95.656 16.0183 95.9898 15.3108 96.2747 14.5833Z" fill="white"/>
<path d="M96.3168 14.5781C96.4053 14.7398 96.4885 14.9067 96.577 15.0997L96.8319 15.5951L97.092 16.0854C97.1336 16.1688 97.1752 16.2523 97.2221 16.3305C97.2689 16.4088 97.3157 16.4974 97.3573 16.5496L97.3885 16.5913L97.503 16.6747L97.7267 16.7999C97.888 16.8834 98.0492 16.972 98.2157 17.0503L98.7099 17.3006L99.2042 17.5562C99.2226 17.565 99.2391 17.5775 99.2526 17.5929C99.2661 17.6084 99.2763 17.6264 99.2826 17.6459C99.289 17.6654 99.2913 17.686 99.2894 17.7065C99.2875 17.7269 99.2816 17.7467 99.2718 17.7648C99.2653 17.7822 99.2549 17.7978 99.2413 17.8105C99.2278 17.8232 99.2115 17.8325 99.1937 17.8378C98.8556 17.9838 98.5122 18.1299 98.1533 18.2863L97.633 18.521L97.3937 18.6566L97.2845 18.7296L97.2429 18.787C97.1893 18.861 97.1423 18.9395 97.1024 19.0217C97.0584 19.1013 97.0184 19.1831 96.9827 19.2668C96.8995 19.4337 96.8267 19.6006 96.7538 19.7884C96.6082 20.1326 96.4781 20.482 96.3481 20.8315C96.3387 20.8567 96.3199 20.8774 96.2956 20.889C96.2714 20.9007 96.2436 20.9025 96.218 20.894C96.1935 20.8838 96.1732 20.8654 96.1608 20.8419L95.677 19.8353C95.5937 19.6684 95.5157 19.5015 95.4272 19.3138L95.3024 19.0738C95.2816 19.0227 95.259 18.9722 95.2348 18.9226L95.2035 18.8809L95.0891 18.8026L94.8706 18.6775L94.3868 18.4271L93.3879 17.9369C93.3403 17.9113 93.3041 17.8685 93.2867 17.8172C93.2693 17.7659 93.272 17.7099 93.2943 17.6605C93.3161 17.6192 93.3508 17.5862 93.3931 17.5666C93.7313 17.4153 94.0642 17.2484 94.3972 17.092L94.8862 16.8416L95.1203 16.7112L95.2139 16.6487V16.6226L95.2556 16.5652C95.3051 16.4951 95.3503 16.4219 95.3908 16.3462C95.4376 16.2731 95.4793 16.1897 95.5261 16.1115L95.7862 15.6212L96.3064 14.6251H96.3324L96.3168 14.5781ZM96.3168 14.6459C96.27 14.8076 96.2128 14.9641 96.1608 15.1257C96.1087 15.2874 96.0359 15.4804 95.9683 15.6473C95.9007 15.8142 95.833 15.9967 95.755 16.1688C95.7186 16.2575 95.6874 16.3409 95.6405 16.4348C95.599 16.5262 95.5521 16.615 95.5001 16.7008L95.4637 16.7582C95.4376 16.7895 95.4637 16.7582 95.4637 16.7582L95.3336 16.8625L95.0891 17.0242L94.6001 17.3006C94.2671 17.4884 93.9342 17.65 93.6012 17.8221V17.4518C93.9394 17.6135 94.2723 17.7752 94.6053 17.9734L95.0995 18.2498L95.3596 18.4167L95.4689 18.5002V18.5367L95.5209 18.6097C95.5768 18.695 95.6272 18.7839 95.6717 18.8757C95.7134 18.9643 95.755 19.0478 95.7914 19.1364C95.8694 19.3085 95.9423 19.4807 96.0151 19.658C96.1556 20.0022 96.2856 20.3569 96.4105 20.7011H96.218L96.6966 19.6893C96.7799 19.5224 96.8527 19.3503 96.9359 19.1677C96.9775 19.0843 97.014 19.0008 97.066 18.9122C97.1045 18.8243 97.1516 18.7405 97.2065 18.6618L97.2429 18.6045V18.5732C97.2429 18.5732 97.2429 18.5732 97.2741 18.5471L97.3937 18.4532L97.633 18.2967L98.1117 18.0047C98.4394 17.8169 98.762 17.6344 99.0949 17.4831V17.77C98.7516 17.624 98.4134 17.4623 98.0857 17.2849L97.5914 17.0085L97.3313 16.8469L97.2272 16.7582L97.2012 16.7217L97.1544 16.6539C97.0997 16.5697 97.0527 16.4806 97.014 16.3879C96.9671 16.2992 96.9307 16.2158 96.8943 16.1271C96.8163 15.955 96.7486 15.7829 96.681 15.6056C96.6134 15.4282 96.551 15.2561 96.4937 15.084C96.4365 14.9119 96.3481 14.8076 96.2752 14.6459H96.3168Z" fill="#D2D2D2"/>
<path d="M140.693 23.2773C140.978 24.0059 141.313 24.7135 141.697 25.3948C142.295 25.7691 142.918 26.1036 143.56 26.3962C142.917 26.6888 142.294 27.0251 141.697 27.4028C141.313 28.0841 140.978 28.7917 140.693 29.5202C140.408 28.7917 140.073 28.0841 139.689 27.4028C139.09 27.0249 138.466 26.6886 137.821 26.3962C138.465 26.1038 139.089 25.7693 139.689 25.3948C140.073 24.7135 140.408 24.0059 140.693 23.2773Z" fill="white"/>
<path d="M140.708 23.2722C140.797 23.4339 140.885 23.6008 140.969 23.7677L141.229 24.2892L141.484 24.7795C141.524 24.8618 141.57 24.9419 141.619 25.0194C141.659 25.0952 141.704 25.1684 141.754 25.2384L141.785 25.2854L141.9 25.3688L142.118 25.4888L142.607 25.7443L143.128 25.9947C143.294 26.0729 143.455 26.1616 143.622 26.245C143.659 26.2641 143.688 26.2971 143.702 26.3371C143.715 26.377 143.713 26.4207 143.695 26.4589C143.677 26.4909 143.65 26.5165 143.617 26.5319C143.273 26.6779 142.93 26.8239 142.576 26.9804C142.404 27.0534 142.238 27.1369 142.056 27.2151L141.817 27.3507L141.712 27.4237V27.455L141.671 27.5072C141.619 27.583 141.574 27.6633 141.536 27.7471C141.488 27.8237 141.446 27.9039 141.411 27.987C141.333 28.1591 141.255 28.326 141.182 28.5085C141.036 28.8528 140.911 29.2022 140.781 29.5516C140.771 29.5772 140.751 29.5976 140.725 29.6083C140.7 29.6191 140.672 29.6193 140.646 29.609C140.633 29.6049 140.622 29.5981 140.612 29.5891C140.602 29.5801 140.594 29.5691 140.589 29.5568L140.105 28.5503C140.027 28.3834 139.944 28.2165 139.86 28.0548C139.821 27.9726 139.778 27.8925 139.73 27.8149C139.694 27.7379 139.651 27.6646 139.6 27.5958L139.569 27.5541V27.528L139.455 27.4446L139.236 27.3246C139.075 27.2412 138.914 27.1525 138.747 27.0743L137.753 26.584C137.705 26.5604 137.668 26.5186 137.651 26.4678C137.633 26.417 137.637 26.3613 137.66 26.3128C137.684 26.2712 137.72 26.2383 137.764 26.219L138.763 25.7391L139.283 25.494L139.517 25.3636L139.611 25.301V25.2697L139.652 25.2124C139.705 25.143 139.752 25.0698 139.793 24.9933C139.834 24.9255 139.881 24.8421 139.923 24.7586C139.964 24.6752 140.1 24.4353 140.183 24.2684L140.703 23.2774H140.734L140.708 23.2722ZM140.708 23.34C140.656 23.4965 140.604 23.6582 140.547 23.8146C140.49 23.9711 140.422 24.1693 140.355 24.3362C140.287 24.5031 140.219 24.6804 140.147 24.8577C140.11 24.9412 140.074 25.0298 140.027 25.1237C139.987 25.2144 139.94 25.3017 139.886 25.3845L139.85 25.4418V25.4731C139.824 25.5044 139.85 25.4731 139.85 25.4731L139.72 25.5774L139.475 25.7339C139.314 25.833 139.153 25.9269 138.986 26.0156C138.659 26.1981 138.326 26.365 137.988 26.5371V26.2242C138.326 26.3858 138.664 26.5475 138.992 26.7457L139.486 27.0221L139.751 27.189L139.86 27.2725V27.309L139.907 27.382C139.963 27.4674 140.014 27.5562 140.058 27.648C140.105 27.7314 140.141 27.8201 140.183 27.9035C140.261 28.0757 140.329 28.253 140.401 28.4251C140.547 28.7693 140.672 29.124 140.802 29.4682H140.604L141.083 28.4564C141.166 28.2843 141.239 28.1174 141.327 27.9348C141.369 27.8514 141.406 27.7627 141.452 27.6793C141.493 27.5925 141.54 27.5088 141.593 27.4289L141.634 27.3716V27.3403L141.666 27.309L141.785 27.2151L142.025 27.0639L142.508 26.7718C142.831 26.584 143.159 26.4015 143.486 26.2502V26.5423C143.143 26.3911 142.81 26.2294 142.477 26.0521C142.311 25.9686 142.149 25.8747 141.957 25.7809L141.702 25.614L141.593 25.5305V25.4992L141.546 25.4262C141.489 25.3444 141.44 25.2571 141.4 25.1654C141.359 25.0768 141.322 24.9933 141.286 24.9047C141.208 24.7325 141.14 24.5552 141.073 24.3831C141.005 24.211 140.943 24.0285 140.88 23.8616C140.818 23.6947 140.74 23.5017 140.693 23.34H140.708Z" fill="#D2D2D2"/>
<path d="M66.7307 39.0386C67.0155 39.7671 67.351 40.4747 67.7348 41.156C68.3355 41.5308 68.9593 41.867 69.6025 42.1626C68.9592 42.4561 68.3354 42.7906 67.7348 43.164C67.351 43.8454 67.0155 44.5529 66.7307 45.2815C66.446 44.5529 66.1105 43.8454 65.7267 43.164C65.1284 42.7897 64.5062 42.4552 63.8643 42.1626C64.5072 41.8701 65.1295 41.5337 65.7267 41.156C66.1105 40.4747 66.446 39.7671 66.7307 39.0386Z" fill="white"/>
<path d="M66.746 39.0332C66.8396 39.1948 66.9229 39.3617 67.0061 39.5286L67.2662 40.0502L67.5212 40.5404C67.568 40.6239 67.6096 40.7073 67.6564 40.7856C67.6968 40.8614 67.742 40.9346 67.7917 41.0046L67.8229 41.0463L67.9373 41.1298L68.161 41.255C68.3171 41.3384 68.4836 41.4271 68.6501 41.5053L69.1703 41.7556L69.6645 42.0112C69.6835 42.0195 69.7005 42.0317 69.7145 42.0469C69.7285 42.0621 69.7393 42.0801 69.7461 42.0997C69.7529 42.1192 69.7557 42.14 69.7542 42.1606C69.7527 42.1813 69.747 42.2015 69.7374 42.2198C69.73 42.2367 69.7192 42.2518 69.7058 42.2644C69.6924 42.2769 69.6766 42.2866 69.6593 42.2928C69.3212 42.4389 68.9778 42.5849 68.6189 42.7414C68.4472 42.8144 68.2807 42.8978 68.0986 42.9761L67.8593 43.1117L67.7553 43.1847V43.216L67.7136 43.2733C67.6635 43.3485 67.6183 43.4269 67.5784 43.508C67.5326 43.5876 67.4909 43.6694 67.4535 43.7532C67.3755 43.9201 67.2975 44.0869 67.2246 44.2747C67.079 44.6189 66.9541 44.9684 66.824 45.3178C66.8136 45.3434 66.7938 45.3642 66.7687 45.3758C66.7436 45.3874 66.715 45.389 66.6888 45.3804C66.6642 45.3702 66.644 45.3517 66.6315 45.3282L66.1529 44.3216L65.9032 43.8262C65.8616 43.7479 65.82 43.6593 65.7732 43.5863C65.7356 43.5099 65.6921 43.4367 65.6431 43.3672L65.6171 43.3255L65.5026 43.2473L65.2841 43.1221C65.1229 43.0386 64.9616 42.95 64.7951 42.8717L63.8015 42.3815C63.7769 42.3698 63.755 42.3533 63.7369 42.333C63.7189 42.3127 63.7051 42.2889 63.6963 42.2631C63.6876 42.2374 63.6841 42.2101 63.6861 42.1829C63.6881 42.1558 63.6954 42.1293 63.7078 42.1051C63.7283 42.0628 63.7634 42.0294 63.8067 42.0112C64.1396 41.8599 64.4726 41.6931 64.8055 41.5366L65.2997 41.2862L65.5339 41.1559L65.6275 41.0933V41.0672L65.6691 41.0098C65.7202 40.9397 65.7671 40.8665 65.8096 40.7908L65.9396 40.5561C66.0333 40.3944 66.1165 40.2275 66.1998 40.0606L66.72 39.0697H66.746C66.746 39.0697 66.746 39.028 66.746 39.0332ZM66.746 39.101C66.694 39.2626 66.642 39.4191 66.5847 39.5808C66.5275 39.7425 66.4651 39.9354 66.3922 40.1023C66.3194 40.2692 66.257 40.4518 66.1841 40.6239C66.1477 40.7125 66.1113 40.796 66.0645 40.8899C66.025 40.9823 65.9781 41.0712 65.924 41.1559L65.8876 41.2132V41.2393C65.8876 41.2706 65.8876 41.2393 65.8876 41.2393L65.7628 41.3436L65.5182 41.5053L64.998 41.7817C64.6703 41.9643 64.3373 42.1312 63.9991 42.3033V41.933C64.3373 42.0946 64.6755 42.2563 65.0032 42.4545C65.1749 42.5432 65.3362 42.637 65.5235 42.7309L65.7836 42.8978L65.8928 42.9813V43.0178L65.9396 43.0908C65.9994 43.1737 66.05 43.2629 66.0905 43.3568C66.1373 43.4454 66.1737 43.5289 66.2154 43.6176C66.2934 43.7897 66.361 43.9618 66.4339 44.1391C66.5795 44.4833 66.7044 44.838 66.8344 45.1822H66.6211L67.0998 44.1704C67.183 44.0035 67.261 43.8314 67.3443 43.6488C67.3859 43.5654 67.4223 43.482 67.4691 43.3933C67.5117 43.3075 67.5586 43.224 67.6096 43.1429L67.6512 43.0856V43.0543C67.6512 43.0543 67.6772 43.0543 67.6876 43.0543L67.8021 42.9604L68.0414 42.8039L68.5252 42.5119C68.8478 42.3241 69.1755 42.1416 69.5033 41.9903V42.2772C69.1651 42.1259 68.827 41.9695 68.494 41.7921L67.9998 41.5157L67.7449 41.354L67.6356 41.2654L67.6096 41.2289L67.5628 41.1611C67.5065 41.0769 67.4578 40.9879 67.4171 40.8951C67.3755 40.8064 67.3391 40.723 67.3027 40.6343C67.2246 40.4622 67.157 40.2901 67.0894 40.1128C67.0217 39.9354 66.9593 39.7633 66.8969 39.5912C66.8344 39.4191 66.7772 39.2626 66.7304 39.101H66.746Z" fill="#D2D2D2"/>
<path d="M136.052 13.2222C136.052 13.2222 137.217 16.0594 137.561 16.4036C138.462 16.9662 139.399 17.4697 140.365 17.9109C139.397 18.351 138.46 18.8563 137.561 19.4233C137.217 19.7676 136.052 22.61 136.052 22.61C136.052 22.61 134.887 19.7676 134.543 19.4233C133.644 18.8563 132.707 18.351 131.739 17.9109C132.706 17.4708 133.643 16.9673 134.543 16.4036C134.887 16.0594 136.052 13.2222 136.052 13.2222Z" fill="#F7DB00"/>
<path d="M136.078 13.1856C136.214 13.436 136.339 13.7072 136.469 13.9367L136.854 14.6773L137.244 15.4231C137.311 15.543 137.374 15.6682 137.441 15.7829C137.504 15.8968 137.573 16.0066 137.65 16.1115L137.696 16.1793V16.2106C137.696 16.2106 137.66 16.2106 137.696 16.2106H137.722L137.894 16.3358L138.227 16.5183C138.466 16.6487 138.711 16.7791 138.961 16.9043L139.704 17.2798C139.954 17.3997 140.225 17.5301 140.448 17.6553C140.504 17.6843 140.545 17.7337 140.565 17.7932C140.584 17.8526 140.58 17.9173 140.552 17.9734C140.528 18.0236 140.485 18.0627 140.433 18.0829C139.913 18.302 139.392 18.5263 138.872 18.7557L138.118 19.1104L137.759 19.3138L137.603 19.4233H137.572L137.54 19.465L137.478 19.5485C137.4 19.6613 137.33 19.7799 137.27 19.9031C137.203 20.0216 137.142 20.1435 137.088 20.2682C136.968 20.5238 136.848 20.7898 136.744 21.0349C136.526 21.5564 136.333 22.078 136.136 22.5995C136.129 22.6192 136.118 22.6373 136.104 22.6527C136.09 22.6681 136.073 22.6806 136.054 22.6893C136.035 22.6981 136.015 22.703 135.994 22.7037C135.973 22.7044 135.952 22.7009 135.933 22.6934C135.897 22.6776 135.868 22.65 135.85 22.6152L135.121 21.1027C135.002 20.8524 134.877 20.5812 134.752 20.3569C134.684 20.2369 134.627 20.1118 134.559 19.997C134.5 19.8839 134.434 19.7741 134.362 19.6684L134.32 19.6059V19.5746L134.148 19.4546L133.821 19.2669C133.581 19.1417 133.337 19.0113 133.087 18.8913L131.589 18.156C131.552 18.1387 131.519 18.1142 131.492 18.084C131.465 18.0537 131.444 18.0183 131.431 17.9799C131.418 17.9414 131.413 17.9007 131.416 17.8602C131.419 17.8196 131.43 17.7801 131.448 17.7439C131.479 17.6813 131.53 17.6315 131.594 17.6031C132.114 17.3736 132.603 17.1285 133.103 16.8834C133.352 16.7687 133.623 16.6383 133.841 16.5131L134.195 16.3201L134.336 16.2262L134.367 16.1845L134.429 16.1011C134.509 15.9963 134.578 15.8846 134.637 15.7673C134.705 15.663 134.773 15.5378 134.84 15.4178C134.976 15.1779 135.1 14.9276 135.23 14.6773L136 13.1804C136 13.1804 136.026 13.1804 136.037 13.1804C136.047 13.1804 136.073 13.1856 136.078 13.1856ZM136.078 13.2899C136 13.5299 135.922 13.7698 135.839 14.0097C135.756 14.2496 135.652 14.5312 135.548 14.8024C135.444 15.0736 135.345 15.324 135.23 15.59C135.178 15.7267 135.119 15.8608 135.054 15.9916C134.994 16.1284 134.924 16.2609 134.845 16.3879L134.788 16.4714L134.757 16.5183C134.715 16.5652 134.757 16.5183 134.757 16.5444H134.731L134.539 16.7009L134.169 16.9408C133.925 17.0816 133.68 17.2276 133.43 17.358C132.936 17.6344 132.437 17.8795 131.932 18.1351V17.577C132.452 17.817 132.973 18.0621 133.441 18.3333C133.691 18.4637 133.935 18.6045 134.185 18.7453L134.58 18.9957L134.747 19.126H134.773L134.809 19.1782L134.882 19.2877C134.969 19.4142 135.044 19.5487 135.106 19.6893C135.178 19.8197 135.236 19.9449 135.293 20.0753C135.413 20.336 135.517 20.5968 135.626 20.8576C135.844 21.3791 136.032 21.9007 136.224 22.4222H135.933L136.651 20.8941C136.776 20.6437 136.89 20.3725 137.015 20.1326C137.077 20.0075 137.134 19.8823 137.207 19.7519C137.267 19.6217 137.337 19.4962 137.415 19.3764L137.478 19.2877L137.504 19.246C137.517 19.226 137.535 19.2099 137.556 19.1991L137.733 19.0582L138.092 18.8235C138.331 18.6775 138.57 18.5263 138.815 18.3907C139.304 18.1038 139.793 17.8326 140.292 17.5666V18.0047C139.772 17.7805 139.252 17.5353 138.773 17.2693C138.524 17.139 138.279 16.9981 138.029 16.8573C137.899 16.7791 137.764 16.6956 137.644 16.6122L137.478 16.4818L137.441 16.4296L137.369 16.3253C137.287 16.1993 137.215 16.0667 137.155 15.929C137.088 15.7986 137.03 15.6682 136.978 15.5378C136.859 15.2822 136.76 15.0163 136.656 14.7555C136.552 14.4947 136.463 14.2339 136.37 13.9627C136.276 13.6915 136.125 13.5559 136.052 13.3108L136.078 13.2899Z" fill="#D2D2D2"/>
</svg>
