<svg width="36" height="36" viewBox="0 0 36 36" fill="none" xmlns="http://www.w3.org/2000/svg">
<path d="M18.2398 16.305C18.0898 16.29 17.9098 16.29 17.7448 16.305C14.1748 16.185 11.3398 13.26 11.3398 9.66C11.3398 5.985 14.3098 3 17.9998 3C21.6748 3 24.6598 5.985 24.6598 9.66C24.6448 13.26 21.8098 16.185 18.2398 16.305Z" fill="#FFA425"/>
<path d="M10.7401 21.84C7.11008 24.27 7.11008 28.23 10.7401 30.645C14.8651 33.405 21.6301 33.405 25.7551 30.645C29.3851 28.215 29.3851 24.255 25.7551 21.84C21.6451 19.095 14.8801 19.095 10.7401 21.84Z" fill="#FFA425"/>
</svg>
