<svg width="48" height="48" viewBox="0 0 48 48" fill="none" xmlns="http://www.w3.org/2000/svg">
<path d="M36 0H12C5.37258 0 0 5.37258 0 12V36C0 42.6274 5.37258 48 12 48H36C42.6274 48 48 42.6274 48 36V12C48 5.37258 42.6274 0 36 0Z" fill="#FFA425"/>
<path fill-rule="evenodd" clip-rule="evenodd" d="M12.0562 26.4631C11.59 26.4631 11.1842 26.1353 11.1203 25.6735C11.041 25.0994 11 24.5131 11 23.9172C11 16.8966 16.6913 11.2053 23.7118 11.2053C30.7324 11.2053 36.4236 16.8966 36.4236 23.9172C36.4236 24.5131 36.3826 25.0994 36.3033 25.6735C36.2395 26.1353 35.8336 26.4631 35.3674 26.4631V26.4631C34.7319 26.4631 34.2658 25.8667 34.3433 25.2359C34.3963 24.8038 34.4236 24.3637 34.4236 23.9172C34.4236 18.0012 29.6278 13.2053 23.7118 13.2053C17.7958 13.2053 13 18.0012 13 23.9172C13 24.3637 13.0273 24.8038 13.0804 25.2359C13.1578 25.8667 12.6917 26.4631 12.0562 26.4631V26.4631Z" fill="white"/>
<path d="M11 25.0099H15.7215C18.7303 25.0099 21.1695 27.4491 21.1695 30.4579V30.8211C21.1695 33.6293 18.8929 35.9058 16.0847 35.9058V35.9058C13.2765 35.9058 11 33.6293 11 30.8211V25.0099Z" fill="white"/>
<path d="M36.4234 25.0099H31.7019C28.6931 25.0099 26.2539 27.4491 26.2539 30.4579V30.8211C26.2539 33.6293 28.5304 35.9058 31.3387 35.9058V35.9058C34.1469 35.9058 36.4234 33.6293 36.4234 30.8211V25.0099Z" fill="white"/>
</svg>
