<svg width="42" height="43" viewBox="0 0 42 43" fill="none" xmlns="http://www.w3.org/2000/svg">
<path d="M17.1631 8.01794C18.6303 5.04496 22.8697 5.04496 24.3369 8.01794L25.9176 11.2207C26.5002 12.4013 27.6265 13.2195 28.9293 13.4088L32.4638 13.9224C35.7447 14.3992 37.0547 18.4311 34.6806 20.7452L32.1231 23.2382C31.1803 24.1571 30.7501 25.4811 30.9727 26.7787L31.5765 30.2989C32.1369 33.5665 28.7072 36.0583 25.7727 34.5156L22.6114 32.8536C21.4461 32.2409 20.0539 32.2409 18.8886 32.8536L15.7273 34.5156C12.7928 36.0583 9.36311 33.5665 9.92355 30.2989L10.5273 26.7787C10.7499 25.4811 10.3197 24.1571 9.37691 23.2382L6.81938 20.7452C4.44531 18.4311 5.75535 14.3992 9.03623 13.9224L12.5707 13.4088C13.8735 13.2195 14.9998 12.4013 15.5824 11.2207L17.1631 8.01794Z" fill="#FB8A4A"/>
<path d="M17.4876 25.993L20.1056 21.996C20.4276 21.5013 20.6913 21.0743 20.8966 20.715C21.1066 20.3557 21.2606 20.0337 21.3586 19.749C21.4613 19.4597 21.5126 19.182 21.5126 18.916C21.5126 18.482 21.3913 18.1413 21.1486 17.894C20.9059 17.6467 20.5676 17.523 20.1336 17.523C19.6529 17.523 19.2166 17.6373 18.8246 17.866C18.4373 18.09 18.0849 18.3607 17.7676 18.678L17.5646 17.019C17.9473 16.711 18.3719 16.4637 18.8386 16.277C19.3053 16.0903 19.8326 15.997 20.4206 15.997C21.0133 15.997 21.5079 16.1183 21.9046 16.361C22.3059 16.6037 22.6046 16.9257 22.8006 17.327C23.0013 17.7283 23.1016 18.1717 23.1016 18.657C23.1016 19.0537 23.0479 19.441 22.9406 19.819C22.8333 20.1923 22.6629 20.6007 22.4296 21.044C22.1963 21.4827 21.8906 21.989 21.5126 22.563L20.2386 24.488H23.4656V25.993H17.4876Z" fill="#121212"/>
</svg>
