<svg width="42" height="43" viewBox="0 0 42 43" fill="none" xmlns="http://www.w3.org/2000/svg">
<path d="M17.1631 8.01794C18.6303 5.04496 22.8697 5.04496 24.3369 8.01794L25.9176 11.2207C26.5002 12.4013 27.6265 13.2195 28.9293 13.4088L32.4638 13.9224C35.7447 14.3992 37.0547 18.4311 34.6806 20.7452L32.1231 23.2382C31.1803 24.1571 30.7501 25.4811 30.9727 26.7787L31.5765 30.2989C32.1369 33.5665 28.7072 36.0583 25.7727 34.5156L22.6114 32.8536C21.4461 32.2409 20.0539 32.2409 18.8886 32.8536L15.7273 34.5156C12.7928 36.0583 9.36311 33.5665 9.92355 30.2989L10.5273 26.7787C10.7499 25.4811 10.3197 24.1571 9.37691 23.2382L6.81938 20.7452C4.44531 18.4311 5.75535 14.3992 9.03623 13.9224L12.5707 13.4088C13.8735 13.2195 14.9998 12.4013 15.5824 11.2207L17.1631 8.01794Z" fill="#84DE8D"/>
<path d="M20.0096 26.196C19.4402 26.196 18.9176 26.1283 18.4416 25.993C17.9656 25.853 17.5619 25.6967 17.2306 25.524L17.6296 24.117C17.9702 24.299 18.3389 24.4553 18.7356 24.586C19.1322 24.712 19.5569 24.775 20.0096 24.775C20.5602 24.775 20.9942 24.6467 21.3116 24.39C21.6336 24.1287 21.7946 23.753 21.7946 23.263C21.7946 22.7543 21.6312 22.3623 21.3046 22.087C20.9779 21.807 20.4786 21.667 19.8066 21.667H18.9526V20.162H19.7996C20.3409 20.162 20.7586 20.036 21.0526 19.784C21.3512 19.532 21.5006 19.1843 21.5006 18.741C21.5006 18.321 21.3722 17.9967 21.1156 17.768C20.8636 17.5393 20.4996 17.425 20.0236 17.425C19.6269 17.425 19.2536 17.4927 18.9036 17.628C18.5536 17.7587 18.2082 17.9267 17.8676 18.132L17.6156 16.627C17.9516 16.4497 18.3366 16.3027 18.7706 16.186C19.2092 16.0647 19.6876 16.004 20.2056 16.004C20.8309 16.004 21.3606 16.1137 21.7946 16.333C22.2286 16.5477 22.5576 16.8463 22.7816 17.229C23.0056 17.6117 23.1176 18.048 23.1176 18.538C23.1176 19.1727 22.9426 19.7093 22.5926 20.148C22.2426 20.582 21.7572 20.8737 21.1366 21.023L21.1296 20.701C21.8342 20.8223 22.3966 21.0977 22.8166 21.527C23.2412 21.9563 23.4536 22.5303 23.4536 23.249C23.4536 23.8743 23.3066 24.4063 23.0126 24.845C22.7186 25.2837 22.3126 25.6197 21.7946 25.853C21.2766 26.0817 20.6816 26.196 20.0096 26.196Z" fill="#121212"/>
</svg>
