<svg width="120" height="120" viewBox="0 0 120 120" fill="none" xmlns="http://www.w3.org/2000/svg">
<g clip-path="url(#clip0_10217_11278)">
<rect width="120" height="120" fill="#36BFC7"/>
</g>
<path fill-rule="evenodd" clip-rule="evenodd" d="M53.1827 96.335C43.6957 94.5588 35.2803 89.1433 29.7357 81.2464C24.1911 73.3495 21.9574 63.5978 23.512 54.0762C26.3618 56.0774 40.9537 58.8537 46.5452 61.9366C57.692 68.1024 57.3673 81.2091 53.1647 96.3891L53.1827 96.335ZM56.3031 23.2295C48.4647 24.0378 41.0889 27.3256 35.2495 32.6143C29.41 37.903 25.4117 44.9165 23.8366 52.634C24.1168 52.6471 24.3949 52.6894 24.6663 52.7601C48.1144 55.4464 72.7528 55.4644 74.6467 28.8724C74.6166 27.9792 74.876 27.1003 75.3862 26.3664C69.4341 23.6516 62.8664 22.569 56.3573 23.2295H56.3031ZM63.1752 34.8398C63.6832 35.6337 64.025 36.5222 64.18 37.4518C64.335 38.3814 64.3 39.3327 64.0771 40.2483C63.6871 41.9432 62.6872 43.4354 61.2676 44.441C59.8481 45.4465 58.1081 45.8952 56.3791 45.7014C54.6501 45.5076 53.0527 44.6851 51.8912 43.3903C50.7297 42.0955 50.0852 40.4189 50.0804 38.6799L57.8363 39.8337L63.2474 34.8939L63.1752 34.8398ZM54.1567 29.8459L66.6563 30.3147L57.6379 38.752L44.2004 36.7509L54.1567 29.8459Z" fill="white"/>
<path fill-rule="evenodd" clip-rule="evenodd" d="M77.8957 27.6646C84.7979 31.4701 90.302 37.3817 93.604 44.5361C96.906 51.6904 97.833 59.7126 96.2495 67.4309C94.666 75.1493 90.6551 82.1594 84.8025 87.4373C78.9499 92.7153 71.5623 95.9846 63.7187 96.7677C62.2151 96.9264 60.7028 96.9866 59.1914 96.948C70.0136 76.3595 77.1381 53.0126 77.9498 30.2426C78.0586 29.3853 78.0403 28.5166 77.8957 27.6646V27.6646Z" fill="white"/>
<defs>
<clipPath id="clip0_10217_11278">
<rect width="120" height="120" fill="white"/>
</clipPath>
</defs>
</svg>
