<svg width="32" height="32" viewBox="0 0 32 32" fill="none" xmlns="http://www.w3.org/2000/svg">
<circle cx="16" cy="16" r="16" fill="#005487"/>
<path d="M22.7002 10.3009C20.9885 8.5885 19.312 8.54436 17.5561 10.3009L16.4885 11.369C16.4002 11.4572 16.3649 11.5985 16.4002 11.7221C17.0708 14.0612 18.9414 15.9325 21.2797 16.6033C21.3149 16.6122 21.3502 16.621 21.3855 16.621C21.4826 16.621 21.5708 16.5857 21.6414 16.5151L22.7002 15.447C23.5738 14.582 23.9973 13.7434 23.9973 12.896C24.0061 12.0222 23.5826 11.1748 22.7002 10.3009Z" fill="white"/>
<path d="M19.6907 17.406C19.4349 17.2824 19.1878 17.1588 18.9496 17.0176C18.7555 16.9029 18.5702 16.7793 18.3849 16.6469C18.2349 16.5498 18.0584 16.4086 17.8907 16.2673C17.8731 16.2585 17.8113 16.2055 17.7407 16.1349C17.4496 15.8878 17.1231 15.57 16.8319 15.2169C16.8055 15.1993 16.7613 15.1375 16.6996 15.058C16.6113 14.9521 16.4613 14.7756 16.329 14.5726C16.2231 14.4402 16.0996 14.246 15.9849 14.0518C15.8437 13.8134 15.7202 13.5751 15.5966 13.328C15.591 13.316 15.5855 13.304 15.58 13.2921C15.4279 12.9607 14.9939 12.8628 14.7362 13.1207L9.74663 18.1122C9.63192 18.2269 9.52604 18.4476 9.49957 18.5976L9.0231 21.9784C8.93486 22.5786 9.10251 23.1435 9.4731 23.5231C9.79075 23.832 10.2319 23.9997 10.7084 23.9997C10.8143 23.9997 10.9202 23.9909 11.026 23.9732L14.4143 23.4966C14.5731 23.4701 14.7937 23.3642 14.8996 23.2494L19.8824 18.2647C20.1418 18.0052 20.0442 17.5589 19.7074 17.4132C19.7019 17.4108 19.6963 17.4084 19.6907 17.406Z" fill="white"/>
</svg>
