<svg width="16" height="16" viewBox="0 0 16 16" fill="none" xmlns="http://www.w3.org/2000/svg">
<path fill-rule="evenodd" clip-rule="evenodd" d="M7.27925 11.5864C6.34444 10.7972 4.76264 8.64923 4.2548 7.55035C4.17393 7.37496 4.00267 6.92783 4.00029 6.83147C3.99315 6.62685 4.11922 6.42981 4.3214 6.33454C4.3999 6.29773 4.9125 6.18947 5.14085 6.15482C5.83541 6.05198 6.91413 5.99893 7.99879 6.00002C9.13697 5.99893 10.2668 6.05631 10.9543 6.17106C11.1398 6.20138 11.5668 6.29015 11.6357 6.31614C11.7642 6.36486 11.8653 6.45363 11.9283 6.56081C11.9771 6.64309 12.0032 6.73728 11.9997 6.83147C11.9973 6.92783 11.8463 7.31974 11.788 7.45399C11.336 8.51281 9.69714 10.7528 8.73379 11.5756C8.64697 11.6492 8.41386 11.8517 8.36629 11.8852C8.25925 11.9621 8.12961 12 7.99879 12C7.87748 12 7.75379 11.9664 7.65032 11.8971C7.5968 11.8614 7.35893 11.6546 7.27925 11.5864Z" fill="#51545F"/>
</svg>
