<svg width="338" height="100" viewBox="0 0 338 100" fill="none" xmlns="http://www.w3.org/2000/svg">
<g clip-path="url(#clip0_9556_8995)">
<path d="M135.244 -95C130.351 -89.167 129.906 -80.6851 132.798 -73.7535C135.689 -66.8218 141.541 -61.3053 148.053 -57.1389C156.371 -51.8273 166.254 -48.387 176.255 -48.8339C192.543 -49.5555 206.625 -60.1648 222.702 -62.7159C226.499 -63.3164 230.531 -63.4374 234.073 -62.0129C242.542 -58.61 244.788 -48.5127 247.875 -40.2869C252.984 -26.6657 263.229 -15.0834 275.647 -6.76915C288.065 1.54512 302.557 6.79159 317.431 9.83612C334.316 13.2996 353.373 13.6162 367.293 3.88205C380.504 -5.35395 386.008 -21.3261 395.5 -34.0349L391.097 -74.894" fill="#33B8C2"/>
<path d="M241.99 -35.3147C243.612 -29.4185 246.21 -23.8054 249.686 -18.6862C253.15 -13.5617 257.43 -8.98052 262.373 -5.10687C265.175 -2.92204 268.178 -0.982244 271.346 0.688913C272.173 1.12185 272.912 -0.0838563 272.085 -0.516794C266.626 -3.40528 261.683 -7.09934 257.441 -11.4613C253.17 -15.8406 249.641 -20.8254 246.98 -26.237C245.495 -29.2766 244.303 -32.4381 243.418 -35.6825C243.367 -35.8615 243.243 -36.0139 243.074 -36.106C242.905 -36.1981 242.704 -36.2224 242.516 -36.1736C242.328 -36.1249 242.167 -36.007 242.071 -35.8459C241.974 -35.6848 241.948 -35.4938 241.999 -35.3147H241.99Z" fill="#33B8C2"/>
<path d="M282.884 7.77846C286.901 9.48303 291.108 10.7526 295.424 11.5632C296.349 11.7354 296.74 10.3901 295.815 10.2178C291.621 9.43992 287.531 8.21727 283.622 6.57275C282.771 6.20964 282.023 7.41535 282.884 7.77846Z" fill="#33B8C2"/>
<path d="M14.6356 37.7262C17.1604 37.1592 18.724 34.7523 18.1281 32.3501C17.5322 29.9479 15.0024 28.4602 12.4777 29.0271C9.95296 29.5941 8.38932 32.0011 8.98521 34.4032C9.58111 36.8054 12.1109 38.2932 14.6356 37.7262Z" stroke="#33B8C2" stroke-width="7.22" stroke-miterlimit="10"/>
<path d="M315.265 23.0137L315.05 23.1906L313.793 30.639L313.02 35.2523L326.127 35.4292L326.299 35.2896L343.497 21.4123L359.941 8.23793C360.753 7.58619 360.489 6.0453 359.359 4.79304L353.077 -2.15723C351.56 -3.83312 349.451 -4.48486 348.365 -3.61433L344.558 -0.555828L344.519 -0.602383L328.901 12.0133L322.756 16.9339L315.285 22.9857L315.265 23.0137Z" fill="white"/>
<path d="M333.173 17.1432C331.73 15.444 330.237 13.7682 328.769 12.0969L322.756 16.9337L315.285 22.9855L315.246 23.0181L315.031 23.195L313.773 30.6434L313 35.2568L326.108 35.4337L326.279 35.294L339.685 24.4845C337.434 22.1243 335.296 19.6384 333.173 17.1432Z" fill="#FDC0B8"/>
<path d="M345.478 -1.30542L344.548 -0.555925L344.504 -0.602473L328.886 12.0132L322.76 16.9338L322.775 16.9525L315.304 22.9857L315.265 23.0182H315.26L326.41 35.2103L343.496 21.4308L356.628 10.8867L345.478 -1.30542Z" fill="#002C44"/>
<path d="M320.926 35.3735L314.233 28.0554L313.793 30.6531L313.02 35.2664L320.926 35.3735Z" fill="#FF7765"/>
<path d="M323.553 31.3836L327.756 27.9015C328.147 27.5756 327.58 27.0402 327.189 27.3614L322.981 30.8436C322.589 31.1694 323.162 31.7095 323.553 31.3836Z" fill="white"/>
<path d="M329.244 26.2912C335.552 21.0525 341.87 15.8278 348.198 10.617C348.59 10.2911 348.017 9.7511 347.626 10.0723L328.696 25.7512C328.304 26.0724 328.877 26.6124 329.268 26.2912H329.244Z" fill="white"/>
<path d="M101.663 182.301C104.98 165.705 102.896 146.544 89.7879 135.144C77.1107 124.12 57.8675 123.45 40.963 126.327C35.9185 127.188 29.6069 127.844 26.7299 123.813C25.6633 122.318 25.3502 120.466 25.1447 118.692C24.1661 109.973 25.1104 101.156 24.7679 92.3899C24.4254 83.6241 22.5955 74.4998 16.8563 67.6333C6.89464 55.6972 -12.5003 54.161 -27.1003 60.4689C-43.7357 67.6752 -55.6594 83.9313 -57 101.286L-52.0192 166.418" fill="#33B8C2"/>
<path d="M-40.3591 51.3862C-29.1656 45.3738 -15.9288 43.8128 -3.53124 47.0429C7.98144 50.0548 17.8453 57.3915 24.0884 67.0325C27.5196 72.3096 29.7822 78.1977 30.7377 84.336C30.8698 85.2205 32.2838 84.8481 32.1517 83.9636C30.4295 72.6747 24.0835 62.1305 14.9341 54.7892C5.10129 46.987 -7.55674 43.1675 -20.3183 44.152C-27.6296 44.6673 -34.7283 46.7268 -41.0979 50.1805C-41.2585 50.2772 -41.3734 50.4294 -41.4185 50.605C-41.4636 50.7807 -41.4353 50.9661 -41.3396 51.1223C-41.2438 51.2785 -41.0882 51.3933 -40.9053 51.4426C-40.7224 51.4918 -40.5266 51.4716 -40.3591 51.3862V51.3862Z" fill="#33B8C2"/>
<path d="M5.91635 140.115C22.4833 133.598 35.3463 119.167 39.3633 102.529C39.5346 101.826 39.6373 100.969 39.0649 100.495C38.7225 100.264 38.3152 100.135 37.8955 100.127C21.1671 98.3067 0.876804 109.787 -8.16992 123.296L5.91635 140.115Z" fill="#ECF0F9"/>
<path d="M36.8475 110.14C37.8934 107.67 38.7342 105.125 39.3624 102.529C39.5337 101.826 39.6364 100.97 39.064 100.495C38.7216 100.264 38.3143 100.136 37.8946 100.127C34.3606 99.7785 30.7918 99.9354 27.3066 100.593C30.8384 103.44 34.0372 106.641 36.8475 110.14V110.14Z" fill="#FDB03F"/>
<g clip-path="url(#clip1_9556_8995)">
<path d="M148.612 97.8363C148.437 98.0789 148.244 98.3091 148.034 98.5251C147.951 98.6043 147.868 98.6835 147.781 98.7592C147.724 98.8051 147.689 98.8703 147.681 98.941C147.674 99.0117 147.695 99.0823 147.741 99.138C147.789 99.1933 147.857 99.2285 147.931 99.2359C148.006 99.2433 148.08 99.2224 148.138 99.1776C148.487 98.8704 148.799 98.5267 149.068 98.1531C149.111 98.095 149.129 98.0231 149.118 97.9527C149.106 97.8823 149.066 97.8189 149.007 97.776C148.958 97.7421 148.899 97.724 148.839 97.7244C148.795 97.7238 148.751 97.7335 148.711 97.7527C148.672 97.7719 148.638 97.8 148.612 97.8346" fill="#EE726D"/>
<path d="M151.214 94.923C151.007 95.2122 150.792 95.4946 150.58 95.7839C150.533 95.8399 150.512 95.9108 150.519 95.9818C150.526 96.0528 150.562 96.1182 150.619 96.1644C150.678 96.2093 150.752 96.2302 150.827 96.2228C150.901 96.2154 150.97 96.1802 151.018 96.1248C151.23 95.839 151.445 95.5566 151.654 95.2639C151.699 95.2085 151.72 95.1392 151.715 95.0693C151.712 95.0333 151.701 94.9982 151.684 94.9663C151.666 94.9343 151.642 94.9061 151.612 94.8834C151.561 94.8445 151.498 94.8233 151.432 94.8231C151.391 94.822 151.349 94.8305 151.312 94.8479C151.275 94.8653 151.242 94.891 151.218 94.923" fill="#EE726D"/>
<path d="M153.391 92.4193C153.171 92.7034 152.96 92.991 152.76 93.2802C152.714 93.336 152.692 93.4059 152.697 93.4765C152.701 93.5122 152.711 93.5468 152.729 93.5784C152.747 93.6101 152.771 93.638 152.8 93.6608C152.857 93.7048 152.93 93.7264 153.003 93.721C153.041 93.7182 153.078 93.7081 153.111 93.6912C153.145 93.6743 153.174 93.6511 153.198 93.6229C153.399 93.3267 153.609 93.0369 153.829 92.7533C153.875 92.6973 153.897 92.6261 153.889 92.555C153.882 92.4839 153.845 92.4185 153.787 92.3728C153.736 92.334 153.673 92.3133 153.607 92.3143C153.566 92.3134 153.524 92.3218 153.487 92.3389C153.449 92.3559 153.416 92.3811 153.391 92.4124" fill="#EE726D"/>
<path d="M155.859 89.5626C155.679 89.783 155.481 89.9982 155.282 90.21C155.235 90.2659 155.213 90.3372 155.221 90.4084C155.229 90.4796 155.266 90.5451 155.324 90.5905C155.382 90.6348 155.456 90.6555 155.531 90.6481C155.605 90.6407 155.673 90.6058 155.72 90.5509C155.92 90.3409 156.112 90.1239 156.297 89.9035C156.344 89.8476 156.366 89.7763 156.358 89.7051C156.351 89.6339 156.314 89.5684 156.256 89.523C156.205 89.4838 156.141 89.463 156.076 89.4644C156.033 89.4638 155.992 89.4723 155.954 89.4893C155.916 89.5063 155.882 89.5314 155.856 89.5626" fill="#EE726D"/>
<path d="M158.489 87.1109C158.413 87.1193 158.344 87.1543 158.294 87.209C158.098 87.4001 157.907 87.5947 157.723 87.7979C157.676 87.8535 157.654 87.9245 157.662 87.9954C157.669 88.0664 157.706 88.1316 157.764 88.1767C157.823 88.2209 157.897 88.2416 157.971 88.2345C158.046 88.2275 158.114 88.1932 158.162 88.1388C158.343 87.9374 158.536 87.7411 158.732 87.5499C158.756 87.5233 158.774 87.4923 158.785 87.4589C158.796 87.4254 158.799 87.3902 158.795 87.3554C158.792 87.3196 158.781 87.2848 158.764 87.2532C158.746 87.2215 158.722 87.1936 158.692 87.1711C158.642 87.1314 158.578 87.1101 158.512 87.1109H158.489" fill="#EE726D"/>
<path d="M161.21 85.0599L160.511 85.5403C160.451 85.5827 160.41 85.6457 160.398 85.716C160.385 85.7863 160.402 85.8585 160.444 85.9174C160.488 85.9751 160.554 86.0141 160.628 86.026C160.701 86.0379 160.777 86.0218 160.839 85.9811L161.538 85.5007C161.598 85.458 161.639 85.3948 161.651 85.3241C161.664 85.2535 161.647 85.1811 161.605 85.1219C161.577 85.0882 161.542 85.061 161.502 85.0425C161.461 85.024 161.417 85.0146 161.372 85.0152C161.314 85.0145 161.257 85.0321 161.21 85.0651" fill="#EE726D"/>
<path d="M164.66 83.2297C164.338 83.3754 164.026 83.5399 163.725 83.7221C163.664 83.7642 163.623 83.8274 163.611 83.8979C163.599 83.9685 163.616 84.0408 163.66 84.0992C163.703 84.1568 163.769 84.1958 163.843 84.2077C163.916 84.2196 163.992 84.2035 164.053 84.1629C164.233 84.0544 164.413 83.9528 164.593 83.8599C164.678 83.8168 164.763 83.7772 164.849 83.7376C164.92 83.7108 164.977 83.6598 165.01 83.5947C165.037 83.5294 165.037 83.4568 165.01 83.3915C164.997 83.3577 164.978 83.3267 164.952 83.3003C164.927 83.274 164.896 83.2529 164.862 83.2383C164.823 83.2216 164.781 83.2128 164.738 83.2124C164.707 83.2118 164.676 83.2177 164.648 83.2297" fill="#EE726D"/>
<path d="M168.294 82.4031C167.914 82.491 167.536 82.5753 167.161 82.6752C167.126 82.6868 167.094 82.7053 167.068 82.7293C167.041 82.7533 167.02 82.7824 167.006 82.8147C166.991 82.8479 166.983 82.8836 166.983 82.9197C166.983 82.9558 166.991 82.9915 167.006 83.0247C167.033 83.0907 167.086 83.1439 167.153 83.1728C167.224 83.1979 167.302 83.1979 167.373 83.1728C167.637 83.1074 167.901 83.0437 168.168 82.9817H168.159L168.359 82.9352C168.433 82.9253 168.5 82.8904 168.549 82.8371C168.572 82.8095 168.59 82.7775 168.601 82.7432C168.611 82.7089 168.614 82.6728 168.61 82.6373C168.606 82.6022 168.595 82.5682 168.577 82.5371C168.56 82.5061 168.536 82.4787 168.507 82.4565C168.456 82.4178 168.392 82.396 168.327 82.3945H168.291L168.294 82.4031ZM168.111 82.9869H168.082H168.111Z" fill="#EE726D"/>
<path d="M171.793 82.021C171.417 82.0675 171.042 82.1243 170.667 82.1932C170.596 82.2045 170.532 82.2393 170.486 82.2914C170.44 82.3473 170.418 82.4183 170.425 82.4894C170.433 82.5606 170.471 82.6258 170.529 82.6707C170.588 82.7156 170.662 82.7364 170.737 82.7287C171.11 82.6581 171.485 82.6013 171.862 82.5565C171.936 82.5483 172.004 82.5127 172.051 82.4574C172.098 82.4021 172.121 82.3314 172.114 82.2604C172.106 82.1944 172.074 82.1334 172.022 82.0888C171.971 82.0441 171.904 82.0188 171.835 82.0176H171.802" fill="#EE726D"/>
<path d="M175.2 81.7197C174.825 81.7195 174.45 81.7442 174.079 81.7938C174.005 81.8024 173.937 81.8384 173.89 81.894C173.844 81.9497 173.821 82.0206 173.828 82.0916C173.837 82.1627 173.875 82.2276 173.933 82.2724C173.991 82.3172 174.066 82.3382 174.14 82.331C174.512 82.2825 174.886 82.2572 175.261 82.2552C175.297 82.251 175.331 82.2402 175.362 82.2233C175.393 82.2065 175.42 82.184 175.442 82.1571C175.465 82.1298 175.483 82.0981 175.494 82.0641C175.504 82.03 175.507 81.9943 175.503 81.9591C175.499 81.9235 175.488 81.889 175.47 81.8577C175.452 81.8263 175.428 81.7987 175.398 81.7765C175.343 81.7351 175.273 81.7148 175.202 81.7197H175.191" fill="#EE726D"/>
<path d="M177.493 81.9401C177.435 81.9825 177.395 82.0438 177.381 82.1123C177.37 82.1832 177.388 82.2556 177.432 82.3139C177.476 82.3722 177.542 82.4117 177.616 82.4239C178.007 82.4549 178.398 82.494 178.787 82.541C178.861 82.5515 178.937 82.534 178.997 82.4922C179.058 82.4503 179.099 82.3876 179.112 82.3172C179.118 82.2821 179.117 82.2462 179.108 82.2116C179.1 82.1769 179.084 82.1443 179.062 82.1154C179.041 82.0866 179.013 82.0622 178.981 82.0436C178.949 82.0251 178.914 82.0127 178.877 82.0073C178.488 81.9625 178.099 81.9229 177.706 81.8884H177.668C177.604 81.8858 177.54 81.9034 177.488 81.9384" fill="#EE726D"/>
<path d="M180.896 82.844C180.886 82.9146 180.904 82.9863 180.948 83.0441C180.991 83.1019 181.057 83.1413 181.13 83.1539C181.392 83.2073 181.651 83.2693 181.909 83.3416H181.882L181.931 83.3571H181.95H181.936C182.053 83.3915 182.169 83.426 182.286 83.4656C182.356 83.4922 182.435 83.4922 182.506 83.4656C182.574 83.4398 182.629 83.3898 182.659 83.3261C182.688 83.2588 182.688 83.1833 182.659 83.116C182.646 83.0833 182.626 83.0534 182.601 83.0283C182.575 83.0031 182.545 82.9832 182.511 82.9697C182.087 82.83 181.654 82.715 181.215 82.6253C181.198 82.6236 181.181 82.6236 181.165 82.6253C181.099 82.6282 181.035 82.6524 180.986 82.694C180.936 82.7356 180.902 82.7921 180.891 82.8543L180.896 82.844ZM181.931 83.3605H181.909L181.936 83.3691" fill="#EE726D"/>
<path d="M184.134 83.9166C184.097 83.9787 184.088 84.0518 184.108 84.1203C184.127 84.1889 184.174 84.2474 184.238 84.2834C184.435 84.3953 184.627 84.5089 184.817 84.6277C184.882 84.6633 184.959 84.6727 185.031 84.654C185.104 84.6353 185.165 84.5899 185.202 84.5279C185.238 84.4659 185.248 84.3932 185.23 84.3247C185.22 84.289 185.204 84.2554 185.181 84.2259C185.158 84.1963 185.129 84.1714 185.096 84.1525C184.907 84.0303 184.716 83.9132 184.517 83.8081C184.477 83.7844 184.43 83.7719 184.382 83.772C184.332 83.772 184.282 83.7847 184.239 83.8089C184.195 83.8331 184.159 83.8679 184.134 83.9097" fill="#EE726D"/>
<path d="M186.846 85.8487C186.793 85.8996 186.764 85.9683 186.764 86.0399C186.764 86.1114 186.793 86.1801 186.846 86.231C187.003 86.3687 187.156 86.5082 187.305 86.6528C187.359 86.7026 187.43 86.7304 187.505 86.7304C187.579 86.7304 187.651 86.7026 187.704 86.6528C187.756 86.6019 187.786 86.5333 187.786 86.4617C187.786 86.3902 187.756 86.3215 187.704 86.2706C187.556 86.1277 187.401 85.9865 187.244 85.8504C187.189 85.8004 187.116 85.7722 187.04 85.7712C187.004 85.7712 186.968 85.7781 186.935 85.7914C186.902 85.8047 186.871 85.8242 186.846 85.8487" fill="#EE726D"/>
<path d="M188.571 87.7599C188.506 87.7957 188.459 87.8544 188.439 87.9233C188.419 87.9923 188.428 88.066 188.465 88.1284C188.566 88.2815 188.654 88.4422 188.728 88.6088C188.741 88.6363 188.752 88.6644 188.761 88.6932C188.77 88.729 188.787 88.7626 188.81 88.7922C188.833 88.8217 188.862 88.8466 188.896 88.8654C188.927 88.883 188.962 88.8945 188.998 88.8992C189.035 88.904 189.071 88.9018 189.107 88.8929C189.179 88.8743 189.241 88.8292 189.279 88.7673C189.317 88.7054 189.327 88.6317 189.309 88.5623C189.217 88.3217 189.099 88.0909 188.957 87.8736C188.931 87.8327 188.894 87.7988 188.851 87.7751C188.807 87.7513 188.758 87.7384 188.708 87.7376C188.66 87.7374 188.613 87.7492 188.571 87.772" fill="#EE726D"/>
<path d="M188.997 90.3531C188.965 90.3704 188.936 90.3939 188.914 90.422C188.892 90.4501 188.876 90.4824 188.867 90.5166C188.829 90.7678 188.775 91.0163 188.703 91.2605C188.685 91.3296 188.696 91.4029 188.733 91.4644C188.771 91.5259 188.833 91.5708 188.905 91.5894C188.977 91.6067 189.054 91.5963 189.118 91.5602C189.183 91.5241 189.23 91.4653 189.249 91.3965C189.322 91.1531 189.377 90.9051 189.415 90.6544C189.431 90.5848 189.42 90.5119 189.384 90.4495C189.364 90.4182 189.338 90.3909 189.307 90.3693C189.276 90.3477 189.241 90.3323 189.204 90.3238C189.181 90.3184 189.157 90.3155 189.134 90.3152C189.083 90.3155 189.033 90.3285 188.989 90.3531" fill="#EE726D"/>
<path d="M187.834 92.8499C187.793 92.9153 187.75 92.979 187.703 93.0393C187.601 93.1597 187.486 93.2693 187.36 93.3664C187.324 93.3923 187.288 93.4164 187.25 93.4388C187.187 93.476 187.14 93.5353 187.122 93.6044C187.103 93.6734 187.113 93.7468 187.149 93.809C187.188 93.8706 187.25 93.9152 187.323 93.9329C187.395 93.9507 187.472 93.9402 187.537 93.9037C187.858 93.703 188.127 93.435 188.323 93.1202C188.36 93.0583 188.37 92.9848 188.351 92.9157C188.332 92.8467 188.285 92.7877 188.22 92.7517C188.178 92.7287 188.131 92.7169 188.083 92.7173C188.033 92.7173 187.984 92.7294 187.941 92.7527C187.897 92.7759 187.861 92.8093 187.834 92.8499" fill="#EE726D"/>
<path d="M185.745 94.0275C185.524 94.0736 185.3 94.1018 185.075 94.1119H184.95C184.874 94.106 184.799 94.1282 184.739 94.1739C184.685 94.2174 184.649 94.2789 184.64 94.3461C184.633 94.4173 184.655 94.4885 184.702 94.544C184.749 94.5995 184.818 94.6349 184.892 94.6423C185.209 94.6478 185.525 94.6178 185.833 94.5527C185.907 94.5409 185.973 94.5019 186.016 94.4443C186.06 94.3867 186.079 94.315 186.068 94.2445C186.057 94.1823 186.024 94.1257 185.974 94.084C185.924 94.0423 185.861 94.0181 185.796 94.0155C185.779 94.0137 185.762 94.0137 185.745 94.0155" fill="#EE726D"/>
<path d="M182.823 93.5264C182.787 93.5325 182.752 93.5456 182.721 93.5649C182.69 93.5841 182.663 93.6091 182.643 93.6383C182.601 93.6959 182.583 93.7668 182.594 93.8363C182.6 93.8711 182.614 93.9043 182.634 93.9339C182.654 93.9635 182.68 93.9889 182.711 94.0085C182.958 94.1378 183.218 94.2417 183.488 94.3184C183.558 94.3434 183.635 94.3434 183.704 94.3184C183.771 94.2876 183.824 94.2334 183.85 94.1669C183.875 94.1002 183.872 94.0269 183.841 93.9626C183.81 93.8983 183.754 93.848 183.684 93.8225C183.464 93.7623 183.251 93.6822 183.046 93.5832H183.037C182.988 93.5531 182.93 93.5358 182.872 93.5333H182.828L182.823 93.5264ZM183.066 93.5952H183.082H183.066Z" fill="#EE726D"/>
<path d="M181.785 91.5583C181.71 91.5641 181.641 91.5977 181.593 91.6519C181.544 91.7061 181.52 91.7764 181.525 91.8476C181.552 92.1382 181.619 92.4241 181.723 92.6982C181.735 92.7322 181.754 92.7635 181.778 92.7906C181.803 92.8176 181.833 92.8397 181.866 92.8557C181.9 92.8717 181.936 92.8812 181.974 92.8838C182.011 92.8863 182.048 92.8817 182.084 92.8704C182.119 92.8591 182.152 92.8413 182.181 92.8178C182.209 92.7944 182.232 92.7659 182.249 92.7339C182.266 92.7019 182.276 92.6671 182.278 92.6314C182.281 92.5958 182.276 92.56 182.264 92.526C182.214 92.3926 182.172 92.2563 182.14 92.118C182.12 92.0164 182.106 91.9148 182.095 91.8132C182.089 91.7456 182.057 91.6825 182.005 91.6363C181.953 91.5901 181.885 91.5641 181.814 91.5635H181.792" fill="#EE726D"/>
<path d="M181.985 89.1719C181.875 89.4349 181.8 89.7095 181.759 89.9898C181.746 90.06 181.762 90.1324 181.804 90.1916C181.846 90.2508 181.91 90.2921 181.983 90.3066C182.057 90.3193 182.133 90.3039 182.195 90.2636C182.257 90.2234 182.3 90.1616 182.315 90.0914C182.342 89.905 182.384 89.7208 182.441 89.5404C182.457 89.4974 182.473 89.4543 182.491 89.4113C182.523 89.3453 182.528 89.2705 182.506 89.2012C182.48 89.1354 182.429 89.0812 182.363 89.0497C182.324 89.0324 182.282 89.0236 182.239 89.0238C182.186 89.0221 182.134 89.0351 182.089 89.0615C182.043 89.0878 182.007 89.1262 181.985 89.1719" fill="#EE726D"/>
<path d="M184.005 86.8164C183.935 86.8241 183.871 86.8567 183.825 86.9077C183.645 87.147 183.464 87.3812 183.304 87.6361C183.271 87.7 183.265 87.774 183.289 87.8417C183.313 87.9095 183.363 87.9655 183.43 87.9976C183.499 88.0291 183.578 88.0334 183.65 88.0097C183.719 87.9863 183.776 87.9381 183.809 87.8754C183.845 87.8186 183.881 87.7635 183.919 87.7032V87.7135C184.029 87.5603 184.144 87.4105 184.257 87.259C184.306 87.2029 184.331 87.1318 184.328 87.0592C184.321 86.9888 184.286 86.9237 184.23 86.8767C184.18 86.8357 184.116 86.8125 184.05 86.8113H184.025" fill="#EE726D"/>
<path d="M186.022 84.9035C185.793 85.0326 185.575 85.1755 185.355 85.3201C185.296 85.364 185.257 85.4284 185.248 85.4993C185.238 85.5702 185.258 85.6419 185.303 85.699C185.349 85.7553 185.416 85.7922 185.49 85.8019C185.564 85.8115 185.639 85.7931 185.699 85.7506C185.917 85.6042 186.139 85.4613 186.366 85.3322C186.396 85.3121 186.42 85.2864 186.439 85.2568C186.458 85.2272 186.47 85.1942 186.474 85.16C186.48 85.1243 186.478 85.0879 186.468 85.053C186.459 85.0181 186.442 84.9854 186.419 84.9568C186.374 84.9018 186.31 84.8649 186.238 84.8535H186.2C186.136 84.8551 186.073 84.8742 186.02 84.9086" fill="#EE726D"/>
<path d="M188.771 83.7599C188.537 83.8495 188.303 83.9425 188.072 84.0406C188.005 84.0681 187.951 84.1191 187.923 84.1832C187.894 84.2473 187.892 84.3195 187.917 84.385C187.946 84.4491 187.999 84.5004 188.066 84.5282C188.133 84.5561 188.209 84.5584 188.278 84.5348C188.51 84.4366 188.743 84.3436 188.977 84.2541C189.044 84.227 189.098 84.176 189.127 84.1118C189.156 84.0476 189.158 83.9751 189.132 83.9097C189.111 83.8591 189.075 83.8156 189.028 83.7849C188.981 83.7541 188.926 83.7376 188.869 83.7375C188.833 83.738 188.798 83.7444 188.764 83.7565" fill="#EE726D"/>
<path d="M191.982 82.9111C191.701 82.9764 191.426 83.0645 191.161 83.1746C191.092 83.2024 191.038 83.2549 191.009 83.3209C190.98 83.3869 190.979 83.461 191.006 83.5276C191.035 83.5917 191.089 83.6428 191.156 83.6704C191.223 83.6979 191.298 83.6998 191.367 83.6756C191.577 83.5896 191.794 83.5193 192.016 83.4656L192.047 83.457C192.121 83.4463 192.189 83.4095 192.238 83.3537C192.261 83.3263 192.277 83.2949 192.287 83.2611C192.297 83.2274 192.3 83.1921 192.295 83.1574C192.291 83.1216 192.279 83.0871 192.26 83.0558C192.242 83.0245 192.217 82.997 192.187 82.9748C192.139 82.9393 192.08 82.9188 192.019 82.9163H191.982V82.9111ZM192.07 83.4484H192.041H192.07Z" fill="#EE726D"/>
<path d="M195.08 82.3394C194.766 82.3671 194.456 82.4289 194.156 82.5237C194.088 82.5508 194.034 82.6018 194.005 82.666C193.977 82.7302 193.975 82.8026 194.001 82.8681C194.03 82.9319 194.083 82.9828 194.15 83.0103C194.217 83.0378 194.293 83.0399 194.361 83.0161L194.574 82.9559C194.76 82.9141 194.949 82.8853 195.14 82.8698C195.214 82.8607 195.281 82.8243 195.327 82.7682C195.374 82.7122 195.395 82.6411 195.387 82.5702C195.378 82.5035 195.344 82.4422 195.291 82.398C195.239 82.3539 195.17 82.3299 195.1 82.3308H195.08V82.3394ZM194.559 82.9593H194.54H194.559Z" fill="#EE726D"/>
<path d="M197.528 82.1484C197.469 82.1899 197.428 82.2515 197.415 82.3206C197.403 82.3915 197.421 82.4639 197.465 82.5221C197.485 82.5512 197.512 82.576 197.543 82.5947C197.574 82.6134 197.609 82.6256 197.645 82.6306L198.511 82.6684C198.585 82.6781 198.66 82.6609 198.721 82.6202C198.752 82.6002 198.777 82.5747 198.797 82.5451C198.817 82.5156 198.83 82.4826 198.837 82.4481C198.848 82.3772 198.83 82.305 198.786 82.2466C198.766 82.2174 198.739 82.1926 198.708 82.1739C198.677 82.1552 198.642 82.143 198.606 82.1381C198.318 82.1226 198.029 82.1106 197.739 82.0985H197.707C197.643 82.0954 197.579 82.1123 197.526 82.1467" fill="#EE726D"/>
<path d="M201.994 82.2603C201.934 82.3012 201.893 82.3631 201.881 82.4325C201.869 82.503 201.886 82.5752 201.93 82.6333C201.974 82.6913 202.039 82.7306 202.113 82.7424C202.436 82.7682 202.757 82.7992 203.078 82.8354C203.151 82.8468 203.227 82.8299 203.288 82.7883C203.348 82.7467 203.39 82.6837 203.402 82.6133C203.414 82.5427 203.396 82.4705 203.353 82.4125C203.309 82.3544 203.243 82.3151 203.169 82.3033C202.849 82.2654 202.528 82.2345 202.205 82.2103H202.162C202.102 82.2085 202.043 82.2254 201.994 82.2586" fill="#EE726D"/>
<path d="M206.085 82.8562C206.026 82.8976 205.985 82.9592 205.971 83.0284C205.959 83.0989 205.977 83.1711 206.021 83.2292C206.064 83.2873 206.13 83.3265 206.204 83.3383C206.545 83.366 206.884 83.412 207.219 83.4761C207.293 83.4875 207.368 83.4706 207.429 83.429C207.49 83.3873 207.531 83.3244 207.543 83.2539C207.554 83.1835 207.536 83.1118 207.493 83.0539C207.449 82.9961 207.384 82.9567 207.311 82.944C206.975 82.88 206.637 82.8341 206.296 82.8063H206.256C206.196 82.8046 206.136 82.8215 206.087 82.8545" fill="#EE726D"/>
<path d="M210.14 83.6704C210.11 83.6904 210.085 83.716 210.065 83.7456C210.046 83.7751 210.033 83.8081 210.027 83.8426C210.02 83.8776 210.021 83.9135 210.029 83.9481C210.038 83.9827 210.053 84.0154 210.075 84.0443C210.096 84.0731 210.124 84.0976 210.156 84.1162C210.187 84.1348 210.222 84.1471 210.259 84.1526C210.584 84.1771 210.907 84.226 211.224 84.2989C211.297 84.3099 211.373 84.2928 211.433 84.2512C211.494 84.2097 211.535 84.1471 211.548 84.0768C211.554 84.0418 211.553 84.006 211.545 83.9714C211.536 83.9368 211.521 83.9042 211.499 83.8753C211.456 83.8184 211.392 83.7791 211.319 83.7651C211.002 83.6929 210.68 83.6446 210.355 83.6205H210.311C210.252 83.6186 210.193 83.6356 210.144 83.6687" fill="#EE726D"/>
<path d="M213.717 84.6089C213.705 84.6794 213.722 84.7516 213.766 84.8097C213.809 84.8677 213.875 84.907 213.949 84.9188C214.247 84.9584 214.54 85.0118 214.832 85.0789C214.906 85.09 214.982 85.0729 215.043 85.0314C215.104 84.9899 215.145 84.9272 215.159 84.8568C215.169 84.786 215.151 84.7138 215.108 84.6554C215.065 84.5987 215 84.5599 214.928 84.5469C214.636 84.4797 214.34 84.4263 214.045 84.3867C214.03 84.3851 214.016 84.3851 214.001 84.3867C213.934 84.3863 213.869 84.4087 213.817 84.45C213.766 84.4914 213.731 84.5489 213.72 84.6123" fill="#EE726D"/>
<path d="M217.037 85.425C217.031 85.46 217.032 85.4958 217.04 85.5304C217.049 85.565 217.064 85.5977 217.086 85.6265C217.129 85.6832 217.194 85.722 217.266 85.735C217.551 85.8004 217.832 85.871 218.111 85.9537L218.303 86.0122C218.373 86.0389 218.452 86.0389 218.522 86.0122C218.591 85.9865 218.646 85.9365 218.677 85.8727C218.692 85.8395 218.7 85.8038 218.7 85.7677C218.7 85.7316 218.692 85.6959 218.677 85.6627C218.651 85.5968 218.599 85.5436 218.532 85.5146C218.142 85.3923 217.749 85.289 217.351 85.1978H217.297C217.231 85.201 217.169 85.2252 217.12 85.2665C217.071 85.3077 217.038 85.3636 217.026 85.425" fill="#EE726D"/>
<path d="M220.034 86.2016C220.011 86.2701 220.017 86.3445 220.051 86.4089C220.085 86.4732 220.143 86.5224 220.215 86.546C220.407 86.62 220.6 86.6889 220.797 86.7526C220.868 86.775 220.947 86.7695 221.014 86.7373C221.082 86.705 221.133 86.6487 221.157 86.5804C221.181 86.5119 221.175 86.4373 221.141 86.3729C221.107 86.3084 221.048 86.2592 220.977 86.236C220.782 86.1723 220.588 86.1035 220.397 86.0311C220.368 86.0195 220.337 86.0136 220.306 86.0139C220.247 86.0152 220.19 86.0335 220.142 86.0663C220.093 86.0992 220.057 86.1451 220.036 86.1982" fill="#EE726D"/>
<path d="M222.639 86.9233C222.616 86.9918 222.622 87.0662 222.655 87.1305C222.689 87.1949 222.748 87.2441 222.819 87.2676C223.088 87.3623 223.36 87.4502 223.628 87.5363C223.7 87.5587 223.778 87.5532 223.846 87.5209C223.913 87.4887 223.965 87.4323 223.989 87.3641C224.012 87.2955 224.006 87.2212 223.972 87.1568C223.938 87.0925 223.88 87.0432 223.809 87.0197C223.538 86.9336 223.268 86.8475 222.999 86.7528C222.97 86.7425 222.94 86.7373 222.909 86.7373C222.85 86.738 222.793 86.7558 222.744 86.7884C222.696 86.821 222.659 86.8668 222.639 86.9198" fill="#EE726D"/>
<path d="M133.994 82.4412C133.597 82.4402 133.202 82.4888 132.819 82.5858C131.115 83.0128 129.934 84.2199 129.26 85.1583C128.803 85.7855 128.432 86.4667 128.157 87.1849C127.941 87.7324 127.785 88.2995 127.69 88.8775C127.663 89.0497 127.64 89.2081 127.625 89.3751C127.476 90.9248 127.86 92.3109 128.707 93.2614C129.196 93.7978 129.823 94.2036 130.526 94.4391C130.717 94.508 130.913 94.5655 131.112 94.6113C131.392 94.679 131.679 94.7199 131.968 94.7336H132.076C132.286 94.7342 132.496 94.7152 132.703 94.6768C132.754 94.9766 132.866 95.264 133.033 95.5222C133.209 95.7975 133.435 96.0406 133.7 96.2402C133.941 96.4191 134.207 96.5641 134.491 96.6707C135.007 96.868 135.558 96.972 136.114 96.9772H136.16C136.706 96.9832 137.249 96.8867 137.756 96.6931C138.273 96.4998 138.723 96.171 139.053 95.7443C139.219 95.5226 139.345 95.2766 139.427 95.016C139.471 94.8837 139.504 94.7485 139.526 94.6113C139.553 94.444 139.564 94.2744 139.556 94.1051C139.539 93.8133 139.471 93.5264 139.355 93.2562C139.242 92.9998 139.079 92.766 138.875 92.5675C138.669 92.3646 138.424 92.2015 138.154 92.0871C138.002 92.0232 137.844 91.9725 137.682 91.9356C137.627 91.9238 137.571 91.9169 137.514 91.9149C137.781 91.6352 138.019 91.3306 138.223 91.0057C138.403 90.7175 138.561 90.4165 138.693 90.1052C138.817 89.8155 138.916 89.5166 138.989 89.2116C139.017 89.091 139.039 88.9705 139.061 88.85C139.136 88.3806 139.154 87.9045 139.115 87.4311C139.022 86.2135 138.543 85.0518 137.741 84.1011C137.339 83.6424 136.845 83.2654 136.288 82.9922C135.903 82.8042 135.496 82.6609 135.075 82.5652C134.72 82.4878 134.358 82.4485 133.994 82.4481" fill="#33B8C2"/>
<path d="M118.959 94.5579C118.348 94.5567 117.738 94.6144 117.138 94.7301C116.354 94.8811 115.592 95.127 114.873 95.4619C113.791 95.9647 112.369 96.8859 111.666 98.4269C111.362 99.0968 111.233 99.8271 111.289 100.555C111.325 100.965 111.412 101.37 111.547 101.76C111.742 102.329 112.057 102.853 112.472 103.302C113.331 104.204 114.459 104.835 115.704 105.108C116.188 105.22 116.684 105.278 117.182 105.28C117.31 105.28 117.438 105.277 117.566 105.27C117.892 105.247 118.217 105.199 118.535 105.127C118.878 105.049 119.213 104.946 119.539 104.82C119.907 104.678 120.26 104.505 120.596 104.304C120.582 104.355 120.577 104.409 120.583 104.462C120.597 104.62 120.626 104.777 120.67 104.93C120.745 105.205 120.875 105.463 121.054 105.69C121.229 105.912 121.446 106.101 121.694 106.248C121.954 106.4 122.241 106.509 122.541 106.568C122.715 106.601 122.891 106.618 123.069 106.618C123.214 106.617 123.358 106.607 123.501 106.589C123.784 106.549 124.057 106.466 124.313 106.344C124.805 106.098 125.215 105.724 125.493 105.264C125.779 104.803 125.963 104.291 126.034 103.76C126.114 103.232 126.092 102.694 125.967 102.174C125.899 101.89 125.79 101.616 125.643 101.361C125.478 101.08 125.261 100.83 125.003 100.622C124.76 100.424 124.479 100.272 124.176 100.175C124.265 99.9529 124.325 99.7216 124.356 99.4859C124.383 99.211 124.383 98.9342 124.356 98.6594C124.34 98.4657 124.313 98.2731 124.273 98.0826C124.136 97.3841 123.812 96.7316 123.332 96.1885C122.478 95.2415 121.109 94.6664 119.478 94.5699C119.298 94.5596 119.128 94.5544 118.952 94.5544" fill="#33B8C2"/>
<path d="M112.953 97.9553C112.83 98.2367 112.733 98.5284 112.665 98.8266C112.603 99.1097 112.571 99.3982 112.569 99.6875C112.57 100.232 112.674 100.773 112.878 101.282C113.076 101.782 113.368 102.243 113.737 102.644C113.927 102.852 114.137 103.043 114.363 103.216C114.594 103.387 114.842 103.537 115.104 103.662C115.447 103.828 115.81 103.955 116.185 104.039C116.569 104.123 116.962 104.16 117.355 104.149C117.766 104.141 118.174 104.078 118.566 103.963C118.987 103.839 119.387 103.658 119.752 103.424C119.84 103.361 119.898 103.267 119.914 103.163C119.93 103.06 119.902 102.954 119.837 102.87C119.772 102.785 119.674 102.729 119.565 102.713C119.456 102.7 119.346 102.727 119.257 102.787L119.051 102.904C118.709 103.081 118.346 103.218 117.97 103.314C117.636 103.39 117.294 103.427 116.951 103.426C116.619 103.415 116.288 103.37 115.965 103.291C115.61 103.194 115.269 103.057 114.947 102.883C114.586 102.681 114.252 102.439 113.952 102.162C113.692 101.907 113.468 101.622 113.283 101.313C113.125 101.042 113.004 100.753 112.923 100.452C112.848 100.143 112.812 99.827 112.816 99.5101V99.5256C112.825 99.1862 112.877 98.8491 112.971 98.5218C113.021 98.3595 113.082 98.2002 113.152 98.0448C113.162 98.0197 113.162 97.9917 113.151 97.9666C113.14 97.9416 113.12 97.9215 113.094 97.9105C113.081 97.9081 113.067 97.9081 113.054 97.9105C113.033 97.9103 113.012 97.9161 112.995 97.9271C112.977 97.9382 112.963 97.954 112.955 97.9725L112.953 97.9553ZM114.895 102.859L114.932 102.882L114.895 102.859ZM119.123 102.88L119.085 102.899L119.123 102.88Z" fill="white"/>
<path d="M115.01 96.6982C114.391 97.3342 114.047 98.17 114.045 99.0383C114.038 99.4728 114.132 99.9035 114.321 100.299C114.416 100.493 114.537 100.675 114.682 100.839C114.842 101.019 115.027 101.177 115.233 101.308C115.268 101.327 115.306 101.338 115.345 101.342C115.385 101.346 115.425 101.342 115.462 101.33C115.539 101.309 115.603 101.26 115.642 101.194C115.679 101.128 115.687 101.05 115.664 100.978C115.642 100.907 115.59 100.846 115.522 100.81C115.408 100.761 115.299 100.704 115.195 100.638C115.088 100.558 114.989 100.468 114.9 100.369C114.796 100.242 114.707 100.105 114.635 99.9595C114.549 99.7712 114.485 99.5742 114.446 99.3723C114.406 99.1204 114.398 98.8649 114.422 98.6112C114.455 98.314 114.527 98.0218 114.637 97.7417C114.728 97.5167 114.849 97.3038 114.997 97.108C115.062 97.0249 115.133 96.9456 115.208 96.8704C115.231 96.8471 115.244 96.8163 115.244 96.7843C115.244 96.7523 115.231 96.7216 115.208 96.6982C115.183 96.6778 115.152 96.6662 115.12 96.6655C115.101 96.6656 115.084 96.6692 115.067 96.676C115.05 96.6828 115.035 96.6927 115.022 96.7051L115.01 96.6982Z" fill="white"/>
<path d="M132.013 83.853C132.323 83.7789 132.64 83.7311 132.959 83.7101C133.26 83.6932 133.562 83.7059 133.861 83.748C134.425 83.8287 134.968 84.0073 135.465 84.2749C135.953 84.5378 136.387 84.8819 136.748 85.2908C136.934 85.5019 137.1 85.7277 137.246 85.9658C137.389 86.2102 137.507 86.4674 137.597 86.7337C137.718 87.0836 137.795 87.4461 137.826 87.8133C137.857 88.1884 137.837 88.5658 137.767 88.936C137.696 89.3225 137.571 89.6979 137.394 90.0518C137.203 90.4312 136.955 90.7821 136.658 91.0935C136.58 91.1673 136.474 91.2087 136.364 91.2087C136.254 91.2087 136.149 91.1673 136.07 91.0935C135.993 91.0186 135.95 90.9179 135.95 90.8128C135.954 90.7078 135.998 90.6079 136.074 90.5322L136.224 90.36C136.457 90.0629 136.654 89.7411 136.81 89.4009C136.938 89.0969 137.028 88.7797 137.078 88.4556C137.113 88.1396 137.113 87.821 137.078 87.5051C137.029 87.1553 136.938 86.812 136.806 86.4823C136.652 86.1112 136.451 85.7591 136.209 85.4337C135.983 85.151 135.721 84.8965 135.429 84.6761C135.171 84.4859 134.889 84.3285 134.589 84.2077C134.28 84.0897 133.958 84.0087 133.628 83.9667H133.644C133.292 83.9262 132.935 83.9262 132.583 83.9667C132.407 83.9878 132.233 84.0182 132.062 84.0579C132.035 84.0642 132.006 84.0602 131.982 84.0467C131.958 84.0332 131.941 84.0113 131.934 83.9856C131.931 83.9725 131.931 83.9591 131.934 83.946C131.936 83.9262 131.945 83.9077 131.959 83.8927C131.973 83.8777 131.991 83.8669 132.011 83.8616L132.013 83.853ZM136.782 86.4203L136.799 86.4599L136.782 86.4203ZM136.173 90.4185L136.198 90.3858L136.173 90.4185ZM137.074 88.4917C137.074 88.5032 137.074 88.5147 137.074 88.5262C137.074 88.5159 137.074 88.5038 137.074 88.4917ZM133.637 83.9684H133.621H133.637Z" fill="white"/>
<path d="M135.064 91.3863C135.161 91.3349 135.274 91.3207 135.381 91.3467C135.491 91.3762 135.584 91.4454 135.641 91.5396C135.692 91.6333 135.707 91.7413 135.683 91.8443C135.668 91.8967 135.643 91.9457 135.609 91.9883C135.574 92.031 135.53 92.0664 135.481 92.0923C135.383 92.1439 135.269 92.1575 135.162 92.1302C135.107 92.116 135.056 92.0917 135.012 92.0586C134.967 92.0255 134.93 91.9842 134.902 91.9373C134.85 91.8443 134.836 91.7365 134.862 91.6343C134.876 91.5816 134.901 91.5323 134.935 91.4896C134.97 91.4468 135.014 91.4116 135.064 91.3863" fill="white"/>
<path d="M136.972 92.8325C136.979 92.807 136.997 92.7852 137.021 92.7719C137.045 92.7587 137.073 92.7551 137.1 92.7619C137.246 92.7972 137.387 92.8523 137.517 92.9255C137.649 93.0025 137.77 93.0957 137.877 93.2027C137.994 93.3131 138.097 93.4348 138.187 93.566C138.282 93.7109 138.358 93.8665 138.412 94.0292C138.522 94.334 138.541 94.6619 138.466 94.9763C138.428 95.1307 138.363 95.2779 138.274 95.4119C138.163 95.5753 138.018 95.7149 137.848 95.8217C137.813 95.8413 137.774 95.854 137.734 95.8591C137.694 95.8641 137.653 95.8613 137.614 95.851C137.573 95.8403 137.535 95.822 137.502 95.7972C137.469 95.7723 137.442 95.7415 137.421 95.7063C137.381 95.6368 137.371 95.555 137.394 95.4786C137.416 95.4021 137.469 95.3373 137.542 95.2982L137.65 95.2311C137.711 95.1846 137.766 95.1321 137.816 95.0744C137.862 95.0108 137.903 94.9434 137.937 94.8729C137.969 94.7881 137.992 94.7004 138.007 94.6112C138.024 94.4619 138.024 94.3112 138.007 94.1618C137.985 94.0246 137.948 93.89 137.895 93.7606C137.84 93.6259 137.768 93.4976 137.682 93.3784V93.3784L137.666 93.3577L137.681 93.3749C137.61 93.292 137.531 93.2159 137.444 93.1476C137.361 93.0871 137.271 93.0357 137.176 92.9944C137.131 92.9789 137.088 92.9651 137.042 92.9531C137.018 92.947 136.997 92.9326 136.983 92.9126C136.969 92.8926 136.963 92.8684 136.967 92.8446C136.966 92.8412 136.966 92.8377 136.967 92.8343L136.972 92.8325ZM137.423 93.1321H137.432H137.423Z" fill="white"/>
<path d="M130.405 85.6094C131.155 85.1192 132.072 84.9181 132.972 85.0463C133.422 85.104 133.853 85.2569 134.233 85.494C134.421 85.6135 134.591 85.7559 134.74 85.9176C134.902 86.0957 135.038 86.2945 135.144 86.5082C135.157 86.5438 135.163 86.5817 135.161 86.6196C135.159 86.6575 135.149 86.6946 135.131 86.7286C135.115 86.7617 135.092 86.7914 135.063 86.816C135.035 86.8405 135.001 86.8594 134.965 86.8715C134.928 86.8841 134.889 86.8896 134.85 86.8877C134.811 86.8859 134.773 86.8767 134.738 86.8607C134.702 86.8447 134.671 86.8222 134.644 86.7945C134.618 86.7668 134.598 86.7345 134.585 86.6993C134.551 86.5844 134.506 86.4726 134.451 86.3653C134.385 86.2515 134.307 86.1448 134.217 86.0467C134.102 85.9292 133.973 85.8246 133.833 85.735C133.651 85.6256 133.456 85.536 133.253 85.4682C132.998 85.3933 132.735 85.3482 132.469 85.3339C132.156 85.3199 131.843 85.3442 131.537 85.4062C131.291 85.4589 131.052 85.5404 130.827 85.649C130.732 85.6989 130.64 85.7535 130.551 85.8125C130.523 85.8312 130.488 85.8384 130.454 85.8326C130.42 85.8268 130.39 85.8084 130.371 85.7815C130.352 85.7552 130.344 85.7234 130.349 85.692C130.355 85.6583 130.374 85.628 130.403 85.6076L130.405 85.6094ZM133.215 85.4561H133.228H133.215Z" fill="white"/>
<path d="M130.268 101.201C131.946 103.047 133.873 104.078 134.567 103.501C135.261 102.924 134.464 100.958 132.786 99.1122C131.108 97.2664 129.181 96.2332 128.487 96.8101C127.793 97.3869 128.59 99.3533 130.268 101.201Z" fill="#212226"/>
<path d="M128.483 96.8084C128.146 97.0891 128.146 97.7021 128.483 98.5303C128.918 99.5098 129.521 100.413 130.266 101.204C131.605 102.677 133.128 103.668 134.051 103.668C134.239 103.677 134.423 103.619 134.569 103.506C134.596 103.484 134.62 103.459 134.643 103.432C134.56 103.41 134.477 103.386 134.394 103.358C133.798 103.164 133.235 102.887 132.723 102.537C132.214 102.189 131.746 101.788 131.328 101.342C130.905 100.892 130.522 100.409 130.183 99.8974C129.527 98.9046 128.993 97.8434 128.59 96.7344C128.55 96.7539 128.513 96.7775 128.48 96.805" fill="#19191D"/>
<path d="M128.482 90.5251C128.132 90.5259 127.783 90.5506 127.438 90.5992C126.587 90.7252 125.769 91.0039 125.026 91.4205C124.28 91.8395 123.624 92.3885 123.09 93.0391C122.562 93.6885 122.167 94.4276 121.926 95.2172C121.814 95.5849 121.736 95.9611 121.691 96.3416C121.677 96.4845 121.666 96.6085 121.661 96.7308C121.655 96.853 121.652 97.0183 121.661 97.1612C121.666 97.4802 121.696 97.7985 121.749 98.1134C121.789 98.3504 121.844 98.585 121.913 98.8159C121.933 98.8814 121.953 98.9468 121.974 99.0105C121.985 99.0415 121.994 99.0725 122.005 99.1018C122.223 99.7359 122.544 100.333 122.957 100.872L123 100.927C123.335 101.363 123.727 101.756 124.166 102.096L124.21 102.129L124.296 102.194C124.5 102.346 124.713 102.486 124.934 102.613C125.664 103.034 126.469 103.323 127.308 103.463C127.693 103.53 128.084 103.564 128.476 103.563C128.974 103.563 129.47 103.511 129.956 103.41C130.821 103.226 131.641 102.884 132.37 102.401C133.096 101.921 133.718 101.31 134.199 100.603C134.676 99.9025 135.007 99.121 135.176 98.3011C135.352 97.448 135.348 96.57 135.165 95.7183C134.985 94.8866 134.636 94.0965 134.14 93.3921C133.659 92.7086 133.048 92.1185 132.337 91.653C131.983 91.4227 131.607 91.225 131.214 91.0624C130.825 90.905 130.421 90.7828 130.008 90.6973C129.51 90.5841 129.001 90.5263 128.489 90.5251" fill="#F3C03A"/>
<path d="M127.438 90.5975C126.586 90.7216 125.766 91.0004 125.023 91.4188C124.276 91.8365 123.618 92.3857 123.085 93.0374C122.556 93.6869 122.162 94.4267 121.922 95.2172C121.809 95.5853 121.73 95.9621 121.686 96.3433C121.67 96.4863 121.661 96.6102 121.656 96.7325C121.65 96.8547 121.645 97.02 121.656 97.1629C121.662 97.4819 121.691 97.8001 121.744 98.1151C121.786 98.3527 121.842 98.5878 121.912 98.8194C121.931 98.8848 121.951 98.9502 121.973 99.014C121.973 99.0449 121.993 99.0759 122.004 99.1069C122.029 99.181 122.056 99.2533 122.083 99.3273C123.002 99.0015 123.886 98.5921 124.724 98.1048C125.536 97.6354 126.314 97.1131 127.051 96.5414C127.765 95.9868 128.444 95.391 129.082 94.7575V94.7575C130.109 93.7516 130.994 92.6224 131.716 91.3981V91.4136L131.768 91.3172C131.588 91.2277 131.407 91.145 131.227 91.0624C130.834 90.9037 130.426 90.7815 130.009 90.6973C129.51 90.5826 128.999 90.5248 128.485 90.5251C128.137 90.5256 127.788 90.5509 127.444 90.6009L127.438 90.5975Z" fill="#212226"/>
<path d="M133.356 94.5681C132.934 95.2127 132.464 95.8273 131.95 96.4071C131.462 96.9613 130.943 97.4895 130.394 97.9895C129.754 98.5725 129.078 99.1181 128.37 99.6235C127.672 100.125 126.94 100.58 126.178 100.987C125.785 101.196 125.383 101.392 124.974 101.569C124.646 101.709 124.314 101.84 123.974 101.955C124.035 102.003 124.094 102.053 124.154 102.101L124.195 102.134L124.282 102.201C124.488 102.352 124.702 102.491 124.924 102.62C125.653 103.042 126.459 103.331 127.299 103.472H127.337C128.049 103.204 128.737 102.879 129.392 102.501C130.652 101.77 131.807 100.884 132.826 99.8663V99.8663C133.693 99.0088 134.439 98.0468 135.045 97.0046L135.036 97.0201C135.124 96.8634 135.216 96.705 135.288 96.5431C135.266 96.2644 135.227 95.9872 135.169 95.7132C134.988 94.8808 134.639 94.0901 134.142 93.3852L134.077 93.2939C133.864 93.7281 133.624 94.1491 133.356 94.5544V94.5681Z" fill="#212226"/>
<path d="M122.077 99.3256C122.286 99.8794 122.578 100.401 122.944 100.875L122.987 100.93C123.275 101.306 123.605 101.65 123.973 101.955V101.955L124.033 101.934C124.32 101.838 124.626 101.719 124.972 101.571C125.318 101.423 125.655 101.261 126.016 101.073L126.176 100.991L126.243 100.954L126.436 100.849C126.38 100.808 126.324 100.767 126.27 100.724C126.019 100.53 125.782 100.321 125.558 100.099C125.338 99.8783 125.132 99.6493 124.938 99.41C124.671 99.0839 124.425 98.7436 124.199 98.3906C123.519 98.7554 122.81 99.0681 122.079 99.3256" fill="#E6B029"/>
<path d="M121.917 95.2155C121.804 95.5842 121.725 95.9616 121.68 96.3433C121.664 96.4862 121.655 96.6085 121.65 96.7324C121.644 96.8564 121.639 97.02 121.65 97.1629C121.655 97.4819 121.685 97.8001 121.738 98.1151C121.78 98.3533 121.836 98.589 121.906 98.8211C121.926 98.8865 121.945 98.9519 121.967 99.0156C121.978 99.0466 121.987 99.0776 122 99.1086C122.023 99.1827 122.05 99.255 122.077 99.329C122.812 99.0707 123.525 98.7569 124.208 98.3906C124.08 98.1891 123.957 97.9842 123.847 97.7759C123.681 97.4771 123.531 97.1702 123.398 96.8564C123.267 96.5521 123.154 96.2411 123.059 95.9249C122.962 95.6093 122.888 95.2877 122.838 94.9624C122.789 94.6535 122.764 94.3415 122.766 94.0291C122.768 93.8195 122.783 93.6101 122.812 93.4023C122.422 93.9598 122.123 94.5713 121.927 95.2155" fill="#19191D"/>
<path d="M131.247 94.3357C131.224 94.3627 131.208 94.3936 131.198 94.4267C131.189 94.4599 131.186 94.4945 131.191 94.5285C131.199 94.5964 131.236 94.6582 131.292 94.7007C131.35 94.7419 131.422 94.7609 131.493 94.7541C131.529 94.7511 131.563 94.7409 131.594 94.7243C131.626 94.7077 131.653 94.685 131.674 94.6577C131.697 94.631 131.714 94.6002 131.724 94.567C131.734 94.5338 131.736 94.499 131.731 94.4648C131.722 94.3968 131.685 94.335 131.629 94.2927C131.571 94.2512 131.499 94.2321 131.427 94.2393C131.391 94.2425 131.357 94.2527 131.326 94.2693C131.295 94.2859 131.268 94.3085 131.247 94.3357" fill="#E6B029"/>
<path d="M130.975 93.5057C130.967 93.5147 130.961 93.5252 130.958 93.5365C130.954 93.5477 130.953 93.5596 130.955 93.5712C130.959 93.5935 130.971 93.6138 130.989 93.628C131.009 93.6416 131.033 93.6477 131.058 93.6452C131.069 93.6441 131.08 93.6408 131.09 93.6355C131.1 93.6301 131.108 93.6229 131.115 93.6142C131.123 93.6052 131.129 93.5946 131.132 93.5834C131.135 93.5721 131.135 93.5603 131.133 93.5488C131.132 93.5377 131.129 93.527 131.123 93.5172C131.118 93.5075 131.11 93.4989 131.101 93.492C131.081 93.4788 131.057 93.4727 131.032 93.4748C131.021 93.476 131.01 93.4793 131 93.4846C130.99 93.49 130.982 93.4971 130.975 93.5057" fill="#E6B029"/>
<path d="M132.069 93.7657C132.058 93.7784 132.05 93.7931 132.046 93.8087C132.041 93.8244 132.04 93.8408 132.042 93.857C132.047 93.8888 132.065 93.9176 132.091 93.9379C132.119 93.9574 132.153 93.9666 132.188 93.9637C132.222 93.9596 132.252 93.9428 132.273 93.9172C132.293 93.8912 132.302 93.8584 132.298 93.826C132.294 93.7937 132.277 93.7642 132.251 93.7433C132.223 93.7244 132.188 93.7158 132.154 93.7192C132.137 93.7209 132.121 93.7259 132.106 93.7339C132.092 93.7419 132.079 93.7528 132.069 93.7657" fill="#E6B029"/>
<path d="M131.631 92.5348C131.617 92.5508 131.606 92.5695 131.6 92.5897C131.594 92.61 131.593 92.6312 131.597 92.6519C131.599 92.6722 131.606 92.6918 131.616 92.7095C131.627 92.7273 131.641 92.7428 131.658 92.7552C131.693 92.78 131.737 92.7916 131.781 92.7879C131.802 92.786 131.823 92.7798 131.841 92.7697C131.86 92.7596 131.876 92.7459 131.889 92.7294C131.902 92.713 131.912 92.6942 131.918 92.6741C131.924 92.654 131.926 92.633 131.923 92.6123C131.92 92.5921 131.914 92.5725 131.903 92.5548C131.893 92.5371 131.878 92.5215 131.862 92.509C131.826 92.4842 131.783 92.4726 131.739 92.4763C131.718 92.4784 131.697 92.4846 131.679 92.4947C131.66 92.5048 131.644 92.5184 131.631 92.5348" fill="#E6B029"/>
<path d="M132.909 93.3768C132.899 93.3877 132.892 93.4007 132.887 93.4147C132.883 93.4287 132.883 93.4434 132.885 93.4577C132.887 93.4719 132.892 93.4857 132.899 93.4981C132.907 93.5106 132.917 93.5214 132.929 93.53C132.954 93.5477 132.984 93.5556 133.015 93.5524C133.03 93.5508 133.044 93.5463 133.057 93.5392C133.069 93.532 133.08 93.5225 133.089 93.5111C133.099 93.4998 133.106 93.4865 133.11 93.4722C133.114 93.458 133.115 93.443 133.113 93.4284C133.111 93.4144 133.106 93.4009 133.099 93.3888C133.091 93.3766 133.081 93.3661 133.069 93.3578C133.045 93.3402 133.015 93.3321 132.985 93.3355C132.97 93.3368 132.955 93.3412 132.942 93.3484C132.929 93.3555 132.918 93.3652 132.909 93.3768" fill="#E6B029"/>
<path d="M131.842 95.5377C131.829 95.5544 131.823 95.5755 131.826 95.5963C131.829 95.6162 131.84 95.6341 131.857 95.6462C131.874 95.6583 131.896 95.6638 131.918 95.6617C131.938 95.6588 131.956 95.649 131.968 95.6342C131.982 95.6177 131.989 95.5966 131.986 95.5756C131.983 95.556 131.972 95.5383 131.956 95.5257C131.938 95.5136 131.916 95.5081 131.894 95.5102C131.874 95.5127 131.855 95.5225 131.842 95.5377" fill="#E6B029"/>
<path d="M130.381 95.2569C130.368 95.2729 130.358 95.2914 130.352 95.3112C130.346 95.3311 130.344 95.3518 130.347 95.3722C130.353 95.4119 130.375 95.4478 130.408 95.4721C130.443 95.4965 130.486 95.5081 130.529 95.5048C130.55 95.5027 130.57 95.4964 130.589 95.4863C130.607 95.4762 130.623 95.4626 130.635 95.4463C130.661 95.4133 130.673 95.3719 130.668 95.3309C130.662 95.2907 130.64 95.2542 130.607 95.2293C130.572 95.206 130.53 95.195 130.488 95.1983C130.466 95.2003 130.446 95.2065 130.428 95.2166C130.409 95.2267 130.394 95.2404 130.381 95.2569" fill="#E6B029"/>
<path d="M133.458 99.9594C133.431 99.9945 133.419 100.038 133.424 100.082C133.431 100.123 133.453 100.161 133.487 100.188C133.524 100.214 133.57 100.226 133.615 100.221C133.659 100.216 133.699 100.194 133.727 100.161C133.754 100.126 133.766 100.082 133.761 100.039C133.755 99.9968 133.732 99.9588 133.698 99.9318C133.661 99.9058 133.616 99.8941 133.57 99.8991C133.526 99.9044 133.486 99.926 133.458 99.9594" fill="#E6B029"/>
<path d="M134.074 98.9815C134.053 99.0057 134.043 99.0366 134.046 99.0675C134.051 99.0976 134.068 99.1247 134.093 99.1433C134.119 99.1621 134.151 99.1707 134.183 99.1674C134.199 99.1656 134.214 99.1608 134.228 99.1534C134.241 99.1461 134.253 99.1362 134.263 99.1244C134.283 99.0999 134.292 99.069 134.288 99.0383C134.284 99.0084 134.268 98.9813 134.243 98.9625C134.217 98.9445 134.185 98.9359 134.153 98.9384C134.137 98.9398 134.122 98.9444 134.108 98.9518C134.095 98.9593 134.083 98.9694 134.074 98.9815" fill="#E6B029"/>
<path d="M134.185 99.3241C134.161 99.3551 134.149 99.3939 134.153 99.4326C134.159 99.4702 134.179 99.5042 134.211 99.5273C134.243 99.5509 134.284 99.562 134.324 99.5583C134.344 99.5564 134.363 99.5505 134.38 99.541C134.397 99.5315 134.412 99.5186 134.423 99.5032C134.436 99.4882 134.446 99.4708 134.451 99.4522C134.457 99.4335 134.458 99.414 134.456 99.3947C134.45 99.3575 134.429 99.3237 134.398 99.3C134.365 99.277 134.325 99.266 134.285 99.269C134.265 99.2715 134.246 99.2777 134.229 99.2872C134.212 99.2966 134.197 99.3092 134.185 99.3241" fill="#E6B029"/>
<path d="M130.91 96.6912C130.885 96.7227 130.874 96.7623 130.879 96.8014C130.882 96.8206 130.888 96.8392 130.898 96.856C130.908 96.8729 130.921 96.8877 130.937 96.8996C130.97 96.923 131.011 96.934 131.052 96.9306C131.072 96.9285 131.092 96.9226 131.11 96.9131C131.127 96.9036 131.143 96.8908 131.155 96.8755C131.181 96.8437 131.192 96.8035 131.187 96.7636C131.182 96.7249 131.162 96.6897 131.13 96.6654C131.095 96.643 131.054 96.6327 131.013 96.6361C130.993 96.6382 130.973 96.6442 130.955 96.6536C130.938 96.6631 130.922 96.6759 130.91 96.6912" fill="#E6B029"/>
<path d="M112.038 84.7914C111.984 84.8067 111.938 84.8415 111.911 84.8886C111.883 84.9356 111.877 84.991 111.892 85.0428C111.908 85.0944 111.944 85.138 111.993 85.1641C112.043 85.1901 112.101 85.1967 112.155 85.1823C112.282 85.1399 112.412 85.1077 112.544 85.0859C112.805 85.0509 113.068 85.0451 113.33 85.0687H113.307H113.337C113.725 85.1145 114.106 85.2053 114.471 85.339L114.421 85.32C114.879 85.4874 115.314 85.7089 115.715 85.9795C116.04 86.2005 116.334 86.461 116.589 86.7544L116.64 86.8164C116.67 86.862 116.717 86.8952 116.771 86.9093C116.825 86.9212 116.882 86.9132 116.93 86.8869C116.978 86.8574 117.013 86.8112 117.027 86.7578C117.034 86.7325 117.035 86.7062 117.031 86.6804C117.026 86.6547 117.016 86.63 117.002 86.608C116.735 86.2731 116.419 85.9763 116.064 85.7264C115.666 85.4422 115.233 85.2062 114.774 85.0239C114.335 84.8462 113.871 84.7302 113.397 84.6795C113.26 84.6652 113.122 84.6578 112.984 84.6571C112.66 84.6539 112.338 84.7016 112.03 84.7983L112.038 84.7914Z" fill="#19191D"/>
<path d="M109.487 83.81C109.17 84.1251 108.997 84.5475 109.006 84.9844C109.015 85.4213 109.206 85.8368 109.536 86.1396C109.865 86.4424 110.308 86.6075 110.765 86.5988C111.222 86.5901 111.657 86.4082 111.974 86.0932C112.291 85.778 112.464 85.3556 112.455 84.9187C112.446 84.4818 112.256 84.0663 111.926 83.7635C111.596 83.4607 111.154 83.2956 110.696 83.3043C110.239 83.313 109.804 83.4949 109.487 83.81" fill="#212226"/>
<path d="M109 84.9757C109.005 85.1937 109.056 85.4085 109.149 85.6077C109.242 85.8069 109.375 85.9865 109.541 86.1362C109.863 86.4318 110.293 86.5966 110.739 86.596C110.973 86.5967 111.203 86.552 111.418 86.4647C111.632 86.3773 111.826 86.2492 111.987 86.088C112.145 85.932 112.269 85.7475 112.351 85.5453C112.434 85.3431 112.474 85.1272 112.468 84.9103V84.8999C112.435 84.9595 112.399 85.017 112.358 85.0721C112.278 85.1796 112.184 85.2763 112.077 85.3597C111.979 85.4385 111.872 85.5067 111.758 85.5628C111.633 85.6242 111.5 85.6705 111.363 85.7006C111.236 85.7267 111.106 85.7383 110.976 85.735C110.831 85.7291 110.687 85.703 110.55 85.6576C110.408 85.6096 110.271 85.5473 110.143 85.4716C110.006 85.391 109.879 85.2957 109.764 85.1875C109.661 85.0912 109.57 84.9844 109.492 84.8689C109.409 84.7468 109.343 84.6148 109.296 84.4763C109.259 84.3689 109.235 84.2581 109.224 84.1458C109.077 84.3995 109.003 84.6858 109.009 84.9757" fill="#19191D"/>
<path d="M117.88 79.8789C117.901 79.8292 117.942 79.7895 117.993 79.7682C118.045 79.747 118.103 79.7459 118.156 79.7652C118.181 79.7752 118.205 79.7901 118.225 79.8088C118.245 79.8276 118.261 79.8499 118.272 79.8746C118.283 79.8992 118.288 79.9256 118.288 79.9524C118.289 79.9791 118.283 80.0056 118.273 80.0304C118.217 80.147 118.171 80.2672 118.134 80.3902C118.071 80.6343 118.038 80.8845 118.035 81.1358V81.1496C118.043 81.5231 118.099 81.8943 118.201 82.255C118.201 82.2378 118.201 82.2206 118.186 82.2051C118.314 82.6581 118.5 83.0942 118.74 83.5034C118.938 83.8347 119.18 84.1402 119.461 84.4125V84.4125L119.52 84.4659C119.564 84.5003 119.593 84.5485 119.603 84.6019C119.609 84.6545 119.594 84.7072 119.561 84.75C119.526 84.7928 119.475 84.8211 119.419 84.8292C119.392 84.833 119.364 84.8314 119.337 84.8246C119.311 84.8178 119.286 84.8059 119.264 84.7896C118.944 84.5007 118.668 84.1703 118.444 83.8081C118.188 83.4009 117.986 82.9648 117.844 82.5099C117.702 82.0736 117.627 81.6201 117.62 81.1634C117.62 81.0323 117.626 80.9012 117.64 80.7708C117.67 80.4626 117.753 80.1612 117.885 79.8789H117.88ZM118.13 80.423V80.4092C118.129 80.4137 118.129 80.4184 118.13 80.423Z" fill="#19191D"/>
<path d="M117.11 77.353C117.471 77.0851 117.929 76.9648 118.383 77.0183C118.837 77.0719 119.25 77.295 119.532 77.6388C119.813 77.9838 119.939 78.421 119.883 78.8545C119.826 79.288 119.592 79.6825 119.231 79.9513C118.871 80.2202 118.413 80.3413 117.959 80.288C117.506 80.2347 117.092 80.0114 116.811 79.6672C116.53 79.322 116.404 78.8848 116.46 78.4511C116.516 78.0174 116.75 77.6226 117.11 77.353" fill="#212226"/>
<path d="M118.384 77.012C118.61 77.0382 118.828 77.1068 119.025 77.2138C119.223 77.3208 119.397 77.464 119.536 77.6353C119.813 77.9716 119.942 78.3977 119.897 78.8234C119.874 79.045 119.804 79.2597 119.691 79.4546C119.578 79.6494 119.425 79.8201 119.24 79.9564C119.062 80.0902 118.857 80.1889 118.638 80.2465C118.42 80.3041 118.191 80.3197 117.966 80.2922H117.955C118.02 80.2665 118.084 80.2366 118.144 80.2026C118.265 80.1387 118.375 80.0593 118.473 79.9667C118.566 79.8823 118.648 79.7875 118.718 79.6844C118.793 79.5722 118.854 79.4512 118.898 79.3245C118.94 79.2064 118.966 79.0838 118.975 78.9594C118.985 78.8207 118.973 78.6814 118.939 78.5462C118.904 78.4062 118.853 78.27 118.788 78.1398C118.717 78.0016 118.631 77.8711 118.53 77.7507C118.44 77.6442 118.339 77.5472 118.227 77.4614C118.109 77.3691 117.978 77.2921 117.838 77.2324C117.73 77.1869 117.617 77.1529 117.501 77.1308C117.78 77.0165 118.086 76.9754 118.388 77.012" fill="#19191D"/>
<path d="M123.339 83.2366H123.321C122.595 83.2346 121.87 83.3033 121.158 83.4415C120.446 83.5793 119.756 83.8026 119.103 84.1062C118.761 84.2655 118.433 84.4497 118.121 84.6572C118.086 84.6594 118.052 84.6707 118.023 84.6899C117.439 85.1154 116.922 85.6201 116.489 86.1879C116.066 86.7512 115.718 87.3625 115.453 88.0079C115.187 88.6594 114.992 89.3349 114.869 90.0242C114.757 90.6249 114.701 91.234 114.703 91.8442C114.71 92.3723 114.764 92.8989 114.865 93.418C114.964 93.9341 115.117 94.4394 115.321 94.9264C115.519 95.4031 115.78 95.8533 116.098 96.266C116.408 96.67 116.79 97.0196 117.225 97.2991C117.661 97.5713 118.153 97.7537 118.667 97.8346C118.894 97.8696 119.124 97.8869 119.354 97.8863H119.534C119.864 97.8685 120.192 97.8247 120.515 97.7554C121.256 97.6027 121.978 97.3717 122.667 97.0666C123.388 96.752 124.079 96.3781 124.732 95.9492C125.171 95.6614 125.593 95.3498 125.994 95.0159L126.164 94.8713C126.297 94.7766 126.429 94.6801 126.558 94.5803C126.971 94.2607 127.365 93.9192 127.737 93.5575C128.29 93.0155 128.793 92.4291 129.241 91.8046C129.674 91.2095 130.037 90.5702 130.322 89.8985C130.449 89.6064 130.551 89.3046 130.625 88.9963C130.686 88.7245 130.719 88.4477 130.724 88.1698C130.729 87.6687 130.626 87.1721 130.419 86.7113C130.207 86.2561 129.915 85.8386 129.556 85.4768C129.184 85.1076 128.764 84.7853 128.307 84.5177C127.84 84.2413 127.344 84.0106 126.829 83.8289C126.311 83.6451 125.777 83.504 125.234 83.4071C124.604 83.3023 123.967 83.2504 123.328 83.2521" fill="#F3C03A"/>
<path d="M125.751 94.4028C125.257 94.7834 124.722 95.1088 124.199 95.4497C124.153 95.4806 124.121 95.5277 124.112 95.5806C124.102 95.6335 124.114 95.688 124.147 95.7321C124.179 95.7759 124.227 95.8058 124.282 95.8155C124.337 95.8252 124.394 95.8138 124.44 95.7838C124.963 95.4394 125.497 95.1174 125.991 94.7351C126.013 94.7202 126.033 94.7011 126.048 94.679C126.063 94.6568 126.074 94.632 126.079 94.606C126.084 94.5798 126.084 94.553 126.078 94.5269C126.072 94.5009 126.061 94.4763 126.045 94.4545C126.024 94.427 125.997 94.4047 125.966 94.3894C125.934 94.3741 125.9 94.3663 125.864 94.3667C125.823 94.3646 125.783 94.3775 125.751 94.4028" fill="#F3C03A"/>
<path d="M126.349 94.0293C126.293 94.0348 126.24 94.0607 126.203 94.1016C126.109 94.1912 126.023 94.2738 125.915 94.3685C125.487 94.7439 125.013 95.0688 124.503 95.3362C124.48 95.3507 124.461 95.3697 124.446 95.392C124.431 95.4142 124.421 95.4392 124.417 95.4653C124.406 95.518 124.418 95.5724 124.449 95.6169C124.482 95.6611 124.531 95.6914 124.586 95.7012C124.642 95.7095 124.698 95.6979 124.745 95.6685C125.404 95.32 126.005 94.8796 126.528 94.3616C126.564 94.3203 126.581 94.267 126.576 94.2134C126.571 94.1598 126.544 94.1103 126.501 94.0758C126.462 94.0452 126.412 94.0287 126.362 94.0293H126.349V94.0293ZM125.913 94.3737L125.882 94.4012L125.913 94.3737Z" fill="#F3C03A"/>
<path d="M126.445 93.957C126.388 93.9628 126.335 93.9886 126.297 94.0294C126.171 94.1516 126.04 94.2739 125.906 94.3909C125.515 94.7275 125.093 95.0295 124.644 95.2932C124.598 95.3238 124.566 95.3708 124.556 95.4237C124.546 95.4767 124.558 95.5313 124.59 95.5756C124.622 95.6194 124.671 95.6493 124.726 95.659C124.781 95.6687 124.838 95.6572 124.884 95.6272C125.519 95.2507 126.104 94.8014 126.625 94.2894C126.662 94.2482 126.679 94.195 126.675 94.1415C126.67 94.0879 126.643 94.0383 126.6 94.0035C126.561 93.9734 126.513 93.957 126.463 93.957H126.447H126.445ZM125.949 94.3548L125.928 94.3737L125.949 94.3548Z" fill="#F3C03A"/>
<path d="M126.5 93.9688C126.442 93.9735 126.389 93.9994 126.352 94.0411C126.215 94.1719 126.074 94.3011 125.93 94.4268C125.495 94.8149 125.011 95.1488 124.488 95.4203C124.465 95.4353 124.445 95.4546 124.43 95.4771C124.415 95.4996 124.404 95.5248 124.4 95.5512C124.39 95.604 124.402 95.6583 124.434 95.7027C124.45 95.7248 124.47 95.7436 124.493 95.7581C124.517 95.7726 124.543 95.7825 124.571 95.787C124.626 95.7945 124.682 95.7829 124.73 95.7543C125.449 95.3644 126.105 94.8747 126.674 94.3011C126.711 94.2597 126.728 94.2064 126.723 94.1528C126.718 94.0992 126.691 94.0498 126.647 94.0152C126.61 93.9848 126.562 93.9684 126.512 93.9688H126.496" fill="#F3C03A"/>
<path d="M126.573 93.988C126.516 93.9935 126.464 94.0194 126.427 94.0604C126.34 94.1396 126.247 94.2171 126.164 94.2945C126.164 94.2945 126.164 94.2945 126.164 94.2859C125.644 94.7459 125.074 95.1501 124.462 95.4912C124.417 95.5221 124.386 95.5687 124.376 95.6211C124.366 95.6735 124.377 95.7276 124.408 95.7719C124.424 95.7939 124.444 95.8127 124.468 95.8272C124.491 95.8417 124.518 95.8516 124.545 95.8563C124.6 95.8647 124.657 95.8531 124.704 95.8235C125.445 95.4042 126.129 94.8999 126.742 94.3221C126.76 94.3021 126.774 94.2788 126.783 94.2537C126.791 94.2285 126.794 94.202 126.791 94.1757C126.786 94.1219 126.76 94.072 126.717 94.0363C126.677 94.0055 126.628 93.989 126.577 93.9898H126.564" fill="#F3C03A"/>
<path d="M126.737 93.8984C126.68 93.9042 126.627 93.93 126.589 93.9708C126.481 94.0723 126.369 94.1722 126.257 94.2704C125.742 94.7116 125.185 95.107 124.594 95.4516C124.547 95.4822 124.516 95.5291 124.505 95.5821C124.495 95.635 124.508 95.6896 124.54 95.7339C124.572 95.7778 124.621 95.8078 124.676 95.8175C124.732 95.8272 124.789 95.8157 124.835 95.7856C125.586 95.346 126.282 94.826 126.91 94.2359C126.928 94.2164 126.942 94.1934 126.951 94.1686C126.959 94.1437 126.963 94.1174 126.96 94.0913C126.955 94.0366 126.928 93.9859 126.885 93.9501C126.846 93.9205 126.799 93.9041 126.749 93.9036H126.733L126.737 93.8984ZM126.295 94.248L126.274 94.2669L126.295 94.248Z" fill="#F3C03A"/>
<path d="M126.612 94.0002C126.483 94.1345 126.347 94.2619 126.207 94.3859L126.167 94.4203C126.174 94.415 126.18 94.4092 126.185 94.4031C125.707 94.8093 125.177 95.1564 124.608 95.4362L124.554 95.4637C124.5 95.4824 124.457 95.52 124.431 95.5688C124.421 95.5927 124.415 95.6185 124.415 95.6445C124.415 95.6706 124.421 95.6964 124.431 95.7203C124.44 95.746 124.455 95.7697 124.473 95.7898C124.492 95.81 124.515 95.8262 124.541 95.8374C124.566 95.848 124.593 95.8535 124.621 95.8535C124.648 95.8535 124.675 95.848 124.7 95.8374C125.544 95.4439 126.305 94.9045 126.944 94.2464C126.98 94.205 126.997 94.1517 126.992 94.0981C126.987 94.0446 126.96 93.9951 126.917 93.9606C126.881 93.9303 126.834 93.9137 126.785 93.9141C126.754 93.9143 126.723 93.9209 126.694 93.9333C126.666 93.9458 126.64 93.9639 126.62 93.9864L126.612 94.0002ZM124.637 95.4155H124.622H124.637ZM126.185 94.3824L126.207 94.3652L126.185 94.3841" fill="#F3C03A"/>
<path d="M125.579 94.7836C125.097 95.1722 124.578 95.518 124.029 95.8167C123.983 95.8473 123.951 95.8942 123.941 95.9472C123.931 96.0001 123.943 96.0548 123.975 96.0991C123.991 96.1212 124.011 96.14 124.035 96.1545C124.058 96.169 124.084 96.1789 124.112 96.1834C124.167 96.1926 124.224 96.1809 124.271 96.1507C124.819 95.8512 125.337 95.5054 125.821 95.1176C125.867 95.0869 125.898 95.0407 125.909 94.9885C125.919 94.9356 125.907 94.8811 125.875 94.8369C125.859 94.8148 125.839 94.796 125.815 94.7815C125.792 94.767 125.766 94.7572 125.738 94.7526H125.7C125.657 94.751 125.614 94.7638 125.579 94.7887" fill="#F3C03A"/>
<path d="M125.683 94.7541C125.117 95.2016 124.508 95.5954 123.862 95.9301C123.839 95.945 123.82 95.9641 123.804 95.9863C123.789 96.0084 123.778 96.0333 123.773 96.0594C123.768 96.0854 123.768 96.1122 123.774 96.1382C123.78 96.1642 123.791 96.1889 123.806 96.2108C123.839 96.2547 123.888 96.2847 123.943 96.2943C123.998 96.304 124.055 96.2925 124.102 96.2624C124.748 95.929 125.359 95.5356 125.924 95.0881C125.969 95.056 126.001 95.0096 126.013 94.9573C126.022 94.9044 126.01 94.8501 125.978 94.8057C125.946 94.7615 125.897 94.7312 125.841 94.7214H125.802C125.759 94.7195 125.717 94.7323 125.683 94.7575" fill="#F3C03A"/>
<path d="M125.946 94.5974C125.305 95.1151 124.605 95.5626 123.86 95.9319C123.837 95.9469 123.817 95.9662 123.802 95.9887C123.787 96.0112 123.777 96.0364 123.772 96.0627C123.762 96.1156 123.774 96.1701 123.806 96.2143C123.822 96.2364 123.842 96.2552 123.866 96.2697C123.889 96.2842 123.916 96.294 123.943 96.2986C123.998 96.3058 124.055 96.2942 124.102 96.2659C124.847 95.8961 125.546 95.4479 126.187 94.9297C126.232 94.8983 126.263 94.8524 126.276 94.8006C126.285 94.7478 126.273 94.6936 126.241 94.6491C126.226 94.6269 126.206 94.608 126.182 94.5935C126.158 94.579 126.132 94.5692 126.104 94.5647H126.067C126.023 94.5624 125.98 94.5753 125.946 94.6009" fill="#F3C03A"/>
<path d="M125.605 94.8387C125.095 95.2109 124.564 95.5558 124.014 95.8718C123.968 95.9024 123.936 95.949 123.926 96.0015C123.916 96.054 123.928 96.1083 123.96 96.1524C123.975 96.1746 123.995 96.1935 124.019 96.208C124.043 96.2225 124.069 96.2323 124.097 96.2368C124.152 96.246 124.209 96.2343 124.255 96.2041C124.805 95.8874 125.336 95.5425 125.847 95.171C125.892 95.1395 125.923 95.0927 125.933 95.0401C125.943 94.9876 125.932 94.9333 125.901 94.8886C125.88 94.8615 125.853 94.8394 125.822 94.8241C125.79 94.8088 125.756 94.8008 125.721 94.8008C125.679 94.8007 125.638 94.8133 125.604 94.8369" fill="#F3C03A"/>
<path d="M126.182 94.3409C125.542 94.8677 124.906 95.4084 124.156 95.7889L123.907 95.9026C123.854 95.9214 123.81 95.959 123.785 96.0076C123.774 96.0316 123.769 96.0573 123.769 96.0834C123.769 96.1094 123.774 96.1352 123.785 96.1591C123.794 96.1843 123.808 96.2075 123.826 96.2274C123.844 96.2474 123.867 96.2637 123.892 96.2753C123.917 96.287 123.944 96.2939 123.972 96.2955C123.999 96.2971 124.027 96.2935 124.053 96.2848C124.501 96.0915 124.925 95.85 125.315 95.5651C125.703 95.2862 126.069 94.9779 126.436 94.6749C126.481 94.6436 126.513 94.5977 126.525 94.5458C126.53 94.5193 126.53 94.4921 126.524 94.4658C126.518 94.4395 126.507 94.4146 126.49 94.3925C126.458 94.3484 126.409 94.3181 126.353 94.3081H126.316C126.273 94.3074 126.231 94.3201 126.197 94.3443L126.182 94.3409ZM124.158 95.7993L124.136 95.8096L124.158 95.7993Z" fill="#F3C03A"/>
<path d="M127.108 93.53C126.876 93.7625 126.636 93.988 126.387 94.2033C125.952 94.5785 125.485 94.9194 124.992 95.2226C124.946 95.2535 124.915 95.3005 124.905 95.3533C124.895 95.4061 124.907 95.4606 124.938 95.505C124.971 95.5482 125.02 95.5776 125.075 95.5872C125.13 95.5968 125.187 95.5859 125.234 95.5567C126.038 95.0565 126.776 94.4657 127.433 93.7969C127.469 93.7556 127.486 93.7025 127.481 93.6491C127.477 93.5956 127.45 93.5461 127.408 93.5111C127.371 93.4816 127.324 93.4652 127.276 93.4646C127.245 93.465 127.213 93.4717 127.184 93.4841C127.156 93.4966 127.13 93.5145 127.108 93.5369" fill="#F3C03A"/>
<path d="M127.2 93.4524C126.981 93.6951 126.747 93.9251 126.499 94.1411L126.543 94.1067C126.219 94.3826 125.877 94.6379 125.519 94.8712C125.473 94.9021 125.441 94.949 125.431 95.0018C125.421 95.0547 125.433 95.1091 125.465 95.1536C125.497 95.1971 125.546 95.2268 125.601 95.2365C125.657 95.2461 125.714 95.2349 125.76 95.2053C126.412 94.7833 127.005 94.284 127.525 93.7193C127.56 93.6777 127.578 93.6245 127.573 93.5711C127.567 93.5176 127.541 93.4682 127.498 93.4335C127.46 93.4037 127.413 93.3873 127.365 93.387C127.333 93.387 127.303 93.3935 127.274 93.406C127.246 93.4185 127.221 93.4366 127.2 93.4593" fill="#F3C03A"/>
<path d="M127.364 93.2889C127.104 93.5726 126.829 93.8433 126.54 94.0999C126.308 94.3018 126.062 94.4898 125.805 94.6629C125.76 94.6938 125.728 94.7404 125.718 94.7928C125.708 94.8452 125.72 94.8993 125.751 94.9436C125.783 94.9874 125.832 95.0174 125.887 95.0274C125.943 95.0374 126 95.0265 126.047 94.997C126.652 94.5779 127.204 94.0925 127.69 93.5506C127.726 93.5091 127.743 93.4559 127.738 93.4024C127.733 93.349 127.706 93.2995 127.663 93.2648C127.626 93.2342 127.579 93.2177 127.53 93.2183C127.499 93.2182 127.468 93.2244 127.439 93.2366C127.411 93.2488 127.385 93.2666 127.364 93.2889V93.2889ZM126.517 94.1223L126.499 94.1378L126.517 94.1223Z" fill="#F3C03A"/>
<path d="M127.406 93.2303C127.157 93.5208 126.888 93.7952 126.6 94.0516C126.404 94.2218 126.196 94.38 125.978 94.5251C125.932 94.5558 125.9 94.6027 125.89 94.6556C125.88 94.7086 125.892 94.7632 125.924 94.8075C125.957 94.8515 126.006 94.8814 126.061 94.8908C126.117 94.9002 126.174 94.8882 126.22 94.8574C126.787 94.4707 127.296 94.0106 127.73 93.4903C127.766 93.4488 127.783 93.3955 127.778 93.3421C127.773 93.2886 127.746 93.2392 127.703 93.2045C127.666 93.1741 127.618 93.1576 127.568 93.158C127.537 93.1579 127.507 93.1644 127.479 93.1769C127.451 93.1894 127.426 93.2076 127.406 93.2303" fill="#F3C03A"/>
<path d="M127.75 92.867C127.398 93.2338 127.059 93.6109 126.679 93.9501C126.515 94.0903 126.342 94.2208 126.162 94.3409C126.138 94.3558 126.119 94.3749 126.104 94.3971C126.088 94.4194 126.078 94.4443 126.073 94.4704C126.068 94.4966 126.068 94.5234 126.074 94.5494C126.08 94.5753 126.091 94.5999 126.108 94.6216C126.14 94.6654 126.188 94.6953 126.243 94.705C126.298 94.7147 126.355 94.7033 126.401 94.6733C127.048 94.2531 127.55 93.6729 128.076 93.1236C128.111 93.0819 128.128 93.0288 128.123 92.9754C128.118 92.9221 128.091 92.8728 128.049 92.8377C128.011 92.808 127.964 92.7916 127.915 92.7913C127.884 92.7918 127.853 92.7985 127.825 92.811C127.796 92.8234 127.771 92.8413 127.75 92.8636V92.867ZM126.668 93.9501L126.643 93.9725L126.668 93.9501Z" fill="#F3C03A"/>
<path d="M124.273 95.6753C123.925 95.8819 123.581 96.0988 123.217 96.2796L123.236 96.271L123.204 96.2848L123.184 96.2951H123.198C123.076 96.3519 122.948 96.4036 122.82 96.4518C122.767 96.4698 122.724 96.5067 122.7 96.5546C122.675 96.6025 122.671 96.6577 122.688 96.7084C122.707 96.7593 122.746 96.8011 122.796 96.8247C122.847 96.8483 122.905 96.8516 122.959 96.8341C123.504 96.6101 124.025 96.3356 124.514 96.0145C124.537 95.9995 124.557 95.9803 124.572 95.958C124.587 95.9358 124.597 95.9109 124.602 95.8849C124.607 95.8588 124.607 95.832 124.601 95.8061C124.595 95.7802 124.584 95.7556 124.568 95.7338C124.549 95.7054 124.522 95.6824 124.49 95.667C124.459 95.6516 124.424 95.6443 124.388 95.646C124.344 95.6465 124.301 95.659 124.264 95.6821L124.273 95.6753ZM123.182 96.2951H123.195L123.177 96.3037" fill="#F3C03A"/>
<path d="M124.84 95.3329C124.299 95.6686 123.771 96.0216 123.204 96.3247C123.158 96.3553 123.126 96.4015 123.115 96.4538C123.106 96.5066 123.118 96.5608 123.149 96.6053C123.165 96.6274 123.186 96.6462 123.209 96.6607C123.233 96.6751 123.259 96.685 123.286 96.6897C123.342 96.6991 123.399 96.6873 123.445 96.657C124.013 96.3608 124.539 96.0009 125.082 95.6669C125.128 95.636 125.159 95.5891 125.169 95.5363C125.179 95.4835 125.167 95.429 125.136 95.3845C125.116 95.3571 125.089 95.3348 125.057 95.3198C125.026 95.3048 124.991 95.2974 124.956 95.2984C124.913 95.2987 124.871 95.3107 124.835 95.3329" fill="#F3C03A"/>
<path d="M125.141 95.1363C124.601 95.4806 124.073 95.844 123.519 96.1694C123.496 96.1844 123.476 96.2037 123.461 96.226C123.446 96.2484 123.435 96.2735 123.43 96.2998C123.425 96.326 123.426 96.353 123.432 96.3791C123.438 96.4052 123.449 96.4299 123.465 96.4518C123.498 96.495 123.547 96.5244 123.602 96.534C123.657 96.5436 123.714 96.5327 123.761 96.5034C124.319 96.1866 124.842 95.8267 125.383 95.4789C125.429 95.448 125.46 95.4011 125.47 95.3483C125.481 95.2955 125.469 95.241 125.437 95.1965C125.417 95.1691 125.39 95.1468 125.358 95.1318C125.327 95.1168 125.292 95.1094 125.257 95.1104C125.214 95.1109 125.173 95.1229 125.138 95.1449" fill="#F3C03A"/>
<path d="M125.37 95.0021C124.857 95.3837 124.314 95.729 123.748 96.0352L123.784 96.018L123.744 96.0369H123.734H123.744L123.604 96.1006C123.55 96.12 123.506 96.1582 123.481 96.2074C123.461 96.256 123.461 96.3103 123.481 96.3589C123.501 96.4099 123.54 96.4518 123.591 96.476C123.642 96.4984 123.699 96.5015 123.752 96.4846C124.089 96.3327 124.412 96.1542 124.718 95.9508C125.022 95.7494 125.316 95.5341 125.619 95.3275C125.665 95.2969 125.696 95.2503 125.706 95.1978C125.717 95.1453 125.705 95.091 125.673 95.0469C125.653 95.0191 125.626 94.9965 125.595 94.9812C125.563 94.9658 125.528 94.9582 125.493 94.959C125.451 94.9589 125.41 94.9716 125.376 94.9952L125.37 95.0021Z" fill="#F3C03A"/>
<path d="M125.385 94.9608C124.893 95.3704 124.356 95.7288 123.784 96.03L123.649 96.0937C123.596 96.1136 123.553 96.1509 123.527 96.1988C123.504 96.247 123.501 96.3016 123.518 96.352C123.537 96.4035 123.578 96.4455 123.629 96.4691C123.654 96.4797 123.681 96.4853 123.709 96.4853C123.736 96.4853 123.763 96.4797 123.788 96.4691C124.115 96.3205 124.429 96.1478 124.727 95.9526C125.041 95.7477 125.336 95.5221 125.628 95.2896C125.674 95.259 125.706 95.2128 125.717 95.1605C125.726 95.1077 125.714 95.0533 125.682 95.009C125.661 94.982 125.634 94.9599 125.603 94.9444C125.572 94.9289 125.537 94.9204 125.502 94.9194C125.462 94.9197 125.422 94.933 125.39 94.9573L125.385 94.9608ZM123.79 96.0266L123.741 96.0507L123.79 96.0266Z" fill="#F3C03A"/>
<path d="M125.235 95.0728C124.738 95.4637 124.204 95.8096 123.64 96.1059L123.555 96.1455C123.503 96.1655 123.46 96.2028 123.435 96.2506C123.411 96.2986 123.408 96.3536 123.425 96.4038C123.435 96.4294 123.449 96.4529 123.468 96.473C123.487 96.4932 123.51 96.5094 123.535 96.5209C123.561 96.5311 123.588 96.5363 123.616 96.5363C123.643 96.5363 123.67 96.5311 123.696 96.5209C124.007 96.3726 124.308 96.2059 124.597 96.0216C124.9 95.8304 125.19 95.6187 125.475 95.4017C125.521 95.3708 125.552 95.3239 125.562 95.2711C125.573 95.2183 125.561 95.1638 125.529 95.1193C125.508 95.0925 125.481 95.0706 125.45 95.0553C125.418 95.0401 125.384 95.032 125.349 95.0315C125.308 95.0312 125.269 95.044 125.237 95.0677L125.235 95.0728ZM123.615 96.1128H123.6H123.615Z" fill="#F3C03A"/>
<path d="M125.322 95.0228C124.712 95.4665 124.07 95.8692 123.402 96.2281C123.364 96.2304 123.327 96.2422 123.296 96.2625L123.188 96.328C123.15 96.3532 123.121 96.3895 123.107 96.4313C123.092 96.4732 123.092 96.5185 123.107 96.5604C123.126 96.6119 123.166 96.6539 123.218 96.6775C123.243 96.6891 123.27 96.6958 123.298 96.6973C123.325 96.6987 123.353 96.695 123.379 96.6861C123.763 96.5118 124.132 96.3092 124.484 96.08C124.844 95.8459 125.205 95.5927 125.565 95.35C125.612 95.3193 125.643 95.2724 125.653 95.2194C125.664 95.1665 125.651 95.1119 125.619 95.0676C125.599 95.0404 125.572 95.0184 125.54 95.0034C125.509 94.9885 125.474 94.9809 125.439 94.9815C125.396 94.9816 125.355 94.9942 125.32 95.0176L125.322 95.0228ZM123.42 96.2229H123.402H123.422H123.42Z" fill="#F3C03A"/>
<path d="M125.594 94.8128C124.925 95.3167 124.212 95.7654 123.463 96.1541C123.44 96.1685 123.42 96.1874 123.405 96.2097C123.39 96.232 123.381 96.2571 123.377 96.2833C123.366 96.3359 123.378 96.3904 123.409 96.4348C123.442 96.4785 123.491 96.5087 123.546 96.5192C123.602 96.5268 123.658 96.5152 123.705 96.4865C124.454 96.0984 125.167 95.6496 125.836 95.1451C125.882 95.1145 125.914 95.0676 125.924 95.0146C125.934 94.9617 125.922 94.907 125.89 94.8627C125.869 94.8356 125.842 94.8136 125.81 94.7986C125.779 94.7836 125.744 94.7761 125.709 94.7766C125.667 94.7759 125.626 94.7886 125.592 94.8128" fill="#F3C03A"/>
<path d="M125.432 94.94C124.999 95.2691 124.541 95.5661 124.061 95.8285C124.015 95.8591 123.983 95.9057 123.973 95.9582C123.963 96.0107 123.975 96.065 124.006 96.1091C124.039 96.153 124.088 96.183 124.143 96.1927C124.199 96.2023 124.256 96.1909 124.302 96.1608C124.783 95.8997 125.241 95.6032 125.674 95.274C125.719 95.2426 125.75 95.1967 125.762 95.1449C125.771 95.0915 125.759 95.0369 125.728 94.9916C125.707 94.9648 125.68 94.9429 125.648 94.9277C125.617 94.9125 125.583 94.9043 125.548 94.9038C125.507 94.9032 125.467 94.9159 125.434 94.94" fill="#F3C03A"/>
<path d="M125.608 94.8301C125.159 95.1545 124.693 95.4568 124.211 95.7358C124.165 95.7665 124.133 95.8132 124.123 95.8661C124.112 95.9189 124.124 95.9735 124.155 96.0182C124.188 96.0617 124.237 96.0914 124.292 96.1011C124.347 96.1107 124.404 96.0995 124.451 96.0699C124.933 95.7907 125.4 95.4884 125.85 95.1641C125.895 95.1324 125.926 95.0852 125.936 95.0324C125.946 94.9795 125.935 94.925 125.904 94.88C125.883 94.8534 125.856 94.8318 125.824 94.8168C125.793 94.8019 125.759 94.7941 125.724 94.7939C125.682 94.7938 125.641 94.8065 125.606 94.8301" fill="#F3C03A"/>
<path d="M119.224 84.1182C118.935 84.2279 118.657 84.3628 118.393 84.5212C118.37 84.5352 118.349 84.5536 118.333 84.5753C118.317 84.5969 118.305 84.6214 118.299 84.6474C118.293 84.6733 118.292 84.7001 118.297 84.7264C118.302 84.7526 118.312 84.7776 118.327 84.8001C118.357 84.845 118.405 84.8768 118.459 84.8887C118.514 84.9006 118.571 84.8917 118.619 84.8638C118.799 84.7588 118.979 84.6572 119.179 84.5694L119.347 84.5057C119.4 84.4894 119.445 84.4539 119.472 84.4066C119.498 84.3594 119.505 84.3041 119.489 84.2525C119.474 84.2114 119.447 84.1756 119.41 84.1497C119.373 84.1239 119.329 84.1093 119.284 84.1079C119.264 84.1081 119.243 84.1116 119.224 84.1182" fill="#F3C03A"/>
<path d="M118.86 84.2732C118.61 84.3895 118.369 84.523 118.139 84.6727C118.091 84.7014 118.058 84.7468 118.045 84.799C118.033 84.8513 118.042 84.9061 118.072 84.9516C118.103 84.9966 118.151 85.0285 118.206 85.0403C118.26 85.0522 118.318 85.0433 118.366 85.0153C118.596 84.8653 118.837 84.7318 119.087 84.6158C119.111 84.6019 119.132 84.5834 119.148 84.5615C119.164 84.5395 119.175 84.5147 119.181 84.4884C119.187 84.4624 119.188 84.4353 119.183 84.4089C119.178 84.3825 119.168 84.3574 119.152 84.3352C119.137 84.3126 119.118 84.293 119.096 84.2776C119.073 84.2623 119.047 84.2514 119.02 84.2456C119.006 84.244 118.991 84.244 118.977 84.2456C118.937 84.247 118.897 84.2577 118.862 84.2766" fill="#F3C03A"/>
<path d="M118.782 84.2989C118.658 84.3488 118.538 84.4063 118.422 84.4711C118.291 84.5431 118.165 84.6224 118.045 84.7087C117.998 84.738 117.965 84.7834 117.953 84.8354C117.94 84.8874 117.949 84.9419 117.978 84.9877C117.993 85.0101 118.012 85.0295 118.035 85.0448C118.058 85.0601 118.083 85.0709 118.111 85.0767C118.138 85.0824 118.166 85.083 118.193 85.0784C118.221 85.0737 118.247 85.064 118.27 85.0497C118.465 84.9127 118.673 84.7928 118.89 84.6915L118.908 84.6829C118.962 84.6659 119.007 84.6303 119.034 84.583C119.06 84.5363 119.065 84.4819 119.049 84.4315C119.041 84.4054 119.027 84.381 119.009 84.36C118.99 84.339 118.968 84.3218 118.942 84.3093C118.911 84.2938 118.877 84.2856 118.842 84.2852C118.822 84.2851 118.802 84.2886 118.784 84.2955" fill="#F3C03A"/>
<path d="M118.761 84.2904C118.618 84.3454 118.479 84.411 118.347 84.4867C118.216 84.563 118.09 84.6457 117.968 84.7346C117.922 84.7647 117.889 84.8101 117.876 84.862C117.864 84.9145 117.874 84.9694 117.903 85.0153C117.934 85.0604 117.982 85.0921 118.037 85.1037C118.092 85.1153 118.149 85.1058 118.197 85.0773C118.389 84.9336 118.596 84.809 118.815 84.7053L118.884 84.6778C118.938 84.66 118.984 84.6239 119.012 84.5762C119.036 84.5292 119.041 84.4751 119.026 84.4247C119.012 84.3835 118.984 84.3475 118.948 84.3214C118.912 84.2952 118.868 84.2802 118.822 84.2783C118.801 84.2782 118.781 84.2823 118.761 84.2904" fill="#F3C03A"/>
<path d="M118.698 84.3129C118.444 84.4339 118.202 84.578 117.977 84.7434C117.93 84.7726 117.897 84.8174 117.883 84.8691C117.872 84.9218 117.882 84.9767 117.912 85.0223C117.943 85.0673 117.99 85.0991 118.045 85.1107C118.1 85.1223 118.157 85.1128 118.204 85.0843C118.429 84.9194 118.671 84.7758 118.925 84.6556C118.949 84.6416 118.97 84.6231 118.986 84.6011C119.002 84.5792 119.013 84.5544 119.019 84.5282C119.025 84.5021 119.026 84.4751 119.021 84.4488C119.016 84.4225 119.005 84.3974 118.99 84.3749C118.975 84.3527 118.956 84.3335 118.934 84.3185C118.911 84.3034 118.885 84.2927 118.859 84.2871H118.813C118.773 84.2885 118.733 84.2991 118.698 84.3181" fill="#F3C03A"/>
<path d="M119.553 83.9822C119.36 84.0599 119.171 84.1479 118.987 84.2457C118.941 84.2749 118.908 84.3205 118.896 84.3726C118.884 84.4247 118.893 84.4792 118.923 84.5246C118.953 84.5695 119 84.6013 119.055 84.6132C119.11 84.6251 119.167 84.6162 119.215 84.5883C119.332 84.5229 119.453 84.4661 119.575 84.4161L119.676 84.3748C119.731 84.3576 119.776 84.3213 119.804 84.2732C119.829 84.2265 119.835 84.1721 119.818 84.1217C119.801 84.0698 119.763 84.0265 119.712 84.0012C119.681 83.9851 119.646 83.9768 119.611 83.9771C119.591 83.9768 119.572 83.9803 119.553 83.9874" fill="#F3C03A"/>
<path d="M119.437 84.0338C119.192 84.1161 118.956 84.2222 118.734 84.3506C118.686 84.3796 118.653 84.4254 118.64 84.4779C118.628 84.5304 118.637 84.5855 118.667 84.6313C118.698 84.6756 118.746 84.7067 118.8 84.7183C118.854 84.7298 118.911 84.7209 118.959 84.6933C119.067 84.633 119.177 84.5762 119.289 84.5211C119.377 84.4816 119.467 84.4471 119.559 84.4178C119.613 84.4019 119.658 84.3664 119.685 84.3191C119.711 84.2717 119.717 84.2163 119.702 84.1647C119.688 84.1233 119.661 84.0871 119.624 84.0611C119.588 84.0352 119.543 84.0208 119.498 84.02C119.477 84.0202 119.456 84.0237 119.437 84.0304" fill="#F3C03A"/>
<path d="M119.281 84.0907C119.053 84.1688 118.834 84.2705 118.629 84.3937C118.582 84.4227 118.548 84.4682 118.536 84.5204C118.524 84.5727 118.534 84.6274 118.564 84.6726C118.594 84.7176 118.642 84.7493 118.696 84.7613C118.751 84.7732 118.808 84.7642 118.856 84.7364C118.978 84.6692 119.099 84.6003 119.227 84.5418C119.285 84.5177 119.344 84.497 119.407 84.4781C119.461 84.4614 119.505 84.4258 119.531 84.3786C119.557 84.3314 119.563 84.2763 119.548 84.225C119.534 84.1836 119.507 84.1474 119.471 84.1214C119.434 84.0955 119.39 84.0811 119.344 84.0803C119.323 84.0803 119.303 84.0838 119.283 84.0907" fill="#F3C03A"/>
<path d="M119.233 84.1029C118.978 84.1869 118.735 84.3027 118.512 84.4472C118.465 84.4768 118.432 84.5225 118.419 84.5748C118.407 84.6271 118.416 84.6819 118.445 84.7279C118.476 84.773 118.524 84.8048 118.579 84.8163C118.634 84.8279 118.691 84.8184 118.739 84.7899C118.874 84.7071 119.014 84.6312 119.157 84.5626C119.224 84.5349 119.293 84.5108 119.362 84.4903C119.416 84.4743 119.461 84.4392 119.487 84.3922C119.514 84.3453 119.52 84.2902 119.505 84.2389C119.491 84.1973 119.464 84.161 119.428 84.135C119.391 84.109 119.347 84.0948 119.301 84.0942C119.28 84.0943 119.26 84.0978 119.24 84.1046" fill="#F3C03A"/>
<path d="M119.174 84.1149C118.91 84.2022 118.659 84.322 118.428 84.4713C118.381 84.5003 118.347 84.5458 118.335 84.598C118.323 84.6503 118.333 84.705 118.363 84.7503C118.393 84.7955 118.44 84.8276 118.495 84.8395C118.55 84.8515 118.607 84.8423 118.655 84.814C118.793 84.7279 118.936 84.6497 119.084 84.5798C119.153 84.5492 119.225 84.5239 119.298 84.504C119.352 84.4878 119.396 84.4522 119.423 84.4048C119.449 84.3575 119.455 84.3023 119.439 84.2509C119.426 84.2091 119.399 84.1724 119.362 84.1464C119.325 84.1203 119.281 84.1063 119.235 84.1063C119.215 84.1039 119.194 84.1039 119.174 84.1063V84.1149ZM119.122 84.5522L119.093 84.566L119.122 84.5522Z" fill="#F3C03A"/>
<path d="M119.126 84.1253C118.866 84.2071 118.619 84.323 118.393 84.4696C118.345 84.4989 118.312 84.5448 118.3 84.5973C118.288 84.6498 118.298 84.7047 118.328 84.7503C118.358 84.7953 118.406 84.827 118.46 84.8386C118.515 84.8502 118.572 84.8408 118.62 84.8123C118.754 84.7299 118.892 84.654 119.034 84.585C119.104 84.5573 119.176 84.5332 119.249 84.5127C119.303 84.4968 119.348 84.4613 119.374 84.414C119.401 84.3666 119.407 84.3112 119.391 84.2596C119.378 84.2178 119.35 84.1813 119.313 84.1556C119.276 84.1298 119.231 84.1162 119.186 84.1166C119.166 84.1141 119.146 84.1141 119.126 84.1166" fill="#F3C03A"/>
<path d="M119.22 84.0821C118.908 84.1732 118.614 84.3116 118.348 84.4919C118.3 84.5206 118.267 84.566 118.254 84.6183C118.242 84.6705 118.251 84.7254 118.281 84.7709C118.296 84.7934 118.315 84.813 118.338 84.8285C118.36 84.8439 118.386 84.8549 118.413 84.8608C118.44 84.8668 118.468 84.8675 118.496 84.863C118.523 84.8585 118.55 84.8488 118.573 84.8346C118.73 84.733 118.895 84.6421 119.065 84.5625C119.156 84.5264 119.25 84.4954 119.345 84.4695C119.371 84.4619 119.396 84.4492 119.418 84.4323C119.439 84.4154 119.457 84.3946 119.47 84.371C119.483 84.3475 119.491 84.3217 119.494 84.2951C119.497 84.2686 119.494 84.2418 119.485 84.2164C119.472 84.1746 119.444 84.1382 119.407 84.1124C119.37 84.0867 119.326 84.073 119.28 84.0735C119.26 84.0738 119.24 84.0767 119.22 84.0821" fill="#F3C03A"/>
<path d="M119.027 84.1544C118.766 84.2507 118.518 84.3755 118.287 84.5263C118.24 84.5553 118.206 84.6007 118.194 84.6528C118.181 84.7049 118.191 84.7596 118.22 84.8052C118.25 84.8502 118.298 84.8819 118.353 84.8936C118.407 84.9052 118.465 84.8957 118.512 84.8672C118.669 84.7668 118.834 84.677 119.004 84.5986C119.052 84.578 119.101 84.559 119.15 84.5418C119.204 84.5259 119.249 84.4904 119.275 84.4431C119.302 84.3957 119.308 84.3403 119.292 84.2887C119.278 84.2477 119.251 84.2119 119.214 84.1861C119.178 84.1602 119.134 84.1456 119.089 84.144C119.068 84.1441 119.047 84.1476 119.027 84.1544" fill="#F3C03A"/>
<path d="M119.554 83.9546C119.272 84.031 119.005 84.1471 118.759 84.299C118.712 84.3277 118.678 84.3731 118.665 84.4253C118.653 84.4776 118.663 84.5324 118.692 84.5779C118.723 84.6228 118.77 84.6546 118.825 84.6665C118.879 84.6784 118.937 84.6695 118.984 84.6416C119.101 84.5716 119.221 84.5078 119.345 84.4505C119.451 84.404 119.561 84.3666 119.675 84.3386C119.728 84.3227 119.773 84.2872 119.8 84.2399C119.827 84.1925 119.833 84.1371 119.817 84.0855C119.803 84.0437 119.776 84.0072 119.739 83.9815C119.702 83.9557 119.657 83.9421 119.612 83.9425C119.592 83.9401 119.572 83.9401 119.552 83.9425" fill="#F3C03A"/>
<path d="M119.627 83.915C119.305 83.9876 118.999 84.1166 118.726 84.2955C118.679 84.3245 118.646 84.3699 118.633 84.422C118.621 84.4741 118.63 84.5288 118.659 84.5744C118.69 84.6198 118.738 84.6519 118.793 84.6639C118.848 84.6758 118.905 84.6666 118.953 84.6381C119.085 84.5576 119.222 84.4846 119.362 84.4195C119.488 84.3665 119.62 84.3273 119.755 84.3024C119.783 84.2947 119.808 84.2817 119.83 84.2642C119.851 84.2467 119.869 84.2251 119.881 84.2008C119.907 84.154 119.912 84.0996 119.896 84.0493C119.888 84.0235 119.874 83.9995 119.856 83.9788C119.839 83.9581 119.816 83.9411 119.791 83.9287C119.762 83.9146 119.73 83.9075 119.698 83.9081C119.676 83.9056 119.654 83.9056 119.633 83.9081" fill="#F3C03A"/>
<path d="M119.534 83.9391C119.249 84.0152 118.978 84.1312 118.73 84.2835C118.682 84.3122 118.649 84.3576 118.636 84.4098C118.624 84.4621 118.633 84.5169 118.663 84.5624C118.693 84.6077 118.741 84.6398 118.795 84.6517C118.85 84.6636 118.907 84.6544 118.955 84.6261C119.078 84.5532 119.205 84.4865 119.335 84.4264C119.439 84.3831 119.547 84.3475 119.656 84.3196C119.683 84.312 119.708 84.2993 119.729 84.2824C119.751 84.2655 119.769 84.2447 119.782 84.2211C119.795 84.1976 119.803 84.1718 119.806 84.1453C119.808 84.1187 119.805 84.092 119.797 84.0665C119.784 84.0247 119.757 83.9881 119.72 83.9623C119.683 83.9365 119.639 83.9229 119.593 83.9236C119.573 83.9239 119.553 83.9268 119.534 83.9322V83.9391ZM119.315 84.4333L119.288 84.4453L119.315 84.4333Z" fill="#F3C03A"/>
<path d="M119.97 83.7791C119.689 83.8549 119.418 83.9618 119.162 84.0976C119.116 84.1272 119.083 84.173 119.071 84.2254C119.058 84.2778 119.068 84.3326 119.098 84.3783C119.128 84.4229 119.176 84.4543 119.23 84.4659C119.285 84.4775 119.342 84.4683 119.39 84.4403C119.465 84.4024 119.541 84.3645 119.618 84.3283C119.772 84.2622 119.931 84.2087 120.094 84.1682C120.147 84.1516 120.192 84.1159 120.218 84.0687C120.244 84.0215 120.25 83.9665 120.235 83.9151C120.221 83.8732 120.193 83.8367 120.156 83.8109C120.119 83.7852 120.074 83.7716 120.028 83.7722C120.008 83.7706 119.989 83.7706 119.97 83.7722V83.7791ZM119.635 84.3146H119.622H119.635Z" fill="#F3C03A"/>
<path d="M119.959 83.772C119.677 83.8457 119.404 83.9503 119.146 84.0837C119.099 84.113 119.066 84.1588 119.054 84.2113C119.042 84.2638 119.052 84.3188 119.082 84.3643C119.112 84.409 119.16 84.4404 119.214 84.452C119.269 84.4636 119.326 84.4544 119.374 84.4263C119.444 84.3902 119.514 84.3575 119.586 84.3247C119.747 84.2568 119.913 84.1993 120.082 84.1526C120.136 84.1366 120.181 84.1012 120.207 84.0538C120.234 84.0065 120.24 83.951 120.224 83.8994C120.211 83.8578 120.183 83.8216 120.146 83.7961C120.109 83.7707 120.065 83.7574 120.019 83.7582C119.999 83.7557 119.979 83.7557 119.959 83.7582" fill="#F3C03A"/>
<path d="M119.914 83.7789C119.676 83.8552 119.445 83.9514 119.224 84.0664C119.176 84.0951 119.143 84.1405 119.13 84.1928C119.118 84.245 119.127 84.2999 119.157 84.3454C119.188 84.3899 119.235 84.4214 119.29 84.4333C119.344 84.4452 119.401 84.4365 119.449 84.4091C119.532 84.366 119.617 84.3264 119.703 84.2885C119.812 84.2417 119.923 84.2009 120.037 84.1663C120.09 84.1504 120.135 84.1151 120.161 84.0681C120.187 84.0211 120.193 83.966 120.177 83.9149C120.164 83.8734 120.137 83.837 120.1 83.811C120.063 83.7851 120.019 83.7708 119.974 83.7703C119.954 83.7706 119.934 83.7735 119.914 83.7789" fill="#F3C03A"/>
<path d="M116.489 86.1828C116.066 86.747 115.717 87.3595 115.453 88.0062C115.185 88.6578 114.989 89.3341 114.867 90.0243C114.755 90.625 114.7 91.2341 114.701 91.8443C114.708 92.3723 114.763 92.8988 114.863 93.418C114.963 93.9345 115.116 94.4404 115.319 94.9281C115.517 95.4053 115.778 95.8561 116.096 96.2695C116.407 96.6714 116.789 97.0181 117.225 97.294C117.664 97.5685 118.159 97.7515 118.678 97.8312C118.905 97.8667 119.134 97.8845 119.364 97.8846C119.426 97.8846 119.486 97.8846 119.545 97.8846C119.875 97.8671 120.204 97.8239 120.527 97.7554C121.269 97.6037 121.991 97.3726 122.679 97.0667C123.205 96.8387 123.715 96.5781 124.206 96.2867C124.386 96.1903 124.566 96.0852 124.729 95.975C124.821 95.9165 124.909 95.8545 124.997 95.7925L125.078 95.7391C125.421 95.5274 125.752 95.2974 126.068 95.0504C126.256 94.9083 126.437 94.7572 126.609 94.5975L126.636 94.5751C126.844 94.4097 127.042 94.2332 127.229 94.0465C127.022 94.2187 126.812 94.3702 126.6 94.5269C126.2 94.8179 125.785 95.0969 125.354 95.3517C124.948 95.5962 124.527 95.817 124.092 96.0129C123.313 96.3785 122.472 96.6116 121.608 96.7017C121.213 96.7393 120.815 96.7295 120.422 96.6724C120.034 96.6149 119.657 96.5047 119.301 96.3452C118.925 96.1754 118.577 95.9551 118.267 95.6909C117.913 95.3902 117.6 95.0476 117.336 94.6716C116.994 94.185 116.729 93.653 116.549 93.0926C116.359 92.5052 116.238 91.8994 116.188 91.2864C116.136 90.6424 116.145 89.9953 116.214 89.3527C116.28 88.7131 116.4 88.0796 116.574 87.4587C116.798 86.6347 117.122 85.8385 117.538 85.0859C117.147 85.4232 116.793 85.7983 116.482 86.2052" fill="#E6B029"/>
<path d="M128.275 86.644C128.241 86.6706 128.214 86.7033 128.193 86.7403C128.173 86.7773 128.161 86.8177 128.158 86.8592C128.154 86.9007 128.158 86.9426 128.171 86.9824C128.184 87.0222 128.205 87.0591 128.233 87.0911C128.261 87.1231 128.296 87.1495 128.334 87.1688C128.373 87.1881 128.415 87.1999 128.459 87.2036C128.546 87.2098 128.633 87.1839 128.702 87.1313C128.736 87.1047 128.763 87.072 128.783 87.035C128.804 86.9981 128.816 86.9576 128.819 86.9161C128.823 86.8746 128.818 86.8327 128.805 86.7929C128.793 86.7532 128.771 86.7162 128.743 86.6842C128.715 86.6522 128.681 86.6258 128.643 86.6065C128.604 86.5872 128.562 86.5754 128.518 86.5717C128.43 86.5655 128.343 86.5914 128.275 86.644" fill="#E6B029"/>
<path d="M127.179 86.1397C127.146 86.1681 127.124 86.2073 127.12 86.2499C127.117 86.2922 127.131 86.3341 127.16 86.3663C127.189 86.3985 127.23 86.4185 127.275 86.422C127.319 86.4248 127.362 86.4119 127.397 86.3859C127.414 86.3722 127.428 86.3554 127.438 86.3365C127.449 86.3176 127.455 86.2969 127.457 86.2757C127.46 86.2336 127.445 86.192 127.417 86.1598C127.388 86.1276 127.347 86.1074 127.303 86.1035C127.259 86.1003 127.214 86.1132 127.179 86.1397" fill="#E6B029"/>
<path d="M128.089 85.9693C128.069 85.9878 128.056 86.013 128.053 86.0399C128.051 86.0671 128.059 86.0941 128.078 86.115C128.096 86.136 128.122 86.1492 128.15 86.1518C128.179 86.1523 128.207 86.1439 128.23 86.1277C128.25 86.1099 128.263 86.0853 128.266 86.0589C128.267 86.0455 128.266 86.032 128.262 86.0191C128.258 86.0062 128.251 85.9943 128.243 85.9839C128.234 85.9734 128.223 85.9648 128.21 85.9585C128.198 85.9522 128.184 85.9482 128.17 85.9469C128.141 85.9455 128.113 85.9534 128.089 85.9693" fill="#E6B029"/>
<path d="M127.26 85.103C127.248 85.1126 127.238 85.1244 127.231 85.1377C127.223 85.151 127.219 85.1656 127.218 85.1805C127.216 85.2104 127.226 85.24 127.246 85.2629C127.266 85.2858 127.295 85.3001 127.326 85.3028C127.357 85.3045 127.388 85.2953 127.413 85.2769C127.425 85.2674 127.435 85.2556 127.442 85.2423C127.449 85.2289 127.453 85.2144 127.454 85.1995C127.457 85.1696 127.447 85.14 127.427 85.1171C127.406 85.0942 127.377 85.0798 127.346 85.0772C127.315 85.0751 127.284 85.0843 127.26 85.103" fill="#E6B029"/>
<path d="M125.792 84.3059C125.778 84.3165 125.767 84.3298 125.759 84.3449C125.75 84.36 125.745 84.3766 125.744 84.3937C125.74 84.4281 125.751 84.4625 125.774 84.4893C125.797 84.5161 125.83 84.5331 125.866 84.5366C125.902 84.5388 125.938 84.5277 125.966 84.5056C125.979 84.4948 125.991 84.4815 125.999 84.4664C126.008 84.4513 126.013 84.4348 126.014 84.4178C126.016 84.4008 126.014 84.3837 126.009 84.3674C126.004 84.3511 125.995 84.3359 125.984 84.3228C125.972 84.3097 125.958 84.2988 125.943 84.2909C125.927 84.283 125.909 84.2781 125.892 84.2766C125.856 84.2737 125.82 84.2842 125.792 84.3059" fill="#E6B029"/>
<path d="M120.902 84.6502C120.849 84.6942 120.815 84.7556 120.807 84.8224C120.804 84.8562 120.807 84.8902 120.818 84.9227C120.828 84.9551 120.846 84.9852 120.868 85.0112C120.891 85.0373 120.919 85.0588 120.951 85.0746C120.982 85.0903 121.017 85.1 121.052 85.103C121.123 85.1075 121.194 85.0867 121.25 85.0445C121.304 85.0009 121.338 84.9392 121.346 84.8723C121.349 84.8385 121.345 84.8044 121.335 84.772C121.324 84.7396 121.307 84.7095 121.284 84.6834C121.261 84.6573 121.233 84.6358 121.202 84.6201C121.17 84.6043 121.136 84.5947 121.101 84.5916C121.029 84.5873 120.959 84.6081 120.902 84.6502" fill="#E6B029"/>
<path d="M119.485 84.43C119.47 84.4418 119.457 84.4564 119.448 84.473C119.439 84.4895 119.433 84.5077 119.431 84.5264C119.428 84.5642 119.441 84.6017 119.466 84.6306C119.492 84.6596 119.529 84.6778 119.568 84.6813C119.607 84.6835 119.646 84.6719 119.676 84.6486C119.691 84.6368 119.704 84.6222 119.713 84.6056C119.723 84.5891 119.728 84.5709 119.73 84.5522C119.732 84.5334 119.73 84.5145 119.724 84.4965C119.718 84.4786 119.708 84.4619 119.696 84.4475C119.683 84.4331 119.667 84.4212 119.65 84.4126C119.632 84.404 119.613 84.3988 119.593 84.3972C119.554 84.395 119.516 84.4067 119.485 84.43" fill="#E6B029"/>
<path d="M121.506 84.0442C121.485 84.0613 121.471 84.0852 121.468 84.1114C121.466 84.1378 121.475 84.1639 121.493 84.1841C121.511 84.2044 121.536 84.2172 121.564 84.2198C121.591 84.2217 121.618 84.213 121.639 84.1957C121.65 84.1875 121.658 84.1773 121.665 84.1657C121.671 84.1542 121.674 84.1415 121.675 84.1286C121.677 84.1155 121.676 84.1023 121.672 84.0898C121.668 84.0772 121.661 84.0655 121.652 84.0554C121.644 84.0453 121.633 84.037 121.621 84.0309C121.609 84.0248 121.595 84.0212 121.582 84.0201C121.554 84.0191 121.527 84.0277 121.506 84.0442" fill="#E6B029"/>
<path d="M122.495 83.6861C122.46 83.7151 122.438 83.7558 122.434 83.7998C122.431 83.8435 122.446 83.8866 122.476 83.9202C122.505 83.9538 122.547 83.9754 122.593 83.9806C122.639 83.9836 122.685 83.9695 122.721 83.941C122.738 83.9274 122.753 83.9104 122.763 83.8912C122.774 83.8719 122.78 83.8507 122.782 83.829C122.784 83.7853 122.769 83.7422 122.74 83.7086C122.71 83.675 122.669 83.6534 122.623 83.6483C122.577 83.6457 122.532 83.6592 122.495 83.6861" fill="#E6B029"/>
<path d="M122.353 84.602C122.326 84.6249 122.308 84.6569 122.304 84.6915C122.303 84.7087 122.304 84.7261 122.31 84.7426C122.315 84.7591 122.324 84.7744 122.335 84.7877C122.347 84.801 122.361 84.812 122.377 84.82C122.393 84.828 122.411 84.8329 122.429 84.8344C122.465 84.8362 122.501 84.8259 122.53 84.8052C122.557 84.7815 122.574 84.749 122.578 84.7139C122.581 84.6794 122.57 84.6453 122.547 84.6188C122.523 84.5923 122.49 84.5758 122.454 84.5727C122.418 84.5699 122.382 84.5804 122.353 84.602" fill="#E6B029"/>
<path d="M122.395 95.7649C122.383 95.7745 122.373 95.7864 122.366 95.7997C122.359 95.813 122.354 95.8275 122.353 95.8424C122.352 95.857 122.353 95.8717 122.358 95.8857C122.362 95.8998 122.37 95.9128 122.38 95.924C122.39 95.9352 122.402 95.9445 122.415 95.9511C122.429 95.9578 122.444 95.9618 122.459 95.9629C122.49 95.9649 122.52 95.9556 122.544 95.9371C122.556 95.9278 122.566 95.9163 122.574 95.9033C122.581 95.8903 122.586 95.876 122.587 95.8613C122.59 95.8314 122.58 95.8018 122.56 95.7789C122.539 95.756 122.511 95.7417 122.479 95.739C122.449 95.737 122.418 95.7463 122.395 95.7649" fill="#E6B029"/>
<path d="M121.573 95.4739C121.557 95.4871 121.543 95.5031 121.534 95.5211C121.524 95.5392 121.519 95.5588 121.517 95.579C121.514 95.5995 121.516 95.6204 121.522 95.6403C121.528 95.6602 121.538 95.6788 121.551 95.6949C121.565 95.711 121.582 95.7243 121.601 95.7339C121.62 95.7436 121.641 95.7495 121.663 95.7512C121.706 95.753 121.748 95.7402 121.782 95.715C121.798 95.7022 121.812 95.6862 121.821 95.6681C121.831 95.65 121.837 95.6302 121.838 95.61C121.841 95.5894 121.839 95.5684 121.834 95.5484C121.828 95.5284 121.818 95.5097 121.804 95.4936C121.79 95.4774 121.773 95.4641 121.754 95.4545C121.735 95.4449 121.714 95.4392 121.692 95.4378C121.649 95.4354 121.607 95.4476 121.573 95.4722" fill="#E6B029"/>
<path d="M122.943 95.002C122.927 95.0146 122.914 95.0301 122.905 95.0476C122.895 95.065 122.89 95.0841 122.888 95.1036C122.886 95.123 122.889 95.1425 122.895 95.1611C122.901 95.1797 122.91 95.197 122.924 95.2119C122.937 95.2268 122.953 95.239 122.971 95.248C122.989 95.2569 123.009 95.2622 123.029 95.2637C123.07 95.2661 123.11 95.2538 123.143 95.2293C123.174 95.2036 123.193 95.1671 123.197 95.1277C123.199 95.1083 123.197 95.0888 123.191 95.0702C123.185 95.0516 123.175 95.0344 123.162 95.0194C123.148 95.0045 123.132 94.9923 123.114 94.9834C123.096 94.9745 123.076 94.9691 123.056 94.9676C123.015 94.9652 122.975 94.9775 122.943 95.002" fill="#E6B029"/>
<path d="M124.25 95.2209C124.233 95.2343 124.219 95.2508 124.21 95.2695C124.2 95.2881 124.194 95.3085 124.192 95.3293C124.19 95.3501 124.192 95.371 124.199 95.3909C124.205 95.4109 124.215 95.4294 124.229 95.4454C124.243 95.4615 124.26 95.4747 124.28 95.4843C124.299 95.494 124.32 95.4998 124.342 95.5015C124.385 95.5038 124.428 95.491 124.463 95.4654C124.479 95.4523 124.493 95.436 124.503 95.4177C124.513 95.3993 124.519 95.3792 124.52 95.3586C124.523 95.3379 124.52 95.3169 124.514 95.297C124.508 95.2771 124.497 95.2585 124.483 95.2425C124.469 95.2265 124.452 95.2133 124.433 95.2036C124.414 95.194 124.392 95.1881 124.371 95.1864C124.327 95.1836 124.285 95.1959 124.25 95.2209" fill="#E6B029"/>
<path d="M119.626 94.6575C120.06 95.1379 120.642 95.3376 120.925 95.1052C121.208 94.8727 121.084 94.2925 120.65 93.8121C120.215 93.3317 119.633 93.1233 119.35 93.3644C119.067 93.6054 119.191 94.1771 119.626 94.6575Z" fill="#212226"/>
<path d="M126.32 89.0944C126.755 89.5748 127.337 89.7832 127.62 89.5421C127.903 89.301 127.778 88.7294 127.344 88.249C126.91 87.7686 126.327 87.5688 126.044 87.8013C125.761 88.0337 125.886 88.614 126.32 89.0944Z" fill="#212226"/>
<path d="M124.318 90.7474C124.299 90.7485 124.281 90.7531 124.264 90.7611C124.247 90.7691 124.231 90.7802 124.219 90.7939C124.195 90.8208 124.183 90.8557 124.185 90.8911C124.187 90.9264 124.204 90.9595 124.232 90.9833L124.26 91.004C124.288 91.0267 124.315 91.0509 124.34 91.0763C124.383 91.1248 124.42 91.178 124.45 91.2347C124.475 91.2902 124.495 91.3479 124.509 91.4069C124.519 91.4667 124.522 91.5273 124.518 91.5877C124.51 91.6461 124.497 91.7037 124.479 91.7599C124.459 91.8094 124.435 91.8573 124.406 91.9028C124.367 91.9561 124.322 92.0056 124.273 92.0509C124.222 92.0893 124.168 92.1233 124.111 92.1525C124.06 92.1735 124.008 92.1902 123.954 92.2024C123.887 92.2144 123.82 92.2196 123.752 92.2179C123.691 92.2119 123.631 92.201 123.572 92.1852C123.509 92.1625 123.448 92.133 123.392 92.0974C123.342 92.0631 123.296 92.0245 123.255 91.982C123.219 91.9391 123.187 91.8936 123.159 91.846C123.149 91.831 123.136 91.8182 123.12 91.8082C123.105 91.7982 123.087 91.7912 123.069 91.7877C123.051 91.7842 123.032 91.7842 123.014 91.7877C122.995 91.7912 122.978 91.7981 122.963 91.8081C122.932 91.828 122.911 91.8586 122.903 91.8934C122.896 91.9281 122.903 91.9642 122.923 91.9941C122.979 92.0876 123.049 92.1724 123.132 92.2454C123.196 92.2994 123.266 92.3457 123.341 92.3832C123.503 92.4617 123.683 92.4973 123.864 92.4865C123.952 92.481 124.04 92.4642 124.123 92.4366C124.219 92.4049 124.309 92.3602 124.39 92.304C124.471 92.2482 124.542 92.1808 124.601 92.1043C124.671 92.0128 124.725 91.911 124.76 91.8029C124.803 91.6639 124.812 91.5172 124.787 91.3742C124.777 91.3265 124.765 91.2794 124.751 91.233C124.734 91.1836 124.712 91.1358 124.686 91.0901C124.628 90.9785 124.547 90.8798 124.446 90.8008L124.426 90.7853H124.417L124.394 90.7664C124.367 90.7462 124.334 90.7348 124.3 90.7336V90.7336L124.318 90.7474ZM124.3 92.0354H124.289H124.3ZM123.399 92.106L123.42 92.1215L123.399 92.106Z" fill="#212226"/>
<path d="M117.56 90.0191C117.25 90.0191 116.819 90.3824 116.516 90.9041C116.35 91.1746 116.244 91.4746 116.203 91.7857C116.177 92.0543 116.241 92.2455 116.383 92.3195C116.429 92.3441 116.48 92.3566 116.533 92.3557C116.843 92.3557 117.272 91.9906 117.576 91.4706C117.838 91.0229 117.953 90.5511 117.868 90.2653C117.847 90.177 117.79 90.1002 117.71 90.0518C117.664 90.0286 117.612 90.0167 117.56 90.0174" fill="#A17C1B"/>
<path d="M124.709 84.7397C124.387 84.7498 124.07 84.82 123.777 84.9464C123.285 85.1478 122.894 85.4543 122.778 85.7298C122.76 85.7711 122.75 85.8157 122.75 85.8607C122.75 85.9057 122.76 85.9502 122.778 85.9915C122.843 86.1379 123.041 86.2188 123.333 86.2188C123.655 86.2094 123.972 86.1392 124.265 86.0122C124.57 85.8949 124.847 85.7191 125.078 85.4956C125.269 85.2976 125.34 85.1099 125.275 84.967C125.21 84.8241 125.012 84.7397 124.718 84.7397" fill="#A17C1B"/>
<path d="M119.864 96.2074C119.992 96.476 120.405 96.5603 120.782 96.395C121.158 96.2297 121.366 95.8785 121.238 95.6116C121.11 95.3447 120.697 95.2672 120.32 95.4256C119.943 95.584 119.736 95.9422 119.864 96.2074Z" fill="#F18984"/>
<path d="M128.13 89.8763C128.381 90.0485 128.781 89.9211 129.031 89.5973C129.282 89.2736 129.264 88.8724 129.013 88.702C128.763 88.5315 128.363 88.6555 128.121 88.9792C127.879 89.3029 127.888 89.7058 128.139 89.8763" fill="#F18984"/>
</g>
</g>
<defs>
<clipPath id="clip0_9556_8995">
<rect width="420" height="281.847" fill="white" transform="translate(-24 -85.1909)"/>
</clipPath>
<clipPath id="clip1_9556_8995">
<rect width="115" height="29.6178" fill="white" transform="translate(109 77)"/>
</clipPath>
</defs>
</svg>
