<svg width="160" height="160" viewBox="0 0 160 160" fill="none" xmlns="http://www.w3.org/2000/svg">
<path d="M80.1196 23.6001C42.3622 23.6001 11.7637 54.1148 11.7637 91.7687C11.7637 105.259 15.6902 117.818 22.466 128.396L132.338 135.75C142.394 123.883 148.475 108.53 148.475 91.7687C148.452 54.1148 117.853 23.6001 80.1196 23.6001Z" fill="#FFE9DD"/>
<path d="M87.3738 50.9629L68.2198 13.7627L64.6045 15.2908L76.0011 54.1147L87.3738 50.9629Z" fill="#FFAB2D"/>
<path d="M65.4186 17.8935C68.9888 17.8935 71.8831 15.0072 71.8831 11.4468C71.8831 7.88632 68.9888 5 65.4186 5C61.8484 5 58.9541 7.88632 58.9541 11.4468C58.9541 15.0072 61.8484 17.8935 65.4186 17.8935Z" fill="#FFD66C"/>
<path d="M93.7183 71.4732L108.587 33.2701L105.091 31.6465L83.9258 65.2652L93.7183 71.4732Z" fill="#FFA425"/>
<path d="M108.587 36.2549C112.091 36.2549 114.932 33.422 114.932 29.9275C114.932 26.433 112.091 23.6001 108.587 23.6001C105.083 23.6001 102.242 26.433 102.242 29.9275C102.242 33.422 105.083 36.2549 108.587 36.2549Z" fill="#FFD66C"/>
<path d="M119.84 69.6347C119.84 69.6347 86.1763 25.0565 55.3863 66.8411C24.5962 108.626 119.84 69.6347 119.84 69.6347Z" fill="#FE8072"/>
<path d="M132.626 137.23C102.841 150.386 71.1412 148.739 53.5673 146.256C44.9959 145.038 39.8004 143.629 39.8004 143.629L22.1069 128.3C19.6647 111.658 25.0518 83.2206 25.0518 83.2206C33.8627 70.1599 46.0494 62.6626 46.0494 62.6626C80.359 59.4392 107.582 65.1458 121.804 69.2526C128.795 71.2583 132.626 72.9058 132.626 72.9058C146.44 107.862 132.626 137.23 132.626 137.23Z" fill="#ABDFF5"/>
<path d="M37.1907 95.3501C35.5147 107.551 35.5147 119.609 37.885 132.885L39.8004 143.605L22.1069 128.3C19.6647 111.658 25.0518 83.2206 25.0518 83.2206C33.8627 70.16 46.0494 62.6626 46.0494 62.6626C41.9313 74.8876 38.9145 82.8386 37.1907 95.3501Z" fill="#5DCAC7"/>
<path d="M129.101 127.219C124.456 130.562 119.045 132.974 113.275 134.645C113.251 134.645 113.251 134.645 113.227 134.669C104.033 137.343 93.8335 138.203 84.1847 138.107C73.0035 138.012 60.0985 136.436 52.5327 134.74C39.484 111.007 53.6101 75.072 53.6101 75.072C72.8599 68.6492 95.9405 70.6309 115.597 75.4541C119.38 76.3853 124.887 77.9134 128.215 79.155C136.355 98.9728 129.101 127.219 129.101 127.219Z" fill="white"/>
<path opacity="0.35" d="M129.465 126.844C124.82 130.187 119.409 132.598 113.639 134.27C113.71 133.745 113.782 133.219 113.854 132.694C113.782 133.219 113.71 133.745 113.639 134.27C113.615 134.27 113.615 134.27 113.591 134.294C107.509 136.061 101.021 137.016 94.7 137.445C94.7 137.445 94.7 137.422 94.7 137.326C94.7 137.374 94.676 137.398 94.676 137.445C91.2283 137.684 87.8285 137.756 84.5244 137.732C88.5707 136.108 92.21 134.246 95.4661 132.24C105.211 126.199 111.627 118.583 115.841 110.847C115.841 110.87 115.841 110.894 115.841 110.942C115.841 110.918 115.841 110.894 115.841 110.847C123.072 97.5471 123.79 83.8895 123.599 77.1562C126.759 78.1113 128.579 78.7799 128.579 78.7799C136.719 98.5977 129.465 126.844 129.465 126.844ZM94.9155 136.108C95.107 134.843 95.2986 133.601 95.4661 132.384C95.2028 134.127 95.0352 135.32 94.9155 136.108Z" fill="#E2F4FF"/>
<path opacity="0.35" d="M59.8641 79.6392C54.8362 87.4709 53.663 111.467 56.7276 118.893C61.7556 121.901 57.6853 96.0904 62.5935 87.3515C67.5496 78.517 99.9199 81.0241 90.5345 77.3471C84.2855 74.9116 62.5696 75.413 59.8641 79.6392Z" fill="#E2F4FF"/>
<path opacity="0.5" d="M70.8267 11.6148C70.308 12.139 69.5278 10.7685 68.1052 9.34503C66.6826 7.92161 65.1358 6.98633 65.6464 6.48458C66.1651 5.96036 67.9842 6.56207 69.4068 7.98549C70.8149 9.37835 71.3148 11.105 70.8267 11.6148Z" fill="white"/>
<path opacity="0.5" d="M113.255 29.4979C112.801 30.071 111.867 28.8055 110.287 27.5639C108.706 26.3223 107.054 25.5821 107.509 25.0091C107.964 24.436 109.832 24.7942 111.412 26.0358C112.992 27.2774 113.71 28.9249 113.255 29.4979Z" fill="white"/>
<path d="M72.2934 113.071C74.1975 113.071 75.7411 111.532 75.7411 109.633C75.7411 107.734 74.1975 106.194 72.2934 106.194C70.3893 106.194 68.8457 107.734 68.8457 109.633C68.8457 111.532 70.3893 113.071 72.2934 113.071Z" fill="#F04639"/>
<path d="M113.283 113.071C115.187 113.071 116.73 111.532 116.73 109.633C116.73 107.734 115.187 106.194 113.283 106.194C111.379 106.194 109.835 107.734 109.835 109.633C109.835 111.532 111.379 113.071 113.283 113.071Z" fill="#F04639"/>
<path d="M87.8081 100.846C87.6405 108.081 81.3915 114.456 73.8975 114.456C62.9557 114.456 58.7658 108.224 59.6038 101.037C60.4896 93.3963 66.6668 87.9762 74.2326 88.0001C81.7267 88.0478 87.9996 92.6561 87.8081 100.846Z" stroke="#258BCF" stroke-width="3" stroke-miterlimit="10"/>
<path d="M97.3607 100.846C97.5283 108.081 103.777 114.456 111.271 114.456C122.213 114.456 126.403 108.224 125.565 101.037C124.679 93.3963 118.502 87.9762 110.936 88.0001C103.442 88.0478 97.1692 92.6561 97.3607 100.846Z" stroke="#258BCF" stroke-width="3" stroke-miterlimit="10"/>
<path d="M87.8076 102.183C89.2921 99.7713 95.3974 99.7474 97.3607 102.183" stroke="#278BCD" stroke-width="3" stroke-miterlimit="10"/>
<path d="M76.4352 108.797C78.855 108.797 80.8167 106.841 80.8167 104.428C80.8167 102.014 78.855 100.058 76.4352 100.058C74.0154 100.058 72.0537 102.014 72.0537 104.428C72.0537 106.841 74.0154 108.797 76.4352 108.797Z" fill="black"/>
<path d="M108.279 108.797C110.699 108.797 112.66 106.841 112.66 104.428C112.66 102.014 110.699 100.058 108.279 100.058C105.859 100.058 103.897 102.014 103.897 104.428C103.897 106.841 105.859 108.797 108.279 108.797Z" fill="black"/>
<path d="M77.5131 105.669C78.6239 105.669 79.5243 104.771 79.5243 103.663C79.5243 102.556 78.6239 101.658 77.5131 101.658C76.4024 101.658 75.502 102.556 75.502 103.663C75.502 104.771 76.4024 105.669 77.5131 105.669Z" fill="white"/>
<path d="M107.441 105.669C108.552 105.669 109.452 104.771 109.452 103.663C109.452 102.556 108.552 101.658 107.441 101.658C106.33 101.658 105.43 102.556 105.43 103.663C105.43 104.771 106.33 105.669 107.441 105.669Z" fill="white"/>
<path d="M88.5746 113.978C86.5874 114.169 85.1748 115.029 85.1748 115.936C85.1748 116.843 87.6169 121.475 92.8843 121.475C98.1038 121.475 100.522 116.7 100.522 115.936C100.522 114.79 99.0854 114.05 97.2179 113.978C97.0024 115.22 96.1644 116.509 92.8843 116.509C89.6521 116.485 88.7422 115.435 88.5746 113.978Z" fill="black"/>
<path d="M97.8157 119.756C94.5595 117.464 91.2315 117.464 87.6162 119.589C88.8612 120.64 90.609 121.499 92.8596 121.499C94.9666 121.475 96.6186 120.711 97.8157 119.756Z" fill="#F04639"/>
<path d="M24.2407 58.9847C24.2407 59.3834 24.4423 59.9814 24.6439 60.1808L28.071 63.1711C28.8774 63.9685 28.4742 65.364 27.4662 65.5634L23.0312 66.3608C22.628 66.3608 22.2248 66.7595 22.0232 67.1582L20.2088 71.1453C19.8057 72.1421 18.1929 72.3414 17.5881 71.3447L15.3706 67.5569C15.3706 67.5569 15.3706 67.5569 15.169 67.3576C14.9674 66.9589 14.5642 66.7595 14.161 66.7595L9.72591 66.3608C8.51634 66.1614 8.11315 64.766 8.91953 63.9685L11.9434 60.7789C12.3466 60.3802 12.3466 59.9814 12.3466 59.5827L11.3387 55.1969C11.1371 54.5989 11.3387 54.2002 11.7419 53.8014C12.145 53.4027 12.7498 53.2034 13.3546 53.6021L17.3865 55.3963C17.7897 55.5956 18.3945 55.5956 18.7977 55.3963L22.628 53.2034C23.6359 52.6053 24.8455 53.4027 24.8455 54.5989L24.2407 58.9847Z" fill="#FFAB2D"/>
<path d="M140.718 53.4304C140.718 53.6779 140.718 53.8017 140.96 53.9255L142.289 55.1632C142.652 55.5345 142.531 56.1533 142.047 56.1533L140.234 56.5246C139.993 56.5246 139.872 56.6484 139.872 56.8959L139.147 58.6287C138.905 59.1238 138.301 59.1238 138.059 58.6287L137.213 57.0197C137.092 56.8959 136.971 56.7722 136.85 56.7722L135.037 56.6484C134.554 56.6484 134.312 56.0295 134.675 55.6582L135.883 54.2968C136.004 54.173 136.125 53.9255 136.004 53.8017L135.642 51.9452C135.642 51.6976 135.642 51.5739 135.762 51.4501C135.883 51.3263 136.125 51.2026 136.367 51.3263L138.059 52.0689C138.18 52.1927 138.421 52.1927 138.542 52.0689L140.114 51.0788C140.476 50.8313 141.081 51.2026 140.96 51.6976L140.718 53.4304Z" fill="#FFA425"/>
<path d="M35.2724 41.038C35.2724 41.3474 35.2724 41.5021 35.5746 41.6568L37.2365 43.204C37.6897 43.6681 37.5386 44.4416 36.9343 44.4416L34.668 44.9058C34.3659 44.9058 34.2148 45.0605 34.2148 45.3699L33.3083 47.5359C33.0061 48.1547 32.2507 48.1547 31.9486 47.5359L30.891 45.5246C30.7399 45.3699 30.5888 45.2152 30.4377 45.2152L28.1715 45.0605C27.5672 45.0605 27.265 44.2869 27.7182 43.8228L29.2291 42.121C29.3801 41.9663 29.5312 41.6568 29.3801 41.5021L28.9269 39.1815C28.9269 38.872 28.9269 38.7173 29.078 38.5626C29.2291 38.4079 29.5312 38.2532 29.8334 38.4079L31.9486 39.3362C32.0996 39.4909 32.4018 39.4909 32.5529 39.3362L34.517 38.0985C34.9702 37.7891 35.7256 38.2532 35.5746 38.872L35.2724 41.038Z" fill="#FFD66C"/>
</svg>
