<svg width="173" height="158" viewBox="0 0 173 158" fill="none" xmlns="http://www.w3.org/2000/svg">
<path d="M130.25 156.015C131.257 157.626 133.384 158.122 134.953 157.051C149.346 147.237 160.443 133.263 166.734 116.96C173.438 99.5851 174.322 80.5036 169.251 62.5839C164.18 44.6642 153.429 28.8748 138.615 17.5893C123.801 6.30378 105.723 0.132108 87.1004 0.0020957C68.4775 -0.127916 50.3157 5.79075 35.3452 16.8683C20.3748 27.9459 9.40471 43.5837 4.08425 61.4308C-1.2362 79.2779 -0.619532 98.3699 5.84156 115.836C11.9042 132.226 22.8052 146.353 37.0595 156.368C38.614 157.46 40.7474 156.994 41.7766 155.397C42.8058 153.8 42.3405 151.677 40.7897 150.58C27.786 141.376 17.8399 128.441 12.2942 113.45C6.35003 97.3803 5.78269 79.8157 10.6775 63.3963C15.5723 46.977 25.6648 32.5902 39.4376 22.3988C53.2104 12.2075 69.9193 6.76231 87.0523 6.88193C104.185 7.00154 120.817 12.6795 134.446 23.0621C148.075 33.4448 157.966 47.9711 162.631 64.4572C167.296 80.9433 166.483 98.4982 160.315 114.483C154.561 129.396 144.435 142.19 131.304 151.212C129.738 152.288 129.243 154.404 130.25 156.015Z" fill="#D7F5F8"/>
</svg>
