<svg width="24" height="24" viewBox="0 0 24 24" fill="none" xmlns="http://www.w3.org/2000/svg">
<rect y="-0.00012207" width="24" height="24" rx="12" fill="#00CCCC" fill-opacity="0.2"/>
<path d="M12 3.99988C10.4178 3.99988 8.87103 4.46907 7.55544 5.34812C6.23985 6.22717 5.21447 7.4766 4.60897 8.93841C4.00347 10.4002 3.84504 12.0088 4.15372 13.5606C4.4624 15.1124 5.22433 16.5379 6.34315 17.6567C7.46197 18.7755 8.88743 19.5375 10.4393 19.8462C11.9911 20.1548 13.5997 19.9964 15.0615 19.3909C16.5233 18.7854 17.7727 17.76 18.6518 16.4444C19.5308 15.1288 20 13.5821 20 11.9999C20 9.87814 19.1571 7.84331 17.6569 6.34302C16.1566 4.84273 14.1217 3.99988 12 3.99988ZM12.3429 8.91401C13.0701 8.91486 13.7673 9.20412 14.2815 9.71833C14.7958 10.2325 15.085 10.9297 15.0859 11.6569H14.4C14.3994 11.1115 14.1825 10.5887 13.7969 10.203C13.4112 9.81735 12.8883 9.60044 12.3429 9.59988V8.91401ZM14.5643 16.7999C14.5435 16.7999 12.4843 16.7647 9.83627 14.1636C7.2352 11.5167 7.2 9.45641 7.2 9.43561C7.2 9.17908 8.8 7.19988 9.1536 7.19988C9.27627 7.19988 9.37174 7.28308 9.47627 7.40788C9.728 7.70761 10.8411 9.46441 10.7899 9.75721C10.7653 9.89481 10.6485 9.99934 10.3136 10.2804C10.1486 10.4102 9.99412 10.5528 9.85174 10.7071C9.91993 10.9893 10.0213 11.2625 10.1536 11.5209C10.6467 12.5348 11.4659 13.3537 12.48 13.8463C12.7384 13.9786 13.0116 14.08 13.2939 14.1481C13.4481 14.0058 13.5908 13.8513 13.7205 13.6863C14.0016 13.3513 14.1061 13.2345 14.2437 13.21C14.5365 13.1567 16.2933 14.2719 16.5931 14.5236C16.7179 14.6303 16.8011 14.7236 16.8011 14.8463C16.8 15.1999 14.8208 16.7999 14.5643 16.7999ZM16.1141 11.6569C16.113 10.6571 15.7153 9.69854 15.0083 8.99155C14.3013 8.28456 13.3428 7.88687 12.3429 7.88574V7.19988C13.5246 7.20129 14.6574 7.67132 15.493 8.50688C16.3286 9.34244 16.7986 10.4753 16.8 11.6569H16.1141Z" fill="white"/>
</svg>
