<svg width="60" height="60" viewBox="0 0 60 60" fill="none" xmlns="http://www.w3.org/2000/svg">
<circle cx="30" cy="30" r="30" fill="#225383"/>
<g clip-path="url(#clip0_9785_12695)">
<path d="M44.7498 48.9476C44.7498 50.1423 38.1471 51.1111 30.0002 51.1111C21.8533 51.1111 15.251 50.1423 15.251 48.9476C15.251 47.7529 21.8537 46.7837 30.0002 46.7837C38.1467 46.7837 44.7498 47.7525 44.7498 48.9476Z" fill="white" fill-opacity="0.5"/>
<path d="M29.9476 8.89004C23.7238 9.04131 14.9892 18.3507 14.4664 30.9314C13.9435 43.5121 22.8316 49.1477 29.634 49.1477C36.8516 49.1477 46.0582 44.9208 45.5342 31.1327C45.0101 17.3446 36.0131 8.74313 29.9476 8.89004Z" fill="#F7EEED"/>
<path d="M45.5337 31.1338C45.0893 19.4235 38.534 11.4564 32.852 9.40967C34.1342 10.3499 40.2644 15.3359 42.1337 25.9496C44.1026 37.1244 39.8327 47.1858 25.7095 48.3932C25.5672 48.4055 25.431 48.4178 25.2969 48.4301C26.7635 48.9125 28.2409 49.148 29.6299 49.148C36.8512 49.148 46.0566 44.9211 45.5337 31.1338Z" fill="#F0E4D6"/>
<path d="M27.2813 11.6581C24.7665 11.3893 19.0172 20.6154 20.0633 25.8492C21.1094 31.083 25.8167 28.7678 27.1765 24.0375C28.5362 19.3071 30.1056 11.9602 27.2813 11.6581Z" fill="white"/>
<path d="M19.9768 18.2129C20.0255 17.8314 20.3152 17.4058 20.758 17.3911C20.9334 17.3855 21.0923 17.4975 21.2709 17.4459C21.5049 17.3784 21.7463 17.0444 21.8982 16.8693C22.0352 16.7105 22.1371 16.5354 22.2448 16.3588C22.4029 16.1007 22.6096 15.8974 22.8127 15.6739C23.0648 15.3959 23.2286 15.0946 23.2253 14.721C23.2212 14.3636 23.2159 14.0345 23.5881 13.8387C23.7837 13.7359 24.0007 13.6771 24.2071 13.5906C24.5921 13.4258 24.6445 13.3869 25.1277 13.4377C25.2957 13.4556 25.4496 13.4695 25.618 13.4345C25.9563 13.3622 26.2562 13.1752 26.4631 12.9077C26.5651 12.7778 26.6142 12.6008 26.7404 12.5047C26.9575 12.3395 27.5456 12.3093 27.8093 12.2545C27.905 12.2343 27.9256 12.1291 27.9104 12.0477L27.8163 11.5494L27.7119 11.763C28.0833 11.7364 28.6144 11.6915 28.9239 11.4692C29.0477 11.3791 29.0766 11.3056 29.1401 11.1718C29.2383 10.9649 29.2387 10.8176 29.4492 10.7279C29.5817 10.6715 29.708 10.6759 29.8499 10.6517C29.9737 10.6306 29.9832 10.4015 29.8697 10.3579C29.578 10.2459 29.2718 10.3182 29.0819 10.5679C28.9656 10.7216 28.9387 10.8919 28.8141 11.0471C28.5665 11.3529 28.0874 11.3937 27.7032 11.4295C27.6033 11.439 27.5839 11.5692 27.5988 11.6435L27.7003 12.1386C27.7337 12.0695 27.7676 12.0008 27.801 11.9321L26.6043 12.1894C26.5829 12.193 26.563 12.2024 26.5469 12.2165C26.5308 12.2305 26.5192 12.2487 26.5135 12.2688C26.4407 12.5308 26.2698 12.7577 26.0336 12.9058C25.7975 13.054 25.5128 13.1129 25.2342 13.0713C25.0514 13.045 24.8777 12.9601 24.6903 12.9799C24.4712 13.0034 24.2632 13.1578 24.0635 13.2388C23.7383 13.3706 23.3512 13.4623 23.1226 13.7426C22.8626 14.0603 23.0013 14.3644 22.9546 14.7265C22.8841 15.2732 22.3204 15.6183 22.0402 16.0729C21.866 16.3552 21.5652 16.9091 21.221 17.0437C21.0704 17.1028 20.8723 17.0159 20.713 17.0575C20.5867 17.0983 20.4711 17.1649 20.3742 17.2529C20.08 17.5014 19.9401 17.8187 19.9075 18.1871C19.9025 18.2419 19.969 18.2848 19.9781 18.2137L19.9768 18.2129Z" fill="#8C8B7E"/>
<path d="M25.4221 12.0462C25.5459 11.8607 25.6639 11.6563 25.8298 11.5018C26.0774 11.2731 26.2623 11.347 26.5511 11.2874C26.8206 11.2318 26.906 11.1 27.0327 10.8797C27.3113 10.3945 27.7103 10.3429 28.2451 10.3163C28.7989 10.2889 29.3469 10.2765 29.8764 10.4568C30.0576 10.5191 30.0922 10.1435 29.9362 10.0856C29.3853 9.88189 28.8196 9.85965 28.2344 9.8942C27.863 9.91603 27.4412 9.95455 27.1412 10.1896C27.0075 10.2944 26.9477 10.4278 26.8565 10.5648C26.7603 10.7073 26.6757 10.8916 26.5156 10.9873C26.4298 11.0389 26.2779 11.0369 26.1805 11.0786C25.7898 11.2461 25.5434 11.6074 25.3622 11.9628C25.3416 12.0025 25.3796 12.1105 25.4221 12.0462Z" fill="#8C8B7E"/>
<path d="M29.9098 9.32917C30.0861 9.88503 29.5661 10.3416 29.8591 10.8999C30.1162 11.3898 30.6295 11.8794 31.107 12.1704C31.568 12.4527 32.0759 12.5599 32.6095 12.4483C32.9545 12.3761 32.9987 12.2955 33.2793 12.5162C33.5215 12.7068 33.4584 12.7294 33.5636 12.9561C33.6305 13.1003 33.7188 13.2206 33.8636 13.3C34.0584 13.4072 34.2978 13.4052 34.5148 13.4104C34.904 13.4203 35.2242 13.4501 35.5655 13.6577C35.9067 13.8654 36.2315 14.1199 36.5592 14.3506C36.7969 14.5177 37.3754 14.7806 37.5215 15.0299C37.8566 15.6004 37.0758 16.0106 37.1155 16.5875C37.1509 17.1036 37.5913 17.4975 38.0093 17.7639C38.0918 17.8151 38.1079 17.6647 38.0617 17.6218C37.6548 17.2422 37.0841 16.7951 37.4221 16.1674C37.5261 15.9749 37.7159 15.8335 37.81 15.6326C37.9499 15.3352 37.8925 15.0482 37.6701 14.806C37.2116 14.3069 36.494 13.9233 35.9319 13.5354C35.4586 13.2099 35.0868 13.0856 34.5061 13.0717C34.3522 13.0681 34.1653 13.0828 34.0233 13.0193C33.7679 12.9049 33.7563 12.6754 33.6688 12.4598C33.6123 12.3213 33.5669 12.2069 33.4378 12.1152C33.0313 11.8274 32.3896 12.1692 31.9208 12.068C31.2605 11.925 30.6101 11.3501 30.2387 10.8252C29.8789 10.317 30.2354 9.77664 29.9911 9.25533C29.9499 9.16956 29.8942 9.27081 29.9119 9.32679L29.9098 9.32917Z" fill="#8C8B7E"/>
<path d="M31.7061 12.3632C31.5198 12.9162 31.2688 13.447 30.9579 13.9454C30.8399 14.134 30.66 14.541 30.459 14.6526C30.1854 14.8046 29.9465 14.5168 29.7005 14.4691C29.4117 14.4128 29.2623 14.5751 29.1298 14.8015C28.8162 15.3379 28.5847 15.9227 28.302 16.4742C28.2776 16.5165 28.2675 16.565 28.2729 16.6131C28.2784 16.6611 28.2992 16.7064 28.3325 16.7426C28.8352 17.2691 29.3291 17.8043 29.8272 18.3343C30.3926 18.9362 29.6444 19.0661 29.4901 19.583C29.4682 19.6561 29.4686 19.8014 29.5664 19.8324C30.6121 20.1647 29.195 20.8671 28.9358 21.1208C28.7089 21.3443 28.6301 21.6306 28.7456 21.9295C28.8281 22.1459 29.0064 22.3325 29.1636 22.5005C29.3993 22.7518 29.7414 22.9182 29.9642 23.1628C30.2626 23.4883 30.0525 23.6992 29.9502 24.0335C29.8544 24.3455 29.8796 24.6632 29.9502 24.9761C29.9857 24.9027 30.0214 24.8294 30.0575 24.7561C29.5623 24.7053 29.2 25.0531 29.0134 25.4668C28.7039 26.1537 28.9953 26.9216 28.9474 27.6382C28.9416 27.728 29.0431 27.8018 29.065 27.6823C29.2066 26.914 28.7014 25.0023 30.0661 25.0995C30.1689 25.1071 30.1899 24.9407 30.1739 24.8796C30.0818 24.5028 30.1148 24.1649 30.2461 23.8048C30.2816 23.7075 30.3455 23.6237 30.362 23.5189C30.3747 23.4525 30.3726 23.3842 30.3558 23.3187C30.3391 23.2531 30.308 23.1917 30.2646 23.1385C29.88 22.6295 28.2727 21.9045 29.3258 21.2133C29.6448 21.004 30.034 20.8194 30.1479 20.4331C30.2671 20.0269 30.0265 19.6303 29.6209 19.5012L29.6968 19.7506C29.847 19.2475 30.6047 19.1185 30.3158 18.48C30.1755 18.1676 29.8359 17.9051 29.604 17.6594C29.2193 17.2524 28.8261 16.8534 28.4431 16.4448C28.4534 16.5345 28.4633 16.6239 28.4737 16.7132C28.6148 16.4436 28.7666 16.1812 28.9148 15.9152C29.0464 15.6793 29.1574 15.2966 29.3469 15.104C29.769 14.674 30.022 15.2986 30.4763 15.1183C30.8226 14.9809 31.0912 14.3746 31.2505 14.0816C31.5194 13.5787 31.7282 13.048 31.8728 12.4998C31.9046 12.3835 31.7663 12.1865 31.7077 12.364L31.7061 12.3632Z" fill="#8C8B7E"/>
<path d="M24.9499 20.6802C24.9739 20.3908 25.0093 20.1037 25.0626 19.8178C25.0915 19.659 25.1133 19.3279 25.3102 19.262C25.3836 19.2378 25.5289 19.3017 25.6094 19.3017C25.9622 19.2981 26.1933 19.0535 26.2655 18.7323C26.2964 18.5646 26.2923 18.3927 26.2535 18.2265C26.1735 17.8116 26.2795 17.6381 26.5746 17.3498C26.8086 17.1211 27.0203 16.8579 27.3273 16.7273C27.6777 16.578 28.0507 16.6772 28.4003 16.7964C28.5447 16.8456 28.543 16.5847 28.4712 16.5236C28.2269 16.3151 27.7441 16.2651 27.4325 16.3282C27.0149 16.4132 26.738 16.7916 26.4533 17.0699C26.2585 17.2601 25.9804 17.4523 25.9345 17.7314C25.9048 17.9148 25.9936 18.0625 26.0233 18.2384C26.1611 19.0583 25.6783 18.9336 25.1521 18.9789C25.1285 18.9843 25.1073 18.997 25.0919 19.015C25.0764 19.0331 25.0676 19.0556 25.0667 19.0789C25.0102 19.6126 24.8872 20.1263 24.8711 20.6671C24.8711 20.7227 24.9425 20.7465 24.9478 20.6806L24.9499 20.6802Z" fill="#8C8B7E"/>
<path d="M21.942 18.9527C21.9284 18.4298 22.4454 18.3925 22.5766 17.9958C22.594 17.9434 22.5971 17.8876 22.5858 17.8337C22.5744 17.7798 22.549 17.7296 22.5119 17.6877C22.3728 17.5067 22.2478 17.6337 22.2692 17.2994C22.2762 17.1899 22.374 17.0402 22.4033 16.9342C22.492 16.6133 22.5313 16.2941 22.4269 15.9773C22.3951 15.8812 22.2969 15.9324 22.2841 16.0083C22.2457 16.2314 22.2593 16.4573 22.2118 16.6789C22.166 16.8929 22.0468 17.0759 21.9985 17.2855C21.9597 17.459 21.9638 17.6079 22.0889 17.7449C22.1442 17.8057 22.3063 17.8362 22.3365 17.8914C22.419 18.0459 22.105 18.2535 22.029 18.3576C21.89 18.5489 21.8297 18.7224 21.8479 18.9531C21.8545 19.0365 21.944 19.0365 21.942 18.9507V18.9527Z" fill="#8C8B7E"/>
<path d="M39.0081 14.7407C38.7638 14.4723 38.5129 14.1956 38.1708 14.0407C37.929 13.9311 37.6876 13.9216 37.4945 13.7298C37.3294 13.5663 37.2411 13.3455 37.0764 13.1779C36.4946 12.5824 35.8661 12.8012 35.1918 13.17C35.1059 13.2173 35.1191 13.4301 35.2409 13.3983C35.6284 13.2975 36.1302 12.9092 36.5387 13.0489C36.9316 13.1831 37.1206 13.5389 37.3641 13.8315C37.5291 14.03 37.6661 14.0546 37.915 14.1269C38.3483 14.2531 38.6508 14.5394 38.9553 14.8499C39.0036 14.8995 39.0424 14.7768 39.0094 14.7407H39.0081Z" fill="#8C8B7E"/>
<path d="M31.3697 26.3013C31.3363 25.9794 31.227 25.5688 30.9492 25.3536C30.7429 25.1948 30.4701 25.2675 30.4375 25.5335L30.5865 25.5009C30.4899 25.2734 30.3389 24.9304 30.0946 24.826C30.0211 24.795 30.0055 24.9268 30.0257 24.9665C30.1458 25.2008 30.3385 25.3782 30.4478 25.6248C30.4891 25.7145 30.5877 25.6816 30.5972 25.5926L30.721 25.4914C30.7603 25.4873 30.8 25.4932 30.8362 25.5084C30.8724 25.5237 30.9038 25.5478 30.9274 25.5783C30.9841 25.632 31.0314 25.6941 31.0677 25.7622C31.1677 25.9367 31.2388 26.1252 31.2785 26.3208C31.2946 26.3943 31.3763 26.37 31.3689 26.3006L31.3697 26.3013Z" fill="#8C8B7E"/>
<path d="M24.9399 20.7117C24.8869 20.2371 24.9878 19.7584 25.2288 19.3411C25.2882 19.2343 25.1673 18.9838 25.0823 19.1374C24.8134 19.6265 24.7304 20.1907 24.8479 20.7324C24.8632 20.807 24.9478 20.7816 24.9395 20.7117H24.9399Z" fill="#8C8B7E"/>
</g>
<defs>
<clipPath id="clip0_9785_12695">
<rect width="31.1111" height="42.2222" fill="white" transform="translate(14.4443 8.88867)"/>
</clipPath>
</defs>
</svg>
