<svg width="131" height="108" viewBox="0 0 131 108" fill="none" xmlns="http://www.w3.org/2000/svg">
<path d="M62.0799 30.846H9.71289C9.71289 30.846 13.6823 18.9131 23.2026 24.8796C23.2026 24.8796 25.1847 14.5373 33.9143 13.7445C42.6439 12.9518 44.626 21.2913 44.626 21.2913C44.626 21.2913 59.3018 18.5167 62.0799 30.846Z" fill="#D5F9FD"/>
<path opacity="0.2" d="M12.9332 29.1618C14.6631 29.1461 16.3523 28.6337 17.8007 27.6853C19.2492 26.737 20.3963 25.3924 21.1061 23.8108C21.8302 24.0938 22.5267 24.4429 23.187 24.8539C23.4399 23.711 23.8059 22.5964 24.2795 21.5264C24.7078 22.9211 25.4684 24.1902 26.4957 25.2241C28.1857 26.8983 30.4668 27.8355 32.8426 27.8319C35.2184 27.8355 37.4995 26.8983 39.1895 25.2241C40.8684 23.5338 41.8128 21.2467 41.8167 18.8613C41.8493 17.9353 41.7298 17.0103 41.4629 16.1232L41.4317 16.0293C42.955 17.4587 44.0596 19.2785 44.626 21.2917C44.626 21.2917 45.193 21.1822 46.1138 21.1039C46.4665 22.8305 47.3166 24.4153 48.5589 25.6622L48.7722 25.8761C50.4564 27.5589 52.7361 28.5057 55.1139 28.5099C57.0321 28.504 58.8984 27.8846 60.4411 26.7418C61.2138 28.0041 61.7679 29.3884 62.0799 30.836H9.71289C9.95963 30.1431 10.2588 29.4701 10.6077 28.8228C11.3637 29.042 12.1462 29.156 12.9332 29.1618Z" fill="#66ECFB"/>
<path d="M22.6982 24.2174C22.7658 23.7741 22.9115 23.3099 23.0311 22.8092C23.1039 22.5641 23.1924 22.3137 23.2756 22.0582C23.3546 21.794 23.4483 21.5346 23.5566 21.2811C23.9799 20.1797 24.5261 19.13 25.1849 18.1518C25.5192 17.6479 25.8822 17.1638 26.2722 16.7019C26.6646 16.2632 27.0815 15.847 27.5207 15.4554C27.9368 15.082 28.3746 14.7337 28.8317 14.4123L29.4977 14.0212C29.702 13.892 29.916 13.7787 30.1375 13.6822C30.8151 13.3586 31.5225 13.1018 32.2497 12.9155L33.0873 12.7486C33.3648 12.6939 33.6472 12.6677 33.9301 12.6704C34.2559 12.6535 34.5823 12.6535 34.9081 12.6704C35.2827 12.7016 35.7093 12.7173 36.1671 12.7851C37.2055 12.9501 38.2148 13.2645 39.1636 13.7187C39.6954 13.9717 40.2083 14.2628 40.6983 14.5896C41.1938 14.9389 41.6617 15.326 42.0978 15.7475C42.3223 15.9499 42.5342 16.1659 42.7325 16.3942L43.3099 17.0931C43.4972 17.3225 43.6429 17.5833 43.8042 17.8232C43.9692 18.0581 44.1153 18.3057 44.2411 18.5638C44.366 18.8194 44.4909 19.0854 44.6157 19.3096C44.7406 19.5339 44.803 19.8312 44.8966 20.0554C45.0653 20.5092 45.1942 20.9769 45.2816 21.4532C45.3701 21.8513 45.4258 22.2559 45.4481 22.6632C45.4702 22.8362 45.4824 23.0103 45.4845 23.1847C45.4845 23.3464 45.4845 23.4872 45.4845 23.6176C45.4845 24.1391 45.4273 24.4312 45.3805 24.426C45.2816 24.1716 45.2304 23.9011 45.2296 23.628C45.2296 23.5029 45.2036 23.3673 45.188 23.2108C45.1724 23.0543 45.1255 22.9031 45.0943 22.731C45.0299 22.3446 44.9395 21.963 44.8238 21.5888C44.2368 19.5843 43.0863 17.7917 41.5099 16.4255C41.0916 16.0588 40.6464 15.7241 40.1781 15.4241C39.7197 15.1459 39.2416 14.9018 38.7475 14.694C37.8783 14.3201 36.9603 14.0725 36.0214 13.9586C35.6156 13.9116 35.2359 13.9169 34.9029 13.896C34.57 13.8751 34.2786 13.9325 34.0393 13.9429C33.7871 13.9493 33.5362 13.9807 33.2902 14.0368L32.5462 14.162C31.8923 14.304 31.2544 14.512 30.6422 14.7826C30.4385 14.8593 30.2418 14.9535 30.0543 15.0642L29.4404 15.3928C29.0139 15.6617 28.604 15.9561 28.2127 16.2742C27.7896 16.6138 27.3883 16.9796 27.0109 17.3695C26.6279 17.785 26.2668 18.2202 25.9288 18.6733C25.26 19.5771 24.688 20.5491 24.2225 21.5731C24.1027 21.8102 23.9967 22.054 23.9051 22.3033C23.8063 22.5432 23.7074 22.7779 23.619 23.0126C23.4681 23.4872 23.2912 23.9253 23.1924 24.3478C22.7086 26.0219 22.5889 27.2006 22.4849 27.1902C22.3808 27.1798 22.3548 25.9854 22.6982 24.2174Z" fill="white"/>
<path d="M10.1756 29.9389C10.3473 30.0119 11.1901 28.1917 12.4387 26.7262C12.981 26.0554 13.6191 25.4684 14.3323 24.9842C14.5555 24.8233 14.7943 24.6852 15.045 24.5722L15.326 24.4366L15.3936 24.3949C15.457 24.3555 15.5231 24.3207 15.5913 24.2906C15.7786 24.2228 16.0283 24.1028 16.3456 23.9933C17.1519 23.7555 17.994 23.6637 18.8324 23.7221C19.0662 23.7388 19.2989 23.7684 19.5295 23.8108C19.7568 23.8392 19.9825 23.8793 20.2058 23.9307C20.6376 24.0559 21.0538 24.1341 21.3971 24.2541C22.0839 24.494 22.5677 24.6296 22.6093 24.5514C22.6509 24.4731 22.2451 24.1915 21.5688 23.8003C21.2411 23.6074 20.8249 23.4509 20.3879 23.2527C20.157 23.1632 19.9206 23.0883 19.6803 23.0284C19.4352 22.9476 19.1849 22.8832 18.9312 22.8355C17.9728 22.646 16.9867 22.646 16.0283 22.8355C15.6329 22.9346 15.3156 23.0545 15.0867 23.1223C14.9999 23.1502 14.9162 23.1869 14.837 23.2318L14.7485 23.2736L14.4208 23.4613C14.1387 23.6221 13.8722 23.8089 13.6248 24.0194C12.8724 24.6255 12.2224 25.3493 11.6999 26.1629C10.571 27.9205 10.03 29.8868 10.1756 29.9389Z" fill="white"/>
<path d="M45.0476 21.2239C45.0789 21.3178 45.7552 21.1457 46.7748 21.0466C48.0164 20.924 49.2686 20.9643 50.4997 21.1666C51.7177 21.3725 52.9069 21.7226 54.0425 22.2097C54.5055 22.4026 54.8801 22.5956 55.1402 22.7312L55.5408 22.9503C55.5408 22.9503 55.6917 23.0233 55.9466 23.1641C56.3034 23.3498 56.6507 23.5535 56.9871 23.7743C58.0212 24.4306 58.9581 25.2294 59.7703 26.1473C60.586 27.0742 61.2402 28.1321 61.7056 29.2766C62.0854 30.2154 62.2258 30.9038 62.3247 30.8882C62.4235 30.8725 62.4235 30.1685 62.1738 29.1201C61.8402 27.8403 61.2587 26.6388 60.4622 25.5841C59.6664 24.5245 58.7178 23.5894 57.6478 22.8094C57.2108 22.4913 56.831 22.2462 56.5605 22.0845L56.1339 21.8289L55.6813 21.6151C55.3951 21.4847 54.979 21.3022 54.4691 21.1248C53.2255 20.672 51.9275 20.3861 50.609 20.2747C49.2966 20.1583 47.974 20.2533 46.6916 20.5564C45.6563 20.8171 45.0216 21.1509 45.0476 21.2239Z" fill="white"/>
<path d="M102.039 23.68H131.562C131.562 23.68 129.325 16.9521 123.957 20.316C123.957 20.316 122.838 14.4851 117.917 14.0575C112.995 13.6298 111.882 18.2976 111.882 18.2976C111.882 18.2976 103.6 16.7278 102.039 23.68Z" fill="#D5F9FD"/>
<path opacity="0.2" d="M129.747 22.7259C128.772 22.7163 127.82 22.4274 127.004 21.8933C126.187 21.3592 125.54 20.6021 125.138 19.7114C124.726 19.8744 124.33 20.077 123.957 20.3164C123.815 19.6709 123.608 19.0417 123.338 18.4388C123.099 19.2266 122.67 19.9432 122.089 20.525C121.142 21.4764 119.856 22.0127 118.515 22.0166C117.85 22.0159 117.192 21.8838 116.578 21.6279C115.963 21.3719 115.406 20.9972 114.936 20.525C113.988 19.5743 113.455 18.2859 113.453 16.942C113.432 16.4131 113.499 15.8843 113.651 15.3774V15.3252C112.795 16.1286 112.175 17.1511 111.856 18.2824C111.579 18.2332 111.299 18.1983 111.019 18.1781C110.818 19.1511 110.339 20.0444 109.64 20.7493C109.598 20.7858 109.562 20.8275 109.52 20.8692C108.568 21.8161 107.282 22.3484 105.941 22.3504C104.86 22.3479 103.808 21.9988 102.939 21.3543C102.506 22.0673 102.194 22.8483 102.019 23.6647H131.542C131.398 23.2728 131.224 22.8927 131.022 22.5277C130.607 22.6489 130.179 22.7155 129.747 22.7259Z" fill="#66ECFB"/>
<path d="M124.243 19.9409C124.201 19.6905 124.118 19.4193 124.051 19.1481C124.014 19.0073 123.962 18.8665 123.915 18.7256C123.869 18.5848 123.817 18.4284 123.754 18.2823C123.519 17.6608 123.211 17.0692 122.838 16.5195C122.65 16.2346 122.445 15.9612 122.225 15.7007C122.006 15.4523 121.772 15.2188 121.522 15.0018C121.288 14.7961 121.041 14.6045 120.784 14.4281L120.409 14.2038C120.293 14.1311 120.171 14.0682 120.045 14.0161C119.665 13.8309 119.268 13.6858 118.859 13.5832L118.385 13.4893C118.228 13.4578 118.067 13.4421 117.907 13.4424C117.756 13.4424 117.568 13.4424 117.355 13.4424C117.142 13.4424 116.908 13.4424 116.648 13.505C116.062 13.5975 115.493 13.7731 114.957 14.0265C114.658 14.1697 114.37 14.3335 114.093 14.5168C113.815 14.7152 113.551 14.9331 113.303 15.1687C113.176 15.2856 113.057 15.4092 112.944 15.539L112.621 15.9302C112.517 16.0605 112.434 16.2066 112.34 16.3422C112.247 16.474 112.165 16.6136 112.096 16.7594L111.882 17.1819C111.825 17.3227 111.778 17.4635 111.726 17.5991C111.633 17.8554 111.56 18.1187 111.508 18.3866C111.459 18.6117 111.428 18.8401 111.414 19.0699C111.414 19.1742 111.414 19.2681 111.414 19.3567C111.414 19.4454 111.414 19.5288 111.414 19.6018C111.414 19.8939 111.445 20.0556 111.471 20.0556C111.497 20.0556 111.523 19.8887 111.555 19.6071C111.555 19.534 111.555 19.4558 111.555 19.3724C111.555 19.2889 111.591 19.195 111.607 19.1012C111.643 18.8821 111.695 18.666 111.763 18.4544C112.09 17.3245 112.737 16.3138 113.625 15.5442C113.861 15.3367 114.113 15.1483 114.379 14.9809C114.637 14.8231 114.907 14.6853 115.186 14.5689C115.684 14.3577 116.209 14.2173 116.746 14.1517C116.975 14.1256 117.194 14.1517 117.381 14.1152C117.568 14.0787 117.73 14.1413 117.865 14.1465C118.007 14.1492 118.148 14.1666 118.286 14.1986L118.708 14.2664C119.075 14.3493 119.434 14.4663 119.779 14.6159C119.895 14.6602 120.006 14.7143 120.112 14.7775L120.456 14.9601C120.697 15.1214 120.93 15.2955 121.153 15.4816C121.387 15.6642 121.6 15.8884 121.829 16.1023C122.045 16.3366 122.248 16.582 122.438 16.8377C122.813 17.3478 123.135 17.8948 123.4 18.4701C123.468 18.6109 123.53 18.7465 123.582 18.8821C123.634 19.0177 123.692 19.1533 123.738 19.2837C123.827 19.5497 123.926 19.8053 123.983 20.0399C124.254 20.9839 124.321 21.6463 124.378 21.6411C124.437 21.0708 124.391 20.4946 124.243 19.9409Z" fill="white"/>
<path d="M131.303 23.1639C131.204 23.2109 130.73 22.1782 130.023 21.3541C129.726 20.978 129.375 20.6476 128.982 20.3736C128.855 20.2845 128.721 20.206 128.582 20.1389L128.426 20.0659L128.384 20.0399C128.347 20.0176 128.309 19.9984 128.27 19.9825C128.171 19.946 128.025 19.873 127.848 19.8156C127.393 19.6789 126.917 19.6276 126.444 19.6643C126.313 19.6723 126.182 19.6879 126.053 19.7113C125.923 19.7374 125.793 19.7426 125.674 19.7791C125.429 19.8469 125.195 19.8938 124.997 19.9616C124.612 20.0972 124.337 20.1755 124.316 20.1285C124.295 20.0816 124.524 19.9251 124.888 19.7061C125.106 19.5917 125.33 19.489 125.559 19.3983C125.688 19.3479 125.82 19.3044 125.954 19.268C126.094 19.2246 126.237 19.1898 126.381 19.1637C126.92 19.0555 127.475 19.0555 128.015 19.1637C128.238 19.2158 128.415 19.2836 128.535 19.3253C128.583 19.3401 128.63 19.3593 128.675 19.3827H128.727L128.909 19.487C129.068 19.5791 129.22 19.6837 129.362 19.7999C129.785 20.1424 130.151 20.551 130.444 21.0099C130.901 21.6468 131.196 22.3864 131.303 23.1639Z" fill="#242424"/>
<path d="M111.637 18.251C111.31 18.25 110.985 18.2168 110.664 18.1519C109.971 18.0844 109.271 18.1072 108.583 18.2197C107.896 18.3345 107.225 18.5324 106.586 18.809C106.32 18.9186 106.112 19.0333 105.967 19.1063L105.738 19.2315L105.509 19.3462C105.363 19.4245 105.16 19.5392 104.921 19.6904C104.342 20.0634 103.817 20.5144 103.36 21.0308C102.901 21.5537 102.532 22.1494 102.268 22.7936C102.178 23.1074 102.061 23.4127 101.919 23.7064C101.864 23.3721 101.895 23.0295 102.008 22.7102C102.193 21.9887 102.521 21.3115 102.97 20.7179C103.407 20.119 103.933 19.5912 104.531 19.1533C104.727 19.0039 104.932 18.8663 105.145 18.7412L105.384 18.6004L105.639 18.4752C105.863 18.3717 106.092 18.2794 106.326 18.1988C107.027 17.9449 107.758 17.7836 108.5 17.719C109.239 17.6522 109.984 17.7068 110.706 17.8807C111.041 17.9305 111.359 18.0572 111.637 18.251Z" fill="white"/>
<g style="mix-blend-mode:multiply">
<path d="M57.3972 49.5595C51.8775 43.0715 44.9376 42.7377 40.604 43.3636L40.1774 43.4314L39.9121 43.4731L39.5999 43.5305L39.3502 43.5826L39.0173 43.6504L38.6999 43.7234L38.4658 43.7808L38.2473 43.8382L38.008 43.9008L37.7323 43.979L37.5554 44.0312L37.3942 44.0833L37.2069 44.1407L37.0352 44.198L36.8999 44.245L36.8063 44.2763L36.6866 44.318L36.6138 44.3493H36.541H36.515H36.4889C36.4473 44.2919 36.4005 44.2398 36.3589 44.1876C29.7883 35.6395 22.0524 34.6851 17.3234 35.1179H17.2402C16.4839 35.1908 15.7319 35.304 14.9876 35.4569C13.7456 35.6129 12.5244 35.9049 11.3459 36.3279L1.6123 65.7118C14.3477 60.4859 25.5224 74.5885 25.5224 74.5885C36.1508 69.7434 49.1775 83.5226 49.1775 83.5226L60.6227 53.7528C59.7031 52.2414 58.6215 50.8353 57.3972 49.5595Z" fill="#D2D2D2"/>
</g>
<path d="M9.75443 34.7942C9.75443 34.7942 23.7644 29.1875 34.6321 43.5718C34.6321 43.5718 49.8698 37.2298 58.9948 52.1668L47.5496 81.9367C47.5496 81.9367 34.5437 68.1627 23.8892 73.0026C23.8892 73.0026 12.725 58.9209 0 64.1833L9.75443 34.7942Z" fill="#9FE08B"/>
<g style="mix-blend-mode:multiply" opacity="0.5">
<path d="M10.6436 34.8884C10.6436 34.8884 24.1177 29.5425 34.6109 43.3426C34.6109 43.3426 49.2712 37.2927 58.0788 51.6248L47.1538 80.1273C47.1538 80.1273 34.5849 66.9009 24.3571 71.5218C24.3571 71.5218 13.583 57.9929 1.3418 63.0258L10.6436 34.8884Z" fill="#D2D2D2"/>
</g>
<path d="M11.3306 34.5023C11.3306 34.5023 24.581 29.2242 34.8869 42.8157C34.8869 42.8157 49.2974 36.844 57.949 50.9518L47.1697 79.0319C47.1697 79.0319 34.8297 65.9932 24.7683 70.5776C24.7683 70.5776 14.1867 57.2573 2.14844 62.2329L11.3306 34.5023Z" fill="white"/>
<path opacity="0.2" d="M27.229 64.095C26.0163 63.9327 24.8238 63.6443 23.6706 63.2345C19.1048 61.5782 15.3707 58.1902 13.2727 53.8003C11.1747 49.4104 10.8808 44.37 12.4543 39.7649C13.2674 37.4425 14.5476 35.3123 16.2156 33.5063C14.5502 33.5928 12.9054 33.9159 11.3306 34.466L2.14844 62.1914C14.1867 57.221 24.7683 70.5361 24.7683 70.5361L24.9816 70.4527L27.229 64.095Z" fill="#D2D2D2"/>
<path opacity="0.2" d="M46.4002 71.5319C41.8345 69.8757 38.1007 66.4874 36.0036 62.0973C33.9065 57.7071 33.614 52.6667 35.1891 48.0623C36.0134 45.7196 37.3116 43.5729 39.0025 41.7568C37.5958 41.9471 36.2152 42.297 34.8874 42.7999L34.7574 42.6382L25.0029 70.4888C35.0227 66.2069 47.191 79.0317 47.191 79.0317L49.7558 72.3559C48.6133 72.1907 47.4895 71.9148 46.4002 71.5319Z" fill="#D2D2D2"/>
<g style="mix-blend-mode:multiply" opacity="0.5">
<g style="mix-blend-mode:multiply">
<path d="M25.3359 69.4878C25.4745 68.7548 25.6728 68.0344 25.929 67.3338C26.3296 66.0613 26.881 64.3662 27.4377 62.6764C28.5614 59.2968 29.6903 55.8963 29.6903 55.8963L32.1458 49.2466C32.7649 47.5881 33.3892 45.9296 33.873 44.6935C34.1088 43.9912 34.4011 43.3092 34.747 42.6543C34.6115 43.3824 34.4148 44.0977 34.1591 44.7926C33.7638 46.06 33.2123 47.7446 32.6609 49.4292C31.5423 52.7931 30.4186 56.1519 30.4186 56.1519L27.9527 62.8381C27.3336 64.5019 26.7041 66.1708 26.2151 67.4173C25.9801 68.1308 25.6861 68.8234 25.3359 69.4878Z" fill="#D2D2D2"/>
</g>
</g>
<path opacity="0.2" d="M24.6955 59.4476C24.6551 60.4252 24.2569 61.3535 23.577 62.0554C23.2169 62.4326 22.7863 62.735 22.3096 62.9453C21.8329 63.1556 21.3196 63.2697 20.7989 63.281C20.2934 63.3023 19.789 63.2178 19.3178 63.0328C18.8467 62.8479 18.4191 62.5665 18.0625 62.2066L14.889 59.1347C14.3272 58.5871 14.1451 58.0916 14.3428 57.7161C14.4797 57.4579 14.6551 57.2223 14.863 57.0172L21.3608 50.2841C21.495 50.1403 21.6375 50.0045 21.7874 49.8773C21.9153 49.7891 22.0555 49.7206 22.2036 49.6739C22.5261 49.5696 22.9475 49.7625 23.4625 50.2632L26.5007 53.2047C26.8545 53.5329 27.1359 53.9317 27.3267 54.3754C27.5175 54.8191 27.6136 55.298 27.6088 55.7812C27.6264 56.27 27.543 56.7572 27.364 57.2122C27.1849 57.6672 26.9141 58.0802 26.5684 58.4254C26.0664 58.9545 25.4112 59.3121 24.6955 59.4476ZM21.5741 59.844C21.7304 59.694 21.859 59.5175 21.9539 59.3225C22.0134 59.1753 22.0134 59.0107 21.9539 58.8635C21.8041 58.5786 21.603 58.324 21.3608 58.1125C21.1167 57.9047 20.9468 57.6227 20.877 57.3093C20.8814 57.1348 20.9242 56.9634 21.0025 56.8074C21.0807 56.6514 21.1924 56.5147 21.3296 56.407C21.6677 56.0524 21.9643 55.8855 22.2244 55.9272C22.5748 56.013 22.8906 56.204 23.1296 56.4748C23.4469 56.7878 23.7227 56.8921 23.9516 56.7825C24.1199 56.6678 24.2736 56.533 24.4094 56.381C24.496 56.3066 24.5611 56.2102 24.5977 56.1019C24.6343 55.9936 24.6411 55.8774 24.6175 55.7655C24.5193 55.4945 24.3526 55.2536 24.1336 55.0667L22.4481 53.429L18.0261 58.0134L20.0082 59.9327C20.5128 60.4073 21.0278 60.4073 21.5585 59.844H21.5741Z" fill="#D2D2D2"/>
<path d="M24.3475 58.4048C24.3071 59.3823 23.9089 60.3107 23.229 61.0125C22.8694 61.3904 22.4389 61.6933 21.9621 61.9036C21.4853 62.114 20.9717 62.2277 20.4509 62.2382C19.9453 62.2595 19.4409 62.175 18.9698 61.99C18.4986 61.805 18.0711 61.5236 17.7144 61.1638L14.541 58.0919C13.9792 57.5443 13.7971 57.0488 14.0208 56.6733C14.1569 56.4147 14.3325 56.1789 14.541 55.9744L21.0127 49.2621C21.147 49.1184 21.2894 48.9825 21.4393 48.8553C21.569 48.7671 21.711 48.6985 21.8607 48.6519C22.1833 48.5476 22.5995 48.7406 23.1145 49.2412L26.1527 52.1828C26.5061 52.5115 26.7876 52.9102 26.9792 53.3538C27.1709 53.7973 27.2685 54.2759 27.266 54.7592C27.2823 55.2479 27.1983 55.7347 27.0194 56.1895C26.8404 56.6444 26.5702 57.0575 26.2255 57.4034C25.718 57.9241 25.0618 58.274 24.3475 58.4048ZM21.226 58.8012C21.3824 58.6512 21.511 58.4746 21.6058 58.2796C21.6654 58.1325 21.6654 57.9678 21.6058 57.8207C21.4592 57.5366 21.2617 57.2821 21.0232 57.0697C20.7762 56.8634 20.6043 56.581 20.5341 56.2665C20.5385 56.0919 20.5814 55.9205 20.6596 55.7645C20.7379 55.6085 20.8496 55.4718 20.9867 55.3642C21.3249 55.0095 21.6214 54.8427 21.8815 54.8844C22.2319 54.9701 22.5478 55.1612 22.7867 55.432C23.1093 55.7449 23.3798 55.8492 23.6087 55.7397C23.7781 55.6263 23.932 55.4913 24.0665 55.3381C24.1541 55.2645 24.2198 55.1681 24.2565 55.0596C24.2932 54.9511 24.2995 54.8345 24.2746 54.7227C24.1788 54.4518 24.0138 54.2108 23.796 54.0238L22.1052 52.3862L17.6884 56.9706L19.6653 58.8898C20.1648 59.3645 20.685 59.3645 21.2104 58.8012H21.226Z" fill="#F7DB00"/>
<path opacity="0.2" d="M19.7589 37.0056L23.4005 46.0701C23.525 46.3261 23.5975 46.6045 23.6138 46.8889C23.5878 47.2696 23.26 47.5878 22.6358 47.8538C22.3687 47.9865 22.0754 48.0577 21.7774 48.0624C21.5982 48.0609 21.4246 48.0004 21.2831 47.8903C21.1729 47.806 21.0838 47.697 21.023 47.5721C20.971 47.4626 20.8982 47.3009 20.8097 47.0819L20.1074 45.3295L15.7582 45.0374L14.8322 46.6803C14.7126 46.8837 14.6189 47.0297 14.5565 47.1236C14.4731 47.2316 14.3709 47.3235 14.2547 47.3948C14.0995 47.4914 13.9159 47.5319 13.7345 47.5095C13.4403 47.4629 13.1598 47.3526 12.9125 47.1862C12.3247 46.8524 12.0437 46.4977 12.0646 46.117C12.1176 45.8369 12.2274 45.5706 12.3871 45.3347L17.2097 36.8231C17.3425 36.5899 17.5393 36.3998 17.7767 36.2754C18.0089 36.148 18.272 36.0884 18.5363 36.1033C18.8073 36.1117 19.0693 36.2025 19.2877 36.3637C19.506 36.5248 19.6704 36.7487 19.7589 37.0056ZM18.2398 40.6982L17.0588 42.7843L19.1398 42.9252L18.2398 40.6982Z" fill="#D2D2D2"/>
<path d="M19.1497 36.3538L22.7914 45.4182C22.9184 45.6734 22.991 45.9522 23.0047 46.2371C22.9787 46.6178 22.6561 46.9359 22.0266 47.2019C21.7596 47.3346 21.4663 47.4059 21.1682 47.4105C20.9906 47.4099 20.8183 47.3492 20.6792 47.2384C20.5689 47.1528 20.4784 47.0443 20.4139 46.9203C20.3619 46.8108 20.2942 46.6491 20.2006 46.43L19.4983 44.6776L15.1543 44.3856L14.2231 46.0284C14.1034 46.2318 14.015 46.3779 13.9474 46.4717C13.8655 46.5811 13.763 46.6732 13.6456 46.743C13.4904 46.8396 13.3068 46.88 13.1254 46.8577C12.8315 46.8101 12.5512 46.6998 12.3034 46.5343C11.7156 46.2005 11.4346 45.8459 11.4606 45.4652C11.5121 45.1854 11.6201 44.9192 11.778 44.6828L16.6058 36.1712C16.735 35.9371 16.9305 35.7466 17.1676 35.6236C17.3998 35.4961 17.6629 35.4365 17.9272 35.4515C18.1982 35.4599 18.4602 35.5507 18.6786 35.7118C18.8969 35.8729 19.0612 36.0968 19.1497 36.3538ZM17.6254 40.0672L16.4497 42.1533L18.5306 42.2942L17.6254 40.0672Z" fill="#DC3258"/>
<path opacity="0.2" d="M47.373 59.3227L47.8152 59.1662C48.1692 59.0437 48.5454 58.9992 48.9181 59.0358C49.3395 59.161 49.688 59.6721 49.9586 60.6005C50.1095 61.0085 50.1507 61.4492 50.0782 61.8783C50.0439 62.012 49.9835 62.1375 49.9005 62.2476C49.8174 62.3578 49.7134 62.4503 49.5944 62.5198C49.3452 62.6599 49.0795 62.7685 48.8036 62.8431L47.9713 63.0726C47.4657 63.1708 46.9514 63.2162 46.4366 63.2082C45.7239 63.2323 45.0118 63.1479 44.3244 62.9579C43.6614 62.7633 43.0253 62.4865 42.4307 62.1338C41.7668 61.7319 41.1596 61.2425 40.6255 60.6787C40.0422 60.077 39.5466 59.3958 39.1533 58.6551C38.7387 57.8318 38.4878 56.9355 38.4145 56.0161C38.3167 54.9629 38.4209 53.9007 38.7215 52.8868C38.9912 51.8872 39.4563 50.9511 40.0897 50.1331C40.629 49.4231 41.3003 48.8245 42.0666 48.3702C42.7849 47.9592 43.5623 47.6619 44.3712 47.4888C45.8049 47.1314 47.3061 47.1494 48.7308 47.541C49.3926 47.7331 50.022 48.0232 50.5985 48.4015C51.0834 48.6931 51.5307 49.0434 51.9303 49.4446L52.3412 49.8723C52.5459 50.0913 52.7019 50.2652 52.8095 50.3938C52.9359 50.5501 53.0246 50.7336 53.0688 50.9298C53.113 51.1261 53.1115 51.33 53.0644 51.5256C52.9228 51.9355 52.6573 52.291 52.3048 52.5426C51.5609 53.1267 50.9782 53.3614 50.5516 53.2362C50.184 53.0739 49.8675 52.8143 49.636 52.4852C49.1206 51.8035 48.3851 51.3224 47.5551 51.124C46.597 50.8733 45.5843 50.9335 44.6626 51.2961C44.1285 51.5053 43.6522 51.8397 43.2735 52.2714C42.8284 52.7705 42.506 53.367 42.3319 54.0134C42.1373 54.6535 42.0946 55.3304 42.207 55.99C42.3052 56.5676 42.5368 57.1141 42.8833 57.5859C43.4673 58.3761 44.2903 58.956 45.2296 59.2392C45.6337 59.3574 46.0521 59.4189 46.473 59.4218C46.776 59.4292 47.0787 59.3958 47.373 59.3227Z" fill="#D2D2D2"/>
<path d="M46.748 58.6708L47.1954 58.5144C47.5477 58.3926 47.9221 58.3481 48.2931 58.384C48.7197 58.5092 49.0682 59.0203 49.3336 59.9486C49.4845 60.3567 49.5257 60.7973 49.4532 61.2264C49.4189 61.3601 49.3585 61.4857 49.2754 61.5958C49.1924 61.7059 49.0884 61.7984 48.9694 61.8679C48.7202 62.0081 48.4545 62.1167 48.1786 62.1913L47.3463 62.4208C46.8407 62.5189 46.3264 62.5644 45.8116 62.5564C45.0989 62.5802 44.3868 62.4958 43.6994 62.306C43.0364 62.1115 42.4003 61.8347 41.8057 61.482C41.1434 61.0799 40.538 60.5905 40.0057 60.0269C39.4208 59.4265 38.925 58.745 38.5335 58.0033C38.1148 57.1812 37.862 56.2844 37.7895 55.3643C37.6917 54.3111 37.7959 53.2489 38.0965 52.235C38.3689 51.2363 38.8337 50.3008 39.4647 49.4812C40.0046 48.7698 40.6779 48.171 41.4468 47.7184C42.1643 47.3057 42.942 47.0083 43.7514 46.837C45.1833 46.4795 46.6828 46.4975 48.1058 46.8891C48.7688 47.0823 49.3999 47.3722 49.9787 47.7497C50.4617 48.044 50.9087 48.3941 51.3105 48.7928L51.7162 49.2204C51.9174 49.4395 52.0735 49.6133 52.1845 49.742C52.3123 49.8975 52.4019 50.0809 52.4462 50.2775C52.4905 50.474 52.4881 50.6783 52.4394 50.8737C52.2978 51.2837 52.0323 51.6392 51.6798 51.8908C50.9359 52.4749 50.3532 52.7096 49.9318 52.5844C49.5634 52.4235 49.2465 52.1636 49.0162 51.8334C48.5002 51.1523 47.7649 50.6714 46.9353 50.4722C45.9791 50.22 44.9676 50.2803 44.048 50.6443C43.5125 50.8509 43.0357 51.1857 42.6589 51.6195C42.2123 52.1183 41.8881 52.7149 41.7121 53.3615C41.5166 54.0016 41.4756 54.6791 41.5925 55.3382C41.6866 55.916 41.9166 56.4631 42.2635 56.9341C42.8486 57.7232 43.6711 58.3028 44.6098 58.5874C45.0139 58.7056 45.4323 58.767 45.8532 58.7699C46.1545 58.7772 46.4555 58.7438 46.748 58.6708Z" fill="#D2D2D2"/>
<g style="mix-blend-mode:multiply">
<path d="M129.929 30.1577C130.054 29.9856 130.163 29.8082 130.267 29.6361C130.265 29.6205 130.265 29.6048 130.267 29.5892C130.371 29.3961 130.465 29.1977 130.548 28.9946L130.595 28.8695C130.661 28.6988 130.719 28.5247 130.766 28.3479C131.112 27.5192 131.313 26.6371 131.36 25.7402C131.417 24.6827 131.352 23.6222 131.167 22.5796C131.016 21.7295 130.865 21.1714 130.865 21.1714C130.865 21.1714 130.714 20.6186 130.413 19.8206C130.048 18.8422 129.611 17.8921 129.107 16.9782C128.614 16.0565 128.036 15.1834 127.38 14.3705C127.099 13.9779 126.746 13.6432 126.339 13.3848C126.287 13.3848 126.162 13.6455 125.98 14.0471C125.753 14.5316 125.494 15.0003 125.205 15.4501C124.935 15.8569 124.649 16.2428 124.399 16.5558C123.827 17.0773 123.103 17.6354 122.177 18.4177C122.568 18.037 122.932 17.6771 123.218 17.3746C123.554 17.0728 123.842 16.721 124.071 16.3315C123.695 16.5586 123.346 16.8281 123.031 17.1347C122.422 17.6562 121.6 18.3082 120.794 19.0018C120.049 19.6416 119.34 20.3224 118.671 21.0411C118.364 21.3734 118.074 21.7216 117.802 22.0842L117.599 22.3971C117.419 22.6755 117.256 22.9646 117.11 23.2628C116.638 24.1694 116.403 25.1818 116.429 26.2044C116.481 27.2117 116.795 28.1879 117.339 29.0364C117.523 29.3201 117.726 29.5903 117.948 29.8448C118.01 29.9389 118.078 30.0295 118.151 30.116C118.151 30.1577 118.104 30.1994 118.083 30.2411C117.873 30.5488 117.698 30.8795 117.563 31.2269C117.243 32.0651 117.035 32.9419 116.944 33.8346C116.907 34.1527 116.881 34.4187 116.866 34.6273C116.866 34.6638 116.866 34.7003 116.866 34.7316C116.866 34.7629 116.866 34.8099 116.866 34.8516C116.866 34.8933 116.866 34.9246 116.866 34.9611C116.863 35.0063 116.863 35.0516 116.866 35.0967C116.863 35.1227 116.863 35.1489 116.866 35.1749V35.321C116.866 35.321 116.866 35.3575 116.866 35.3731C116.866 35.3888 116.866 35.4775 116.902 35.5296C116.939 35.5818 116.902 35.5296 116.902 35.5557C117.006 35.8793 117.184 36.174 117.422 36.4162C115.342 42.9303 108.714 64.2407 107.985 69.863L108.017 69.9151L108.074 69.9986V70.0246L108.147 70.1342V70.1602L108.245 70.3011L108.376 70.4732C108.714 70.8996 109.092 71.2925 109.504 71.6467L109.791 71.8761H109.822L110.098 72.0743C110.264 72.2099 110.436 72.3351 110.618 72.455C110.831 72.6047 111.053 72.7405 111.284 72.8619C111.514 72.9888 111.752 73.1003 111.996 73.1956C112.243 73.2875 112.497 73.359 112.756 73.4095L112.954 73.446H113H113.058H113.157H113.541C113.807 73.4463 114.073 73.4306 114.337 73.399C114.6 73.3695 114.861 73.3242 115.118 73.2634C115.373 73.2004 115.625 73.1238 115.872 73.034C116.121 72.952 116.364 72.8545 116.6 72.7419C116.84 72.6376 117.074 72.5176 117.308 72.3977C117.542 72.2777 117.766 72.1369 117.984 71.9961C118.203 71.8553 118.416 71.7092 118.635 71.5423L118.697 71.4954V71.4067C119.02 69.9621 119.311 68.5069 119.618 67.057L120.528 62.7074L120.981 60.5325C121.137 59.8076 121.272 59.0774 121.423 58.3524L122.292 53.9923L123.161 49.6322L123.993 45.2669L124.409 43.0816C124.55 42.3514 124.675 41.6213 124.81 40.8963L124.841 40.719L125.08 39.5559L125.382 38.1217C125.55 38.0993 125.711 38.0412 125.855 37.9513C125.998 37.8613 126.121 37.7416 126.214 37.6001C126.573 36.9221 127.395 32.7811 127.505 32.2387C127.505 32.2021 127.505 32.1813 127.505 32.1813C127.505 32.1813 127.401 32.0665 127.354 32.0092L127.401 31.9779C127.489 32.0561 127.541 32.0926 127.551 32.0874C127.562 32.0822 127.551 32.03 127.458 31.9518C127.619 31.8684 127.765 31.7797 127.91 31.691L128.056 31.6024C128.269 31.4615 128.467 31.3207 128.654 31.1695L128.732 31.0965C128.899 30.9599 129.057 30.8136 129.206 30.6584L129.289 30.5697C129.442 30.4033 129.586 30.2292 129.721 30.0482L129.929 30.1577ZM127.161 14.5739C127.719 15.424 128.217 16.3129 128.649 17.2338C128.951 17.8648 129.211 18.5116 129.429 19.1009L129.273 18.7463L129.154 18.4803L128.998 18.1465C128.247 16.5448 127.378 15.0019 126.397 13.5308C126.397 13.5308 126.397 13.4943 126.397 13.4839C126.49 13.6195 126.792 13.9898 127.161 14.5635V14.5739ZM117.147 33.8085C117.244 33.3035 117.367 32.8038 117.516 32.3117C117.396 32.8436 117.282 33.3652 117.147 33.8085Z" fill="#D2D2D2"/>
</g>
<path d="M116.95 28.8385C116.95 28.8385 113.058 24.4731 118.302 19.3881C122.802 15.0279 124.202 15.127 125.065 12.0864C125.065 12.0864 135.038 26.4915 126.022 30.8934L116.95 28.8385Z" fill="#DC3258"/>
<g style="mix-blend-mode:multiply" opacity="0.5">
<path d="M127.677 16.7334C128.15 20.5772 125.897 24.8278 120.913 24.8278C120.041 24.8551 119.172 24.7082 118.356 24.3958C117.541 24.0833 116.796 23.6114 116.164 23.0076C115.695 24.9828 115.979 27.062 116.96 28.8385L126.033 30.8934C131.714 28.1135 129.835 21.3439 127.677 16.7334Z" fill="#DC3258"/>
</g>
<path d="M128.363 28.5149C128.311 28.4732 128.676 28.0299 128.988 27.2684C129.349 26.3271 129.525 25.3248 129.508 24.3165C129.501 23.3057 129.385 22.2986 129.165 21.3124C128.982 20.504 128.816 19.9772 128.816 19.9772C128.816 19.9772 128.686 19.4557 128.431 18.6525C128.121 17.6872 127.749 16.743 127.318 15.8257C126.885 14.9048 126.388 14.016 125.83 13.1658C125.545 12.7951 125.285 12.4047 125.055 11.9976C125.46 12.258 125.813 12.5924 126.095 12.9833C126.749 13.799 127.329 14.6717 127.828 15.591C128.33 16.5054 128.764 17.4554 129.128 18.4334C129.43 19.2366 129.581 19.7842 129.581 19.7842C129.581 19.7842 129.737 20.3423 129.882 21.1924C130.07 22.2348 130.136 23.2953 130.08 24.353C130.03 25.419 129.755 26.4623 129.274 27.4145C129.066 27.8511 128.753 28.2292 128.363 28.5149Z" fill="#A3143A"/>
<path d="M120.206 20.1703C120.159 20.1703 120.206 19.8522 120.377 19.4193C120.579 18.8944 120.83 18.3898 121.126 17.912C121.449 17.3905 121.798 16.8689 122.063 16.5299L122.5 15.9197L122.968 15.3565C123.31 14.9429 123.63 14.5111 123.925 14.063C124.216 13.6133 124.477 13.1446 124.706 12.6601C124.883 12.2585 125.007 11.9821 125.059 11.9977C125.111 12.0133 125.059 12.3158 124.987 12.7644C124.849 13.3061 124.652 13.8309 124.399 14.329C124.148 14.8281 123.863 15.309 123.545 15.7685C123.291 16.1492 123.109 16.3891 123.109 16.3891L122.625 16.9628C122.328 17.3018 121.943 17.7504 121.584 18.2145C121.225 18.6787 120.892 19.1637 120.658 19.5393C120.424 19.9148 120.263 20.1912 120.206 20.1703Z" fill="#A3143A"/>
<path d="M122.807 14.9546C122.579 15.3452 122.291 15.6972 121.953 15.9977C121.402 16.5766 120.632 17.3068 119.872 18.0474C119.185 18.7087 118.532 19.405 117.916 20.1335C117.396 20.7333 117.136 21.1766 117.136 21.1766C116.883 21.5075 116.653 21.8561 116.449 22.2197C115.984 23.0126 115.721 23.9083 115.685 24.8274C115.677 25.7614 115.891 26.6837 116.309 27.5186C116.536 27.894 116.734 28.2863 116.902 28.6921C116.551 28.405 116.261 28.0503 116.049 27.649C115.503 26.8011 115.187 25.8248 115.133 24.817C115.113 23.7949 115.347 22.7839 115.815 21.8755C115.96 21.5773 116.123 21.2882 116.304 21.0097L116.507 20.6968C116.777 20.3337 117.067 19.9855 117.375 19.6537C118.042 18.9312 118.753 18.2501 119.503 17.6145C120.304 16.9156 121.126 16.248 121.74 15.7473C122.061 15.4392 122.419 15.1729 122.807 14.9546Z" fill="#A3143A"/>
<path d="M126.626 19.2993C126.626 19.2993 126.72 19.3515 126.824 19.4766L127.006 19.7218C127.068 19.8157 127.12 19.9356 127.188 20.066C127.481 20.7006 127.669 21.3788 127.744 22.0739C127.838 22.7651 127.868 23.4635 127.833 24.1601C127.796 24.7286 127.755 25.1093 127.755 25.1093C127.755 25.1093 127.677 25.4796 127.547 26.0325C127.368 26.704 127.122 27.3558 126.813 27.9778C126.646 28.3118 126.451 28.6311 126.231 28.9323C126.035 29.1954 125.808 29.4335 125.554 29.6416C125.458 29.7287 125.355 29.8088 125.247 29.8815L124.972 30.0119C124.821 30.0797 124.732 30.1058 124.722 30.0849C124.711 30.064 124.774 29.9858 124.894 29.8815L125.107 29.6989C125.185 29.6259 125.258 29.5216 125.346 29.4277C125.541 29.1983 125.715 28.9522 125.866 28.6924C126.034 28.3896 126.182 28.076 126.309 27.7536C126.536 27.1423 126.71 26.5123 126.829 25.8708C126.912 25.3493 126.964 24.9894 126.964 24.9894C126.964 24.9894 127.026 24.6347 127.099 24.1028C127.178 23.447 127.206 22.7862 127.183 22.1261C127.168 21.4675 127.069 20.8135 126.886 20.1807C126.844 20.0556 126.818 19.9304 126.777 19.8261L126.668 19.5653C126.631 19.4088 126.605 19.315 126.626 19.2993Z" fill="#A3143A"/>
<path d="M119.685 22.7778C119.8 22.8196 119.54 23.6488 119.425 24.4833C119.39 24.6814 119.369 24.8819 119.363 25.0831C119.345 25.2565 119.345 25.4312 119.363 25.6046C119.363 25.9019 119.394 26.1001 119.394 26.1001C119.42 26.6343 119.525 27.1616 119.706 27.6647C119.992 28.4314 120.492 29.1355 120.393 29.2294C120.294 29.3232 120.185 29.125 119.956 28.8903C119.669 28.5957 119.418 28.2683 119.207 27.9151C119.099 27.7196 119.003 27.5175 118.921 27.3101C118.884 27.211 118.832 27.1171 118.806 27.0232L118.738 26.752C118.685 26.5641 118.647 26.3723 118.624 26.1783V25.5994C118.635 25.4036 118.666 25.2096 118.718 25.0205C118.756 24.8031 118.81 24.5887 118.879 24.379C119.018 23.789 119.294 23.2404 119.685 22.7778Z" fill="#A3143A"/>
<path d="M116.247 35.1958C115.918 34.92 115.685 34.5464 115.582 34.1291C115.48 33.7118 115.512 33.2725 115.675 32.8749C116.231 31.4302 116.45 28.5304 117.386 28.181C118.323 27.8315 123.738 27.6594 126.319 30.9608C126.319 30.9608 125.403 35.6547 125.018 36.3797C123.993 38.325 116.247 35.1958 116.247 35.1958Z" fill="#F7DB00"/>
<g style="mix-blend-mode:multiply">
<path d="M120.565 31.5762L120.424 31.6232C118.667 32.225 117.067 33.2141 115.742 34.5178C115.615 34.264 115.545 33.9857 115.536 33.702C115.527 33.4184 115.58 33.1362 115.69 32.8749C116.247 31.4302 116.465 28.5304 117.402 28.181C118.338 27.8315 123.754 27.6594 126.334 30.9608C126.336 30.9816 126.336 31.0026 126.334 31.0234C124.394 30.7479 122.417 30.9374 120.565 31.5762Z" fill="#F7DB00"/>
</g>
<path d="M126.365 30.8933C126.365 30.8933 126.303 30.789 126.162 30.6221C126.09 30.5439 126.006 30.4448 125.907 30.3301L125.746 30.1528L125.543 29.9806L125.085 29.5947C124.91 29.4558 124.726 29.3287 124.534 29.214C124.127 28.9501 123.701 28.7165 123.259 28.5151C123.036 28.416 122.796 28.3378 122.568 28.2543L122.229 28.1239L121.886 28.0353L121.231 27.8736C121.022 27.8319 120.82 27.811 120.637 27.7797L120.117 27.7119H119.722H119.378H119.04L118.635 27.7484C118.55 27.7523 118.465 27.7681 118.385 27.7954L118.114 27.8736C117.691 28.0246 117.312 28.2792 117.011 28.6142C116.689 28.9908 116.429 29.417 116.241 29.8763C115.924 30.7243 115.716 31.6094 115.622 32.5101C115.557 32.9117 115.531 33.3187 115.544 33.7253C115.656 33.3354 115.739 32.938 115.794 32.5362C115.94 31.6657 116.186 30.8151 116.528 30.0015C116.719 29.5856 116.973 29.202 117.282 28.8645C117.547 28.585 117.878 28.3769 118.244 28.2595L118.478 28.2022C118.547 28.1799 118.619 28.1676 118.692 28.1657H119.046H119.378H120.086L120.57 28.2178C120.747 28.2178 120.944 28.2543 121.147 28.2856L121.777 28.4264C121.886 28.4264 122 28.4682 122.11 28.4995L122.443 28.609C122.666 28.6872 122.9 28.7498 123.124 28.8385C123.561 29.0159 123.985 29.2232 124.394 29.4591C124.583 29.5624 124.767 29.6756 124.945 29.7981L125.418 30.1423L125.627 30.2988L125.798 30.4605L126.084 30.716C126.256 30.8255 126.355 30.9038 126.365 30.8933Z" fill="#F79000"/>
<path d="M116.71 33.1568C116.71 33.1568 107.527 61.8418 106.669 68.5071C106.669 68.5071 110.446 75.0786 117.271 70.1813L124.513 35.3733C124.513 35.3733 121.397 31.9676 116.71 33.1568Z" fill="#9FE08B"/>
<g style="mix-blend-mode:multiply" opacity="0.5">
<path d="M121.834 39.6291C118.853 42.2369 116.439 44.6464 114.686 48.3077C113.463 50.8936 112.563 53.6211 112.007 56.4281C111.278 60.079 111.107 63.8706 110.259 67.5214C109.955 68.827 109.888 70.1767 110.061 71.506C108.664 70.857 107.486 69.8151 106.669 68.5071C107.527 61.847 116.71 33.1568 116.71 33.1568C121.392 31.9676 124.513 35.3733 124.513 35.3733L123.889 38.3774C123.142 38.6822 122.448 39.1047 121.834 39.6291Z" fill="#D2D2D2"/>
</g>
<g style="mix-blend-mode:multiply" opacity="0.5">
<g style="mix-blend-mode:multiply">
<path d="M113.271 70.2491C113.356 70.164 113.404 70.0486 113.404 69.9284C113.404 69.8081 113.356 69.6927 113.271 69.6076C113.229 69.5647 113.179 69.5306 113.123 69.5074C113.068 69.4841 113.009 69.4722 112.949 69.4722C112.889 69.4722 112.829 69.4841 112.774 69.5074C112.718 69.5306 112.668 69.5647 112.626 69.6076C112.541 69.6936 112.493 69.8098 112.493 69.931C112.493 70.0521 112.541 70.1683 112.626 70.2543C112.713 70.339 112.829 70.3859 112.95 70.385C113.071 70.384 113.186 70.3352 113.271 70.2491Z" fill="#242424"/>
</g>
<g style="mix-blend-mode:multiply">
<path d="M115.523 70.3169C115.656 70.1831 115.73 70.0022 115.73 69.8136C115.73 69.6251 115.656 69.4442 115.523 69.3103C115.389 69.1772 115.208 69.1025 115.019 69.1025C114.83 69.1025 114.648 69.1772 114.514 69.3103C114.448 69.3767 114.395 69.4556 114.359 69.5424C114.323 69.6292 114.305 69.7222 114.305 69.8162C114.305 69.9102 114.323 70.0033 114.359 70.0901C114.395 70.1769 114.448 70.2558 114.514 70.3221C114.58 70.389 114.659 70.4419 114.746 70.4779C114.833 70.5139 114.926 70.5321 115.02 70.5317C115.114 70.5312 115.207 70.5119 115.293 70.4751C115.38 70.4382 115.458 70.3844 115.523 70.3169Z" fill="#242424"/>
</g>
</g>
<path d="M124.987 35.8427C124.861 35.6098 124.702 35.3971 124.514 35.2116C124.115 34.793 123.664 34.4283 123.171 34.1268C122.907 33.9626 122.633 33.8163 122.349 33.6887C122.074 33.574 121.829 33.4749 121.59 33.3966L121.038 33.2402C120.969 33.2175 120.897 33.2001 120.825 33.188L120.607 33.1515C120.471 33.1515 120.274 33.0941 120.045 33.0785C119.582 33.0368 118.968 32.969 118.344 32.9585C117.766 32.9288 117.188 32.9958 116.632 33.1567C116.369 33.2162 116.133 33.361 115.961 33.5687C116.195 33.4729 116.435 33.391 116.679 33.3236C117.223 33.225 117.779 33.2074 118.328 33.2715C118.931 33.3236 119.535 33.4227 119.998 33.4801C120.227 33.5114 120.404 33.5583 120.518 33.5792L120.721 33.6209L120.924 33.6626L121.444 33.7878C121.663 33.8504 121.918 33.9338 122.183 34.0277C122.459 34.1348 122.728 34.2584 122.989 34.398C123.483 34.6577 123.945 34.9727 124.368 35.3368C124.552 35.5306 124.76 35.7006 124.987 35.8427Z" fill="#61A54A"/>
<path d="M106.68 68.5073C107.271 69.3468 107.971 70.1044 108.761 70.7604C108.958 70.9273 109.172 71.0785 109.385 71.2298C109.598 71.3777 109.821 71.5118 110.051 71.6314C110.281 71.7583 110.519 71.8698 110.764 71.9651C111.011 72.0601 111.267 72.1317 111.528 72.179L111.721 72.2207H111.773H111.924H112.309C112.576 72.2225 112.844 72.2086 113.11 72.179C113.37 72.179 113.63 72.0903 113.885 72.0382C114.14 71.986 114.405 71.9026 114.639 71.8139C114.873 71.7252 115.134 71.6261 115.373 71.5218C115.612 71.4175 115.846 71.2976 116.075 71.1724C116.304 71.0472 116.533 70.9116 116.751 70.7708C116.976 70.6309 117.193 70.4794 117.402 70.3171L117.464 70.2701V70.1815C117.787 68.7368 118.078 67.2817 118.385 65.8318L119.295 61.4821L119.748 59.3072C119.904 58.5823 120.045 57.8521 120.19 57.1272L121.059 52.767L121.928 48.4069L122.76 44.0416L123.176 41.8563C123.317 41.1314 123.442 40.4012 123.577 39.671C123.842 38.2107 124.097 36.7556 124.357 35.29C124.014 36.7347 123.691 38.1794 123.358 39.6241C123.197 40.349 123.026 41.0688 122.869 41.7937L122.396 43.9633L121.444 48.3078L120.534 52.6575L119.686 57.0594C119.535 57.7843 119.379 58.5093 119.238 59.2342L118.801 61.4143L117.927 65.7744C117.641 67.2295 117.339 68.6794 117.069 70.1345L117.152 70.0041C116.965 70.1554 116.757 70.3066 116.549 70.4474C116.34 70.5883 116.127 70.7239 115.909 70.849C115.69 70.9742 115.472 71.0942 115.243 71.2037C115.014 71.3132 114.785 71.4175 114.551 71.501C114.317 71.5844 114.077 71.6626 113.838 71.7357C113.597 71.8015 113.352 71.8521 113.105 71.8869C112.862 71.9231 112.617 71.944 112.371 71.9495H111.986H111.851H111.804L111.622 71.9182C111.375 71.8811 111.132 71.8253 110.894 71.7513C110.656 71.667 110.423 71.5695 110.196 71.4592C109.968 71.3499 109.746 71.228 109.531 71.0942C109.317 70.9586 109.104 70.823 108.901 70.6665C108.698 70.51 108.501 70.3536 108.303 70.1867C108.105 70.0198 107.923 69.8477 107.736 69.6651C107.359 69.303 107.006 68.9162 106.68 68.5073Z" fill="#61A54A"/>
<g style="mix-blend-mode:multiply">
<path d="M105.488 64.7574L105.108 62.7494L104.848 61.3934L103.865 56.1779L97.5806 22.8981L95.947 20.7702L93.3458 17.3697L89.8082 12.7749V12.8166V12.7749V12.8636L89.5897 13.5885L88.8926 15.9459L88.1695 18.392L87.0718 22.0793L86.1874 24.9426C86.1301 24.8487 86.0937 24.7965 86.0781 24.8017C86.0816 24.9121 86.1082 25.0205 86.1562 25.1199L86.2706 25.7353L86.2966 25.8761L93.0025 61.3412C93.0025 61.3412 93.0025 61.4612 93.0753 61.6542V61.7272L93.1221 61.9723L93.221 62.4939L93.4863 63.8916C93.4863 63.9803 93.4863 64.0689 93.5227 64.1576C93.5591 64.2463 93.5591 64.2932 93.5747 64.361L93.6164 64.5644C93.6164 64.6531 93.6163 64.7469 93.6528 64.8356C93.6892 64.9243 93.6892 64.966 93.7048 65.0338L93.9961 66.5724C93.9961 66.6662 93.9961 66.7549 94.0325 66.8488C94.0325 66.8488 94.0325 67 94.1314 67.2399L94.1834 67.3547C94.1834 67.4016 94.225 67.4433 94.2458 67.4903C94.2667 67.5372 94.3083 67.6259 94.3447 67.6937C94.372 67.7481 94.4033 67.8004 94.4383 67.8501C94.4763 67.9151 94.518 67.9778 94.5632 68.0379C94.5984 68.0888 94.6366 68.1376 94.6776 68.1839L94.8285 68.3613C94.871 68.4073 94.9162 68.4509 94.9638 68.4916L95.1354 68.6533L95.2915 68.7785L95.4892 68.9193C95.5454 68.9617 95.6045 69.0001 95.6661 69.034L95.8742 69.1592L96.025 69.2322C96.3031 69.3942 96.5936 69.5338 96.8938 69.6495C97.3134 69.8053 97.75 69.9104 98.1944 69.9624C98.5692 70.0054 98.9462 70.0245 99.3233 70.0198C99.6511 70.0198 99.9216 69.9937 100.114 69.9728L100.411 69.9363L100.702 69.8737C100.96 69.8156 101.216 69.7442 101.467 69.6599C102.248 69.3961 102.974 68.9913 103.61 68.4656L103.808 68.2726C105.041 67.3495 105.712 66.0456 105.488 64.7574Z" fill="#D2D2D2"/>
</g>
<path d="M95.5048 20.8167L87.7012 10.6987L84.0596 22.9916L91.9099 64.5327C91.9099 64.6266 91.9099 64.7152 91.9464 64.8091C92.3625 67.0152 95.2655 68.3243 98.4285 67.7193C101.592 67.1143 103.782 64.8717 103.402 62.6708L95.5048 20.8167Z" fill="#F7DB00"/>
<g style="mix-blend-mode:multiply">
<path d="M91.2445 15.2831L87.7121 10.6987L86.7705 13.8749C87.5727 13.7909 88.3835 13.8725 89.1529 14.1147C89.9224 14.3569 90.6342 14.7545 91.2445 15.2831Z" fill="#F7DB00"/>
</g>
<g style="mix-blend-mode:multiply">
<path d="M93.8666 18.6836C94.28 19.5598 94.5807 20.4851 94.7614 21.4374L99.2823 45.3867C100.188 50.1745 97.9557 54.738 94.3765 55.4161C93.6055 55.5408 92.8171 55.5046 92.0607 55.3099C91.3043 55.1151 90.5961 54.766 89.9805 54.2843L91.9157 64.5223C91.9157 64.6161 91.9158 64.7048 91.9522 64.7987C92.3684 67.0048 95.2713 68.3139 98.4343 67.7089C101.597 67.1039 103.788 64.8613 103.408 62.6603L95.5002 20.8063L93.8666 18.6836Z" fill="#F7DB00"/>
</g>
<g style="mix-blend-mode:multiply">
<path d="M92.9555 24.4208L87.6855 10.7041L87.748 25.4169L95.0313 63.9435C95.0313 64.0322 95.0313 64.1208 95.0781 64.2147C95.4943 66.4261 96.9978 67.9959 98.4388 67.7195C99.8799 67.4431 100.697 65.4612 100.296 63.2655L92.9555 24.4208Z" fill="#F7DB00"/>
</g>
<g style="mix-blend-mode:multiply">
<path d="M96.7954 59.1505C93.7676 59.7242 90.9739 58.5455 90.3809 56.501L91.3901 61.8312C91.3946 61.9225 91.4067 62.0132 91.4265 62.1024C91.8427 64.3138 94.7456 65.6176 97.9035 65.0179C101.061 64.4181 103.262 62.165 102.882 59.9693L101.79 54.0967C102.169 56.2976 99.9532 58.5507 96.7954 59.1505Z" fill="#F7DB00"/>
</g>
<path d="M96.9458 59.8443C93.9128 60.418 91.1243 59.2445 90.5312 57.1949L91.5353 62.5251C91.5353 62.6137 91.5353 62.7076 91.5717 62.7963C91.9879 65.0076 94.8908 66.3167 98.0539 65.7117C101.217 65.1067 103.412 62.8588 103.027 60.6631L101.914 54.7905C102.299 56.9915 100.088 59.2445 96.9458 59.8443Z" fill="white"/>
<g style="mix-blend-mode:multiply">
<path d="M89.512 20.5664C87.9681 20.8938 86.3595 20.6974 84.9391 20.0083L84.0547 22.9916L84.1015 23.2471L84.2055 23.7687C84.7986 25.8131 87.5871 26.9918 90.6201 26.4129C93.7415 25.8183 95.9785 23.5601 95.5935 21.3643L95.4895 20.7959L93.5802 18.3237C92.5146 19.5091 91.0812 20.2992 89.512 20.5664Z" fill="#F7DB00"/>
</g>
<path d="M84.0908 22.9133C84.8296 24.8065 87.514 25.8653 90.4169 25.3124C93.3198 24.7596 95.458 22.7725 95.432 20.7281L87.7117 10.6987L84.0908 22.9133Z" fill="white"/>
<path opacity="0.2" d="M87.7119 10.6987L87.4674 11.5176L93.2212 18.9913C93.2472 21.0306 91.1402 23.0229 88.2061 23.5757C86.8968 23.8427 85.5399 23.7509 84.2783 23.3097C85.2147 24.9526 87.7223 25.8288 90.4171 25.3124C93.3408 24.7596 95.4582 22.7725 95.4322 20.7281L87.7119 10.6987Z" fill="#D2D2D2"/>
<path d="M86.0469 16.3211C86.8873 16.7949 87.8599 16.9782 88.8145 16.8427C89.7733 16.6195 90.6302 16.0817 91.2492 15.3145L87.7116 10.7197L86.0469 16.3211Z" fill="#242424"/>
<path opacity="0.2" d="M87.748 25.3753C88.6348 25.5047 89.537 25.4836 90.4168 25.3127C91.3031 25.1506 92.1549 24.8365 92.9347 24.3844L87.7012 10.7407V10.7929L87.748 25.3753Z" fill="#D2D2D2"/>
<path opacity="0.2" d="M96.9461 59.8441C96.0611 60.0159 95.1533 60.0353 94.2617 59.9014L95.0265 63.9434C95.0265 64.0321 95.0265 64.1208 95.0733 64.2146C95.1734 64.7579 95.3485 65.2845 95.5935 65.7793C96.4085 65.8743 97.2333 65.8426 98.0386 65.6854C98.8464 65.5372 99.6258 65.2627 100.348 64.8718C100.398 64.3268 100.374 63.7776 100.276 63.2393L99.4537 58.8896C98.678 59.3483 97.83 59.6711 96.9461 59.8441Z" fill="#D2D2D2"/>
<path d="M97.3149 61.8521C94.2819 62.4258 91.4935 61.2523 90.9004 59.2027L91.9044 64.5329C91.9044 64.6267 91.9044 64.7154 91.9409 64.8093C92.3571 67.0154 95.26 68.3245 98.423 67.7195C101.586 67.1145 103.776 64.8719 103.396 62.6709L102.283 56.7983C102.679 58.9993 100.468 61.2523 97.3149 61.8521Z" fill="#DC3258"/>
<g style="mix-blend-mode:multiply" opacity="0.5">
<path d="M97.3149 61.8521C94.2819 62.4258 91.4935 61.2524 90.9004 59.2027L91.0304 59.8963L91.1293 60.4179C91.7223 62.4676 94.516 63.641 97.5438 63.0673C100.665 62.4676 102.902 60.2145 102.517 58.0188L102.283 56.7827C102.679 58.9993 100.468 61.2524 97.3149 61.8521Z" fill="#DC3258"/>
</g>
<g style="mix-blend-mode:multiply" opacity="0.5">
<path d="M102.294 56.8036C102.419 57.612 102.233 58.4377 101.774 59.114L102.101 60.8403C102.486 63.036 100.27 65.2943 97.1279 65.8889C96.2549 66.0884 95.3509 66.1109 94.4691 65.955C93.5873 65.7992 92.7455 65.4682 91.9932 64.9814C92.5134 67.0676 95.3539 68.3089 98.4337 67.7195C101.513 67.1302 103.787 64.8719 103.407 62.6709L102.294 56.7983V56.8036Z" fill="#DC3258"/>
</g>
<path d="M95.4585 20.8222C95.4433 21.2791 95.3353 21.7281 95.1412 22.1417C94.9838 22.5494 94.7777 22.9365 94.5273 23.2943C94.2553 23.6794 93.9373 24.0297 93.5805 24.3374C92.9442 24.8626 92.2179 25.2673 91.4371 25.5318C91.186 25.6161 90.9307 25.6874 90.6724 25.7456L90.381 25.8082L90.0793 25.8447C89.892 25.8447 89.6215 25.8864 89.2885 25.8917C88.9131 25.8965 88.5378 25.8773 88.1648 25.8343C87.719 25.7804 87.2809 25.6754 86.859 25.5214C86.4172 25.3581 85.9963 25.1428 85.6053 24.8799C85.2357 24.6325 84.9044 24.332 84.622 23.988C84.4082 23.7221 84.233 23.4271 84.1018 23.1118C84.0448 22.9887 84.0113 22.8561 84.0029 22.7207C84.0029 22.7207 84.0966 22.8302 84.2058 23.0336C84.3675 23.2939 84.5577 23.5354 84.7729 23.7533C85.3766 24.3208 86.1112 24.7294 86.911 24.9424C87.3092 25.0571 87.7197 25.1236 88.1336 25.1406C88.4888 25.1623 88.8449 25.1623 89.2001 25.1406C89.5122 25.1406 89.7671 25.078 89.944 25.052L90.225 24.9998L90.5059 24.9581C90.6828 24.9268 90.9377 24.8798 91.2394 24.7964C91.9859 24.6072 92.6913 24.2819 93.3204 23.8368C93.671 23.5852 93.989 23.2908 94.2672 22.9606C94.5215 22.6532 94.7445 22.3213 94.9331 21.9696C95.2765 21.3177 95.4065 20.7961 95.4585 20.8222Z" fill="#F79000"/>
<path d="M103.412 62.9316C103.401 63.3884 103.295 63.8377 103.1 64.2511C102.939 64.6579 102.731 65.0447 102.481 65.4037C102.211 65.79 101.893 66.1405 101.534 66.4468C100.899 66.9725 100.172 67.3773 99.3911 67.6412C99.14 67.7255 98.8847 67.7968 98.6263 67.855L98.335 67.9176L98.0385 67.9541C97.846 67.9541 97.5755 67.9958 97.2477 68.001C96.8706 68.0058 96.4935 67.9866 96.1188 67.9437C95.6744 67.8916 95.2378 67.7866 94.8182 67.6307C94.3752 67.4665 93.9527 67.2512 93.5592 66.9892C93.1909 66.7402 92.8599 66.4399 92.576 66.0974C92.3598 65.8331 92.1845 65.5377 92.0558 65.2212C91.9725 64.9813 91.9361 64.8405 91.9569 64.83C91.9777 64.8196 92.0453 64.9396 92.1598 65.143C92.3181 65.4043 92.5067 65.6459 92.7217 65.8627C93.328 66.4411 94.0708 66.8556 94.8806 67.0675C95.2777 67.1792 95.6861 67.2456 96.098 67.2656C96.4445 67.2863 96.7919 67.2863 97.1385 67.2656C97.4506 67.2656 97.7107 67.2031 97.8876 67.177L98.1685 67.1248L98.4494 67.0831C98.6948 67.0417 98.9379 66.9877 99.1778 66.9214C99.9237 66.7307 100.629 66.4055 101.259 65.9618C101.608 65.7098 101.924 65.4155 102.2 65.0856C102.458 64.7809 102.681 64.4486 102.866 64.0947C103.23 63.4271 103.36 62.9055 103.412 62.9316Z" fill="#A3143A"/>
<path d="M102.362 57.3719C102.35 57.8287 102.243 58.2779 102.05 58.6915C101.887 59.0978 101.679 59.4844 101.431 59.8441C101.16 60.2306 100.842 60.5811 100.484 60.8872C99.8507 61.4172 99.1235 61.8225 98.3403 62.0815C98.0282 62.191 97.7628 62.2536 97.5756 62.3006L97.2842 62.3631L96.9877 62.3997C96.7952 62.3997 96.5247 62.4414 96.1969 62.4466C95.8198 62.4513 95.4427 62.4322 95.068 62.3892C94.6234 62.3353 94.1868 62.2285 93.7674 62.0711C93.3246 61.9086 92.9021 61.6951 92.5085 61.4348C92.1402 61.1858 91.8091 60.8855 91.5252 60.5429C91.3101 60.2779 91.1349 59.9827 91.005 59.6667C90.9217 59.4216 90.8853 59.2808 90.9061 59.2756C90.9269 59.2704 90.9946 59.3851 91.109 59.5885C91.2669 59.8501 91.4555 60.0918 91.6709 60.3082C92.2785 60.8848 93.0209 61.2991 93.8299 61.513C94.2269 61.6247 94.6353 61.6912 95.0472 61.7112C95.4024 61.7329 95.7585 61.7329 96.1137 61.7112C96.4258 61.6851 96.686 61.6486 96.8628 61.6225L97.1438 61.5704L97.4247 61.5287C97.67 61.4872 97.9131 61.4332 98.153 61.367C98.8982 61.174 99.6029 60.849 100.234 60.4073C100.582 60.1542 100.898 59.86 101.176 59.5312C101.433 59.2242 101.656 58.8902 101.842 58.535C102.18 57.8622 102.31 57.3407 102.362 57.3719Z" fill="#D2D2D2"/>
<g style="mix-blend-mode:multiply">
<path d="M97.5185 76.805L96.8578 75.0108L96.0306 72.7421L94.6988 69.0913L83.7427 39.0242L81.4796 37.0579L78.6808 34.6275L74.6333 31.1123L74.5761 31.0132V31.0549L74.4929 30.9819V31.0237V30.9924V31.0758L74.3784 31.7955L73.6085 36.5625L72.568 43.0557C72.5004 42.9775 72.4535 42.9358 72.4431 42.941C72.4327 42.9462 72.4691 43.0557 72.5576 43.2278L72.6304 43.4208L72.8073 43.9111L83.9716 74.5154L84.4658 75.8766L84.4918 75.9392C84.4918 75.9392 84.5178 76.0487 84.6115 76.2156L84.934 77.1074L85.3502 78.2496C85.3502 78.3331 85.397 78.4165 85.4282 78.5C85.4594 78.5834 85.4802 78.6095 85.5063 78.6669L85.5843 78.8807C85.6031 78.964 85.6274 79.0459 85.6571 79.1258C85.68 79.1863 85.706 79.2455 85.7352 79.3032L86.2554 80.6905C86.2749 80.7752 86.2992 80.8588 86.3282 80.9408C86.3282 80.9408 86.3646 81.0764 86.4843 81.2902L86.5519 81.3841L86.6352 81.5093C86.6768 81.5614 86.7132 81.6188 86.76 81.671C86.8069 81.7231 86.8381 81.7596 86.8797 81.8066C86.9274 81.8595 86.9777 81.91 87.0306 81.9578L87.1658 82.0726C87.223 82.1195 87.2803 82.1664 87.3427 82.2082L87.4988 82.3073L87.6965 82.4272L87.8681 82.5107L88.0866 82.6098L88.2739 82.6828C88.352 82.7088 88.4248 82.7401 88.508 82.761L88.6693 82.8079C88.9735 82.9065 89.2849 82.9815 89.6005 83.0322C90.0497 83.101 90.5052 83.1185 90.9583 83.0844C91.3427 83.0562 91.725 83.0039 92.1029 82.9279C92.4306 82.8601 92.7011 82.7923 92.8936 82.7401L93.1902 82.6463L93.4763 82.5367C93.6532 82.4585 93.9133 82.349 94.2098 82.1873C94.9605 81.8045 95.6369 81.2906 96.2075 80.6696C96.2699 80.6018 96.322 80.5288 96.3792 80.4558C97.4249 79.324 97.9243 77.9732 97.5185 76.805Z" fill="#D2D2D2"/>
</g>
<path d="M81.5783 37.9809L72.3441 29.9438L70.3516 42.1532L84.0286 79.6472C84.0286 79.7306 84.0754 79.8141 84.1014 79.8975C84.8297 81.8898 87.9355 82.573 91.0361 81.4204C94.1368 80.2678 96.0408 77.7696 95.3489 75.7617L81.5783 37.9809Z" fill="#DC3258"/>
<g style="mix-blend-mode:multiply">
<path d="M76.5057 33.5898L72.3073 29.939L71.7871 33.0682C73.3671 32.6124 75.0627 32.7998 76.5057 33.5898Z" fill="#F7DB00"/>
</g>
<g style="mix-blend-mode:multiply" opacity="0.5">
<path d="M79.627 36.2964C80.1642 37.0392 80.5949 37.8538 80.9067 38.7164L88.7935 60.3292C90.3542 64.6476 88.7519 69.3467 85.2351 70.6506C83.7344 71.175 82.0883 71.087 80.6518 70.4055L84.023 79.6473C84.023 79.7307 84.0698 79.8142 84.0958 79.8976C84.8241 81.8899 87.9299 82.5731 91.0305 81.4205C94.1311 80.2679 96.0352 77.7697 95.3433 75.7618L81.5778 37.981L79.627 36.2964Z" fill="#DC3258"/>
</g>
<g style="mix-blend-mode:multiply" opacity="0.5">
<path d="M79.5077 41.8458L72.292 29.9546L74.425 43.7182L87.1083 78.4896C87.1343 78.5731 87.1604 78.6565 87.1916 78.74C87.9199 80.7323 89.6523 81.9266 91.0673 81.3999C92.4824 80.8731 93.0234 78.8599 92.3159 76.8729L79.5077 41.8458Z" fill="#DC3258"/>
</g>
<g style="mix-blend-mode:multiply" opacity="0.5">
<path d="M88.2164 73.686C85.2407 74.7864 82.2649 74.2075 81.3857 72.3977L83.1389 77.2064C83.1584 77.2912 83.1827 77.3748 83.2118 77.4567C83.9401 79.449 87.0459 80.1323 90.1465 78.9849C93.2471 77.8375 95.1512 75.308 94.4593 73.3209L92.5292 68.022C93.2159 70.0091 91.3014 72.5386 88.2164 73.686Z" fill="#DC3258"/>
</g>
<path d="M88.4713 74.3119C85.4956 75.4176 82.5198 74.8335 81.6406 73.0237L83.3938 77.8324C83.4133 77.9172 83.4376 78.0007 83.4667 78.0827C84.195 80.0802 87.3008 80.7635 90.4014 79.6108C93.502 78.4582 95.4061 75.96 94.7142 73.9469L92.7789 68.6479C93.4448 70.6403 91.5303 73.1645 88.4713 74.3119Z" fill="white"/>
<g style="mix-blend-mode:multiply" opacity="0.5">
<path d="M75.5123 38.8626C74.024 39.4594 72.3868 39.5743 70.8302 39.1912L70.3516 42.1536L70.4348 42.3831L70.6169 42.8733C71.4961 44.6779 74.4718 45.262 77.4476 44.1563C80.5274 43.0141 82.447 40.5055 81.7551 38.4975L81.573 37.976L79.31 36.0098C78.3702 37.3329 77.0429 38.33 75.5123 38.8626Z" fill="#DC3258"/>
</g>
<path d="M70.3623 42.075C71.3716 43.7127 74.2225 44.2081 77.0786 43.1494C79.9347 42.0907 81.8023 39.8271 81.4954 37.9339L72.3444 29.9438L70.3623 42.075Z" fill="white"/>
<path opacity="0.2" d="M74.3934 43.7178C75.3114 43.6737 76.2169 43.4872 77.0779 43.1649C77.9453 42.8439 78.7578 42.39 79.4866 41.8194L72.3125 30.0063V30.0533L74.3934 43.7178Z" fill="#D2D2D2"/>
<path opacity="0.2" d="M72.3441 29.9438L72.214 30.7575L79.0499 36.6979C79.3569 38.6067 77.4892 40.8702 74.6331 41.9133C73.362 42.4046 71.989 42.5713 70.6377 42.3984C71.8082 43.7596 74.4562 44.1143 77.1042 43.1337C79.9655 42.0907 81.828 39.8115 81.521 37.9183L72.3441 29.9438Z" fill="#D2D2D2"/>
<path d="M71.418 35.5244C72.3532 35.8085 73.3538 35.7921 74.2793 35.4774C75.206 35.1025 75.9908 34.4436 76.5215 33.5947L72.318 29.9438L71.418 35.5244Z" fill="#F7DB00"/>
<path opacity="0.2" d="M88.4712 74.312C87.6074 74.6368 86.698 74.8234 85.7764 74.8649L87.1082 78.5157C87.1342 78.5991 87.1602 78.6826 87.1914 78.766C87.3695 79.2659 87.6259 79.7342 87.951 80.1533C88.7883 80.0973 89.6134 79.9217 90.4013 79.6318C91.1936 79.343 91.9401 78.9407 92.6175 78.4375C92.5926 77.9177 92.4909 77.4044 92.3157 76.9145L90.8799 72.9873C90.1502 73.5512 89.3376 73.9981 88.4712 74.312Z" fill="#D2D2D2"/>
<path d="M89.1061 76.127C86.1303 77.2275 83.1546 76.6486 82.2754 74.8388L84.0286 79.6475C84.0286 79.7309 84.0754 79.8144 84.1014 79.8978C84.8298 81.8901 87.9356 82.5733 91.0362 81.4207C94.1368 80.2681 96.0408 77.7699 95.3489 75.762L93.4137 70.4683C94.1108 72.4501 92.1911 74.9796 89.1061 76.127Z" fill="#D2D2D2"/>
<path d="M89.1061 76.127C86.1303 77.2275 83.1546 76.6486 82.2754 74.8388L82.5043 75.4647L82.6812 75.9549C83.5656 77.7595 86.5361 78.3436 89.5119 77.2379C92.5969 76.0957 94.5166 73.5871 93.8246 71.5792L93.4137 70.4683C94.1108 72.4501 92.1911 74.9796 89.1061 76.127Z" fill="#242424"/>
<g style="mix-blend-mode:multiply" opacity="0.5">
<path d="M93.4132 70.4629C93.5305 70.8347 93.5734 71.226 93.5395 71.6144C93.5055 72.0028 93.3955 72.3807 93.2155 72.7264L93.7878 74.291C94.4797 76.2781 92.56 78.8076 89.475 79.9498C87.5033 80.6852 85.5368 80.6748 84.1738 80.0593C85.0062 81.9317 88.0236 82.5471 91.041 81.4258C94.0583 80.3045 96.0456 77.775 95.3537 75.767L93.4184 70.4733L93.4132 70.4629Z" fill="#D2D2D2"/>
</g>
<path d="M81.5314 37.981C81.5794 38.4186 81.5333 38.8614 81.3962 39.2796C81.2906 39.695 81.1351 40.0961 80.9332 40.4739C80.7191 40.8904 80.4553 41.2792 80.1476 41.6318C79.5732 42.2484 78.8975 42.7618 78.1499 43.1495C77.9107 43.2789 77.664 43.3938 77.4112 43.4937L77.125 43.6084L76.8285 43.6971C76.6412 43.7493 76.3707 43.8223 76.0378 43.8901C75.6613 43.9639 75.2809 44.0162 74.8984 44.0465C74.4453 44.0807 73.9898 44.0632 73.5406 43.9944C73.0751 43.9245 72.6194 43.8003 72.1828 43.6241C71.7821 43.4621 71.407 43.2425 71.0695 42.9722C70.8176 42.7646 70.5984 42.5202 70.4192 42.2472C70.3047 42.0386 70.2527 41.9134 70.2683 41.8978C70.2839 41.8821 70.3724 41.9864 70.518 42.1585C70.7161 42.3745 70.9398 42.5654 71.1839 42.727C71.8924 43.1592 72.6968 43.4083 73.525 43.452C73.943 43.4874 74.3636 43.4751 74.7788 43.4155C75.1417 43.3637 75.5013 43.2906 75.8557 43.1964C76.1626 43.113 76.4175 43.0347 76.5944 42.9722L76.8701 42.8731L77.1459 42.7792C77.3175 42.7166 77.5725 42.6279 77.8586 42.4923C78.5791 42.1779 79.2407 41.7422 79.8147 41.2041C80.1311 40.9088 80.4106 40.576 80.647 40.2132C80.8563 39.8846 81.0306 39.535 81.1673 39.1701C81.417 38.5025 81.4742 37.981 81.5314 37.981Z" fill="#A3143A"/>
<path d="M95.3906 76.0018C95.4422 76.439 95.3978 76.8823 95.2606 77.3005C95.1526 77.7151 94.9973 78.1159 94.7976 78.4948C94.5744 78.9088 94.3019 79.2941 93.986 79.6422C93.4172 80.2629 92.7424 80.7769 91.9935 81.1599C91.6917 81.3216 91.4368 81.4311 91.2547 81.5093L90.9686 81.6189L90.6721 81.7127C90.4848 81.7649 90.2143 81.8327 89.8813 81.9005C89.5052 81.9769 89.1247 82.0292 88.742 82.057C88.2871 82.0911 87.8299 82.0736 87.379 82.0048C86.9159 81.9344 86.4621 81.8119 86.0264 81.6397C85.625 81.479 85.2498 81.2593 84.9131 80.9878C84.6611 80.7804 84.4418 80.536 84.2628 80.2628C84.1431 80.049 84.0911 79.9238 84.1119 79.9134C84.1327 79.903 84.2159 79.9969 84.3564 80.169C84.555 80.3864 84.7805 80.5775 85.0275 80.7374C85.7345 81.1737 86.5395 81.4248 87.3686 81.4676C87.7868 81.4987 88.2071 81.4847 88.6224 81.4259C88.9836 81.3742 89.3414 81.3011 89.694 81.2068C90.0062 81.1286 90.2611 81.0452 90.438 80.9826L90.7137 80.8835L90.9894 80.7948C91.1611 80.727 91.4108 80.6384 91.7021 80.508C92.4206 80.1897 93.0816 79.7544 93.6582 79.2197C93.9706 78.9201 94.2481 78.5859 94.4854 78.2236C94.6964 77.896 94.8708 77.5462 95.0056 77.1805C95.2814 76.5025 95.3386 75.9862 95.3906 76.0018Z" fill="#242424"/>
<path d="M93.5596 70.9842C93.6144 71.4197 93.5699 71.862 93.4295 72.2777C93.3257 72.6937 93.1702 73.0949 92.9665 73.472C92.7434 73.8877 92.4709 74.2747 92.1549 74.6246C91.5831 75.242 90.909 75.7555 90.1624 76.1423C89.8659 76.2988 89.6058 76.4083 89.4237 76.4865L89.1376 76.6013L88.841 76.6899C88.6537 76.7421 88.3832 76.8151 88.0503 76.8829C87.6721 76.9571 87.2899 77.0093 86.9057 77.0394C86.4524 77.0715 85.9969 77.0523 85.5479 76.982C85.0838 76.9163 84.6296 76.7937 84.1953 76.6169C83.794 76.4562 83.4188 76.2365 83.082 75.965C82.8288 75.7589 82.6094 75.5143 82.4317 75.2401C82.3121 75.0314 82.26 74.9063 82.2808 74.8958C82.3017 74.8854 82.3849 74.9793 82.5254 75.1462C82.725 75.364 82.9504 75.5566 83.1964 75.7199C83.9049 76.1521 84.7093 76.4012 85.5375 76.4448C85.9555 76.4776 86.3759 76.4654 86.7913 76.4083C87.1521 76.3541 87.5098 76.281 87.863 76.1893C88.1751 76.1058 88.43 76.0224 88.6069 75.965L88.8826 75.8659L89.1584 75.772C89.33 75.7094 89.585 75.6208 89.8711 75.4852C90.5906 75.1688 91.2519 74.7333 91.8272 74.197C92.1419 73.8995 92.4196 73.565 92.6544 73.2008C92.8655 72.8734 93.04 72.5235 93.1746 72.1577C93.4451 71.4797 93.5075 70.9686 93.5596 70.9842Z" fill="#D2D2D2"/>
<g style="mix-blend-mode:multiply">
<path d="M72.4062 29.9751V30.022L73.2698 35.7017C73.6484 35.6759 74.0214 35.5969 74.3779 35.467C74.7516 35.3316 75.1024 35.1399 75.4184 34.8985L72.4062 29.9751Z" fill="#F7DB00"/>
</g>
<g style="mix-blend-mode:multiply" opacity="0.5">
<path d="M64.8478 14.553L71.0438 7.20968C71.1014 7.15234 71.1553 7.09137 71.2051 7.02714L71.2623 6.95934L71.3768 6.80809C71.3768 6.78201 71.4132 6.75594 71.4288 6.72465C71.4699 6.66751 71.5081 6.60832 71.5432 6.54731L71.5901 6.46909C71.6324 6.39474 71.6706 6.31813 71.7045 6.2396C71.7163 6.22394 71.7251 6.20627 71.7305 6.18745C71.9424 5.73499 72.0559 5.24255 72.0635 4.74277C72.0583 4.26795 71.9591 3.79888 71.7716 3.36285C71.584 2.92682 71.3119 2.53251 70.971 2.20284C68.4114 -0.514417 66.4189 1.22233 65.7686 1.79081C64.2353 3.18968 62.8174 4.71061 61.5287 6.3387C61.1905 6.74551 60.8576 7.16274 60.5194 7.57476C59.8691 8.38316 59.198 9.22285 58.4905 9.98431C58.1688 10.2754 57.916 10.6348 57.7504 11.0363C57.5848 11.4378 57.5106 11.8713 57.5333 12.3052C57.5333 12.3991 57.5333 12.4877 57.5697 12.5868C57.6517 13.0363 57.8349 13.4612 58.1053 13.829C58.3758 14.1969 58.7264 14.498 59.1304 14.7095L59.2605 14.7825L59.6246 14.9442H59.6923C59.7998 14.9859 59.909 15.0224 60.02 15.0537H60.0929C60.2021 15.0798 60.3061 15.1059 60.4102 15.1215H60.4518C60.5419 15.1267 60.6322 15.1267 60.7223 15.1215H61.0709H61.1489C61.2362 15.1166 61.3231 15.1061 61.4091 15.0902H61.4663L61.6848 15.0329H61.7524C61.832 15.0098 61.9102 14.9819 61.9865 14.9494L62.0541 14.9181C62.1329 14.8869 62.2093 14.8503 62.283 14.8086H62.3195C62.3934 14.7719 62.4647 14.7301 62.5328 14.6834H62.5692L62.7929 14.5218H62.8241C63.4166 14.0183 63.9412 13.4397 64.3848 12.8007C64.5513 12.5816 64.7126 12.3678 64.8738 12.18C65.4461 11.502 66.0183 10.8031 66.5906 10.0938C67.1629 9.38453 67.7143 8.72738 68.2814 8.05458L68.6247 7.65821C69.0616 7.18003 69.4682 6.67488 69.8421 6.14573C69.8859 6.07497 69.9259 6.00183 69.9617 5.92667C69.964 5.91637 69.964 5.90569 69.9617 5.89538C70.0492 5.69196 70.0943 5.47278 70.0943 5.25127C70.0943 5.02976 70.0492 4.81058 69.9617 4.60716C69.7857 4.23362 69.5235 3.90737 69.197 3.65529C68.8705 3.40321 68.4889 3.23252 68.0837 3.15727C66.9236 2.92258 66.0808 3.92915 65.5241 4.59152C65.4582 4.67496 65.3906 4.7532 65.3212 4.82621L60.1189 10.751C60.0335 10.8554 59.9868 10.9863 59.9868 11.1213C59.9868 11.2563 60.0335 11.3872 60.1189 11.4916L60.1917 11.575C60.3083 11.6767 60.4604 11.7277 60.6145 11.717C60.7687 11.7062 60.9123 11.6345 61.0137 11.5176L66.216 5.59288L66.4345 5.34255C66.8351 4.85751 67.3918 4.20036 67.8756 4.29945C67.9325 4.30954 67.9883 4.32527 68.0421 4.34639C68.074 4.35447 68.1053 4.36493 68.1357 4.37769H68.1981C68.4895 4.49962 68.7315 4.71642 68.8848 4.99311C68.8955 5.0076 68.9042 5.02337 68.9109 5.04005C68.9506 5.10806 68.9716 5.18547 68.9716 5.26432C68.9716 5.34316 68.9506 5.42057 68.9109 5.48858C68.566 5.97299 68.1925 6.43625 67.7923 6.87589C67.6623 7.02192 67.5374 7.16274 67.4386 7.2827C66.8663 7.95549 66.3045 8.64393 65.7374 9.33238C65.1704 10.0208 64.6033 10.7145 64.031 11.4186C63.8594 11.622 63.6877 11.8462 63.5108 12.0809C62.3351 13.6456 61.4299 14.5687 59.8067 13.7499C59.5317 13.6293 59.2892 13.4448 59.0992 13.2118C58.9093 12.9787 58.7773 12.7037 58.7142 12.4095C58.6613 12.155 58.6739 11.8911 58.7506 11.6428C58.8011 11.4898 58.8748 11.3456 58.9691 11.2151C59.0142 11.1491 59.0663 11.0813 59.1252 11.0117L59.3281 10.7823C60.0564 9.99474 60.7432 9.1394 61.4091 8.31535C61.7368 7.90333 62.0698 7.49653 62.4027 7.09494C63.6553 5.51696 65.0295 4.03993 66.5126 2.67745C67.423 1.8847 68.453 1.25363 70.1126 3.01124C70.1998 3.09853 70.2798 3.1927 70.3519 3.29287L70.4091 3.37111C70.4681 3.4476 70.5201 3.52583 70.5652 3.6058C70.5652 3.6058 70.5652 3.63709 70.5912 3.65273C70.6374 3.73301 70.6774 3.8167 70.7109 3.90308L70.7577 4.02303C70.7722 4.06225 70.7844 4.10231 70.7941 4.14299C70.8432 4.31292 70.8729 4.48789 70.8826 4.66453C70.8801 5.32837 70.6252 5.96628 70.1698 6.44822L63.927 13.8281C63.852 13.9153 63.805 14.0232 63.792 14.1376C63.779 14.252 63.8007 14.3677 63.8542 14.4696C63.8532 14.4817 63.8532 14.494 63.8542 14.5061L63.8958 14.5635C63.9176 14.595 63.9439 14.6231 63.9738 14.6469C64.0349 14.7037 64.1074 14.7467 64.1865 14.773C64.2655 14.7994 64.3493 14.8084 64.4321 14.7995C64.515 14.7906 64.5949 14.764 64.6666 14.7215C64.7383 14.679 64.8001 14.6215 64.8478 14.553Z" fill="#242424"/>
</g>
<path d="M59.0887 14.0316L59.2239 14.0994C61.8251 15.4137 63.3546 13.4162 64.3639 12.1019C64.5304 11.8776 64.6968 11.669 64.8529 11.4813C65.4304 10.798 65.9974 10.1044 66.5697 9.39509C67.1419 8.68579 67.6934 8.02864 68.2604 7.35584L68.6038 6.95947C69.0424 6.47956 69.4507 5.97267 69.8264 5.44177C69.9727 5.21653 70.0599 4.95788 70.0799 4.68983C70.0999 4.42177 70.0521 4.15299 69.9408 3.90842C69.7654 3.53391 69.5035 3.20662 69.177 2.9536C68.8504 2.70058 68.4685 2.5291 68.0628 2.45331C66.9026 2.22383 66.0599 3.2252 65.5032 3.89278L65.3055 4.12747L60.1031 10.0522C60.0521 10.109 60.0129 10.1755 59.9879 10.2477C59.9628 10.3199 59.9524 10.3963 59.9573 10.4726C59.9621 10.5489 59.9821 10.6234 60.0161 10.6919C60.0501 10.7603 60.0974 10.8212 60.1552 10.8711C60.2121 10.9216 60.2785 10.9603 60.3504 10.985C60.4224 11.0097 60.4985 11.0199 60.5744 11.0151C60.6502 11.0102 60.7244 10.9904 60.7927 10.9567C60.8609 10.9231 60.9218 10.8762 60.9719 10.8189L66.1743 4.89415L66.3928 4.63859C66.7986 4.15877 67.35 3.49641 67.8338 3.5955C68.0544 3.63451 68.263 3.72397 68.4435 3.85693C68.6239 3.9899 68.7713 4.16279 68.8743 4.36217C68.9169 4.42917 68.9396 4.50698 68.9396 4.58643C68.9396 4.66589 68.9169 4.74369 68.8743 4.8107C68.5322 5.29556 68.1586 5.75727 67.7558 6.1928L67.4021 6.60482C66.8298 7.27761 66.2679 7.96605 65.7009 8.65449C65.1338 9.34294 64.5668 10.0366 63.9945 10.7094C63.8228 10.9128 63.6512 11.1423 63.4743 11.377C62.2985 12.9155 61.3933 13.8647 59.7754 13.0459C59.4988 12.9255 59.2548 12.7405 59.0639 12.5065C58.873 12.2724 58.7406 11.996 58.6777 11.7003C58.5633 11.0014 58.7765 10.6259 59.3072 10.0575C60.0355 9.2647 60.7222 8.41458 61.3881 7.59054C61.7159 7.17851 62.0488 6.7665 62.3818 6.36491C63.6331 4.78741 65.0074 3.31202 66.4916 1.95264C67.4073 1.15467 68.4321 0.523591 70.0969 2.28642C70.3315 2.50398 70.5196 2.76701 70.6498 3.05958C70.7801 3.35215 70.8497 3.66818 70.8546 3.98853C70.8595 4.30888 70.7994 4.62689 70.6781 4.9233C70.5568 5.21971 70.3768 5.48835 70.1489 5.71298L63.9061 13.0876C63.8566 13.1457 63.8191 13.2131 63.7958 13.2858C63.7724 13.3584 63.7636 13.435 63.7699 13.5112C63.7762 13.5873 63.7974 13.6614 63.8324 13.7292C63.8674 13.7971 63.9154 13.8573 63.9737 13.9065C64.0317 13.956 64.0988 13.9936 64.1713 14.0171C64.2438 14.0405 64.3202 14.0493 64.3962 14.043C64.4721 14.0367 64.546 14.0154 64.6137 13.9803C64.6814 13.9453 64.7414 13.8971 64.7905 13.8387L70.9865 6.49529C71.3151 6.16439 71.5745 5.77098 71.7494 5.33818C71.9242 4.90538 72.0111 4.44191 72.0048 3.97499C71.9985 3.50808 71.8992 3.04714 71.7127 2.61924C71.5262 2.19134 71.2563 1.8051 70.9189 1.48323C68.3541 -1.23402 66.3668 0.502726 65.7165 1.07643C64.1845 2.47479 62.7667 3.99387 61.4766 5.61909C61.1384 6.0259 60.8055 6.44314 60.4673 6.86037C59.817 7.66877 59.1459 8.50325 58.4384 9.2647C58.0788 9.5869 57.806 9.99467 57.6451 10.4504C57.4842 10.9062 57.4403 11.3952 57.5176 11.8724C57.5962 12.3292 57.7789 12.7616 58.0514 13.1361C58.3239 13.5106 58.6788 13.817 59.0887 14.0316Z" fill="#F7DB00"/>
<g style="mix-blend-mode:multiply" opacity="0.5">
<path d="M59.338 9.48393C60.0664 8.6964 60.7583 7.84107 61.419 7.01702C61.745 6.60327 62.0779 6.19645 62.4178 5.7966C63.6688 4.21883 65.0412 2.74182 66.5225 1.37912C67.4381 0.586366 68.463 -0.0447126 70.1277 1.7129C70.4321 1.98899 70.6579 2.34106 70.7822 2.73321C70.9065 3.12536 70.9248 3.54356 70.8353 3.94512C70.7945 3.32082 70.5216 2.73455 70.0705 2.30225C68.4058 0.539421 67.3809 1.1705 66.4653 1.96847C64.981 3.32785 63.6067 4.80324 62.3554 6.38074C62.0224 6.78233 61.6895 7.19435 61.3618 7.60637C60.6959 8.43041 60.0091 9.28053 59.2808 10.0733C59.0226 10.3192 58.8203 10.6181 58.6877 10.9495C58.674 10.6712 58.7258 10.3936 58.8387 10.139C58.9517 9.88447 59.1227 9.66008 59.338 9.48393ZM68.8479 4.33106L68.9156 4.23718C68.9554 4.16918 68.9763 4.09176 68.9763 4.01292C68.9763 3.93407 68.9554 3.85666 68.9156 3.78865C68.8114 3.59024 68.6636 3.41814 68.4833 3.28533C68.3031 3.15253 68.0951 3.06248 67.8751 3.02198C67.3913 2.92289 66.8346 3.58525 66.4341 4.06507C66.356 4.15895 66.2884 4.2424 66.2156 4.32063L61.0132 10.2454C60.9634 10.3031 60.9028 10.3504 60.8347 10.3845C60.7667 10.4186 60.6926 10.439 60.6167 10.4443C60.5408 10.4496 60.4646 10.4399 60.3925 10.4156C60.3203 10.3913 60.2537 10.3529 60.1964 10.3028C60.1376 10.2501 60.0899 10.1863 60.056 10.115C59.9708 10.2307 59.9321 10.3743 59.9476 10.5172C59.963 10.6602 60.0314 10.7921 60.1392 10.8869C60.1962 10.9374 60.2625 10.9761 60.3345 11.0008C60.4064 11.0255 60.4825 11.0358 60.5584 11.0309C60.6343 11.0261 60.7085 11.0062 60.7767 10.9726C60.8449 10.9389 60.9058 10.8921 60.956 10.8347L66.1583 4.90998L66.3768 4.65442C66.7826 4.1746 67.3341 3.51224 67.8179 3.61133C68.0309 3.64847 68.2332 3.73221 68.4104 3.85661C68.5875 3.981 68.7351 4.14299 68.8427 4.33106H68.8479ZM63.8797 13.14C63.7921 13.2571 63.7525 13.4033 63.7689 13.5487C63.7854 13.6942 63.8566 13.8278 63.9681 13.9223C64.0261 13.9719 64.0933 14.0094 64.1658 14.0329C64.2383 14.0563 64.3147 14.0651 64.3906 14.0588C64.4665 14.0525 64.5404 14.0312 64.6081 13.9962C64.6758 13.9611 64.7359 13.9129 64.7849 13.8545L70.9809 6.51113C71.6218 5.84721 71.9928 4.96764 72.0214 4.04421C71.8863 4.74945 71.5522 5.40106 71.059 5.92178L64.8629 13.2704C64.8139 13.3288 64.7538 13.377 64.6862 13.412C64.6185 13.4471 64.5446 13.4684 64.4686 13.4747C64.3927 13.481 64.3163 13.4722 64.2438 13.4487C64.1713 13.4253 64.1041 13.3877 64.0462 13.3382C63.973 13.2878 63.9139 13.2196 63.8745 13.14H63.8797ZM57.5172 10.8608C57.4513 11.2054 57.4513 11.5593 57.5172 11.9039C57.5992 12.3541 57.7823 12.7797 58.0527 13.1483C58.3231 13.517 58.6737 13.8192 59.0779 14.0318L59.2132 14.0996C61.4034 15.2001 62.8548 13.9744 63.8277 12.7697C63.8428 12.6775 63.8823 12.591 63.9421 12.5193L66.2988 9.72385L66.5589 9.41092C67.1208 8.72769 67.6826 8.04447 68.2497 7.37167L68.593 6.9753C69.0316 6.49539 69.44 5.9885 69.8156 5.4576C70.0012 5.16625 70.0854 4.82146 70.0549 4.47709C70.0114 4.61651 69.9502 4.74974 69.8728 4.87347C69.4959 5.40337 69.0876 5.91017 68.6503 6.39116L68.3069 6.78232C67.7398 7.45512 67.178 8.13834 66.6161 8.82157C66.0543 9.50479 65.4768 10.2141 64.8994 10.9078C64.7433 11.0955 64.582 11.3093 64.4103 11.5284C63.4011 12.8479 61.882 14.8402 59.2704 13.5311L59.1351 13.4581C58.7274 13.2481 58.3727 12.9478 58.0978 12.5801C57.8229 12.2123 57.635 11.7867 57.5484 11.3354C57.525 11.1784 57.5146 11.0196 57.5172 10.8608Z" fill="#F7DB00"/>
</g>
<g style="mix-blend-mode:screen">
<g style="mix-blend-mode:screen">
<path d="M71.673 4.46116C71.6002 4.78973 71.3816 5.014 71.184 4.9827C70.9863 4.95141 70.8718 4.6437 70.9394 4.32035C71.0071 3.99699 71.2256 3.76751 71.4285 3.7988C71.6314 3.83009 71.7406 4.1378 71.673 4.46116ZM71.3713 2.94346C71.2464 2.96954 71.1892 3.14686 71.236 3.33983C71.2828 3.5328 71.4181 3.66319 71.5377 3.6319C71.6574 3.60061 71.7146 3.42329 71.6678 3.23553C71.621 3.04777 71.4857 2.91217 71.3713 2.94346Z" fill="#F7DB00"/>
</g>
</g>
<g style="mix-blend-mode:screen">
<g style="mix-blend-mode:screen">
<path d="M57.8659 10.292C57.9231 9.9634 58.1312 9.72871 58.3341 9.77043C58.537 9.81215 58.6566 10.099 58.5994 10.4276C58.5422 10.7561 58.3341 10.9908 58.1312 10.9491C57.9283 10.9074 57.8086 10.6153 57.8659 10.292ZM58.2248 11.7992C58.3445 11.768 58.3965 11.5854 58.3393 11.3977C58.282 11.2099 58.152 11.0795 58.0323 11.116C57.9127 11.1525 57.8607 11.3246 57.9179 11.5176C57.9751 11.7106 58.1052 11.8305 58.2248 11.7992Z" fill="#F7DB00"/>
</g>
</g>
<path d="M96.2747 14.3447C96.5617 15.0723 96.8971 15.7797 97.2788 16.4622C97.8783 16.839 98.5022 17.1753 99.1464 17.4688C98.5032 17.7623 97.8794 18.0968 97.2788 18.4702C96.8971 19.1526 96.5617 19.8601 96.2747 20.5876C95.9898 19.86 95.656 19.1526 95.2758 18.4702C94.6753 18.0968 94.0514 17.7623 93.4082 17.4688C94.0524 17.1753 94.6763 16.839 95.2758 16.4622C95.656 15.7798 95.9898 15.0723 96.2747 14.3447Z" fill="white"/>
<path d="M96.3168 14.3394C96.4053 14.501 96.4885 14.6679 96.577 14.8609L96.8319 15.3564L97.092 15.8466C97.1336 15.9301 97.1752 16.0135 97.2221 16.0917C97.2689 16.17 97.3157 16.2586 97.3573 16.3108L97.3885 16.3525L97.503 16.436L97.7267 16.5611C97.888 16.6446 98.0492 16.7333 98.2157 16.8115L98.7099 17.0618L99.2042 17.3174C99.2226 17.3262 99.2391 17.3387 99.2526 17.3542C99.2661 17.3696 99.2763 17.3876 99.2826 17.4071C99.289 17.4266 99.2913 17.4473 99.2894 17.4677C99.2875 17.4881 99.2816 17.508 99.2718 17.526C99.2653 17.5434 99.2549 17.559 99.2413 17.5717C99.2278 17.5844 99.2115 17.5937 99.1937 17.599C98.8556 17.745 98.5122 17.8911 98.1533 18.0475L97.633 18.2822L97.3937 18.4178L97.2845 18.4909L97.2429 18.5482C97.1893 18.6222 97.1423 18.7007 97.1024 18.7829C97.0584 18.8625 97.0184 18.9444 96.9827 19.0281C96.8995 19.195 96.8267 19.3618 96.7538 19.5496C96.6082 19.8938 96.4781 20.2433 96.3481 20.5927C96.3387 20.618 96.3199 20.6386 96.2956 20.6503C96.2714 20.6619 96.2436 20.6637 96.218 20.6553C96.1935 20.6451 96.1732 20.6266 96.1608 20.6031L95.677 19.5965C95.5937 19.4296 95.5157 19.2627 95.4272 19.075L95.3024 18.8351C95.2816 18.7839 95.259 18.7335 95.2348 18.6838L95.2035 18.6421L95.0891 18.5639L94.8706 18.4387L94.3868 18.1884L93.3879 17.6981C93.3403 17.6725 93.3041 17.6297 93.2867 17.5784C93.2693 17.5271 93.272 17.4711 93.2943 17.4217C93.3161 17.3804 93.3508 17.3474 93.3931 17.3278C93.7313 17.1766 94.0642 17.0097 94.3972 16.8532L94.8862 16.6029L95.1203 16.4725L95.2139 16.4099V16.3838L95.2556 16.3264C95.3051 16.2563 95.3503 16.1831 95.3908 16.1074C95.4376 16.0344 95.4793 15.9509 95.5261 15.8727L95.7862 15.3824L96.3064 14.3863H96.3324L96.3168 14.3394ZM96.3168 14.4072C96.27 14.5688 96.2128 14.7253 96.1608 14.887C96.1087 15.0487 96.0359 15.2416 95.9683 15.4085C95.9007 15.5754 95.833 15.758 95.755 15.9301C95.7186 16.0187 95.6874 16.1022 95.6405 16.1961C95.599 16.2874 95.5521 16.3763 95.5001 16.4621L95.4637 16.5194C95.4376 16.5507 95.4637 16.5194 95.4637 16.5194L95.3336 16.6237L95.0891 16.7854L94.6001 17.0618C94.2671 17.2496 93.9342 17.4113 93.6012 17.5834V17.2131C93.9394 17.3747 94.2723 17.5364 94.6053 17.7346L95.0995 18.011L95.3596 18.1779L95.4689 18.2614V18.2979L95.5209 18.3709C95.5768 18.4563 95.6272 18.5451 95.6717 18.6369C95.7134 18.7256 95.755 18.809 95.7914 18.8977C95.8694 19.0698 95.9423 19.2419 96.0151 19.4192C96.1556 19.7634 96.2856 20.1181 96.4105 20.4623H96.218L96.6966 19.4505C96.7799 19.2836 96.8527 19.1115 96.9359 18.929C96.9775 18.8455 97.014 18.7621 97.066 18.6734C97.1045 18.5856 97.1516 18.5017 97.2065 18.4231L97.2429 18.3657V18.3344C97.2429 18.3344 97.2429 18.3344 97.2741 18.3083L97.3937 18.2144L97.633 18.058L98.1117 17.7659C98.4394 17.5782 98.762 17.3956 99.0949 17.2444V17.5312C98.7516 17.3852 98.4134 17.2235 98.0857 17.0462L97.5914 16.7698L97.3313 16.6081L97.2272 16.5194L97.2012 16.4829L97.1544 16.4151C97.0997 16.3309 97.0527 16.2419 97.014 16.1491C96.9671 16.0605 96.9307 15.977 96.8943 15.8883C96.8163 15.7162 96.7486 15.5441 96.681 15.3668C96.6134 15.1895 96.551 15.0174 96.4937 14.8453C96.4365 14.6731 96.3481 14.5688 96.2752 14.4072H96.3168Z" fill="#D2D2D2"/>
<path d="M66.7307 38.7998C67.0155 39.5284 67.351 40.2359 67.7348 40.9173C68.3355 41.2921 68.9593 41.6283 69.6025 41.9239C68.9592 42.2174 68.3354 42.5518 67.7348 42.9252C67.351 43.6066 67.0155 44.3142 66.7307 45.0427C66.446 44.3142 66.1105 43.6066 65.7267 42.9252C65.1284 42.551 64.5062 42.2165 63.8643 41.9239C64.5072 41.6313 65.1295 41.295 65.7267 40.9173C66.1105 40.2359 66.446 39.5284 66.7307 38.7998Z" fill="white"/>
<path d="M66.746 38.7944C66.8396 38.9561 66.9229 39.123 67.0061 39.2899L67.2662 39.8114L67.5212 40.3017C67.568 40.3851 67.6096 40.4686 67.6564 40.5468C67.6968 40.6226 67.742 40.6958 67.7917 40.7658L67.8229 40.8076L67.9373 40.891L68.161 41.0162C68.3171 41.0996 68.4836 41.1883 68.6501 41.2665L69.1703 41.5169L69.6645 41.7724C69.6835 41.7808 69.7005 41.7929 69.7145 41.8082C69.7285 41.8234 69.7393 41.8413 69.7461 41.8609C69.7529 41.8804 69.7557 41.9012 69.7542 41.9219C69.7527 41.9425 69.747 41.9627 69.7374 41.981C69.73 41.9979 69.7192 42.013 69.7058 42.0256C69.6924 42.0381 69.6766 42.0478 69.6593 42.0541C69.3212 42.2001 68.9778 42.3461 68.6189 42.5026C68.4472 42.5756 68.2807 42.659 68.0986 42.7373L67.8593 42.8729L67.7553 42.9459V42.9772L67.7136 43.0346C67.6635 43.1098 67.6183 43.1882 67.5784 43.2693C67.5326 43.3488 67.4909 43.4306 67.4535 43.5144C67.3755 43.6813 67.2975 43.8482 67.2246 44.0359C67.079 44.3802 66.9541 44.7296 66.824 45.079C66.8136 45.1047 66.7938 45.1254 66.7687 45.137C66.7436 45.1486 66.715 45.1503 66.6888 45.1416C66.6642 45.1314 66.644 45.113 66.6315 45.0895L66.1529 44.0829L65.9032 43.5874C65.8616 43.5092 65.82 43.4205 65.7732 43.3475C65.7356 43.2712 65.6921 43.1979 65.6431 43.1284L65.6171 43.0867L65.5026 43.0085L65.2841 42.8833C65.1229 42.7999 64.9616 42.7112 64.7951 42.633L63.8015 42.1427C63.7769 42.131 63.755 42.1146 63.7369 42.0942C63.7189 42.0739 63.7051 42.0501 63.6963 42.0244C63.6876 41.9986 63.6841 41.9713 63.6861 41.9442C63.6881 41.917 63.6954 41.8905 63.7078 41.8663C63.7283 41.824 63.7634 41.7906 63.8067 41.7724C64.1396 41.6212 64.4726 41.4543 64.8055 41.2978L65.2997 41.0475L65.5339 40.9171L65.6275 40.8545V40.8284L65.6691 40.7711C65.7202 40.7009 65.7671 40.6278 65.8096 40.552L65.9396 40.3173C66.0333 40.1556 66.1165 39.9887 66.1998 39.8218L66.72 38.8309H66.746C66.746 38.8309 66.746 38.7892 66.746 38.7944ZM66.746 38.8622C66.694 39.0239 66.642 39.1803 66.5847 39.342C66.5275 39.5037 66.4651 39.6967 66.3922 39.8636C66.3194 40.0305 66.257 40.213 66.1841 40.3851C66.1477 40.4738 66.1113 40.5572 66.0645 40.6511C66.025 40.7435 65.9781 40.8325 65.924 40.9171L65.8876 40.9745V41.0005C65.8876 41.0318 65.8876 41.0005 65.8876 41.0005L65.7628 41.1048L65.5182 41.2665L64.998 41.5429C64.6703 41.7255 64.3373 41.8924 63.9991 42.0645V41.6942C64.3373 41.8559 64.6755 42.0175 65.0032 42.2157C65.1749 42.3044 65.3362 42.3983 65.5235 42.4922L65.7836 42.6591L65.8928 42.7425V42.779L65.9396 42.852C65.9994 42.935 66.05 43.0241 66.0905 43.118C66.1373 43.2067 66.1737 43.2901 66.2154 43.3788C66.2934 43.5509 66.361 43.723 66.4339 43.9003C66.5795 44.2446 66.7044 44.5992 66.8344 44.9434H66.6211L67.0998 43.9316C67.183 43.7647 67.261 43.5926 67.3443 43.4101C67.3859 43.3266 67.4223 43.2432 67.4691 43.1545C67.5117 43.0688 67.5586 42.9852 67.6096 42.9042L67.6512 42.8468V42.8155C67.6512 42.8155 67.6772 42.8155 67.6876 42.8155L67.8021 42.7216L68.0414 42.5652L68.5252 42.2731C68.8478 42.0853 69.1755 41.9028 69.5033 41.7516V42.0384C69.1651 41.8872 68.827 41.7307 68.494 41.5534L67.9998 41.277L67.7449 41.1153L67.6356 41.0266L67.6096 40.9901L67.5628 40.9223C67.5065 40.8381 67.4578 40.7491 67.4171 40.6563C67.3755 40.5677 67.3391 40.4842 67.3027 40.3955C67.2246 40.2234 67.157 40.0513 67.0894 39.874C67.0217 39.6967 66.9593 39.5246 66.8969 39.3525C66.8344 39.1803 66.7772 39.0239 66.7304 38.8622H66.746Z" fill="#D2D2D2"/>
</svg>
