<svg width="147" height="79" viewBox="0 0 147 79" fill="none" xmlns="http://www.w3.org/2000/svg">
<path d="M-35.4854 18.7147H10.5884C10.5884 18.7147 7.09907 8.22233 -1.27539 13.4721C-1.27539 13.4721 -3.02007 4.37774 -10.7038 3.67873C-18.3875 2.97972 -20.1322 10.3265 -20.1322 10.3265C-20.1322 10.3265 -33.0428 7.87281 -35.4854 18.7147Z" fill="#D5F9FD"/>
<path opacity="0.2" d="M7.76133 17.2314C6.23889 17.2164 4.75241 16.766 3.47693 15.9332C2.20145 15.1005 1.19007 13.92 0.561867 12.5309C-0.0794563 12.7846 -0.694748 13.0999 -1.27539 13.4724C-1.4998 12.4676 -1.82425 11.4879 -2.24387 10.5479C-2.61989 11.7715 -3.28705 12.8852 -4.18794 13.7934C-5.67284 15.2748 -7.68225 16.108 -9.77803 16.1115C-11.8717 16.1077 -13.8787 15.2743 -15.361 13.7934C-16.8376 12.3074 -17.6693 10.2978 -17.6754 8.20126C-17.7008 7.386 -17.595 6.57194 -17.362 5.79038C-17.358 5.76438 -17.358 5.73791 -17.362 5.71191C-18.6949 6.968 -19.6622 8.56307 -20.1607 10.3268C-20.1607 10.3268 -20.6591 10.2341 -21.4709 10.1628C-21.7771 11.6792 -22.5198 13.0727 -23.6073 14.1714L-23.7924 14.3569C-25.2747 15.8378 -27.2818 16.6712 -29.3754 16.675C-31.0623 16.6665 -32.7029 16.1221 -34.0611 15.1201C-34.733 16.22 -35.2145 17.4258 -35.4854 18.6865H10.5884C10.3737 18.0773 10.1118 17.4858 9.80511 16.9175C9.14159 17.1162 8.45379 17.2218 7.76133 17.2314Z" fill="#66ECFB"/>
<path d="M10.182 17.9154C10.0324 17.9868 9.29183 16.3819 8.18805 15.0623C7.70975 14.4871 7.14805 13.987 6.5217 13.5787C6.32701 13.4344 6.11682 13.3124 5.89504 13.2149L5.65292 13.0937L5.58883 13.058C5.5337 13.0196 5.47387 12.9884 5.4108 12.9653C5.25414 12.9082 5.03338 12.8012 4.74854 12.7014C4.03909 12.4958 3.29921 12.4161 2.56235 12.466C2.35931 12.4811 2.15725 12.5073 1.95705 12.5444C1.75054 12.5872 1.54402 12.5944 1.35887 12.6514C0.981453 12.7584 0.646762 12.8298 0.304947 12.9367C-0.30035 13.1436 -0.727618 13.2648 -0.763224 13.2007C-0.79883 13.1365 -0.435654 12.8797 0.141159 12.5373C0.478541 12.3566 0.825631 12.1947 1.18084 12.0523C1.37312 11.9667 1.58675 11.9239 1.80039 11.8526C2.01402 11.7812 2.23478 11.717 2.46265 11.6885C3.30682 11.5231 4.17498 11.5231 5.01914 11.6885C5.36095 11.7741 5.6458 11.8811 5.84519 11.9453C5.9223 11.967 5.99644 11.9981 6.06595 12.038L6.14428 12.0737L6.42913 12.2377C6.68018 12.381 6.91843 12.5456 7.14124 12.7299C7.80183 13.262 8.37181 13.8979 8.82895 14.6129C9.83303 16.1465 10.3102 17.8584 10.182 17.9154Z" fill="white"/>
<g style="mix-blend-mode:multiply">
<path d="M112.791 66.09C112.962 65.9117 113.133 65.7191 113.297 65.5336L113.61 65.1841L114.18 64.4708L114.379 64.2283C114.621 63.9145 114.856 63.6006 115.091 63.2797L115.334 62.923C115.483 62.709 115.633 62.4951 115.775 62.2739L116.046 61.846C116.167 61.6462 116.295 61.4394 116.409 61.2397L116.68 60.7832C116.793 60.5763 116.907 60.3695 117.014 60.1626L117.256 59.7061C117.37 59.4779 117.477 59.2496 117.584 58.9928C117.691 58.7361 117.719 58.7147 117.783 58.572C117.947 58.2154 118.097 57.8587 118.246 57.4878C118.296 57.3666 118.339 57.2453 118.381 57.1241C118.481 56.8673 118.581 56.6034 118.673 56.3466C118.766 56.0898 118.78 56.0185 118.837 55.8473L119.051 55.1768L119.2 54.649C119.264 54.4279 119.321 54.1996 119.378 53.9785L119.507 53.4435L119.656 52.7303C119.656 52.5591 119.727 52.3879 119.756 52.2167C119.806 51.9314 119.848 51.6389 119.891 51.3465C120.241 48.9673 120.277 46.5524 119.998 44.1638C119.45 39.5776 117.745 35.2067 115.044 31.463C112.343 27.7193 108.735 24.726 104.559 22.7654L104.922 21.2532L113.212 23.2433C113.283 22.9081 113.34 22.53 113.382 22.2304C113.382 22.1235 113.382 22.0165 113.382 21.9095C113.382 21.6741 113.425 21.4316 113.432 21.1962C113.432 21.0892 113.432 20.9751 113.432 20.8681C113.432 20.54 113.432 20.219 113.432 19.9051C113.269 17.9078 112.583 15.9886 111.445 14.3409C110.306 12.6931 108.754 11.3747 106.945 10.5184C106.977 10.3248 106.977 10.1271 106.945 9.93351C106.877 9.37241 106.59 8.86097 106.147 8.51084C105.705 8.16071 105.141 8.00034 104.581 8.06472C104.186 8.11616 103.814 8.27696 103.505 8.52901C103.197 8.78106 102.965 9.11433 102.836 9.49128C100.758 9.35129 98.6816 9.79337 96.84 10.768H96.7759C96.3988 10.972 96.0328 11.1958 95.6793 11.4385L95.5867 11.5027C95.4229 11.6168 95.2662 11.731 95.1096 11.8594C94.9529 11.9877 94.9387 11.9877 94.8603 12.0591C94.6538 12.2303 94.4473 12.4157 94.2479 12.6012L93.899 12.9507L93.5999 13.2717C93.4646 13.4286 93.3293 13.5855 93.2011 13.7496L92.9732 14.0491C92.8094 14.2631 92.6599 14.4842 92.5175 14.7125C92.4605 14.7981 92.4107 14.8908 92.3537 14.9835C92.201 15.2307 92.0608 15.4855 91.9335 15.7467L91.8908 15.8252C91.7484 16.1176 91.6273 16.4243 91.5063 16.7311C91.5063 16.8095 91.4493 16.888 91.4137 16.9736C91.3069 17.2874 91.2001 17.6084 91.1146 17.9436L99.9875 20.0835L99.7525 21.0464C96.4989 20.21 93.119 19.9827 89.783 20.3759C88.84 20.4894 87.9036 20.6513 86.9772 20.8609L86.8918 20.1477C88.608 19.7126 89.7402 19.0777 89.6833 18.5071C89.6715 18.4346 89.6422 18.366 89.5978 18.3074V18.2717C89.5414 18.2019 89.4741 18.1416 89.3984 18.0934C88.6863 17.6013 86.6781 17.3801 84.4136 17.6868C81.9782 17.9722 80.0056 18.6854 79.5427 19.3845C79.508 19.4371 79.4816 19.4949 79.4644 19.5556C79.4505 19.6119 79.4505 19.6706 79.4644 19.7268C79.5356 20.2974 80.7961 20.647 82.5621 20.6684L82.7473 22.209C82.4624 22.3232 82.1847 22.4373 81.9141 22.5585L81.5936 22.6299C81.2305 22.7012 80.8815 22.7725 80.5255 22.8581L80.0056 22.9865C79.6567 23.0792 79.2935 23.172 78.9731 23.279L78.5102 23.4216C78.0972 23.55 77.6912 23.6927 77.2925 23.8425L77.0788 23.9209C76.5875 24.1064 76.1032 24.3132 75.6546 24.5272L75.4837 24.6057C75.0707 24.7911 74.6719 24.9908 74.2802 25.1977L73.9669 25.3689C73.6108 25.5615 73.2548 25.7612 72.913 25.968L72.6281 26.1392C72.2341 26.3817 71.8495 26.6314 71.4745 26.8882H71.4389L70.7268 25.9252L77.5061 20.754C77.2823 20.4849 77.0446 20.2278 76.794 19.9836L76.5732 19.7554C76.4023 19.5842 76.2243 19.4201 76.0463 19.2632L75.8042 19.0492C75.5478 18.8424 75.2914 18.6426 75.0279 18.4572C73.2766 17.254 71.2245 16.565 69.103 16.468C66.9815 16.3709 64.8752 16.8697 63.0217 17.908C62.7944 17.649 62.508 17.449 62.1868 17.3248C61.8657 17.2006 61.5194 17.156 61.1773 17.1947C60.6172 17.2626 60.1066 17.5497 59.757 17.9934C59.4074 18.4371 59.2473 19.0013 59.3116 19.5628C59.3615 19.9605 59.5218 20.3361 59.7745 20.647C59.0712 21.5071 58.5021 22.4691 58.0867 23.5001C57.825 24.1485 57.6224 24.8194 57.4815 25.5044V25.5971C57.4036 26.0029 57.3465 26.4124 57.3105 26.824C57.3105 26.8739 57.3105 26.9238 57.3105 26.9737C57.3105 27.1663 57.3105 27.3661 57.3105 27.5586V27.901C57.3105 28.1578 57.3105 28.4217 57.3105 28.6785C57.3105 28.9353 57.3106 29.028 57.3604 29.1992C57.4102 29.3704 57.3604 29.4845 57.4174 29.62C57.4743 29.7555 57.4957 30.048 57.5384 30.2548C57.5812 30.4617 57.5883 30.476 57.6168 30.5901C57.6832 30.8564 57.7615 31.1203 57.8517 31.3818C57.8517 31.4817 57.9159 31.5744 57.9515 31.6743C58.0512 31.9524 58.158 32.2235 58.279 32.4945V32.5659C58.4143 32.8654 58.571 33.1579 58.7348 33.4432L58.863 33.6643C59.0339 33.9496 59.219 34.2349 59.4184 34.5131L66.6749 28.9781L67.5508 30.1264C64.6643 33.0337 62.4719 36.5573 61.1376 40.4334C59.8032 44.3096 59.3616 48.4378 59.8457 52.5091C60.0012 53.7458 60.2391 54.9706 60.5578 56.1754C60.6575 56.5606 60.7714 56.9386 60.8854 57.3166V57.4094C60.9993 57.7731 61.1204 58.1227 61.2485 58.4936C61.2485 58.4936 61.2485 58.5649 61.2841 58.6005C61.4123 58.9572 61.5476 59.3138 61.6972 59.6633C61.6954 59.6942 61.6954 59.7252 61.6972 59.7561C61.8467 60.1056 61.9963 60.4693 62.16 60.8046C62.1575 60.8235 62.1575 60.8427 62.16 60.8616C63.3435 63.3889 64.9096 65.7179 66.803 67.7662L66.8529 67.8232C67.0879 68.0729 67.33 68.3225 67.565 68.5365L67.7217 68.6934C67.9424 68.9146 68.1774 69.1285 68.4338 69.3425L68.6616 69.5423C68.8824 69.742 69.1103 69.9417 69.3382 70.1271L69.6088 70.3554C69.8295 70.5408 70.0574 70.712 70.2853 70.8904L70.5915 71.1186C70.8194 71.2898 71.0401 71.4538 71.3036 71.6108L71.6454 71.839L72.3575 72.2955L72.7207 72.5095L73.4328 72.9303C73.5539 73.0017 73.6749 73.0587 73.7889 73.13L74.501 73.5223L74.7716 73.6507C75.2772 73.9075 75.7899 74.1429 76.3169 74.364C76.4522 74.4139 76.5804 74.4781 76.7157 74.5352L77.3352 74.7635C77.5203 74.8348 77.7126 74.9132 77.9049 74.9774L78.4959 75.17L79.1155 75.3697L79.7065 75.5338L80.3474 75.705L80.9385 75.8405L81.6079 75.976L82.1918 76.0901L82.9039 76.1971L83.4879 76.2756L84.2 76.3541L84.7768 76.404L85.5245 76.4539H86.08H87.3974C87.6965 76.4539 87.9884 76.4539 88.2875 76.4111H88.729C89.1705 76.4111 89.6192 76.3398 90.0607 76.2899C90.5022 76.2399 90.9366 76.1758 91.3638 76.1044L91.784 76.026C92.076 75.9689 92.3608 75.919 92.6456 75.8548L93.137 75.7406C93.3934 75.6764 93.6497 75.6194 93.899 75.5481L94.4046 75.4054L95.1167 75.1843L95.608 75.0202L96.3202 74.7563L96.783 74.5851L97.5806 74.2499L97.9438 74.093H97.9794L98.7912 73.936L99.1045 73.8647L99.3395 73.8077L100.052 73.6293L100.515 73.5009H100.636L101.305 73.287L101.732 73.1514C102.038 73.0516 102.345 72.9375 102.651 72.8233L102.914 72.7235L103.334 72.5523H103.37L104.082 72.2598L104.381 72.1172C104.659 71.9959 104.937 71.8604 105.207 71.7249L105.606 71.518C105.841 71.3968 106.076 71.2755 106.318 71.14C106.56 71.0045 106.596 70.9831 106.738 70.9046L107.401 70.5052L107.792 70.2555L108.504 69.7919L108.825 69.5637C109.152 69.3283 109.48 69.0929 109.8 68.8504L109.943 68.7291C110.213 68.5151 110.477 68.3011 110.74 68.0729L111.068 67.7876L111.645 67.2598L111.994 66.9245L112.521 66.3967L112.791 66.09Z" fill="#D2D2D2"/>
</g>
<path d="M89.6385 17.3978L85.2471 17.9199L85.7398 22.0777L90.1312 21.5555L89.6385 17.3978Z" fill="#D2D2D2"/>
<path d="M92.5455 16.7603C92.6381 17.5449 90.4091 18.4651 87.5607 18.8003C84.7122 19.1355 82.348 18.8003 82.2483 17.98C82.1486 17.1597 84.3847 16.2753 87.2331 15.94C90.0816 15.6048 92.4529 15.9686 92.5455 16.7603Z" fill="white"/>
<path opacity="0.3" d="M92.2463 16.3467C91.7834 17.06 89.8037 17.7732 87.3683 18.0443C85.0824 18.3153 83.0956 18.1299 82.3835 17.6377C82.3101 17.7364 82.2725 17.8571 82.2767 17.9801C82.3764 18.7718 84.7477 19.1356 87.5891 18.8004C90.4304 18.4651 92.6522 17.545 92.5739 16.7604C92.5549 16.6707 92.5155 16.5867 92.4587 16.5149C92.4018 16.4431 92.3291 16.3855 92.2463 16.3467Z" fill="#D2D2D2"/>
<path d="M109.822 8.17978C109.884 8.73905 109.724 9.30043 109.376 9.74232C109.028 10.1842 108.521 10.4711 107.963 10.5407C107.404 10.6052 106.841 10.4458 106.399 10.0972C105.956 9.74854 105.668 9.23888 105.599 8.67908C105.535 8.11757 105.695 7.5534 106.044 7.10972C106.394 6.66604 106.904 6.3789 107.465 6.31099C108.024 6.24862 108.585 6.40993 109.027 6.75986C109.468 7.10979 109.754 7.62007 109.822 8.17978Z" fill="white"/>
<path d="M103.435 15.9966L100.326 28.9883L105.236 30.1671L108.345 17.1755L103.435 15.9966Z" fill="#F79000"/>
<path d="M103.4 16.0161L100.291 29.0078L102.742 29.5964L105.852 16.6047L103.4 16.0161Z" fill="#F27521"/>
<path d="M116.06 21.4893C116.686 18.582 116.155 15.5446 114.578 13.0239C113.002 10.5033 110.506 8.69852 107.621 7.99402C104.729 7.30071 101.681 7.77164 99.1327 9.30553C96.5839 10.8394 94.7378 13.3138 93.9912 16.1967L116.06 21.4893Z" fill="#FFD101"/>
<g style="mix-blend-mode:multiply" opacity="0.7">
<path d="M109.074 19.2138C106.549 18.6011 104.369 17.0142 103.007 14.7986C101.801 12.8196 101.33 10.4788 101.675 8.18652C99.8165 8.75073 98.1339 9.78364 96.7884 11.1862C95.443 12.5888 94.4798 14.3141 93.9912 16.1966L116.067 21.4892C116.308 20.3915 116.384 19.2641 116.295 18.1439C114.113 19.4138 111.529 19.7968 109.074 19.2138Z" fill="#FAC511"/>
</g>
<path d="M110.84 11.2542C110.812 11.3719 110.76 11.4827 110.689 11.5805C110.618 11.6782 110.528 11.7609 110.425 11.8239C110.322 11.8868 110.207 11.9288 110.088 11.9473C109.968 11.9658 109.846 11.9606 109.729 11.9319C109.612 11.9034 109.501 11.852 109.403 11.7807C109.306 11.7094 109.223 11.6194 109.16 11.5161C109.098 11.4127 109.056 11.2979 109.037 11.1784C109.019 11.0588 109.024 10.9367 109.053 10.8191C109.081 10.7015 109.132 10.5906 109.204 10.4929C109.275 10.3951 109.365 10.3124 109.468 10.2495C109.571 10.1866 109.685 10.1446 109.805 10.1261C109.924 10.1076 110.046 10.1128 110.164 10.1415C110.281 10.17 110.392 10.2213 110.489 10.2927C110.587 10.364 110.669 10.4539 110.732 10.5573C110.795 10.6607 110.837 10.7754 110.855 10.895C110.874 11.0146 110.869 11.1367 110.84 11.2542Z" fill="white"/>
<path d="M113.73 15.0051C113.681 15.2141 113.591 15.4112 113.465 15.5853C113.34 15.7594 113.181 15.907 112.999 16.0196C112.816 16.1322 112.613 16.2077 112.402 16.2417C112.19 16.2757 111.974 16.2675 111.765 16.2176C111.345 16.1162 110.982 15.8518 110.757 15.4827C110.531 15.1136 110.461 14.6699 110.562 14.249C110.611 14.0402 110.701 13.8432 110.827 13.6694C110.952 13.4956 111.111 13.3485 111.294 13.2364C111.476 13.1244 111.679 13.0496 111.891 13.0165C112.103 12.9834 112.319 12.9926 112.527 13.0436C112.735 13.093 112.931 13.183 113.104 13.3084C113.277 13.4338 113.423 13.5921 113.535 13.7743C113.647 13.9565 113.721 14.159 113.755 14.3702C113.789 14.5814 113.78 14.7971 113.73 15.0051Z" fill="white"/>
<path d="M116.622 44.3782C117.471 51.5477 115.442 58.7616 110.982 64.433C106.522 70.1045 99.9951 73.7693 92.8374 74.6212C89.2926 75.0434 85.6996 74.762 82.2634 73.7932C78.8272 72.8244 75.6152 71.1871 72.8107 68.9749C70.0063 66.7627 67.6644 64.0188 65.9187 60.8999C64.173 57.781 63.0578 54.3483 62.6366 50.7977C61.7875 43.6282 63.8162 36.4144 68.2765 30.7429C72.7369 25.0714 79.2636 21.4066 86.4213 20.5547C89.966 20.1325 93.5591 20.4139 96.9953 21.3827C100.431 22.3515 103.643 23.9888 106.448 26.201C109.252 28.4133 111.594 31.1572 113.34 34.276C115.086 37.3949 116.201 40.8276 116.622 44.3782Z" fill="#A3143A"/>
<g style="mix-blend-mode:multiply" opacity="0.5">
<path d="M73.4251 33.7717C82.2126 32.7018 91.0285 31.9457 99.873 31.5035C103.654 31.318 107.443 31.1825 111.231 31.0684C108.366 27.3059 104.57 24.3572 100.219 22.5133C95.8683 20.6695 91.1123 19.9944 86.4212 20.5546C82.0921 21.068 77.9501 22.6182 74.3455 25.0739C70.741 27.5297 67.78 30.8189 65.7129 34.6633C68.286 34.397 70.8567 34.0998 73.4251 33.7717Z" fill="#DC3258"/>
</g>
<g style="mix-blend-mode:multiply" opacity="0.5">
<path d="M97.9651 50.9904C88.7076 51.561 79.4928 52.638 70.2567 53.6794C68.0207 53.9362 65.6921 54.2287 63.335 54.464C64.9935 60.8259 68.8946 66.3717 74.3176 70.0768C79.7406 73.782 86.3191 75.3962 92.8378 74.6213C98.9954 73.8871 104.717 71.0661 109.054 66.6263C113.391 62.1866 116.081 56.3951 116.679 50.2129C110.42 50.3769 104.196 50.6123 97.9651 50.9904Z" fill="#DC3258"/>
</g>
<path d="M122.846 42.438C123.695 49.6076 121.667 56.8214 117.206 62.4929C112.746 68.1644 106.219 71.8291 99.0614 72.6811C95.5169 73.1041 91.9239 72.8234 88.4878 71.8549C85.0517 70.8864 81.8398 69.2491 79.0357 67.0366C76.2316 64.8241 73.8903 62.0798 72.1457 58.9605C70.401 55.8413 69.2872 52.4082 68.8678 48.8575C68.4464 45.3074 68.7274 41.7088 69.6947 38.2675C70.662 34.8261 72.2967 31.6093 74.5054 28.8009C76.7141 25.9924 79.4535 23.6473 82.5672 21.8995C85.6809 20.1517 89.1079 19.0354 92.6524 18.6145C99.8102 17.7639 107.012 19.796 112.674 24.2636C118.337 28.7312 121.995 35.2687 122.846 42.438Z" fill="#DC3258"/>
<path d="M100.236 72.0034C96.6914 72.4255 93.0983 72.1442 89.6621 71.1754C86.2259 70.2066 83.0139 68.5693 80.2095 66.357C77.405 64.1448 75.0631 61.4009 73.3174 58.282C71.5717 55.1632 70.4565 51.7304 70.0354 48.1798C69.4207 43.0049 70.3017 37.7619 72.5738 33.0737C74.846 28.3854 78.4137 24.4488 82.8534 21.7314C78.0824 24.3306 74.1981 28.3018 71.7015 33.1329C69.2048 37.964 68.2103 43.4335 68.8461 48.8361C69.2655 52.3867 70.3793 55.8198 72.124 58.9391C73.8687 62.0583 76.21 64.8026 79.014 67.0151C81.8181 69.2276 85.03 70.8649 88.4661 71.8334C91.9023 72.8019 95.4953 73.0827 99.0398 72.6596C102.919 72.2008 106.653 70.9062 109.985 68.8649C106.965 70.5246 103.656 71.59 100.236 72.0034Z" fill="#FFD101"/>
<g style="mix-blend-mode:multiply" opacity="0.5">
<path d="M101.646 64.2219C94.4878 65.0725 87.285 63.0407 81.6216 58.5732C75.9582 54.1057 72.298 47.5683 71.4457 40.3984C71.1769 38.1299 71.1937 35.8366 71.4955 33.5723C69.1509 38.2969 68.2375 43.6054 68.8678 48.8436C69.2872 52.3942 70.401 55.8273 72.1457 58.9466C73.8904 62.0659 76.2316 64.8102 79.0357 67.0226C81.8398 69.2351 85.0517 70.8724 88.4878 71.8409C91.9239 72.8094 95.5169 73.0902 99.0614 72.6671C105.051 71.9531 110.634 69.2642 114.931 65.0236C119.228 60.783 121.995 55.2315 122.796 49.243C120.797 53.3076 117.814 56.8069 114.121 59.423C110.427 62.039 106.139 63.6886 101.646 64.2219Z" fill="#DC3258"/>
</g>
<path d="M118.602 42.9447C118.957 45.9366 118.72 48.9692 117.904 51.8692C117.089 54.7693 115.711 57.4801 113.849 59.8467C111.988 62.2133 109.679 64.1894 107.055 65.6622C104.431 67.135 101.543 68.0756 98.5559 68.4302C92.5238 69.1481 86.4539 67.437 81.6811 63.673C76.9084 59.909 73.8235 54.4004 73.105 48.3585C72.7481 45.3652 72.9836 42.3307 73.798 39.4286C74.6125 36.5264 75.9898 33.8134 77.8515 31.4447C79.7131 29.0759 82.0225 27.0978 84.6476 25.6234C87.2728 24.149 90.1623 23.2071 93.151 22.8517C99.1861 22.136 105.258 23.8508 110.031 27.6189C114.804 31.387 117.887 36.8998 118.602 42.9447Z" fill="white"/>
<path opacity="0.3" d="M105.947 55.1626C99.9163 55.8764 93.8491 54.1623 89.0793 50.3973C84.3095 46.6322 81.2275 41.1241 80.5105 35.0838C80.2511 32.8827 80.3111 30.6556 80.6886 28.4717C77.9152 30.9261 75.7777 34.0177 74.4593 37.4813C73.1408 40.9449 72.6808 44.6771 73.1188 48.3579C73.8373 54.3997 76.9222 59.9083 81.6949 63.6723C86.4677 67.4363 92.5376 69.1475 98.5697 68.4296C103.47 67.8482 108.051 65.6968 111.631 62.2959C115.211 58.8949 117.599 54.4265 118.438 49.5562C114.946 52.6629 110.586 54.62 105.947 55.1626Z" fill="#D2D2D2"/>
<path d="M93.1514 22.8519C91.9897 22.9917 90.84 23.2182 89.7119 23.5295C90.0751 23.4653 90.424 23.4154 90.8228 23.3654C96.8557 22.6495 102.926 24.3624 107.698 28.1276C112.471 31.8927 115.555 37.4019 116.274 43.4442C116.918 48.885 115.598 54.3771 112.553 58.9281C109.507 63.4791 104.937 66.7889 99.6673 68.2592C105.466 67.2785 110.666 64.1019 114.191 59.3869C117.715 54.672 119.295 48.7799 118.602 42.9307C117.884 36.8884 114.799 31.3791 110.027 27.614C105.254 23.8489 99.1843 22.136 93.1514 22.8519Z" fill="#A3143A"/>
<path opacity="0.3" d="M113.176 44.3147L98.3711 45.2277C98.1721 44.6641 97.8474 44.1533 97.4217 43.7343C96.996 43.3153 96.4804 42.9991 95.9143 42.8097L92.1258 27.2959L92.2469 43.4445H92.3181L92.2754 43.4802C92.0061 43.7 91.7667 43.9542 91.5632 44.2363L91.5205 44.3005C91.4218 44.4411 91.3337 44.5889 91.257 44.7427C91.1844 44.8911 91.1202 45.0435 91.0648 45.1992C91.0648 45.1992 91.0648 45.2634 91.0648 45.2991C91.007 45.4588 90.9641 45.6236 90.9366 45.7912C90.9094 45.954 90.8928 46.1184 90.8867 46.2834C90.8867 46.3262 90.8867 46.369 90.8867 46.4118C90.8763 46.5876 90.8763 46.7638 90.8867 46.9396C90.9468 47.447 91.106 47.9375 91.3555 48.3831C91.6049 48.8287 91.9396 49.2208 92.3403 49.5368C92.7411 49.8527 93.2002 50.0865 93.6912 50.2247C94.1823 50.3628 94.6957 50.4027 95.2021 50.3419C96.0624 50.2401 96.8638 49.8525 97.4782 49.2409C98.0927 48.6293 98.4847 47.8291 98.5918 46.9681L113.176 44.3147Z" fill="#D2D2D2"/>
<path d="M93.4004 42.5949L93.2793 26.4463L97.1105 42.1527L93.4004 42.5949Z" fill="#FAC511"/>
<g style="mix-blend-mode:multiply" opacity="0.7">
<path d="M93.5072 27.395L93.2793 26.4463L93.4004 42.5949L95.2875 42.3667L93.5072 27.395Z" fill="#FAC511"/>
</g>
<path d="M97.0039 44.5286L114.33 43.4658L97.2532 46.5971L97.0039 44.5286Z" fill="#F27521"/>
<g style="mix-blend-mode:multiply" opacity="0.7">
<path d="M97.1104 45.3845L97.2528 46.5971L114.329 43.4658L112.079 43.6013L97.1104 45.3845Z" fill="#FAC511"/>
</g>
<path d="M99.7378 45.192C99.7985 45.6993 99.7587 46.2136 99.6207 46.7054C99.4828 47.1973 99.2494 47.6571 98.9339 48.0585C98.6185 48.46 98.2271 48.7952 97.7822 49.045C97.3373 49.2948 96.8475 49.4544 96.341 49.5145C95.8346 49.5752 95.3212 49.5354 94.8301 49.3972C94.3391 49.2591 93.88 49.0253 93.4792 48.7093C93.0784 48.3933 92.7438 48.0013 92.4944 47.5557C92.2449 47.11 92.0856 46.6195 92.0256 46.1122C91.9031 45.0869 92.1921 44.0548 92.8291 43.2429C93.466 42.431 94.3989 41.9057 95.4224 41.7825C96.446 41.6619 97.4755 41.9533 98.2847 42.5926C99.0938 43.2319 99.6165 44.1669 99.7378 45.192Z" fill="#242424"/>
<g style="mix-blend-mode:multiply">
<path d="M97.0812 46.9108C96.6647 46.9647 96.2417 46.9352 95.8366 46.8242C95.4316 46.7132 95.0525 46.5229 94.7214 46.2642C94.3902 46.0055 94.1136 45.6835 93.9075 45.317C93.7014 44.9506 93.5699 44.5468 93.5206 44.129C93.4475 43.4982 93.564 42.8599 93.8553 42.2959C93.2042 42.6791 92.6789 43.2443 92.3437 43.9221C92.0085 44.5999 91.878 45.3609 91.9682 46.1119C92.0283 46.6193 92.1875 47.1098 92.437 47.5554C92.6864 48.0011 93.021 48.3931 93.4218 48.7091C93.8226 49.0251 94.2817 49.2588 94.7727 49.397C95.2638 49.5352 95.7772 49.575 96.2836 49.5143C96.7902 49.4542 97.2799 49.2946 97.7248 49.0448C98.1697 48.795 98.5611 48.4598 98.8765 48.0583C99.192 47.6569 99.4254 47.1971 99.5633 46.7052C99.7013 46.2133 99.7411 45.6991 99.6804 45.1918C99.6713 45.0861 99.6547 44.9813 99.6306 44.878C99.4306 45.4171 99.0875 45.8914 98.6382 46.2496C98.189 46.6079 97.6506 46.8365 97.0812 46.9108Z" fill="#D2D2D2"/>
</g>
<g opacity="0.3">
<path d="M102.8 29.9839C102.816 30.1178 102.805 30.2536 102.769 30.3835C102.732 30.5133 102.671 30.6347 102.587 30.7407C102.504 30.8466 102.401 30.9351 102.283 31.0011C102.166 31.0671 102.036 31.1092 101.903 31.1251C101.768 31.1421 101.632 31.1322 101.502 31.0961C101.371 31.0601 101.249 30.9985 101.142 30.9149C101.036 30.8314 100.947 30.7275 100.881 30.6094C100.814 30.4912 100.772 30.361 100.756 30.2264C100.74 30.0919 100.751 29.9556 100.788 29.8254C100.825 29.6951 100.887 29.5734 100.971 29.4673C101.055 29.3613 101.159 29.2729 101.278 29.2073C101.396 29.1417 101.526 29.1002 101.661 29.0852C101.794 29.0683 101.93 29.0782 102.06 29.1143C102.19 29.1505 102.312 29.2122 102.418 29.2958C102.524 29.3794 102.612 29.4833 102.678 29.6014C102.743 29.7196 102.785 29.8496 102.8 29.9839Z" fill="#D2D2D2"/>
<path d="M107.28 32.7871C107.334 33.2672 107.197 33.7493 106.898 34.1286C106.599 34.508 106.163 34.7539 105.684 34.8128C105.205 34.8691 104.722 34.7325 104.343 34.433C103.964 34.1334 103.719 33.6954 103.662 33.2151C103.608 32.735 103.745 32.2529 104.044 31.8736C104.342 31.4942 104.778 31.2484 105.257 31.1894C105.736 31.135 106.218 31.2724 106.596 31.5716C106.975 31.8708 107.221 32.3076 107.28 32.7871Z" fill="#D2D2D2"/>
</g>
<path d="M66.3327 17.3456C66.395 17.906 66.234 18.4683 65.8846 18.9104C65.5352 19.3525 65.0258 19.6386 64.467 19.7066C63.9075 19.7711 63.3452 19.6116 62.9025 19.263C62.4597 18.9144 62.1723 18.4047 62.1028 17.8449C62.0385 17.2834 62.1986 16.7192 62.5482 16.2755C62.8977 15.8319 63.4083 15.5447 63.9685 15.4768C64.5291 15.4124 65.0924 15.5728 65.5353 15.923C65.9783 16.2731 66.2649 16.7845 66.3327 17.3456Z" fill="white"/>
<path d="M72.4709 28.6357C73.2062 27.7146 74.1349 26.9669 75.1912 26.4459L72.0437 22.3018L68.0273 25.3617L71.5879 30.0551C71.8302 29.5514 72.1262 29.0755 72.4709 28.6357Z" fill="#F79000"/>
<path d="M72.4709 28.6357C72.6771 28.3847 72.8982 28.1465 73.1332 27.9224L70.0355 23.8496L68.0273 25.376L71.5879 30.0694C71.8292 29.5607 72.1253 29.08 72.4709 28.6357Z" fill="#F27521"/>
<path d="M80.262 19.0287C78.4167 16.6943 75.7307 15.1781 72.7813 14.806C69.8318 14.4339 66.8544 15.2355 64.4887 17.0387C62.1324 18.8503 60.5755 21.5119 60.1499 24.4564C59.7242 27.4009 60.4634 30.3956 62.2099 32.8022L80.262 19.0287Z" fill="#FFD101"/>
<g style="mix-blend-mode:multiply" opacity="0.7">
<path d="M74.1018 23.0088C72.0293 24.5798 69.422 25.2692 66.8454 24.9275C64.5541 24.6058 62.4477 23.4903 60.8921 21.7748C60.1496 23.5779 59.8808 25.5415 60.1115 27.4782C60.3421 29.415 61.0644 31.2602 62.2095 32.8378L80.2616 19.0643C79.5664 18.181 78.7431 17.4069 77.8191 16.7676C77.4202 19.2468 76.0904 21.4795 74.1018 23.0088Z" fill="#FAC511"/>
</g>
<path d="M69.0457 16.6031C69.1923 16.7976 69.2566 17.0421 69.2246 17.2837C69.1926 17.5253 69.067 17.7446 68.8748 17.8941C68.6793 18.0425 68.4329 18.107 68.1899 18.0735C67.9469 18.0401 67.7271 17.9114 67.5788 17.7158C67.5056 17.6194 67.4522 17.5095 67.4216 17.3924C67.391 17.2752 67.3837 17.1532 67.4002 17.0333C67.4168 16.9133 67.4568 16.7979 67.518 16.6934C67.5792 16.589 67.6603 16.4977 67.7568 16.4248C67.853 16.3515 67.9628 16.298 68.0797 16.2673C68.1966 16.2367 68.3185 16.2294 68.4382 16.246C68.5579 16.2625 68.6732 16.3026 68.7775 16.3639C68.8817 16.4252 68.9729 16.5065 69.0457 16.6031Z" fill="white"/>
<path d="M73.7814 16.7383C73.9112 16.9082 74.0062 17.1021 74.0611 17.3089C74.116 17.5156 74.1296 17.7312 74.1011 17.9432C74.0727 18.1553 74.0027 18.3596 73.8953 18.5445C73.7879 18.7294 73.6451 18.8913 73.4752 19.0209C73.3053 19.152 73.1112 19.2481 72.9041 19.3037C72.697 19.3592 72.4809 19.3732 72.2684 19.3447C72.0559 19.3161 71.8511 19.2457 71.6659 19.1375C71.4807 19.0293 71.3187 18.8854 71.1893 18.7141C71.0593 18.5437 70.9641 18.3492 70.9091 18.1419C70.8542 17.9346 70.8405 17.7184 70.8689 17.5058C70.8974 17.2932 70.9673 17.0883 71.0748 16.9027C71.1823 16.7172 71.3253 16.5547 71.4955 16.4245C71.6661 16.2947 71.8606 16.1998 72.0679 16.1453C72.2751 16.0908 72.4911 16.0778 72.7034 16.1069C72.9156 16.1361 73.1201 16.2068 73.3051 16.3152C73.4901 16.4235 73.6519 16.5673 73.7814 16.7383Z" fill="white"/>
<g style="mix-blend-mode:multiply">
<path d="M49.1777 75.1494C49.2916 74.75 49.3984 74.3506 49.491 73.9511C49.5836 73.5517 49.6762 73.1808 49.7616 72.7956C50.363 69.9823 50.6661 67.1133 50.666 64.2363C50.666 63.6942 50.666 63.1592 50.6233 62.6242C50.6233 62.2961 50.6233 61.968 50.5734 61.6328C50.2972 57.3513 49.3454 53.1407 47.7535 49.1575C44.7369 41.5779 39.5194 35.0789 32.7757 30.5012C26.0321 25.9235 18.0724 23.4775 9.92596 23.4795C9.04294 23.4795 8.15992 23.5223 7.29114 23.5722H7.24129C6.52917 23.6221 5.75297 23.6935 5.01237 23.7791C0.0269318 24.3841 -4.80265 25.9127 -9.22991 28.287L-9.99187 28.7078L-10.704 29.1144L-11.466 29.578C-11.7366 29.7421 -12 29.9133 -12.2564 30.0845C-12.6267 30.3198 -12.9685 30.5695 -13.3459 30.7977L-14.058 31.2899L-14.7702 31.8177L-15.4823 32.3669C-15.8098 32.6237 -16.1303 32.8876 -16.4436 33.1587L-17.1913 33.8078L-17.7966 34.3641L-18.466 34.9989L-19.0072 35.5339C-19.3562 35.8834 -19.7194 36.2472 -20.0327 36.611C-20.2036 36.7964 -20.3745 36.9819 -20.5383 37.1745C-20.7021 37.367 -20.9727 37.6666 -21.1863 37.9234C-21.3999 38.1802 -21.4996 38.2872 -21.6492 38.4726C-21.9696 38.8721 -22.2901 39.2715 -22.5963 39.6781L-22.9808 40.2059C-23.1945 40.5055 -23.4081 40.7979 -23.6146 41.0975L-23.992 41.6538C-24.284 42.0961 -24.576 42.5383 -24.8466 42.9948L-25.1029 43.4156C-25.3094 43.7794 -25.5231 44.1289 -25.7225 44.507L-26.0216 45.0562C-26.2494 45.477 -26.4631 45.8979 -26.6767 46.333L-26.8476 46.6896C-27.0755 47.1604 -27.2891 47.6383 -27.4956 48.1161C-27.574 48.2873 -27.6452 48.4657 -27.7164 48.6368C-27.8944 49.0648 -28.0582 49.4928 -28.222 49.9207C-28.2647 50.042 -28.3146 50.1633 -28.3644 50.2917C-28.5567 50.8266 -28.7347 51.3687 -28.9127 51.9108C-28.9626 52.0749 -29.0053 52.2389 -29.0552 52.3958C-29.1905 52.8381 -29.3187 53.2874 -29.4397 53.7368C-29.4753 53.8794 -29.518 54.0221 -29.5536 54.1648C-29.6961 54.7354 -29.8243 55.306 -29.9453 55.8766C-29.9453 56.0122 -29.9952 56.1548 -30.0236 56.2903C-30.1138 56.7659 -30.1993 57.2414 -30.28 57.7169C-30.28 57.8738 -30.3299 58.0307 -30.3583 58.1876C-30.4438 58.7797 -30.5221 59.3788 -30.5862 59.9851V60.2562C-30.6361 60.784 -30.6788 61.3118 -30.7073 61.8468C-30.7073 62.0108 -30.7073 62.182 -30.7073 62.3461C-30.7073 62.9666 -30.75 63.5872 -30.75 64.2149C-30.7519 75.0274 -26.4664 85.3981 -18.8359 93.0464C-11.2054 100.695 -0.854713 104.994 9.9402 105C15.4615 105.005 20.9256 103.881 25.9984 101.698L26.7105 101.362L27.3087 101.091C31.2924 99.2026 34.9433 96.678 38.1186 93.6162C38.6028 93.1526 39.0728 92.6747 39.5428 92.1897C44.0912 87.3797 47.3986 81.5303 49.1777 75.1494Z" fill="#D2D2D2"/>
</g>
<path d="M13.2663 103.102C35.7506 103.102 53.9778 84.8452 53.9778 62.3241C53.9778 39.8029 35.7506 21.5459 13.2663 21.5459C-9.21812 21.5459 -27.4453 39.8029 -27.4453 62.3241C-27.4453 84.8452 -9.21812 103.102 13.2663 103.102Z" fill="#F79000"/>
<g style="mix-blend-mode:multiply" opacity="0.5">
<path d="M20.3874 84.55C11.1009 84.55 2.19482 80.8549 -4.3717 74.2776C-10.9382 67.7004 -14.6273 58.7797 -14.6273 49.478C-14.6374 40.9638 -11.54 32.7396 -5.9181 26.3535C-12.4228 29.8318 -17.8617 35.0152 -21.6534 41.3496C-25.4451 47.684 -27.447 54.9313 -27.4453 62.3171C-27.4434 73.1315 -23.1536 83.5025 -15.5191 91.1495C-7.88459 98.7965 2.46946 103.093 13.2663 103.095C24.0631 103.093 34.4171 98.7965 42.0516 91.1495C49.6861 83.5025 53.9759 73.1315 53.9778 62.3171C53.9778 61.4397 53.9422 60.5695 53.8853 59.7064C51.6947 66.8951 47.2574 73.1891 41.2268 77.6617C35.1962 82.1342 27.8912 84.5489 20.3874 84.55Z" fill="#FAC511"/>
</g>
<path d="M40.8248 63.4304C45.2606 65.2748 48.8073 68.7736 50.716 73.1881C50.8941 72.3393 51.0436 71.4905 51.1718 70.6274C49.728 68.1967 47.8243 66.0718 45.5675 64.3719C41.6651 61.3976 36.8085 60.0923 32.6782 61.1051C31.8877 59.7856 31.0474 58.5016 30.1715 57.2677C35.8798 53.7182 41.9871 50.8571 48.3661 48.744C48.1596 48.2518 47.9388 47.7739 47.7109 47.3174C41.238 49.486 35.0389 52.4015 29.2387 56.0052C27.6625 53.9693 25.952 52.0415 24.1186 50.2347C27.1095 46.433 27.2163 40.4985 25.3221 35.4699C23.4473 30.529 19.7801 26.4788 15.0534 24.1287C13.6861 23.9956 12.3022 23.9266 10.9017 23.9219H10.4745C17.2111 26.3542 22.6943 30.9405 24.7168 38.7937C25.6283 42.3601 25.3363 46.3331 23.0148 49.1363C19.2957 45.6828 15.3974 42.4281 11.3361 39.3858C5.48967 34.885 -0.883753 30.9619 -7.82687 28.494C-8.46777 28.8292 -9.10155 29.2073 -9.72109 29.5425C-2.59995 31.8464 3.80908 35.7409 9.81221 40.2417C14.0432 43.3309 18.0747 46.6853 21.8825 50.2847C21.7116 50.4273 21.5407 50.57 21.3556 50.6984C17.8947 53.1592 13.622 52.7383 9.82645 51.4901C0.234274 48.3231 -10.7537 38.7866 -20.7375 39.9493C-21.1078 40.5127 -21.4496 41.0905 -21.8057 41.6683C-9.69972 38.6582 3.93727 55.3703 16.7482 54.0436C19.0684 53.8704 21.271 52.9524 23.029 51.4259C24.7495 53.1423 26.3664 54.9596 27.8714 56.8682C24.0972 59.2078 20.4654 61.6971 16.9974 64.1651C5.41134 72.4106 -4.51553 82.4607 -11.3233 94.8361C-10.9032 95.1571 -10.4759 95.4638 -10.0415 95.7705C-3.36903 83.5877 6.44391 73.7159 17.8021 65.5774C21.3057 63.0666 24.9874 60.5274 28.8185 58.145L29.196 58.6443C29.9081 59.6144 30.549 60.6201 31.1756 61.6472C28.5408 62.7385 26.3333 64.9283 25.0657 68.4234C22.4024 75.7416 26.3119 84.8288 28.021 91.9188C28.6917 94.5164 29.1326 97.1682 29.3384 99.8433C29.8012 99.6436 30.2499 99.4367 30.6985 99.2228C30.2143 91.9687 27.259 83.9728 26.2193 77.2823C25.6567 73.6374 25.7564 69.9284 27.6435 66.683C28.5952 64.9778 30.104 63.653 31.9162 62.9311C35.173 68.7752 37.5079 75.0886 38.838 81.6475C39.562 85.31 40.0025 89.0229 40.1554 92.7533C40.6467 92.2825 41.1167 91.7975 41.5796 91.3268C41.3899 87.928 40.9832 84.5449 40.3619 81.1982C39.0705 74.618 36.7361 68.2873 33.4473 62.4461C35.9494 62.0296 38.5187 62.3724 40.8248 63.4304Z" fill="#F27521"/>
<path d="M50.4805 45.7836C43.516 47.8236 36.8364 51.1474 30.5413 54.9564C28.9633 52.922 27.2529 50.9944 25.4212 49.1859C28.4121 45.3913 28.5189 39.4568 26.6247 34.4211C24.1251 27.7876 18.9766 23.8075 12.9094 21.582C11.386 21.5962 9.86453 21.6938 8.35181 21.8745C16.6195 23.9145 23.6694 28.6364 26.0051 37.7806C26.9166 41.347 26.6247 45.3271 24.3032 48.1231C20.5807 44.6735 16.6826 41.4189 12.6245 38.3726C6.55017 33.6935 -0.0938568 29.6349 -7.35742 27.1955C-7.96272 27.5522 -8.55377 27.9088 -9.13771 28.3011C-1.75308 30.5765 4.89806 34.5851 11.1006 39.2143C15.3314 42.2986 19.3629 45.6482 23.1709 49.243C23 49.3785 22.8291 49.5212 22.6439 49.6496C19.1831 52.1175 14.9104 51.6967 11.1148 50.4413C1.31613 47.2101 -9.95664 37.3098 -20.1043 39.0288C-20.5315 39.6351 -20.9374 40.2485 -21.3291 40.8834C-9.00241 36.8747 4.94079 54.3857 18.0366 53.0091C20.3576 52.8393 22.5612 51.9209 24.3174 50.3914C26.0344 52.111 27.6512 53.9281 29.1598 55.8337C25.3856 58.1733 21.7538 60.6697 18.2858 63.1377C6.24395 71.697 -4.00337 82.2036 -10.8254 95.2352C-10.3982 95.5491 -9.96376 95.8558 -9.52937 96.1554C-2.85686 83.3163 7.29077 72.9952 19.0905 64.5357C22.5941 62.025 26.2757 59.4857 30.1069 57.1105C30.2351 57.2745 30.3633 57.4386 30.4843 57.6098C31.1964 58.5798 31.8373 59.5855 32.464 60.6127C29.8292 61.704 27.6216 63.8866 26.3469 67.3817C23.6908 74.6999 27.6003 83.7871 29.3093 90.8771C30.0196 93.5935 30.4726 96.3709 30.6623 99.1725C31.1252 98.9514 31.5739 98.7232 32.0225 98.4593C31.6166 91.1054 28.5687 82.9454 27.5148 76.1408C26.9522 72.4959 27.0448 68.794 28.939 65.5486C29.893 63.8437 31.4008 62.5172 33.2117 61.7896C36.4653 67.6377 38.7999 73.9529 40.1335 80.5132C40.8625 84.1894 41.3053 87.9168 41.458 91.6617C41.9494 91.1909 42.4194 90.7131 42.8822 90.2352C42.689 86.8343 42.2823 83.4491 41.6645 80.0994C40.3749 73.5276 38.0454 67.2044 34.7641 61.3687C37.2647 60.9555 39.8314 61.3008 42.1345 62.3602C44.5157 63.3566 46.6651 64.8363 48.4472 66.7059C50.2292 68.5756 51.6053 70.7947 52.4886 73.2234C52.7165 72.3889 52.9302 71.5472 53.1082 70.6913C51.6134 67.7895 49.4834 65.2634 46.8772 63.3017C42.9748 60.3345 38.1182 59.0221 33.9879 60.042C33.1975 58.7153 32.3572 57.4386 31.4813 56.2046C37.6017 52.3732 44.1944 49.3568 51.0929 47.2315C50.9006 46.7608 50.6941 46.2686 50.4805 45.7836Z" fill="#FFD101"/>
<path d="M32.4642 31.5536C33.3177 31.5536 34.0095 30.8607 34.0095 30.0058C34.0095 29.151 33.3177 28.458 32.4642 28.458C31.6108 28.458 30.9189 29.151 30.9189 30.0058C30.9189 30.8607 31.6108 31.5536 32.4642 31.5536Z" fill="#FFD101"/>
<path d="M37.4491 37.7303C38.9554 37.7303 40.1765 36.5072 40.1765 34.9985C40.1765 33.4897 38.9554 32.2666 37.4491 32.2666C35.9428 32.2666 34.7217 33.4897 34.7217 34.9985C34.7217 36.5072 35.9428 37.7303 37.4491 37.7303Z" fill="#FFD101"/>
<g style="mix-blend-mode:multiply" opacity="0.5">
<path d="M50.2529 18.3723L41.8571 4.22801C41.8001 4.11389 41.7289 3.98549 41.6577 3.8571L41.5722 3.72872C41.5153 3.64312 41.4583 3.5504 41.3942 3.46481L41.2945 3.32928L41.0666 3.04396L40.9669 2.92985C40.8767 2.82048 40.777 2.71348 40.6678 2.60886L40.5895 2.53754C39.9801 1.9443 39.2519 1.48725 38.4532 1.19657C37.6837 0.937895 36.8704 0.83557 36.0609 0.895584C35.2514 0.955597 34.4621 1.17675 33.739 1.54609C27.921 4.17809 29.6087 8.37216 30.1784 9.75592C31.5877 13.0197 33.2545 16.1658 35.1632 19.1641C35.6332 19.9416 36.1174 20.7119 36.5874 21.4894C37.5274 22.9944 38.503 24.5565 39.3362 26.1186C39.6255 26.8037 40.064 27.4155 40.6197 27.9091C41.1753 28.4028 41.8341 28.7658 42.5478 28.9717H42.5906L43.0534 29.0715C43.8349 29.1809 44.631 29.1092 45.3804 28.8618C46.1298 28.6145 46.8125 28.1982 47.376 27.645L47.5611 27.4738C47.732 27.3097 47.8816 27.1385 48.024 26.9745L48.1094 26.8818C48.2376 26.7248 48.3587 26.5679 48.4655 26.411L48.5438 26.2969C48.648 26.1482 48.7432 25.9934 48.8287 25.8332L48.8643 25.769C48.9355 25.6264 48.9996 25.4837 49.0566 25.3411C49.0774 25.3025 49.0941 25.2619 49.1064 25.2198C49.1634 25.07 49.2132 24.9274 49.2559 24.7776C49.2987 24.6278 49.2559 24.692 49.2559 24.6421C49.2559 24.5921 49.32 24.3496 49.3485 24.1998C49.3485 24.1998 49.3485 24.1428 49.3485 24.1071C49.3485 24.0714 49.3485 23.8503 49.3485 23.7219C49.3485 23.5935 49.3485 23.6435 49.3485 23.6007C49.3485 23.5579 49.3485 23.3154 49.3485 23.1727C49.3485 23.03 49.3485 23.0871 49.3485 23.0443C49.3485 23.0015 49.3485 22.7519 49.2987 22.6092C49.2947 22.5856 49.2947 22.5615 49.2987 22.5379L49.2132 22.1242V22.06C49.2132 21.9031 49.1349 21.7533 49.085 21.6035V21.5464C48.6133 20.2792 47.9764 19.08 47.1908 17.98C46.9273 17.5877 46.6781 17.2026 46.4787 16.8459C45.7025 15.5335 44.8978 14.2211 44.1002 12.9015C43.3027 11.5819 42.5194 10.3194 41.7503 9.02125L41.3016 8.25091C40.7759 7.26372 40.1884 6.31078 39.5427 5.39779C39.4527 5.28655 39.3552 5.18169 39.2507 5.08394L39.208 5.04115C38.9288 4.78573 38.6001 4.5906 38.2424 4.46789C37.8847 4.34518 37.5056 4.29752 37.1286 4.32787C36.426 4.40269 35.7513 4.64426 35.1606 5.03254C34.5698 5.42082 34.0801 5.9446 33.7319 6.56044C32.7064 8.30797 33.86 10.2338 34.622 11.5106L34.8855 11.9671L41.5509 23.6934C41.6634 23.8941 41.8425 24.0489 42.0572 24.131C42.2719 24.2131 42.5085 24.2173 42.7259 24.1428C42.7882 24.124 42.848 24.0976 42.9039 24.0643C43.0172 23.9999 43.1168 23.9137 43.1968 23.8106C43.2768 23.7075 43.3357 23.5897 43.3701 23.4637C43.4045 23.3378 43.4137 23.2063 43.3973 23.0768C43.3808 22.9473 43.339 22.8223 43.2742 22.7091L36.6159 10.9828L36.3239 10.4906C35.7685 9.56334 35.0137 8.29371 35.4409 7.56616C35.4908 7.48057 35.5477 7.39497 35.6047 7.31651L35.7115 7.18812L35.7899 7.10253C36.1503 6.6968 36.6372 6.42528 37.1714 6.33218H37.2639C37.3971 6.31389 37.5328 6.33058 37.6576 6.38059C37.7825 6.43061 37.8922 6.51224 37.9761 6.6175C38.5618 7.44743 39.0968 8.31207 39.5783 9.2067L40.0412 10.0127C40.815 11.3109 41.6031 12.6114 42.4054 13.9143C43.203 15.2196 44.0005 16.5249 44.7696 17.8302C44.9975 18.2226 45.2681 18.6291 45.553 19.05C47.376 21.8175 48.4014 23.7933 46.1725 25.983C45.8236 26.362 45.39 26.6527 44.9072 26.8312C44.4244 27.0098 43.9063 27.0711 43.3952 27.0101C42.9545 26.9514 42.5356 26.7821 42.1775 26.518C41.9605 26.3511 41.7707 26.1514 41.615 25.926C41.5343 25.8118 41.4559 25.6906 41.38 25.5622V25.5194C41.2945 25.3839 41.2162 25.2341 41.1236 25.07C40.2619 23.4438 39.265 21.8531 38.2751 20.3196C37.7909 19.5564 37.3138 18.786 36.8509 18.0228C35.0036 15.1119 33.3891 12.059 32.0228 8.89285C31.2466 6.97413 30.8051 4.95555 34.5722 3.24368C34.7652 3.15761 34.9625 3.08143 35.1632 3.01544L35.3199 2.9655C35.4765 2.91557 35.6332 2.87991 35.7827 2.84425H35.8824C36.0421 2.84541 36.2015 2.85732 36.3596 2.87991H36.7939C37.0912 2.89138 37.3856 2.94174 37.6698 3.02971C38.7373 3.40478 39.6246 4.16876 40.1551 5.16954L48.5794 19.3852C48.6822 19.5537 48.8322 19.6882 49.0107 19.772C49.1893 19.8557 49.3885 19.8849 49.5835 19.856H49.6476H49.7687C49.8284 19.8332 49.8856 19.8045 49.9396 19.7704C50.0533 19.7005 50.1519 19.6086 50.2295 19.4999C50.3071 19.3912 50.3621 19.2681 50.3913 19.1377C50.4205 19.0073 50.4234 18.8724 50.3996 18.741C50.3758 18.6095 50.3259 18.4841 50.2529 18.3723Z" fill="#242424"/>
</g>
<path d="M48.5223 26.8032L48.7146 26.632C52.2752 23.1298 49.9181 19.5491 48.3585 17.1739C48.095 16.7816 47.8387 16.3964 47.6464 16.0398C46.8702 14.7274 46.0726 13.4149 45.2679 12.1025C44.4633 10.7901 43.6871 9.51329 42.9251 8.22225L42.4765 7.44477C41.9451 6.45933 41.3554 5.50659 40.7104 4.59166C40.4281 4.22814 40.059 3.94159 39.6372 3.75836C39.2153 3.57514 38.7542 3.50112 38.2964 3.54313C37.5942 3.61965 36.9203 3.86192 36.3298 4.25002C35.7393 4.63813 35.2491 5.161 34.8996 5.7757C33.8741 7.52324 35.0277 9.44909 35.7897 10.7259L36.0603 11.1824L42.7186 22.9087C42.7829 23.0222 42.869 23.1219 42.9719 23.202C43.0748 23.2822 43.1925 23.3412 43.3182 23.3756C43.4439 23.4101 43.5752 23.4193 43.7044 23.4029C43.8337 23.3864 43.9585 23.3445 44.0716 23.2796C44.1856 23.2157 44.2858 23.13 44.3665 23.0272C44.4472 22.9244 44.5068 22.8066 44.5419 22.6806C44.577 22.5547 44.5868 22.423 44.5709 22.2932C44.555 22.1634 44.5135 22.038 44.449 21.9243L37.7836 10.2266C37.6982 10.0696 37.5985 9.90559 37.4917 9.7344C36.9433 8.80714 36.1814 7.5375 36.6158 6.80995C36.802 6.47733 37.0619 6.19187 37.3755 5.97549C37.689 5.75912 38.0479 5.61757 38.4245 5.56172C38.5572 5.54115 38.6929 5.55605 38.8179 5.6049C38.943 5.65375 39.0529 5.73481 39.1366 5.83989C39.7217 6.6717 40.259 7.53617 40.746 8.4291C40.9098 8.72868 41.0665 8.99973 41.2089 9.23511C41.978 10.5333 42.7684 11.8386 43.566 13.1367C44.3636 14.4349 45.1611 15.7473 45.9302 17.0526C46.1652 17.4449 46.4358 17.8515 46.7135 18.2795C48.5437 21.0399 49.562 23.0157 47.3402 25.2054C46.991 25.5859 46.5562 25.8775 46.072 26.0562C45.5878 26.2348 45.068 26.2953 44.5558 26.2326C43.3595 26.0328 42.8752 25.4693 42.2557 24.2924C41.3869 22.6662 40.3971 21.0827 39.4073 19.542C38.923 18.7788 38.4459 18.0156 37.983 17.2452C36.1309 14.3384 34.514 11.2877 33.1478 8.1224C32.3716 6.19654 31.9301 4.17796 35.6971 2.46609C36.1797 2.20599 36.7099 2.04682 37.2557 1.99823C37.8016 1.94963 38.3515 2.01262 38.8723 2.18338C39.3931 2.35414 39.8738 2.6291 40.2852 2.99159C40.6967 3.35407 41.0303 3.79652 41.2659 4.29208L49.6973 18.5006C49.7633 18.6134 49.8511 18.712 49.9556 18.7904C50.06 18.8689 50.179 18.9257 50.3057 18.9576C50.4323 18.9895 50.564 18.9958 50.6931 18.9761C50.8221 18.9564 50.946 18.9112 51.0574 18.843C51.1701 18.7769 51.2685 18.6889 51.3468 18.5843C51.4251 18.4797 51.4819 18.3605 51.5137 18.2336C51.5455 18.1068 51.5518 17.9749 51.5321 17.8456C51.5125 17.7163 51.4673 17.5922 51.3993 17.4806L43.0034 3.33629C42.6539 2.6255 42.1668 1.99141 41.5705 1.47088C40.9741 0.950359 40.2804 0.553788 39.5296 0.304231C38.7788 0.0546743 37.986 -0.0428816 37.1973 0.0172259C36.4085 0.0773334 35.6396 0.29391 34.9352 0.654362C29.1172 3.28636 30.812 7.48757 31.3746 8.8642C32.7864 12.1268 34.4532 15.2726 36.3594 18.2724C36.8294 19.0498 37.3136 19.8202 37.7836 20.5976C38.7307 22.1027 39.6992 23.6647 40.5395 25.234C40.8572 26.0029 41.3651 26.6782 42.0155 27.1961C42.6659 27.714 43.4372 28.0574 44.2567 28.1941C45.0264 28.2996 45.81 28.2293 46.5487 27.9884C47.2874 27.7475 47.9621 27.3423 48.5223 26.8032Z" fill="#9FE08B"/>
<g style="mix-blend-mode:multiply" opacity="0.5">
<path d="M41.3449 23.8715C40.4761 22.2452 39.4863 20.6546 38.4964 19.1211C38.0193 18.3579 37.5422 17.5947 37.0722 16.8243C35.2278 13.9141 33.6135 10.8639 32.2441 7.70148C31.4679 5.77562 31.0264 3.75705 34.7863 2.04518C35.4025 1.70556 36.0977 1.53586 36.8008 1.5534C37.504 1.57095 38.1898 1.77511 38.7884 2.14504C37.7567 1.86161 36.6564 1.97614 35.705 2.46601C31.9379 4.17788 32.3794 6.19646 33.1556 8.12232C34.5218 11.2876 36.1387 14.3383 37.9908 17.2452C38.4466 18.0155 38.9237 18.7787 39.4151 19.5419C40.3764 21.0826 41.3663 22.6661 42.2635 24.2924C42.5178 24.8422 42.8898 25.3292 43.3531 25.7189C42.349 25.4978 41.8932 24.9414 41.3449 23.8715ZM38.3398 5.58304L38.2258 5.41898C38.1467 5.30832 38.0376 5.22265 37.9114 5.1721C37.7852 5.12154 37.6472 5.10821 37.5137 5.13368C37.1358 5.19133 36.776 5.33431 36.4614 5.5518C36.1468 5.76929 35.8857 6.05559 35.6978 6.38904C35.2706 7.10232 36.0254 8.38623 36.5809 9.31349C36.6806 9.48468 36.7803 9.64874 36.8657 9.80566L43.4812 21.532C43.546 21.6452 43.5879 21.7702 43.6043 21.8997C43.6208 22.0292 43.6116 22.1607 43.5772 22.2866C43.5427 22.4125 43.4839 22.5304 43.4038 22.6335C43.3238 22.7365 43.2243 22.8228 43.1109 22.8872C42.9952 22.954 42.8665 22.9954 42.7335 23.0084C42.8715 23.2115 43.0807 23.355 43.3195 23.4106C43.5584 23.4661 43.8093 23.4295 44.0225 23.308C44.1364 23.2442 44.2366 23.1584 44.3173 23.0556C44.3981 22.9528 44.4577 22.8351 44.4928 22.7091C44.5278 22.5831 44.5377 22.4515 44.5217 22.3217C44.5058 22.1919 44.4644 22.0665 44.3999 21.9528L37.7843 10.2265C37.6989 10.0696 37.5992 9.90551 37.4924 9.73433C36.944 8.80706 36.1821 7.53742 36.6165 6.80988C36.7945 6.49412 37.0389 6.22089 37.3328 6.00906C37.6267 5.79723 37.963 5.65186 38.3184 5.58304H38.3398ZM49.7621 18.5719C49.9029 18.7798 50.1178 18.926 50.3628 18.9804C50.6077 19.0347 50.8641 18.9932 51.0795 18.8643C51.1922 18.7982 51.2905 18.7102 51.3689 18.6056C51.4472 18.501 51.5039 18.3818 51.5358 18.2549C51.5676 18.1281 51.5739 17.9962 51.5542 17.8669C51.5346 17.7376 51.4894 17.6135 51.4213 17.5019L43.0255 3.35761C42.3039 1.9578 41.088 0.877151 39.6145 0.326172C40.6788 0.940317 41.5459 1.846 42.114 2.93678L50.5098 17.0811C50.6428 17.3084 50.6808 17.5791 50.6154 17.8342C50.5501 18.0894 50.3867 18.3084 50.1609 18.4435C50.0403 18.5179 49.9034 18.562 49.7621 18.5719ZM42.527 27.6091C43.045 27.9134 43.6148 28.1189 44.2076 28.2154C44.9879 28.3242 45.7828 28.2521 46.5309 28.0048C47.2791 27.7575 47.9606 27.3415 48.523 26.7888L48.7153 26.6176C51.7204 23.6718 50.5312 20.6832 49.1426 18.3935C49.0041 18.313 48.8869 18.2005 48.8007 18.0654L45.6176 12.7016L45.2544 12.1024C44.464 10.8042 43.6735 9.51321 42.9116 8.22218L42.4629 7.44469C41.9315 6.45925 41.3418 5.50651 40.6969 4.59158C40.3381 4.12977 39.8376 3.79894 39.2726 3.65006C39.471 3.7987 39.6504 3.97118 39.8067 4.16362C40.4555 5.07598 41.0454 6.02896 41.5728 7.01673L42.0214 7.79421C42.7905 9.08524 43.5809 10.3763 44.3714 11.6744C45.1618 12.9726 45.9736 14.2993 46.7427 15.6117C46.9635 15.9755 47.2127 16.325 47.4548 16.7459C49.0215 19.1211 51.3857 22.7017 47.8109 26.2039L47.6258 26.3751C47.0634 26.9278 46.3818 27.3438 45.6337 27.5911C44.8855 27.8384 44.0907 27.9105 43.3103 27.8017C43.0452 27.7461 42.7836 27.6746 42.527 27.5877V27.6091Z" fill="#D2D2D2"/>
</g>
<g style="mix-blend-mode:screen">
<g style="mix-blend-mode:screen">
<path d="M40.1128 1.0681C40.597 1.36055 40.8249 1.83844 40.6611 2.14515C40.4973 2.45186 39.949 2.45899 39.4576 2.14515C38.9663 1.83131 38.7455 1.36768 38.9022 1.0681C39.0588 0.768525 39.6285 0.775658 40.1128 1.0681ZM37.4922 0.711463C37.4922 0.918314 37.7201 1.1109 38.0548 1.14656C38.3895 1.18223 38.6743 1.03243 38.6957 0.825579C38.717 0.618728 38.4607 0.41901 38.126 0.390479C37.7913 0.361947 37.5064 0.497474 37.4922 0.739989V0.711463Z" fill="#F7DB00"/>
</g>
</g>
<g style="mix-blend-mode:screen">
<g style="mix-blend-mode:screen">
<path d="M41.8001 26.7034C41.3088 26.4323 41.0453 25.9544 41.2162 25.6477C41.3871 25.341 41.9283 25.3054 42.4197 25.5764C42.911 25.8475 43.1745 26.3253 43.0036 26.6321C42.8327 26.9388 42.2915 26.9744 41.8001 26.7034ZM44.4349 26.9602C44.4349 26.7533 44.1928 26.5679 43.8581 26.5465C43.5234 26.5251 43.2386 26.682 43.2243 26.8888C43.2101 27.0957 43.4736 27.2883 43.8083 27.3025C44.143 27.3168 44.4278 27.1741 44.4349 26.9602Z" fill="#F7DB00"/>
</g>
</g>
<path d="M19.2685 7.40918C19.6613 8.40423 20.1205 9.37171 20.6428 10.3051C21.465 10.8158 22.3189 11.2732 23.1993 11.6746C22.3176 12.076 21.4635 12.5359 20.6428 13.0512C20.1205 13.9846 19.6613 14.9521 19.2685 15.9471C18.8784 14.9521 18.4216 13.9845 17.9012 13.0512C17.0806 12.5359 16.2265 12.076 15.3447 11.6746C16.2252 11.2732 17.0791 10.8158 17.9012 10.3051C18.4216 9.37177 18.8784 8.40425 19.2685 7.40918Z" fill="white"/>
<path d="M19.3262 7.40137C19.4473 7.62248 19.5612 7.85073 19.6823 8.07898L20.0312 8.79226L20.3872 9.46274C20.4408 9.57515 20.5003 9.68468 20.5653 9.79086C20.6294 9.89072 20.6935 10.0191 20.7504 10.0904L20.7931 10.1546L20.9498 10.2688L21.256 10.4328L21.9254 10.7823L22.6375 11.1247C22.8654 11.2317 23.0862 11.3529 23.314 11.4671C23.3396 11.4799 23.3623 11.4977 23.3808 11.5194C23.3994 11.5412 23.4134 11.5664 23.422 11.5937C23.4306 11.621 23.4337 11.6497 23.4311 11.6782C23.4284 11.7066 23.4201 11.7343 23.4066 11.7595C23.3965 11.7825 23.3818 11.8033 23.3634 11.8204C23.3451 11.8376 23.3234 11.8508 23.2998 11.8594C22.8369 12.0591 22.3669 12.2588 21.8756 12.4728L21.1634 12.7938C21.0495 12.8508 20.9427 12.915 20.8359 12.9792L20.6863 13.0791V13.1219L20.6294 13.1932C20.5559 13.2968 20.4916 13.4066 20.4371 13.5213C20.3768 13.6277 20.3222 13.7373 20.2733 13.8494C20.1594 14.0848 20.0597 14.313 19.96 14.5627C19.7606 15.0335 19.5826 15.5114 19.4045 15.9893C19.3982 16.0063 19.3886 16.0219 19.3761 16.0351C19.3637 16.0484 19.3487 16.059 19.3321 16.0663C19.3155 16.0736 19.2976 16.0775 19.2794 16.0778C19.2613 16.078 19.2433 16.0746 19.2265 16.0677C19.2091 16.0621 19.1931 16.0528 19.1796 16.0405C19.1661 16.0282 19.1554 16.0132 19.1482 15.9964L18.4859 14.6198C18.372 14.3915 18.2651 14.1633 18.1441 13.9421C18.0871 13.828 18.0301 13.7139 17.9732 13.614C17.9207 13.5102 17.8612 13.4101 17.7951 13.3145L17.7524 13.2574V13.2217L17.5958 13.1076L17.2967 12.9436L16.6344 12.6012L15.2671 11.9307C15.2012 11.8984 15.1506 11.8413 15.1266 11.7717C15.1026 11.7022 15.107 11.626 15.139 11.5598C15.1669 11.5019 15.2151 11.4563 15.2743 11.4314L16.6486 10.7752C16.8765 10.6682 17.0973 10.5541 17.318 10.4399L17.6385 10.2616L17.7667 10.176V10.1332L17.8236 10.0548C17.893 9.95985 17.9549 9.85969 18.0088 9.75519C18.0729 9.66246 18.1298 9.54834 18.1939 9.43422C18.258 9.32009 18.4289 8.99198 18.55 8.76373L19.2621 7.40851H19.2977L19.3262 7.40137ZM19.3262 7.4941C19.2621 7.70808 19.1838 7.9292 19.1126 8.14318C19.0413 8.35717 18.9417 8.62821 18.8491 8.85646C18.7565 9.08471 18.6639 9.32723 18.5571 9.56974C18.5073 9.68387 18.4645 9.80512 18.4004 9.93351C18.3436 10.0562 18.2794 10.1753 18.2082 10.2902L18.1583 10.3686V10.4114C18.1583 10.4542 18.1583 10.4114 18.1583 10.4114L17.9803 10.5541L17.6456 10.768C17.4248 10.9036 17.197 11.032 16.9762 11.1532C16.5205 11.4029 16.0647 11.6311 15.609 11.8665V11.4385C16.0718 11.6596 16.5276 11.8808 16.9833 12.1518L17.6954 12.5298L18.0515 12.7581L18.2011 12.8722V12.9222L18.2723 13.022C18.3488 13.1387 18.4177 13.2602 18.4788 13.3858C18.5357 13.4999 18.5927 13.6212 18.6426 13.7353C18.7494 13.9707 18.8491 14.2132 18.9488 14.4486C19.141 14.9193 19.3191 15.4044 19.49 15.8751H19.2265L19.8816 14.4914C19.9956 14.256 20.0953 14.0277 20.2092 13.7781C20.2662 13.664 20.316 13.5427 20.3872 13.4286C20.44 13.3084 20.5044 13.1938 20.5795 13.0862L20.6294 13.0077V12.9649L20.6721 12.9222L20.8359 12.7938L21.1634 12.5869L21.8186 12.1875C22.2672 11.9307 22.7087 11.681 23.1645 11.4742V11.8736C22.6945 11.6668 22.2316 11.4457 21.783 11.2031C21.5551 11.089 21.3344 10.9606 21.0709 10.8322L20.7148 10.604L20.5724 10.4899V10.4471L20.5083 10.3472C20.4321 10.2353 20.3677 10.1158 20.316 9.99057C20.2519 9.86932 20.2021 9.75519 20.1522 9.63393C20.0454 9.39855 19.9529 9.15604 19.8603 8.92066C19.7677 8.68527 19.6823 8.43563 19.6039 8.20738C19.5256 7.97913 19.3689 7.71521 19.2692 7.4941H19.3262Z" fill="#D2D2D2"/>
<path d="M134.347 41.8037C134.736 42.8001 135.196 43.7678 135.721 44.6996C136.543 45.2122 137.397 45.672 138.277 46.0762C137.397 46.4776 136.543 46.9351 135.721 47.4457C135.196 48.3776 134.736 49.3453 134.347 50.3417C133.957 49.3453 133.498 48.3776 132.972 47.4457C132.153 46.9339 131.302 46.4764 130.423 46.0762C131.303 45.6761 132.155 45.2162 132.972 44.6996C133.498 43.7678 133.957 42.8001 134.347 41.8037Z" fill="white"/>
<path d="M134.368 41.7965C134.496 42.0176 134.61 42.2459 134.724 42.4741L135.08 43.1874L135.429 43.8579C135.493 43.972 135.55 44.0861 135.614 44.1931C135.669 44.2968 135.731 44.3969 135.799 44.4927L135.842 44.5498L135.998 44.6639L136.305 44.8351C136.518 44.9492 136.746 45.0705 136.974 45.1775L137.651 45.5198L138.327 45.8693C138.377 45.8952 138.414 45.9397 138.432 45.993C138.449 46.0464 138.445 46.1044 138.42 46.1547C138.41 46.1777 138.395 46.1984 138.376 46.2156C138.358 46.2327 138.336 46.246 138.313 46.2545C137.85 46.4542 137.38 46.6539 136.889 46.8679C136.654 46.9678 136.426 47.0819 136.176 47.1889L135.849 47.3744L135.706 47.4742V47.517L135.649 47.5955C135.581 47.6983 135.519 47.8056 135.464 47.9165C135.402 48.0252 135.345 48.1371 135.293 48.2517C135.187 48.4799 135.08 48.7082 134.98 48.965C134.781 49.4357 134.61 49.9136 134.432 50.3915C134.417 50.4266 134.39 50.455 134.356 50.4708C134.322 50.4867 134.283 50.489 134.247 50.4771C134.213 50.4632 134.185 50.438 134.168 50.4058L133.513 49.0292L133.171 48.3516C133.114 48.2446 133.057 48.1233 132.993 48.0234C132.941 47.9208 132.884 47.8208 132.822 47.7239L132.78 47.6668L132.623 47.5598L132.324 47.3886C132.103 47.2745 131.882 47.1532 131.655 47.0463L130.294 46.3758C130.261 46.3598 130.231 46.3373 130.206 46.3095C130.181 46.2816 130.162 46.2492 130.15 46.2139C130.139 46.1786 130.134 46.1413 130.136 46.1042C130.139 46.0671 130.149 46.0309 130.166 45.9977C130.194 45.9399 130.242 45.8942 130.302 45.8693C130.757 45.6625 131.22 45.4342 131.669 45.2203L132.381 44.8779L132.701 44.6996L132.83 44.614V44.5783L132.886 44.4998C132.956 44.4039 133.021 44.3039 133.079 44.2003L133.257 43.8793C133.385 43.6582 133.499 43.4299 133.613 43.2017L134.325 41.8465H134.361C134.361 41.8465 134.368 41.7894 134.368 41.7965ZM134.368 41.8892C134.296 42.1104 134.225 42.3243 134.147 42.5455C134.069 42.7666 133.983 43.0305 133.883 43.2587C133.784 43.487 133.698 43.7366 133.599 43.972C133.549 44.0933 133.499 44.2074 133.435 44.3358C133.381 44.4621 133.317 44.5838 133.243 44.6996L133.193 44.778V44.8137C133.157 44.8565 133.193 44.8137 133.193 44.8137L133.022 44.9563L132.687 45.1775L132.011 45.5555C131.562 45.8051 131.106 46.0334 130.643 46.2688V45.7623C131.113 45.9835 131.569 46.2046 132.025 46.4756L132.701 46.8537L133.057 47.0819L133.207 47.196L133.243 47.246L133.307 47.3458C133.388 47.4592 133.458 47.5812 133.513 47.7096C133.577 47.8309 133.627 47.945 133.684 48.0662C133.791 48.3016 133.883 48.537 133.983 48.7795C134.183 49.2503 134.353 49.7353 134.531 50.2061H134.261L134.916 48.8223C135.03 48.5941 135.137 48.3587 135.251 48.109C135.308 47.9949 135.358 47.8808 135.422 47.7595C135.48 47.6422 135.544 47.528 135.614 47.4172L135.671 47.3387V47.2959C135.671 47.2959 135.706 47.2959 135.721 47.2959L135.877 47.1675L136.205 46.9535L136.867 46.5541C137.309 46.2973 137.757 46.0477 138.213 45.8408V46.2331C137.743 46.0263 137.28 45.8123 136.824 45.5698L136.112 45.1917L135.763 44.9706L135.614 44.8493L135.578 44.7994L135.514 44.7067C135.437 44.5916 135.37 44.4698 135.315 44.3429C135.258 44.2217 135.208 44.1075 135.158 43.9863C135.051 43.7509 134.959 43.5155 134.866 43.273C134.774 43.0305 134.688 42.7951 134.603 42.5597C134.517 42.3243 134.41 42.1104 134.346 41.8892H134.368Z" fill="#D2D2D2"/>
<path d="M141.301 8.04004C141.301 8.04004 142.775 11.6064 143.21 12.0629C144.353 12.7788 145.542 13.4175 146.77 13.9745C145.541 14.5301 144.352 15.1687 143.21 15.8861C142.775 16.3212 141.301 19.909 141.301 19.909C141.301 19.909 139.827 16.3426 139.393 15.8861C138.25 15.1702 137.06 14.5316 135.832 13.9745C137.06 13.4174 138.25 12.7788 139.393 12.0629C139.827 11.635 141.301 8.04004 141.301 8.04004Z" fill="#F7DB00"/>
<path d="M141.33 8.02591C141.501 8.33976 141.665 8.66074 141.829 8.97459L142.32 9.91612L142.804 10.8505C142.89 11.0074 142.975 11.1643 143.061 11.307C143.137 11.4529 143.222 11.5935 143.317 11.7278L143.381 11.8134V11.8562C143.381 11.8562 143.346 11.8134 143.381 11.8562L143.595 12.0131L144.022 12.2485C144.328 12.4126 144.635 12.5766 144.948 12.7336L145.895 13.2043L146.835 13.6894C146.906 13.7246 146.959 13.7864 146.985 13.8612C147.01 13.936 147.005 14.0178 146.97 14.0888C146.938 14.1516 146.885 14.2017 146.821 14.2315C146.173 14.5096 145.525 14.7878 144.877 15.0803C144.556 15.2229 144.243 15.3798 143.922 15.5296L143.467 15.7864L143.267 15.9219H143.232L143.189 15.9719L143.111 16.0788C143.013 16.2229 142.925 16.373 142.847 16.5282C142.769 16.6709 142.69 16.8349 142.619 16.9918C142.463 17.3128 142.32 17.6338 142.185 17.9619C141.907 18.611 141.665 19.2743 141.416 19.9377C141.397 19.9867 141.359 20.0262 141.311 20.0475C141.263 20.0689 141.209 20.0705 141.159 20.0518C141.135 20.0446 141.113 20.0318 141.094 20.0145C141.076 19.9971 141.061 19.9757 141.053 19.952L140.134 18.0404C139.977 17.7265 139.821 17.4055 139.657 17.0988C139.579 16.9419 139.5 16.785 139.415 16.6423C139.347 16.4974 139.266 16.3589 139.173 16.2286L139.116 16.1502V16.1074L138.895 15.9505L138.482 15.7151L137.556 15.2372L135.662 14.3099C135.57 14.2639 135.5 14.1835 135.466 14.0861C135.433 13.9887 135.439 13.8821 135.484 13.7892C135.525 13.7091 135.593 13.646 135.676 13.6109C136.31 13.3185 136.951 13.0117 137.578 12.705C137.898 12.5552 138.211 12.3912 138.518 12.2343L138.966 11.9846L139.144 11.8705L139.187 11.8206L139.265 11.7136C139.364 11.5806 139.452 11.4398 139.529 11.2927C139.614 11.1572 139.7 11.0003 139.785 10.8505C139.956 10.5438 140.113 10.23 140.276 9.91612L141.252 8.0188C141.259 8.01357 141.268 8.01074 141.277 8.01074C141.286 8.01074 141.295 8.01357 141.302 8.0188L141.33 8.02591ZM141.33 8.16144C141.231 8.46102 141.131 8.76774 141.024 9.06732C140.917 9.36689 140.789 9.73778 140.661 10.073C140.533 10.4083 140.397 10.7364 140.255 11.0645C140.191 11.2373 140.117 11.4063 140.034 11.5709C139.96 11.7439 139.871 11.9109 139.771 12.0702L139.692 12.1843V12.2414C139.643 12.2985 139.692 12.2414 139.692 12.2414L139.45 12.4411L138.98 12.7407C138.674 12.919 138.361 13.1045 138.048 13.2685C137.421 13.618 136.787 13.9319 136.153 14.2529V13.5396C136.794 13.8463 137.435 14.153 138.062 14.4954C138.375 14.6594 138.688 14.8377 139.002 15.0161L139.5 15.3299L139.707 15.494L139.749 15.5582L139.849 15.6937C139.954 15.8581 140.046 16.0297 140.127 16.2072C140.214 16.3646 140.292 16.5265 140.362 16.6923C140.511 17.0204 140.647 17.3556 140.782 17.6837C141.06 18.3399 141.302 19.0104 141.544 19.6809H141.117L142.028 17.7479C142.185 17.4341 142.327 17.106 142.484 16.785L142.726 16.3C142.805 16.1368 142.896 15.9795 142.997 15.8292L143.068 15.7151L143.104 15.6651C143.12 15.6417 143.142 15.6222 143.168 15.6081L143.395 15.4298L143.844 15.1302L144.763 14.581C145.382 14.2243 146.002 13.8677 146.628 13.5467V14.0959C145.98 13.8106 145.34 13.5039 144.706 13.1687L143.766 12.648L143.282 12.3341L143.075 12.1701L143.032 12.1059L142.94 11.9703C142.835 11.8123 142.744 11.6452 142.669 11.4711C142.584 11.307 142.512 11.1429 142.441 10.9718C142.292 10.6508 142.171 10.3155 142.042 9.98743C141.914 9.65932 141.793 9.31695 141.679 8.98171C141.565 8.64646 141.394 8.46815 141.302 8.16144H141.33Z" fill="#D2D2D2"/>
</svg>
