<svg width="253" height="24" viewBox="0 0 253 24" fill="none" xmlns="http://www.w3.org/2000/svg">
<rect width="24" height="24" rx="12" fill="#00CCCC" fill-opacity="0.2"/>
<path d="M12 4C10.4178 4 8.87103 4.46919 7.55544 5.34824C6.23985 6.22729 5.21447 7.47672 4.60897 8.93853C4.00347 10.4003 3.84504 12.0089 4.15372 13.5607C4.4624 15.1126 5.22433 16.538 6.34315 17.6569C7.46197 18.7757 8.88743 19.5376 10.4393 19.8463C11.9911 20.155 13.5997 19.9965 15.0615 19.391C16.5233 18.7855 17.7727 17.7602 18.6518 16.4446C19.5308 15.129 20 13.5822 20 12C20 9.87827 19.1571 7.84344 17.6569 6.34315C16.1566 4.84285 14.1217 4 12 4ZM12.3429 8.91413C13.0701 8.91498 13.7673 9.20424 14.2815 9.71845C14.7958 10.2327 15.085 10.9299 15.0859 11.6571H14.4C14.3994 11.1117 14.1825 10.5888 13.7969 10.2031C13.4112 9.81747 12.8883 9.60056 12.3429 9.6V8.91413ZM14.5643 16.8C14.5435 16.8 12.4843 16.7648 9.83627 14.1637C7.2352 11.5168 7.2 9.45653 7.2 9.43573C7.2 9.1792 8.8 7.2 9.1536 7.2C9.27627 7.2 9.37174 7.2832 9.47627 7.408C9.728 7.70773 10.8411 9.46453 10.7899 9.75733C10.7653 9.89493 10.6485 9.99947 10.3136 10.2805C10.1486 10.4103 9.99412 10.5529 9.85174 10.7072C9.91993 10.9894 10.0213 11.2626 10.1536 11.5211C10.6467 12.5349 11.4659 13.3538 12.48 13.8464C12.7384 13.9787 13.0116 14.0801 13.2939 14.1483C13.4481 14.0059 13.5908 13.8514 13.7205 13.6864C14.0016 13.3515 14.1061 13.2347 14.2437 13.2101C14.5365 13.1568 16.2933 14.272 16.5931 14.5237C16.7179 14.6304 16.8011 14.7237 16.8011 14.8464C16.8 15.2 14.8208 16.8 14.5643 16.8ZM16.1141 11.6571C16.113 10.6572 15.7153 9.69866 15.0083 8.99167C14.3013 8.28468 13.3428 7.887 12.3429 7.88587V7.2C13.5246 7.20141 14.6574 7.67145 15.493 8.507C16.3286 9.34256 16.7986 10.4754 16.8 11.6571H16.1141Z" fill="white"/>
<path d="M33.488 17.196C32.536 17.196 31.6867 16.9883 30.94 16.573C30.198 16.153 29.6123 15.5627 29.183 14.802C28.7583 14.0367 28.546 13.136 28.546 12.1C28.546 11.064 28.7607 10.1657 29.19 9.405C29.624 8.63967 30.2167 8.04933 30.968 7.634C31.724 7.214 32.5827 7.004 33.544 7.004C34.0433 7.004 34.5193 7.05767 34.972 7.165C35.4247 7.27233 35.8213 7.41 36.162 7.578L36.022 8.81C35.672 8.642 35.287 8.49967 34.867 8.383C34.447 8.26633 34.0013 8.208 33.53 8.208C32.76 8.208 32.1137 8.383 31.591 8.733C31.0683 9.07833 30.6717 9.545 30.401 10.133C30.135 10.721 30.002 11.3767 30.002 12.1C30.002 12.8233 30.1327 13.479 30.394 14.067C30.66 14.655 31.052 15.124 31.57 15.474C32.0927 15.8193 32.7367 15.992 33.502 15.992C33.9873 15.992 34.4353 15.9407 34.846 15.838C35.2613 15.7307 35.6533 15.586 36.022 15.404L36.162 16.636C35.812 16.7947 35.4177 16.9277 34.979 17.035C34.5403 17.1423 34.0433 17.196 33.488 17.196ZM39.077 17.14C38.6523 17.14 38.2813 17.0537 37.964 16.881C37.6466 16.7083 37.3993 16.4727 37.222 16.174C37.0493 15.8753 36.963 15.5347 36.963 15.152C36.963 14.7647 37.047 14.4333 37.215 14.158C37.3876 13.878 37.6163 13.647 37.901 13.465C38.1903 13.2783 38.5123 13.1313 38.867 13.024C39.2216 12.912 39.588 12.8327 39.966 12.786C40.3486 12.7347 40.715 12.7067 41.065 12.702C41.065 12.0487 40.9366 11.6217 40.68 11.421C40.4233 11.2203 40.0523 11.12 39.567 11.12C39.3103 11.12 39.035 11.1597 38.741 11.239C38.4516 11.3183 38.125 11.484 37.761 11.736L37.579 10.714C37.8543 10.504 38.1973 10.3337 38.608 10.203C39.0186 10.0677 39.4503 10 39.903 10C40.4816 10 40.9483 10.1027 41.303 10.308C41.6576 10.5087 41.9166 10.8493 42.08 11.33C42.2433 11.8107 42.325 12.464 42.325 13.29V14.69C42.325 15.0167 42.339 15.2873 42.367 15.502C42.3996 15.712 42.4696 15.8707 42.577 15.978C42.689 16.0807 42.8663 16.132 43.109 16.132H43.235L43.039 17.14H42.941C42.535 17.14 42.22 17.1003 41.996 17.021C41.7766 16.9417 41.6086 16.8273 41.492 16.678C41.3753 16.5287 41.2703 16.3467 41.177 16.132C40.9203 16.4307 40.617 16.6733 40.267 16.86C39.917 17.0467 39.5203 17.14 39.077 17.14ZM39.315 16.132C39.651 16.132 39.9753 16.048 40.288 15.88C40.6053 15.712 40.8643 15.488 41.065 15.208V13.57C40.3976 13.5933 39.8563 13.6587 39.441 13.766C39.0303 13.8733 38.7293 14.0343 38.538 14.249C38.3466 14.4637 38.251 14.7413 38.251 15.082C38.251 15.4507 38.349 15.719 38.545 15.887C38.7456 16.0503 39.0023 16.132 39.315 16.132ZM38.125 9.398V8.544L39.903 7.284L41.681 8.544V9.398L39.903 8.474L38.125 9.398ZM41.149 7.354L39.931 5.716H41.261L42.045 7.354H41.149ZM44.2075 17V10.14H45.1875L45.4395 11.456L44.9495 11.246C45.4115 10.7327 45.8618 10.3967 46.3005 10.238C46.7438 10.0793 47.1755 10 47.5955 10C48.5988 10 49.3152 10.2893 49.7445 10.868C50.1785 11.4467 50.3955 12.2307 50.3955 13.22V17H49.1355V13.22C49.1355 12.492 49.0002 11.96 48.7295 11.624C48.4588 11.288 47.9968 11.12 47.3435 11.12C46.8815 11.12 46.4568 11.2227 46.0695 11.428C45.6868 11.6287 45.4348 11.9507 45.3135 12.394L45.4675 11.624V17H44.2075ZM55.1584 17V6.5H56.4324V11.33L55.9844 11.302C56.3064 10.896 56.6517 10.5787 57.0204 10.35C57.3937 10.1167 57.8697 10 58.4484 10C59.041 10 59.5357 10.133 59.9324 10.399C60.329 10.665 60.6254 11.036 60.8214 11.512C61.022 11.988 61.1224 12.5433 61.1224 13.178V17H59.8624V13.332C59.8624 12.576 59.7224 12.0183 59.4424 11.659C59.167 11.2997 58.7424 11.12 58.1684 11.12C57.7344 11.12 57.3494 11.2367 57.0134 11.47C56.682 11.7033 56.4184 12.016 56.2224 12.408L56.4324 11.638V17H55.1584ZM65.7563 17.14C65.0376 17.14 64.4239 16.9813 63.9153 16.664C63.4113 16.342 63.0239 15.9127 62.7533 15.376C62.4873 14.8347 62.3543 14.2327 62.3543 13.57C62.3543 12.9073 62.4873 12.3077 62.7533 11.771C63.0239 11.2297 63.4113 10.8003 63.9153 10.483C64.4239 10.161 65.0376 10 65.7563 10C66.4703 10 67.0816 10.161 67.5903 10.483C68.0989 10.8003 68.4863 11.2297 68.7523 11.771C69.0229 12.3077 69.1583 12.9073 69.1583 13.57C69.1583 14.2327 69.0229 14.8347 68.7523 15.376C68.4863 15.9127 68.0989 16.342 67.5903 16.664C67.0816 16.9813 66.4703 17.14 65.7563 17.14ZM65.7563 16.02C66.4376 16.02 66.9603 15.8053 67.3243 15.376C67.6883 14.942 67.8703 14.34 67.8703 13.57C67.8703 12.8 67.6883 12.2003 67.3243 11.771C66.9603 11.337 66.4376 11.12 65.7563 11.12C65.0796 11.12 64.5569 11.337 64.1883 11.771C63.8243 12.2003 63.6423 12.8 63.6423 13.57C63.6423 14.34 63.8243 14.942 64.1883 15.376C64.5569 15.8053 65.0796 16.02 65.7563 16.02ZM63.9783 9.398V8.544L65.7563 7.284L67.5343 8.544V9.398L65.7563 8.474L63.9783 9.398ZM66.9183 6.71C66.7036 6.71 66.4773 6.66333 66.2393 6.57C66.0059 6.472 65.7773 6.37633 65.5533 6.283C65.3339 6.185 65.1356 6.136 64.9583 6.136C64.6409 6.136 64.4823 6.304 64.4823 6.64H63.5723C63.5723 6.18267 63.6609 5.835 63.8383 5.597C64.0203 5.359 64.2723 5.24 64.5943 5.24C64.8089 5.24 65.0329 5.289 65.2663 5.387C65.5043 5.48033 65.7329 5.576 65.9523 5.674C66.1763 5.76733 66.3769 5.814 66.5543 5.814C66.8716 5.814 67.0303 5.646 67.0303 5.31H67.9403C67.9403 5.76267 67.8493 6.11033 67.6673 6.353C67.4899 6.591 67.2403 6.71 66.9183 6.71ZM75.968 17.14C75.534 17.14 75.1864 17.0607 74.925 16.902C74.6637 16.7433 74.4724 16.5403 74.351 16.293C74.2344 16.041 74.176 15.7773 74.176 15.502V11.12H73L73.112 10.14H74.176V8.446L75.436 8.32V10.14H77.242V11.12H75.436V14.732C75.436 15.1707 75.4617 15.488 75.513 15.684C75.5644 15.88 75.6904 16.0037 75.891 16.055C76.0964 16.1063 76.4254 16.132 76.878 16.132H77.2L77.102 17.14H75.968ZM78.3188 17V10.14H79.3548L79.5088 11.274C79.8588 10.84 80.1925 10.5203 80.5098 10.315C80.8318 10.105 81.1748 10 81.5388 10C81.6555 10 81.7628 10.014 81.8608 10.042L81.7348 11.428C81.6742 11.414 81.6088 11.4047 81.5388 11.4C81.4735 11.3907 81.3988 11.386 81.3148 11.386C80.9508 11.386 80.6148 11.4677 80.3068 11.631C80.0035 11.7897 79.7888 11.9647 79.6628 12.156V17H78.3188ZM85.5668 17.14C84.8481 17.14 84.2345 16.9813 83.7258 16.664C83.2218 16.342 82.8345 15.9127 82.5638 15.376C82.2978 14.8347 82.1648 14.2327 82.1648 13.57C82.1648 12.9073 82.2978 12.3077 82.5638 11.771C82.8345 11.2297 83.2218 10.8003 83.7258 10.483C84.2345 10.161 84.8481 10 85.5668 10C86.2808 10 86.8921 10.161 87.4008 10.483C87.9095 10.8003 88.2968 11.2297 88.5628 11.771C88.8335 12.3077 88.9688 12.9073 88.9688 13.57C88.9688 14.2327 88.8335 14.8347 88.5628 15.376C88.2968 15.9127 87.9095 16.342 87.4008 16.664C86.8921 16.9813 86.2808 17.14 85.5668 17.14ZM85.5668 16.02C86.2481 16.02 86.7708 15.8053 87.1348 15.376C87.4988 14.942 87.6808 14.34 87.6808 13.57C87.6808 12.8 87.4988 12.2003 87.1348 11.771C86.7708 11.337 86.2481 11.12 85.5668 11.12C84.8901 11.12 84.3675 11.337 83.9988 11.771C83.6348 12.2003 83.4528 12.8 83.4528 13.57C83.4528 14.34 83.6348 14.942 83.9988 15.376C84.3675 15.8053 84.8901 16.02 85.5668 16.02ZM86.4628 11.106V10.14C86.8128 10.14 87.0858 10.0607 87.2818 9.902C87.4825 9.73867 87.5828 9.47267 87.5828 9.104H88.7868C88.7868 9.45867 88.6841 9.78767 88.4788 10.091C88.2735 10.3943 87.9958 10.6393 87.6458 10.826C87.2958 11.0127 86.9015 11.106 86.4628 11.106ZM84.8948 19.394V18.134H86.2388V19.394H84.8948ZM91.0101 18.498H90.2121L90.7161 17H90.2261V15.516H91.7381V16.86L91.0101 18.498ZM100.928 17.196C100.023 17.196 99.2061 16.9883 98.4781 16.573C97.7547 16.153 97.1807 15.5603 96.7561 14.795C96.3361 14.0297 96.1261 13.1267 96.1261 12.086C96.1261 11.0547 96.3431 10.1587 96.7771 9.398C97.2157 8.63733 97.8154 8.04933 98.5761 7.634C99.3414 7.214 100.214 7.004 101.194 7.004C101.721 7.004 102.223 7.06 102.699 7.172C103.18 7.27933 103.597 7.41 103.952 7.564L103.826 8.726C103.443 8.57667 103.037 8.453 102.608 8.355C102.179 8.257 101.721 8.208 101.236 8.208C100.401 8.208 99.7124 8.383 99.1711 8.733C98.6344 9.07833 98.2354 9.545 97.9741 10.133C97.7127 10.721 97.5821 11.3767 97.5821 12.1C97.5821 12.8467 97.7151 13.514 97.9811 14.102C98.2471 14.6853 98.6554 15.1473 99.2061 15.488C99.7567 15.824 100.457 15.992 101.306 15.992C101.516 15.992 101.777 15.9733 102.09 15.936C102.403 15.8987 102.687 15.8287 102.944 15.726V13.29H101.404V12.086H104.274V16.454C103.891 16.664 103.415 16.8413 102.846 16.986C102.277 17.126 101.637 17.196 100.928 17.196ZM108.768 17.14C108.049 17.14 107.436 16.9813 106.927 16.664C106.423 16.342 106.036 15.9127 105.765 15.376C105.499 14.8347 105.366 14.2327 105.366 13.57C105.366 12.9073 105.499 12.3077 105.765 11.771C106.036 11.2297 106.423 10.8003 106.927 10.483C107.436 10.161 108.049 10 108.768 10C109.482 10 110.093 10.161 110.602 10.483C111.111 10.8003 111.498 11.2297 111.764 11.771C112.035 12.3077 112.17 12.9073 112.17 13.57C112.17 14.2327 112.035 14.8347 111.764 15.376C111.498 15.9127 111.111 16.342 110.602 16.664C110.093 16.9813 109.482 17.14 108.768 17.14ZM108.768 16.02C109.449 16.02 109.972 15.8053 110.336 15.376C110.7 14.942 110.882 14.34 110.882 13.57C110.882 12.8 110.7 12.2003 110.336 11.771C109.972 11.337 109.449 11.12 108.768 11.12C108.091 11.12 107.569 11.337 107.2 11.771C106.836 12.2003 106.654 12.8 106.654 13.57C106.654 14.34 106.836 14.942 107.2 15.376C107.569 15.8053 108.091 16.02 108.768 16.02ZM108.096 19.394V18.134H109.44V19.394H108.096ZM113.469 17V10.14H114.729V17H113.469ZM113.469 8.6V7.2H114.729V8.6H113.469ZM119.581 17V10.14H120.561L120.813 11.456L120.323 11.246C120.785 10.7327 121.235 10.3967 121.674 10.238C122.117 10.0793 122.549 10 122.969 10C123.972 10 124.688 10.2893 125.118 10.868C125.552 11.4467 125.769 12.2307 125.769 13.22V17H124.509V13.22C124.509 12.492 124.373 11.96 124.103 11.624C123.832 11.288 123.37 11.12 122.717 11.12C122.255 11.12 121.83 11.2227 121.443 11.428C121.06 11.6287 120.808 11.9507 120.687 12.394L120.841 11.624V17H119.581ZM130.173 20.5C129.548 20.5 128.988 20.423 128.493 20.269C128.003 20.115 127.616 19.8863 127.331 19.583C127.051 19.2797 126.911 18.904 126.911 18.456C126.911 18.0827 127.016 17.7607 127.226 17.49C127.441 17.224 127.732 17.0093 128.101 16.846C127.882 16.7387 127.714 16.6127 127.597 16.468C127.485 16.3187 127.429 16.1553 127.429 15.978C127.429 15.768 127.492 15.579 127.618 15.411C127.749 15.2383 127.956 15.096 128.241 14.984C127.858 14.746 127.564 14.4263 127.359 14.025C127.154 13.619 127.051 13.1687 127.051 12.674C127.051 12.1747 127.163 11.7243 127.387 11.323C127.611 10.917 127.933 10.595 128.353 10.357C128.778 10.119 129.286 10 129.879 10C130.196 10 130.495 10.0467 130.775 10.14C131.06 10.2333 131.321 10.364 131.559 10.532C131.769 10.4107 132.016 10.3103 132.301 10.231C132.59 10.1517 132.912 10.112 133.267 10.112C133.29 10.112 133.309 10.112 133.323 10.112C133.342 10.112 133.36 10.112 133.379 10.112L133.225 10.952C133.169 10.952 133.115 10.952 133.064 10.952C133.013 10.952 132.959 10.952 132.903 10.952C132.856 10.952 132.749 10.959 132.581 10.973C132.413 10.987 132.259 11.0127 132.119 11.05C132.31 11.274 132.457 11.526 132.56 11.806C132.667 12.0813 132.721 12.3707 132.721 12.674C132.721 13.1967 132.607 13.6657 132.378 14.081C132.154 14.4917 131.83 14.8183 131.405 15.061C130.98 15.299 130.472 15.418 129.879 15.418C129.711 15.418 129.55 15.4087 129.396 15.39C129.242 15.3667 129.095 15.334 128.955 15.292C128.74 15.362 128.633 15.4833 128.633 15.656C128.633 15.7587 128.694 15.8497 128.815 15.929C128.936 16.0037 129.132 16.062 129.403 16.104L131.237 16.398C131.979 16.5147 132.551 16.7293 132.952 17.042C133.358 17.3547 133.561 17.798 133.561 18.372C133.561 18.848 133.421 19.2423 133.141 19.555C132.866 19.8723 132.474 20.108 131.965 20.262C131.456 20.4207 130.859 20.5 130.173 20.5ZM130.285 19.38C130.929 19.38 131.424 19.296 131.769 19.128C132.114 18.9647 132.287 18.722 132.287 18.4C132.287 18.148 132.177 17.9497 131.958 17.805C131.743 17.6603 131.433 17.5507 131.027 17.476L129.074 17.147C128.817 17.259 128.593 17.4083 128.402 17.595C128.211 17.7863 128.115 18.008 128.115 18.26C128.115 18.652 128.311 18.9367 128.703 19.114C129.1 19.2913 129.627 19.38 130.285 19.38ZM129.879 14.41C130.411 14.41 130.817 14.2513 131.097 13.934C131.377 13.612 131.517 13.1967 131.517 12.688C131.517 12.198 131.377 11.7967 131.097 11.484C130.817 11.1667 130.411 11.008 129.879 11.008C129.347 11.008 128.943 11.1667 128.668 11.484C128.393 11.7967 128.255 12.198 128.255 12.688C128.255 13.1967 128.393 13.612 128.668 13.934C128.943 14.2513 129.347 14.41 129.879 14.41ZM135.97 17.14C135.545 17.14 135.174 17.0537 134.857 16.881C134.539 16.7083 134.292 16.4727 134.115 16.174C133.942 15.8753 133.856 15.5347 133.856 15.152C133.856 14.7647 133.94 14.4333 134.108 14.158C134.28 13.878 134.509 13.647 134.794 13.465C135.083 13.2783 135.405 13.1313 135.76 13.024C136.114 12.912 136.481 12.8327 136.859 12.786C137.241 12.7347 137.608 12.7067 137.958 12.702C137.958 12.0487 137.829 11.6217 137.573 11.421C137.316 11.2203 136.945 11.12 136.46 11.12C136.203 11.12 135.928 11.1597 135.634 11.239C135.344 11.3183 135.018 11.484 134.654 11.736L134.472 10.714C134.747 10.504 135.09 10.3337 135.501 10.203C135.911 10.0677 136.343 10 136.796 10C137.374 10 137.841 10.1027 138.196 10.308C138.55 10.5087 138.809 10.8493 138.973 11.33C139.136 11.8107 139.218 12.464 139.218 13.29V14.69C139.218 15.0167 139.232 15.2873 139.26 15.502C139.292 15.712 139.362 15.8707 139.47 15.978C139.582 16.0807 139.759 16.132 140.002 16.132H140.128L139.932 17.14H139.834C139.428 17.14 139.113 17.1003 138.889 17.021C138.669 16.9417 138.501 16.8273 138.385 16.678C138.268 16.5287 138.163 16.3467 138.07 16.132C137.813 16.4307 137.51 16.6733 137.16 16.86C136.81 17.0467 136.413 17.14 135.97 17.14ZM136.208 16.132C136.544 16.132 136.868 16.048 137.181 15.88C137.498 15.712 137.757 15.488 137.958 15.208V13.57C137.29 13.5933 136.749 13.6587 136.334 13.766C135.923 13.8733 135.622 14.0343 135.431 14.249C135.239 14.4637 135.144 14.7413 135.144 15.082C135.144 15.4507 135.242 15.719 135.438 15.887C135.638 16.0503 135.895 16.132 136.208 16.132ZM141.345 20.388L142.927 16.692L140.071 10.14H141.471L143.613 15.236L145.545 10.14H146.945L142.745 20.388H141.345ZM147.741 11.624V10.14H149.253V11.624H147.741ZM147.741 17V15.516H149.253V17H147.741Z" fill="white"/>
<path d="M159.648 18.224C158.704 18.224 157.877 17.9787 157.168 17.488C156.464 16.992 155.915 16.3013 155.52 15.416C155.125 14.5253 154.928 13.488 154.928 12.304C154.928 11.1733 155.125 10.1787 155.52 9.32C155.915 8.456 156.464 7.784 157.168 7.304C157.877 6.81867 158.704 6.576 159.648 6.576C160.597 6.576 161.424 6.81867 162.128 7.304C162.837 7.78933 163.387 8.464 163.776 9.328C164.171 10.1867 164.368 11.1787 164.368 12.304C164.368 13.488 164.171 14.5253 163.776 15.416C163.387 16.3013 162.837 16.992 162.128 17.488C161.424 17.9787 160.597 18.224 159.648 18.224ZM159.648 16.384C160.155 16.384 160.608 16.2453 161.008 15.968C161.413 15.6907 161.733 15.2533 161.968 14.656C162.203 14.0533 162.32 13.2693 162.32 12.304C162.32 10.976 162.064 9.992 161.552 9.352C161.045 8.70667 160.411 8.384 159.648 8.384C158.891 8.384 158.256 8.704 157.744 9.344C157.232 9.97867 156.976 10.9653 156.976 12.304C156.976 13.2587 157.093 14.0373 157.328 14.64C157.563 15.2373 157.88 15.6773 158.28 15.96C158.685 16.2427 159.141 16.384 159.648 16.384ZM168.657 18L167.233 16.88C167.51 16.7467 167.841 16.5573 168.225 16.312C168.609 16.0667 169.004 15.776 169.409 15.44C169.814 15.0987 170.193 14.7147 170.545 14.288C170.897 13.8613 171.182 13.3973 171.401 12.896C171.62 12.3947 171.729 11.8613 171.729 11.296L172.305 12C172.028 12.4533 171.652 12.824 171.177 13.112C170.708 13.3947 170.097 13.536 169.345 13.536C168.721 13.536 168.161 13.392 167.665 13.104C167.174 12.816 166.785 12.4187 166.497 11.912C166.209 11.4053 166.065 10.8213 166.065 10.16C166.065 9.45067 166.214 8.82667 166.513 8.288C166.812 7.74933 167.236 7.33067 167.785 7.032C168.34 6.728 168.993 6.576 169.745 6.576C170.524 6.576 171.204 6.74933 171.785 7.096C172.366 7.44267 172.817 7.93067 173.137 8.56C173.457 9.184 173.617 9.91467 173.617 10.752C173.617 11.6213 173.462 12.4373 173.153 13.2C172.849 13.9573 172.449 14.648 171.953 15.272C171.462 15.8907 170.926 16.432 170.345 16.896C169.769 17.3547 169.206 17.7227 168.657 18ZM169.713 11.776C170.225 11.776 170.646 11.616 170.977 11.296C171.308 10.9707 171.473 10.5653 171.473 10.08C171.473 9.58933 171.308 9.176 170.977 8.84C170.646 8.504 170.225 8.336 169.713 8.336C169.212 8.336 168.793 8.504 168.457 8.84C168.121 9.176 167.953 9.58933 167.953 10.08C167.953 10.5653 168.121 10.9707 168.457 11.296C168.793 11.616 169.212 11.776 169.713 11.776ZM177.977 18.224C177.305 18.224 176.695 18.1467 176.145 17.992C175.596 17.832 175.156 17.6693 174.825 17.504L175.321 15.776C175.673 15.952 176.079 16.112 176.537 16.256C176.996 16.3947 177.476 16.464 177.977 16.464C178.564 16.464 179.033 16.3307 179.385 16.064C179.737 15.792 179.913 15.376 179.913 14.816C179.913 14.256 179.74 13.8347 179.393 13.552C179.052 13.264 178.537 13.12 177.849 13.12H176.713V11.2H177.833C178.409 11.2 178.849 11.0667 179.153 10.8C179.457 10.5333 179.609 10.1653 179.609 9.696C179.609 9.28533 179.468 8.95733 179.185 8.712C178.908 8.46133 178.505 8.336 177.977 8.336C177.524 8.336 177.095 8.40533 176.689 8.544C176.289 8.68267 175.892 8.864 175.497 9.088L175.193 7.28C175.561 7.088 175.999 6.92267 176.505 6.784C177.017 6.64533 177.577 6.576 178.185 6.576C178.916 6.576 179.532 6.70133 180.033 6.952C180.535 7.19733 180.913 7.536 181.169 7.968C181.431 8.4 181.561 8.89067 181.561 9.44C181.561 10.16 181.369 10.7707 180.985 11.272C180.601 11.7733 180.057 12.112 179.353 12.288L179.337 11.92C180.116 12.048 180.748 12.36 181.233 12.856C181.719 13.352 181.961 14.0053 181.961 14.816C181.961 15.5467 181.793 16.1653 181.457 16.672C181.127 17.1787 180.663 17.5653 180.065 17.832C179.468 18.0933 178.772 18.224 177.977 18.224ZM183.642 18V15.824H185.722V18H183.642ZM188.476 18V9.696C188.268 9.82933 188.047 9.94667 187.812 10.048C187.583 10.1493 187.335 10.224 187.068 10.272L186.892 8.544C187.121 8.496 187.377 8.38133 187.66 8.2C187.943 8.01867 188.204 7.80533 188.444 7.56C188.684 7.30933 188.855 7.056 188.956 6.8H190.524V18H188.476ZM192.782 18L195.726 13.472C196.115 12.8747 196.427 12.3707 196.662 11.96C196.902 11.5493 197.075 11.1893 197.182 10.88C197.289 10.5707 197.342 10.2667 197.342 9.968C197.342 9.50933 197.211 9.14933 196.95 8.888C196.694 8.62667 196.334 8.496 195.87 8.496C195.31 8.496 194.806 8.63467 194.358 8.912C193.915 9.18933 193.518 9.504 193.166 9.856L192.91 7.792C193.39 7.408 193.899 7.10933 194.438 6.896C194.982 6.68267 195.598 6.576 196.286 6.576C196.963 6.576 197.526 6.71467 197.974 6.992C198.427 7.26933 198.766 7.63733 198.99 8.096C199.214 8.55467 199.326 9.056 199.326 9.6C199.326 10.0213 199.267 10.4453 199.15 10.872C199.033 11.2933 198.838 11.7627 198.566 12.28C198.299 12.792 197.939 13.392 197.486 14.08L196.174 16.08H199.726V18H192.782ZM206.195 18.224C205.251 18.224 204.424 17.9787 203.715 17.488C203.011 16.992 202.462 16.3013 202.067 15.416C201.672 14.5253 201.475 13.488 201.475 12.304C201.475 11.1733 201.672 10.1787 202.067 9.32C202.462 8.456 203.011 7.784 203.715 7.304C204.424 6.81867 205.251 6.576 206.195 6.576C207.144 6.576 207.971 6.81867 208.675 7.304C209.384 7.78933 209.934 8.464 210.323 9.328C210.718 10.1867 210.915 11.1787 210.915 12.304C210.915 13.488 210.718 14.5253 210.323 15.416C209.934 16.3013 209.384 16.992 208.675 17.488C207.971 17.9787 207.144 18.224 206.195 18.224ZM206.195 16.384C206.702 16.384 207.155 16.2453 207.555 15.968C207.96 15.6907 208.28 15.2533 208.515 14.656C208.75 14.0533 208.867 13.2693 208.867 12.304C208.867 10.976 208.611 9.992 208.099 9.352C207.592 8.70667 206.958 8.384 206.195 8.384C205.438 8.384 204.803 8.704 204.291 9.344C203.779 9.97867 203.523 10.9653 203.523 12.304C203.523 13.2587 203.64 14.0373 203.875 14.64C204.11 15.2373 204.427 15.6773 204.827 15.96C205.232 16.2427 205.688 16.384 206.195 16.384ZM212.408 18V15.824H214.488V18H212.408ZM220.051 18.224C219.24 18.224 218.539 18.08 217.947 17.792C217.36 17.4987 216.907 17.0933 216.587 16.576C216.272 16.0587 216.115 15.4613 216.115 14.784C216.115 14.112 216.28 13.5227 216.611 13.016C216.941 12.504 217.4 12.1067 217.987 11.824C218.579 11.536 219.267 11.392 220.051 11.392C220.835 11.392 221.523 11.536 222.115 11.824C222.707 12.1067 223.165 12.504 223.491 13.016C223.821 13.5227 223.987 14.112 223.987 14.784C223.987 15.4613 223.827 16.0587 223.507 16.576C223.187 17.0933 222.731 17.4987 222.139 17.792C221.552 18.08 220.856 18.224 220.051 18.224ZM220.051 16.464C220.701 16.464 221.205 16.2987 221.563 15.968C221.92 15.6373 222.099 15.2 222.099 14.656C222.099 14.144 221.92 13.72 221.563 13.384C221.205 13.048 220.701 12.88 220.051 12.88C219.405 12.88 218.901 13.048 218.539 13.384C218.181 13.72 218.003 14.144 218.003 14.656C218.003 15.2 218.181 15.6373 218.539 15.968C218.901 16.2987 219.405 16.464 220.051 16.464ZM220.051 12.56C219.416 12.56 218.84 12.4347 218.323 12.184C217.805 11.9333 217.392 11.5867 217.083 11.144C216.779 10.696 216.627 10.1813 216.627 9.6C216.627 9.10933 216.741 8.632 216.971 8.168C217.205 7.704 217.573 7.32267 218.075 7.024C218.581 6.72533 219.24 6.576 220.051 6.576C220.861 6.576 221.512 6.72533 222.003 7.024C222.499 7.32267 222.856 7.704 223.075 8.168C223.299 8.632 223.411 9.10933 223.411 9.6C223.411 10.1813 223.272 10.696 222.995 11.144C222.723 11.5867 222.333 11.9333 221.827 12.184C221.325 12.4347 220.733 12.56 220.051 12.56ZM220.051 11.072C220.573 11.072 220.965 10.9307 221.227 10.648C221.488 10.36 221.619 10.016 221.619 9.616C221.619 9.18933 221.488 8.84267 221.227 8.576C220.965 8.30933 220.573 8.176 220.051 8.176C219.533 8.176 219.131 8.30933 218.843 8.576C218.56 8.84267 218.419 9.18933 218.419 9.616C218.419 10.016 218.56 10.36 218.843 10.648C219.131 10.9307 219.533 11.072 220.051 11.072ZM229.515 18.224C228.736 18.224 228.056 18.0507 227.475 17.704C226.894 17.3573 226.443 16.872 226.123 16.248C225.803 15.6187 225.643 14.8853 225.643 14.048C225.643 13.1467 225.8 12.3067 226.115 11.528C226.43 10.744 226.843 10.032 227.355 9.392C227.867 8.74667 228.422 8.18667 229.019 7.712C229.616 7.23733 230.198 6.85867 230.763 6.576L232.187 7.696C231.904 7.83467 231.563 8.032 231.163 8.288C230.768 8.544 230.36 8.85067 229.939 9.208C229.518 9.56 229.123 9.95733 228.755 10.4C228.392 10.8427 228.096 11.3253 227.867 11.848C227.643 12.3653 227.531 12.9173 227.531 13.504L226.955 12.8C227.238 12.3413 227.614 11.9707 228.083 11.688C228.552 11.4053 229.163 11.264 229.915 11.264C230.539 11.264 231.099 11.408 231.595 11.696C232.091 11.984 232.48 12.3813 232.763 12.888C233.051 13.3947 233.195 13.9787 233.195 14.64C233.195 15.3493 233.046 15.9733 232.747 16.512C232.448 17.0507 232.022 17.472 231.467 17.776C230.918 18.0747 230.267 18.224 229.515 18.224ZM229.547 16.528C230.059 16.528 230.486 16.352 230.827 16C231.168 15.648 231.339 15.2213 231.339 14.72C231.339 14.2133 231.168 13.7947 230.827 13.464C230.486 13.128 230.059 12.96 229.547 12.96C229.03 12.96 228.6 13.128 228.259 13.464C227.923 13.7947 227.755 14.2133 227.755 14.72C227.755 15.2213 227.923 15.648 228.259 16C228.6 16.352 229.03 16.528 229.547 16.528ZM238.691 18.224C237.881 18.224 237.179 18.08 236.587 17.792C236.001 17.4987 235.547 17.0933 235.227 16.576C234.913 16.0587 234.755 15.4613 234.755 14.784C234.755 14.112 234.921 13.5227 235.251 13.016C235.582 12.504 236.041 12.1067 236.627 11.824C237.219 11.536 237.907 11.392 238.691 11.392C239.475 11.392 240.163 11.536 240.755 11.824C241.347 12.1067 241.806 12.504 242.131 13.016C242.462 13.5227 242.627 14.112 242.627 14.784C242.627 15.4613 242.467 16.0587 242.147 16.576C241.827 17.0933 241.371 17.4987 240.779 17.792C240.193 18.08 239.497 18.224 238.691 18.224ZM238.691 16.464C239.342 16.464 239.846 16.2987 240.203 15.968C240.561 15.6373 240.739 15.2 240.739 14.656C240.739 14.144 240.561 13.72 240.203 13.384C239.846 13.048 239.342 12.88 238.691 12.88C238.046 12.88 237.542 13.048 237.179 13.384C236.822 13.72 236.643 14.144 236.643 14.656C236.643 15.2 236.822 15.6373 237.179 15.968C237.542 16.2987 238.046 16.464 238.691 16.464ZM238.691 12.56C238.057 12.56 237.481 12.4347 236.963 12.184C236.446 11.9333 236.033 11.5867 235.723 11.144C235.419 10.696 235.267 10.1813 235.267 9.6C235.267 9.10933 235.382 8.632 235.611 8.168C235.846 7.704 236.214 7.32267 236.715 7.024C237.222 6.72533 237.881 6.576 238.691 6.576C239.502 6.576 240.153 6.72533 240.643 7.024C241.139 7.32267 241.497 7.704 241.715 8.168C241.939 8.632 242.051 9.10933 242.051 9.6C242.051 10.1813 241.913 10.696 241.635 11.144C241.363 11.5867 240.974 11.9333 240.467 12.184C239.966 12.4347 239.374 12.56 238.691 12.56ZM238.691 11.072C239.214 11.072 239.606 10.9307 239.867 10.648C240.129 10.36 240.259 10.016 240.259 9.616C240.259 9.18933 240.129 8.84267 239.867 8.576C239.606 8.30933 239.214 8.176 238.691 8.176C238.174 8.176 237.771 8.30933 237.483 8.576C237.201 8.84267 237.059 9.18933 237.059 9.616C237.059 10.016 237.201 10.36 237.483 10.648C237.771 10.9307 238.174 11.072 238.691 11.072ZM248.156 18.224C247.377 18.224 246.697 18.0507 246.116 17.704C245.534 17.3573 245.084 16.872 244.764 16.248C244.444 15.6187 244.284 14.8853 244.284 14.048C244.284 13.1467 244.441 12.3067 244.756 11.528C245.07 10.744 245.484 10.032 245.996 9.392C246.508 8.74667 247.062 8.18667 247.66 7.712C248.257 7.23733 248.838 6.85867 249.404 6.576L250.828 7.696C250.545 7.83467 250.204 8.032 249.804 8.288C249.409 8.544 249.001 8.85067 248.58 9.208C248.158 9.56 247.764 9.95733 247.396 10.4C247.033 10.8427 246.737 11.3253 246.508 11.848C246.284 12.3653 246.172 12.9173 246.172 13.504L245.596 12.8C245.878 12.3413 246.254 11.9707 246.724 11.688C247.193 11.4053 247.804 11.264 248.556 11.264C249.18 11.264 249.74 11.408 250.236 11.696C250.732 11.984 251.121 12.3813 251.404 12.888C251.692 13.3947 251.836 13.9787 251.836 14.64C251.836 15.3493 251.686 15.9733 251.388 16.512C251.089 17.0507 250.662 17.472 250.108 17.776C249.558 18.0747 248.908 18.224 248.156 18.224ZM248.188 16.528C248.7 16.528 249.126 16.352 249.468 16C249.809 15.648 249.98 15.2213 249.98 14.72C249.98 14.2133 249.809 13.7947 249.468 13.464C249.126 13.128 248.7 12.96 248.188 12.96C247.67 12.96 247.241 13.128 246.9 13.464C246.564 13.7947 246.396 14.2133 246.396 14.72C246.396 15.2213 246.564 15.648 246.9 16C247.241 16.352 247.67 16.528 248.188 16.528Z" fill="#F9D742"/>
</svg>
