<svg width="141" height="36" viewBox="0 0 141 36" fill="none" xmlns="http://www.w3.org/2000/svg">
<path d="M53.3652 22.5652C53.1868 22.5771 53.0078 22.5771 52.8294 22.5652C51.5527 22.495 49.9276 22.4598 47.954 22.4598H42.1475C42.3559 22.4338 42.5558 22.361 42.7322 22.247C42.9087 22.1329 43.0571 21.9806 43.1665 21.8013C43.4342 21.3226 43.5592 20.7772 43.5266 20.2296V8.8152C43.5602 8.26759 43.4352 7.72193 43.1665 7.24354C43.0561 7.06426 42.9076 6.9115 42.7315 6.79616C42.5554 6.68082 42.356 6.60572 42.1475 6.57622H46.7505C47.9891 6.57622 49.1399 6.57622 50.194 6.57622H50.3697C51.1076 6.57622 51.7928 6.52355 52.434 6.47086C53.0753 6.41818 53.2334 6.47086 53.2334 6.57622V6.97132V9.15764C53.2017 8.94949 53.117 8.75297 52.9875 8.58693C52.8051 8.3892 52.5797 8.23599 52.3286 8.13912C51.9399 7.99508 51.5362 7.89495 51.1252 7.84059C50.4813 7.754 49.8332 7.70126 49.1838 7.68255C48.481 7.68255 47.5148 7.68255 46.2674 7.68255C46.0826 7.65871 45.8954 7.70235 45.7403 7.80547C45.717 7.93024 45.717 8.05824 45.7403 8.18301V13.3107C45.7403 13.5127 45.8545 13.6093 46.0917 13.6093H50.8441C51.1058 13.632 51.3695 13.6026 51.6198 13.5227C51.8702 13.4428 52.1021 13.3141 52.3023 13.1439C52.5982 12.8387 52.7916 12.4489 52.8557 12.0288C52.8557 12.6785 52.8557 14.0307 52.8557 16.0678C52.8296 15.8606 52.7567 15.662 52.6426 15.4871C52.5284 15.3122 52.376 15.1655 52.1969 15.058C51.7351 14.7536 51.1952 14.589 50.642 14.5839C49.5879 14.5136 48.0067 14.4961 45.9599 14.5049C45.8106 14.5049 45.7403 14.5663 45.7403 14.6892V20.0365C45.7403 20.7916 46.1795 21.2569 47.0667 21.4413C47.2893 21.4764 48.0535 21.494 49.3595 21.494C49.9004 21.4994 50.44 21.4404 50.967 21.3184C51.7548 21.1305 52.5059 20.813 53.1895 20.3789C53.6161 20.1006 53.94 19.6905 54.1119 19.2111V19.2111L53.6024 22.4511V22.6003L53.3652 22.5652Z" fill="white"/>
<path d="M57.5645 22.4865C57.7717 22.4603 57.9704 22.3875 58.1454 22.2734C58.3204 22.1594 58.4672 22.007 58.5747 21.8279C58.8455 21.3501 58.9735 20.8046 58.9436 20.2562L58.9963 8.74523C59.0262 8.19685 58.8982 7.65139 58.6274 7.17355C58.518 6.99345 58.3697 6.84007 58.1934 6.72461C58.0171 6.60916 57.8172 6.53453 57.6084 6.50623V6.50623C60.4428 6.42428 62.8146 6.38332 64.7238 6.38332C67.1627 6.25947 69.5698 6.97881 71.5405 8.42037C72.4028 9.10889 73.0907 9.99073 73.5486 10.9945C74.0064 11.9982 74.2213 13.0956 74.1758 14.1978C74.1758 17.0544 73.2388 19.2173 71.3648 20.6865C69.4058 22.0997 67.0098 22.7746 64.6008 22.5918H57.5732L57.5645 22.4865ZM61.2276 19.5011C61.1866 19.8015 61.2241 20.1074 61.3365 20.3889C61.4489 20.6705 61.6323 20.9182 61.8688 21.1079C62.6752 21.449 63.5528 21.5876 64.4251 21.5119C69.2214 21.5119 71.6166 19.1704 71.6108 14.4876C71.6049 9.80474 69.1687 7.43695 64.3021 7.38426H62.5452C61.6668 7.46329 61.1836 7.71792 61.1836 8.1306L61.2276 19.5011Z" fill="white"/>
<path d="M91.112 7.07698C91.0031 6.89647 90.8549 6.74276 90.6785 6.62725C90.5021 6.51173 90.302 6.43736 90.093 6.40967H94.2656C94.0565 6.43736 93.8564 6.51173 93.68 6.62725C93.5036 6.74276 93.3554 6.89647 93.2466 7.07698C92.9831 7.55421 92.8584 8.09554 92.8864 8.63988V15.7783C93.0093 16.7073 92.9335 17.6519 92.6639 18.5495C92.3944 19.4471 91.9372 20.2772 91.3228 20.985C90.6238 21.6481 89.7938 22.1578 88.8861 22.4814C87.9785 22.8049 87.0131 22.9353 86.0521 22.864C81.2207 22.864 78.8079 20.5957 78.8137 16.0592V8.63988C78.8447 8.09141 78.7165 7.54567 78.4448 7.06819C78.3345 6.88892 78.186 6.73616 78.0098 6.62082C77.8337 6.50547 77.6343 6.43037 77.4258 6.40088V6.40088H82.4329C82.2169 6.43491 82.0121 6.51947 81.835 6.64764C81.6579 6.77581 81.5136 6.94396 81.4139 7.13842C81.117 7.79698 80.9757 8.51504 81.001 9.23694V15.6466C81.001 17.7451 81.4315 19.2729 82.2924 20.2475C83.1532 21.2221 84.55 21.705 86.4738 21.705C89.7767 21.705 91.4282 19.8026 91.4282 15.9978V8.65743C91.4774 8.11115 91.3676 7.56231 91.112 7.07698V7.07698Z" fill="white"/>
<path d="M103.349 22.539H101.162H100.608H98.4209C99.1939 22.4425 99.6419 21.8542 99.7825 20.783V20.6864C99.7942 20.5608 99.7942 20.4344 99.7825 20.3088V8.82416C99.8134 8.27569 99.6853 7.72995 99.4135 7.25247C99.3032 7.0732 99.1547 6.92044 98.9786 6.8051C98.8024 6.68976 98.603 6.61468 98.3945 6.58519V6.58519L104.684 6.53248C105.832 6.53042 106.96 6.83345 107.952 7.41051C108.433 7.69626 108.83 8.10446 109.101 8.59345C109.373 9.08244 109.51 9.63471 109.498 10.1939C109.498 11.8534 108.453 13.2758 106.38 14.4699C106.3 14.5394 106.211 14.5984 106.116 14.6455L105.773 14.786L105.448 14.8914L105.22 14.9704C105.074 15.017 104.924 15.0493 104.772 15.067C104.573 15.1021 104.204 15.1372 103.665 15.1724C103.078 15.1427 102.489 15.1751 101.908 15.2689L101.987 20.3264C101.953 20.8712 102.079 21.4142 102.348 21.8893C102.456 22.0698 102.605 22.2235 102.781 22.339C102.957 22.4546 103.157 22.5289 103.367 22.5566V22.5566L103.349 22.539ZM106.942 10.2466C106.952 9.78049 106.877 9.31644 106.722 8.87684C106.622 8.55402 106.418 8.27319 106.142 8.07783V8.03394C105.397 7.48115 104.475 7.22173 103.551 7.30515C102.593 7.30515 102.084 7.44565 102.014 7.72662C102.008 7.81141 102.008 7.89646 102.014 7.98126L101.935 14.1275H102.936C103.445 14.136 103.953 14.077 104.447 13.9519V13.9519H104.491C105.062 13.814 105.58 13.5082 105.976 13.0738C106.627 12.3326 106.975 11.3733 106.951 10.3871L106.942 10.2466Z" fill="white"/>
<path d="M117.606 6.26004C117.194 6.27139 116.796 6.4162 116.473 6.67272C116.156 6.91794 115.883 7.21477 115.665 7.55075V20.1945C115.649 20.6187 115.783 21.035 116.042 21.371C116.215 21.6307 116.438 21.8536 116.697 22.0269C116.956 22.2002 117.247 22.3205 117.553 22.3808C117.553 22.3808 117.597 22.4422 117.553 22.451C117.35 22.5201 117.133 22.5382 116.921 22.5037C114.76 22.4246 113.091 22.4246 111.923 22.5037C111.747 22.5376 111.564 22.503 111.413 22.4071C111.951 22.3698 112.462 22.1534 112.863 21.7925C113.236 21.4693 113.467 21.0117 113.504 20.5193V8.36734C113.51 8.06251 113.44 7.76091 113.302 7.48931C113.177 7.16494 112.992 6.86704 112.757 6.61128C112.668 6.50125 112.555 6.41203 112.428 6.34986C112.3 6.28768 112.161 6.25404 112.019 6.25128C112.151 6.25128 113.1 6.1898 114.857 6.18102C115.774 6.13817 116.693 6.16458 117.606 6.26004V6.26004Z" fill="white"/>
<path d="M122.674 22.4863H119.635C119.812 22.4568 119.981 22.3918 120.132 22.2952C120.283 22.1986 120.412 22.0725 120.513 21.9243C120.733 21.617 120.961 21.3009 121.216 20.9849C121.889 19.9057 122.477 18.7754 122.973 17.6044C123.851 15.6552 124.554 14.0923 125.02 13.0386C126.249 10.0416 127.307 7.36069 128.191 4.99585C130.44 10.346 132.659 15.4415 134.849 20.2824C135.05 20.8649 135.377 21.3957 135.807 21.8365C136.146 22.1815 136.586 22.4092 137.063 22.4863H133.172C132.451 20.6014 131.88 19.138 131.459 18.0961H124.291L122.674 22.4863ZM130.923 16.9371L127.831 9.42114L124.633 17.1391H131.019L130.923 16.9371Z" fill="white"/>
<path fill-rule="evenodd" clip-rule="evenodd" d="M135.72 4.41658C135.346 4.41658 134.981 4.52729 134.67 4.73473C134.36 4.94216 134.118 5.23697 133.975 5.58192C133.832 5.92686 133.794 6.30643 133.867 6.67263C133.94 7.03882 134.12 7.37518 134.384 7.63919C134.648 7.9032 134.985 8.08299 135.351 8.15583C135.717 8.22867 136.097 8.19129 136.442 8.04841C136.787 7.90553 137.082 7.66357 137.29 7.35312C137.497 7.04268 137.608 6.67772 137.608 6.30435C137.608 5.80368 137.409 5.32351 137.055 4.96948C136.701 4.61545 136.22 4.41658 135.72 4.41658V4.41658ZM135.298 6.22533V5.48778H135.693C135.81 5.47885 135.925 5.51323 136.018 5.58436C136.053 5.62162 136.08 5.66597 136.097 5.71442C136.114 5.76287 136.12 5.81432 136.115 5.86533C136.118 5.91305 136.111 5.96092 136.092 6.00512C136.074 6.04933 136.046 6.08863 136.009 6.11994C135.921 6.19363 135.808 6.23128 135.693 6.22533H135.298ZM135.737 6.57654H135.298V7.45457H134.894V5.119H135.684C135.905 5.10717 136.122 5.17236 136.299 5.30338C136.376 5.37095 136.437 5.45504 136.476 5.54933C136.516 5.64363 136.533 5.74566 136.528 5.84775C136.526 5.98865 136.483 6.12604 136.405 6.24288C136.327 6.3345 136.231 6.40921 136.124 6.46239L136.624 7.34042V7.42823H136.22L135.737 6.5502V6.57654ZM135.737 3.99512C136.194 3.99512 136.641 4.13055 137.021 4.38429C137.401 4.63804 137.697 4.99868 137.872 5.42064C138.046 5.84259 138.092 6.30691 138.003 6.75486C137.914 7.20281 137.694 7.61426 137.371 7.93721C137.048 8.26016 136.636 8.48011 136.188 8.56921C135.74 8.65831 135.275 8.61258 134.853 8.4378C134.431 8.26302 134.07 7.96704 133.816 7.58729C133.562 7.20754 133.427 6.76107 133.427 6.30435C133.429 5.69563 133.671 5.11224 134.1 4.68017C134.529 4.2481 135.111 4.00203 135.72 3.99512H135.737Z" fill="white"/>
<path d="M44.4918 25.9673V30.7925H43.8619V25.9673H44.4918ZM46.0435 25.9673V26.4909H42.3135V25.9673H46.0435Z" fill="white"/>
<path d="M47.3333 27.2067V30.7925H46.7166V27.2067H47.3333ZM46.6702 26.2556C46.6702 26.1562 46.7 26.0722 46.7597 26.0037C46.8216 25.9352 46.9122 25.901 47.0316 25.901C47.1487 25.901 47.2383 25.9352 47.3002 26.0037C47.3643 26.0722 47.3963 26.1562 47.3963 26.2556C47.3963 26.3506 47.3643 26.4323 47.3002 26.5008C47.2383 26.5671 47.1487 26.6003 47.0316 26.6003C46.9122 26.6003 46.8216 26.5671 46.7597 26.5008C46.7 26.4323 46.6702 26.3506 46.6702 26.2556Z" fill="white"/>
<path d="M49.8068 30.8588C49.557 30.8588 49.3304 30.8168 49.1271 30.7329C48.9259 30.6467 48.7524 30.5263 48.6065 30.3717C48.4628 30.217 48.3523 30.0336 48.275 29.8215C48.1976 29.6094 48.1589 29.3774 48.1589 29.1256V28.9864C48.1589 28.6947 48.202 28.4351 48.2882 28.2076C48.3744 27.9778 48.4916 27.7834 48.6397 27.6243C48.7878 27.4652 48.9558 27.3448 49.1436 27.2631C49.3315 27.1813 49.526 27.1404 49.7272 27.1404C49.9836 27.1404 50.2046 27.1846 50.3903 27.273C50.5782 27.3614 50.7318 27.4851 50.8512 27.6442C50.9705 27.8011 51.059 27.9866 51.1164 28.2009C51.1739 28.413 51.2026 28.645 51.2026 28.8969V29.172H48.5236V28.6715H50.5893V28.6251C50.5804 28.4661 50.5473 28.3114 50.4898 28.1612C50.4345 28.0109 50.3461 27.8872 50.2245 27.79C50.103 27.6928 49.9372 27.6442 49.7272 27.6442C49.5879 27.6442 49.4597 27.674 49.3426 27.7337C49.2254 27.7911 49.1249 27.8773 49.0409 27.9922C48.9569 28.1071 48.8917 28.2473 48.8452 28.413C48.7988 28.5788 48.7756 28.7699 48.7756 28.9864V29.1256C48.7756 29.2957 48.7988 29.4559 48.8452 29.6061C48.8939 29.7541 48.9635 29.8845 49.0541 29.9972C49.147 30.1098 49.2586 30.1982 49.389 30.2623C49.5216 30.3264 49.6719 30.3584 49.8399 30.3584C50.0565 30.3584 50.24 30.3142 50.3903 30.2258C50.5406 30.1375 50.6721 30.0193 50.7849 29.8712L51.1562 30.1662C51.0789 30.2833 50.9805 30.3949 50.8611 30.5009C50.7418 30.607 50.5948 30.6931 50.4202 30.7594C50.2477 30.8257 50.0433 30.8588 49.8068 30.8588ZM48.507 26.6765L49.4719 25.8082H49.9759L50.9407 26.6765H50.2875L49.7239 26.1529L49.1602 26.6765H48.507ZM50.6954 26.0899L51.1629 25.2349H51.826L51.1595 26.0899H50.6954Z" fill="white"/>
<path d="M52.5322 27.9723V30.7925H51.9188V27.2067H52.499L52.5322 27.9723ZM52.3863 28.8638L52.131 28.8538C52.1332 28.6086 52.1697 28.3821 52.2404 28.1744C52.3112 27.9645 52.4106 27.7823 52.5388 27.6276C52.667 27.473 52.8196 27.3537 52.9964 27.2697C53.1754 27.1835 53.3733 27.1404 53.5899 27.1404C53.7667 27.1404 53.9259 27.1648 54.0673 27.2134C54.2088 27.2598 54.3293 27.3349 54.4287 27.4387C54.5304 27.5426 54.6078 27.6773 54.6608 27.843C54.7139 28.0065 54.7404 28.2065 54.7404 28.4429V30.7925H54.1237V28.4362C54.1237 28.2485 54.0961 28.0982 54.0408 27.9855C53.9855 27.8706 53.9049 27.7878 53.7988 27.737C53.6927 27.684 53.5623 27.6574 53.4075 27.6574C53.255 27.6574 53.1157 27.6895 52.9898 27.7536C52.866 27.8176 52.7588 27.906 52.6681 28.0187C52.5797 28.1314 52.5101 28.2606 52.4593 28.4064C52.4106 28.55 52.3863 28.7025 52.3863 28.8638Z" fill="white"/>
<path d="M57.9963 27.2067H58.5534V30.7163C58.5534 31.0323 58.4893 31.3018 58.3611 31.525C58.2328 31.7481 58.0538 31.9171 57.8239 32.032C57.5963 32.1491 57.3332 32.2077 57.0348 32.2077C56.911 32.2077 56.7651 32.1878 56.5971 32.148C56.4314 32.1104 56.2678 32.0453 56.1064 31.9525C55.9473 31.8619 55.8136 31.7393 55.7052 31.5846L56.0269 31.2201C56.1772 31.4012 56.3341 31.5272 56.4977 31.5979C56.6635 31.6686 56.827 31.7039 56.9884 31.7039C57.1829 31.7039 57.3509 31.6675 57.4924 31.5945C57.6338 31.5216 57.7432 31.4134 57.8206 31.2698C57.9002 31.1284 57.94 30.9538 57.94 30.7461V27.9955L57.9963 27.2067ZM55.5262 29.0394V28.9698C55.5262 28.6958 55.5583 28.4473 55.6224 28.2241C55.6887 27.9988 55.7826 27.8055 55.9042 27.6442C56.028 27.4829 56.1772 27.3592 56.3518 27.273C56.5264 27.1846 56.7231 27.1404 56.942 27.1404C57.1674 27.1404 57.3642 27.1802 57.5321 27.2598C57.7023 27.3371 57.846 27.4509 57.9632 27.6011C58.0825 27.7491 58.1765 27.9281 58.245 28.138C58.3135 28.3479 58.3611 28.5854 58.3876 28.8505V29.1554C58.3633 29.4183 58.3157 29.6547 58.245 29.8646C58.1765 30.0745 58.0825 30.2535 57.9632 30.4015C57.846 30.5495 57.7023 30.6633 57.5321 30.7428C57.3619 30.8202 57.163 30.8588 56.9353 30.8588C56.7209 30.8588 56.5264 30.8135 56.3518 30.723C56.1794 30.6324 56.0313 30.5053 55.9075 30.3418C55.7837 30.1783 55.6887 29.9861 55.6224 29.7652C55.5583 29.542 55.5262 29.3001 55.5262 29.0394ZM56.1396 28.9698V29.0394C56.1396 29.2184 56.1573 29.3863 56.1926 29.5431C56.2302 29.7 56.2866 29.8381 56.3617 29.9574C56.4391 30.0767 56.5375 30.1706 56.6568 30.2391C56.7762 30.3054 56.9188 30.3385 57.0845 30.3385C57.2879 30.3385 57.4559 30.2954 57.5885 30.2093C57.7211 30.1231 57.8261 30.0093 57.9035 29.8679C57.9831 29.7265 58.045 29.573 58.0892 29.4073V28.6086C58.0649 28.4871 58.0273 28.37 57.9764 28.2573C57.9278 28.1424 57.8637 28.0408 57.7841 27.9524C57.7068 27.8618 57.6106 27.79 57.4957 27.737C57.3807 27.684 57.2459 27.6574 57.0912 27.6574C56.9232 27.6574 56.7784 27.6928 56.6568 27.7635C56.5375 27.832 56.4391 27.927 56.3617 28.0485C56.2866 28.1678 56.2302 28.307 56.1926 28.4661C56.1573 28.6229 56.1396 28.7909 56.1396 28.9698Z" fill="white"/>
<path d="M63.0493 26.3948L61.4512 30.7925H60.798L62.6382 25.9673H63.0593L63.0493 26.3948ZM64.3888 30.7925L62.7874 26.3948L62.7775 25.9673H63.1985L65.0453 30.7925H64.3888ZM64.306 29.0063V29.5299H61.5938V29.0063H64.306Z" fill="white"/>
<path d="M66.2124 27.9723V30.7925H65.599V27.2067H66.1793L66.2124 27.9723ZM66.0665 28.8638L65.8112 28.8538C65.8134 28.6086 65.8499 28.3821 65.9207 28.1744C65.9914 27.9645 66.0909 27.7823 66.2191 27.6276C66.3473 27.473 66.4998 27.3537 66.6766 27.2697C66.8557 27.1835 67.0535 27.1404 67.2701 27.1404C67.4469 27.1404 67.6061 27.1648 67.7476 27.2134C67.889 27.2598 68.0095 27.3349 68.109 27.4387C68.2106 27.5426 68.288 27.6773 68.3411 27.843C68.3941 28.0065 68.4206 28.2065 68.4206 28.4429V30.7925H67.8039V28.4362C67.8039 28.2485 67.7763 28.0982 67.721 27.9855C67.6658 27.8706 67.5851 27.7878 67.479 27.737C67.3729 27.684 67.2425 27.6574 67.0877 27.6574C66.9352 27.6574 66.796 27.6895 66.67 27.7536C66.5462 27.8176 66.439 27.906 66.3484 28.0187C66.26 28.1314 66.1903 28.2606 66.1395 28.4064C66.0909 28.55 66.0665 28.7025 66.0665 28.8638Z" fill="white"/>
<path d="M69.9657 25.7021V30.7925H69.3523V25.7021H69.9657ZM69.8198 28.8638L69.5645 28.8538C69.5667 28.6086 69.6032 28.3821 69.6739 28.1744C69.7447 27.9645 69.8441 27.7823 69.9723 27.6276C70.1005 27.473 70.2531 27.3537 70.4299 27.2697C70.6089 27.1835 70.8068 27.1404 71.0234 27.1404C71.2002 27.1404 71.3594 27.1648 71.5008 27.2134C71.6423 27.2598 71.7628 27.3349 71.8622 27.4387C71.9639 27.5426 72.0413 27.6773 72.0943 27.843C72.1474 28.0065 72.1739 28.2065 72.1739 28.4429V30.7925H71.5572V28.4362C71.5572 28.2485 71.5296 28.0982 71.4743 27.9855C71.4191 27.8706 71.3384 27.7878 71.2323 27.737C71.1262 27.684 70.9958 27.6574 70.841 27.6574C70.6885 27.6574 70.5493 27.6895 70.4233 27.7536C70.2995 27.8176 70.1923 27.906 70.1016 28.0187C70.0132 28.1314 69.9436 28.2606 69.8928 28.4064C69.8441 28.55 69.8198 28.7025 69.8198 28.8638Z" fill="white"/>
<path d="M74.6142 29.0394V28.9632C74.6142 28.7047 74.6518 28.465 74.7269 28.244C74.8021 28.0209 74.9104 27.8276 75.0519 27.6641C75.1933 27.4984 75.3646 27.3702 75.5658 27.2796C75.7669 27.1868 75.9924 27.1404 76.2422 27.1404C76.4942 27.1404 76.7207 27.1868 76.9219 27.2796C77.1252 27.3702 77.2976 27.4984 77.4391 27.6641C77.5828 27.8276 77.6922 28.0209 77.7673 28.244C77.8425 28.465 77.8801 28.7047 77.8801 28.9632V29.0394C77.8801 29.2979 77.8425 29.5376 77.7673 29.7586C77.6922 29.9795 77.5828 30.1728 77.4391 30.3385C77.2976 30.502 77.1263 30.6302 76.9252 30.723C76.7262 30.8135 76.5008 30.8588 76.2488 30.8588C75.9968 30.8588 75.7702 30.8135 75.5691 30.723C75.3679 30.6302 75.1955 30.502 75.0519 30.3385C74.9104 30.1728 74.8021 29.9795 74.7269 29.7586C74.6518 29.5376 74.6142 29.2979 74.6142 29.0394ZM75.2276 28.9632V29.0394C75.2276 29.2184 75.2486 29.3874 75.2906 29.5465C75.3326 29.7033 75.3956 29.8425 75.4796 29.964C75.5658 30.0855 75.673 30.1817 75.8012 30.2524C75.9294 30.3208 76.0786 30.3551 76.2488 30.3551C76.4168 30.3551 76.5638 30.3208 76.6898 30.2524C76.818 30.1817 76.9241 30.0855 77.0081 29.964C77.0921 29.8425 77.1551 29.7033 77.1971 29.5465C77.2413 29.3874 77.2634 29.2184 77.2634 29.0394V28.9632C77.2634 28.7864 77.2413 28.6196 77.1971 28.4628C77.1551 28.3037 77.091 28.1634 77.0048 28.0419C76.9208 27.9181 76.8147 27.8209 76.6865 27.7502C76.5605 27.6795 76.4124 27.6442 76.2422 27.6442C76.0742 27.6442 75.9261 27.6795 75.7979 27.7502C75.6719 27.8209 75.5658 27.9181 75.4796 28.0419C75.3956 28.1634 75.3326 28.3037 75.2906 28.4628C75.2486 28.6196 75.2276 28.7864 75.2276 28.9632Z" fill="white"/>
<path d="M79.2627 27.9723V30.7925H78.6493V27.2067H79.2295L79.2627 27.9723ZM79.1168 28.8638L78.8615 28.8538C78.8637 28.6086 78.9002 28.3821 78.9709 28.1744C79.0416 27.9645 79.1411 27.7823 79.2693 27.6276C79.3975 27.473 79.55 27.3537 79.7269 27.2697C79.9059 27.1835 80.1037 27.1404 80.3204 27.1404C80.4972 27.1404 80.6564 27.1648 80.7978 27.2134C80.9393 27.2598 81.0597 27.3349 81.1592 27.4387C81.2609 27.5426 81.3383 27.6773 81.3913 27.843C81.4444 28.0065 81.4709 28.2065 81.4709 28.4429V30.7925H80.8542V28.4362C80.8542 28.2485 80.8266 28.0982 80.7713 27.9855C80.716 27.8706 80.6354 27.7878 80.5293 27.737C80.4232 27.684 80.2927 27.6574 80.138 27.6574C79.9855 27.6574 79.8462 27.6895 79.7202 27.7536C79.5965 27.8176 79.4893 27.906 79.3986 28.0187C79.3102 28.1314 79.2406 28.2606 79.1897 28.4064C79.1411 28.55 79.1168 28.7025 79.1168 28.8638Z" fill="white"/>
<path d="M83.069 25.7021V30.7925H82.4523V25.7021H83.069Z" fill="white"/>
<path d="M84.7202 27.2067V30.7925H84.1035V27.2067H84.7202ZM84.0571 26.2556C84.0571 26.1562 84.0869 26.0722 84.1466 26.0037C84.2085 25.9352 84.2991 25.901 84.4185 25.901C84.5356 25.901 84.6251 25.9352 84.687 26.0037C84.7511 26.0722 84.7832 26.1562 84.7832 26.2556C84.7832 26.3506 84.7511 26.4323 84.687 26.5008C84.6251 26.5671 84.5356 26.6003 84.4185 26.6003C84.2991 26.6003 84.2085 26.5671 84.1466 26.5008C84.0869 26.4323 84.0571 26.3506 84.0571 26.2556Z" fill="white"/>
<path d="M86.3183 27.9723V30.7925H85.7049V27.2067H86.2852L86.3183 27.9723ZM86.1724 28.8638L85.9171 28.8538C85.9193 28.6086 85.9558 28.3821 86.0265 28.1744C86.0973 27.9645 86.1967 27.7823 86.3249 27.6276C86.4531 27.473 86.6057 27.3537 86.7825 27.2697C86.9615 27.1835 87.1594 27.1404 87.376 27.1404C87.5528 27.1404 87.712 27.1648 87.8534 27.2134C87.9949 27.2598 88.1154 27.3349 88.2148 27.4387C88.3165 27.5426 88.3939 27.6773 88.4469 27.843C88.5 28.0065 88.5265 28.2065 88.5265 28.4429V30.7925H87.9098V28.4362C87.9098 28.2485 87.8822 28.0982 87.8269 27.9855C87.7717 27.8706 87.691 27.7878 87.5849 27.737C87.4788 27.684 87.3484 27.6574 87.1936 27.6574C87.0411 27.6574 86.9019 27.6895 86.7759 27.7536C86.6521 27.8176 86.5449 27.906 86.4543 28.0187C86.3658 28.1314 86.2962 28.2606 86.2454 28.4064C86.1967 28.55 86.1724 28.7025 86.1724 28.8638Z" fill="white"/>
<path d="M90.9469 30.8588C90.6971 30.8588 90.4706 30.8168 90.2672 30.7329C90.0661 30.6467 89.8926 30.5263 89.7467 30.3717C89.603 30.217 89.4925 30.0336 89.4151 29.8215C89.3377 29.6094 89.2991 29.3774 89.2991 29.1256V28.9864C89.2991 28.6947 89.3422 28.4351 89.4284 28.2076C89.5146 27.9778 89.6317 27.7834 89.7798 27.6243C89.9279 27.4652 90.0959 27.3448 90.2838 27.2631C90.4717 27.1813 90.6662 27.1404 90.8673 27.1404C91.1237 27.1404 91.3448 27.1846 91.5305 27.273C91.7183 27.3614 91.872 27.4851 91.9913 27.6442C92.1107 27.8011 92.1991 27.9866 92.2566 28.2009C92.3141 28.413 92.3428 28.645 92.3428 28.8969V29.172H89.6638V28.6715H91.7294V28.6251C91.7206 28.4661 91.6874 28.3114 91.6299 28.1612C91.5747 28.0109 91.4863 27.8872 91.3647 27.79C91.2431 27.6928 91.0773 27.6442 90.8673 27.6442C90.7281 27.6442 90.5999 27.674 90.4827 27.7337C90.3656 27.7911 90.265 27.8773 90.181 27.9922C90.097 28.1071 90.0318 28.2473 89.9854 28.413C89.939 28.5788 89.9158 28.7699 89.9158 28.9864V29.1256C89.9158 29.2957 89.939 29.4559 89.9854 29.6061C90.034 29.7541 90.1036 29.8845 90.1943 29.9972C90.2871 30.1098 90.3987 30.1982 90.5291 30.2623C90.6618 30.3264 90.8121 30.3584 90.9801 30.3584C91.1967 30.3584 91.3802 30.3142 91.5305 30.2258C91.6808 30.1375 91.8123 30.0193 91.925 29.8712L92.2964 30.1662C92.219 30.2833 92.1206 30.3949 92.0013 30.5009C91.8819 30.607 91.7349 30.6931 91.5603 30.7594C91.3879 30.8257 91.1834 30.8588 90.9469 30.8588Z" fill="white"/>
<path d="M96.179 30.3551C96.3248 30.3551 96.4597 30.3253 96.5835 30.2656C96.7072 30.206 96.8089 30.1242 96.8885 30.0204C96.9681 29.9143 97.0134 29.7939 97.0244 29.6591H97.608C97.5969 29.8712 97.5251 30.069 97.3925 30.2524C97.2621 30.4335 97.0907 30.5804 96.8785 30.6931C96.6664 30.8036 96.4332 30.8588 96.179 30.8588C95.9093 30.8588 95.6739 30.8113 95.4727 30.7163C95.2738 30.6213 95.108 30.491 94.9754 30.3253C94.845 30.1596 94.7466 29.9696 94.6803 29.7552C94.6162 29.5387 94.5841 29.3101 94.5841 29.0692V28.93C94.5841 28.6892 94.6162 28.4617 94.6803 28.2473C94.7466 28.0308 94.845 27.8397 94.9754 27.674C95.108 27.5083 95.2738 27.378 95.4727 27.283C95.6739 27.188 95.9093 27.1404 96.179 27.1404C96.4597 27.1404 96.705 27.1979 96.915 27.3128C97.125 27.4255 97.2897 27.5801 97.409 27.7767C97.5306 27.9712 97.5969 28.1921 97.608 28.4396H97.0244C97.0134 28.2915 96.9714 28.1579 96.8984 28.0386C96.8277 27.9193 96.7305 27.8243 96.6067 27.7536C96.4851 27.6806 96.3425 27.6442 96.179 27.6442C95.9911 27.6442 95.833 27.6817 95.7048 27.7569C95.5788 27.8298 95.4783 27.9292 95.4031 28.0551C95.3302 28.1789 95.2771 28.3169 95.2439 28.4694C95.213 28.6196 95.1975 28.7732 95.1975 28.93V29.0692C95.1975 29.2261 95.213 29.3808 95.2439 29.5332C95.2749 29.6856 95.3268 29.8237 95.3998 29.9475C95.4749 30.0712 95.5755 30.1706 95.7015 30.2457C95.8297 30.3186 95.9889 30.3551 96.179 30.3551Z" fill="white"/>
<path d="M98.911 25.7021V30.7925H98.2976V25.7021H98.911ZM98.7651 28.8638L98.5098 28.8538C98.512 28.6086 98.5485 28.3821 98.6192 28.1744C98.69 27.9645 98.7895 27.7823 98.9177 27.6276C99.0459 27.473 99.1984 27.3537 99.3752 27.2697C99.5543 27.1835 99.7521 27.1404 99.9687 27.1404C100.146 27.1404 100.305 27.1648 100.446 27.2134C100.588 27.2598 100.708 27.3349 100.808 27.4387C100.909 27.5426 100.987 27.6773 101.04 27.843C101.093 28.0065 101.119 28.2065 101.119 28.4429V30.7925H100.503V28.4362C100.503 28.2485 100.475 28.0982 100.42 27.9855C100.364 27.8706 100.284 27.7878 100.178 27.737C100.071 27.684 99.9411 27.6574 99.7863 27.6574C99.6338 27.6574 99.4946 27.6895 99.3686 27.7536C99.2448 27.8176 99.1376 27.906 99.047 28.0187C98.9585 28.1314 98.8889 28.2606 98.8381 28.4064C98.7895 28.55 98.7651 28.7025 98.7651 28.8638Z" fill="white"/>
<path d="M104.153 30.1794V28.3335C104.153 28.1921 104.124 28.0695 104.067 27.9657C104.012 27.8596 103.928 27.7779 103.815 27.7204C103.702 27.663 103.563 27.6342 103.397 27.6342C103.242 27.6342 103.106 27.6608 102.989 27.7138C102.874 27.7668 102.784 27.8364 102.717 27.9226C102.653 28.0087 102.621 28.1015 102.621 28.2009H102.008C102.008 28.0728 102.041 27.9458 102.107 27.8198C102.174 27.6939 102.269 27.5801 102.392 27.4785C102.518 27.3746 102.669 27.2929 102.843 27.2332C103.02 27.1714 103.217 27.1404 103.434 27.1404C103.694 27.1404 103.924 27.1846 104.123 27.273C104.324 27.3614 104.481 27.4951 104.594 27.674C104.709 27.8508 104.766 28.0728 104.766 28.3401V30.0104C104.766 30.1297 104.776 30.2568 104.796 30.3915C104.818 30.5263 104.85 30.6423 104.892 30.7395V30.7925H104.252C104.222 30.7218 104.197 30.6279 104.18 30.5109C104.162 30.3915 104.153 30.2811 104.153 30.1794ZM104.259 28.6185L104.266 29.0493H103.646C103.471 29.0493 103.315 29.0637 103.178 29.0924C103.041 29.1189 102.926 29.1598 102.833 29.2151C102.741 29.2703 102.67 29.3399 102.621 29.4238C102.573 29.5056 102.548 29.6017 102.548 29.7122C102.548 29.8248 102.574 29.9276 102.625 30.0204C102.675 30.1132 102.752 30.1872 102.853 30.2424C102.957 30.2954 103.084 30.3219 103.235 30.3219C103.422 30.3219 103.588 30.2822 103.732 30.2026C103.876 30.1231 103.989 30.0259 104.073 29.911C104.16 29.7961 104.206 29.6845 104.213 29.5763L104.475 29.8712C104.459 29.964 104.417 30.0668 104.349 30.1794C104.28 30.2921 104.188 30.4004 104.073 30.5042C103.961 30.6059 103.826 30.6909 103.669 30.7594C103.514 30.8257 103.34 30.8588 103.145 30.8588C102.902 30.8588 102.689 30.8113 102.505 30.7163C102.324 30.6213 102.182 30.4943 102.081 30.3352C101.981 30.1739 101.932 29.9939 101.932 29.795C101.932 29.6028 101.969 29.4338 102.044 29.288C102.119 29.1399 102.228 29.0173 102.369 28.9201C102.511 28.8207 102.681 28.7456 102.88 28.6947C103.079 28.6439 103.301 28.6185 103.546 28.6185H104.259ZM102.283 26.6765L103.248 25.8082H103.752L104.717 26.6765H104.063L103.5 26.1529L102.936 26.6765H102.283ZM104.471 26.0899L104.939 25.2349H105.602L104.935 26.0899H104.471Z" fill="white"/>
<path d="M107.233 27.2067V27.6773H105.294V27.2067H107.233ZM105.95 26.3351H106.563V29.9044C106.563 30.0259 106.582 30.1176 106.62 30.1794C106.657 30.2413 106.706 30.2822 106.766 30.3021C106.825 30.3219 106.889 30.3319 106.958 30.3319C107.009 30.3319 107.062 30.3275 107.117 30.3186C107.175 30.3076 107.218 30.2988 107.246 30.2921L107.25 30.7925C107.201 30.808 107.137 30.8224 107.057 30.8356C106.98 30.8511 106.886 30.8588 106.776 30.8588C106.625 30.8588 106.487 30.829 106.361 30.7693C106.235 30.7097 106.135 30.6103 106.059 30.4711C105.987 30.3297 105.95 30.1397 105.95 29.9011V26.3351Z" fill="white"/>
<path d="M110.303 25.7021V30.7925H109.687V25.7021H110.303Z" fill="white"/>
<path d="M114.647 26.9184H115.118C115.118 27.1592 115.086 27.3614 115.022 27.5249C114.96 27.6884 114.85 27.811 114.693 27.8927C114.536 27.9745 114.315 28.0154 114.03 28.0154V27.6376C114.229 27.6376 114.372 27.6133 114.458 27.5646C114.544 27.5138 114.597 27.4354 114.617 27.3294C114.637 27.2233 114.647 27.0863 114.647 26.9184ZM113.483 29.964V27.2067H114.1V30.7925H113.513L113.483 29.964ZM113.599 29.2084L113.854 29.2018C113.854 29.4404 113.829 29.6613 113.778 29.8646C113.73 30.0657 113.65 30.2402 113.54 30.3882C113.429 30.5363 113.284 30.6523 113.105 30.7362C112.926 30.818 112.708 30.8588 112.452 30.8588C112.277 30.8588 112.117 30.8334 111.971 30.7826C111.828 30.7318 111.704 30.6534 111.6 30.5473C111.496 30.4413 111.415 30.3032 111.358 30.133C111.303 29.9629 111.275 29.7586 111.275 29.5199V27.2067H111.888V29.5266C111.888 29.6879 111.906 29.8215 111.941 29.9276C111.979 30.0314 112.029 30.1143 112.091 30.1761C112.155 30.2358 112.225 30.2778 112.303 30.3021C112.382 30.3264 112.464 30.3385 112.548 30.3385C112.809 30.3385 113.016 30.2888 113.168 30.1894C113.321 30.0878 113.43 29.9519 113.496 29.7818C113.565 29.6094 113.599 29.4183 113.599 29.2084Z" fill="white"/>
<path d="M118.543 26.8124H119.037C119.037 27.0554 119.004 27.2653 118.937 27.442C118.871 27.6166 118.761 27.7513 118.606 27.8463C118.451 27.9413 118.241 27.9888 117.976 27.9888V27.6044C118.142 27.6044 118.264 27.5713 118.344 27.505C118.426 27.4387 118.479 27.3459 118.503 27.2266C118.53 27.1073 118.543 26.9692 118.543 26.8124ZM115.33 29.0394V28.9632C115.33 28.7047 115.368 28.465 115.443 28.244C115.518 28.0209 115.626 27.8276 115.768 27.6641C115.909 27.4984 116.08 27.3702 116.282 27.2796C116.483 27.1868 116.708 27.1404 116.958 27.1404C117.21 27.1404 117.436 27.1868 117.638 27.2796C117.841 27.3702 118.013 27.4984 118.155 27.6641C118.296 27.8276 118.405 28.0209 118.48 28.244C118.555 28.465 118.593 28.7047 118.593 28.9632V29.0394C118.593 29.2979 118.555 29.5376 118.48 29.7586C118.405 29.9795 118.296 30.1728 118.155 30.3385C118.013 30.502 117.842 30.6302 117.641 30.723C117.442 30.8135 117.217 30.8588 116.965 30.8588C116.713 30.8588 116.486 30.8135 116.285 30.723C116.084 30.6302 115.911 30.502 115.768 30.3385C115.626 30.1728 115.518 29.9795 115.443 29.7586C115.368 29.5376 115.33 29.2979 115.33 29.0394ZM115.943 28.9632V29.0394C115.943 29.2184 115.964 29.3874 116.006 29.5465C116.048 29.7033 116.111 29.8425 116.195 29.964C116.282 30.0855 116.389 30.1817 116.517 30.2524C116.645 30.3208 116.794 30.3551 116.965 30.3551C117.133 30.3551 117.28 30.3208 117.406 30.2524C117.534 30.1817 117.64 30.0855 117.724 29.964C117.808 29.8425 117.871 29.7033 117.913 29.5465C117.957 29.3874 117.979 29.2184 117.979 29.0394V28.9632C117.979 28.7864 117.957 28.6196 117.913 28.4628C117.871 28.3037 117.807 28.1634 117.721 28.0419C117.637 27.9181 117.53 27.8209 117.402 27.7502C117.276 27.6795 117.128 27.6442 116.958 27.6442C116.79 27.6442 116.642 27.6795 116.514 27.7502C116.388 27.8209 116.282 27.9181 116.195 28.0419C116.111 28.1634 116.048 28.3037 116.006 28.4628C115.964 28.6196 115.943 28.7864 115.943 28.9632ZM116.573 31.6409C116.573 31.5415 116.603 31.4576 116.663 31.3891C116.725 31.3206 116.815 31.2863 116.935 31.2863C117.052 31.2863 117.141 31.3206 117.203 31.3891C117.267 31.4576 117.299 31.5415 117.299 31.6409C117.299 31.7359 117.267 31.8166 117.203 31.8829C117.141 31.9514 117.052 31.9856 116.935 31.9856C116.815 31.9856 116.725 31.9514 116.663 31.8829C116.603 31.8166 116.573 31.7359 116.573 31.6409Z" fill="white"/>
<path d="M119.992 27.9723V30.7925H119.378V27.2067H119.959L119.992 27.9723ZM119.846 28.8638L119.591 28.8538C119.593 28.6086 119.629 28.3821 119.7 28.1744C119.771 27.9645 119.87 27.7823 119.998 27.6276C120.127 27.473 120.279 27.3537 120.456 27.2697C120.635 27.1835 120.833 27.1404 121.049 27.1404C121.226 27.1404 121.385 27.1648 121.527 27.2134C121.668 27.2598 121.789 27.3349 121.888 27.4387C121.99 27.5426 122.067 27.6773 122.12 27.843C122.173 28.0065 122.2 28.2065 122.2 28.4429V30.7925H121.583V28.4362C121.583 28.2485 121.556 28.0982 121.5 27.9855C121.445 27.8706 121.364 27.7878 121.258 27.737C121.152 27.684 121.022 27.6574 120.867 27.6574C120.715 27.6574 120.575 27.6895 120.449 27.7536C120.325 27.8176 120.218 27.906 120.128 28.0187C120.039 28.1314 119.97 28.2606 119.919 28.4064C119.87 28.55 119.846 28.7025 119.846 28.8638Z" fill="white"/>
<path d="M125.456 27.2067H126.013V30.7163C126.013 31.0323 125.949 31.3018 125.821 31.525C125.692 31.7481 125.513 31.9171 125.283 32.032C125.056 32.1491 124.793 32.2077 124.494 32.2077C124.371 32.2077 124.225 32.1878 124.057 32.148C123.891 32.1104 123.727 32.0453 123.566 31.9525C123.407 31.8619 123.273 31.7393 123.165 31.5846L123.486 31.2201C123.637 31.4012 123.794 31.5272 123.957 31.5979C124.123 31.6686 124.287 31.7039 124.448 31.7039C124.642 31.7039 124.81 31.6675 124.952 31.5945C125.093 31.5216 125.203 31.4134 125.28 31.2698C125.36 31.1284 125.399 30.9538 125.399 30.7461V27.9955L125.456 27.2067ZM122.986 29.0394V28.9698C122.986 28.6958 123.018 28.4473 123.082 28.2241C123.148 27.9988 123.242 27.8055 123.364 27.6442C123.487 27.4829 123.637 27.3592 123.811 27.273C123.986 27.1846 124.183 27.1404 124.401 27.1404C124.627 27.1404 124.824 27.1802 124.992 27.2598C125.162 27.3371 125.306 27.4509 125.423 27.6011C125.542 27.7491 125.636 27.9281 125.705 28.138C125.773 28.3479 125.821 28.5854 125.847 28.8505V29.1554C125.823 29.4183 125.775 29.6547 125.705 29.8646C125.636 30.0745 125.542 30.2535 125.423 30.4015C125.306 30.5495 125.162 30.6633 124.992 30.7428C124.821 30.8202 124.623 30.8588 124.395 30.8588C124.18 30.8588 123.986 30.8135 123.811 30.723C123.639 30.6324 123.491 30.5053 123.367 30.3418C123.243 30.1783 123.148 29.9861 123.082 29.7652C123.018 29.542 122.986 29.3001 122.986 29.0394ZM123.599 28.9698V29.0394C123.599 29.2184 123.617 29.3863 123.652 29.5431C123.69 29.7 123.746 29.8381 123.821 29.9574C123.899 30.0767 123.997 30.1706 124.116 30.2391C124.236 30.3054 124.378 30.3385 124.544 30.3385C124.747 30.3385 124.915 30.2954 125.048 30.2093C125.181 30.1231 125.286 30.0093 125.363 29.8679C125.443 29.7265 125.504 29.573 125.549 29.4073V28.6086C125.524 28.4871 125.487 28.37 125.436 28.2573C125.387 28.1424 125.323 28.0408 125.244 27.9524C125.166 27.8618 125.07 27.79 124.955 27.737C124.84 27.684 124.705 27.6574 124.551 27.6574C124.383 27.6574 124.238 27.6928 124.116 27.7635C123.997 27.832 123.899 27.927 123.821 28.0485C123.746 28.1678 123.69 28.307 123.652 28.4661C123.617 28.6229 123.599 28.7909 123.599 28.9698Z" fill="white"/>
<path d="M130.065 30.3551C130.21 30.3551 130.345 30.3253 130.469 30.2656C130.593 30.206 130.695 30.1242 130.774 30.0204C130.854 29.9143 130.899 29.7939 130.91 29.6591H131.494C131.483 29.8712 131.411 30.069 131.278 30.2524C131.148 30.4335 130.976 30.5804 130.764 30.6931C130.552 30.8036 130.319 30.8588 130.065 30.8588C129.795 30.8588 129.559 30.8113 129.358 30.7163C129.159 30.6213 128.994 30.491 128.861 30.3253C128.731 30.1596 128.632 29.9696 128.566 29.7552C128.502 29.5387 128.47 29.3101 128.47 29.0692V28.93C128.47 28.6892 128.502 28.4617 128.566 28.2473C128.632 28.0308 128.731 27.8397 128.861 27.674C128.994 27.5083 129.159 27.378 129.358 27.283C129.559 27.188 129.795 27.1404 130.065 27.1404C130.345 27.1404 130.591 27.1979 130.801 27.3128C131.011 27.4255 131.175 27.5801 131.295 27.7767C131.416 27.9712 131.483 28.1921 131.494 28.4396H130.91C130.899 28.2915 130.857 28.1579 130.784 28.0386C130.713 27.9193 130.616 27.8243 130.492 27.7536C130.371 27.6806 130.228 27.6442 130.065 27.6442C129.877 27.6442 129.719 27.6817 129.59 27.7569C129.464 27.8298 129.364 27.9292 129.289 28.0551C129.216 28.1789 129.163 28.3169 129.13 28.4694C129.099 28.6196 129.083 28.7732 129.083 28.93V29.0692C129.083 29.2261 129.099 29.3808 129.13 29.5332C129.16 29.6856 129.212 29.8237 129.285 29.9475C129.361 30.0712 129.461 30.1706 129.587 30.2457C129.715 30.3186 129.874 30.3551 130.065 30.3551Z" fill="white"/>
<path d="M134.299 30.1794V28.3335C134.299 28.1921 134.27 28.0695 134.212 27.9657C134.157 27.8596 134.073 27.7779 133.96 27.7204C133.848 27.663 133.708 27.6342 133.543 27.6342C133.388 27.6342 133.252 27.6608 133.135 27.7138C133.02 27.7668 132.929 27.8364 132.863 27.9226C132.799 28.0087 132.767 28.1015 132.767 28.2009H132.153C132.153 28.0728 132.187 27.9458 132.253 27.8198C132.319 27.6939 132.414 27.5801 132.538 27.4785C132.664 27.3746 132.814 27.2929 132.989 27.2332C133.166 27.1714 133.362 27.1404 133.579 27.1404C133.84 27.1404 134.07 27.1846 134.269 27.273C134.47 27.3614 134.627 27.4951 134.74 27.674C134.854 27.8508 134.912 28.0728 134.912 28.3401V30.0104C134.912 30.1297 134.922 30.2568 134.942 30.3915C134.964 30.5263 134.996 30.6423 135.038 30.7395V30.7925H134.398C134.367 30.7218 134.343 30.6279 134.325 30.5109C134.307 30.3915 134.299 30.2811 134.299 30.1794ZM134.405 28.6185L134.411 29.0493H133.791C133.617 29.0493 133.461 29.0637 133.324 29.0924C133.187 29.1189 133.072 29.1598 132.979 29.2151C132.886 29.2703 132.815 29.3399 132.767 29.4238C132.718 29.5056 132.694 29.6017 132.694 29.7122C132.694 29.8248 132.719 29.9276 132.77 30.0204C132.821 30.1132 132.897 30.1872 132.999 30.2424C133.103 30.2954 133.23 30.3219 133.38 30.3219C133.568 30.3219 133.734 30.2822 133.877 30.2026C134.021 30.1231 134.135 30.0259 134.219 29.911C134.305 29.7961 134.352 29.6845 134.358 29.5763L134.62 29.8712C134.605 29.964 134.563 30.0668 134.494 30.1794C134.426 30.2921 134.334 30.4004 134.219 30.5042C134.106 30.6059 133.971 30.6909 133.814 30.7594C133.66 30.8257 133.485 30.8588 133.291 30.8588C133.047 30.8588 132.834 30.8113 132.651 30.7163C132.469 30.6213 132.328 30.4943 132.226 30.3352C132.127 30.1739 132.077 29.9939 132.077 29.795C132.077 29.6028 132.115 29.4338 132.19 29.288C132.265 29.1399 132.373 29.0173 132.515 28.9201C132.656 28.8207 132.826 28.7456 133.025 28.6947C133.224 28.6439 133.446 28.6185 133.692 28.6185H134.405Z" fill="white"/>
<path d="M135.714 29.0394V28.9632C135.714 28.7047 135.752 28.465 135.827 28.244C135.902 28.0209 136.011 27.8276 136.152 27.6641C136.293 27.4984 136.465 27.3702 136.666 27.2796C136.867 27.1868 137.093 27.1404 137.342 27.1404C137.594 27.1404 137.821 27.1868 138.022 27.2796C138.225 27.3702 138.398 27.4984 138.539 27.6641C138.683 27.8276 138.792 28.0209 138.867 28.244C138.943 28.465 138.98 28.7047 138.98 28.9632V29.0394C138.98 29.2979 138.943 29.5376 138.867 29.7586C138.792 29.9795 138.683 30.1728 138.539 30.3385C138.398 30.502 138.226 30.6302 138.025 30.723C137.826 30.8135 137.601 30.8588 137.349 30.8588C137.097 30.8588 136.87 30.8135 136.669 30.723C136.468 30.6302 136.296 30.502 136.152 30.3385C136.011 30.1728 135.902 29.9795 135.827 29.7586C135.752 29.5376 135.714 29.2979 135.714 29.0394ZM136.328 28.9632V29.0394C136.328 29.2184 136.349 29.3874 136.391 29.5465C136.433 29.7033 136.496 29.8425 136.58 29.964C136.666 30.0855 136.773 30.1817 136.901 30.2524C137.03 30.3208 137.179 30.3551 137.349 30.3551C137.517 30.3551 137.664 30.3208 137.79 30.2524C137.918 30.1817 138.024 30.0855 138.108 29.964C138.192 29.8425 138.255 29.7033 138.297 29.5465C138.341 29.3874 138.364 29.2184 138.364 29.0394V28.9632C138.364 28.7864 138.341 28.6196 138.297 28.4628C138.255 28.3037 138.191 28.1634 138.105 28.0419C138.021 27.9181 137.915 27.8209 137.787 27.7502C137.661 27.6795 137.513 27.6442 137.342 27.6442C137.174 27.6442 137.026 27.6795 136.898 27.7502C136.772 27.8209 136.666 27.9181 136.58 28.0419C136.496 28.1634 136.433 28.3037 136.391 28.4628C136.349 28.6196 136.328 28.7864 136.328 28.9632Z" fill="white"/>
<path fill-rule="evenodd" clip-rule="evenodd" d="M14.6855 35.6961C10.0651 34.831 5.96654 32.1935 3.26618 28.3475C0.565826 24.5015 -0.522065 19.7522 0.235081 15.1149C1.62302 16.0896 8.72965 17.4417 11.4528 18.9432C16.8816 21.946 16.7235 28.3293 14.6767 35.7224L14.6855 35.6961ZM16.2052 0.0917939C12.3877 0.485468 8.79549 2.0867 5.95154 4.66243C3.10759 7.23816 1.16031 10.6539 0.393194 14.4125C0.529659 14.4189 0.66509 14.4395 0.797285 14.474C12.2171 15.7822 24.2166 15.791 25.139 2.84002C25.1243 2.40503 25.2507 1.97696 25.4991 1.61956C22.6003 0.29739 19.4017 -0.229903 16.2316 0.0917939H16.2052ZM19.5521 5.74631C19.7995 6.13296 19.9659 6.5657 20.0414 7.01842C20.1169 7.47114 20.0999 7.93445 19.9913 8.38041C19.8014 9.20582 19.3144 9.93259 18.623 10.4223C17.9317 10.9121 17.0843 11.1306 16.2422 11.0362C15.4001 10.9418 14.6222 10.5412 14.0565 9.91062C13.4908 9.28002 13.1769 8.46348 13.1746 7.61652L16.9519 8.17848L19.5872 5.77265L19.5521 5.74631ZM15.1599 3.31416L21.2475 3.54246L16.8553 7.65165L10.3108 6.67705L15.1599 3.31416Z" fill="white"/>
<path fill-rule="evenodd" clip-rule="evenodd" d="M26.7198 2.25146C30.0814 4.10485 32.762 6.98397 34.3702 10.4683C35.9783 13.9527 36.4298 17.8597 35.6586 21.6187C34.8874 25.3777 32.934 28.7918 30.0836 31.3623C27.2332 33.9328 23.6353 35.5251 19.8152 35.9065C19.083 35.9837 18.3464 36.0131 17.6104 35.9943C22.881 25.9671 26.3509 14.5966 26.7462 3.50705C26.7991 3.08949 26.7903 2.66643 26.7198 2.25146V2.25146Z" fill="white"/>
</svg>
