<svg width="73" height="72" viewBox="0 0 73 72" fill="none" xmlns="http://www.w3.org/2000/svg">
<path fill-rule="evenodd" clip-rule="evenodd" d="M29.371 71.3921C20.1301 69.662 11.9331 64.387 6.53236 56.695C1.13165 49.003 -1.04413 39.5044 0.470162 30.2299C3.24605 32.1791 17.4593 34.8834 22.9057 37.8863C33.7632 43.8921 33.447 56.6587 29.3534 71.4448L29.371 71.3921ZM32.4104 0.183588C24.7753 0.970936 17.591 4.1734 11.9031 9.32486C6.21518 14.4763 2.32063 21.3079 0.786389 28.825C1.05932 28.8379 1.33018 28.879 1.59457 28.9479C24.4341 31.5645 48.4333 31.582 50.278 5.68003C50.2487 4.81006 50.5013 3.95393 50.9983 3.23913C45.2006 0.59478 38.8033 -0.459807 32.4631 0.183588H32.4104ZM39.1042 11.4926C39.599 12.2659 39.9319 13.1314 40.0829 14.0368C40.2338 14.9423 40.1997 15.8689 39.9826 16.7608C39.6028 18.4116 38.6288 19.8652 37.2461 20.8447C35.8634 21.8241 34.1686 22.2611 32.4844 22.0724C30.8002 21.8836 29.2443 21.0824 28.113 19.8212C26.9816 18.56 26.3538 16.927 26.3491 15.233L33.9038 16.357L39.1744 11.5453L39.1042 11.4926ZM30.3197 6.62833L42.495 7.08492L33.7105 15.3033L20.6217 13.3541L30.3197 6.62833Z" fill="white"/>
<path fill-rule="evenodd" clip-rule="evenodd" d="M53.4406 4.50317C60.1637 8.20995 65.525 13.9682 68.7413 20.9369C71.9576 27.9056 72.8605 35.7196 71.3182 43.2377C69.7758 50.7557 65.8689 57.5839 60.1682 62.7249C54.4674 67.8659 47.2715 71.0504 39.6315 71.8132C38.1669 71.9677 36.6939 72.0264 35.2217 71.9888C45.763 51.9345 52.7027 29.1935 53.4933 7.01434C53.5992 6.17923 53.5815 5.3331 53.4406 4.50317Z" fill="white"/>
</svg>































































































