<svg width="24" height="24" viewBox="0 0 24 24" fill="none" xmlns="http://www.w3.org/2000/svg">
<path d="M12 15C15.7279 15 18.75 12.0899 18.75 8.5C18.75 4.91015 15.7279 2 12 2C8.27208 2 5.25 4.91015 5.25 8.5C5.25 12.0899 8.27208 15 12 15Z" stroke="white" stroke-width="1.5" stroke-linecap="round" stroke-linejoin="round"/>
<path d="M12.58 5.48L13.17 6.65999C13.25 6.81999 13.46 6.98 13.65 7.01L14.72 7.18999C15.4 7.29999 15.56 7.8 15.07 8.29L14.24 9.11998C14.1 9.25998 14.02 9.53 14.07 9.73L14.31 10.76C14.5 11.57 14.07 11.89 13.35 11.46L12.35 10.87C12.17 10.76 11.87 10.76 11.69 10.87L10.69 11.46C9.96997 11.88 9.53997 11.57 9.72997 10.76L9.96997 9.73C10.01 9.54 9.93997 9.25998 9.79997 9.11998L8.96997 8.29C8.47997 7.8 8.63997 7.30999 9.31997 7.18999L10.39 7.01C10.57 6.98 10.78 6.81999 10.86 6.65999L11.45 5.48C11.74 4.84 12.26 4.84 12.58 5.48Z" stroke="#00CCCC" stroke-width="1.5" stroke-linecap="round" stroke-linejoin="round"/>
<path d="M7.51974 13.5201L7.50977 20.9001C7.50977 21.8001 8.13977 22.2401 8.91977 21.8701L11.5998 20.6001C11.8198 20.4901 12.1898 20.4901 12.4098 20.6001L15.0998 21.8701C15.8698 22.2301 16.5098 21.8001 16.5098 20.9001V13.3401" stroke="white" stroke-width="1.5" stroke-linecap="round" stroke-linejoin="round"/>
</svg>
