<svg width="24" height="24" viewBox="0 0 24 24" fill="none" xmlns="http://www.w3.org/2000/svg">
<path fill-rule="evenodd" clip-rule="evenodd" d="M4 6C4 5.44772 4.44772 5 5 5H18C18.5523 5 19 5.44772 19 6C19 6.55228 18.5523 7 18 7H5C4.44772 7 4 6.55228 4 6Z" fill="white"/>
<path fill-rule="evenodd" clip-rule="evenodd" d="M4 12C4 11.4477 4.61052 11 5.36364 11H17.6364C18.3895 11 19 11.4477 19 12C19 12.5523 18.3895 13 17.6364 13H5.36364C4.61052 13 4 12.5523 4 12Z" fill="white"/>
<path fill-rule="evenodd" clip-rule="evenodd" d="M4 18C4 17.4477 4.44772 17 5 17H18C18.5523 17 19 17.4477 19 18C19 18.5523 18.5523 19 18 19H5C4.44772 19 4 18.5523 4 18Z" fill="white"/>
</svg>
