<svg width="48" height="48" viewBox="0 0 48 48" fill="none" xmlns="http://www.w3.org/2000/svg">
<path d="M36 0H12C5.37258 0 0 5.37258 0 12V36C0 42.6274 5.37258 48 12 48H36C42.6274 48 48 42.6274 48 36V12C48 5.37258 42.6274 0 36 0Z" fill="#4DA1F3"/>
<path d="M24 27.2727C26.3472 27.2727 28.25 25.3191 28.25 22.9091V16.3636C28.25 13.9537 26.3472 12 24 12C21.6528 12 19.75 13.9537 19.75 16.3636V22.9091C19.75 25.3191 21.6528 27.2727 24 27.2727ZM21.875 16.3636C21.875 15.1587 22.8264 14.1818 24 14.1818C25.1736 14.1818 26.125 15.1587 26.125 16.3636V22.9091C26.125 24.1141 25.1736 25.0909 24 25.0909C22.8264 25.0909 21.875 24.1141 21.875 22.9091V16.3636ZM32.5 22.9091C32.5 22.3066 32.0243 21.8182 31.4375 21.8182C30.8507 21.8182 30.375 22.3066 30.375 22.9091C30.375 26.524 27.5208 29.4545 24 29.4545C20.4792 29.4545 17.625 26.524 17.625 22.9091C17.625 22.3066 17.1493 21.8182 16.5625 21.8182C15.9757 21.8182 15.5 22.3066 15.5 22.9091C15.5039 27.3042 18.6904 31.0106 22.9375 31.56V33.8182H20.8125C20.2257 33.8182 19.75 34.3066 19.75 34.9091C19.75 35.5116 20.2257 36 20.8125 36H27.1875C27.7743 36 28.25 35.5116 28.25 34.9091C28.25 34.3066 27.7743 33.8182 27.1875 33.8182H25.0625V31.56C29.3096 31.0106 32.4961 27.3042 32.5 22.9091Z" fill="white"/>
</svg>
