<svg width="42" height="43" viewBox="0 0 42 43" fill="none" xmlns="http://www.w3.org/2000/svg">
<path d="M17.1631 8.01794C18.6303 5.04496 22.8697 5.04496 24.3369 8.01794L25.9176 11.2207C26.5002 12.4013 27.6265 13.2195 28.9293 13.4088L32.4638 13.9224C35.7447 14.3992 37.0547 18.4311 34.6806 20.7452L32.1231 23.2382C31.1803 24.1571 30.7501 25.4811 30.9727 26.7787L31.5765 30.2989C32.1369 33.5665 28.7072 36.0583 25.7727 34.5156L22.6114 32.8536C21.4461 32.2409 20.0539 32.2409 18.8886 32.8536L15.7273 34.5156C12.7928 36.0583 9.36311 33.5665 9.92355 30.2989L10.5273 26.7787C10.7499 25.4811 10.3197 24.1571 9.37691 23.2382L6.81938 20.7452C4.44531 18.4311 5.75535 14.3992 9.03623 13.9224L12.5707 13.4088C13.8735 13.2195 14.9998 12.4013 15.5824 11.2207L17.1631 8.01794Z" fill="#FFB800"/>
<path d="M20.0904 26V18.51C19.8524 18.6827 19.6284 18.818 19.4184 18.916C19.2131 19.014 19.0007 19.0887 18.7814 19.14L18.5994 17.726C18.8187 17.67 19.0544 17.5627 19.3064 17.404C19.5631 17.2453 19.7987 17.061 20.0134 16.851C20.2281 16.641 20.3891 16.424 20.4964 16.2H21.7004V26H20.0904Z" fill="#121212"/>
</svg>
