<svg width="32" height="32" viewBox="0 0 32 32" fill="none" xmlns="http://www.w3.org/2000/svg">
<rect opacity="0.1" width="32" height="32" rx="8" fill="white"/>
<path d="M13.7842 17.464C13.7146 17.464 12.1833 17.464 11.4872 17.464C11.116 17.464 11 17.3248 11 16.9768C11 16.0487 11 15.0974 11 14.1694C11 13.7981 11.1392 13.6821 11.4872 13.6821H13.7842C13.7842 13.6125 13.7842 12.2668 13.7842 11.6404C13.7842 10.7123 13.9466 9.83063 14.4107 9.01856C14.8979 8.18329 15.594 7.62645 16.4756 7.30162C17.0557 7.09281 17.6357 7 18.2622 7H20.536C20.8608 7 21 7.13921 21 7.46404V10.109C21 10.4339 20.8608 10.5731 20.536 10.5731C19.9095 10.5731 19.2831 10.5731 18.6566 10.5963C18.0302 10.5963 17.7053 10.8979 17.7053 11.5476C17.6821 12.2436 17.7053 12.9165 17.7053 13.6357H20.3968C20.768 13.6357 20.9072 13.7749 20.9072 14.1462V16.9536C20.9072 17.3248 20.7912 17.4408 20.3968 17.4408C19.5615 17.4408 17.7749 17.4408 17.7053 17.4408V25.0046C17.7053 25.3991 17.5893 25.5383 17.1717 25.5383C16.1972 25.5383 15.2459 25.5383 14.2715 25.5383C13.9234 25.5383 13.7842 25.3991 13.7842 25.051C13.7842 22.6148 13.7842 17.5336 13.7842 17.464Z" fill="white"/>
</svg>
