<svg width="32" height="32" viewBox="0 0 32 32" fill="none" xmlns="http://www.w3.org/2000/svg">
<rect opacity="0.1" width="32" height="32" rx="8" fill="white"/>
<path d="M25.5832 21.8094C25.3527 22.666 24.6774 23.3412 23.8209 23.5719C22.2562 24 15.9973 24 15.9973 24C15.9973 24 9.73872 24 8.17404 23.5881C7.33403 23.3577 6.64218 22.6659 6.41177 21.8094C6 20.2448 6 17.0001 6 17.0001C6 17.0001 6 13.7391 6.41177 12.1908C6.64242 11.3344 7.31755 10.6591 8.17416 10.4285C9.7552 10.0002 15.9976 10.0002 15.9976 10.0002C15.9976 10.0002 22.2562 10.0002 23.8209 10.4121C24.6775 10.6426 25.3527 11.3179 25.5834 12.1744C25.995 13.7391 25.995 16.9836 25.995 16.9836C25.995 16.9836 26.0115 20.2448 25.5832 21.8094ZM14.0047 14.0025V19.9977L19.2092 17.0001L14.0047 14.0025Z" fill="white"/>
</svg>
