<svg width="20" height="20" viewBox="0 0 20 20" fill="none" xmlns="http://www.w3.org/2000/svg">
<path d="M10.125 13.75V15.5" stroke="#51545F" stroke-width="1.3" stroke-linecap="round" stroke-linejoin="round"/>
<path d="M5.95801 18.333H14.2913V17.4997C14.2913 16.583 13.5413 15.833 12.6247 15.833H7.62467C6.70801 15.833 5.95801 16.583 5.95801 17.4997V18.333V18.333Z" stroke="#51545F" stroke-width="1.3" stroke-miterlimit="10"/>
<path d="M5.125 18.3335H15.125" stroke="#51545F" stroke-width="1.3" stroke-linecap="round" stroke-linejoin="round"/>
<path d="M10.0003 13.3337C6.77533 13.3337 4.16699 10.7253 4.16699 7.50033V5.00033C4.16699 3.15866 5.65866 1.66699 7.50033 1.66699H12.5003C14.342 1.66699 15.8337 3.15866 15.8337 5.00033V7.50033C15.8337 10.7253 13.2253 13.3337 10.0003 13.3337Z" stroke="#51545F" stroke-width="1.3" stroke-linecap="round" stroke-linejoin="round"/>
<path d="M4.55853 9.70833C3.93353 9.50833 3.38353 9.14167 2.9502 8.70833C2.2002 7.875 1.7002 6.875 1.7002 5.70833C1.7002 4.54167 2.61686 3.625 3.78353 3.625H4.3252C4.15853 4.00833 4.0752 4.43333 4.0752 4.875V7.375C4.0752 8.20833 4.2502 8.99167 4.55853 9.70833Z" stroke="#51545F" stroke-width="1.3" stroke-linecap="round" stroke-linejoin="round"/>
<path d="M15.4414 9.70833C16.0664 9.50833 16.6164 9.14167 17.0497 8.70833C17.7997 7.875 18.2997 6.875 18.2997 5.70833C18.2997 4.54167 17.3831 3.625 16.2164 3.625H15.6747C15.8414 4.00833 15.9247 4.43333 15.9247 4.875V7.375C15.9247 8.20833 15.7497 8.99167 15.4414 9.70833Z" stroke="#51545F" stroke-width="1.3" stroke-linecap="round" stroke-linejoin="round"/>
</svg>
